<svg width="48" height="48" viewBox="0 0 48 48" fill="none" xmlns="http://www.w3.org/2000/svg">
<g clip-path="url(#clip0_1711_2249)">
<path d="M4.37784 36.9756H43.6224C45.7455 33.4953 46.9691 29.4061 46.9691 25.0311C46.9691 12.3457 36.6856 2.06213 24.0002 2.06213C11.3148 2.06213 1.03125 12.3457 1.03125 25.0311C1.03116 29.4061 2.25469 33.4952 4.37784 36.9756V36.9756Z" fill="#7E6DD1"/>
<path d="M21.7534 31.583C22.1565 31.8499 22.2492 32.4387 21.8695 32.8276C21.8433 32.8684 21.6618 33.0016 21.7932 33.126C25.4397 36.5827 22.5552 36.5451 26.2759 33.0611C26.4458 32.902 26.1434 32.8175 26.0454 32.4636C25.8933 31.9124 26.3665 31.592 26.3746 31.5823C27.7806 30.6515 28.737 29.3491 29.2954 27.7864C28.5102 27.1768 27.9997 26.4782 27.9997 25.6917C27.9997 25.1358 27.9997 25.3023 27.9997 24.9425C27.0306 25.8088 25.3688 26.9126 24.0002 26.9458C22.6316 26.9126 20.9698 25.8088 20.0007 24.9425V25.6917C20.0007 26.4445 19.5332 27.1168 18.8047 27.7078C19.3457 29.3133 20.361 30.6613 21.7534 31.583V31.583Z" fill="#FFAA7B"/>
<path d="M24.0263 26.9444C24.0177 26.9447 24.0088 26.9454 24.0002 26.9456C22.6316 26.9124 20.9698 25.8087 20.0007 24.9424V25.6915C20.0007 26.4444 19.5332 27.1167 18.8047 27.7076C19.3457 29.3132 20.3611 30.6612 21.7534 31.5828C21.8343 31.6364 21.9021 31.7034 21.9567 31.7786C23.5688 30.4541 23.9417 28.0933 24.0263 26.9444V26.9444Z" fill="#FC9460"/>
<path d="M21.7172 32.8569L19.4671 35.4341C18.9748 36.0011 18.0712 35.9 17.7157 35.2381C17.5267 34.8862 17.3156 34.4796 17.0946 34.0329C17.0852 34.0848 17.0751 34.1361 17.0676 34.1897C16.4161 34.3477 12.7998 35.365 12.7998 38.4358V45.0877C16.113 46.9422 19.9325 47.9999 23.9994 48.0001H24.0011C24.3775 48.0001 24.7514 47.9903 25.1233 47.9724C25.1233 44.9361 25.1233 40.9159 25.1233 38.909C25.1232 36.3137 22.8606 33.9073 21.7172 32.8569V32.8569Z" fill="#FC90CE"/>
<path d="M12.9405 45.1648C12.9405 43.6219 12.9405 40.7249 12.9405 38.4357C12.9405 35.1545 17.1947 34.3046 17.1947 34.3046C17.1969 34.286 17.2005 34.2687 17.203 34.2504C16.6112 33.0721 15.9301 31.573 15.3941 29.9895C15.3395 29.8281 15.3322 29.6576 15.3678 29.4957C12.8947 30.4092 10.3549 30.8728 10.3549 30.8728C9.61446 31.015 8.31686 31.394 7.09033 32.3895C8.51739 33.5545 10.5704 35.7554 10.5704 38.7802V43.6655C11.327 44.2119 12.1187 44.7123 12.9405 45.1648V45.1648Z" fill="#FF7ACB"/>
<path d="M21.8332 31.4623C21.529 31.2609 21.2542 31.0456 21.0049 30.8223C20.3555 30.9099 17.5269 31.4439 17.0854 34.085C17.3088 34.5366 17.5226 34.9487 17.7148 35.3065C18.1175 36.0562 19.1448 36.1718 19.7027 35.5292L22.0217 32.8731C22.3977 32.4425 22.3099 31.778 21.8332 31.4623Z" fill="#FF7ACB"/>
<path d="M21.1482 30.9472C19.8629 29.8558 19.2336 28.5366 18.9347 27.6408C18.758 27.1116 18.129 26.9003 17.6644 27.2091C16.9133 27.7082 16.2251 28.2966 15.615 28.9617C15.3489 29.2518 15.2574 29.6632 15.3836 30.036C15.9199 31.6207 16.5998 33.1195 17.1947 34.3044C17.5505 31.2204 21.1482 30.9472 21.1482 30.9472V30.9472Z" fill="#FF54B6"/>
<path d="M37.6454 30.8729C37.6454 30.8729 35.1055 30.4093 32.6325 29.4958C32.6681 29.6578 32.6608 29.8282 32.6061 29.9896C31.9058 32.059 30.9571 33.986 30.2845 35.2381C29.9291 35.9 29.0254 36.0012 28.5331 35.4342L26.283 32.857C25.1396 33.9073 22.877 36.3138 22.877 38.909V47.9725C23.2488 47.9904 23.6228 48 23.9991 48.0001H24.0009C24.9659 48 25.9168 47.9399 26.8505 47.8243L26.8504 47.8242L33.6507 45.8786L33.651 45.8795C34.985 45.2608 36.2495 44.5179 37.43 43.6656C37.43 41.9788 37.43 40.245 37.43 38.7803C37.43 35.7556 39.4829 33.5547 40.91 32.3896C39.6834 31.3941 38.3858 31.0151 37.6454 30.8729V30.8729Z" fill="#FFBBE5"/>
<path d="M32.5117 28.9617C31.9016 28.2967 31.2133 27.7082 30.4622 27.2091C29.9977 26.9003 29.3686 27.1117 29.192 27.6408C28.844 28.6832 28.0498 30.2995 26.2934 31.4623C25.8167 31.778 25.729 32.4425 26.105 32.8731L28.424 35.5292C28.9819 36.1717 30.0092 36.0561 30.4119 35.3065C31.0927 34.039 32.0412 32.11 32.7432 30.036C32.8693 29.6632 32.7778 29.2518 32.5117 28.9617V28.9617Z" fill="#FC90CE"/>
<path d="M43.6225 36.9756C43.418 36.1719 43.1693 35.457 42.8702 34.8588C42.3025 33.7235 41.5693 32.9053 40.8154 32.3143C39.3864 33.4585 37.2427 35.6897 37.2427 38.7802V43.7998C39.8067 41.9875 41.983 39.6633 43.6225 36.9756V36.9756Z" fill="#FC90CE"/>
<path d="M7.18509 32.3143C6.43124 32.9053 5.69793 33.7235 5.13027 34.8588C4.83121 35.457 4.58249 36.1718 4.37793 36.9756C6.01752 39.6633 8.19374 41.9875 10.7578 43.7998C10.7578 42.0712 10.7578 40.2839 10.7578 38.7802C10.7578 35.6897 8.61412 33.4585 7.18509 32.3143V32.3143Z" fill="#FF54B6"/>
<path d="M12.6608 21.43C12.7892 21.9155 13.1213 22.3163 13.5639 22.5143C13.5804 22.5217 13.597 22.5291 13.6136 22.5364C16.0927 23.6386 18.7833 24.1841 21.4963 24.1841H26.504C29.2169 24.1841 31.9074 23.6386 34.3865 22.5365C34.4031 22.5291 34.4197 22.5217 34.4363 22.5143C34.8788 22.3163 35.211 21.9154 35.3394 21.4299C35.6795 20.145 35.8566 18.8665 35.9268 17.5667C36.3229 10.2555 33.5767 5.53346 30.7654 2.55286C29.0254 0.708051 26.856 -0.604168 24.682 0.284957C24.2448 0.463738 23.7553 0.463738 23.3181 0.284957C21.1441 -0.604074 18.9747 0.708144 17.2348 2.55286C14.4235 5.53346 11.6773 10.2555 12.0734 17.5667C12.1442 18.8687 12.32 20.1424 12.6608 21.43V21.43Z" fill="#56415E"/>
<path d="M17.2348 2.55281C14.4235 5.53341 11.6773 10.2554 12.0734 17.5667C12.1443 18.8687 12.32 20.1423 12.6608 21.4298C12.7892 21.9154 13.1213 22.3162 13.5639 22.5143C13.5804 22.5217 13.597 22.5291 13.6136 22.5364C16.0927 23.6385 18.7833 24.184 21.4963 24.184H26.504C29.2169 24.184 31.9074 23.6385 34.3865 22.5365C34.4031 22.5291 34.4197 22.5217 34.4363 22.5143C34.8788 22.3163 35.211 21.9154 35.3394 21.4298C35.5216 20.7416 35.6558 20.055 35.753 19.3661C33.2653 19.951 32.7992 17.2143 32.7992 17.2143L20.719 10.6146C18.576 5.63719 23.3181 0.284909 23.3181 0.284909C21.1442 -0.604123 18.9747 0.708096 17.2348 2.55281V2.55281Z" fill="#45304C"/>
<path d="M16.2944 12.483C16.2312 12.4938 16.1675 12.5042 16.1033 12.5141C14.7795 12.7177 13.9931 14.1006 14.468 15.3529C14.4708 15.3604 14.4736 15.3678 14.4764 15.3752C14.5727 15.6313 14.6347 15.8903 14.663 16.1498C14.724 16.7136 15.0296 17.5388 16.2972 17.5194C16.278 17.4381 16.2584 17.3581 16.2397 17.2756C16.2397 17.2756 15.7705 14.3027 16.2944 12.483Z" fill="#FC9460"/>
<path d="M31.7054 12.483C32.2293 14.3027 31.7601 17.2756 31.7601 17.2756C31.7414 17.3582 31.7218 17.4382 31.7026 17.5194C32.9701 17.5389 33.2759 16.7136 33.3369 16.1498C33.3649 15.8903 33.4271 15.6313 33.5234 15.3752C33.5262 15.3678 33.529 15.3604 33.5318 15.3529C34.0066 14.1005 33.2203 12.7177 31.8964 12.5141C31.8323 12.5042 31.7686 12.4938 31.7054 12.483V12.483Z" fill="#FFAA7B"/>
<path d="M20.6856 15.2721C20.9587 17.6679 21.7119 21.0218 23.7494 23.3934C24.7185 24.5216 25.8945 25.3357 27.2619 25.8319C28.1887 25.1231 28.968 24.2501 29.5623 23.241C30.5356 21.5882 31.2952 19.5859 31.8194 17.2895C32.0042 16.2241 32.1799 13.9709 31.7655 12.4935C28.7318 11.991 26.7579 10.4134 25.5503 8.98351C24.7383 8.0221 23.2616 8.0221 22.4496 8.98351C21.957 9.56672 21.3368 10.1746 20.5692 10.724C20.5346 11.2044 20.4314 13.0424 20.6856 15.2721V15.2721Z" fill="#FFC7AB"/>
<path d="M32.4935 40.4349H28.0081C27.3716 40.4349 26.8506 40.9558 26.8506 41.5925V47.824C29.2522 47.5267 31.5383 46.8581 33.6509 45.8784V41.5925C33.651 40.9558 33.1301 40.4349 32.4935 40.4349V40.4349Z" fill="#FC90CE"/>
<path d="M39.8093 8.36926C38.7389 9.62467 37.948 11.3993 38.5625 13.7251C40.5938 21.4124 35.965 24.9424 39.6875 27.6692C42.0561 29.4043 44.2938 30.5523 45.7135 32.5374C46.5267 30.1851 46.969 27.6598 46.969 25.0311C46.969 18.4715 44.2189 12.5546 39.8093 8.36926V8.36926Z" fill="#9589E8"/>
<path d="M8.19084 8.36926C9.26128 9.62467 10.0522 11.3993 9.43762 13.7251C7.40634 21.4124 12.0352 24.9424 8.31262 27.6692C5.94403 29.4043 3.70641 30.5523 2.28666 32.5374C1.47347 30.1851 1.03125 27.6598 1.03125 25.0311C1.03116 18.4715 3.78122 12.5546 8.19084 8.36926V8.36926Z" fill="#9589E8"/>
<path d="M25.2348 27.0151C26.0214 26.6774 26.7442 26.2454 27.3919 25.7315C19.5623 22.9836 20.7189 10.6147 20.7189 10.6147L20.7188 10.6146C19.5835 11.4595 18.1122 12.1826 16.2344 12.4937C15.82 13.9711 15.9957 16.2242 16.1804 17.2896C16.7048 19.5859 17.4644 21.5882 18.4377 23.2412C19.4258 24.919 20.9221 26.224 22.7651 27.0152C23.158 27.1837 23.5784 27.2711 24 27.2792C24.4216 27.271 24.8419 27.1836 25.2348 27.0151V27.0151Z" fill="#FFAA7B"/>
</g>
<defs>
<clipPath id="clip0_1711_2249">
<rect width="48" height="48" fill="white"/>
</clipPath>
</defs>
</svg>
