<svg width="48" height="48" viewBox="0 0 48 48" fill="none" xmlns="http://www.w3.org/2000/svg">
<g clip-path="url(#clip0_1711_2272)">
<path d="M43.1684 37.6879C45.5696 34.0586 46.9691 29.7086 46.9691 25.0311C46.9691 12.3457 36.6856 2.06213 24.0002 2.06213C11.3148 2.06213 1.03125 12.3457 1.03125 25.0311C1.03125 29.7086 2.43075 34.0586 4.83206 37.6879H43.1684Z" fill="#49B1F7"/>
<path d="M20.6646 2.48326C20.613 3.89944 21.2342 5.26482 22.511 6.5416C26.5443 10.575 29.982 21.6171 30.0192 21.7368C30.036 21.7824 30.4451 22.857 31.5672 23.2685C32.2762 23.5285 33.0981 23.4617 34.0169 23.0713C34.2202 22.4164 34.5446 21.6813 35.0293 20.8424C39.3584 13.3499 34.1228 10.3899 32.4348 5.26098C31.6963 3.01707 30.0016 1.70148 28.3287 0.931413C26.0921 -0.0980555 23.5598 -0.273743 21.2216 0.402382C20.9261 0.989538 20.6933 1.69379 20.6646 2.48326V2.48326Z" fill="#56415E"/>
<path d="M33.732 34.625C38.5412 28.2988 32.2414 28.2635 34.0863 22.8601C31.1123 24.2126 30.1738 21.6796 30.1738 21.6796C30.1738 21.6796 26.7371 10.5345 22.6275 6.42494C20.2284 4.02579 20.6645 1.78825 21.443 0.340942C20.8822 0.489536 20.3313 0.685849 19.7975 0.931567C18.1246 1.70163 16.43 3.01722 15.6915 5.26113C14.0036 10.39 8.76792 13.35 13.097 20.8426C17.4261 28.3351 9.04992 27.5951 14.3942 34.6251H24.063H33.732V34.625Z" fill="#45304C"/>
<path d="M15.0474 17.3595C15.2898 17.6515 15.6904 17.8705 16.3529 17.8603C16.3335 17.7783 16.3137 17.6976 16.2948 17.6143C16.2948 17.6143 16.0274 15.9194 16.1187 14.2976C15.4947 15.0086 14.9937 15.864 15.0474 17.3595V17.3595Z" fill="#FC9460"/>
<path d="M32.1356 14.2976C32.2269 15.9194 31.9594 17.6143 31.9594 17.6143C31.9406 17.6976 31.9207 17.7784 31.9014 17.8603C32.5637 17.8705 32.9645 17.6515 33.2068 17.3595C33.2605 15.8641 32.7596 15.0087 32.1356 14.2976V14.2976Z" fill="#FFAA7B"/>
<path d="M21.8166 32.0444C22.2085 32.3038 22.2985 32.876 21.9294 33.254C21.904 33.2937 21.7277 33.4231 21.8552 33.5441C25.3992 36.9037 22.5957 36.8671 26.2121 33.4809C26.3773 33.3263 26.0834 33.2442 25.988 32.9002C25.8403 32.3645 26.3001 32.0531 26.308 32.0436C27.6745 31.139 28.604 29.8732 29.1467 28.3544C28.3835 27.7618 27.8874 27.0829 27.8874 26.3185C27.8874 25.7782 27.8874 25.9401 27.8874 25.5903C26.9456 26.4324 25.3304 27.5051 24.0002 27.5373C22.67 27.5051 21.0549 26.4323 20.1131 25.5903V26.3185C20.1131 27.0502 19.6588 27.7036 18.9507 28.278C19.4765 29.8385 20.4634 31.1487 21.8166 32.0444V32.0444Z" fill="#FFAA7B"/>
<path d="M24.0554 27.5347C24.037 27.5356 24.0185 27.537 24.0002 27.5373C22.67 27.5051 21.0549 26.4324 20.1131 25.5903V26.3185C20.1131 27.0502 19.6588 27.7036 18.9507 28.278C19.4712 29.8227 20.444 31.1214 21.7762 32.0163C21.8155 31.9884 21.8549 31.959 21.8942 31.9271C23.6545 30.5032 23.9931 28.428 24.0554 27.5347V27.5347Z" fill="#FC9460"/>
<path d="M27.211 34.4186L26.2193 33.2827C25.7412 33.7218 25.0623 34.4055 24.4434 35.2421C25.7014 35.1571 26.6661 34.7278 27.211 34.4186V34.4186Z" fill="#D3DCFB"/>
<path d="M23.5561 35.2407C22.9374 34.4047 22.2589 33.7217 21.7812 33.2827L20.8237 34.3794C21.3198 34.691 22.2584 35.1513 23.5561 35.2407V35.2407Z" fill="#D3DCFB"/>
<path d="M42.3401 35.2283C40.9116 32.3715 38.4046 31.5737 37.2623 31.3544C37.2623 31.3544 34.7938 30.9038 32.3901 30.016C32.4247 30.1733 32.4177 30.339 32.3645 30.4959C31.6838 32.5071 30.7618 34.38 30.1082 35.597C29.7654 36.2354 28.8984 36.3362 28.4176 35.7994C27.6469 36.2924 26.0548 37.11 23.9741 37.11C21.833 37.11 20.3065 36.2441 19.6193 35.759L19.5945 35.7875C19.1161 36.3386 18.2377 36.2403 17.8922 35.597C17.6533 35.1521 17.3783 34.6188 17.0925 34.0239C17.0868 34.0671 17.0803 34.1094 17.0759 34.1537C16.7524 34.2519 15.6586 34.6099 14.5487 35.2732C12.8117 36.3113 11.8936 37.6028 11.8936 39.008V44.5523C15.4084 46.7373 19.5565 48 24.0001 48C32.0079 48 39.0573 43.901 43.1683 37.6878C42.9527 36.7416 42.6797 35.9077 42.3401 35.2283V35.2283Z" fill="#88CE65"/>
<path d="M12.0341 39.008C12.0341 35.699 17.2075 34.2616 17.2075 34.2616V34.2616C16.6794 33.1812 16.1012 31.871 15.6358 30.4959C15.5826 30.3391 15.5755 30.1734 15.6102 30.016C13.2065 30.9038 10.738 31.3544 10.738 31.3544C9.59575 31.5737 7.08869 32.3715 5.66022 35.2283C5.32056 35.9077 5.04756 36.7416 4.83203 37.6878C6.69222 40.4993 9.15409 42.8777 12.0342 44.6395C12.0341 43.0534 12.0341 40.8531 12.0341 39.008V39.008Z" fill="#6FAF46"/>
<path d="M32.2058 14.3788C31.2481 13.2517 29.9514 12.5212 29.9514 10.3084C29.9514 4.69691 24.4687 6.70269 24.4687 6.70269C24.2485 6.78716 24.0061 6.78716 23.7859 6.70269C23.7859 6.70269 23.1823 6.4821 22.3759 6.39191C22.3868 6.40288 22.3969 6.41385 22.4079 6.42491C22.4079 6.42491 17.9505 19.6256 26.5936 26.7054C26.6258 26.7318 26.6562 26.7581 26.6875 26.7844C27.9592 25.9943 29.0081 24.924 29.7613 23.635C30.7358 21.9673 31.4964 19.9463 32.0226 17.6241C32.1433 16.8568 32.2681 15.581 32.2058 14.3788V14.3788Z" fill="#FFC7AB"/>
<path d="M18.4933 23.6351C19.4828 25.3285 20.9814 26.6456 22.8269 27.444C23.6535 27.8015 24.6013 27.8016 25.4278 27.444C25.915 27.2333 26.3772 26.9853 26.8131 26.7049C18.1709 19.625 22.6281 6.42502 22.6281 6.42502C21.0193 6.18286 18.3033 6.35883 18.3033 10.3085C18.3033 12.5188 17.0094 13.2501 16.0521 14.375C15.9843 15.5977 16.1065 16.8933 16.233 17.6285C16.7581 19.946 17.5187 21.9669 18.4933 23.6351V23.6351Z" fill="#FFAA7B"/>
<path d="M19.1147 35.5415C19.1147 35.5415 20.9191 37.2506 23.9739 37.2506C27.0287 37.2506 29.0208 35.5415 29.0208 35.5415L27.6221 33.9841C27.6221 33.9841 26.1924 35.1169 24.0001 35.1169C21.8077 35.1169 20.5127 33.9841 20.5127 33.9841L19.1147 35.5415Z" fill="#B4D667"/>
<path d="M21.8941 31.9272C21.3273 31.5519 20.864 31.128 20.4851 30.692C19.9604 30.788 17.3974 31.3947 17.0854 34.078C17.3725 34.6758 17.6494 35.213 17.8913 35.6635C18.2827 36.3921 19.2811 36.5045 19.8233 35.88L22.0772 33.2985C22.4427 32.8799 22.3574 32.2339 21.8941 31.9272Z" fill="#DEEEFF"/>
<path d="M20.596 30.8164C19.7631 29.9036 19.3137 28.9218 19.0771 28.2131C18.9054 27.6988 18.2941 27.4934 17.8425 27.7934C17.1124 28.2785 16.4435 28.8504 15.8506 29.4968C15.592 29.7787 15.503 30.1785 15.6257 30.5409C16.0855 31.8995 16.6539 33.1931 17.1783 34.27C17.1971 34.2645 17.2075 34.2616 17.2075 34.2616C17.4435 31.2062 20.5959 30.8164 20.596 30.8164V30.8164Z" fill="#D3DCFB"/>
<path d="M32.2729 29.4969C31.68 28.8505 31.0111 28.2785 30.281 27.7934C29.8295 27.4933 29.2182 27.6987 29.0465 28.2131C28.7083 29.2262 27.9363 30.7972 26.2293 31.9272C25.766 32.234 25.6807 32.8799 26.0462 33.2985L28.3 35.88C28.8422 36.5046 29.8407 36.3922 30.232 35.6636C30.8937 34.4317 31.8155 32.5568 32.4978 30.541C32.6205 30.1786 32.5315 29.7788 32.2729 29.4969V29.4969Z" fill="#DEEEFF"/>
<path d="M9.44034 22.4421C7.50281 18.3797 8.37787 15.0047 9.62784 11.7121C10.2176 10.1585 9.69422 8.73109 8.97694 7.65625C4.11028 11.868 1.03125 18.09 1.03125 25.0311C1.03125 27.827 1.53169 30.5057 2.44678 32.9837C3.17944 31.7472 4.87828 30.6635 6.75291 30.016C9.25284 29.1525 11.3778 26.5046 9.44034 22.4421V22.4421Z" fill="#73C3F9"/>
<path d="M38.5601 22.4421C40.4977 18.3797 39.6226 15.0047 38.3726 11.7121C37.7829 10.1585 38.3063 8.73109 39.0235 7.65625C43.8902 11.868 46.9692 18.09 46.9692 25.0311C46.9692 27.827 46.4689 30.5057 45.5538 32.9837C44.8211 31.7472 43.1222 30.6635 41.2477 30.016C38.7476 29.1525 36.6227 26.5046 38.5601 22.4421V22.4421Z" fill="#73C3F9"/>
<path d="M41.0258 40.4454C40.5713 38.5667 39.4124 37.4816 38.4751 36.889C37.8891 36.5185 37.125 36.9355 37.125 37.6289V43.8809C38.5522 42.8853 39.8606 41.7315 41.0258 40.4454Z" fill="#6FAF46"/>
</g>
<defs>
<clipPath id="clip0_1711_2272">
<rect width="48" height="48" fill="none"/>
</clipPath>
</defs>
</svg>
