<svg width="390" height="364" viewBox="0 0 390 364" fill="none" xmlns="http://www.w3.org/2000/svg">
<g filter="url(#filter0_d_693_3401)">
<path d="M195 291.894C275.762 291.894 341.232 258.769 341.232 217.908C341.232 177.047 275.762 143.922 195 143.922C114.238 143.922 48.7681 177.047 48.7681 217.908C48.7681 258.769 114.238 291.894 195 291.894Z" fill="#FAFAFA"/>
</g>
<path d="M246.6 189.444L275.25 172.932C275.397 172.884 275.525 172.791 275.616 172.666C275.707 172.541 275.756 172.39 275.756 172.236C275.756 172.082 275.707 171.931 275.616 171.806C275.525 171.681 275.397 171.588 275.25 171.54L224.754 142.266C224.382 142.079 223.971 141.981 223.554 141.981C223.138 141.981 222.727 142.079 222.354 142.266L193.71 158.778C193.563 158.826 193.435 158.919 193.345 159.044C193.254 159.169 193.205 159.32 193.205 159.474C193.205 159.628 193.254 159.779 193.345 159.904C193.435 160.029 193.563 160.122 193.71 160.17L244.2 189.444C244.573 189.631 244.984 189.729 245.4 189.729C245.817 189.729 246.228 189.631 246.6 189.444Z" fill="#E0E0E0"/>
<path d="M310.422 222.672C321.049 222.672 329.664 217.697 329.664 211.56C329.664 205.423 321.049 200.448 310.422 200.448C299.795 200.448 291.18 205.423 291.18 211.56C291.18 217.697 299.795 222.672 310.422 222.672Z" fill="#E0E0E0"/>
<path d="M156.12 266.532C175.694 266.532 191.562 257.369 191.562 246.066C191.562 234.763 175.694 225.6 156.12 225.6C136.546 225.6 120.678 234.763 120.678 246.066C120.678 257.369 136.546 266.532 156.12 266.532Z" fill="#E0E0E0"/>
<path d="M239.268 26.598L242.46 24.744C244.476 23.724 247.164 24.024 250.056 25.884C255.87 29.628 260.31 38.262 259.974 45.174C259.806 48.618 258.486 50.976 256.482 52.02L253.284 53.874C251.274 54.9 248.58 54.6 245.688 52.734C239.874 48.99 235.428 40.356 235.764 33.45C235.938 30 237.264 27.642 239.268 26.598Z" fill="#EBEBEB"/>
<path d="M253.464 53.784L256.506 51.984C258.51 50.94 259.83 48.576 259.998 45.138C260.064 41.7922 259.345 38.4775 257.898 35.46L254.706 37.308C256.149 40.3288 256.868 43.6446 256.806 46.992C256.662 50.4 255.396 52.71 253.464 53.784Z" fill="#E0E0E0"/>
<path d="M245.694 52.734C239.88 48.99 235.434 40.356 235.77 33.45C236.106 26.544 241.092 24 246.906 27.72C252.72 31.44 257.16 40.098 256.8 47.01C256.44 53.922 251.508 56.478 245.694 52.734Z" fill="#F0F0F0"/>
<path d="M250.566 52.254C253.992 52.422 254.55 48.564 254.628 46.902C254.928 40.806 250.842 32.874 245.718 29.568C244.627 28.8051 243.359 28.3341 242.034 28.2C238.608 28.038 238.05 31.89 237.966 33.558C237.672 39.648 241.752 47.586 246.882 50.886C247.973 51.649 249.241 52.1199 250.566 52.254V52.254Z" fill="white"/>
<path d="M245.628 41.4H245.748C245.821 41.3733 245.884 41.3252 245.929 41.262C245.974 41.1988 245.999 41.1235 246 41.046V32.184C246.007 32.1307 246.002 32.0767 245.987 32.0254C245.971 31.9741 245.944 31.9268 245.909 31.8865C245.873 31.8463 245.83 31.814 245.781 31.7919C245.732 31.7698 245.679 31.7584 245.625 31.7584C245.572 31.7584 245.519 31.7698 245.47 31.7919C245.421 31.814 245.377 31.8463 245.342 31.8865C245.306 31.9268 245.28 31.9741 245.264 32.0254C245.248 32.0767 245.243 32.1307 245.25 32.184V39.9119L241.14 34.632C241.08 34.5524 240.99 34.5001 240.891 34.4866C240.792 34.4731 240.692 34.4995 240.612 34.56C240.533 34.6204 240.48 34.71 240.467 34.809C240.453 34.9081 240.48 35.0084 240.54 35.088L245.34 41.226C245.37 41.2762 245.412 41.3183 245.463 41.3487C245.513 41.379 245.57 41.3966 245.628 41.4V41.4Z" fill="#E0E0E0"/>
<path d="M247.734 47.88H247.8C247.84 47.8675 247.874 47.8399 247.894 47.8029C247.914 47.7659 247.919 47.7226 247.908 47.682L245.82 40.704C245.808 40.6642 245.781 40.6308 245.744 40.6111C245.707 40.5914 245.665 40.5871 245.625 40.599C245.585 40.6109 245.552 40.6382 245.532 40.6748C245.512 40.7113 245.508 40.7542 245.52 40.794L247.59 47.766C247.599 47.7974 247.618 47.825 247.644 47.8454C247.67 47.8657 247.701 47.8778 247.734 47.88V47.88Z" fill="#EBEBEB"/>
<path d="M245.742 39.234C245.058 38.796 244.476 39.096 244.434 39.906C244.438 40.35 244.546 40.787 244.749 41.1819C244.952 41.5768 245.245 41.9186 245.604 42.18C246.288 42.618 246.87 42.318 246.912 41.502C246.91 41.0585 246.802 40.6218 246.599 40.2277C246.396 39.8336 246.102 39.4931 245.742 39.234V39.234Z" fill="#EBEBEB"/>
<path d="M240.558 173.478L243.018 185.682L245.412 187.062L247.782 185.694L250.26 173.478L245.412 170.676L240.558 173.478Z" fill="#E0E0E0"/>
<path opacity="0.05" d="M240.558 173.478L243.018 185.682L245.412 187.062L247.782 185.694L250.26 173.478L245.412 170.676L240.558 173.478Z" fill="black"/>
<path d="M245.412 187.062V176.274L240.558 173.478L243.018 185.682L245.412 187.062Z" fill="#EBEBEB"/>
<path opacity="0.05" d="M240.558 173.478L242.148 181.356L245.412 183.24L248.658 181.368L250.26 173.478L245.412 170.676L240.558 173.478Z" fill="black"/>
<path d="M261.894 161.16L264.354 173.364L266.748 174.744L269.118 173.376L271.602 161.16L266.748 158.358L261.894 161.16Z" fill="#E0E0E0"/>
<path opacity="0.05" d="M261.894 161.16L264.354 173.364L266.748 174.744L269.118 173.376L271.602 161.16L266.748 158.358L261.894 161.16Z" fill="black"/>
<path d="M266.748 174.744V163.956L261.894 161.16L264.354 173.364L266.748 174.744Z" fill="#EBEBEB"/>
<path opacity="0.05" d="M261.894 161.16L263.484 169.038L266.748 170.922L269.994 169.05L271.596 161.16L266.748 158.358L261.894 161.16Z" fill="black"/>
<path d="M196.854 148.266L199.314 160.47L201.702 161.85L204.072 160.482L206.556 148.266L201.702 145.464L196.854 148.266Z" fill="#E0E0E0"/>
<path opacity="0.05" d="M196.854 148.266L199.314 160.47L201.702 161.85L204.072 160.482L206.556 148.266L201.702 145.464L196.854 148.266Z" fill="black"/>
<path d="M201.702 161.85V151.068L196.854 148.266L199.314 160.47L201.702 161.85Z" fill="#EBEBEB"/>
<path opacity="0.05" d="M196.854 148.266L198.438 156.15L201.702 158.034L204.954 156.156L206.556 148.266L201.702 145.464L196.854 148.266Z" fill="black"/>
<path d="M245.412 181.272L271.854 166.008V108.78L245.412 124.044V181.272Z" fill="#E0E0E0"/>
<path d="M245.412 124.044L195.474 95.238V152.466L245.412 181.272V124.044Z" fill="#EBEBEB"/>
<path d="M195.474 95.238L245.412 124.044L271.854 108.78L221.916 79.974L195.474 95.238Z" fill="#F5F5F5"/>
<path d="M241.632 152.394L199.254 127.95V148.95L198.558 149.352L240.942 173.796L241.638 173.394L241.632 152.394Z" fill="#E0E0E0"/>
<path d="M240.936 152.796L198.558 128.352V149.352L240.942 173.796L240.936 152.796Z" fill="#F5F5F5"/>
<path d="M222.276 147.096L217.14 144.132C216.474 143.742 215.94 143.922 215.94 144.522C215.985 144.895 216.117 145.252 216.326 145.565C216.534 145.878 216.813 146.137 217.14 146.322L222.282 149.322C222.948 149.706 223.482 149.526 223.482 148.926C223.441 148.547 223.31 148.184 223.1 147.865C222.89 147.547 222.608 147.283 222.276 147.096V147.096Z" fill="#E0E0E0"/>
<path d="M241.638 127.032L199.254 102.588V123.594L198.564 123.996L240.942 148.44L241.638 148.038V127.032Z" fill="#E0E0E0"/>
<path d="M240.942 127.434L198.558 102.99L198.564 123.996L240.942 148.44V127.434Z" fill="#F5F5F5"/>
<path d="M222.282 121.734L217.14 118.8C216.474 118.416 215.94 118.59 215.94 119.19C215.985 119.563 216.117 119.92 216.326 120.233C216.534 120.546 216.813 120.805 217.14 120.99L222.282 123.96C222.948 124.344 223.482 124.17 223.482 123.564C223.439 123.186 223.308 122.824 223.1 122.506C222.891 122.188 222.611 121.924 222.282 121.734V121.734Z" fill="#E0E0E0"/>
<path d="M240.48 104.73L239.706 105.102L225.45 96.87L226.218 96.498L240.48 104.73Z" fill="#FAFAFA"/>
<path d="M226.218 96.498L239.784 104.328L241.758 84.036L228.192 76.212L226.218 96.498Z" fill="white"/>
<path d="M223.998 97.542L240.882 107.292L243.21 83.364L226.326 73.614L223.998 97.542ZM227.502 75.804L241.758 84.036L239.706 105.102L225.45 96.87L227.502 75.804Z" fill="#F0F0F0"/>
<path d="M225.45 96.8701L226.218 96.4981L228.192 76.2121L227.502 75.8041L225.45 96.8701Z" fill="#E0E0E0"/>
<path d="M226.326 73.614L227.106 73.254L243.99 83.004L243.21 83.364L226.326 73.614Z" fill="#FAFAFA"/>
<path d="M243.99 83.004L243.21 83.364L240.882 107.292L241.662 106.932L243.99 83.004Z" fill="#E0E0E0"/>
<path opacity="0.05" d="M221.754 97.6741L240.6 108.54L248.592 103.92L229.776 93.0601L221.754 97.6741Z" fill="black"/>
<path d="M226.818 96.1143L239.322 103.332L239.652 99.9123L237.33 89.8743L235.11 93.3003L235.572 96.1863L231.876 85.5363L227.148 92.6943L226.818 96.1143Z" fill="#F0F0F0"/>
<path d="M237.522 85.644C237.783 85.8072 237.996 86.0361 238.14 86.3078C238.285 86.5796 238.355 86.8845 238.344 87.192C238.29 87.75 237.834 87.96 237.324 87.666C237.063 87.5037 236.85 87.2759 236.704 87.0054C236.559 86.7348 236.487 86.431 236.496 86.124C236.55 85.566 237 85.35 237.522 85.644Z" fill="#F0F0F0"/>
<path opacity="0.05" d="M250.89 107.862C248.574 109.2 248.574 111.366 250.89 112.704C252.191 113.365 253.63 113.709 255.09 113.709C256.549 113.709 257.988 113.365 259.29 112.704C261.6 111.366 261.6 109.2 259.29 107.862C257.988 107.201 256.549 106.857 255.09 106.857C253.63 106.857 252.191 107.201 250.89 107.862V107.862Z" fill="black"/>
<path d="M258.84 111.234C260.856 109.176 262.038 104.034 260.076 102.414H250.08C248.112 104.046 249.294 109.176 251.31 111.234L251.364 111.288L251.43 111.354C251.488 111.413 251.55 111.467 251.616 111.516L251.664 111.558L251.814 111.672L252.078 111.84C253.008 112.31 254.036 112.555 255.078 112.555C256.12 112.555 257.148 112.31 258.078 111.84V111.84L258.342 111.672L258.48 111.564L258.54 111.516L258.714 111.36L258.798 111.282L258.84 111.234Z" fill="#F5F5F5"/>
<path d="M250.944 101.634C248.664 102.948 248.664 105.084 250.944 106.434C252.225 107.082 253.64 107.42 255.075 107.42C256.51 107.42 257.925 107.082 259.206 106.434C261.486 105.114 261.486 102.978 259.206 101.634C257.926 100.983 256.511 100.644 255.075 100.644C253.639 100.644 252.224 100.983 250.944 101.634Z" fill="white"/>
<path d="M252.564 102.564C251.178 103.368 251.178 104.67 252.564 105.468C253.343 105.864 254.204 106.071 255.078 106.071C255.952 106.071 256.813 105.864 257.592 105.468C258.978 104.67 258.978 103.368 257.592 102.564C256.812 102.171 255.951 101.966 255.078 101.966C254.205 101.966 253.344 102.171 252.564 102.564Z" fill="#EBEBEB"/>
<path d="M257.592 103.944C256.813 103.548 255.952 103.341 255.078 103.341C254.204 103.341 253.343 103.548 252.564 103.944C252.228 104.127 251.942 104.388 251.73 104.706C251.942 105.024 252.228 105.285 252.564 105.468C253.343 105.864 254.204 106.071 255.078 106.071C255.952 106.071 256.813 105.864 257.592 105.468C257.927 105.287 258.212 105.025 258.42 104.706C258.212 104.387 257.927 104.125 257.592 103.944V103.944Z" fill="#E0E0E0"/>
<path d="M252.87 104.706C252.166 103.989 251.561 103.182 251.07 102.306C250.23 100.824 250.074 98.832 250.512 98.586C250.95 98.34 252.708 100.326 252.708 100.326C252.547 99.4921 252.485 98.6423 252.522 97.794C252.6 96.468 252.918 95.268 253.296 95.028C253.674 94.788 254.526 96.45 254.886 97.662C255.246 98.874 255.486 99.864 255.486 99.864C255.631 98.9204 255.85 97.9896 256.14 97.08C256.578 95.826 256.98 95.544 257.286 95.67C257.592 95.796 257.802 96.378 257.886 98.07C257.92 98.8707 257.896 99.6728 257.814 100.47C257.814 100.47 258.414 99.786 259.128 99.12C259.842 98.454 260.214 98.292 260.43 98.43C260.646 98.568 260.706 99.702 259.53 101.832C258.946 102.915 258.197 103.901 257.31 104.754C257.31 104.754 255.648 105.756 252.87 104.706Z" fill="#EBEBEB"/>
<path d="M95.5503 139.8L96.9063 140.61L142.974 114.012L141.618 113.202L95.5503 139.8Z" fill="#FAFAFA"/>
<path d="M141.618 113.202L96.9062 139.014V48.456L141.618 22.65V113.202Z" fill="white"/>
<path d="M145.53 17.4301L94.3501 46.9801V145.038L145.53 115.488V17.4301ZM142.974 114.03L96.9061 140.61V48.4561L142.974 21.8581V114.03Z" fill="#F0F0F0"/>
<path d="M142.974 114.012L141.618 113.202V22.65L142.974 21.858V114.012Z" fill="#E0E0E0"/>
<path d="M96.9062 107.328V108.918L142.974 82.314L141.618 81.51L96.9062 107.328Z" fill="#FAFAFA"/>
<path d="M96.9062 75.618V77.208L142.974 50.61L141.618 49.8L96.9062 75.618Z" fill="#FAFAFA"/>
<path d="M145.53 17.43L144.156 16.644L92.9702 46.194L94.3502 46.98L145.53 17.43Z" fill="#FAFAFA"/>
<path d="M92.9702 46.1941L94.3502 46.9801V145.038L92.9702 144.246V46.1941Z" fill="#E0E0E0"/>
<path d="M116.61 37.08L117.984 36.282V128.442L116.61 127.656V37.08Z" fill="#E0E0E0"/>
<path d="M120.54 34.818L117.984 36.282V128.442L120.54 126.96V34.818Z" fill="#F0F0F0"/>
<path d="M145.53 49.134V52.08L94.3501 81.63V78.684L145.53 49.134Z" fill="#F0F0F0"/>
<path d="M145.53 80.832V83.784L94.3501 113.334V110.382L145.53 80.832Z" fill="#F0F0F0"/>
<path d="M117.984 65.0341L116.61 64.2421L96.9062 75.6181V77.2081L117.984 65.0341Z" fill="#FAFAFA"/>
<path d="M117.984 96.7321L116.61 95.9341L96.9062 107.31V108.9L117.984 96.7321Z" fill="#FAFAFA"/>
<path d="M158.598 54.9241L159.582 55.5121L179.754 43.8661L178.776 43.2781L158.598 54.9241Z" fill="#FAFAFA"/>
<path d="M178.776 43.278L159.582 54.354V34.254L178.776 23.184V43.278Z" fill="white"/>
<path d="M181.614 19.392L157.722 33.192V58.728L181.614 44.928V19.392ZM179.754 43.866L159.6 55.512V34.254L179.772 22.608L179.754 43.866Z" fill="#EBEBEB"/>
<path d="M179.754 43.866L178.776 43.278V23.184L179.754 22.608V43.866Z" fill="#E0E0E0"/>
<path d="M181.614 19.392L180.612 18.822L156.726 32.616L157.722 33.186L181.614 19.392Z" fill="#F5F5F5"/>
<path d="M156.726 32.616L157.722 33.186V58.728L156.726 58.152V32.616Z" fill="#E0E0E0"/>
<path d="M178.026 42.678L160.332 52.89V47.784L164.754 37.566L167.508 40.122L166.518 44.406L172.626 31.338L178.026 37.566V42.678Z" fill="#F0F0F0"/>
<path d="M167.34 32.634C166.96 32.8832 166.643 33.2183 166.416 33.6122C166.189 34.0062 166.057 34.448 166.032 34.902C166.032 35.736 166.632 36.072 167.34 35.658C167.722 35.4098 168.04 35.0751 168.268 34.6811C168.497 34.287 168.629 33.8447 168.654 33.39C168.654 32.556 168.066 32.22 167.34 32.634Z" fill="#F0F0F0"/>
<path d="M158.556 88.644L159.54 89.232L179.718 77.58L178.734 76.998L158.556 88.644Z" fill="#FAFAFA"/>
<path d="M178.734 76.9979L159.54 88.0739V67.9739L178.734 56.9039V76.9979Z" fill="white"/>
<path d="M181.572 53.1119L157.686 66.9119V92.4539L181.572 78.6539V53.1119ZM179.718 77.5799L159.54 89.2319V67.9739L179.718 56.3279V77.5799Z" fill="#EBEBEB"/>
<path d="M179.718 77.58L178.734 76.998V56.904L179.718 56.328V77.58Z" fill="#E0E0E0"/>
<path d="M181.572 53.112L180.576 52.542L156.69 66.336L157.686 66.906L181.572 53.112Z" fill="#F5F5F5"/>
<path d="M156.69 66.3359L157.686 66.9059V92.4419L156.69 91.8719V66.3359Z" fill="#E0E0E0"/>
<path d="M177.984 76.398L160.29 86.61V81.504L164.712 71.286L167.472 73.842L166.482 78.126L172.59 65.058L177.984 71.286V76.398Z" fill="#F0F0F0"/>
<path d="M167.304 66.3539C166.923 66.6024 166.606 66.9374 166.379 67.3314C166.151 67.7255 166.02 68.1677 165.996 68.6219C165.996 69.4559 166.596 69.7919 167.304 69.3779C167.684 69.1287 168.001 68.7936 168.228 68.3997C168.455 68.0058 168.587 67.564 168.612 67.1099C168.6 66.2759 168 65.9339 167.304 66.3539Z" fill="#F0F0F0"/>
<path d="M80.508 260.952C76.116 260.952 72.018 259.836 68.97 257.808C66.276 256.008 64.77 253.782 64.77 251.514C64.77 249.246 66.252 247.002 68.97 245.214C72.018 243.186 76.116 242.07 80.508 242.07C84.9 242.07 88.998 243.186 92.046 245.214C94.74 247.014 96.246 249.24 96.246 251.514C96.246 253.788 94.764 256.02 92.046 257.808C88.998 259.836 84.9 260.952 80.508 260.952Z" fill="#E0E0E0"/>
<path d="M90.822 250.758C90.8291 250.484 90.8029 250.21 90.744 249.942C90.252 246.876 87.606 243.564 85.758 242.508H75.342C73.494 243.564 70.842 246.87 70.356 249.936C70.2955 250.206 70.2673 250.482 70.272 250.758C70.272 250.806 70.272 250.896 70.272 250.896C70.368 252.342 71.358 253.764 73.272 254.862C77.286 257.184 83.796 257.184 87.816 254.862C89.718 253.764 90.708 252.342 90.816 250.896C90.81 250.896 90.822 250.8 90.822 250.758Z" fill="#37474F"/>
<path d="M75.6002 242.34C72.8702 243.912 72.8702 246.468 75.6002 248.046C78.3302 249.624 82.7582 249.618 85.4822 248.046C88.2062 246.474 88.2122 243.912 85.4822 242.34C82.7522 240.768 78.3362 240.762 75.6002 242.34Z" fill="#455A64"/>
<path d="M81.9723 89.682H79.1283V244.098C79.1196 244.235 79.1536 244.372 79.2256 244.489C79.2975 244.606 79.404 244.698 79.5303 244.752C79.8421 244.909 80.1863 244.99 80.5353 244.99C80.8843 244.99 81.2284 244.909 81.5403 244.752C81.6672 244.698 81.7744 244.606 81.8474 244.489C81.9204 244.372 81.9556 244.236 81.9483 244.098L81.9723 89.682Z" fill="#37474F"/>
<path d="M59.5261 84.162L69.4201 58.908H91.6801L101.586 84.162C102.996 88.11 101.058 92.376 95.7481 95.442C87.3481 100.284 73.7581 100.284 65.3701 95.442C60.0541 92.4 58.1161 88.11 59.5261 84.162Z" fill="#BA68C8"/>
<g opacity="0.4">
<path d="M59.5261 84.162L69.4201 58.908H91.6801L101.586 84.162C102.996 88.11 101.058 92.376 95.7481 95.442C87.3481 100.284 73.7581 100.284 65.3701 95.442C60.0541 92.4 58.1161 88.11 59.5261 84.162Z" fill="white"/>
</g>
<path opacity="0.2" d="M70.482 88.956C66.444 82.404 71.604 70.002 75.396 59.652V58.908H69.396L59.514 84.162C58.104 88.11 60.042 92.376 65.346 95.442C73.746 100.284 87.336 100.284 95.724 95.442C88.158 98.4 74.514 95.508 70.482 88.956Z" fill="#BA68C8"/>
<path d="M88.602 64.956C84.156 67.524 76.944 67.524 72.492 64.956C68.04 62.388 68.046 58.224 72.492 55.656C76.938 53.088 84.156 53.088 88.602 55.656C93.048 58.224 93.054 62.4 88.602 64.956Z" fill="#BA68C8"/>
<g opacity="0.6">
<path d="M88.602 64.956C84.156 67.524 76.944 67.524 72.492 64.956C68.04 62.388 68.046 58.224 72.492 55.656C76.938 53.088 84.156 53.088 88.602 55.656C93.048 58.224 93.054 62.4 88.602 64.956Z" fill="white"/>
</g>
<path d="M80.5499 65.562C83.1232 65.6198 85.6683 65.0166 87.9419 63.81C89.6699 62.814 90.6179 61.572 90.6179 60.306C90.6179 59.04 89.6699 57.798 87.9419 56.802C85.6683 55.5954 83.1232 54.9922 80.5499 55.05C77.9764 54.99 75.4308 55.5934 73.1579 56.802C71.4299 57.798 70.4819 59.04 70.4819 60.306C70.4819 61.572 71.4299 62.814 73.1579 63.81C75.4308 65.0186 77.9764 65.6219 80.5499 65.562V65.562Z" fill="#BA68C8"/>
<path d="M284.886 134.238L294.636 139.872V156.756L284.886 151.128V134.238Z" fill="#F0F0F0"/>
<path d="M294.636 156.756L295.614 156.192V139.302L294.636 139.872V156.756Z" fill="#E0E0E0"/>
<path d="M295.614 139.302L285.864 133.674L284.886 134.238L294.636 139.872L295.614 139.302Z" fill="#FAFAFA"/>
<path d="M291.252 148.578L287.226 150.9L286.092 150.246L284.964 150.9V146.982L286.092 146.328L287.226 144.366L291.252 142.044V148.578Z" fill="#455A64"/>
<path d="M284.964 150.9L282.702 149.592V145.674L283.83 145.02L284.964 143.058L288.984 140.736L291.252 142.044L287.226 144.366L286.092 146.328L284.964 146.982V150.9Z" fill="#37474F"/>
<path d="M286.092 146.328L283.83 145.02L282.702 145.674L284.964 146.982L286.092 146.328Z" fill="#263238"/>
<path d="M287.226 144.366L291.252 142.044L288.984 140.736L284.964 143.058L287.226 144.366Z" fill="#263238"/>
<path d="M284.4 149.454L283.59 149.922C283.486 149.97 283.371 149.99 283.257 149.978C283.143 149.967 283.034 149.924 282.942 149.856C282.674 149.684 282.452 149.45 282.292 149.175C282.132 148.899 282.04 148.59 282.024 148.272C282.01 148.157 282.029 148.04 282.076 147.935C282.124 147.829 282.199 147.738 282.294 147.672V147.672L283.104 147.198C283.208 147.151 283.323 147.132 283.437 147.144C283.55 147.155 283.659 147.197 283.752 147.264C284.019 147.438 284.242 147.672 284.402 147.949C284.561 148.225 284.653 148.535 284.67 148.854C284.683 148.969 284.665 149.086 284.617 149.191C284.57 149.297 284.495 149.388 284.4 149.454V149.454Z" fill="#455A64"/>
<path d="M282.966 149.856C282.698 149.683 282.476 149.45 282.316 149.175C282.156 148.899 282.065 148.59 282.048 148.272C282.048 147.672 282.456 147.45 282.966 147.738C283.232 147.913 283.454 148.148 283.613 148.424C283.773 148.7 283.865 149.01 283.884 149.328C283.884 149.916 283.47 150.15 282.966 149.856Z" fill="#263238"/>
<path d="M116.796 269.658C115.004 269.66 113.242 269.191 111.69 268.296L90.1437 255.864C90.072 255.826 90.0086 255.775 89.9574 255.712C89.9061 255.65 89.8681 255.577 89.8455 255.5C89.823 255.422 89.8164 255.34 89.8262 255.26C89.8359 255.18 89.8618 255.102 89.9023 255.032C89.9428 254.962 89.9971 254.901 90.0618 254.852C90.1265 254.804 90.2004 254.769 90.279 254.75C90.3576 254.73 90.4393 254.727 90.5192 254.74C90.599 254.753 90.6754 254.783 90.7437 254.826L112.29 267.258C113.659 268.044 115.211 268.458 116.79 268.458C118.369 268.458 119.92 268.044 121.29 267.258L276.162 177.858C277.169 177.275 278.005 176.437 278.587 175.43C279.169 174.422 279.477 173.28 279.48 172.116V155.226C279.48 155.067 279.543 154.914 279.655 154.802C279.768 154.689 279.921 154.626 280.08 154.626C280.239 154.626 280.391 154.689 280.504 154.802C280.616 154.914 280.68 155.067 280.68 155.226V172.098C280.677 173.472 280.313 174.821 279.626 176.011C278.938 177.201 277.951 178.189 276.762 178.878L121.89 268.278C120.342 269.177 118.585 269.653 116.796 269.658Z" fill="#E0E0E0"/>
<path d="M116.796 266.844C115.004 266.846 113.243 266.377 111.69 265.482L88.1458 251.898C88.0773 251.859 88.0171 251.806 87.9689 251.743C87.9206 251.681 87.8852 251.609 87.8646 251.533C87.844 251.457 87.8386 251.377 87.8487 251.299C87.8589 251.22 87.8844 251.145 87.9238 251.076C87.9632 251.007 88.0157 250.947 88.0784 250.899C88.141 250.851 88.2125 250.815 88.2888 250.795C88.3652 250.774 88.4448 250.769 88.5232 250.779C88.6016 250.789 88.6773 250.815 88.7458 250.854L112.29 264.438C113.658 265.228 115.21 265.644 116.79 265.644C118.37 265.644 119.922 265.228 121.29 264.438L276.162 175.038C277.17 174.454 278.006 173.616 278.589 172.607C279.171 171.598 279.478 170.455 279.48 169.29V153.234C279.482 152.274 279.736 151.331 280.216 150.499C280.696 149.668 281.385 148.976 282.216 148.494C282.284 148.454 282.36 148.429 282.438 148.418C282.517 148.408 282.597 148.413 282.673 148.434C282.749 148.455 282.821 148.49 282.884 148.538C282.946 148.587 282.999 148.647 283.038 148.716C283.116 148.854 283.137 149.017 283.095 149.17C283.053 149.323 282.953 149.453 282.816 149.532C282.168 149.909 281.63 150.45 281.256 151.099C280.881 151.748 280.682 152.484 280.68 153.234V169.278C280.677 170.653 280.314 172.003 279.627 173.194C278.939 174.385 277.951 175.374 276.762 176.064L121.89 265.464C120.342 266.363 118.585 266.839 116.796 266.844Z" fill="black"/>
<path d="M300.93 214.722C295.854 209.484 292.872 188.124 297.822 183.966H323.022C327.972 188.118 324.996 209.478 319.92 214.716C319.877 214.767 319.831 214.815 319.782 214.86L319.608 215.034C319.462 215.181 319.308 215.319 319.146 215.448C319.109 215.483 319.069 215.515 319.026 215.544C318.9 215.64 318.78 215.742 318.642 215.838C318.432 215.992 318.214 216.134 317.988 216.264C313.788 218.7 307.038 218.7 302.868 216.264C302.646 216.138 302.43 215.988 302.208 215.832C302.082 215.748 301.968 215.652 301.854 215.562L301.704 215.442C301.548 215.31 301.398 215.178 301.26 215.046L301.056 214.842L300.93 214.722Z" fill="#37474F"/>
<path d="M320.832 182.292C326.58 185.652 326.58 191.088 320.832 194.448C315.084 197.808 305.76 197.802 300.012 194.448C294.264 191.094 294.264 185.652 300.012 182.292C305.76 178.932 315.078 178.938 320.832 182.292Z" fill="#455A64"/>
<path d="M318.066 183.906C322.266 186.372 322.266 190.368 318.066 192.834C313.866 195.3 306.996 195.3 302.778 192.834C298.56 190.368 298.578 186.372 302.778 183.906C306.978 181.44 313.842 181.44 318.066 183.906Z" fill="#263238"/>
<path d="M302.778 188.142C306.978 185.676 313.842 185.676 318.066 188.142C319.09 188.702 319.958 189.509 320.592 190.488C319.958 191.467 319.09 192.274 318.066 192.834C313.866 195.3 306.996 195.3 302.778 192.834C301.752 192.275 300.881 191.469 300.246 190.488C300.881 189.507 301.752 188.701 302.778 188.142Z" fill="#FAFAFA"/>
<path d="M308.724 154.542C306.792 156.636 301.428 157.212 299.208 151.542C297.12 146.238 294.876 141.216 294.234 139.266C294.142 139.012 294.103 138.743 294.118 138.473C294.134 138.204 294.204 137.94 294.324 137.699C294.444 137.457 294.611 137.242 294.817 137.067C295.022 136.892 295.26 136.76 295.518 136.68C295.518 136.68 295.668 133.77 300.606 135.738C305.544 137.706 309.006 140.712 311.178 145.554C313.35 150.396 312.03 153.894 308.724 154.542Z" fill="#BA68C8"/>
<path opacity="0.45" d="M308.724 154.542C306.792 156.636 301.428 157.212 299.208 151.542C297.12 146.238 294.876 141.216 294.234 139.266C294.142 139.012 294.103 138.743 294.118 138.473C294.134 138.204 294.204 137.94 294.324 137.699C294.444 137.457 294.611 137.242 294.817 137.067C295.022 136.892 295.26 136.76 295.518 136.68C295.518 136.68 295.668 133.77 300.606 135.738C305.544 137.706 309.006 140.712 311.178 145.554C313.35 150.396 312.03 153.894 308.724 154.542Z" fill="white"/>
<path d="M310.86 162C310.775 161.011 310.633 160.027 310.434 159.054C310.03 157.12 309.483 155.219 308.796 153.366C307.408 149.589 305.482 146.033 303.078 142.806C301.744 140.966 300.237 139.259 298.578 137.706C298.53 137.658 298.488 137.772 298.524 137.808C301.297 140.72 303.666 143.992 305.568 147.534C307.398 151.02 308.767 154.729 309.642 158.568C309.882 159.642 310.116 160.722 310.308 161.802C310.5 162.882 310.626 164.016 310.812 165.12C310.812 165.228 310.998 165.3 311.01 165.12C311.04 164.078 310.99 163.035 310.86 162Z" fill="#BA68C8"/>
<path opacity="0.3" d="M310.86 162C310.775 161.011 310.633 160.027 310.434 159.054C310.03 157.12 309.483 155.219 308.796 153.366C307.408 149.589 305.482 146.033 303.078 142.806C301.744 140.966 300.237 139.259 298.578 137.706C298.53 137.658 298.488 137.772 298.524 137.808C301.297 140.72 303.666 143.992 305.568 147.534C307.398 151.02 308.767 154.729 309.642 158.568C309.882 159.642 310.116 160.722 310.308 161.802C310.5 162.882 310.626 164.016 310.812 165.12C310.812 165.228 310.998 165.3 311.01 165.12C311.04 164.078 310.99 163.035 310.86 162Z" fill="black"/>
<path d="M312.51 153.078C308.076 154.452 304.782 150.99 305.91 145.56C307.038 140.13 312.756 134.112 314.91 135.732C316.254 134.382 319.218 134.868 320.616 139.272C322.014 143.676 320.748 155.004 312.51 153.078Z" fill="#BA68C8"/>
<path opacity="0.25" d="M312.51 153.078C308.076 154.452 304.782 150.99 305.91 145.56C307.038 140.13 312.756 134.112 314.91 135.732C316.254 134.382 319.218 134.868 320.616 139.272C322.014 143.676 320.748 155.004 312.51 153.078Z" fill="white"/>
<path d="M315.114 139.032C313.852 142.197 312.867 145.465 312.168 148.8C311.411 152.166 310.838 155.571 310.452 159C309.739 165.645 309.443 172.328 309.564 179.01C309.564 180.858 309.606 182.706 309.636 184.548C309.666 186.39 309.636 188.37 309.81 190.266C309.87 190.986 310.902 190.794 310.914 190.134C310.98 186.81 310.8 183.468 310.764 180.144C310.728 176.82 310.764 173.544 310.824 170.286C310.943 163.589 311.545 156.91 312.624 150.3C312.942 148.464 313.296 146.628 313.722 144.81C314.172 142.896 314.724 141.012 315.228 139.116C315.24 139.026 315.156 138.93 315.114 139.032Z" fill="#BA68C8"/>
<path opacity="0.3" d="M315.114 139.032C313.852 142.197 312.867 145.465 312.168 148.8C311.411 152.166 310.838 155.571 310.452 159C309.739 165.645 309.443 172.328 309.564 179.01C309.564 180.858 309.606 182.706 309.636 184.548C309.666 186.39 309.636 188.37 309.81 190.266C309.87 190.986 310.902 190.794 310.914 190.134C310.98 186.81 310.8 183.468 310.764 180.144C310.728 176.82 310.764 173.544 310.824 170.286C310.943 163.589 311.545 156.91 312.624 150.3C312.942 148.464 313.296 146.628 313.722 144.81C314.172 142.896 314.724 141.012 315.228 139.116C315.24 139.026 315.156 138.93 315.114 139.032Z" fill="black"/>
<path d="M305.298 168.99C303.36 171.186 298.92 170.994 295.944 167.076C292.968 163.158 291.18 148.476 295.344 149.388C296.232 147.426 307.806 152.142 309.294 161.742C310.398 168.726 305.298 168.99 305.298 168.99Z" fill="#BA68C8"/>
<path opacity="0.25" d="M305.298 168.99C303.36 171.186 298.92 170.994 295.944 167.076C292.968 163.158 291.18 148.476 295.344 149.388C296.232 147.426 307.806 152.142 309.294 161.742C310.398 168.726 305.298 168.99 305.298 168.99Z" fill="white"/>
<path d="M308.76 175.944C308.618 175.038 308.417 174.142 308.16 173.262C307.674 171.462 307.098 169.662 306.438 167.94C305.07 164.395 303.345 160.997 301.29 157.8C300.18 155.993 298.956 154.26 297.624 152.61C297.582 152.568 297.552 152.67 297.57 152.7C298.602 154.206 299.652 155.7 300.57 157.272C301.488 158.844 302.37 160.602 303.198 162.318C304.735 165.629 306.011 169.056 307.014 172.566C307.296 173.562 307.53 174.57 307.824 175.566C308.118 176.562 308.514 177.606 308.778 178.65C308.814 178.8 309.006 178.86 308.988 178.65C308.91 177.744 308.88 176.844 308.76 175.944Z" fill="#BA68C8"/>
<path opacity="0.3" d="M308.76 175.944C308.618 175.038 308.417 174.142 308.16 173.262C307.674 171.462 307.098 169.662 306.438 167.94C305.07 164.395 303.345 160.997 301.29 157.8C300.18 155.993 298.956 154.26 297.624 152.61C297.582 152.568 297.552 152.67 297.57 152.7C298.602 154.206 299.652 155.7 300.57 157.272C301.488 158.844 302.37 160.602 303.198 162.318C304.735 165.629 306.011 169.056 307.014 172.566C307.296 173.562 307.53 174.57 307.824 175.566C308.118 176.562 308.514 177.606 308.778 178.65C308.814 178.8 309.006 178.86 308.988 178.65C308.91 177.744 308.88 176.844 308.76 175.944Z" fill="black"/>
<path d="M312.384 166.8C309.852 166.2 309.726 163.2 312.894 159.444C316.062 155.688 324.042 154.08 324.42 155.652C326.22 155.652 326.22 161.208 322.266 166.314C318.312 171.42 312.6 170.25 312.384 166.8Z" fill="#BA68C8"/>
<path opacity="0.25" d="M312.384 166.8C309.852 166.2 309.726 163.2 312.894 159.444C316.062 155.688 324.042 154.08 324.42 155.652C326.22 155.652 326.22 161.208 322.266 166.314C318.312 171.42 312.6 170.25 312.384 166.8Z" fill="white"/>
<path d="M317.352 161.4C313.998 163.734 311.438 167.038 310.014 170.868C309.93 171.084 310.308 171.402 310.398 171.162C311.836 167.374 314.237 164.025 317.364 161.448C317.364 161.448 317.4 161.364 317.352 161.4Z" fill="#BA68C8"/>
<path opacity="0.3" d="M317.352 161.4C313.998 163.734 311.438 167.038 310.014 170.868C309.93 171.084 310.308 171.402 310.398 171.162C311.836 167.374 314.237 164.025 317.364 161.448C317.364 161.448 317.4 161.364 317.352 161.4Z" fill="black"/>
<path d="M315.282 185.358C311.772 186.78 313.272 190.956 316.698 194.13C319.65 196.712 323.463 198.093 327.384 198C329.736 197.832 330.342 197.508 330.342 197.508C330.342 197.508 330.72 193.908 330.342 191.7C329.964 189.577 328.983 187.608 327.516 186.028C326.048 184.448 324.157 183.324 322.068 182.79C316.59 181.29 315.282 183.27 315.282 185.358Z" fill="#BA68C8"/>
<path opacity="0.45" d="M315.282 185.358C311.772 186.78 313.272 190.956 316.698 194.13C319.65 196.712 323.463 198.093 327.384 198C329.736 197.832 330.342 197.508 330.342 197.508C330.342 197.508 330.72 193.908 330.342 191.7C329.964 189.577 328.983 187.608 327.516 186.028C326.048 184.448 324.157 183.324 322.068 182.79C316.59 181.29 315.282 183.27 315.282 185.358Z" fill="white"/>
<path d="M324.996 191.526C323.417 189.645 321.602 187.975 319.596 186.558C317.598 185.244 314.934 184.122 312.54 184.938C311.61 185.256 310.14 186.18 310.338 187.338C310.338 187.452 310.56 187.734 310.698 187.578C311.07 187.047 311.492 186.553 311.958 186.102C312.511 185.697 313.165 185.45 313.848 185.388C315.563 185.271 317.274 185.661 318.768 186.51C321.138 187.764 323.058 189.72 324.948 191.592C324.99 191.604 325.014 191.55 324.996 191.526Z" fill="#BA68C8"/>
<path opacity="0.3" d="M324.996 191.526C323.417 189.645 321.602 187.975 319.596 186.558C317.598 185.244 314.934 184.122 312.54 184.938C311.61 185.256 310.14 186.18 310.338 187.338C310.338 187.452 310.56 187.734 310.698 187.578C311.07 187.047 311.492 186.553 311.958 186.102C312.511 185.697 313.165 185.45 313.848 185.388C315.563 185.271 317.274 185.661 318.768 186.51C321.138 187.764 323.058 189.72 324.948 191.592C324.99 191.604 325.014 191.55 324.996 191.526Z" fill="black"/>
<path d="M301.914 167.4C302.25 165.804 299.94 162 292.746 161.244C285.552 160.488 280.146 163.56 279.072 164.958C277.998 166.356 277.434 167.82 278.742 168.186C280.05 168.552 284.544 168.99 287.496 170.346C290.448 171.702 296.448 175.746 300.54 174.546C304.632 173.346 303.954 168.972 301.914 167.4Z" fill="#BA68C8"/>
<path opacity="0.45" d="M301.914 167.4C302.25 165.804 299.94 162 292.746 161.244C285.552 160.488 280.146 163.56 279.072 164.958C277.998 166.356 277.434 167.82 278.742 168.186C280.05 168.552 284.544 168.99 287.496 170.346C290.448 171.702 296.448 175.746 300.54 174.546C304.632 173.346 303.954 168.972 301.914 167.4Z" fill="white"/>
<path d="M307.386 172.956C304.35 166.686 296.532 164.772 290.136 164.808C288.033 164.81 285.939 165.076 283.902 165.6C283.872 165.6 283.866 165.678 283.902 165.672C287.347 165.089 290.863 165.055 294.318 165.57C297.714 166.116 301.044 167.172 303.84 169.236C305.217 170.271 306.373 171.571 307.242 173.058C307.332 173.226 307.446 173.082 307.386 172.956Z" fill="#BA68C8"/>
<path opacity="0.3" d="M307.386 172.956C304.35 166.686 296.532 164.772 290.136 164.808C288.033 164.81 285.939 165.076 283.902 165.6C283.872 165.6 283.866 165.678 283.902 165.672C287.347 165.089 290.863 165.055 294.318 165.57C297.714 166.116 301.044 167.172 303.84 169.236C305.217 170.271 306.373 171.571 307.242 173.058C307.332 173.226 307.446 173.082 307.386 172.956Z" fill="black"/>
<path d="M318.678 159C318.588 161.514 322.128 162.978 325.56 160.8C328.992 158.622 332.58 156.504 335.76 155.682C338.94 154.86 340.44 152.274 339.438 151.02C338.436 149.766 336.84 146.604 328.494 147.636C320.148 148.668 317.184 152.436 316.038 155.088C314.892 157.74 317.4 159.714 318.678 159Z" fill="#BA68C8"/>
<path opacity="0.45" d="M318.678 159C318.588 161.514 322.128 162.978 325.56 160.8C328.992 158.622 332.58 156.504 335.76 155.682C338.94 154.86 340.44 152.274 339.438 151.02C338.436 149.766 336.84 146.604 328.494 147.636C320.148 148.668 317.184 152.436 316.038 155.088C314.892 157.74 317.4 159.714 318.678 159Z" fill="white"/>
<path d="M332.268 150.996C331.055 150.878 329.83 151.007 328.668 151.374C327.614 151.643 326.587 152.01 325.602 152.472C323.635 153.384 321.863 154.668 320.382 156.252C319.951 156.699 319.55 157.174 319.182 157.674C318.815 158.114 318.513 158.605 318.288 159.132C318.234 159.3 318.474 159.564 318.624 159.396C319.038 158.922 319.344 158.34 319.734 157.836C320.15 157.297 320.599 156.784 321.078 156.3C322.044 155.328 323.124 154.476 324.294 153.762C325.422 153.068 326.616 152.488 327.858 152.028C328.542 151.782 329.232 151.584 329.94 151.428C330.674 151.202 331.44 151.097 332.208 151.116C332.292 151.092 332.31 151.002 332.268 150.996Z" fill="#BA68C8"/>
<path opacity="0.3" d="M332.268 150.996C331.055 150.878 329.83 151.007 328.668 151.374C327.614 151.643 326.587 152.01 325.602 152.472C323.635 153.384 321.863 154.668 320.382 156.252C319.951 156.699 319.55 157.174 319.182 157.674C318.815 158.114 318.513 158.605 318.288 159.132C318.234 159.3 318.474 159.564 318.624 159.396C319.038 158.922 319.344 158.34 319.734 157.836C320.15 157.297 320.599 156.784 321.078 156.3C322.044 155.328 323.124 154.476 324.294 153.762C325.422 153.068 326.616 152.488 327.858 152.028C328.542 151.782 329.232 151.584 329.94 151.428C330.674 151.202 331.44 151.097 332.208 151.116C332.292 151.092 332.31 151.002 332.268 150.996Z" fill="black"/>
<path d="M312.69 172.572C311.52 171.402 308.346 171.672 306.84 175.128C305.334 178.584 308.49 182.37 308.844 183.438C310.296 182.598 311.424 183.096 313.98 182.598C315.401 182.259 316.663 181.442 317.554 180.285C318.445 179.127 318.912 177.698 318.876 176.238C318.708 173.07 317.4 171 312.69 172.572Z" fill="#BA68C8"/>
<path opacity="0.45" d="M312.69 172.572C311.52 171.402 308.346 171.672 306.84 175.128C305.334 178.584 308.49 182.37 308.844 183.438C310.296 182.598 311.424 183.096 313.98 182.598C315.401 182.259 316.663 181.442 317.554 180.285C318.445 179.127 318.912 177.698 318.876 176.238C318.708 173.07 317.4 171 312.69 172.572Z" fill="white"/>
<path d="M312.648 172.2C312.01 172.602 311.477 173.152 311.094 173.802C310.68 174.404 310.344 175.055 310.092 175.74C309.545 177.14 309.392 178.663 309.648 180.144C309.648 180.198 309.708 180.144 309.702 180.144C309.588 178.657 309.841 177.165 310.44 175.8C310.724 175.178 311.078 174.59 311.496 174.048C311.717 173.764 311.954 173.491 312.204 173.232C312.451 173.035 312.677 172.811 312.876 172.566C312.96 172.422 312.822 172.134 312.648 172.2Z" fill="#BA68C8"/>
<path opacity="0.3" d="M312.648 172.2C312.01 172.602 311.477 173.152 311.094 173.802C310.68 174.404 310.344 175.055 310.092 175.74C309.545 177.14 309.392 178.663 309.648 180.144C309.648 180.198 309.708 180.144 309.702 180.144C309.588 178.657 309.841 177.165 310.44 175.8C310.724 175.178 311.078 174.59 311.496 174.048C311.717 173.764 311.954 173.491 312.204 173.232C312.451 173.035 312.677 172.811 312.876 172.566C312.96 172.422 312.822 172.134 312.648 172.2Z" fill="black"/>
<path d="M307.2 179.58C307.092 177 304.302 174.966 300.336 173.784C298.387 173.173 296.304 173.127 294.33 173.651C292.356 174.176 290.571 175.25 289.182 176.748C286.284 179.898 284.784 182.58 285.96 183.348C287.136 184.116 292.38 186 295.8 187.086C299.22 188.172 303.738 188.478 307.2 186.444C310.662 184.41 310.398 180.864 307.2 179.58Z" fill="#BA68C8"/>
<path opacity="0.25" d="M307.2 179.58C307.092 177 304.302 174.966 300.336 173.784C298.387 173.173 296.304 173.127 294.33 173.651C292.356 174.176 290.571 175.25 289.182 176.748C286.284 179.898 284.784 182.58 285.96 183.348C287.136 184.116 292.38 186 295.8 187.086C299.22 188.172 303.738 188.478 307.2 186.444C310.662 184.41 310.398 180.864 307.2 179.58Z" fill="white"/>
<path d="M307.404 179.286C306.06 178.61 304.592 178.218 303.09 178.134C301.652 177.996 300.204 178.014 298.77 178.188C297.256 178.378 295.761 178.695 294.3 179.136C293.538 179.358 292.776 179.61 292.032 179.886C291.32 180.12 290.627 180.405 289.956 180.738C289.926 180.738 289.914 180.84 289.956 180.828C290.682 180.678 291.396 180.39 292.104 180.174C292.812 179.958 293.64 179.712 294.42 179.514C295.857 179.127 297.321 178.848 298.8 178.68C300.289 178.509 301.793 178.509 303.282 178.68C304.658 178.903 306.015 179.236 307.338 179.676C307.644 179.766 307.56 179.4 307.404 179.286Z" fill="#BA68C8"/>
<path opacity="0.3" d="M307.404 179.286C306.06 178.61 304.592 178.218 303.09 178.134C301.652 177.996 300.204 178.014 298.77 178.188C297.256 178.378 295.761 178.695 294.3 179.136C293.538 179.358 292.776 179.61 292.032 179.886C291.32 180.12 290.627 180.405 289.956 180.738C289.926 180.738 289.914 180.84 289.956 180.828C290.682 180.678 291.396 180.39 292.104 180.174C292.812 179.958 293.64 179.712 294.42 179.514C295.857 179.127 297.321 178.848 298.8 178.68C300.289 178.509 301.793 178.509 303.282 178.68C304.658 178.903 306.015 179.236 307.338 179.676C307.644 179.766 307.56 179.4 307.404 179.286Z" fill="black"/>
<path d="M315.372 175.746C312.534 173.49 313.482 168.084 323.406 167.796C333.33 167.508 340.428 170.094 340.11 173.292C341.712 174.888 340.902 179.364 332.862 180.762C324.822 182.16 313.32 181.464 315.372 175.746Z" fill="#BA68C8"/>
<path opacity="0.25" d="M315.372 175.746C312.534 173.49 313.482 168.084 323.406 167.796C333.33 167.508 340.428 170.094 340.11 173.292C341.712 174.888 340.902 179.364 332.862 180.762C324.822 182.16 313.32 181.464 315.372 175.746Z" fill="white"/>
<path d="M335.442 173.328C332.513 172.843 329.54 172.668 326.574 172.806C323.816 172.791 321.066 173.108 318.384 173.748C317.698 173.939 317.03 174.188 316.386 174.492C316.092 174.636 315.786 174.786 315.516 174.96C315.246 175.134 315.042 175.212 314.958 175.476C314.951 175.517 314.954 175.559 314.967 175.599C314.979 175.639 315 175.676 315.028 175.706C315.056 175.737 315.091 175.761 315.13 175.776C315.169 175.791 315.21 175.797 315.252 175.794C315.857 175.56 316.439 175.27 316.992 174.93C317.551 174.695 318.124 174.494 318.708 174.33C319.838 174.011 320.992 173.785 322.158 173.652C324.944 173.305 327.751 173.151 330.558 173.19C332.19 173.19 333.816 173.334 335.442 173.466C335.472 173.442 335.49 173.334 335.442 173.328Z" fill="#BA68C8"/>
<path opacity="0.3" d="M335.442 173.328C332.513 172.843 329.54 172.668 326.574 172.806C323.816 172.791 321.066 173.108 318.384 173.748C317.698 173.939 317.03 174.188 316.386 174.492C316.092 174.636 315.786 174.786 315.516 174.96C315.246 175.134 315.042 175.212 314.958 175.476C314.951 175.517 314.954 175.559 314.967 175.599C314.979 175.639 315 175.676 315.028 175.706C315.056 175.737 315.091 175.761 315.13 175.776C315.169 175.791 315.21 175.797 315.252 175.794C315.857 175.56 316.439 175.27 316.992 174.93C317.551 174.695 318.124 174.494 318.708 174.33C319.838 174.011 320.992 173.785 322.158 173.652C324.944 173.305 327.751 173.151 330.558 173.19C332.19 173.19 333.816 173.334 335.442 173.466C335.472 173.442 335.49 173.334 335.442 173.328Z" fill="black"/>
<path d="M123.36 130.32C125.994 131.154 125.682 135.276 124.938 137.364C124.194 139.452 121.458 144.564 120.378 147.156C119.298 149.748 117.768 156.924 117.768 156.924C117.768 156.924 117.474 160.386 113.67 157.812C109.866 155.238 108.75 150.972 111.576 145.278C114.402 139.584 114.018 136.056 115.23 133.326C116.442 130.596 119.952 129.822 123.36 130.32Z" fill="#455A64"/>
<path d="M108.954 155.346C108.954 155.448 108.954 155.55 108.954 155.652C108.896 156.274 108.945 156.901 109.098 157.506C109.698 159.474 112.218 159.714 113.754 158.862C114.832 158.244 115.839 157.507 116.754 156.666C118.607 154.975 120.589 153.43 122.682 152.046C127.122 149.22 129.012 149.394 130.932 149.646C132.516 149.874 133.536 151.11 134.532 152.262C135.876 153.846 137.184 155.466 138.48 157.062C141.444 160.77 144.342 164.532 147.252 168.288L148.92 170.43C153.72 176.598 157.86 179.1 160.404 179.664C162.126 180.069 163.925 180.004 165.614 179.477C167.303 178.949 168.819 177.978 170.004 176.664C173.004 173.196 173.982 171.264 177.534 164.478C179.934 159.894 181.338 156.756 182.514 154.356L187.698 173.16C180.696 175.56 178.842 180.36 172.602 189.312C169.65 193.56 166.678 197.796 163.686 202.02C161.256 205.446 159.12 209.286 154.83 210.57C153.57 210.954 152.196 211.116 151.122 211.878C149.37 213.114 148.938 215.568 149.262 217.692C149.532 219.444 150.336 221.082 150.528 222.834C150.645 224.69 150.428 226.551 149.886 228.33C149.226 230.928 148.464 233.664 149.244 236.226C150.444 240.09 154.356 241.548 157.704 243.072C158.249 243.36 158.836 243.563 159.444 243.672C159.747 243.721 160.057 243.701 160.352 243.615C160.647 243.529 160.918 243.378 161.148 243.174C161.88 242.448 161.748 241.242 161.502 240.234C161.016 237.978 161.136 235.734 161.004 233.43C160.872 231.126 161.496 226.878 161.934 224.562C162.738 220.29 164.892 218.916 168.18 216C172.116 212.502 173.334 211.566 176.334 209.124C184.542 202.416 192.728 195.684 200.892 188.928C201.888 188.1 203.232 186.996 204.618 185.616C207.845 182.366 209.754 178.035 209.976 173.46C210.491 163.291 210.176 153.098 209.034 142.98C208.332 137.01 207.426 132.18 207.234 128.43L172.476 113.01C168.042 116.82 162.402 122.646 161.112 136.044C159.84 140.844 158.334 148.554 156.552 155.286C151.302 149.574 146.694 146.988 143.286 144.528C141.522 143.25 139.602 141.726 138.342 139.92C137.184 138.258 136.716 136.092 135.09 134.772C133.56 133.524 131.328 133.434 129.468 134.088C127.608 134.742 126.036 136.032 124.578 137.358C123.188 138.763 121.651 140.014 119.994 141.09C119.058 141.636 118.05 142.038 117.072 142.512C115.011 143.422 113.192 144.803 111.762 146.544C109.8 149.016 109.122 152.226 108.954 155.346Z" fill="#FFA8A7"/>
<path d="M156.498 209.868C154.764 210.582 154.782 216.084 155.172 219.042C155.562 222 154.35 230.526 155.904 232.95C157.458 235.374 160.626 235.95 160.98 234.372C160.98 234.372 161.628 238.992 162.282 240.852C162.936 242.712 161.532 245.322 158.454 244.824C155.376 244.326 149.238 240.768 148.41 236.544C147.582 232.32 149.292 228.396 149.724 224.844C150.156 221.292 148.866 219.63 148.584 216.876C148.302 214.122 149.184 211.224 151.248 210.564C152.964 210.127 154.727 209.893 156.498 209.868V209.868Z" fill="#37474F"/>
<path d="M123.36 130.32C120.084 130.698 119.55 135.522 118.866 138.42C118.182 141.318 114 148.866 114.6 151.686C115.2 154.506 117.654 155.928 118.854 154.83C118.854 154.83 117.804 159.366 117.75 161.334C117.696 163.302 115.464 165.246 112.764 163.692C110.064 162.138 106.92 156.432 107.364 152.154C107.808 147.876 110.04 145.08 111.702 141.912C113.364 138.744 112.752 136.734 113.466 134.058C114.18 131.382 116.046 128.988 118.2 129.102C119.962 129.304 121.694 129.712 123.36 130.32V130.32Z" fill="#37474F"/>
<path d="M172.8 111.966C167.538 114.312 162.906 120.798 161.628 127.182C160.35 133.566 160.578 135.216 159.336 139.95C158.094 144.684 156.336 154.212 156.336 154.212C156.336 154.212 153 150 149.4 147.474C145.8 144.948 140.964 141.828 140.964 141.828C140.964 141.828 139.128 141.39 136.164 145.56C133.536 149.28 134.064 152.16 134.064 152.16C134.064 152.16 144.3 165.528 147.12 169.524C149.94 173.52 155.724 180.924 162.798 180.468C169.29 180.06 171.894 176.202 176.07 167.988C180.246 159.774 182.4 155.34 182.4 155.34L187.2 172.8C187.2 172.8 182.064 175.38 179.052 179.322C176.04 183.264 162.456 203.046 162.456 203.046C162.456 203.046 161.766 206.79 165.366 210.288C168.966 213.786 171.156 213.888 171.156 213.888C171.156 213.888 191.814 197.202 198.396 192.084C204.978 186.966 209.112 182.814 210.024 177.99C210.936 173.166 210.888 165.954 210.696 159.864C210.504 153.774 208.254 127.398 208.254 127.398L172.8 111.966Z" fill="#455A64"/>
<path d="M176.154 153.636C175.03 157.459 173.679 161.211 172.11 164.874C170.532 168.51 168.63 172.074 165.972 174.99C164.66 176.469 163.103 177.711 161.37 178.662C160.453 179.151 159.485 179.537 158.484 179.814L158.82 179.928C159.753 179.704 160.662 179.387 161.532 178.98C163.346 178.07 164.989 176.852 166.386 175.38C167.78 173.914 169.001 172.291 170.022 170.544C171.053 168.803 171.975 167 172.782 165.144C174.341 161.436 175.648 157.628 176.694 153.744C177.768 149.886 178.674 145.986 179.478 142.068L177.84 147.84C177.308 149.8 176.746 151.732 176.154 153.636Z" fill="#37474F"/>
<path d="M154.578 152.196C154.14 155.334 153.546 162.48 156.228 167.274C155.526 164.922 155.562 158.508 156.288 154.212C156.288 154.2 155.628 153.36 154.578 152.196Z" fill="#37474F"/>
<path d="M143.106 143.262L140.52 141.528C139.366 141.711 138.272 142.165 137.327 142.852C136.382 143.539 135.613 144.441 135.084 145.482C134.041 147.454 133.501 149.653 133.512 151.884L135.726 154.284C135.738 151.655 136.42 149.072 137.706 146.778C138.235 145.783 139.008 144.939 139.953 144.324C140.897 143.709 141.982 143.344 143.106 143.262V143.262Z" fill="#37474F"/>
<path d="M186.96 147.468C189.12 157.254 192.36 173.232 191.928 174.426C191.718 174.864 191.058 175.284 190.056 175.926C186.407 178.2 183.184 181.095 180.534 184.482C176.886 188.958 166.656 203.298 163.47 207.768C163.596 207.996 163.734 208.224 163.884 208.458C166.818 204.324 177.39 189.498 181.104 184.944C183.705 181.619 186.869 178.776 190.452 176.544C191.556 175.836 192.288 175.344 192.588 174.744C193.338 173.184 188.628 151.614 187.674 147.306L186.96 147.468Z" fill="#37474F"/>
<path d="M164.196 200.496C164.196 200.496 164.652 205.296 167.58 207.864C169.514 209.465 171.733 210.686 174.12 211.464L170.898 214.23C168.446 213.57 166.231 212.231 164.508 210.366C162.927 208.502 161.89 206.24 161.508 203.826L164.196 200.496Z" fill="#37474F"/>
<path d="M205.062 154.854C205.727 159.424 206.06 164.036 206.058 168.654C206.055 170.969 205.905 173.282 205.608 175.578C205.35 177.907 204.758 180.186 203.85 182.346C203.324 183.402 202.667 184.388 201.894 185.28C201.534 185.736 201.15 186.174 200.766 186.606C200.382 187.038 199.992 187.47 199.596 187.89C198.012 189.576 196.392 191.22 194.706 192.798C191.366 195.974 187.928 199.042 184.392 202.002L189.384 197.202C191.048 195.602 192.692 193.992 194.316 192.372C195.93 190.74 197.556 189.114 199.116 187.416C199.506 186.996 199.89 186.57 200.262 186.138C200.634 185.706 201.012 185.274 201.36 184.824C202.087 183.967 202.706 183.024 203.202 182.016C204.095 179.928 204.687 177.724 204.96 175.47C205.262 173.199 205.445 170.914 205.506 168.624C205.584 166.332 205.56 164.028 205.464 161.73C205.368 159.432 205.23 157.152 205.062 154.854Z" fill="#37474F"/>
<path d="M152.652 159.6C149.376 156.084 141.156 148.2 137.124 144.336C136.974 144.516 136.818 144.702 136.662 144.936C140.7 148.794 148.866 156.63 152.118 160.122C154.314 162.48 156.168 163.644 157.638 163.602C157.789 163.597 157.94 163.579 158.088 163.548C158.575 163.413 159.017 163.15 159.367 162.786C159.718 162.422 159.964 161.97 160.08 161.478C160.86 159.162 163.638 148.632 165.912 136.314C166.122 135.15 166.332 134.082 166.512 133.08C166.959 133.116 167.408 133.128 167.856 133.116C170.504 133.067 173.037 132.027 174.954 130.2C177.66 127.65 179.256 123.486 179.154 119.334H178.416C178.542 123.282 177.03 127.23 174.474 129.642C173.442 130.603 172.218 131.336 170.884 131.793C169.549 132.25 168.133 132.421 166.728 132.294C168.696 123.33 170.874 120.546 177.414 114.42L176.916 113.886C169.464 120.858 167.49 123.744 165.21 136.122C162.93 148.5 160.182 158.892 159.408 161.19C159.323 161.557 159.144 161.895 158.89 162.172C158.635 162.45 158.314 162.657 157.956 162.774C157.068 162.978 155.442 162.6 152.652 159.6Z" fill="#37474F"/>
<path d="M182.4 155.34L188.13 142.326C188.13 142.326 196.53 142.272 200.394 137.652C196.662 145.242 189.522 144.852 189.522 144.852L185.064 155.514L187.2 172.8L182.4 155.34Z" fill="#37474F"/>
<path d="M214.284 81.444C216.894 82.17 219.222 82.842 221.58 83.7C229.038 86.4 243.276 85.362 243.276 85.362C243.276 85.362 261.54 76.332 263.238 75.6C264.936 74.868 267.576 72.564 269.94 70.668C272.304 68.772 274.14 67.176 275.238 66.864C276.336 66.552 277.638 66.528 280.638 66.744C282.234 66.858 284.412 66.984 286.332 67.272C287.791 67.5274 289.234 67.87 290.652 68.298C291.54 68.544 291.138 70.182 288.504 70.002C286.41 69.858 283.662 70.002 283.662 70.002C283.662 70.002 285.39 71.052 284.592 72.48C283.794 73.908 285.006 73.56 284.352 74.598C283.698 75.636 284.736 76.638 283.752 77.436C282.768 78.234 283.788 78.948 282.732 79.752C281.676 80.556 280.554 80.286 279.228 79.83C277.902 79.374 277.356 78.804 276.306 79.752C275.256 80.7 274.104 82.152 271.506 82.434C268.908 82.716 266.472 85.08 261.366 88.962C255.654 93.306 252.426 95.718 249.228 97.788C247.176 99.114 246.144 99.198 242.628 99.27L211.65 99.87L214.284 81.444Z" fill="#FFA8A7"/>
<path d="M270.342 78.2821C270.88 77.6107 271.343 76.8824 271.722 76.1101C272.094 75.2943 272.627 74.5618 273.288 73.9561C274.764 72.7981 276.612 72.5881 278.088 71.8921C278.44 71.7539 278.76 71.5446 279.027 71.2772C279.294 71.0098 279.504 70.6901 279.642 70.3381C279.684 70.2033 279.684 70.0588 279.642 69.9241C279.582 69.8221 279.57 69.7861 279.372 69.7321C278.976 69.657 278.574 69.6268 278.172 69.6421L275.586 69.7381C275.149 69.7442 274.712 69.7201 274.278 69.6661C274.057 69.6403 273.84 69.5899 273.63 69.5161C273.438 69.4441 273.18 69.3061 273.186 69.0721C273.222 69.2941 273.468 69.3661 273.66 69.4081C273.867 69.4491 274.078 69.4692 274.29 69.4681C274.715 69.4652 275.14 69.4351 275.562 69.3781C276.42 69.2821 277.266 69.1561 278.142 69.0721C278.599 69.0005 279.065 69.0005 279.522 69.0721C279.678 69.0986 279.826 69.1619 279.954 69.2568C280.081 69.3518 280.184 69.4756 280.254 69.6181C280.368 69.8893 280.393 70.1897 280.326 70.4761C280.174 70.9385 279.924 71.3624 279.592 71.7188C279.261 72.0751 278.856 72.3553 278.406 72.5401C276.744 73.2901 274.998 73.4641 273.642 74.3821C272.989 74.9006 272.444 75.5429 272.04 76.2721C271.567 77.0157 270.996 77.6918 270.342 78.2821Z" fill="#F28F8F"/>
<path d="M280.398 72.6481L280.596 72.4621L281.394 71.7301C281.233 71.7115 281.071 71.7452 280.932 71.8261C280.203 72.0529 279.57 72.515 279.132 73.1401C279.04 73.3178 279.004 73.5186 279.026 73.7171C279.048 73.9157 279.129 74.1032 279.258 74.2561C279.365 74.3938 279.493 74.5151 279.636 74.6161C279.723 74.669 279.813 74.7171 279.906 74.7601C279.682 74.9531 279.512 75.2013 279.414 75.4801C279.305 75.875 279.319 76.2938 279.456 76.6801C279.529 76.8845 279.637 77.0751 279.774 77.2441C279.816 77.2969 279.862 77.347 279.912 77.3941C279.857 77.4659 279.813 77.5446 279.78 77.6281C279.692 77.8086 279.647 78.0066 279.647 78.2071C279.647 78.4076 279.692 78.6055 279.78 78.7861C279.855 78.9498 279.952 79.1031 280.068 79.2421C280.11 79.2841 280.506 79.4581 280.494 79.3561C280.464 79.2209 280.414 79.0913 280.344 78.9721C280.245 78.7142 280.235 78.431 280.316 78.167C280.396 77.9029 280.562 77.6732 280.788 77.5141C280.818 77.4981 280.844 77.4729 280.86 77.4421C280.86 77.3701 280.824 77.2981 280.764 77.2501C280.546 77.0926 280.374 76.8817 280.262 76.6378C280.151 76.3939 280.104 76.1252 280.128 75.8581C280.192 75.5956 280.331 75.3578 280.53 75.1741C280.614 75.0841 280.776 74.9281 280.752 74.7901C280.728 74.6521 280.53 74.5921 280.416 74.5201C280.241 74.4373 280.085 74.3187 279.96 74.1721C279.872 74.0249 279.826 73.8571 279.826 73.6861C279.826 73.5151 279.872 73.3472 279.96 73.2001C280.076 72.9944 280.224 72.8082 280.398 72.6481V72.6481Z" fill="#F28F8F"/>
<path d="M222.474 91.6741C221.017 88.2854 219.125 85.1007 216.846 82.2001L214.284 81.4741C215.304 88.1521 203.646 85.1341 199.206 78.9241C197.34 79.2481 195.168 78.3241 192.906 78.2161C190.644 78.1081 189.18 78.3061 187.242 79.5301C183.732 81.7561 183.426 86.0581 183.294 89.8201C183.222 92.0941 183.192 94.3381 183 96.6061C182.784 99.2101 182.508 102.702 180.882 104.622C179.082 106.758 173.436 110.856 170.634 112.002C172.362 125.436 197.256 135.57 209.178 130.038C210.431 126.515 211.209 122.841 211.494 119.112C213.028 116.336 214.292 113.418 215.268 110.4C218.31 109.524 222.192 108.198 223.854 103.758C225 100.8 225 97.5481 222.474 91.6741Z" fill="#BA68C8"/>
<path d="M225.18 67.386C224.922 68.124 224.58 68.856 224.346 69.588C224.112 70.32 224.034 71.202 223.818 71.988C223.431 73.5593 222.686 75.0196 221.64 76.254C220.023 77.9435 217.803 78.9249 215.466 78.984C213.134 79.0261 210.833 78.4462 208.8 77.304C207.282 76.488 205.998 75.738 204.228 75.768C202.334 75.8185 200.445 75.5383 198.648 74.94C197.654 74.6457 196.734 74.1447 195.948 73.47C195.561 73.1352 195.252 72.719 195.045 72.2512C194.838 71.7835 194.736 71.2756 194.748 70.764C194.458 71.1188 194.253 71.5352 194.149 71.9814C194.045 72.4276 194.044 72.8917 194.148 73.338C192.667 72.6586 191.51 71.4299 190.92 69.912C190.352 68.4134 190.268 66.7748 190.68 65.226C191.016 63.876 191.85 62.478 193.236 62.178C192.086 61.769 190.829 61.7839 189.69 62.22C188.718 62.556 187.152 63.696 187.218 64.71C187.051 63.7292 187.171 62.721 187.565 61.8073C187.959 60.8937 188.61 60.1138 189.438 59.562C190.716 58.734 192.288 58.5 193.71 57.954C195.576 57.234 196.32 56.112 196.74 54.282C197.376 51.516 198.81 48.72 201.888 48.432C202.11 46.032 204.288 43.956 206.466 43.182C211.332 41.448 217.62 41.934 222.33 43.98C227.91 46.38 229.8 50.04 231.066 51.258C232.469 52.6037 234.329 53.3688 236.274 53.4C235.097 53.8033 233.844 53.9329 232.61 53.7791C231.376 53.6252 230.193 53.1919 229.152 52.512C229.997 52.9831 230.638 53.7504 230.952 54.666C231.371 55.8204 231.419 57.0768 231.09 58.2599C230.761 59.4431 230.071 60.494 229.116 61.266C229.292 60.3767 229.29 59.461 229.107 58.5727C228.925 57.6845 228.567 56.8417 228.054 56.094C228.532 57.2247 228.629 58.4804 228.33 59.6712C228.031 60.8619 227.353 61.923 226.398 62.694C226.082 64.2802 225.676 65.8469 225.18 67.386V67.386Z" fill="#37474F"/>
<path d="M226.398 59.49C226.398 58.464 226.278 57.462 226.182 56.442C225.09 50.958 222.33 50.712 220.248 51.876C219.611 52.2584 218.886 52.4673 218.144 52.4821C217.402 52.4968 216.669 52.3168 216.018 51.96C214.554 51.09 213.24 51.072 211.602 51.474C209.202 52.074 207.432 53.916 206.928 56.826C206.928 56.826 206.46 60.024 206.328 60.702C206.286 61.0841 206.167 61.4538 205.978 61.7885C205.789 62.1231 205.534 62.4156 205.228 62.6481C204.921 62.8806 204.571 63.0482 204.198 63.1407C203.825 63.2332 203.437 63.2486 203.058 63.186C201.9 60.618 198.54 60.048 196.74 61.764C194.94 63.48 195.582 66.816 197.76 68.85C200.406 71.31 202.056 69.804 202.056 69.804L201.39 75.954C201.393 76.0159 201.393 76.078 201.39 76.14C201.204 77.814 201.144 78.972 199.206 78.894C199.854 81.96 202.524 88.41 211.89 88.368C218.316 88.338 214.29 81.444 214.29 81.444C214.29 81.444 213.66 81.27 213.864 79.644L214.152 77.124C216.666 77.862 218.544 77.802 220.062 77.328C222.594 76.53 225.012 74.448 226.02 65.574C226.277 63.5563 226.403 61.524 226.398 59.49Z" fill="#FFA8A7"/>
<path d="M224.874 59.172L222.6 57.6C222.694 57.4466 222.819 57.3139 222.966 57.2102C223.113 57.1065 223.28 57.0339 223.456 56.9969C223.633 56.9598 223.815 56.9591 223.991 56.9947C224.168 57.0303 224.335 57.1015 224.484 57.204C224.789 57.4189 225.001 57.7433 225.073 58.1098C225.146 58.4764 225.074 58.8568 224.874 59.172V59.172Z" fill="#263238"/>
<path d="M212.73 57.132L210.564 58.854C210.446 58.718 210.357 58.5596 210.301 58.3883C210.246 58.217 210.226 58.0363 210.242 57.857C210.259 57.6778 210.311 57.5036 210.396 57.345C210.481 57.1864 210.597 57.0467 210.738 56.934C211.032 56.7066 211.403 56.6003 211.773 56.6372C212.143 56.674 212.486 56.851 212.73 57.132Z" fill="#263238"/>
<path d="M217.421 59.916L217.979 67.584L222.137 66.012L217.421 59.916Z" fill="#F28F8F"/>
<path d="M214.146 77.136C206.982 75.036 205.572 72.894 204.726 70.536C204.726 70.536 204.558 73.794 207.048 75.66C209.652 77.61 213.948 78.87 213.948 78.87L214.146 77.136Z" fill="#F28F8F"/>
<path d="M214.703 61.9081C214.712 62.1597 214.645 62.4082 214.512 62.6219C214.379 62.8356 214.185 63.0051 213.956 63.1087C213.726 63.2124 213.471 63.2456 213.223 63.2042C212.975 63.1629 212.744 63.0487 212.561 62.8762C212.377 62.7037 212.249 62.4807 212.193 62.2353C212.136 61.99 212.154 61.7334 212.243 61.498C212.332 61.2626 212.49 61.059 212.695 60.9131C212.9 60.7671 213.144 60.6853 213.395 60.6781C213.562 60.6725 213.728 60.6999 213.885 60.7588C214.041 60.8176 214.184 60.9068 214.305 61.0211C214.427 61.1354 214.525 61.2726 214.593 61.4248C214.661 61.5771 214.699 61.7413 214.703 61.9081Z" fill="#263238"/>
<path d="M223.974 62.1901C223.982 62.4415 223.915 62.6896 223.782 62.9032C223.649 63.1168 223.456 63.2862 223.227 63.39C222.998 63.4938 222.743 63.5273 222.495 63.4864C222.247 63.4455 222.017 63.3319 221.833 63.16C221.649 62.9881 221.521 62.7656 221.464 62.5207C221.406 62.2758 221.423 62.0194 221.511 61.7839C221.6 61.5485 221.756 61.3446 221.961 61.1979C222.165 61.0513 222.408 60.9685 222.66 60.9601C222.827 60.9545 222.993 60.9818 223.15 61.0406C223.306 61.0994 223.449 61.1885 223.571 61.3027C223.693 61.417 223.792 61.5541 223.861 61.7064C223.93 61.8586 223.968 62.023 223.974 62.1901V62.1901Z" fill="#263238"/>
<path d="M216.666 70.482C216.384 71.214 215.934 70.722 215.244 70.482C214.554 70.242 213.894 70.284 214.176 69.552C214.227 69.3741 214.315 69.2088 214.434 69.0666C214.552 68.9244 214.699 68.8084 214.865 68.7259C215.031 68.6434 215.212 68.5962 215.397 68.5873C215.582 68.5785 215.767 68.6081 215.94 68.6744C216.113 68.7406 216.27 68.8421 216.402 68.9723C216.533 69.1025 216.637 69.2586 216.705 69.4308C216.773 69.603 216.805 69.7874 216.798 69.9725C216.791 70.1576 216.746 70.3393 216.666 70.506V70.482Z" fill="#B16668"/>
<path d="M198.942 115.2L198.342 95.808C198.312 88.926 196.812 79.074 190.47 78.282C180.87 79.542 182.904 92.394 183.462 100.98C184.02 109.566 184.062 113.472 184.452 117.048C184.884 121.032 185.052 122.304 189.636 125.448C194.346 128.694 208.794 137.94 210.354 139.668C211.914 141.396 213.918 143.808 216.018 146.214C216.798 147.108 217.914 148.014 219.174 147.732C219.505 147.621 219.851 147.557 220.2 147.54C220.681 147.665 221.131 147.89 221.52 148.2C221.887 148.397 222.294 148.506 222.711 148.52C223.127 148.533 223.541 148.451 223.92 148.278C224.628 147.954 225.27 146.826 226.05 146.868C226.269 146.894 226.486 146.938 226.698 147C227.46 147.168 227.982 147.534 228.756 147.468C229.613 147.358 230.433 147.054 231.156 146.58C232.291 145.762 233.383 144.885 234.426 143.952C234.966 143.454 234.138 142.422 233.094 142.668C232.084 142.909 231.115 143.3 230.22 143.826C229.122 143.623 228.052 143.289 227.034 142.83C225.882 142.145 224.946 141.149 224.334 139.956C224.148 139.536 225.534 140.118 226.536 140.67C227.588 141.191 228.762 141.415 229.932 141.318C231.324 141.048 231.27 140.364 231.078 139.974C230.886 139.584 228.744 138.858 227.532 137.646C226.164 136.284 224.376 134.646 222.06 134.046C219.744 133.446 217.566 133.05 216.06 131.646C214.554 130.242 198.942 115.2 198.942 115.2Z" fill="#FFA8A7"/>
<path opacity="0.2" d="M146.4 238.716C146.511 238.656 146.595 238.557 146.636 238.437C146.677 238.318 146.67 238.188 146.619 238.073C146.567 237.958 146.473 237.867 146.357 237.818C146.241 237.769 146.11 237.766 145.992 237.81L136.932 240.72C136.805 240.761 136.7 240.85 136.639 240.968C136.579 241.086 136.567 241.224 136.608 241.35C136.648 241.477 136.738 241.582 136.856 241.643C136.974 241.703 137.111 241.715 137.238 241.674L146.298 238.758L146.4 238.716ZM146.4 234L137.118 231.924C136.994 231.909 136.869 231.94 136.766 232.012C136.664 232.084 136.592 232.191 136.565 232.313C136.537 232.435 136.556 232.562 136.617 232.671C136.678 232.78 136.777 232.862 136.896 232.902L146.184 234.978C146.248 234.993 146.315 234.995 146.38 234.984C146.445 234.973 146.507 234.95 146.563 234.915C146.619 234.879 146.667 234.833 146.705 234.779C146.743 234.725 146.77 234.664 146.784 234.6C146.812 234.47 146.788 234.333 146.716 234.221C146.644 234.108 146.53 234.029 146.4 234V234ZM147.516 240.222L142.2 248.142C142.126 248.253 142.1 248.388 142.126 248.518C142.151 248.649 142.228 248.764 142.338 248.838C142.417 248.889 142.51 248.917 142.605 248.917C142.7 248.917 142.792 248.889 142.872 248.838C142.935 248.801 142.988 248.75 143.028 248.688L148.338 240.792C148.412 240.682 148.439 240.548 148.414 240.418C148.388 240.288 148.313 240.173 148.203 240.099C148.093 240.025 147.958 239.998 147.828 240.023C147.698 240.048 147.584 240.124 147.51 240.234L147.516 240.222Z" fill="black"/>
<path d="M200.226 42.414C200.303 42.5758 200.314 42.7614 200.255 42.9308C200.197 43.1002 200.074 43.24 199.914 43.32L197.058 44.724C196.977 44.7624 196.889 44.7823 196.8 44.7823C196.711 44.7823 196.623 44.7624 196.542 44.724C196.456 44.697 196.377 44.6528 196.309 44.594C196.241 44.5351 196.185 44.463 196.146 44.382L195 42.126C194.964 42.0437 194.946 41.9549 194.946 41.865C194.946 41.7752 194.964 41.6864 195 41.604C195.028 41.5195 195.073 41.4414 195.131 41.3744C195.19 41.3074 195.262 41.2529 195.342 41.214L198.192 39.816C198.272 39.7748 198.36 39.7503 198.449 39.7441C198.539 39.7379 198.629 39.7501 198.714 39.78C198.798 39.8084 198.876 39.8532 198.943 39.9119C199.01 39.9706 199.065 40.042 199.104 40.122L200.226 42.414ZM197.826 37.542C197.866 37.6224 197.89 37.7102 197.895 37.7999C197.9 37.8897 197.887 37.9796 197.856 38.064C197.829 38.1491 197.785 38.2276 197.726 38.2948C197.667 38.3619 197.595 38.4161 197.514 38.454L194.664 39.858C194.497 39.927 194.309 39.927 194.142 39.858C194.056 39.832 193.977 39.788 193.91 39.729C193.843 39.6701 193.789 39.5975 193.752 39.516L188.952 29.754C188.913 29.6744 188.89 29.5877 188.885 29.4991C188.88 29.4105 188.892 29.3217 188.922 29.238C188.949 29.1522 188.993 29.0728 189.052 29.0047C189.111 28.9366 189.183 28.8813 189.264 28.842L192.12 27.444C192.201 27.4057 192.289 27.3857 192.378 27.3857C192.467 27.3857 192.555 27.4057 192.636 27.444C192.721 27.4707 192.8 27.5141 192.868 27.5719C192.936 27.6296 192.992 27.7004 193.032 27.78L197.826 37.542Z" fill="#BA68C8"/>
<g opacity="0.5">
<path d="M200.226 42.414C200.303 42.5758 200.314 42.7614 200.255 42.9308C200.197 43.1002 200.074 43.24 199.914 43.32L197.058 44.724C196.977 44.7624 196.889 44.7823 196.8 44.7823C196.711 44.7823 196.623 44.7624 196.542 44.724C196.456 44.697 196.377 44.6528 196.309 44.594C196.241 44.5351 196.185 44.463 196.146 44.382L195 42.126C194.964 42.0437 194.946 41.9549 194.946 41.865C194.946 41.7752 194.964 41.6864 195 41.604C195.028 41.5195 195.073 41.4414 195.131 41.3744C195.19 41.3074 195.262 41.2529 195.342 41.214L198.192 39.816C198.272 39.7748 198.36 39.7503 198.449 39.7441C198.539 39.7379 198.629 39.7501 198.714 39.78C198.798 39.8084 198.876 39.8532 198.943 39.9119C199.01 39.9706 199.065 40.042 199.104 40.122L200.226 42.414ZM197.826 37.542C197.866 37.6224 197.89 37.7102 197.895 37.7999C197.9 37.8897 197.887 37.9796 197.856 38.064C197.829 38.1491 197.785 38.2276 197.726 38.2948C197.667 38.3619 197.595 38.4161 197.514 38.454L194.664 39.858C194.497 39.927 194.309 39.927 194.142 39.858C194.056 39.832 193.977 39.788 193.91 39.729C193.843 39.6701 193.789 39.5975 193.752 39.516L188.952 29.754C188.913 29.6744 188.89 29.5877 188.885 29.4991C188.88 29.4105 188.892 29.3217 188.922 29.238C188.949 29.1522 188.993 29.0728 189.052 29.0047C189.111 28.9366 189.183 28.8813 189.264 28.842L192.12 27.444C192.201 27.4057 192.289 27.3857 192.378 27.3857C192.467 27.3857 192.555 27.4057 192.636 27.444C192.721 27.4707 192.8 27.5141 192.868 27.5719C192.936 27.6296 192.992 27.7004 193.032 27.78L197.826 37.542Z" fill="white"/>
</g>
<path d="M194.598 48.864C194.661 48.9278 194.71 49.0039 194.742 49.0876C194.774 49.1712 194.788 49.2606 194.784 49.35C194.784 49.4402 194.765 49.5292 194.729 49.6118C194.692 49.6943 194.64 49.7686 194.574 49.83L192.27 52.014C192.206 52.077 192.13 52.126 192.046 52.158C191.963 52.19 191.873 52.2043 191.784 52.2C191.694 52.1997 191.605 52.1808 191.522 52.1447C191.44 52.1086 191.365 52.056 191.304 51.99L189.552 50.142C189.49 50.0775 189.442 50.0012 189.41 49.9178C189.378 49.8343 189.363 49.7454 189.366 49.656C189.382 49.4795 189.466 49.316 189.6 49.2L191.91 47.016C191.974 46.9531 192.05 46.9041 192.133 46.8721C192.217 46.8401 192.306 46.8258 192.396 46.83C192.485 46.8316 192.573 46.851 192.654 46.887C192.736 46.9231 192.809 46.9751 192.87 47.04L194.598 48.864ZM190.866 44.928C190.988 45.0599 191.055 45.2341 191.052 45.414C191.05 45.5039 191.031 45.5926 190.995 45.675C190.959 45.7573 190.907 45.8318 190.842 45.894L188.538 48.078C188.409 48.2045 188.236 48.2753 188.055 48.2753C187.874 48.2753 187.701 48.2045 187.572 48.078L180.09 40.164C180.024 40.1022 179.974 40.0264 179.941 39.9423C179.909 39.8581 179.896 39.7678 179.904 39.678C179.904 39.5888 179.923 39.5007 179.959 39.4191C179.996 39.3376 180.048 39.2643 180.114 39.204L182.4 37.014C182.465 36.9531 182.541 36.9057 182.625 36.8748C182.708 36.8439 182.797 36.83 182.886 36.834C182.976 36.8326 183.065 36.85 183.148 36.8851C183.23 36.9202 183.305 36.9724 183.366 37.038L190.866 44.928Z" fill="#BA68C8"/>
<g opacity="0.2">
<path d="M194.598 48.864C194.661 48.9278 194.71 49.0039 194.742 49.0876C194.774 49.1712 194.788 49.2606 194.784 49.35C194.784 49.4402 194.765 49.5292 194.729 49.6118C194.692 49.6943 194.64 49.7686 194.574 49.83L192.27 52.014C192.206 52.077 192.13 52.126 192.046 52.158C191.963 52.19 191.873 52.2043 191.784 52.2C191.694 52.1997 191.605 52.1808 191.522 52.1447C191.44 52.1086 191.365 52.056 191.304 51.99L189.552 50.142C189.49 50.0775 189.442 50.0012 189.41 49.9178C189.378 49.8343 189.363 49.7454 189.366 49.656C189.382 49.4795 189.466 49.316 189.6 49.2L191.91 47.016C191.974 46.9531 192.05 46.9041 192.133 46.8721C192.217 46.8401 192.306 46.8258 192.396 46.83C192.485 46.8316 192.573 46.851 192.654 46.887C192.736 46.9231 192.809 46.9751 192.87 47.04L194.598 48.864ZM190.866 44.928C190.988 45.0599 191.055 45.2341 191.052 45.414C191.05 45.5039 191.031 45.5926 190.995 45.675C190.959 45.7573 190.907 45.8318 190.842 45.894L188.538 48.078C188.409 48.2045 188.236 48.2753 188.055 48.2753C187.874 48.2753 187.701 48.2045 187.572 48.078L180.09 40.164C180.024 40.1022 179.974 40.0264 179.941 39.9423C179.909 39.8581 179.896 39.7678 179.904 39.678C179.904 39.5888 179.923 39.5007 179.959 39.4191C179.996 39.3376 180.048 39.2643 180.114 39.204L182.4 37.014C182.465 36.9531 182.541 36.9057 182.625 36.8748C182.708 36.8439 182.797 36.83 182.886 36.834C182.976 36.8326 183.065 36.85 183.148 36.8851C183.23 36.9202 183.305 36.9724 183.366 37.038L190.866 44.928Z" fill="white"/>
</g>
<path d="M293.136 77.658C293.538 88.83 297.936 100.542 307.464 105.534C310.696 103.558 313.781 101.352 316.698 98.934C321.216 95.094 322.446 87.774 322.446 87.774C322.446 87.774 312.912 83.814 313.086 65.208L293.136 77.658Z" fill="#EBEBEB"/>
<path d="M316.698 98.934C320.256 95.19 321.528 90.342 321.21 85.35C321.21 85.35 323.364 86.508 323.754 87.642C323.754 87.642 323.652 93.45 316.698 98.934Z" fill="#F5F5F5"/>
<path d="M279.186 57.8339C272.052 61.8779 261.294 58.9739 261.294 58.9739L281.16 49.7339C281.16 49.7339 288.552 52.3799 298.668 46.4879L279.186 57.8339Z" fill="#F0F0F0"/>
<path d="M279.186 57.834C285.948 53.634 287.628 45.474 287.25 42.774L303.888 33.444C303.226 38.1495 301.435 42.6249 298.668 46.488L279.186 57.834Z" fill="#E0E0E0"/>
<path d="M283.332 59.9459C292.146 57.3419 301.884 67.4099 306.66 76.7939L326.034 64.2299C326.034 64.2299 314.442 46.2839 303.282 48.8399L283.332 59.9459Z" fill="#F5F5F5"/>
<defs>
<filter id="filter0_d_693_3401" x="0.768066" y="119.922" width="388.464" height="243.972" filterUnits="userSpaceOnUse" color-interpolation-filters="sRGB">
<feFlood flood-opacity="0" result="BackgroundImageFix"/>
<feColorMatrix in="SourceAlpha" type="matrix" values="0 0 0 0 0 0 0 0 0 0 0 0 0 0 0 0 0 0 127 0" result="hardAlpha"/>
<feOffset dy="24"/>
<feGaussianBlur stdDeviation="24"/>
<feComposite in2="hardAlpha" operator="out"/>
<feColorMatrix type="matrix" values="0 0 0 0 0 0 0 0 0 0 0 0 0 0 0 0 0 0 0.08 0"/>
<feBlend mode="normal" in2="BackgroundImageFix" result="effect1_dropShadow_693_3401"/>
<feBlend mode="normal" in="SourceGraphic" in2="effect1_dropShadow_693_3401" result="shape"/>
</filter>
</defs>
</svg>
