<svg viewBox="0 0 2571 1140" fill="none" xmlns="http://www.w3.org/2000/svg">
<path d="M1956.89 368C1956.89 545.291 1814.35 689 1638.55 689C1462.74 689 1320.2 545.291 1320.2 368C1320.2 190.709 1462.74 47 1638.55 47C1814.35 47 1956.89 190.709 1956.89 368Z" stroke="#F6B9D5" stroke-opacity="0.5" stroke-width="2"/>
<path d="M1 476L562.5 658C926.967 774.5 1656.89 688.5 1656.89 688.5C1656.89 688.5 1737.98 678.402 1789.29 685C1879.77 696.634 2004.5 776.5 2004.5 776.5L2569.5 1139" stroke="#F6B9D5" stroke-opacity="0.5" stroke-width="2"/>
<g filter="url(#filter0_f_1646_2220)">
<ellipse rx="277.724" ry="288.443" transform="matrix(0.936099 -0.351738 0.346656 0.937992 1638.51 368.243)" fill="#E277AD" fill-opacity="0.2"/>
</g>
<defs>
<filter id="filter0_f_1646_2220" x="1311.89" y="32.5127" width="653.235" height="671.461" filterUnits="userSpaceOnUse" color-interpolation-filters="sRGB">
<feFlood flood-opacity="0" result="BackgroundImageFix"/>
<feBlend mode="normal" in="SourceGraphic" in2="BackgroundImageFix" result="shape"/>
<feGaussianBlur stdDeviation="24" result="effect1_foregroundBlur_1646_2220"/>
</filter>
</defs>
</svg>
