<svg width="524" height="520" viewBox="0 0 524 520" fill="none" xmlns="http://www.w3.org/2000/svg">
<g filter="url(#filter0_d_589_1446)">
<path d="M111.378 411.792C28.2008 363.768 28.2008 285.899 111.378 237.912C194.555 189.925 329.418 189.888 412.623 237.912C495.828 285.936 495.8 363.805 412.623 411.792C329.446 459.779 194.564 459.825 111.378 411.792Z" fill="#F5F5F5"/>
</g>
<path d="M177.949 414.111C214.044 414.111 243.305 397.219 243.305 376.382C243.305 355.544 214.044 338.652 177.949 338.652C141.853 338.652 112.592 355.544 112.592 376.382C112.592 397.219 141.853 414.111 177.949 414.111Z" fill="#E0E0E0"/>
<path d="M329.007 358.747C374.327 334.304 401.205 296.207 389.041 273.655C376.878 251.102 330.279 252.635 284.959 277.078C239.639 301.521 212.761 339.618 224.925 362.17C237.088 384.723 283.687 383.19 329.007 358.747Z" fill="#E0E0E0"/>
<path d="M374.102 305.173C383.164 294.373 397.36 287.335 413.322 283.176C429.091 279.082 431.915 269.376 421.464 266.239C409.623 262.669 394.848 269.22 385.317 278.337C368.72 294.225 366.632 306.36 366.632 306.36L374.102 305.173Z" fill="#BA68C8"/>
<path opacity="0.15" d="M374.102 305.173C383.164 294.373 397.36 287.335 413.322 283.176C429.091 279.082 431.915 269.376 421.464 266.239C409.623 262.669 394.848 269.22 385.317 278.337C368.72 294.225 366.632 306.36 366.632 306.36L374.102 305.173Z" fill="black"/>
<path d="M369.438 304.52C369.371 304.534 369.302 304.534 369.235 304.52C369.181 304.494 369.132 304.457 369.092 304.412C369.052 304.366 369.021 304.313 369.001 304.256C368.982 304.199 368.974 304.138 368.977 304.078C368.981 304.017 368.997 303.958 369.024 303.904C382.474 276.304 412.264 269.514 419.476 270.03C419.597 270.039 419.709 270.095 419.788 270.187C419.867 270.278 419.907 270.397 419.9 270.517C419.888 270.638 419.83 270.75 419.737 270.829C419.644 270.908 419.524 270.948 419.403 270.94C412.337 270.407 383.09 277.132 369.852 304.309C369.806 304.376 369.745 304.431 369.672 304.468C369.6 304.505 369.519 304.523 369.438 304.52Z" fill="white"/>
<path d="M366.632 308.044C366.632 308.488 366.751 308.923 366.974 309.307C367.198 309.69 367.519 310.007 367.905 310.226C368.291 310.444 368.729 310.557 369.172 310.552C369.616 310.547 370.05 310.424 370.431 310.197C378.859 305.293 391.15 302.579 411.04 308.246C421.62 311.255 426.827 309.24 429.054 304.934C431.538 300.15 426.294 295.523 420.314 293.342C399.954 285.9 381.582 290.978 366.632 305.827V308.044Z" fill="#BA68C8"/>
<path d="M367.8 308.439C367.735 308.44 367.67 308.428 367.61 308.403C367.55 308.377 367.495 308.34 367.451 308.292C367.366 308.205 367.318 308.087 367.318 307.965C367.318 307.844 367.366 307.726 367.451 307.639C385.032 291.925 412.264 294.989 422.568 301.116C422.672 301.177 422.748 301.278 422.779 301.395C422.81 301.512 422.794 301.637 422.733 301.742C422.67 301.847 422.568 301.923 422.45 301.954C422.331 301.985 422.205 301.968 422.099 301.907C411.979 295.9 385.299 292.91 368.067 308.347C367.989 308.403 367.896 308.435 367.8 308.439Z" fill="white"/>
<path d="M169.927 344.678C162.199 332.884 148.932 324.218 133.568 318.21C118.407 312.285 116.741 302.322 127.487 300.426C139.668 298.283 153.569 306.535 161.959 316.71C176.569 334.448 177.204 346.767 177.204 346.767L169.927 344.678Z" fill="#BA68C8"/>
<path opacity="0.15" d="M169.927 344.678C162.199 332.884 148.932 324.218 133.568 318.21C118.407 312.285 116.741 302.322 127.487 300.426C139.668 298.283 153.569 306.535 161.959 316.71C176.569 334.448 177.204 346.767 177.204 346.767L169.927 344.678Z" fill="black"/>
<path d="M174.6 344.605C174.667 344.618 174.736 344.618 174.803 344.605C174.918 344.563 175.012 344.478 175.065 344.368C175.118 344.258 175.126 344.132 175.088 344.016C164.968 315.027 136.227 304.769 128.978 304.456C128.857 304.451 128.739 304.493 128.65 304.574C128.56 304.655 128.506 304.768 128.499 304.888C128.496 305.011 128.541 305.129 128.623 305.22C128.705 305.311 128.819 305.367 128.941 305.376C136.025 305.67 164.269 315.8 174.214 344.347C174.25 344.421 174.304 344.483 174.372 344.528C174.44 344.574 174.519 344.6 174.6 344.605Z" fill="white"/>
<path d="M177.268 346.206C177.196 346.86 176.957 347.484 176.573 348.018C176.189 348.552 175.675 348.979 175.078 349.256C174.482 349.534 173.824 349.653 173.168 349.602C172.512 349.551 171.881 349.332 171.334 348.966C163.533 343.74 151.913 340.345 132.878 343.446C122.022 345.185 117.091 342.526 115.398 338.027C113.503 332.985 119.262 329.02 125.454 327.557C146.549 322.571 164.195 329.784 177.287 346.279L177.268 346.206Z" fill="#BA68C8"/>
<path d="M175.815 348.68C175.879 348.689 175.944 348.684 176.006 348.665C176.068 348.646 176.126 348.614 176.174 348.57C176.258 348.482 176.306 348.365 176.306 348.243C176.306 348.121 176.258 348.004 176.174 347.917C160.534 330.244 133.164 330.069 122.206 334.936C122.094 334.986 122.006 335.078 121.962 335.193C121.918 335.308 121.922 335.435 121.972 335.547C122.022 335.66 122.114 335.747 122.229 335.791C122.344 335.835 122.471 335.832 122.584 335.782C133.32 331.007 160.184 331.182 175.484 348.524C175.524 348.573 175.574 348.613 175.631 348.64C175.689 348.667 175.751 348.681 175.815 348.68Z" fill="white"/>
<path d="M382.354 134.477L382.207 134.403L347.136 114.218L346.925 114.117C330.54 105.837 308.68 108.33 285.165 123.529C237.932 154.073 201.942 224.379 204.776 280.564C206.183 308.559 216.984 327.76 233.296 336.205L233.434 336.279L268.513 356.473L268.679 356.565C285.064 364.845 306.942 362.388 330.475 347.172C377.708 316.628 413.698 246.321 410.865 190.137C409.476 162.123 398.675 142.922 382.354 134.477Z" fill="#37474F"/>
<path d="M267.308 355.82L233.48 336.261L233.314 336.159C217.003 327.695 206.211 308.495 204.794 280.536C203.534 255.475 210.001 227.627 221.722 201.766L221.952 201.195L256.802 221.951C245.063 247.812 238.613 275.66 239.874 300.721C241.208 328.128 251.576 347.098 267.308 355.82Z" fill="#263238"/>
<path d="M330.493 347.153C377.726 316.609 413.717 246.303 410.883 190.119C408.049 133.934 367.459 113.161 320.226 143.705C272.993 174.249 236.994 244.555 239.827 300.73C242.661 356.905 283.261 377.697 330.493 347.153Z" fill="#455A64"/>
<path d="M370.495 130.116L311.293 252.08L298.551 238.28C294.752 234.324 289.552 232.017 284.07 231.852C278.588 231.688 273.26 233.68 269.23 237.401C265.201 241.122 262.792 246.275 262.52 251.753C262.248 257.231 264.136 262.597 267.777 266.699L301.348 303.067C305.039 307.077 310.155 309.481 315.599 309.764C315.985 309.764 316.371 309.764 316.758 309.764C317.774 309.763 318.788 309.689 319.794 309.543C323.173 309.051 326.38 307.739 329.136 305.722C331.891 303.704 334.11 301.043 335.599 297.97L403.495 158.13C396.531 142.6 384.939 132.977 370.495 130.116Z" fill="#37474F"/>
<path d="M418.575 89.9486C418.207 89.737 417.82 89.5346 417.434 89.3506C413.095 87.248 408.099 86.9525 403.542 88.5289C398.985 90.1053 395.24 93.4249 393.128 97.7594L317.798 252.927L313.511 248.327C312.273 246.975 310.833 245.823 309.242 244.913C306.997 243.625 297.448 238.096 295.902 237.204C292.135 235.024 287.711 234.268 283.433 235.072C279.156 235.876 275.309 238.187 272.59 241.586C269.872 244.985 268.462 249.246 268.617 253.596C268.772 257.945 270.482 262.095 273.436 265.291L307.006 301.65C308.265 303.016 309.727 304.179 311.34 305.1C313.529 306.342 323.042 311.862 324.606 312.763C326.769 314.016 329.168 314.809 331.651 315.094C334.135 315.378 336.65 315.148 339.041 314.416C341.431 313.685 343.646 312.469 345.545 310.844C347.444 309.219 348.989 307.22 350.081 304.971L439.201 121.403C441.205 117.266 441.57 112.524 440.224 108.129C438.878 103.734 435.919 100.01 431.942 97.7042L418.575 89.9486Z" fill="#BA68C8"/>
<path opacity="0.15" d="M418.575 89.9486C418.207 89.737 417.82 89.5346 417.434 89.3506C413.095 87.248 408.099 86.9525 403.542 88.5289C398.985 90.1053 395.24 93.4249 393.128 97.7594L317.798 252.927L313.511 248.327C312.273 246.975 310.833 245.823 309.242 244.913C306.997 243.625 297.448 238.096 295.902 237.204C292.135 235.024 287.711 234.268 283.433 235.072C279.156 235.876 275.309 238.187 272.59 241.586C269.872 244.985 268.462 249.246 268.617 253.596C268.772 257.945 270.482 262.095 273.436 265.291L307.006 301.65C308.265 303.016 309.727 304.179 311.34 305.1C313.529 306.342 323.042 311.862 324.606 312.763C326.769 314.016 329.168 314.809 331.651 315.094C334.135 315.378 336.65 315.148 339.041 314.416C341.431 313.685 343.646 312.469 345.545 310.844C347.444 309.219 348.989 307.22 350.081 304.971L439.201 121.403C441.205 117.266 441.57 112.524 440.224 108.129C438.878 103.734 435.919 100.01 431.942 97.7042L418.575 89.9486Z" fill="black"/>
<path opacity="0.15" d="M324.559 312.727C323.014 311.807 313.519 306.287 311.302 305.063C309.689 304.142 308.228 302.978 306.969 301.613L273.398 265.255C271.918 263.64 270.743 261.769 269.93 259.735L283.279 267.435C284.088 269.476 285.271 271.348 286.766 272.955L320.327 309.314C321.562 310.654 322.988 311.804 324.559 312.727Z" fill="black"/>
<path opacity="0.15" d="M410.699 99.8756C408.946 101.449 407.515 103.349 406.486 105.469L329.003 265.071L317.798 252.927L393.127 97.7596C394.154 95.6358 395.589 93.7351 397.35 92.166L410.699 99.8756Z" fill="black"/>
<path d="M430.792 97.0603C426.452 94.9627 421.457 94.6698 416.902 96.2457C412.347 97.8216 408.601 101.138 406.485 105.469L329.003 265.071L313.519 248.29C310.206 244.924 305.712 242.98 300.99 242.869C296.268 242.758 291.688 244.49 288.221 247.697C284.753 250.904 282.67 255.334 282.412 260.051C282.154 264.767 283.742 269.398 286.839 272.964L320.401 309.332C322.41 311.505 324.919 313.156 327.711 314.14C330.502 315.124 333.492 315.412 336.42 314.978C339.348 314.545 342.126 313.404 344.513 311.653C346.9 309.903 348.823 307.597 350.117 304.934L439.237 121.367C441.337 117.023 441.627 112.023 440.044 107.466C438.46 102.908 435.133 99.1659 430.792 97.0603Z" fill="#BA68C8"/>
<path d="M176.651 115C169.632 115 164.829 116.84 159.843 123.924C155.243 130.438 142.694 152.15 142.694 152.15C142.694 152.15 133.494 133.271 132.574 129.508C131.654 125.746 131.709 124.071 132.574 122.434C133.84 120.498 134.634 118.292 134.893 115.994C135.251 111.467 136.355 107.594 135.343 107.465C132.537 107.309 132.427 110.915 130.955 113.04C130.768 113.245 130.535 113.404 130.276 113.502C130.016 113.601 129.737 113.636 129.461 113.607C129.185 113.577 128.92 113.483 128.687 113.332C128.454 113.181 128.261 112.977 128.121 112.737C127.505 111.476 127.836 109.406 127.542 107.916C127.621 107.087 127.754 106.263 127.937 105.45C129 105.641 130.085 105.673 131.157 105.542C132.372 107.447 133.2 108.247 134.893 107.474C135.113 107.125 134.166 104.714 133.053 102.874C132.885 102.593 132.615 102.388 132.298 102.304C130.257 101.787 128.127 101.727 126.061 102.129C125.904 102.145 125.753 102.193 125.615 102.268C125.478 102.344 125.357 102.447 125.26 102.571C124.483 103.709 123.864 104.947 123.42 106.251C123.301 106.646 122.933 106.637 122.841 106.297C121.921 101.853 121.921 95.5419 121.921 92.5887C121.921 90.2611 118.526 89.8931 118.406 93.2235C118.204 97.6921 118.281 102.169 118.636 106.628C118.636 107.033 118.231 107.226 118.066 106.784C117.477 105.211 116.033 100.455 115.425 92.2483C115.26 90.0403 111.69 89.6815 111.745 92.7819C111.885 98.2787 112.601 103.746 113.88 109.094C113.99 109.48 113.631 109.82 113.365 109.379C111.69 106.151 110.352 102.76 109.372 99.2587C108.608 96.5907 105.048 97.2715 105.692 100.593C106.805 106.545 108.571 114.071 111.212 119.453C114.027 125.203 116.456 128.082 117.854 132.6C119.253 137.117 125.039 162.702 131.231 172.675C136.079 180.495 141.627 179.768 147.598 175.646C153.569 171.525 174.903 141.8 174.903 141.8L176.651 115Z" fill="#9E6767"/>
<path d="M142.694 152.14C142.694 152.14 145.684 157.21 146.144 161.267C146.904 157.327 146.149 153.246 144.028 149.84L142.694 152.14Z" fill="#874C4C"/>
<path d="M178.142 115C174.573 114.632 170.129 114.512 165.179 117.631C160.23 120.75 158.5 125.092 156.099 128.892C153.698 132.692 145.399 146.151 145.399 146.151C145.399 146.151 148.445 158.93 160.552 161.561L178.685 136.96L178.142 115Z" fill="#455A64"/>
<path d="M194.398 339.692C195.318 339.572 196.541 342.709 196.56 343.731C196.578 344.752 195.548 346.951 194.195 349.011C192.388 351.465 190.889 354.131 189.733 356.951C188.694 359.785 187.737 361.643 184.839 365.351C181.619 369.481 174.057 376.391 162.575 373.391C159.769 372.655 158.371 371.772 157.349 370.751C156.901 370.298 156.589 369.729 156.448 369.108C156.306 368.487 156.341 367.839 156.549 367.237L194.398 339.692Z" fill="#263238"/>
<path d="M171.84 336.104V336.205C171.709 337.064 171.733 337.94 171.914 338.79C172.229 341.324 172.005 343.895 171.255 346.336C170.505 348.776 169.246 351.03 167.562 352.949C165.963 354.618 164.157 356.078 162.189 357.291C156.375 360.971 155.749 363.483 156.568 367.236C158.519 371.606 171.702 374.265 179.283 367.761C182.554 365.222 185.054 361.823 186.505 357.944C187.605 355.166 188.884 352.462 190.332 349.848C191.795 347.088 194.573 343.979 194.656 341.136C194.702 339.572 193.157 336.665 191.657 334.273C190.277 332.074 188.851 329.986 187.609 330.225L187.959 331.467C186.919 332.543 185.419 332.948 184.518 334.227C183.395 335.782 183.432 337.907 182.742 339.655C182.72 339.745 182.677 339.829 182.619 339.9C182.56 339.972 182.486 340.029 182.402 340.069C182.305 340.085 182.205 340.07 182.117 340.025C182.029 339.98 181.958 339.909 181.914 339.82C181.839 339.64 181.805 339.445 181.813 339.25L181.73 336.573C181.772 336.058 181.635 335.545 181.344 335.119C180.626 334.31 178.86 334.402 177.875 334.365C176.55 334.375 175.227 334.455 173.91 334.604C173.454 334.559 172.997 334.68 172.622 334.944C172.246 335.239 171.973 335.645 171.84 336.104Z" fill="#37474F"/>
<path d="M152.354 282.615C155.418 292.689 169.742 327.566 170.598 329.664L173.45 336.582C175.328 337.2 177.34 337.286 179.264 336.831C179.568 340.17 180.074 345.405 180.267 348.045C180.34 351.109 180.607 354.899 179.945 357.926C179.384 360.502 178.73 363.207 178.243 365.792C178.031 366.933 177.82 368.083 177.645 369.233C177.348 370.437 177.448 371.706 177.93 372.849C178.223 373.348 178.611 373.785 179.071 374.137C181.114 375.742 183.697 376.499 186.284 376.253C187.651 376.187 188.975 375.748 190.111 374.983C192.337 373.391 193.119 370.622 194.251 368.267C195.484 365.719 195.088 365.433 195.171 362.701C195.244 360.787 195.778 355.93 196.542 350.851C197.305 345.773 200.599 327.925 202.181 310.141C202.826 302.243 202.826 294.304 202.181 286.405C214.748 252.264 220.342 231.96 221.989 220.625C223.654 209.107 222.854 204.985 222.642 198.371L161.526 199.843C156.632 231.435 148.242 269.109 152.354 282.615Z" fill="#9E6767"/>
<path d="M151.398 257.407C152.658 245.797 161.343 201.167 161.343 201.167H222.909C222.909 201.167 223.305 209.733 223.195 213.67C223.084 217.608 221.815 224.793 219.616 233.91C217.417 243.027 209.266 268.76 207.656 272.55C206.046 276.341 203.056 287.335 203.056 287.335C204.565 307.979 200.636 326.508 197.692 351.137C197.692 351.137 196.837 354.458 188.115 353.805C179.633 353.161 177.921 350.033 177.921 350.033L177.36 328.79C177.36 328.79 172.76 330.207 170 329.563C170 329.563 151.775 284.565 150.892 281.861C150.009 279.156 150.137 269.017 151.398 257.407Z" fill="#BA68C8"/>
<path opacity="0.45" d="M151.398 257.407C152.658 245.797 161.343 201.167 161.343 201.167H222.909C222.909 201.167 223.305 209.733 223.195 213.67C223.084 217.608 221.815 224.793 219.616 233.91C217.417 243.027 209.266 268.76 207.656 272.55C206.046 276.341 203.056 287.335 203.056 287.335C204.565 307.979 200.636 326.508 197.692 351.137C197.692 351.137 196.837 354.458 188.115 353.805C179.633 353.161 177.921 350.033 177.921 350.033L177.36 328.79C177.36 328.79 172.76 330.207 170 329.563C170 329.563 151.775 284.565 150.892 281.861C150.009 279.156 150.137 269.017 151.398 257.407Z" fill="black"/>
<path opacity="0.2" d="M177.516 230.258C168.795 222.401 166.854 216.145 166.854 216.145C171.238 221.085 176.43 225.244 182.208 228.445C182.208 228.445 173.928 272.164 174.536 281.152C175.143 290.141 177.36 328.79 177.36 328.79C177.36 329.158 171.49 287.914 171.316 284.63C170.92 275.936 177.516 230.258 177.516 230.258Z" fill="black"/>
<path d="M196.68 373.023C197.536 373.272 197.425 375.829 197.039 376.786C196.082 378.456 194.726 379.862 193.092 380.88C190.699 382.51 188.702 384.658 187.25 387.164C184.888 390.777 181.764 393.829 178.096 396.106C173.212 398.878 167.454 399.684 161.996 398.36C156.219 396.723 155.685 395.306 155.731 393.125L196.68 373.023Z" fill="#263238"/>
<path d="M178.832 359.647C177.314 367.007 174.674 372.416 168.556 376.961C163.68 380.586 160.147 382.426 156.255 385.655C154.608 387.035 154.47 389.97 155.731 393.135C158.362 395.241 162.097 396.456 167.111 396.447C172.723 396.447 174.876 395.444 178.096 393.245C179.678 392.164 181.151 390.931 182.494 389.565C185.189 386.86 187.094 383.521 189.007 381.377C190.921 379.233 195.162 377.044 196.367 374.459C197.03 373.042 196.754 369.757 196.312 366.961C195.907 364.394 196.689 359.886 195.456 359.601L195.282 361.441C195.18 361.855 194.923 362.066 194.058 362.361C193.281 362.529 192.479 362.551 191.694 362.425C191.415 362.324 191.111 362.313 190.825 362.394C190.54 362.475 190.287 362.643 190.102 362.876C189.274 363.851 189.053 365.231 187.986 366.041C187.917 366.101 187.835 366.145 187.747 366.169C187.706 366.192 187.659 366.204 187.612 366.202C187.565 366.2 187.519 366.186 187.48 366.16C187.452 366.116 187.433 366.066 187.425 366.013C187.417 365.961 187.42 365.908 187.434 365.857L187.738 363.097C187.774 362.822 187.774 362.543 187.738 362.269C187.68 362.012 187.568 361.771 187.409 361.562C187.251 361.352 187.049 361.179 186.818 361.054C186.043 360.603 185.21 360.26 184.343 360.033C183.44 359.788 182.516 359.631 181.583 359.564C180.667 359.446 179.739 359.474 178.832 359.647Z" fill="#455A64"/>
<path d="M217.352 117.64C217.352 117.64 219.882 121.118 221.952 128.285C224.472 140.055 225.767 152.054 225.816 164.091C225.816 180.348 223.627 206.687 223.627 206.687C204.758 216.145 174.324 210.551 160.929 201.324C161.472 198.398 161.932 183.016 162.99 172.868C163.698 155.462 164.287 146.344 164.406 138.598C164.655 123.124 172.355 115.129 178.206 115.009L192.982 115.239L217.352 117.64Z" fill="#BA68C8"/>
<path d="M222.008 201.913C219.202 204.222 213.728 208.656 212.688 210.892C211.529 213.449 210.848 217.332 210.066 218.785C209.284 220.239 210.462 220.975 212.081 220.451C213.7 219.926 214.666 218.555 215.917 215.207C217.169 211.858 220.646 209.236 220.646 209.236L222.008 201.913Z" fill="#874C4C"/>
<path d="M211.759 232.024C212.43 233.321 213.994 233.331 215.439 233.441C217.2 233.643 218.984 233.442 220.655 232.852C222.664 232.272 224.426 231.047 225.669 229.365C227.086 227.323 227.454 224.765 228.264 222.419C229.956 217.497 234.998 213.946 235.826 208.73C236.166 206.577 236.166 204.038 236.746 202.704C237.105 201.913 245.394 187.643 248.356 181.461C251.19 175.518 253.315 172.721 250.739 165.582C248.163 158.443 239.396 133.317 233.186 124.587C229.671 119.637 224.087 118.22 217.316 117.641C212.164 131.054 218.153 144.919 218.153 144.919L231.824 171.212C231.824 171.212 226.525 189.318 223.213 199.383C222.293 202.143 220.453 203.909 218.346 207.009C217.426 208.353 215.347 210.689 214.611 212.152C213.691 213.992 213.691 215.207 213.231 217.81C212.513 221.959 211.4 231.408 211.759 232.024Z" fill="#9E6767"/>
<path d="M216.625 117.567C220.185 117.705 225.301 118.312 228.355 119.858C231.409 121.403 233.535 123.308 237.049 130.355C240.563 137.402 245.706 151.092 245.706 151.092C245.706 151.092 244.004 161.423 227.665 164.1L216.625 143.741C216.625 143.741 211.703 131.054 216.625 117.567Z" fill="#455A64"/>
<path d="M174.177 84.6861C174.66 85.559 175.078 86.4661 175.428 87.4001C175.972 88.6201 176.668 89.7668 177.498 90.8133C179.614 93.2513 182.586 95.0361 185.3 96.7657C186.937 97.8145 188.814 98.7989 190.82 98.5137C192.825 98.2285 195.061 98.6609 197.131 98.8449L204.371 99.4981L203.967 107.107C203.967 107.107 204.887 105.092 206.092 102.681C207.141 100.611 211.538 90.1141 211.557 90.0681C213.737 84.8701 216.322 77.9333 213.719 72.4685C213.127 71.1228 212.138 69.9898 210.885 69.2209C211.137 68.3808 211.218 67.4986 211.124 66.6265C210.979 65.3884 210.559 64.1985 209.893 63.1445C209.228 62.0905 208.334 61.1991 207.279 60.5361C205.218 59.1436 202.895 58.1857 200.452 57.7209C197.212 56.9755 193.896 56.6082 190.571 56.6261C187.314 56.7255 184.07 57.0979 180.875 57.7393C179.092 58.0686 177.286 58.2562 175.474 58.3005C174.694 58.3517 173.91 58.3146 173.137 58.1901C172.177 57.9032 171.234 57.5623 170.313 57.1689C170.233 57.1353 170.147 57.1179 170.06 57.1179C169.973 57.1179 169.887 57.1353 169.807 57.1689C169.734 57.2174 169.672 57.2812 169.626 57.3559C169.58 57.4305 169.551 57.5143 169.54 57.6013C169.301 58.7499 169.311 59.9364 169.57 61.0808C169.828 62.2251 170.33 63.3006 171.04 64.2345C170.626 64.178 170.223 64.0602 169.844 63.8849C169.413 63.6857 168.998 63.4551 168.602 63.1949C167.927 62.7422 167.335 62.1757 166.854 61.5205C166.787 61.4178 166.686 61.3427 166.569 61.3089C166.385 61.3089 166.237 61.4377 166.127 61.5849C165.63 62.3234 165.292 63.1567 165.134 64.0323C164.976 64.908 165.001 65.807 165.207 66.6725C165.613 68.4098 166.434 70.0229 167.599 71.3737C167.03 72.2923 166.702 73.3392 166.644 74.418C166.586 75.4967 166.801 76.5728 167.268 77.5469C167.677 78.4109 168.227 79.2007 168.896 79.8837C169.724 80.7301 170.736 81.4201 171.573 82.2113C172.533 82.9335 173.407 83.7639 174.177 84.6861Z" fill="#37474F"/>
<path d="M196.229 72.0085C196.202 73.3824 196.379 74.7527 196.753 76.0749C197.19 77.2363 197.893 78.2793 198.805 79.1201C199.837 79.9957 200.791 80.9592 201.657 81.9997C202.591 83.6193 203.139 85.4328 203.258 87.2989C203.263 87.8486 203.391 88.39 203.633 88.8836C203.875 89.3771 204.225 89.8101 204.656 90.1509C206.625 91.3745 207.803 89.0101 208.851 87.8509C210.204 86.5997 214.224 85.0909 216.083 89.3413C218.005 93.7573 214.454 99.6085 211.225 100.51C205.659 102.065 204.445 98.2745 204.445 98.2745L203.377 118.147C200.24 124.099 192.862 125.994 188.013 125.047C183.827 124.228 181.527 121.293 185.465 117.043L185.677 110.989C185.677 110.989 180.653 111.587 178.234 111.127C174.195 110.373 172.199 106.941 171.104 102.516C169.365 95.4041 168.565 87.9245 170.727 71.9073C171.711 71.3645 175.695 74.4649 181.767 74.8789C186.757 75.2307 191.751 74.2396 196.229 72.0085Z" fill="#9E6767"/>
<path d="M185.639 110.97C185.639 110.97 194.747 109.443 197.967 107.861C199.857 106.951 201.428 105.492 202.475 103.675C201.938 105.51 201.037 107.218 199.826 108.698C197.415 111.578 185.557 113.381 185.557 113.381L185.639 110.97Z" fill="#874C4C"/>
<path d="M190.378 79.12L194.619 80.4172C194.781 79.8379 194.713 79.2182 194.428 78.6882C194.143 78.1582 193.665 77.759 193.092 77.5744C192.812 77.4925 192.519 77.4677 192.229 77.5015C191.94 77.5353 191.66 77.6271 191.407 77.7713C191.154 77.9155 190.932 78.1093 190.755 78.341C190.578 78.5727 190.45 78.8377 190.378 79.12Z" fill="#263238"/>
<path d="M188.906 99.2129L182.659 101.329C182.781 101.746 182.985 102.135 183.26 102.472C183.535 102.809 183.874 103.088 184.259 103.291C184.643 103.495 185.064 103.619 185.498 103.656C185.931 103.694 186.367 103.644 186.781 103.509C187.621 103.206 188.312 102.59 188.708 101.789C189.104 100.988 189.175 100.065 188.906 99.2129Z" fill="#874C4C"/>
<path d="M188.399 100.74C187.584 100.741 186.792 101.012 186.147 101.512C185.503 102.011 185.043 102.711 184.839 103.5C185.469 103.707 186.15 103.707 186.78 103.5C187.362 103.294 187.877 102.934 188.269 102.457C188.661 101.981 188.916 101.406 189.006 100.795C188.806 100.759 188.603 100.74 188.399 100.74Z" fill="#F28F8F"/>
<path d="M171.444 79.7917L175.759 79.2305C175.726 78.9512 175.638 78.6812 175.499 78.4366C175.36 78.1919 175.174 77.9775 174.951 77.806C174.728 77.6345 174.473 77.5094 174.201 77.4381C173.929 77.3667 173.645 77.3506 173.367 77.3905C172.798 77.4643 172.28 77.7557 171.921 78.2034C171.563 78.6512 171.391 79.2205 171.444 79.7917Z" fill="#263238"/>
<path d="M197.968 81.6318L212.2 86.4802C211.403 86.4894 210.618 86.6817 209.907 87.0422C209.195 87.4027 208.576 87.9218 208.097 88.5594L198.023 84.7322L197.968 81.6318Z" fill="#263238"/>
<path d="M173.57 87.1888C173.554 87.4177 173.583 87.6476 173.657 87.8649C173.731 88.0822 173.848 88.2825 174.001 88.4539C174.153 88.6254 174.339 88.7646 174.546 88.8633C174.753 88.962 174.978 89.0183 175.207 89.0288C175.436 89.0312 175.662 88.9886 175.874 88.9035C176.086 88.8183 176.279 88.6923 176.442 88.5325C176.605 88.3728 176.736 88.1824 176.825 87.9724C176.915 87.7623 176.962 87.5367 176.965 87.3084C176.981 87.0794 176.951 86.8495 176.877 86.6322C176.803 86.4149 176.686 86.2147 176.534 86.0432C176.381 85.8717 176.196 85.7325 175.988 85.6338C175.781 85.5351 175.556 85.4788 175.327 85.4684C175.099 85.4659 174.872 85.5085 174.66 85.5937C174.448 85.6788 174.255 85.8048 174.092 85.9646C173.929 86.1244 173.799 86.3147 173.709 86.5247C173.619 86.7348 173.572 86.9604 173.57 87.1888Z" fill="#263238"/>
<path d="M189.826 87.1883C189.828 87.5222 189.928 87.8481 190.114 88.1254C190.3 88.4028 190.563 88.6194 190.871 88.7483C191.179 88.8772 191.518 88.9127 191.846 88.8503C192.174 88.7879 192.476 88.6305 192.716 88.3976C192.955 88.1647 193.12 87.8666 193.191 87.5404C193.262 87.2142 193.236 86.8743 193.115 86.563C192.994 86.2518 192.785 85.9829 192.512 85.7898C192.24 85.5967 191.917 85.488 191.583 85.4772C191.124 85.4722 190.681 85.6495 190.352 85.9701C190.022 86.2908 189.833 86.7288 189.826 87.1883Z" fill="#263238"/>
<path d="M166.089 84.6676C165.593 84.1033 165.273 83.4061 165.169 82.662C165.147 82.3152 165.238 81.9705 165.429 81.6801C165.62 81.3896 165.9 81.1692 166.227 81.052L167.147 80.96C170.147 80.684 174.075 80.6564 176.449 81.4292C179.439 82.4044 180.386 83.49 182.143 83.49C183.901 83.49 184.995 82.5056 188.142 81.65C190.653 80.9692 194.849 81.1348 198.069 81.5304L199.071 81.6592C199.421 81.7793 199.722 82.0107 199.928 82.318C200.134 82.6254 200.234 82.9918 200.212 83.3612C200.104 84.0822 199.783 84.7546 199.292 85.2932C199.14 85.5322 199.034 85.7974 198.979 86.0752C198.667 87.4276 198.501 90.022 197.866 91.448C197.569 92.1547 197.149 92.8028 196.624 93.3616C196.43 93.5678 196.218 93.7557 195.989 93.9228C195.873 94.014 195.75 94.097 195.621 94.1712C195.273 94.3842 194.903 94.5599 194.517 94.6956L194.324 94.7508C194.228 94.7839 194.129 94.8115 194.03 94.8336L193.726 94.9072C193.402 94.9789 193.073 95.025 192.742 95.0452C192.601 95.0547 192.459 95.0547 192.319 95.0452H191.794C187.682 94.99 186.007 92.9752 184.922 90.9144C183.836 88.8536 184.002 85.9372 182.162 85.9372H181.978H181.812C180.432 86.25 180.653 88.8996 179.807 90.7948C179.491 91.5458 179.052 92.2391 178.509 92.8464C178.412 92.9605 178.308 93.068 178.197 93.1684C178.148 93.2245 178.092 93.274 178.031 93.3156L177.856 93.4536L177.7 93.5824L177.525 93.702L177.387 93.7848L177.295 93.8492C176.788 94.1368 176.243 94.3505 175.676 94.484H175.529C174.875 94.6191 174.208 94.6747 173.541 94.6496C172.29 94.7018 171.053 94.3583 170.008 93.668C168.963 92.9777 168.161 91.9756 167.718 90.804C167.065 89.3504 166.779 86.756 166.448 85.3852C166.383 85.1226 166.26 84.8775 166.089 84.6676Z" fill="#263238"/>
<path d="M182.659 85.9835L182.337 97.8147L175.74 95.9011L181.895 85.8823C182.154 85.8575 182.415 85.8921 182.659 85.9835Z" fill="#874C4C"/>
<path d="M274.898 87.4829C293.724 87.4829 308.985 74.1168 308.985 57.6289C308.985 41.141 293.724 27.7749 274.898 27.7749C256.073 27.7749 240.812 41.141 240.812 57.6289C240.812 74.1168 256.073 87.4829 274.898 87.4829Z" fill="#BA68C8"/>
<path d="M247.694 74.8975C247.5 78.8995 244.115 86.0571 237.997 88.6975C237.915 88.7322 237.846 88.7918 237.8 88.8678C237.754 88.9438 237.733 89.0323 237.741 89.1209C237.748 89.2094 237.783 89.2935 237.84 89.3611C237.898 89.4288 237.975 89.4766 238.061 89.4979C241.559 90.2729 245.206 90.0103 248.556 88.7421C251.907 87.4739 254.814 85.2554 256.921 82.3587L247.694 74.8975Z" fill="#BA68C8"/>
<path d="M251.788 55.2644C251.865 53.956 252.177 52.6721 252.708 51.474C253.209 50.3018 253.956 49.2508 254.898 48.392C255.893 47.4814 257.055 46.7722 258.32 46.3036C261.354 45.2731 264.643 45.2731 267.677 46.3036C268.954 46.77 270.128 47.4792 271.136 48.392C272.074 49.2684 272.814 50.3348 273.307 51.52C273.838 52.7181 274.15 54.002 274.227 55.3104C274.273 56.3408 274.291 57.4172 274.291 58.5396C274.291 59.662 274.291 60.72 274.227 61.6952C274.15 63.0036 273.838 64.2875 273.307 65.4856C272.801 66.6601 272.055 67.716 271.117 68.586C270.116 69.5076 268.94 70.2179 267.658 70.6744C264.62 71.6801 261.339 71.6801 258.302 70.6744C257.025 70.2187 255.854 69.5082 254.861 68.586C253.92 67.7187 253.174 66.6621 252.671 65.4856C252.14 64.2875 251.828 63.0036 251.751 61.6952C251.705 60.72 251.678 59.662 251.678 58.5396C251.678 57.4172 251.742 56.2948 251.788 55.2644ZM267.52 61.4744C267.52 61.042 267.566 60.5544 267.594 60.0392C267.621 59.524 267.594 58.972 267.594 58.42C267.594 57.868 267.594 57.3344 267.594 56.8192C267.594 56.304 267.539 55.8992 267.52 55.4392C267.481 54.8741 267.353 54.3185 267.143 53.7924C266.945 53.3008 266.651 52.8536 266.278 52.4768C265.885 52.0914 265.415 51.7935 264.898 51.6028C263.643 51.1738 262.28 51.1738 261.025 51.6028C260.507 51.7955 260.034 52.0931 259.636 52.4768C259.266 52.854 258.975 53.3013 258.78 53.7924C258.57 54.3185 258.443 54.8741 258.403 55.4392C258.346 55.8971 258.316 56.3579 258.311 56.8192C258.311 57.3344 258.311 57.868 258.311 58.42C258.311 58.972 258.311 59.5056 258.311 60.0392C258.316 60.5189 258.346 60.998 258.403 61.4744C258.459 62.5803 258.894 63.6331 259.636 64.4552C260.077 64.8722 260.6 65.1924 261.172 65.3952C261.744 65.598 262.352 65.679 262.957 65.6328C263.559 65.681 264.165 65.6009 264.735 65.398C265.304 65.195 265.824 64.8737 266.26 64.4552C266.995 63.6264 267.438 62.5792 267.52 61.4744Z" fill="#FAFAFA"/>
<path d="M299.72 69.8375C299.796 69.9547 299.832 70.0937 299.821 70.2331C299.822 70.336 299.803 70.438 299.763 70.5329C299.724 70.6278 299.665 70.7137 299.591 70.7851C299.52 70.8603 299.434 70.9203 299.34 70.9614C299.245 71.0025 299.142 71.0239 299.039 71.0243H293.28C292.988 71.035 292.7 70.9581 292.452 70.8035C292.213 70.629 291.996 70.425 291.808 70.1963L285 61.6403V70.0399C284.996 70.288 284.899 70.5256 284.729 70.7061C284.559 70.8866 284.327 70.9968 284.08 71.0151H279.369C279.242 71.016 279.115 70.9903 278.998 70.9396C278.881 70.8889 278.775 70.8144 278.689 70.7207C278.597 70.6331 278.524 70.5274 278.475 70.4102C278.426 70.293 278.401 70.167 278.403 70.0399V46.8651C278.401 46.7381 278.426 46.6121 278.475 46.4949C278.524 46.3777 278.597 46.272 278.689 46.1843C278.775 46.0907 278.881 46.0162 278.998 45.9655C279.115 45.9148 279.242 45.8891 279.369 45.8899H284.08C284.327 45.9083 284.559 46.0185 284.729 46.199C284.899 46.3795 284.996 46.6171 285 46.8651V54.4367L291.32 46.6811C291.465 46.5079 291.619 46.342 291.78 46.1843C292.054 45.962 292.404 45.8562 292.755 45.8899H298.349C298.454 45.8891 298.558 45.9099 298.655 45.9511C298.751 45.9922 298.838 46.0528 298.91 46.1291C298.984 46.2006 299.043 46.2865 299.082 46.3814C299.122 46.4763 299.142 46.5783 299.14 46.6811C299.15 46.8218 299.111 46.9614 299.03 47.0767L290.198 57.9603L299.72 69.8375Z" fill="#FAFAFA"/>
<path d="M362.851 85.8544L357.69 87.4092L353.964 74.9616L359.107 73.416L362.851 85.8544Z" fill="#E0E0E0"/>
<path d="M378.961 74.8052C379.003 75.3101 378.885 75.8156 378.622 76.2488C378.359 76.682 377.965 77.0206 377.498 77.2156C377.833 77.5961 378.081 78.045 378.225 78.5312C378.519 79.4512 377.737 80.7852 376.182 81.2912L364.379 84.8424L360.91 73.278C360.91 73.278 362.907 68.172 363.008 67.3992C363.109 66.6264 361.931 63.7928 361.766 63.2592C361.6 62.7256 363.514 62.0264 365.023 62.6336C365.373 62.7896 365.687 63.0186 365.943 63.3052C366.485 63.8831 366.941 64.5371 367.295 65.2464C367.796 66.2574 368.042 67.3754 368.013 68.5032L375.161 66.3228C375.654 66.1443 376.195 66.1443 376.688 66.3228C377.011 66.4504 377.296 66.6593 377.514 66.9293C377.733 67.1993 377.878 67.5212 377.935 67.8637C377.992 68.2062 377.96 68.5577 377.842 68.8842C377.723 69.2106 377.522 69.5009 377.259 69.7268C377.684 69.696 378.108 69.8089 378.461 70.0474C378.815 70.286 379.078 70.6363 379.209 71.0424C379.318 71.5145 379.26 72.0098 379.046 72.4441C378.831 72.8785 378.473 73.2251 378.031 73.4252C378.508 73.7472 378.842 74.242 378.961 74.8052Z" fill="#E0E0E0"/>
<path d="M436.8 214.921L430.186 213.33L434.04 197.377L440.655 198.969L436.8 214.921Z" fill="#E0E0E0"/>
<path d="M461.429 213.127C461.154 213.705 460.704 214.181 460.142 214.487C459.58 214.793 458.935 214.913 458.301 214.829C458.42 215.457 458.404 216.103 458.255 216.725C457.961 217.967 456.277 218.877 454.29 218.39L439.146 214.71L442.716 199.889C442.716 199.889 448.153 195.592 448.751 194.81C449.349 194.028 449.865 190.21 450.03 189.502C450.196 188.793 452.726 189.272 453.986 190.9C454.292 191.296 454.506 191.755 454.612 192.243C454.835 193.217 454.916 194.218 454.851 195.215C454.751 196.639 454.309 198.018 453.563 199.235L462.708 201.443C463.357 201.581 463.936 201.942 464.345 202.465C464.572 202.762 464.733 203.105 464.817 203.47C464.901 203.835 464.906 204.213 464.833 204.581C464.71 205.064 464.455 205.504 464.096 205.85C463.736 206.196 463.288 206.435 462.8 206.54C463.284 206.777 463.674 207.17 463.907 207.656C464.141 208.141 464.205 208.691 464.088 209.217C463.901 209.799 463.521 210.299 463.01 210.634C462.499 210.969 461.889 211.118 461.282 211.057C461.598 211.702 461.651 212.444 461.429 213.127Z" fill="#E0E0E0"/>
<path d="M102.675 205.381L109.897 207.552L115.122 190.127L107.91 187.956L102.675 205.381Z" fill="#E0E0E0"/>
<path d="M80.107 189.897C80.0468 190.605 80.2131 191.313 80.5819 191.92C80.9506 192.527 81.5028 193.001 82.1586 193.274C81.695 193.809 81.35 194.436 81.1466 195.114C80.7326 196.466 81.8366 198.279 83.9986 198.923L100.559 203.9L105.398 187.68C105.398 187.68 102.592 180.523 102.454 179.4C102.316 178.278 103.972 174.359 104.193 173.604C104.377 172.997 101.745 171.884 99.5926 172.739C99.0808 172.94 98.6214 173.255 98.2494 173.659C97.485 174.481 96.8463 175.411 96.3542 176.419C95.6493 177.848 95.302 179.427 95.3422 181.019L85.4062 178.02C84.7056 177.79 83.9458 177.816 83.2626 178.094C82.8098 178.272 82.4109 178.564 82.1049 178.943C81.7988 179.321 81.5961 179.772 81.5164 180.252C81.4367 180.732 81.4828 181.225 81.6502 181.682C81.8175 182.139 82.1005 182.544 82.4714 182.859C81.8709 182.808 81.2708 182.962 80.7693 183.296C80.2678 183.63 79.8948 184.125 79.7114 184.699C79.5585 185.362 79.6388 186.057 79.9388 186.667C80.2389 187.277 80.7402 187.765 81.3582 188.048C80.7279 188.49 80.2824 189.148 80.107 189.897Z" fill="#E0E0E0"/>
<defs>
<filter id="filter0_d_589_1446" x="0.995117" y="177.908" width="522.021" height="341.892" filterUnits="userSpaceOnUse" color-interpolation-filters="sRGB">
<feFlood flood-opacity="0" result="BackgroundImageFix"/>
<feColorMatrix in="SourceAlpha" type="matrix" values="0 0 0 0 0 0 0 0 0 0 0 0 0 0 0 0 0 0 127 0" result="hardAlpha"/>
<feOffset dy="24"/>
<feGaussianBlur stdDeviation="24"/>
<feComposite in2="hardAlpha" operator="out"/>
<feColorMatrix type="matrix" values="0 0 0 0 0 0 0 0 0 0 0 0 0 0 0 0 0 0 0.08 0"/>
<feBlend mode="normal" in2="BackgroundImageFix" result="effect1_dropShadow_589_1446"/>
<feBlend mode="normal" in="SourceGraphic" in2="effect1_dropShadow_589_1446" result="shape"/>
</filter>
</defs>
</svg>
