<svg width="1440" height="589" viewBox="0 0 1440 589" fill="none" xmlns="http://www.w3.org/2000/svg">
<path d="M1158.41 582C1261.35 582 1344.8 498.725 1344.8 396C1344.8 293.275 1261.35 210 1158.41 210C1055.47 210 972.025 293.275 972.025 396C972.025 498.725 1055.47 582 1158.41 582Z" fill="#AF78CE" fill-opacity="0.1"/>
<path d="M1287.68 166C1333.06 166 1369.85 129.287 1369.85 84C1369.85 38.7127 1333.06 2 1287.68 2C1242.3 2 1205.51 38.7127 1205.51 84C1205.51 129.287 1242.3 166 1287.68 166Z" fill="#AF78CE" fill-opacity="0.25"/>
<path d="M211.441 334C269.552 334 316.66 286.99 316.66 229C316.66 171.01 269.552 124 211.441 124C153.33 124 106.222 171.01 106.222 229C106.222 286.99 153.33 334 211.441 334Z" fill="#AF78CE" fill-opacity="0.35"/>
</svg>
