<svg width="564" height="564" viewBox="0 0 564 564" fill="none" xmlns="http://www.w3.org/2000/svg">
<path d="M458.724 153.78C458.724 153.78 431.652 92.8682 371.868 83.8442C312.084 74.8202 270.348 118.812 226.356 141.372C203.311 153.194 176.994 148.603 152.539 154.322C74.3351 172.584 44.8831 287.166 77.4597 352.308C105.66 408.708 155.292 438.036 230.868 444.804C306.444 451.572 359.46 459.468 427.14 404.196C494.82 348.924 490.308 233.868 458.724 153.78Z" fill="#F6B9D5"/>
<path opacity="0.7" d="M458.724 153.78C458.724 153.78 431.652 92.8682 371.868 83.8442C312.084 74.8202 270.348 118.812 226.356 141.372C203.311 153.194 176.994 148.603 152.539 154.322C74.3351 172.584 44.8831 287.166 77.4597 352.308C105.66 408.708 155.292 438.036 230.868 444.804C306.444 451.572 359.46 459.468 427.14 404.196C494.82 348.924 490.308 233.868 458.724 153.78Z" fill="white"/>
<path d="M490.68 237.072H450.828C450.679 237.072 450.535 237.012 450.429 236.907C450.324 236.801 450.264 236.657 450.264 236.508V226.728C450.264 226.578 450.324 226.435 450.429 226.329C450.535 226.223 450.679 226.164 450.828 226.164C450.978 226.164 451.121 226.223 451.227 226.329C451.333 226.435 451.392 226.578 451.392 226.728V235.944H490.68C490.83 235.944 490.973 236.003 491.079 236.109C491.185 236.215 491.244 236.358 491.244 236.508C491.244 236.657 491.185 236.801 491.079 236.907C490.973 237.012 490.83 237.072 490.68 237.072Z" fill="#263238"/>
<path d="M470.376 250.608H445.56C445.411 250.608 445.267 250.548 445.161 250.443C445.056 250.337 444.996 250.193 444.996 250.044C444.996 249.894 445.056 249.751 445.161 249.645C445.267 249.539 445.411 249.48 445.56 249.48H469.812V238.764C469.812 238.614 469.872 238.471 469.977 238.365C470.083 238.259 470.227 238.2 470.376 238.2C470.526 238.2 470.669 238.259 470.775 238.365C470.881 238.471 470.94 238.614 470.94 238.764V250.044C470.94 250.193 470.881 250.337 470.775 250.443C470.669 250.548 470.526 250.608 470.376 250.608Z" fill="#263238"/>
<path d="M483.912 263.388H451.572C451.423 263.388 451.279 263.329 451.174 263.223C451.068 263.117 451.008 262.974 451.008 262.824V253.8C451.008 253.65 451.068 253.507 451.174 253.401C451.279 253.295 451.423 253.236 451.572 253.236C451.722 253.236 451.865 253.295 451.971 253.401C452.077 253.507 452.136 253.65 452.136 253.8V262.26H483.912C484.062 262.26 484.205 262.319 484.311 262.425C484.417 262.531 484.476 262.674 484.476 262.824C484.476 262.974 484.417 263.117 484.311 263.223C484.205 263.329 484.062 263.388 483.912 263.388Z" fill="#263238"/>
<path d="M498.948 251.352H480.9C480.751 251.352 480.607 251.293 480.502 251.187C480.396 251.081 480.336 250.938 480.336 250.788C480.339 250.64 480.4 250.498 480.505 250.393C480.61 250.287 480.752 250.227 480.9 250.224H498.948C499.098 250.224 499.241 250.284 499.347 250.389C499.453 250.495 499.512 250.639 499.512 250.788C499.512 250.938 499.453 251.081 499.347 251.187C499.241 251.293 499.098 251.352 498.948 251.352Z" fill="#263238"/>
<path d="M470.377 280.68C470.227 280.68 470.083 280.621 469.978 280.515C469.872 280.409 469.812 280.266 469.812 280.116V267.336C469.812 267.186 469.872 267.043 469.978 266.937C470.083 266.831 470.227 266.772 470.377 266.772C470.526 266.772 470.67 266.831 470.775 266.937C470.881 267.043 470.941 267.186 470.941 267.336V280.116C470.941 280.266 470.881 280.409 470.775 280.515C470.67 280.621 470.526 280.68 470.377 280.68Z" fill="#263238"/>
<path d="M495.192 235.56C495.043 235.56 494.899 235.501 494.794 235.395C494.688 235.289 494.628 235.146 494.628 234.996V225.228C494.628 225.078 494.688 224.935 494.794 224.829C494.899 224.723 495.043 224.664 495.192 224.664C495.342 224.664 495.485 224.723 495.591 224.829C495.697 224.935 495.756 225.078 495.756 225.228V234.996C495.756 235.146 495.697 235.289 495.591 235.395C495.485 235.501 495.342 235.56 495.192 235.56Z" fill="#263238"/>
<path d="M471.877 222.78C471.727 222.78 471.583 222.721 471.478 222.615C471.372 222.509 471.312 222.366 471.312 222.216V211.692C471.312 211.542 471.372 211.399 471.478 211.293C471.583 211.187 471.727 211.128 471.877 211.128C472.026 211.128 472.17 211.187 472.275 211.293C472.381 211.399 472.441 211.542 472.441 211.692V222.216C472.441 222.366 472.381 222.509 472.275 222.615C472.17 222.721 472.026 222.78 471.877 222.78Z" fill="#263238"/>
<path d="M508.728 224.28H485.413C485.263 224.28 485.12 224.221 485.014 224.115C484.908 224.009 484.849 223.866 484.849 223.716C484.852 223.568 484.912 223.426 485.017 223.321C485.122 223.215 485.264 223.155 485.413 223.152H508.728C508.878 223.152 509.021 223.212 509.127 223.317C509.233 223.423 509.292 223.567 509.292 223.716C509.292 223.866 509.233 224.009 509.127 224.115C509.021 224.221 508.878 224.28 508.728 224.28Z" fill="#263238"/>
<path d="M454.584 130.284H422.245C422.095 130.284 421.952 130.225 421.846 130.119C421.74 130.013 421.681 129.87 421.681 129.72C421.681 129.57 421.74 129.427 421.846 129.321C421.952 129.215 422.095 129.156 422.245 129.156H454.584C454.734 129.156 454.877 129.215 454.983 129.321C455.089 129.427 455.148 129.57 455.148 129.72C455.148 129.87 455.089 130.013 454.983 130.119C454.877 130.225 454.734 130.284 454.584 130.284Z" fill="#263238"/>
<path d="M434.28 143.82H420.744C420.595 143.82 420.451 143.761 420.345 143.655C420.24 143.549 420.18 143.406 420.18 143.256C420.18 143.106 420.24 142.963 420.345 142.857C420.451 142.751 420.595 142.692 420.744 142.692H433.716V131.976C433.716 131.826 433.776 131.683 433.881 131.577C433.987 131.471 434.131 131.412 434.28 131.412C434.43 131.412 434.573 131.471 434.679 131.577C434.785 131.683 434.844 131.826 434.844 131.976V143.256C434.844 143.406 434.785 143.549 434.679 143.655C434.573 143.761 434.43 143.82 434.28 143.82Z" fill="#263238"/>
<path d="M447.816 156.6H420.744C420.595 156.6 420.451 156.541 420.345 156.435C420.24 156.329 420.18 156.186 420.18 156.036C420.18 155.887 420.24 155.743 420.345 155.637C420.451 155.532 420.595 155.472 420.744 155.472H447.816C447.966 155.472 448.109 155.532 448.215 155.637C448.321 155.743 448.38 155.887 448.38 156.036C448.38 156.186 448.321 156.329 448.215 156.435C448.109 156.541 447.966 156.6 447.816 156.6Z" fill="#263238"/>
<path d="M462.852 144.576H444.804C444.656 144.573 444.514 144.513 444.409 144.407C444.303 144.302 444.243 144.16 444.24 144.012C444.24 143.862 444.3 143.719 444.405 143.613C444.511 143.507 444.655 143.448 444.804 143.448H462.852C463.002 143.448 463.145 143.507 463.251 143.613C463.357 143.719 463.416 143.862 463.416 144.012C463.416 144.161 463.357 144.305 463.251 144.411C463.145 144.516 463.002 144.576 462.852 144.576Z" fill="#263238"/>
<path d="M434.28 173.904C434.131 173.904 433.987 173.844 433.882 173.739C433.776 173.633 433.716 173.489 433.716 173.34V160.548C433.716 160.399 433.776 160.255 433.882 160.149C433.987 160.044 434.131 159.984 434.28 159.984C434.43 159.984 434.573 160.044 434.679 160.149C434.785 160.255 434.844 160.399 434.844 160.548V173.34C434.844 173.489 434.785 173.633 434.679 173.739C434.573 173.844 434.43 173.904 434.28 173.904Z" fill="#263238"/>
<path d="M459.096 128.784C458.947 128.784 458.803 128.724 458.697 128.619C458.592 128.513 458.532 128.369 458.532 128.22V118.44C458.532 118.29 458.592 118.147 458.697 118.041C458.803 117.935 458.947 117.876 459.096 117.876C459.246 117.876 459.389 117.935 459.495 118.041C459.601 118.147 459.66 118.29 459.66 118.44V128.22C459.66 128.369 459.601 128.513 459.495 128.619C459.389 128.724 459.246 128.784 459.096 128.784Z" fill="#263238"/>
<path d="M435.78 115.992C435.631 115.992 435.487 115.933 435.382 115.827C435.276 115.721 435.216 115.578 435.216 115.428V104.904C435.216 104.754 435.276 104.611 435.382 104.505C435.487 104.399 435.631 104.34 435.78 104.34C435.93 104.34 436.073 104.399 436.179 104.505C436.285 104.611 436.344 104.754 436.344 104.904V115.428C436.344 115.578 436.285 115.721 436.179 115.827C436.073 115.933 435.93 115.992 435.78 115.992Z" fill="#263238"/>
<path d="M472.632 117.504H449.316C449.168 117.501 449.026 117.441 448.921 117.335C448.816 117.23 448.755 117.088 448.752 116.94C448.752 116.79 448.812 116.647 448.918 116.541C449.023 116.435 449.167 116.376 449.316 116.376H472.632C472.782 116.376 472.925 116.435 473.031 116.541C473.137 116.647 473.196 116.79 473.196 116.94C473.196 117.089 473.137 117.233 473.031 117.339C472.925 117.444 472.782 117.504 472.632 117.504Z" fill="#263238"/>
<path d="M155.292 335.58H115.428C115.279 335.58 115.135 335.521 115.029 335.415C114.924 335.309 114.864 335.166 114.864 335.016V325.236C114.867 325.088 114.927 324.946 115.033 324.841C115.138 324.735 115.28 324.675 115.428 324.672C115.578 324.672 115.721 324.732 115.827 324.837C115.933 324.943 115.992 325.087 115.992 325.236V334.452H155.292C155.441 334.452 155.585 334.511 155.691 334.617C155.796 334.723 155.856 334.866 155.856 335.016C155.856 335.166 155.796 335.309 155.691 335.415C155.585 335.521 155.441 335.58 155.292 335.58Z" fill="#263238"/>
<path d="M134.988 349.116H110.172C110.022 349.116 109.879 349.057 109.773 348.951C109.667 348.845 109.608 348.702 109.608 348.552C109.608 348.402 109.667 348.259 109.773 348.153C109.879 348.047 110.022 347.988 110.172 347.988H134.424V337.272C134.424 337.122 134.483 336.979 134.589 336.873C134.695 336.767 134.838 336.708 134.988 336.708C135.137 336.708 135.281 336.767 135.387 336.873C135.492 336.979 135.552 337.122 135.552 337.272V348.552C135.552 348.702 135.492 348.845 135.387 348.951C135.281 349.057 135.137 349.116 134.988 349.116Z" fill="#263238"/>
<path d="M148.524 361.896H116.184C116.035 361.896 115.891 361.837 115.785 361.731C115.68 361.625 115.62 361.482 115.62 361.332V352.308C115.62 352.159 115.68 352.015 115.785 351.909C115.891 351.804 116.035 351.744 116.184 351.744C116.334 351.744 116.477 351.804 116.583 351.909C116.689 352.015 116.748 352.159 116.748 352.308V360.768H148.524C148.673 360.771 148.814 360.832 148.919 360.937C149.025 361.042 149.085 361.184 149.088 361.332C149.088 361.406 149.073 361.48 149.045 361.548C149.017 361.617 148.975 361.679 148.923 361.731C148.87 361.783 148.808 361.825 148.74 361.853C148.671 361.882 148.598 361.896 148.524 361.896Z" fill="#263238"/>
<path d="M163.56 349.872H145.512C145.363 349.872 145.219 349.812 145.113 349.707C145.008 349.601 144.948 349.457 144.948 349.308C144.948 349.158 145.008 349.015 145.113 348.909C145.219 348.803 145.363 348.744 145.512 348.744H163.56C163.71 348.744 163.853 348.803 163.959 348.909C164.065 349.015 164.124 349.158 164.124 349.308C164.124 349.457 164.065 349.601 163.959 349.707C163.853 349.812 163.71 349.872 163.56 349.872Z" fill="#263238"/>
<path d="M134.988 379.2C134.838 379.2 134.695 379.14 134.589 379.035C134.483 378.929 134.424 378.785 134.424 378.636V365.844C134.424 365.695 134.483 365.551 134.589 365.445C134.695 365.34 134.838 365.28 134.988 365.28C135.137 365.283 135.278 365.343 135.383 365.449C135.489 365.554 135.549 365.696 135.552 365.844V378.636C135.549 378.784 135.489 378.926 135.383 379.031C135.278 379.137 135.137 379.197 134.988 379.2Z" fill="#263238"/>
<path d="M159.804 334.08C159.655 334.08 159.511 334.02 159.405 333.915C159.3 333.809 159.24 333.665 159.24 333.516V323.736C159.24 323.586 159.3 323.443 159.405 323.337C159.511 323.231 159.655 323.172 159.804 323.172C159.954 323.172 160.097 323.231 160.203 323.337C160.309 323.443 160.368 323.586 160.368 323.736V333.516C160.365 333.664 160.305 333.806 160.2 333.911C160.095 334.017 159.953 334.077 159.804 334.08Z" fill="#263238"/>
<path d="M136.488 321.288C136.339 321.288 136.195 321.229 136.09 321.123C135.984 321.017 135.924 320.874 135.924 320.724V310.2C135.924 310.05 135.984 309.907 136.09 309.801C136.195 309.695 136.339 309.636 136.488 309.636C136.638 309.636 136.781 309.695 136.887 309.801C136.993 309.907 137.052 310.05 137.052 310.2V320.724C137.052 320.874 136.993 321.017 136.887 321.123C136.781 321.229 136.638 321.288 136.488 321.288Z" fill="#263238"/>
<path d="M165.816 322.8H150.024C149.875 322.8 149.731 322.74 149.626 322.635C149.52 322.529 149.46 322.385 149.46 322.236C149.46 322.086 149.52 321.943 149.626 321.837C149.731 321.731 149.875 321.672 150.024 321.672H165.816C165.966 321.672 166.109 321.731 166.215 321.837C166.321 321.943 166.38 322.086 166.38 322.236C166.38 322.385 166.321 322.529 166.215 322.635C166.109 322.74 165.966 322.8 165.816 322.8Z" fill="#263238"/>
<path d="M114.684 237.072H74.8203C74.6717 237.069 74.5299 237.009 74.4247 236.903C74.3196 236.798 74.2592 236.656 74.2563 236.508V226.728C74.2563 226.578 74.3158 226.435 74.4215 226.329C74.5273 226.223 74.6708 226.164 74.8203 226.164C74.9699 226.164 75.1134 226.223 75.2192 226.329C75.3249 226.435 75.3843 226.578 75.3843 226.728V235.944H114.684C114.833 235.944 114.977 236.003 115.083 236.109C115.188 236.215 115.248 236.358 115.248 236.508C115.245 236.656 115.185 236.798 115.079 236.903C114.974 237.009 114.833 237.069 114.684 237.072Z" fill="#263238"/>
<path d="M94.38 250.608H69.564C69.4144 250.608 69.271 250.548 69.1652 250.443C69.0594 250.337 69 250.193 69 250.044C69 249.894 69.0594 249.751 69.1652 249.645C69.271 249.539 69.4144 249.48 69.564 249.48H93.816V238.764C93.816 238.614 93.8754 238.471 93.9812 238.365C94.087 238.259 94.2304 238.2 94.38 238.2C94.5296 238.2 94.673 238.259 94.7788 238.365C94.8846 238.471 94.944 238.614 94.944 238.764V250.044C94.9411 250.192 94.8808 250.334 94.7756 250.439C94.6705 250.545 94.5287 250.605 94.38 250.608Z" fill="#263238"/>
<path d="M107.916 263.388H75.5762C75.4266 263.388 75.2832 263.329 75.1774 263.223C75.0716 263.117 75.0122 262.974 75.0122 262.824V253.8C75.0122 253.65 75.0716 253.507 75.1774 253.401C75.2832 253.295 75.4266 253.236 75.5762 253.236C75.7258 253.236 75.8692 253.295 75.975 253.401C76.0808 253.507 76.1402 253.65 76.1402 253.8V262.26H107.916C108.066 262.26 108.209 262.319 108.315 262.425C108.421 262.531 108.48 262.674 108.48 262.824C108.48 262.974 108.421 263.117 108.315 263.223C108.209 263.329 108.066 263.388 107.916 263.388Z" fill="#263238"/>
<path d="M122.952 251.352H104.904C104.755 251.352 104.611 251.293 104.506 251.187C104.4 251.081 104.34 250.938 104.34 250.788C104.34 250.639 104.4 250.495 104.506 250.389C104.611 250.284 104.755 250.224 104.904 250.224H122.952C123.102 250.224 123.245 250.284 123.351 250.389C123.457 250.495 123.516 250.639 123.516 250.788C123.516 250.938 123.457 251.081 123.351 251.187C123.245 251.293 123.102 251.352 122.952 251.352Z" fill="#263238"/>
<path d="M94.3799 280.68C94.2303 280.68 94.0869 280.621 93.9811 280.515C93.8753 280.409 93.8159 280.266 93.8159 280.116V267.336C93.8159 267.186 93.8753 267.043 93.9811 266.937C94.0869 266.831 94.2303 266.772 94.3799 266.772C94.5295 266.772 94.673 266.831 94.7787 266.937C94.8845 267.043 94.9439 267.186 94.9439 267.336V280.116C94.9439 280.266 94.8845 280.409 94.7787 280.515C94.673 280.621 94.5295 280.68 94.3799 280.68Z" fill="#263238"/>
<path d="M119.196 235.56C119.046 235.56 118.903 235.501 118.797 235.395C118.691 235.289 118.632 235.146 118.632 234.996V225.228C118.632 225.078 118.691 224.935 118.797 224.829C118.903 224.723 119.046 224.664 119.196 224.664C119.345 224.664 119.489 224.723 119.595 224.829C119.7 224.935 119.76 225.078 119.76 225.228V234.996C119.76 235.146 119.7 235.289 119.595 235.395C119.489 235.501 119.345 235.56 119.196 235.56Z" fill="#263238"/>
<path d="M95.8804 222.78C95.7308 222.78 95.5874 222.721 95.4816 222.615C95.3758 222.509 95.3164 222.366 95.3164 222.216V211.692C95.3164 211.542 95.3758 211.399 95.4816 211.293C95.5874 211.187 95.7308 211.128 95.8804 211.128C96.03 211.128 96.1734 211.187 96.2792 211.293C96.385 211.399 96.4444 211.542 96.4444 211.692V222.216C96.4444 222.366 96.385 222.509 96.2792 222.615C96.1734 222.721 96.03 222.78 95.8804 222.78Z" fill="#263238"/>
<path d="M132.732 224.28H109.416C109.266 224.28 109.123 224.221 109.017 224.115C108.911 224.009 108.852 223.866 108.852 223.716C108.852 223.567 108.911 223.423 109.017 223.317C109.123 223.212 109.266 223.152 109.416 223.152H132.732C132.88 223.155 133.022 223.215 133.127 223.321C133.233 223.426 133.293 223.568 133.296 223.716C133.296 223.866 133.236 224.009 133.131 224.115C133.025 224.221 132.881 224.28 132.732 224.28Z" fill="#263238"/>
<path d="M164.316 166.38H124.453C124.303 166.38 124.16 166.321 124.054 166.215C123.948 166.109 123.889 165.966 123.889 165.816V156.036C123.892 155.888 123.952 155.746 124.057 155.641C124.162 155.535 124.304 155.475 124.453 155.472C124.602 155.472 124.746 155.532 124.851 155.637C124.957 155.743 125.017 155.887 125.017 156.036V165.252H164.316C164.466 165.252 164.609 165.311 164.715 165.417C164.821 165.523 164.88 165.666 164.88 165.816C164.88 165.966 164.821 166.109 164.715 166.215C164.609 166.321 164.466 166.38 164.316 166.38Z" fill="#263238"/>
<path d="M144.012 179.916H119.196C119.046 179.916 118.903 179.857 118.797 179.751C118.691 179.645 118.632 179.502 118.632 179.352C118.632 179.202 118.691 179.059 118.797 178.953C118.903 178.847 119.046 178.788 119.196 178.788H143.448V168.072C143.448 167.922 143.507 167.779 143.613 167.673C143.719 167.567 143.862 167.508 144.012 167.508C144.086 167.508 144.159 167.523 144.228 167.551C144.296 167.579 144.358 167.621 144.411 167.673C144.463 167.726 144.505 167.788 144.533 167.856C144.561 167.925 144.576 167.998 144.576 168.072V179.352C144.576 179.426 144.561 179.499 144.533 179.568C144.505 179.636 144.463 179.698 144.411 179.751C144.358 179.803 144.296 179.845 144.228 179.873C144.159 179.901 144.086 179.916 144.012 179.916Z" fill="#263238"/>
<path d="M157.548 192.696H125.208C125.058 192.696 124.915 192.637 124.809 192.531C124.703 192.425 124.644 192.282 124.644 192.132V183.108C124.644 182.959 124.703 182.815 124.809 182.709C124.915 182.604 125.058 182.544 125.208 182.544C125.358 182.544 125.501 182.604 125.607 182.709C125.713 182.815 125.772 182.959 125.772 183.108V191.568H157.548C157.696 191.571 157.838 191.631 157.943 191.737C158.049 191.842 158.109 191.984 158.112 192.132C158.112 192.206 158.097 192.28 158.069 192.348C158.041 192.417 157.999 192.479 157.947 192.531C157.894 192.583 157.832 192.625 157.764 192.653C157.695 192.682 157.622 192.696 157.548 192.696Z" fill="#263238"/>
<path d="M165.06 180.672H154.536C154.387 180.672 154.243 180.612 154.137 180.507C154.032 180.401 153.972 180.257 153.972 180.108C153.972 179.958 154.032 179.815 154.137 179.709C154.243 179.603 154.387 179.544 154.536 179.544H165.06C165.21 179.544 165.353 179.603 165.459 179.709C165.565 179.815 165.624 179.958 165.624 180.108C165.624 180.257 165.565 180.401 165.459 180.507C165.353 180.612 165.21 180.672 165.06 180.672Z" fill="#263238"/>
<path d="M144.012 210C143.863 210 143.719 209.94 143.613 209.835C143.508 209.729 143.448 209.585 143.448 209.436V196.644C143.448 196.495 143.508 196.351 143.613 196.245C143.719 196.14 143.863 196.08 144.012 196.08C144.161 196.083 144.303 196.143 144.408 196.249C144.513 196.354 144.573 196.496 144.576 196.644V209.436C144.573 209.584 144.513 209.726 144.408 209.831C144.303 209.937 144.161 209.997 144.012 210Z" fill="#263238"/>
<path d="M145.512 152.088C145.363 152.088 145.219 152.029 145.113 151.923C145.008 151.817 144.948 151.674 144.948 151.524V141C144.948 140.85 145.008 140.707 145.113 140.601C145.219 140.495 145.363 140.436 145.512 140.436C145.662 140.436 145.805 140.495 145.911 140.601C146.017 140.707 146.076 140.85 146.076 141V151.524C146.076 151.674 146.017 151.817 145.911 151.923C145.805 152.029 145.662 152.088 145.512 152.088Z" fill="#263238"/>
<path d="M163.56 153.6H159.048C158.899 153.6 158.755 153.54 158.65 153.435C158.544 153.329 158.484 153.185 158.484 153.036C158.484 152.886 158.544 152.743 158.65 152.637C158.755 152.531 158.899 152.472 159.048 152.472H163.56C163.71 152.472 163.853 152.531 163.959 152.637C164.065 152.743 164.124 152.886 164.124 153.036C164.124 153.185 164.065 153.329 163.959 153.435C163.853 153.54 163.71 153.6 163.56 153.6Z" fill="#263238"/>
<path d="M480.156 366.408H440.293C440.143 366.408 439.999 366.349 439.894 366.243C439.788 366.137 439.729 365.994 439.729 365.844V356.076C439.729 355.926 439.788 355.783 439.894 355.677C439.999 355.571 440.143 355.512 440.293 355.512C440.442 355.512 440.586 355.571 440.691 355.677C440.797 355.783 440.857 355.926 440.857 356.076V365.28H480.156C480.305 365.283 480.447 365.343 480.552 365.449C480.657 365.554 480.717 365.696 480.72 365.844C480.72 365.994 480.661 366.137 480.555 366.243C480.449 366.349 480.306 366.408 480.156 366.408Z" fill="#263238"/>
<path d="M459.852 379.944H435.036C434.887 379.944 434.743 379.885 434.637 379.779C434.532 379.673 434.472 379.53 434.472 379.38C434.472 379.231 434.532 379.087 434.637 378.981C434.743 378.876 434.887 378.816 435.036 378.816H459.288V368.1C459.288 367.951 459.348 367.807 459.453 367.701C459.559 367.596 459.703 367.536 459.852 367.536C460.001 367.539 460.143 367.6 460.248 367.705C460.353 367.81 460.413 367.952 460.416 368.1V379.38C460.416 379.53 460.357 379.673 460.251 379.779C460.145 379.885 460.002 379.944 459.852 379.944Z" fill="#263238"/>
<path d="M473.388 392.736H441.048C440.899 392.736 440.755 392.676 440.65 392.571C440.544 392.465 440.484 392.321 440.484 392.172V383.148C440.484 382.998 440.544 382.855 440.65 382.749C440.755 382.643 440.899 382.584 441.048 382.584C441.198 382.584 441.341 382.643 441.447 382.749C441.553 382.855 441.612 382.998 441.612 383.148V391.608H473.388C473.538 391.608 473.681 391.667 473.787 391.773C473.893 391.879 473.952 392.022 473.952 392.172C473.949 392.32 473.889 392.462 473.784 392.567C473.679 392.672 473.537 392.733 473.388 392.736Z" fill="#263238"/>
<path d="M488.424 380.7H470.377C470.227 380.7 470.083 380.641 469.978 380.535C469.872 380.429 469.812 380.286 469.812 380.136C469.812 379.986 469.872 379.843 469.978 379.737C470.083 379.631 470.227 379.572 470.377 379.572H488.424C488.574 379.572 488.718 379.631 488.823 379.737C488.929 379.843 488.989 379.986 488.989 380.136C488.989 380.286 488.929 380.429 488.823 380.535C488.718 380.641 488.574 380.7 488.424 380.7Z" fill="#263238"/>
<path d="M459.852 410.028C459.703 410.028 459.559 409.969 459.453 409.863C459.347 409.757 459.288 409.614 459.288 409.464V396.684C459.288 396.534 459.347 396.391 459.453 396.285C459.559 396.179 459.703 396.12 459.852 396.12C460.002 396.12 460.145 396.179 460.251 396.285C460.357 396.391 460.416 396.534 460.416 396.684V409.464C460.416 409.614 460.357 409.757 460.251 409.863C460.145 409.969 460.002 410.028 459.852 410.028Z" fill="#263238"/>
<path d="M484.668 364.908C484.518 364.908 484.375 364.849 484.269 364.743C484.163 364.637 484.104 364.494 484.104 364.344V354.564C484.104 354.415 484.163 354.271 484.269 354.165C484.375 354.06 484.518 354 484.668 354C484.817 354.003 484.958 354.063 485.064 354.169C485.169 354.274 485.229 354.416 485.232 354.564V364.344C485.232 364.494 485.173 364.637 485.067 364.743C484.961 364.849 484.818 364.908 484.668 364.908Z" fill="#263238"/>
<path d="M461.352 352.128C461.203 352.128 461.059 352.068 460.953 351.963C460.848 351.857 460.788 351.713 460.788 351.564V341.028C460.788 340.879 460.848 340.735 460.953 340.629C461.059 340.524 461.203 340.464 461.352 340.464C461.502 340.464 461.645 340.524 461.751 340.629C461.857 340.735 461.916 340.879 461.916 341.028V351.564C461.916 351.713 461.857 351.857 461.751 351.963C461.645 352.068 461.502 352.128 461.352 352.128Z" fill="#263238"/>
<path d="M498.204 353.628H474.888C474.739 353.628 474.595 353.569 474.489 353.463C474.384 353.357 474.324 353.214 474.324 353.064C474.324 352.914 474.384 352.771 474.489 352.665C474.595 352.559 474.739 352.5 474.888 352.5H498.204C498.354 352.5 498.497 352.559 498.603 352.665C498.709 352.771 498.768 352.914 498.768 353.064C498.768 353.214 498.709 353.357 498.603 353.463C498.497 353.569 498.354 353.628 498.204 353.628Z" fill="#263238"/>
<path d="M415.104 115.056H167.7V433.524H415.104V115.056Z" fill="#263238"/>
<path d="M184.484 269.479C184.484 269.479 179.205 271.904 178.765 274.984C178.325 278.063 171.275 305.598 173.261 307.572C175.246 309.546 189.109 309.771 189.989 309.331C190.869 308.892 198.359 282.034 199.904 276.529C201.449 271.025 195.719 263.952 184.484 269.479Z" fill="#F6B9D5"/>
<path d="M186.774 310.076C182.138 310.076 174.366 309.523 172.855 307.978C171.343 306.432 173.171 297.33 176.916 280.906C177.581 277.996 178.044 275.694 178.201 274.961C178.675 271.645 183.943 269.175 184.248 269.028C189.763 266.321 194.772 266.298 197.964 268.96C199.082 269.879 199.912 271.101 200.352 272.48C200.792 273.859 200.825 275.335 200.446 276.732L200.231 277.488C191.309 309.365 190.666 309.681 190.248 309.895C189.102 310.095 187.935 310.156 186.774 310.076ZM192.031 268.058C189.484 268.143 186.989 268.802 184.733 269.987C183.345 270.618 179.657 272.784 179.329 275.052C179.217 275.841 178.72 278.041 178.032 281.086C176.498 287.854 172.392 305.688 173.667 307.166C175.314 308.813 188.015 309.162 189.673 308.835C190.158 307.967 192.053 302.484 199.16 277.116L199.374 276.36C199.692 275.173 199.661 273.919 199.285 272.748C198.909 271.578 198.204 270.541 197.253 269.761C195.772 268.587 193.919 267.982 192.031 268.058Z" fill="#263238"/>
<path d="M195.99 357.576C195.99 357.576 187.812 379.29 185.274 393.108C182.736 406.926 182.736 439.356 182.736 439.356H276.642C276.642 439.356 277.488 395.928 274.95 379.29C273.667 370.221 271.687 361.265 269.028 352.5L195.99 357.576Z" fill="#F6B9D5"/>
<path d="M276.642 439.92H182.736C182.586 439.92 182.443 439.861 182.337 439.755C182.231 439.649 182.172 439.506 182.172 439.356C182.172 439.029 182.172 406.712 184.721 393.006C187.27 379.301 195.381 357.599 195.46 357.373C195.499 357.271 195.566 357.183 195.654 357.119C195.743 357.055 195.847 357.018 195.956 357.012L268.994 351.936C269.117 351.928 269.24 351.961 269.342 352.03C269.444 352.1 269.52 352.202 269.558 352.319C272.22 361.115 274.207 370.102 275.503 379.2C278.029 395.702 277.217 438.927 277.206 439.367C277.2 439.514 277.139 439.653 277.034 439.756C276.929 439.858 276.789 439.917 276.642 439.92ZM183.3 438.792H276.089C276.168 433.682 276.743 394.8 274.397 379.38C273.112 370.491 271.182 361.707 268.622 353.098L196.43 358.117C195.381 360.926 188.195 380.542 185.86 393.209C183.525 405.877 183.322 434.415 183.3 438.792Z" fill="#263238"/>
<path d="M260.568 203.604C260.568 203.604 262.621 202.138 262.035 195.381C261.448 188.624 250.574 177.761 241.178 175.404C231.782 173.046 212.391 179.814 206.21 192.155C200.028 204.495 200.638 272.626 200.638 272.626L252.041 269.693C252.041 269.693 251.747 242.08 251.747 233.857C251.747 225.634 260.568 203.604 260.568 203.604Z" fill="#263238"/>
<path d="M200.671 273.19C200.601 273.193 200.53 273.181 200.464 273.156C200.399 273.13 200.338 273.092 200.287 273.044C200.23 272.993 200.185 272.93 200.154 272.86C200.123 272.79 200.107 272.714 200.107 272.638C200.107 269.851 199.588 204.213 205.747 191.895C212.064 179.171 231.838 172.482 241.392 174.84C250.709 177.164 262.045 188.071 262.677 195.313C263.207 201.404 261.639 203.423 261.121 203.92C260.399 205.736 252.401 226.13 252.401 233.834C252.401 241.967 252.683 269.389 252.694 269.66C252.695 269.807 252.639 269.948 252.538 270.055C252.437 270.162 252.3 270.226 252.153 270.235L200.761 273.168L200.671 273.19ZM236.88 175.494C227.01 175.494 212.064 181.766 206.717 192.414C200.987 203.886 201.156 265.317 201.19 272.051L251.544 269.163C251.544 265.26 251.262 241.358 251.262 233.857C251.262 225.623 259.744 204.303 260.105 203.401C260.146 203.302 260.212 203.217 260.297 203.153C260.297 203.153 262.079 201.596 261.538 195.426C260.996 189.256 250.608 178.326 241.11 175.957C239.724 175.63 238.303 175.474 236.88 175.494Z" fill="white"/>
<path d="M202.363 257.094C202.29 257.095 202.216 257.082 202.148 257.055C202.08 257.028 202.017 256.987 201.965 256.936C201.912 256.884 201.871 256.823 201.842 256.755C201.814 256.687 201.799 256.615 201.799 256.541C201.799 255.571 201.506 232.673 203.66 224.382C205.916 215.696 216.192 207.845 226.976 200.694C237.76 193.542 242.215 188.523 242.26 188.477C242.308 188.421 242.366 188.375 242.432 188.341C242.498 188.308 242.57 188.288 242.643 188.283C242.717 188.278 242.791 188.287 242.861 188.311C242.931 188.335 242.995 188.372 243.05 188.421C243.162 188.521 243.231 188.66 243.241 188.81C243.252 188.96 243.203 189.107 243.106 189.222C242.926 189.425 238.594 194.287 227.608 201.63C217.005 208.691 206.909 216.373 204.754 224.698C202.634 232.842 202.916 256.282 202.927 256.564C202.927 256.713 202.868 256.857 202.762 256.962C202.656 257.068 202.513 257.128 202.363 257.128V257.094Z" fill="white"/>
<path d="M203.593 229.39H203.491C203.344 229.363 203.214 229.279 203.127 229.157C203.041 229.035 203.006 228.884 203.029 228.736C203.108 228.273 203.175 227.608 203.243 226.897C203.796 221.438 204.935 210.079 215.865 201.607C220.224 198.268 224.319 194.599 228.116 190.632C228.166 190.578 228.227 190.535 228.295 190.506C228.363 190.476 228.436 190.461 228.51 190.461C228.584 190.461 228.658 190.476 228.725 190.506C228.793 190.535 228.855 190.578 228.905 190.632C228.958 190.684 229 190.747 229.029 190.816C229.057 190.884 229.072 190.958 229.072 191.032C229.072 191.107 229.057 191.181 229.029 191.249C229 191.318 228.958 191.38 228.905 191.433C225.066 195.459 220.917 199.178 216.497 202.555C205.95 210.722 204.845 221.731 204.315 227.066C204.236 227.845 204.168 228.499 204.089 228.973C204.061 229.086 203.998 229.187 203.909 229.262C203.82 229.337 203.709 229.382 203.593 229.39Z" fill="white"/>
<path d="M231.24 188.444C231.108 188.441 230.98 188.394 230.879 188.308C230.764 188.214 230.692 188.078 230.677 187.93C230.662 187.782 230.706 187.634 230.8 187.519C231.455 186.753 232.065 185.951 232.627 185.116C232.712 184.992 232.842 184.905 232.99 184.876C233.138 184.846 233.291 184.876 233.417 184.958C233.541 185.041 233.627 185.169 233.656 185.315C233.686 185.461 233.657 185.612 233.575 185.736C233.575 185.736 232.966 186.661 231.68 188.229C231.626 188.295 231.559 188.348 231.483 188.385C231.407 188.422 231.324 188.442 231.24 188.444Z" fill="white"/>
<path d="M258.312 261.132C258.312 261.132 267.054 263.106 269.028 263.952C271.002 264.798 272.976 269.31 272.694 271.566C272.412 273.822 267.054 311.046 266.49 317.25C265.926 323.454 270.72 341.502 271.566 344.886C272.412 348.27 272.976 351.654 267.9 354.192C262.824 356.73 240.828 358.422 236.034 358.986C231.24 359.55 200.502 360.96 195.99 360.396C191.478 359.832 186.966 317.385 186.966 304.977C186.966 292.569 185.127 279.293 190.203 275.345C195.279 271.397 221.088 263.952 229.266 261.696C237.444 259.44 258.312 261.132 258.312 261.132Z" fill="#F6B9D5"/>
<path d="M199.972 361.084C198.077 361.084 196.656 361.084 195.923 360.96C190.655 360.294 186.357 315.716 186.357 304.977C186.357 302.327 186.278 299.608 186.188 296.991C185.872 286.839 185.601 278.176 189.82 274.905C195.46 270.517 225.69 262.102 229.12 261.155C237.298 258.899 257.5 260.5 258.357 260.568H258.436C258.797 260.647 267.257 262.565 269.254 263.422C271.51 264.392 273.563 269.141 273.258 271.622C273.179 272.198 272.785 275.006 272.209 279.067C270.551 290.81 267.472 312.682 267.054 317.284C266.547 322.924 270.529 338.501 271.826 343.623L272.108 344.751C273.044 348.484 273.45 352.049 268.148 354.7C263.896 356.82 248.442 358.332 240.129 359.133C238.369 359.313 236.959 359.448 236.102 359.55C232.052 360.024 209.808 361.084 199.972 361.084ZM242.994 261.087C237.85 261.087 232.616 261.358 229.458 262.215C226.074 263.162 196.013 271.521 190.553 275.751C186.797 278.672 187.068 287.527 187.361 296.912C187.451 299.54 187.53 302.259 187.53 304.932C187.53 319.325 192.392 359.324 196.103 359.787C200.615 360.351 231.206 358.941 236.012 358.377C236.88 358.275 238.268 358.14 240.073 357.971C247.709 357.226 263.625 355.715 267.697 353.639C272.209 351.383 271.939 348.496 271.081 344.976L270.799 343.848C269.479 338.671 265.464 322.924 265.983 317.137C266.411 312.49 269.491 290.607 271.149 278.853C271.724 274.837 272.119 272.006 272.187 271.431C272.435 269.457 270.585 265.136 268.859 264.403C267.133 263.67 258.921 261.764 258.278 261.628C257.635 261.493 250.416 261.087 242.994 261.087Z" fill="#263238"/>
<path d="M266.772 355.884C266.772 355.884 268.464 372.804 269.592 386.904C270.72 401.004 266.49 423.564 268.182 423.282C269.874 423 279.18 425.809 279.744 418.77C280.308 411.731 279.18 369.138 276.642 364.626C274.502 360.42 272.618 356.088 271.002 351.654C271.002 351.654 267.336 350.244 266.772 355.884Z" fill="#F6B9D5"/>
<path d="M273.19 424.128C272.112 424.111 271.035 424.039 269.964 423.914C269.405 423.828 268.838 423.79 268.272 423.801C268.159 423.82 268.044 423.812 267.934 423.779C267.824 423.746 267.724 423.687 267.641 423.609C266.975 422.989 267.099 420.823 267.9 412.577C268.644 404.997 269.648 394.631 269.028 386.915C267.9 372.984 266.231 356.076 266.208 355.906V355.794C266.434 353.538 267.144 352.094 268.317 351.372C268.75 351.121 269.232 350.966 269.731 350.917C270.229 350.869 270.732 350.928 271.205 351.09C271.28 351.12 271.348 351.166 271.405 351.224C271.461 351.282 271.505 351.352 271.532 351.428C273.151 355.832 275.034 360.134 277.172 364.31C279.834 369.048 280.849 412.431 280.342 418.77C280.318 419.51 280.143 420.237 279.827 420.907C279.51 421.576 279.06 422.173 278.503 422.662C276.952 423.743 275.077 424.26 273.19 424.128ZM268.498 422.662C268.904 422.662 269.423 422.662 270.077 422.786C272.22 423.023 275.807 423.406 277.747 421.793C278.19 421.402 278.545 420.924 278.792 420.387C279.039 419.851 279.171 419.27 279.18 418.68C279.778 411.269 278.526 369.048 276.146 364.874C274.028 360.729 272.167 356.457 270.573 352.083C270.004 351.957 269.408 352.049 268.904 352.342C268.069 352.861 267.528 354.079 267.336 355.85C267.449 356.978 269.073 373.289 270.156 386.825C270.776 394.642 269.761 405.065 269.028 412.679C268.599 417.055 268.159 421.567 268.396 422.662H268.498Z" fill="#263238"/>
<path d="M271.566 344.886C271.566 344.886 259.158 351.654 256.338 354.192C253.518 356.73 253.518 356.73 258.03 356.73C262.542 356.73 270.72 357.294 273.54 352.782C276.36 348.27 274.95 341.502 271.566 344.886Z" fill="#F6B9D5"/>
<path d="M261.098 357.317H258.03C255.063 357.317 254.161 357.317 253.89 356.595C253.62 355.873 254.262 355.331 255.966 353.797C258.718 351.316 270.122 345.055 271.228 344.446C272.818 342.901 273.946 343.499 274.363 343.826C276.01 345.134 276.168 349.669 274.014 353.098C271.611 356.933 265.712 357.317 261.098 357.317ZM255.142 356.098C255.684 356.166 256.789 356.166 258.03 356.166H259.44C263.952 356.222 270.72 356.29 273.1 352.477C274.973 349.477 274.803 345.552 273.698 344.672C273.19 344.266 272.491 344.784 271.995 345.27C271.962 345.312 271.919 345.347 271.871 345.371C271.747 345.439 259.463 352.139 256.744 354.598C256.056 355.196 255.447 355.749 255.142 356.098Z" fill="#263238"/>
<path d="M263.67 349.962C263.67 349.962 252.672 344.604 248.724 345.45C244.776 346.296 248.724 432.87 248.724 432.87H265.362C265.362 432.87 254.364 367.446 254.364 362.652C254.364 357.858 263.67 349.962 263.67 349.962Z" fill="#F6B9D5"/>
<path d="M265.362 433.434H248.724C248.578 433.434 248.438 433.378 248.333 433.277C248.228 433.176 248.166 433.038 248.16 432.893C248.16 432.678 247.168 410.998 246.682 389.487C245.679 345.495 247.653 345.1 248.611 344.897C252.706 344.04 263.456 349.229 263.918 349.409C264.004 349.449 264.079 349.509 264.135 349.586C264.191 349.662 264.226 349.752 264.237 349.846C264.248 349.94 264.235 350.035 264.199 350.123C264.163 350.21 264.105 350.287 264.031 350.345C263.941 350.424 254.928 358.129 254.928 362.607C254.928 367.299 265.813 432.08 265.915 432.735C265.931 432.814 265.928 432.897 265.907 432.975C265.885 433.053 265.845 433.126 265.791 433.186C265.746 433.26 265.683 433.321 265.608 433.364C265.533 433.408 265.449 433.432 265.362 433.434ZM249.266 432.306H264.697C263.478 425.053 253.8 367.232 253.8 362.652C253.8 358.377 260.489 352.037 262.655 350.109C260.106 348.924 251.973 345.315 248.837 346.003C246.423 348.236 247.799 399.887 249.288 432.306H249.266Z" fill="#263238"/>
<path d="M227.856 236.451C227.856 236.451 228.511 253.845 228.071 255.83C227.631 257.816 212.888 263.952 212.888 263.952L237.117 300.725L247.032 258.47C247.032 258.47 241.528 257.342 241.313 255.605C241.099 253.868 242.633 246.581 242.633 246.581L227.856 236.451Z" fill="white"/>
<path d="M237.117 301.311C237.024 301.312 236.931 301.29 236.849 301.247C236.766 301.204 236.695 301.14 236.643 301.063L212.425 264.29C212.376 264.223 212.344 264.145 212.332 264.062C212.32 263.979 212.329 263.895 212.357 263.817C212.378 263.736 212.417 263.661 212.472 263.598C212.527 263.536 212.596 263.487 212.673 263.456C219.554 260.579 227.19 256.8 227.54 255.706C227.879 254.138 227.484 241.29 227.303 236.474C227.3 236.37 227.325 236.267 227.377 236.177C227.428 236.087 227.504 236.012 227.595 235.962C227.686 235.912 227.789 235.888 227.893 235.892C227.997 235.897 228.097 235.931 228.183 235.989L242.937 246.141C243.03 246.202 243.102 246.289 243.144 246.392C243.187 246.495 243.197 246.608 243.174 246.716C242.746 248.713 241.685 254.195 241.854 255.56C241.956 256.372 244.663 257.443 247.133 257.94C247.208 257.956 247.278 257.986 247.34 258.03C247.403 258.073 247.456 258.128 247.497 258.192C247.538 258.256 247.565 258.328 247.579 258.402C247.592 258.477 247.59 258.554 247.573 258.628L237.658 300.905C237.634 301.012 237.578 301.11 237.498 301.184C237.417 301.259 237.316 301.307 237.207 301.323L237.117 301.311ZM213.733 264.234L236.88 299.349L246.366 258.899C244.596 258.504 240.986 257.466 240.726 255.684C240.467 253.901 241.64 248.442 241.979 246.829L228.443 237.557C228.589 241.64 229.007 254.183 228.612 255.954C228.194 257.94 217.828 262.508 213.733 264.234Z" fill="#263238"/>
<path d="M225.927 263.805C225.819 263.803 225.714 263.772 225.622 263.715C225.56 263.674 225.506 263.621 225.464 263.559C225.422 263.497 225.392 263.427 225.378 263.353C225.363 263.28 225.363 263.204 225.378 263.131C225.393 263.057 225.422 262.987 225.464 262.926C227.134 260.421 227.517 255.83 227.517 255.785C227.534 255.638 227.607 255.502 227.72 255.406C227.833 255.31 227.978 255.26 228.127 255.266C228.201 255.272 228.273 255.292 228.339 255.326C228.406 255.36 228.464 255.406 228.513 255.463C228.561 255.52 228.597 255.585 228.62 255.656C228.643 255.727 228.652 255.801 228.645 255.876C228.645 256.079 228.239 260.805 226.389 263.557C226.337 263.632 226.268 263.693 226.187 263.736C226.107 263.779 226.018 263.803 225.927 263.805Z" fill="#263238"/>
<path d="M234.816 273.585H234.669L220.908 270.032C220.834 270.013 220.764 269.98 220.703 269.935C220.641 269.89 220.589 269.832 220.55 269.767C220.511 269.702 220.485 269.629 220.474 269.553C220.462 269.478 220.466 269.401 220.485 269.327C220.503 269.253 220.536 269.183 220.582 269.122C220.627 269.06 220.684 269.009 220.75 268.969C220.815 268.93 220.888 268.904 220.963 268.893C221.039 268.882 221.116 268.885 221.19 268.904L234.951 272.457C235.025 272.466 235.097 272.489 235.162 272.526C235.227 272.562 235.284 272.611 235.33 272.67C235.376 272.729 235.41 272.796 235.431 272.868C235.451 272.94 235.456 273.015 235.448 273.089C235.439 273.163 235.415 273.234 235.379 273.299C235.342 273.364 235.293 273.422 235.235 273.468C235.176 273.514 235.109 273.548 235.037 273.568C234.965 273.588 234.89 273.594 234.816 273.585Z" fill="#263238"/>
<path d="M241.764 182.995C241.764 182.995 248.42 190.384 246.57 192.978C244.72 195.573 222.882 204.066 222.882 207.755C222.882 211.444 224.01 215.888 221.754 216.632C219.498 217.377 216.576 216.26 215.471 215.504C214.365 214.749 211.399 219.193 211.771 224.743C212.143 230.292 218.426 232.876 221.009 232.876H224.709C225.611 236.37 226.976 239.727 228.77 242.858C231.364 246.919 249.48 252.097 251.33 250.619C253.18 249.141 260.207 235.831 261.685 229.548C263.163 223.265 259.429 213.282 259.835 210.372C260.241 207.462 261.685 205.939 261.313 202.239C260.94 198.539 249.852 192.629 249.852 192.629C249.852 192.629 243.242 181.518 241.764 182.995Z" fill="white"/>
<path d="M250.066 251.465C249.196 251.444 248.328 251.353 247.472 251.194C242.148 250.314 230.552 246.682 228.352 243.174C226.582 240.131 225.227 236.865 224.325 233.462H221.088C218.46 233.462 211.692 230.89 211.286 224.799C210.97 220.14 212.978 216.001 214.557 215.087C214.747 214.954 214.973 214.882 215.205 214.882C215.438 214.882 215.664 214.954 215.854 215.087C216.892 215.775 219.655 216.79 221.652 216.136C222.881 215.719 222.712 213.305 222.52 210.756C222.453 209.774 222.374 208.759 222.374 207.789C222.374 205.409 228.239 202.284 237.184 197.784C241.257 195.731 245.475 193.599 246.141 192.685C247.269 191.061 243.828 186.131 241.369 183.402C241.269 183.297 241.214 183.157 241.214 183.012C241.214 182.867 241.269 182.728 241.369 182.623C241.484 182.511 241.623 182.427 241.776 182.378C241.929 182.329 242.091 182.316 242.249 182.341C244.347 182.589 248.837 189.786 250.303 192.211C251.973 193.114 261.583 198.438 261.921 202.194C262.096 204.033 261.837 205.887 261.166 207.608C260.827 208.528 260.585 209.481 260.444 210.451C260.492 212.307 260.757 214.15 261.233 215.944C262.125 220.276 263.23 225.668 262.282 229.728C260.782 236.068 253.698 249.536 251.736 251.16C251.23 251.448 250.641 251.555 250.066 251.465ZM215.211 215.989C215.003 216.099 214.819 216.248 214.67 216.429C212.925 218.827 212.122 221.781 212.414 224.731C212.741 229.999 218.832 232.368 221.088 232.368H224.788C224.914 232.365 225.037 232.407 225.136 232.485C225.234 232.563 225.303 232.673 225.329 232.797C226.224 236.231 227.57 239.531 229.334 242.61C231.116 245.419 241.392 249.029 247.438 250.078C250.506 250.619 251.048 250.236 251.048 250.236C252.694 248.916 259.699 235.853 261.2 229.469C262.102 225.656 261.019 220.445 260.151 216.17C259.633 214.261 259.363 212.293 259.35 210.316C259.498 209.273 259.755 208.248 260.117 207.259C260.743 205.688 260.983 203.99 260.816 202.307C260.545 199.521 252.672 194.738 249.66 193.136C249.57 193.087 249.493 193.018 249.435 192.933C248.16 190.79 246.829 188.793 245.656 187.192C247.043 189.448 248.081 191.895 247.054 193.339C246.276 194.467 242.982 196.125 237.692 198.787C232.052 201.63 223.502 205.928 223.502 207.811C223.502 208.748 223.581 209.729 223.648 210.688C223.863 213.7 224.077 216.531 222.013 217.219C219.486 217.997 216.283 216.711 215.211 215.989Z" fill="#263238"/>
<path d="M252.526 219.396C252.428 219.397 252.332 219.372 252.247 219.324C252.162 219.277 252.091 219.208 252.041 219.125C248.126 212.594 251.939 208.601 252.435 208.116C253.326 206.988 255.582 205.183 257.94 206.525C258.071 206.601 258.167 206.725 258.207 206.871C258.247 207.016 258.228 207.172 258.154 207.304C258.118 207.368 258.069 207.425 258.011 207.47C257.952 207.516 257.885 207.549 257.814 207.568C257.742 207.587 257.668 207.591 257.594 207.581C257.521 207.57 257.451 207.545 257.387 207.507C255.255 206.3 253.326 208.815 253.304 208.838L253.225 208.928C253.067 209.064 249.356 212.448 253.011 218.55C253.086 218.677 253.108 218.829 253.072 218.973C253.036 219.116 252.945 219.24 252.819 219.317C252.731 219.371 252.629 219.398 252.526 219.396Z" fill="#263238"/>
<path d="M232.898 212.763C232.804 212.764 232.711 212.741 232.628 212.696C232.498 212.622 232.402 212.501 232.36 212.358C232.318 212.215 232.333 212.061 232.402 211.929C234.793 207.541 242.295 208.996 242.622 209.052C242.767 209.085 242.894 209.172 242.976 209.296C243.058 209.42 243.089 209.571 243.062 209.718C243.047 209.79 243.018 209.859 242.976 209.921C242.935 209.982 242.882 210.035 242.82 210.076C242.758 210.116 242.689 210.145 242.616 210.159C242.543 210.173 242.469 210.172 242.396 210.158C242.328 210.158 235.38 208.815 233.372 212.47C233.324 212.555 233.256 212.627 233.173 212.678C233.09 212.729 232.996 212.759 232.898 212.763Z" fill="#263238"/>
<path d="M242.137 218.674C242.014 218.676 241.895 218.637 241.797 218.564C241.699 218.49 241.628 218.386 241.595 218.268L240.851 215.674C240.831 215.599 240.826 215.522 240.835 215.446C240.845 215.37 240.87 215.297 240.908 215.23C240.947 215.164 240.997 215.105 241.058 215.058C241.119 215.012 241.188 214.977 241.262 214.957C241.337 214.937 241.414 214.932 241.49 214.942C241.566 214.952 241.639 214.977 241.706 215.015C241.772 215.053 241.831 215.104 241.878 215.165C241.924 215.226 241.959 215.295 241.979 215.369L242.712 217.952C242.754 218.096 242.737 218.25 242.665 218.381C242.593 218.512 242.472 218.61 242.328 218.651L242.137 218.674Z" fill="#263238"/>
<path d="M237.85 219.452C237.105 219.452 236.609 219.452 236.541 219.452C236.468 219.447 236.396 219.426 236.33 219.393C236.264 219.359 236.206 219.312 236.159 219.255C236.112 219.198 236.076 219.133 236.055 219.062C236.033 218.991 236.026 218.917 236.034 218.843C236.048 218.696 236.12 218.559 236.234 218.464C236.348 218.369 236.495 218.323 236.643 218.336C236.643 218.336 240.929 218.663 243.332 217.298C243.463 217.223 243.617 217.203 243.763 217.241C243.908 217.279 244.033 217.372 244.11 217.501C244.181 217.633 244.198 217.788 244.158 217.933C244.118 218.078 244.025 218.202 243.896 218.279C242.002 219.143 239.93 219.545 237.85 219.452Z" fill="#263238"/>
<path d="M257.996 216.474C257.873 216.475 257.752 216.436 257.653 216.363C257.553 216.29 257.48 216.186 257.443 216.068L256.71 213.474C256.67 213.324 256.69 213.165 256.768 213.031C256.845 212.896 256.972 212.798 257.122 212.758C257.271 212.717 257.431 212.738 257.565 212.815C257.7 212.892 257.798 213.02 257.838 213.169L258.583 215.753C258.621 215.898 258.601 216.052 258.527 216.182C258.454 216.313 258.332 216.41 258.188 216.452L257.996 216.474Z" fill="#263238"/>
<path d="M253.71 217.253C252.966 217.253 252.458 217.253 252.402 217.253C252.252 217.241 252.113 217.17 252.016 217.056C251.919 216.941 251.871 216.793 251.883 216.644C251.895 216.494 251.966 216.355 252.08 216.258C252.194 216.161 252.342 216.113 252.492 216.125C252.492 216.125 256.789 216.452 259.192 215.087C259.321 215.014 259.473 214.995 259.616 215.034C259.759 215.073 259.88 215.167 259.954 215.296C260.027 215.424 260.046 215.577 260.007 215.72C259.968 215.862 259.873 215.984 259.745 216.057C257.857 216.929 255.788 217.339 253.71 217.253Z" fill="#263238"/>
<path d="M218.404 227.766C218.319 227.765 218.236 227.745 218.16 227.708C218.084 227.671 218.017 227.617 217.964 227.551C217.445 226.908 217.321 226.333 217.603 225.848C218.076 225.047 219.644 224.991 220.987 225.092C220.005 223.806 218.133 221.708 216.148 221.708C215.685 221.708 215.098 221.787 214.895 222.137C214.692 222.487 215.008 223.682 215.245 224.111C215.309 224.24 215.321 224.389 215.278 224.527C215.236 224.665 215.142 224.781 215.016 224.852C214.89 224.923 214.742 224.943 214.602 224.908C214.463 224.873 214.341 224.785 214.264 224.664C214.162 224.472 213.226 222.78 213.925 221.573C214.173 221.216 214.515 220.934 214.913 220.758C215.312 220.583 215.75 220.522 216.181 220.58C219.701 220.58 222.566 225.284 222.679 225.487C222.737 225.578 222.768 225.684 222.768 225.792C222.768 225.9 222.737 226.005 222.679 226.096C222.616 226.185 222.531 226.254 222.431 226.296C222.331 226.338 222.221 226.351 222.115 226.333C220.592 226.085 218.922 226.108 218.731 226.333C218.797 226.484 218.884 226.624 218.99 226.751C219.059 226.833 219.103 226.934 219.116 227.041C219.13 227.148 219.112 227.257 219.066 227.354C219.02 227.451 218.947 227.533 218.855 227.59C218.764 227.647 218.658 227.677 218.55 227.676L218.404 227.766Z" fill="#263238"/>
<path d="M263.76 301.853C263.76 301.853 272.119 285.113 275.232 282C278.345 278.887 286.016 283.534 286.681 285.305C287.347 287.076 279.417 303.139 276.112 308.418C272.807 313.697 270.618 311.328 268.408 308.858C266.632 306.681 265.076 304.335 263.76 301.853Z" fill="#F6B9D5"/>
<path d="M272.265 312.185C270.585 312.185 269.254 310.708 267.956 309.275C266.156 307.049 264.58 304.649 263.253 302.112C263.214 302.031 263.193 301.943 263.193 301.853C263.193 301.763 263.214 301.674 263.253 301.593C263.591 300.905 271.69 284.741 274.803 281.628C275.931 280.5 277.668 280.173 279.834 280.635C283.094 281.346 286.602 283.737 287.189 285.147C288.001 287.335 279.372 304.323 276.563 308.767C275.198 310.956 273.878 312.073 272.513 312.151L272.265 312.185ZM264.369 301.842C265.615 304.208 267.093 306.445 268.78 308.519C269.908 309.817 271.149 311.136 272.389 311.057C273.359 310.967 274.442 309.997 275.582 308.158C279.36 302.112 286.501 287.11 286.106 285.519C285.779 284.662 282.62 282.395 279.575 281.741C278.903 281.524 278.189 281.473 277.494 281.593C276.798 281.713 276.142 282 275.582 282.429C272.829 285.204 265.463 299.71 264.392 301.842H264.369Z" fill="#263238"/>
<path opacity="0.3" d="M263.76 301.853C263.76 301.853 272.119 285.113 275.232 282C278.345 278.887 286.016 283.534 286.681 285.305C287.347 287.076 279.417 303.139 276.112 308.418C272.807 313.697 270.618 311.328 268.408 308.858C266.632 306.681 265.076 304.335 263.76 301.853Z" fill="black"/>
<path d="M267.945 235.346C267.945 235.346 275.65 230.507 277.624 230.507C279.598 230.507 284.019 247.246 283.794 248.78C283.568 250.314 274.77 266.614 274.77 266.614C274.77 266.614 286.219 285.553 286.659 287.313C287.099 289.073 278.289 303.612 277.184 303.612C276.078 303.612 269.919 270.145 269.288 266.84C268.385 262.865 267.942 258.8 267.968 254.725C268.182 250.98 268.848 241.516 268.848 241.516C268.848 241.516 266.4 235.571 267.945 235.346Z" fill="white"/>
<path d="M277.183 304.176C276.405 304.176 275.785 304.176 269.287 270.179C268.994 268.577 268.769 267.438 268.678 266.952C267.731 262.936 267.281 258.818 267.336 254.691C267.539 251.206 268.126 242.757 268.205 241.606C267.686 240.309 266.31 236.598 267.077 235.323C267.22 235.08 267.449 234.898 267.72 234.816C268.848 234.116 275.616 229.943 277.623 229.943C277.824 229.956 278.019 230.014 278.194 230.111C278.369 230.209 278.521 230.344 278.639 230.507C280.895 233.101 284.583 247.246 284.346 248.859C284.109 250.472 277.183 263.32 275.413 266.603C277.172 269.513 286.771 285.452 287.2 287.178C287.685 289.118 280.917 300.082 278.763 302.857C277.894 303.962 277.544 304.176 277.183 304.176ZM268.013 235.865C267.731 236.339 268.34 238.877 269.31 241.268C269.333 241.353 269.333 241.442 269.31 241.527C269.31 241.527 268.656 250.991 268.43 254.725C268.392 258.753 268.835 262.77 269.75 266.693C269.84 267.178 270.066 268.329 270.37 269.93C274.081 289.479 276.405 300.51 277.285 302.789C279.361 300.725 286.23 288.802 286.038 287.414C285.847 286.027 278.797 274.454 274.217 266.874C274.167 266.79 274.141 266.694 274.141 266.597C274.141 266.5 274.167 266.404 274.217 266.321C277.601 260.049 283.027 249.717 283.173 248.668C283.387 247.134 279.203 231.748 277.533 231.026C276.259 231.026 271.126 233.958 268.193 235.797C268.15 235.839 268.101 235.873 268.047 235.899L268.013 235.865Z" fill="#263238"/>
<path d="M276.529 252.435C274.975 252.55 273.412 252.385 271.916 251.95C270.607 251.431 270.133 248.431 270.021 247.528C270.006 247.404 270.033 247.279 270.099 247.172C270.164 247.065 270.264 246.984 270.382 246.942L280.534 242.971C280.603 242.944 280.677 242.931 280.752 242.933C280.827 242.934 280.9 242.951 280.969 242.981C281.037 243.012 281.098 243.056 281.149 243.11C281.201 243.164 281.241 243.228 281.267 243.298C281.294 243.366 281.308 243.439 281.306 243.513C281.305 243.586 281.29 243.658 281.26 243.725C281.231 243.793 281.188 243.853 281.135 243.904C281.082 243.955 281.019 243.994 280.951 244.02L271.239 247.822C271.464 249.232 271.95 250.732 272.367 250.901C273.732 251.275 275.151 251.412 276.563 251.307C277.691 251.307 277.759 250.179 277.759 249.886C277.752 249.81 277.762 249.734 277.787 249.662C277.813 249.59 277.855 249.525 277.909 249.472C277.962 249.418 278.027 249.377 278.099 249.351C278.171 249.325 278.247 249.315 278.323 249.322C278.472 249.322 278.616 249.381 278.722 249.487C278.827 249.593 278.887 249.736 278.887 249.886C278.91 250.21 278.866 250.536 278.758 250.843C278.651 251.15 278.481 251.432 278.26 251.671C278.039 251.91 277.772 252.101 277.474 252.232C277.176 252.364 276.855 252.433 276.529 252.435Z" fill="#263238"/>
<path d="M275.424 250.89C275.31 250.891 275.199 250.858 275.106 250.793C275.013 250.728 274.943 250.636 274.905 250.529C274.877 250.46 274.864 250.386 274.865 250.312C274.866 250.238 274.881 250.165 274.911 250.097C274.94 250.029 274.983 249.967 275.036 249.915C275.089 249.864 275.152 249.823 275.221 249.796L280.285 247.822C280.354 247.793 280.428 247.778 280.503 247.778C280.577 247.778 280.651 247.793 280.719 247.823C280.788 247.853 280.85 247.896 280.901 247.95C280.953 248.004 280.993 248.068 281.019 248.137C281.046 248.207 281.059 248.281 281.057 248.356C281.055 248.431 281.039 248.504 281.008 248.572C280.978 248.641 280.934 248.702 280.88 248.753C280.825 248.804 280.761 248.844 280.692 248.871L275.627 250.845C275.564 250.876 275.494 250.891 275.424 250.89Z" fill="#263238"/>
<path d="M270.043 244.708C269.937 244.711 269.832 244.683 269.742 244.627C269.652 244.571 269.58 244.489 269.536 244.392C269.503 244.325 269.485 244.252 269.481 244.178C269.477 244.103 269.488 244.028 269.513 243.958C269.538 243.888 269.577 243.823 269.627 243.768C269.678 243.713 269.739 243.668 269.806 243.637L280.692 238.583C280.759 238.551 280.832 238.532 280.907 238.528C280.981 238.525 281.056 238.535 281.126 238.561C281.196 238.586 281.261 238.625 281.316 238.675C281.371 238.725 281.416 238.786 281.447 238.854C281.506 238.992 281.509 239.147 281.457 239.288C281.404 239.429 281.3 239.544 281.165 239.61L270.28 244.663C270.205 244.695 270.125 244.711 270.043 244.708Z" fill="#263238"/>
<path d="M268.159 240.095C268.053 240.098 267.948 240.069 267.858 240.013C267.768 239.957 267.696 239.876 267.652 239.779C267.619 239.712 267.601 239.639 267.597 239.564C267.593 239.489 267.604 239.415 267.629 239.344C267.654 239.274 267.693 239.21 267.744 239.154C267.794 239.099 267.855 239.055 267.923 239.023L279.146 233.744C279.213 233.712 279.287 233.693 279.361 233.689C279.436 233.685 279.51 233.696 279.581 233.722C279.651 233.747 279.716 233.786 279.771 233.836C279.826 233.886 279.87 233.947 279.902 234.015C279.934 234.081 279.953 234.154 279.956 234.227C279.96 234.301 279.949 234.375 279.924 234.444C279.898 234.514 279.86 234.577 279.809 234.631C279.759 234.686 279.699 234.729 279.631 234.759L268.351 240.05C268.29 240.075 268.225 240.091 268.159 240.095Z" fill="#263238"/>
<path d="M242.689 241.392L253.699 254.759C255.23 256.622 257.359 257.897 259.724 258.365C262.09 258.834 264.545 258.469 266.671 257.331C268.908 256.135 270.632 254.165 271.521 251.79C272.41 249.414 272.402 246.796 271.498 244.426L265.757 229.334C265.201 227.591 264.266 225.994 263.021 224.655C261.775 223.316 260.249 222.269 258.551 221.589C256.853 220.909 255.026 220.612 253.201 220.721C251.375 220.829 249.596 221.34 247.991 222.216L246.682 222.927C245.1 223.776 243.72 224.959 242.639 226.394C241.558 227.829 240.802 229.481 240.422 231.237C240.042 232.993 240.048 234.81 240.44 236.564C240.831 238.317 241.599 239.964 242.689 241.392Z" fill="white"/>
<path d="M261.764 259.09C260.138 259.092 258.533 258.734 257.062 258.042C255.592 257.349 254.293 256.34 253.258 255.086L242.249 241.719C241.128 240.226 240.34 238.51 239.942 236.686C239.543 234.862 239.541 232.973 239.937 231.148C240.333 229.324 241.117 227.606 242.236 226.111C243.355 224.616 244.783 223.38 246.423 222.487L247.731 221.776C249.407 220.864 251.262 220.332 253.166 220.217C255.07 220.102 256.976 220.408 258.749 221.112C260.522 221.816 262.118 222.901 263.424 224.291C264.731 225.68 265.716 227.34 266.309 229.153L272.04 244.212C272.985 246.711 272.99 249.468 272.054 251.97C271.118 254.473 269.305 256.55 266.952 257.816C265.356 258.665 263.572 259.104 261.764 259.09ZM243.129 241.042L254.127 254.409C255.619 256.208 257.701 257.419 260.002 257.829C262.303 258.238 264.675 257.818 266.696 256.644C268.717 255.47 270.256 253.617 271.04 251.416C271.824 249.214 271.803 246.805 270.979 244.618L265.238 229.537C264.7 227.876 263.802 226.353 262.609 225.079C261.416 223.804 259.956 222.808 258.334 222.162C256.712 221.516 254.967 221.235 253.224 221.34C251.481 221.445 249.783 221.933 248.25 222.769L246.953 223.491C245.455 224.304 244.15 225.431 243.127 226.795C242.104 228.158 241.387 229.726 241.024 231.391C240.661 233.057 240.661 234.781 241.024 236.446C241.388 238.112 242.106 239.679 243.129 241.042Z" fill="#263238"/>
<path d="M270.043 244.144C272.593 247.788 271.171 253.168 266.93 256.135C262.689 259.102 257.15 258.594 254.601 255.007C252.052 251.42 253.473 245.983 257.714 243.016C261.956 240.05 267.505 240.512 270.043 244.144Z" fill="white"/>
<path d="M261.008 258.639C260.696 258.656 260.384 258.656 260.072 258.639C258.898 258.569 257.755 258.234 256.729 257.661C255.702 257.087 254.819 256.289 254.144 255.326C253.47 254.362 253.021 253.259 252.833 252.099C252.644 250.938 252.721 249.75 253.056 248.622C253.766 246.163 255.298 244.022 257.396 242.554C259.493 241.087 262.03 240.382 264.584 240.557C265.754 240.64 266.892 240.981 267.915 241.554C268.939 242.127 269.823 242.919 270.506 243.874C273.224 247.754 271.769 253.484 267.257 256.643C265.428 257.932 263.246 258.629 261.008 258.639ZM263.648 241.595C261.623 241.611 259.653 242.254 258.008 243.434C256.108 244.723 254.729 246.646 254.116 248.859C253.82 249.828 253.748 250.851 253.907 251.851C254.065 252.851 254.449 253.802 255.029 254.631C255.61 255.461 256.372 256.147 257.257 256.638C258.143 257.13 259.128 257.413 260.14 257.466C262.431 257.651 264.714 257.016 266.58 255.672C270.574 252.875 271.916 247.844 269.547 244.471C268.957 243.651 268.193 242.972 267.31 242.482C266.426 241.993 265.445 241.705 264.437 241.64C264.175 241.61 263.911 241.595 263.648 241.595Z" fill="#263238"/>
<path d="M248.16 355.32C248.16 355.32 244.415 337.712 242.43 329.376C240.444 321.04 239.125 316.821 237.591 315.062C236.057 313.302 229.221 316.821 228.115 322.766C227.01 328.71 244.381 353.594 248.16 355.32Z" fill="#F6B9D5"/>
<path d="M248.16 355.918C248.079 355.94 247.993 355.94 247.912 355.918C243.828 354 226.48 328.688 227.608 322.721C228.033 320.784 228.951 318.989 230.273 317.511C231.595 316.033 233.276 314.921 235.154 314.283C235.623 314.082 236.138 314.016 236.642 314.092C237.146 314.167 237.619 314.382 238.008 314.712C239.553 316.472 240.85 320.284 242.982 329.263C244.945 337.543 248.622 355.083 248.713 355.264C248.734 355.365 248.727 355.471 248.691 355.569C248.655 355.667 248.592 355.753 248.51 355.816C248.41 355.892 248.285 355.928 248.16 355.918ZM236.361 315.174C236.037 315.18 235.715 315.226 235.402 315.31C233.719 315.881 232.212 316.877 231.027 318.201C229.841 319.525 229.017 321.132 228.634 322.867C227.698 327.932 242.057 349.364 247.269 354.045C246.333 349.68 243.479 336.381 241.843 329.5C239.79 320.826 238.459 317.013 237.128 315.434C237.02 315.337 236.893 315.264 236.755 315.219C236.617 315.175 236.471 315.159 236.327 315.174H236.361Z" fill="#263238"/>
<path opacity="0.3" d="M248.16 355.32C248.16 355.32 244.415 337.712 242.43 329.376C240.444 321.04 239.125 316.821 237.591 315.062C236.057 313.302 229.221 316.821 228.115 322.766C227.01 328.71 244.381 353.594 248.16 355.32Z" fill="black"/>
<path d="M188.455 273.89C190.869 274.544 238.651 315.716 240.196 313.516C241.742 311.317 260.669 263.095 261.549 261.109C262.429 259.124 252.085 257.59 248.78 257.376C245.475 257.161 245.915 257.816 245.915 257.816L236.237 297.228L212.887 258.03C211.243 257.235 209.362 257.078 207.608 257.59C204.743 258.47 181.179 271.239 181.179 271.239" fill="#F6B9D5"/>
<path d="M240.027 314.171C237.85 314.171 227.54 306.049 205.601 288.114C197.558 281.549 189.245 274.758 188.297 274.431C188.155 274.384 188.036 274.284 187.967 274.151C187.897 274.019 187.882 273.864 187.925 273.72C187.964 273.58 188.058 273.461 188.184 273.389C188.311 273.318 188.461 273.299 188.602 273.337C189.549 273.596 194.467 277.567 206.311 287.245C218.629 297.307 237.117 312.422 239.835 313.02C241.369 310.256 251.51 284.764 257.026 270.889C259.214 265.407 260.794 261.437 261.042 260.884C260.884 259.857 253.574 258.256 248.747 257.928C247.995 257.845 247.237 257.864 246.491 257.985L236.812 297.363C236.785 297.471 236.726 297.567 236.644 297.642C236.562 297.716 236.459 297.764 236.35 297.781C236.239 297.799 236.126 297.784 236.025 297.735C235.924 297.687 235.84 297.608 235.786 297.51L212.527 258.459C211.041 257.802 209.373 257.686 207.811 258.131C205.025 258.989 181.721 271.611 181.484 271.735C181.352 271.804 181.198 271.819 181.055 271.777C180.912 271.735 180.791 271.639 180.717 271.51C180.682 271.444 180.66 271.372 180.653 271.297C180.645 271.223 180.653 271.148 180.675 271.077C180.697 271.005 180.733 270.939 180.781 270.882C180.829 270.824 180.888 270.777 180.954 270.743C181.913 270.224 204.642 257.94 207.473 257.049C209.373 256.487 211.414 256.66 213.192 257.534C213.284 257.581 213.359 257.656 213.406 257.748L236.045 295.75L245.374 257.804C245.361 257.656 245.392 257.507 245.464 257.376C245.701 256.981 246.265 256.631 248.848 256.812C250.642 256.925 260.692 258.075 262.012 260.252C262.123 260.417 262.189 260.607 262.203 260.806C262.217 261.004 262.178 261.202 262.091 261.38C261.854 261.899 260.286 265.892 258.098 271.34C250.202 291.125 241.753 312.343 240.681 313.877C240.617 313.963 240.535 314.035 240.442 314.09C240.349 314.144 240.247 314.179 240.14 314.193L240.027 314.171Z" fill="#263238"/>
<path d="M286.433 284.459L272.784 309.771C272.784 309.771 264.888 304.932 263.76 301.875C263.76 301.875 268.385 323.454 271.904 330.718C275.424 337.983 277.623 343.273 281.154 345.033C284.685 346.792 293.257 348.338 296.123 345.687C298.988 343.036 309.557 325.654 309.771 321.029C309.986 316.404 286.433 284.459 286.433 284.459Z" fill="#F6B9D5"/>
<path d="M290.843 347.638C287.409 347.616 284.015 346.89 280.872 345.506C277.567 343.86 275.435 339.415 272.491 333.268L271.363 330.944C267.855 323.691 263.365 302.857 263.174 301.966C263.142 301.827 263.166 301.681 263.24 301.559C263.313 301.437 263.431 301.349 263.568 301.311C263.706 301.268 263.855 301.281 263.984 301.346C264.112 301.412 264.21 301.525 264.256 301.661C265.046 303.917 270.099 307.425 272.536 308.982L285.903 284.166C285.949 284.082 286.015 284.011 286.096 283.959C286.177 283.908 286.27 283.878 286.365 283.872C286.459 283.864 286.553 283.88 286.638 283.92C286.723 283.959 286.797 284.021 286.85 284.098C289.275 287.381 310.538 316.325 310.301 321.006C310.064 325.687 299.292 343.465 296.472 346.059C295.288 347.21 293.178 347.638 290.843 347.638ZM264.899 304.447C266.264 310.482 269.693 324.853 272.401 330.448L273.529 332.783C276.382 338.727 278.435 343.025 281.425 344.502C284.809 346.183 293.156 347.661 295.761 345.258C298.367 342.856 309.027 325.462 309.241 320.984C309.388 317.791 295.942 298.3 286.534 285.508L273.303 310.042C273.226 310.176 273.101 310.277 272.953 310.324C272.803 310.358 272.646 310.334 272.513 310.256C269.78 308.595 267.232 306.648 264.911 304.447H264.899Z" fill="#263238"/>
<path d="M251.217 272.017L248.837 305.417C248.806 305.884 248.88 306.352 249.055 306.787C249.229 307.221 249.499 307.61 249.845 307.926C250.191 308.241 250.603 308.474 251.052 308.609C251.5 308.743 251.973 308.774 252.435 308.7L266.163 306.444C266.856 306.33 267.49 305.985 267.961 305.465C268.432 304.944 268.713 304.279 268.758 303.579L270.777 271.51C270.807 271.012 270.731 270.514 270.552 270.049C270.374 269.584 270.098 269.163 269.744 268.813C269.389 268.464 268.963 268.194 268.495 268.023C268.027 267.852 267.528 267.783 267.032 267.821L254.409 268.814C253.582 268.879 252.806 269.237 252.221 269.825C251.635 270.412 251.279 271.19 251.217 272.017Z" fill="#263238"/>
<path d="M251.927 309.298C251.424 309.299 250.926 309.196 250.465 308.996C250.003 308.795 249.588 308.502 249.246 308.133C248.904 307.764 248.641 307.328 248.476 306.853C248.31 306.378 248.245 305.874 248.284 305.372L250.653 271.983C250.715 271.016 251.126 270.105 251.808 269.417C252.49 268.728 253.397 268.31 254.364 268.238L266.986 267.246C267.563 267.201 268.143 267.281 268.686 267.479C269.23 267.678 269.724 267.991 270.136 268.398C270.548 268.804 270.867 269.294 271.073 269.835C271.279 270.376 271.366 270.955 271.329 271.532L269.321 303.601C269.266 304.429 268.933 305.213 268.376 305.827C267.819 306.442 267.071 306.85 266.253 306.985L252.536 309.241C252.335 309.277 252.132 309.296 251.927 309.298ZM267.336 268.362H267.11L254.488 269.355C253.792 269.405 253.137 269.706 252.646 270.202C252.154 270.698 251.859 271.354 251.815 272.051L249.434 305.44C249.405 305.823 249.463 306.208 249.605 306.565C249.746 306.922 249.967 307.242 250.251 307.501C250.535 307.76 250.874 307.95 251.243 308.058C251.611 308.166 252 308.189 252.379 308.124L266.106 305.868C266.673 305.775 267.192 305.492 267.577 305.066C267.962 304.64 268.191 304.096 268.227 303.522L270.246 271.442C270.268 271.026 270.202 270.61 270.052 270.221C269.902 269.833 269.673 269.48 269.377 269.186C268.83 268.656 268.098 268.36 267.336 268.362Z" fill="#263238"/>
<path d="M228.747 313.956C228.747 313.956 234.692 310.877 237.117 306.917C239.542 302.958 245.475 288.869 246.141 287.538C246.806 286.207 267.494 283.354 269.479 284.459C271.464 285.564 268.599 287.538 268.599 287.538C268.599 287.538 253.845 289.794 252.751 290.404C251.657 291.013 249.446 295.028 249.446 295.028C249.446 295.028 258.47 292.603 261.549 292.378C264.629 292.152 271.025 291.498 271.239 292.603C271.453 293.709 269.705 294.859 267.28 295.683C264.854 296.506 260.23 296.811 256 298.108C253.625 298.82 251.393 299.938 249.401 301.413C249.401 301.413 259.745 298.988 263.929 298.762C268.114 298.536 272.299 298.108 271.419 299.642C270.539 301.176 265.035 301.187 261.504 302.507C257.974 303.827 250.721 306.252 250.721 306.252C250.721 306.252 267.641 302.733 266.355 304.267C265.069 305.801 260.624 306.692 257.545 307.357C254.465 308.023 251.16 309.331 250.055 310.877C248.95 312.422 246.31 317.047 243.671 319.021C241.031 320.995 236.846 321.221 236.192 321.221C235.538 321.221 230.687 324.311 230.687 324.311L228.747 313.956Z" fill="white"/>
<path d="M230.732 324.864C230.657 324.876 230.581 324.876 230.507 324.864C230.423 324.824 230.349 324.765 230.291 324.693C230.232 324.621 230.19 324.537 230.168 324.447L228.194 314.103C228.171 313.983 228.187 313.859 228.239 313.75C228.292 313.64 228.379 313.55 228.487 313.494C228.544 313.494 234.319 310.437 236.632 306.658C238.414 303.737 242.193 295.119 244.223 290.494C244.968 288.791 245.464 287.674 245.633 287.313C245.802 286.952 246.096 286.783 247.201 286.444C251.239 285.192 267.697 282.846 269.761 283.997C270.03 284.121 270.261 284.315 270.43 284.559C270.599 284.803 270.699 285.088 270.72 285.384C270.787 286.659 269.208 287.82 268.904 288.035C268.828 288.081 268.744 288.112 268.656 288.125C263.016 288.971 253.834 290.46 253.01 290.922C252.041 291.873 251.227 292.969 250.596 294.171C254.178 293.176 257.817 292.4 261.493 291.847L262.767 291.757C268.915 291.272 271.521 291.272 271.791 292.524C272.062 293.776 270.663 295.107 267.471 296.247C265.95 296.713 264.391 297.049 262.812 297.251C260.584 297.576 258.379 298.051 256.214 298.672C254.967 299.075 253.753 299.573 252.582 300.161C256.328 299.286 260.126 298.646 263.952 298.243L265.384 298.153C269.332 297.927 271.419 297.848 271.994 298.796C272.101 298.965 272.157 299.16 272.157 299.36C272.157 299.559 272.101 299.755 271.994 299.924C271.351 301.052 269.265 301.424 266.636 301.898C264.994 302.135 263.375 302.512 261.797 303.026C260.929 303.353 259.823 303.748 258.661 304.154C266.433 302.823 266.806 303.455 266.986 303.759C267.063 303.897 267.094 304.056 267.074 304.212C267.053 304.369 266.983 304.514 266.873 304.628C265.486 306.241 261.425 307.109 258.165 307.809L257.748 307.899C254.364 308.621 251.499 309.941 250.608 311.193C250.382 311.52 250.077 311.971 249.728 312.524C248.352 314.644 246.265 317.848 244.088 319.461C241.087 321.717 236.316 321.785 236.271 321.785C234.466 322.658 232.724 323.657 231.059 324.774C230.962 324.837 230.848 324.868 230.732 324.864ZM229.379 314.25L231.127 323.375C233.248 322.044 235.639 320.657 236.237 320.657C236.237 320.657 240.67 320.589 243.377 318.558C245.385 317.058 247.404 313.956 248.735 311.903C249.096 311.339 249.412 310.866 249.649 310.538C250.935 308.734 254.533 307.425 257.477 306.793L257.883 306.703C260.263 306.196 263.681 305.462 265.328 304.447C260.47 304.956 255.645 305.747 250.878 306.816C250.738 306.847 250.591 306.821 250.469 306.746C250.347 306.67 250.259 306.549 250.224 306.41C250.185 306.272 250.201 306.125 250.268 305.999C250.335 305.873 250.449 305.777 250.585 305.733C250.664 305.733 257.883 303.297 261.357 301.988C262.998 301.465 264.681 301.088 266.388 300.86C268.362 300.51 270.584 300.104 270.968 299.439C270.63 299.01 267.516 299.191 265.452 299.315L264.008 299.394C259.925 299.608 249.671 301.999 249.57 302.022C249.447 302.053 249.317 302.041 249.202 301.987C249.087 301.934 248.994 301.843 248.938 301.729C248.883 301.614 248.867 301.484 248.894 301.36C248.92 301.235 248.988 301.123 249.085 301.041C251.13 299.532 253.419 298.388 255.853 297.657C258.073 297.017 260.334 296.53 262.621 296.202C264.129 296.001 265.619 295.681 267.076 295.243C269.58 294.329 270.675 293.415 270.686 292.885C269.862 292.389 264.978 292.772 262.869 292.885L261.583 292.987C258.594 293.201 249.671 295.592 249.581 295.615C249.472 295.643 249.358 295.639 249.252 295.603C249.146 295.567 249.052 295.5 248.983 295.412C248.923 295.32 248.89 295.212 248.89 295.102C248.89 294.991 248.923 294.884 248.983 294.792C249.367 294.115 251.318 290.663 252.491 289.964C253.664 289.264 265.644 287.46 268.419 287.042C268.96 286.636 269.671 285.914 269.648 285.452C269.648 285.395 269.648 285.215 269.242 284.989C267.573 284.064 248.126 286.568 246.682 287.911C246.569 288.159 246.028 289.388 245.351 290.956C243.309 295.615 239.508 304.278 237.681 307.256C235.447 310.719 230.743 313.505 229.379 314.261V314.25Z" fill="#263238"/>
<path d="M189.233 277.195C189.233 277.195 183.593 280.049 183.39 284.459C183.187 288.869 182.95 333.775 181.134 343.025C179.318 352.274 178.72 357.114 181.134 359.945C183.548 362.776 199.859 382.629 208.657 384.163C217.456 385.697 248.16 355.32 248.16 355.32C248.16 355.32 238.008 339.246 235.165 331.756C232.323 324.266 229.435 313.043 229.435 313.043C229.435 313.043 222.171 315.682 220.197 316.573C218.223 317.464 213.147 306.421 212.707 302.259C212.267 298.097 212.267 295.209 212.267 295.209" fill="#F6B9D5"/>
<path d="M209.357 384.817C209.109 384.835 208.86 384.835 208.612 384.817C202.972 383.825 193.486 375.556 181.168 360.892L180.751 360.396C178.213 357.396 178.766 352.782 180.627 342.98C181.969 335.941 182.409 308.181 182.646 293.257C182.713 288.745 182.77 285.519 182.826 284.482C183.052 279.8 188.737 276.879 188.985 276.755C189.051 276.72 189.123 276.699 189.197 276.693C189.271 276.687 189.345 276.695 189.416 276.718C189.486 276.742 189.551 276.779 189.607 276.828C189.663 276.876 189.709 276.936 189.741 277.003C189.805 277.137 189.815 277.29 189.769 277.431C189.722 277.571 189.624 277.689 189.493 277.759C189.436 277.759 184.146 280.522 183.954 284.527C183.898 285.553 183.841 288.791 183.774 293.269C183.537 308.215 183.097 336.042 181.743 343.171C179.984 352.41 179.397 357.035 181.619 359.663L182.025 360.148C194.005 374.406 203.457 382.764 208.804 383.689C209.017 383.726 209.232 383.745 209.447 383.746C218.133 383.746 244.201 358.456 247.404 355.32C245.814 352.771 237.252 338.941 234.601 332.038C232.142 325.597 229.65 316.302 229.018 313.866C227.258 314.509 222.002 316.449 220.389 317.16C220.186 317.245 219.964 317.278 219.745 317.254C219.526 317.231 219.317 317.151 219.137 317.024C216.565 315.547 212.493 306.015 212.109 302.36C211.669 298.198 211.669 295.288 211.669 295.254C211.669 295.104 211.729 294.961 211.834 294.855C211.94 294.749 212.084 294.69 212.233 294.69C212.383 294.69 212.526 294.749 212.632 294.855C212.738 294.961 212.797 295.104 212.797 295.254C212.797 295.254 212.797 298.142 213.237 302.236C213.609 305.835 217.603 314.802 219.701 316.02C219.847 316.099 219.926 316.111 219.926 316.099C221.912 315.22 228.95 312.715 229.21 312.558C229.282 312.524 229.361 312.507 229.441 312.507C229.521 312.507 229.6 312.524 229.672 312.558C229.81 312.637 229.911 312.766 229.954 312.918C229.954 313.031 232.842 324.198 235.662 331.576C238.482 338.953 248.498 354.869 248.6 355.038C248.668 355.146 248.697 355.274 248.683 355.401C248.669 355.529 248.612 355.647 248.521 355.737C247.292 356.978 219.137 384.817 209.357 384.817Z" fill="#263238"/>
<path d="M188.759 353.459C188.67 353.471 188.579 353.471 188.489 353.459C188.331 353.389 188.198 353.275 188.104 353.131C188.009 352.987 187.959 352.819 187.959 352.647C187.744 350.842 190.136 344.627 194.072 341.942C194.197 341.859 194.349 341.827 194.497 341.855C194.644 341.882 194.775 341.966 194.862 342.089C194.905 342.15 194.935 342.219 194.951 342.292C194.966 342.365 194.967 342.441 194.954 342.514C194.94 342.587 194.912 342.657 194.871 342.72C194.83 342.783 194.777 342.836 194.715 342.878C191.331 345.134 189.346 350.131 189.075 351.97C191.004 349.939 196.125 343.205 198.776 339.652C204.224 330.921 218.73 316.821 218.877 316.686C218.987 316.595 219.127 316.55 219.269 316.558C219.411 316.566 219.545 316.628 219.643 316.731C219.742 316.834 219.798 316.97 219.8 317.112C219.802 317.254 219.751 317.392 219.655 317.498C219.509 317.634 205.115 331.643 199.701 340.284C199.34 340.78 191.252 351.62 189.47 353.188C189.272 353.358 189.021 353.454 188.759 353.459Z" fill="#263238"/>
<path d="M192.64 332.354C192.531 332.355 192.424 332.325 192.332 332.267C192.24 332.209 192.167 332.126 192.121 332.027C192.06 331.891 192.055 331.736 192.108 331.596C192.161 331.457 192.267 331.344 192.403 331.282C197.589 329.071 203.074 327.646 208.68 327.052C208.754 327.046 208.829 327.055 208.9 327.078C208.97 327.1 209.036 327.137 209.093 327.185C209.149 327.233 209.196 327.292 209.23 327.359C209.263 327.425 209.284 327.497 209.289 327.571C209.295 327.644 209.287 327.717 209.265 327.786C209.243 327.856 209.207 327.92 209.16 327.976C209.113 328.031 209.055 328.077 208.99 328.11C208.925 328.143 208.854 328.163 208.782 328.169C203.309 328.757 197.953 330.152 192.888 332.309C192.81 332.342 192.725 332.357 192.64 332.354Z" fill="#263238"/>
<g opacity="0.5">
<path d="M416.988 291.588V270.901L224.833 427.456L229.774 433.524H242.757L416.988 291.588Z" fill="white"/>
<path d="M289.354 115.056H263.974L165.816 195.031V215.707L289.354 115.056Z" fill="white"/>
<path d="M165.816 143.042V183.12L249.356 115.056H200.175L165.816 143.042Z" fill="white"/>
<path d="M416.988 397.575V310.708L266.23 433.524H372.86L416.988 397.575Z" fill="white"/>
</g>
<path d="M416.864 112.8H168.072C167.474 112.8 166.9 113.038 166.477 113.461C166.054 113.884 165.816 114.458 165.816 115.056V419.616C165.816 420.214 166.054 420.788 166.477 421.211C166.9 421.634 167.474 421.872 168.072 421.872H416.864C417.462 421.872 418.036 421.634 418.459 421.211C418.882 420.788 419.12 420.214 419.12 419.616V115.056C419.12 114.458 418.882 113.884 418.459 113.461C418.036 113.038 417.462 112.8 416.864 112.8ZM414.608 350.075H300.048V117.312H414.608V350.075ZM291.396 117.312V350.075H170.328V117.312H291.396ZM170.328 354.587H291.396V417.36H170.328V354.587ZM300.048 417.36V354.587H414.608V417.36H300.048Z" fill="white"/>
<path d="M442.548 432.611H147.994V464.161H442.548V432.611Z" fill="#263238"/>
<path d="M442.548 421.827H147.994V453.377H442.548V421.827Z" fill="#F6B9D5"/>
<path d="M442.548 453.941H148.005C147.855 453.941 147.712 453.882 147.606 453.776C147.5 453.67 147.441 453.527 147.441 453.377V421.872C147.441 421.722 147.5 421.579 147.606 421.473C147.712 421.367 147.855 421.308 148.005 421.308H442.548C442.698 421.308 442.841 421.367 442.947 421.473C443.053 421.579 443.112 421.722 443.112 421.872V453.456C443.093 453.591 443.025 453.715 442.922 453.805C442.818 453.894 442.685 453.942 442.548 453.941ZM148.569 452.813H441.984V422.357H148.569V452.813Z" fill="#263238"/>
<path d="M164.226 427.895H148.118C147.968 427.895 147.825 427.836 147.719 427.73C147.613 427.624 147.554 427.481 147.554 427.331C147.554 427.182 147.613 427.038 147.719 426.933C147.825 426.827 147.968 426.767 148.118 426.767H164.226C164.375 426.767 164.519 426.827 164.624 426.933C164.73 427.038 164.79 427.182 164.79 427.331C164.79 427.481 164.73 427.624 164.624 427.73C164.519 427.836 164.375 427.895 164.226 427.895Z" fill="#263238"/>
<path d="M170.215 432.024H152.618C152.469 432.024 152.325 431.965 152.219 431.859C152.114 431.753 152.054 431.61 152.054 431.46C152.054 431.31 152.114 431.167 152.219 431.061C152.325 430.955 152.469 430.896 152.618 430.896H170.215C170.365 430.896 170.508 430.955 170.614 431.061C170.72 431.167 170.779 431.31 170.779 431.46C170.779 431.61 170.72 431.753 170.614 431.859C170.508 431.965 170.365 432.024 170.215 432.024Z" fill="#263238"/>
<path d="M173.216 446.248H154.536C154.387 446.248 154.243 446.189 154.137 446.083C154.032 445.977 153.972 445.834 153.972 445.684C153.972 445.534 154.032 445.391 154.137 445.285C154.243 445.179 154.387 445.12 154.536 445.12H173.261C173.411 445.12 173.554 445.179 173.66 445.285C173.766 445.391 173.825 445.534 173.825 445.684C173.825 445.834 173.766 445.977 173.66 446.083C173.554 446.189 173.411 446.248 173.261 446.248H173.216Z" fill="#263238"/>
<path d="M176.961 443.304H152.991C152.841 443.304 152.698 443.245 152.592 443.139C152.486 443.033 152.427 442.89 152.427 442.74C152.427 442.59 152.486 442.447 152.592 442.341C152.698 442.235 152.841 442.176 152.991 442.176H176.961C177.109 442.179 177.251 442.239 177.356 442.344C177.462 442.45 177.522 442.591 177.525 442.74C177.525 442.89 177.465 443.033 177.36 443.139C177.254 443.245 177.11 443.304 176.961 443.304Z" fill="#263238"/>
<path d="M162.725 449.249H154.829C154.68 449.249 154.536 449.189 154.43 449.083C154.325 448.978 154.265 448.834 154.265 448.685C154.265 448.535 154.325 448.392 154.43 448.286C154.536 448.18 154.68 448.121 154.829 448.121H162.725C162.875 448.121 163.018 448.18 163.124 448.286C163.23 448.392 163.289 448.535 163.289 448.685C163.289 448.834 163.23 448.978 163.124 449.083C163.018 449.189 162.875 449.249 162.725 449.249Z" fill="#263238"/>
<path d="M173.96 438.014H160.853C160.704 438.011 160.563 437.95 160.457 437.845C160.352 437.74 160.292 437.598 160.289 437.45C160.289 437.3 160.348 437.157 160.454 437.051C160.56 436.945 160.703 436.886 160.853 436.886H173.96C174.11 436.886 174.253 436.945 174.359 437.051C174.465 437.157 174.524 437.3 174.524 437.45C174.524 437.599 174.465 437.743 174.359 437.848C174.253 437.954 174.11 438.014 173.96 438.014Z" fill="#263238"/>
<path d="M162.725 434.641H156.792C156.642 434.641 156.499 434.582 156.393 434.476C156.287 434.37 156.228 434.227 156.228 434.077C156.228 433.927 156.287 433.784 156.393 433.678C156.499 433.572 156.642 433.513 156.792 433.513H162.782C162.931 433.513 163.075 433.572 163.181 433.678C163.286 433.784 163.346 433.927 163.346 434.077C163.346 434.156 163.33 434.234 163.298 434.307C163.266 434.379 163.22 434.444 163.161 434.497C163.103 434.55 163.034 434.591 162.959 434.615C162.883 434.64 162.804 434.649 162.725 434.641Z" fill="#263238"/>
<path d="M176.961 426.768H171.321C171.171 426.768 171.028 426.708 170.922 426.602C170.816 426.497 170.757 426.353 170.757 426.204C170.757 426.054 170.816 425.91 170.922 425.805C171.028 425.699 171.171 425.64 171.321 425.64H176.961C177.11 425.642 177.251 425.703 177.356 425.808C177.462 425.913 177.522 426.055 177.525 426.204C177.525 426.353 177.465 426.497 177.36 426.602C177.254 426.708 177.11 426.768 176.961 426.768Z" fill="#263238"/>
<path d="M442.559 421.827H177.852V453.377H442.559V421.827Z" fill="#F6B9D5"/>
<path d="M442.548 453.941H177.852C177.702 453.941 177.559 453.882 177.453 453.776C177.347 453.67 177.288 453.527 177.288 453.377V421.872C177.288 421.722 177.347 421.579 177.453 421.473C177.559 421.367 177.702 421.308 177.852 421.308H442.548C442.698 421.308 442.841 421.367 442.947 421.473C443.053 421.579 443.112 421.722 443.112 421.872V453.456C443.093 453.591 443.025 453.715 442.921 453.805C442.818 453.894 442.685 453.942 442.548 453.941ZM178.416 452.813H441.984V422.357H178.416V452.813Z" fill="#263238"/>
<path d="M193.351 431.765H178.687C178.537 431.765 178.394 431.705 178.288 431.599C178.182 431.494 178.123 431.35 178.123 431.201C178.125 431.052 178.186 430.91 178.291 430.805C178.396 430.7 178.538 430.639 178.687 430.637H193.351C193.499 430.639 193.641 430.7 193.746 430.805C193.851 430.91 193.912 431.052 193.915 431.201C193.915 431.35 193.855 431.494 193.749 431.599C193.644 431.705 193.5 431.765 193.351 431.765Z" fill="#263238"/>
<path d="M188.85 436.265H177.818C177.668 436.265 177.525 436.206 177.419 436.1C177.313 435.994 177.254 435.851 177.254 435.701C177.254 435.552 177.313 435.408 177.419 435.302C177.525 435.197 177.668 435.137 177.818 435.137H188.85C188.999 435.137 189.143 435.197 189.249 435.302C189.354 435.408 189.414 435.552 189.414 435.701C189.414 435.851 189.354 435.994 189.249 436.1C189.143 436.206 188.999 436.265 188.85 436.265Z" fill="#263238"/>
<path d="M441.871 439.536H413.671C413.522 439.536 413.378 439.477 413.273 439.371C413.167 439.265 413.107 439.122 413.107 438.972C413.107 438.823 413.167 438.679 413.273 438.574C413.378 438.468 413.522 438.408 413.671 438.408H441.871C442.021 438.408 442.164 438.468 442.27 438.574C442.376 438.679 442.435 438.823 442.435 438.972C442.435 439.122 442.376 439.265 442.27 439.371C442.164 439.477 442.021 439.536 441.871 439.536Z" fill="#263238"/>
<path d="M419.796 442.808H412.442C412.292 442.808 412.149 442.748 412.043 442.642C411.937 442.537 411.878 442.393 411.878 442.244C411.878 442.094 411.937 441.951 412.043 441.845C412.149 441.739 412.292 441.68 412.442 441.68H419.796C419.946 441.68 420.09 441.739 420.195 441.845C420.301 441.951 420.36 442.094 420.36 442.244C420.36 442.393 420.301 442.537 420.195 442.642C420.09 442.748 419.946 442.808 419.796 442.808Z" fill="#263238"/>
<path d="M253.8 449.756H209.244C209.095 449.756 208.951 449.697 208.845 449.591C208.74 449.485 208.68 449.342 208.68 449.192C208.68 449.043 208.74 448.899 208.845 448.793C208.951 448.688 209.095 448.628 209.244 448.628H253.8C253.95 448.628 254.093 448.688 254.199 448.793C254.305 448.899 254.364 449.043 254.364 449.192C254.361 449.341 254.301 449.483 254.196 449.588C254.091 449.693 253.949 449.753 253.8 449.756Z" fill="#263238"/>
<path d="M215.832 444.849H204.382C204.234 444.846 204.092 444.786 203.987 444.681C203.882 444.576 203.821 444.434 203.818 444.285C203.818 444.136 203.878 443.992 203.984 443.887C204.089 443.781 204.233 443.721 204.382 443.721H215.832C215.981 443.721 216.125 443.781 216.23 443.887C216.336 443.992 216.396 444.136 216.396 444.285C216.393 444.434 216.332 444.576 216.227 444.681C216.122 444.786 215.98 444.846 215.832 444.849Z" fill="#263238"/>
<path d="M377.113 379.493C376.974 379.494 376.84 379.442 376.737 379.347C376.635 379.253 376.571 379.124 376.56 378.985C376.56 378.805 374.372 360.012 361.817 345.969C349.037 331.632 345.314 311.52 345.269 311.328C345.256 311.255 345.258 311.179 345.274 311.107C345.291 311.034 345.321 310.965 345.364 310.905C345.407 310.844 345.462 310.792 345.525 310.752C345.588 310.713 345.658 310.686 345.732 310.674C345.878 310.65 346.028 310.684 346.149 310.768C346.271 310.852 346.356 310.98 346.386 311.125C346.386 311.328 350.097 331.147 362.663 345.224C375.455 359.55 377.654 378.692 377.677 378.884C377.693 379.032 377.649 379.18 377.556 379.296C377.463 379.413 377.328 379.487 377.18 379.504L377.113 379.493Z" fill="#263238"/>
<path d="M381.738 381.546C381.611 381.547 381.487 381.506 381.387 381.428C381.286 381.35 381.215 381.241 381.185 381.117C381.106 380.779 379.143 372.601 381.692 355.252C384.242 337.904 399.65 322.258 399.797 322.1C399.904 321.996 400.048 321.938 400.197 321.938C400.347 321.938 400.49 321.996 400.598 322.1C400.651 322.153 400.692 322.215 400.721 322.284C400.75 322.353 400.764 322.426 400.764 322.501C400.764 322.575 400.75 322.649 400.721 322.718C400.692 322.786 400.651 322.849 400.598 322.901C400.451 323.059 385.313 338.366 382.809 355.41C380.305 372.454 382.256 380.768 382.279 380.847C382.299 380.918 382.305 380.992 382.295 381.066C382.285 381.139 382.26 381.209 382.222 381.273C382.184 381.336 382.134 381.391 382.074 381.434C382.013 381.477 381.945 381.508 381.873 381.523L381.738 381.546Z" fill="#263238"/>
<path d="M381.738 388.731C381.61 388.73 381.486 388.686 381.386 388.606C381.286 388.527 381.215 388.416 381.185 388.291C381.185 388.088 376.019 366.995 372.973 345.664C369.928 324.334 371.417 312.794 371.428 312.682C371.45 312.535 371.529 312.403 371.646 312.312C371.764 312.222 371.912 312.18 372.06 312.197C372.208 312.216 372.342 312.294 372.433 312.412C372.524 312.531 372.564 312.68 372.545 312.828C372.545 312.941 371.056 324.311 374.09 345.54C377.124 366.769 382.234 387.852 382.279 388.066C382.298 388.137 382.302 388.211 382.292 388.284C382.281 388.357 382.256 388.426 382.218 388.49C382.181 388.553 382.131 388.607 382.071 388.651C382.012 388.694 381.945 388.726 381.873 388.743L381.738 388.731Z" fill="#263238"/>
<path d="M346.849 315.84C346.849 315.84 340.701 317.374 340.182 306.094C339.663 294.814 347.424 287.11 347.424 287.11C347.424 287.11 347.424 293.269 350.503 297.882C353.583 302.496 353.064 316.867 346.849 315.84Z" fill="#F6B9D5"/>
<path d="M371.992 317.893C371.992 317.893 365.833 319.427 365.325 308.136C364.818 296.845 372.499 289.163 372.499 289.163C372.499 289.163 372.499 295.322 375.579 299.935C378.658 304.549 378.139 318.908 371.992 317.893Z" fill="#F6B9D5"/>
<path d="M397.383 328.248C397.383 328.248 391.382 326.161 397.135 316.438C402.888 306.715 413.548 304.492 413.548 304.492C413.548 304.492 410.164 309.647 410.22 315.197C410.276 320.747 401.963 332.433 397.383 328.248Z" fill="#F6B9D5"/>
<path d="M379.166 376.369C379.166 376.369 383.272 357.903 391.991 349.172C397.165 343.993 404.163 341.049 411.483 340.972C411.483 340.972 401.23 345.078 398.15 353.278C395.071 361.479 395.071 379.448 395.071 379.448H360.193C360.193 379.448 361.219 372.77 352.5 365.077C343.781 357.384 329.376 352.252 329.376 352.252C329.376 352.252 345.281 346.612 356.561 351.225C367.841 355.839 376.064 375.342 376.064 375.342L379.166 376.369Z" fill="#F6B9D5"/>
<path d="M394.575 421.511H359.663L355.58 382.009H398.658L394.575 421.511Z" fill="white"/>
<path d="M394.563 422.064H359.663C359.525 422.065 359.393 422.014 359.291 421.922C359.188 421.831 359.124 421.704 359.11 421.567L355.015 382.087C355.006 382.009 355.014 381.929 355.037 381.853C355.06 381.778 355.099 381.708 355.151 381.648C355.205 381.591 355.27 381.546 355.341 381.515C355.413 381.484 355.49 381.468 355.568 381.467H398.658C398.736 381.466 398.814 381.481 398.886 381.512C398.958 381.544 399.022 381.59 399.075 381.648C399.131 381.705 399.173 381.775 399.198 381.851C399.223 381.927 399.231 382.008 399.222 382.087L395.127 421.567C395.113 421.706 395.047 421.834 394.942 421.926C394.838 422.018 394.702 422.067 394.563 422.064ZM360.17 420.936H394.01L397.992 382.584H356.2L360.17 420.936Z" fill="#263238"/>
<path d="M356.38 389.758H397.857L398.658 382.009H355.58L356.38 389.758Z" fill="#263238"/>
<path d="M397.857 390.288H356.38C356.24 390.289 356.104 390.237 356 390.143C355.896 390.049 355.83 389.92 355.816 389.78L355.015 382.031C355.006 381.952 355.014 381.873 355.037 381.797C355.06 381.721 355.099 381.651 355.151 381.591C355.205 381.535 355.27 381.49 355.341 381.459C355.413 381.428 355.49 381.411 355.568 381.411H398.658C398.736 381.409 398.814 381.425 398.886 381.456C398.958 381.487 399.022 381.533 399.075 381.591C399.131 381.649 399.173 381.719 399.198 381.795C399.223 381.871 399.231 381.951 399.222 382.031L398.421 389.78C398.407 389.92 398.341 390.049 398.237 390.143C398.133 390.237 397.997 390.289 397.857 390.288ZM356.888 389.16H397.349L398.037 382.539H356.2L356.888 389.16Z" fill="#263238"/>
<path d="M402.775 374.316H351.474V383.554H402.775V374.316Z" fill="white"/>
<path d="M402.764 384.107H351.474C351.324 384.107 351.181 384.047 351.075 383.941C350.969 383.836 350.91 383.692 350.91 383.543V374.316C350.91 374.166 350.969 374.022 351.075 373.917C351.181 373.811 351.324 373.752 351.474 373.752H402.764C402.913 373.752 403.057 373.811 403.163 373.917C403.268 374.022 403.328 374.166 403.328 374.316V383.52C403.331 383.596 403.319 383.672 403.292 383.743C403.265 383.814 403.224 383.879 403.171 383.933C403.118 383.988 403.055 384.032 402.985 384.062C402.915 384.091 402.84 384.107 402.764 384.107ZM352.004 382.979H402.166V374.88H352.038L352.004 382.979Z" fill="#263238"/>
</svg>
