<svg width="500" height="500" viewBox="0 0 500 500" fill="none" xmlns="http://www.w3.org/2000/svg">
<path d="M436.874 119.373C436.874 119.373 407.338 52.9176 342.113 43.0724C276.889 33.2271 231.355 81.2227 183.359 105.836C158.217 118.733 129.505 113.724 102.825 119.964C17.5036 139.888 -14.6288 264.898 20.9125 335.968C51.6789 397.501 105.828 429.498 188.282 436.882C270.735 444.266 328.576 452.88 402.416 392.578C476.255 332.276 471.332 206.749 436.874 119.373Z" fill="#F6B9D5"/>
<path opacity="0.7" d="M436.874 119.373C436.874 119.373 407.338 52.9176 342.113 43.0724C276.889 33.2271 231.355 81.2227 183.359 105.836C158.217 118.733 129.505 113.724 102.825 119.964C17.5036 139.888 -14.6288 264.898 20.9125 335.968C51.6789 397.501 105.828 429.498 188.282 436.882C270.735 444.266 328.576 452.88 402.416 392.578C476.255 332.276 471.332 206.749 436.874 119.373Z" fill="white"/>
<path d="M471.739 210.245H428.26C428.097 210.245 427.94 210.18 427.825 210.064C427.709 209.949 427.645 209.792 427.645 209.629V198.959C427.645 198.796 427.709 198.64 427.825 198.524C427.94 198.409 428.097 198.344 428.26 198.344C428.423 198.344 428.58 198.409 428.695 198.524C428.81 198.64 428.875 198.796 428.875 198.959V209.014H471.739C471.902 209.014 472.059 209.079 472.174 209.194C472.289 209.31 472.354 209.466 472.354 209.629C472.354 209.792 472.289 209.949 472.174 210.064C472.059 210.18 471.902 210.245 471.739 210.245Z" fill="#263238"/>
<path d="M449.587 225.012H422.513C422.35 225.012 422.193 224.948 422.078 224.832C421.962 224.717 421.897 224.56 421.897 224.397C421.897 224.234 421.962 224.077 422.078 223.962C422.193 223.847 422.35 223.782 422.513 223.782H448.972V212.09C448.972 211.927 449.037 211.771 449.152 211.655C449.267 211.54 449.424 211.475 449.587 211.475C449.75 211.475 449.907 211.54 450.022 211.655C450.138 211.771 450.203 211.927 450.203 212.09V224.397C450.203 224.56 450.138 224.717 450.022 224.832C449.907 224.948 449.75 225.012 449.587 225.012Z" fill="#263238"/>
<path d="M464.355 238.956H429.072C428.909 238.956 428.753 238.891 428.637 238.775C428.522 238.66 428.457 238.504 428.457 238.34V228.495C428.457 228.332 428.522 228.175 428.637 228.06C428.753 227.945 428.909 227.88 429.072 227.88C429.236 227.88 429.392 227.945 429.507 228.06C429.623 228.175 429.688 228.332 429.688 228.495V237.725H464.355C464.518 237.725 464.675 237.79 464.79 237.905C464.906 238.021 464.971 238.177 464.971 238.34C464.971 238.504 464.906 238.66 464.79 238.775C464.675 238.891 464.518 238.956 464.355 238.956Z" fill="#263238"/>
<path d="M480.759 225.825H461.069C460.906 225.825 460.749 225.76 460.634 225.644C460.518 225.529 460.454 225.372 460.454 225.209C460.457 225.047 460.523 224.892 460.637 224.778C460.752 224.663 460.907 224.597 461.069 224.594H480.759C480.923 224.594 481.079 224.659 481.195 224.774C481.31 224.89 481.375 225.046 481.375 225.209C481.375 225.372 481.31 225.529 481.195 225.644C481.079 225.76 480.923 225.825 480.759 225.825Z" fill="#263238"/>
<path d="M449.587 257.822C449.424 257.822 449.267 257.757 449.152 257.641C449.037 257.526 448.972 257.369 448.972 257.206V243.263C448.972 243.1 449.037 242.943 449.152 242.828C449.267 242.712 449.424 242.648 449.587 242.648C449.75 242.648 449.907 242.712 450.022 242.828C450.137 242.943 450.202 243.1 450.202 243.263V257.206C450.202 257.369 450.137 257.526 450.022 257.641C449.907 257.757 449.75 257.822 449.587 257.822Z" fill="#263238"/>
<path d="M476.661 208.595C476.498 208.595 476.342 208.531 476.226 208.415C476.111 208.3 476.046 208.143 476.046 207.98V197.323C476.046 197.159 476.111 197.003 476.226 196.888C476.342 196.772 476.498 196.707 476.661 196.707C476.824 196.707 476.981 196.772 477.096 196.888C477.212 197.003 477.277 197.159 477.277 197.323V207.98C477.277 208.143 477.212 208.3 477.096 208.415C476.981 208.531 476.824 208.595 476.661 208.595Z" fill="#263238"/>
<path d="M451.224 194.652C451.061 194.652 450.904 194.587 450.789 194.472C450.673 194.356 450.608 194.2 450.608 194.037V182.555C450.608 182.392 450.673 182.235 450.789 182.12C450.904 182.004 451.061 181.939 451.224 181.939C451.387 181.939 451.543 182.004 451.659 182.12C451.774 182.235 451.839 182.392 451.839 182.555V194.037C451.839 194.2 451.774 194.356 451.659 194.472C451.543 194.587 451.387 194.652 451.224 194.652Z" fill="#263238"/>
<path d="M491.429 196.289H465.992C465.829 196.289 465.672 196.224 465.557 196.109C465.441 195.993 465.376 195.837 465.376 195.674C465.38 195.511 465.445 195.357 465.56 195.242C465.675 195.127 465.83 195.061 465.992 195.058H491.429C491.593 195.058 491.749 195.123 491.865 195.238C491.98 195.354 492.045 195.51 492.045 195.674C492.045 195.837 491.98 195.993 491.865 196.109C491.749 196.224 491.593 196.289 491.429 196.289Z" fill="#263238"/>
<path d="M432.358 93.7384H397.075C396.912 93.7384 396.756 93.6736 396.64 93.5582C396.525 93.4428 396.46 93.2863 396.46 93.1231C396.46 92.9599 396.525 92.8034 396.64 92.688C396.756 92.5726 396.912 92.5078 397.075 92.5078H432.358C432.521 92.5078 432.678 92.5726 432.793 92.688C432.909 92.8034 432.974 92.9599 432.974 93.1231C432.974 93.2863 432.909 93.4428 432.793 93.5582C432.678 93.6736 432.521 93.7384 432.358 93.7384Z" fill="#263238"/>
<path d="M410.206 108.506H395.439C395.275 108.506 395.119 108.441 395.003 108.326C394.888 108.211 394.823 108.054 394.823 107.891C394.823 107.728 394.888 107.571 395.003 107.456C395.119 107.34 395.275 107.276 395.439 107.276H409.591V95.5844C409.591 95.4212 409.656 95.2647 409.771 95.1493C409.887 95.0339 410.043 94.9691 410.206 94.9691C410.37 94.9691 410.526 95.0339 410.642 95.1493C410.757 95.2647 410.822 95.4212 410.822 95.5844V107.891C410.822 108.054 410.757 108.211 410.642 108.326C410.526 108.441 410.37 108.506 410.206 108.506Z" fill="#263238"/>
<path d="M424.974 122.45H395.439C395.275 122.45 395.119 122.385 395.003 122.269C394.888 122.154 394.823 121.997 394.823 121.834C394.823 121.671 394.888 121.515 395.003 121.399C395.119 121.284 395.275 121.219 395.439 121.219H424.974C425.137 121.219 425.294 121.284 425.409 121.399C425.525 121.515 425.59 121.671 425.59 121.834C425.59 121.997 425.525 122.154 425.409 122.269C425.294 122.385 425.137 122.45 424.974 122.45Z" fill="#263238"/>
<path d="M441.379 109.331H421.689C421.526 109.328 421.372 109.262 421.257 109.147C421.142 109.032 421.076 108.878 421.073 108.715C421.073 108.552 421.138 108.396 421.253 108.28C421.369 108.165 421.525 108.1 421.689 108.1H441.379C441.542 108.1 441.699 108.165 441.814 108.28C441.93 108.396 441.994 108.552 441.994 108.715C441.994 108.879 441.93 109.035 441.814 109.151C441.699 109.266 441.542 109.331 441.379 109.331Z" fill="#263238"/>
<path d="M410.206 141.328C410.043 141.328 409.886 141.263 409.771 141.148C409.656 141.032 409.591 140.876 409.591 140.713V126.757C409.591 126.594 409.656 126.437 409.771 126.322C409.886 126.206 410.043 126.142 410.206 126.142C410.369 126.142 410.526 126.206 410.641 126.322C410.757 126.437 410.821 126.594 410.821 126.757V140.713C410.821 140.876 410.757 141.032 410.641 141.148C410.526 141.263 410.369 141.328 410.206 141.328V141.328Z" fill="#263238"/>
<path d="M437.28 92.1016C437.117 92.1016 436.961 92.0368 436.845 91.9214C436.73 91.806 436.665 91.6495 436.665 91.4863V80.8165C436.665 80.6533 436.73 80.4968 436.845 80.3814C436.961 80.266 437.117 80.2012 437.28 80.2012C437.444 80.2012 437.6 80.266 437.715 80.3814C437.831 80.4968 437.896 80.6533 437.896 80.8165V91.4863C437.896 91.6495 437.831 91.806 437.715 91.9214C437.6 92.0368 437.444 92.1016 437.28 92.1016Z" fill="#263238"/>
<path d="M411.843 78.146C411.68 78.146 411.524 78.0812 411.408 77.9658C411.293 77.8504 411.228 77.6939 411.228 77.5307V66.0487C411.228 65.8855 411.293 65.729 411.408 65.6136C411.524 65.4982 411.68 65.4333 411.843 65.4333C412.007 65.4333 412.163 65.4982 412.278 65.6136C412.394 65.729 412.459 65.8855 412.459 66.0487V77.5307C412.459 77.6939 412.394 77.8504 412.278 77.9658C412.163 78.0812 412.007 78.146 411.843 78.146Z" fill="#263238"/>
<path d="M452.049 79.7951H426.611C426.449 79.792 426.294 79.7261 426.179 79.6114C426.065 79.4967 425.999 79.342 425.996 79.1798C425.996 79.0166 426.06 78.8601 426.176 78.7447C426.291 78.6293 426.448 78.5645 426.611 78.5645H452.049C452.212 78.5645 452.368 78.6293 452.484 78.7447C452.599 78.8601 452.664 79.0166 452.664 79.1798C452.664 79.343 452.599 79.4995 452.484 79.6149C452.368 79.7303 452.212 79.7951 452.049 79.7951Z" fill="#263238"/>
<path d="M105.828 317.718H62.337C62.1738 317.718 62.0173 317.653 61.9019 317.537C61.7865 317.422 61.7217 317.265 61.7217 317.102V306.432C61.7248 306.27 61.7907 306.116 61.9054 306.001C62.0201 305.886 62.1748 305.82 62.337 305.817C62.5002 305.817 62.6567 305.882 62.7721 305.997C62.8875 306.113 62.9523 306.269 62.9523 306.432V316.487H105.828C105.992 316.487 106.148 316.552 106.263 316.667C106.379 316.783 106.444 316.939 106.444 317.102C106.444 317.265 106.379 317.422 106.263 317.537C106.148 317.653 105.992 317.718 105.828 317.718V317.718Z" fill="#263238"/>
<path d="M83.6761 332.485H56.6017C56.4385 332.485 56.2819 332.421 56.1666 332.305C56.0512 332.19 55.9863 332.033 55.9863 331.87C55.9863 331.707 56.0512 331.55 56.1666 331.435C56.2819 331.32 56.4385 331.255 56.6017 331.255H83.0607V319.564C83.0607 319.4 83.1256 319.244 83.241 319.128C83.3564 319.013 83.5129 318.948 83.6761 318.948C83.8393 318.948 83.9958 319.013 84.1112 319.128C84.2266 319.244 84.2914 319.4 84.2914 319.564V331.87C84.2914 332.033 84.2266 332.19 84.1112 332.305C83.9958 332.421 83.8393 332.485 83.6761 332.485Z" fill="#263238"/>
<path d="M98.4441 346.429H63.1612C62.998 346.429 62.8415 346.364 62.7261 346.249C62.6107 346.133 62.5459 345.977 62.5459 345.813V335.968C62.5459 335.805 62.6107 335.648 62.7261 335.533C62.8415 335.418 62.998 335.353 63.1612 335.353C63.3244 335.353 63.4809 335.418 63.5963 335.533C63.7117 335.648 63.7766 335.805 63.7766 335.968V345.198H98.4441C98.6063 345.201 98.761 345.267 98.8757 345.382C98.9904 345.497 99.0563 345.651 99.0594 345.813C99.0594 345.894 99.0435 345.974 99.0126 346.049C98.9817 346.124 98.9363 346.191 98.8792 346.249C98.8221 346.306 98.7542 346.351 98.6796 346.382C98.6049 346.413 98.5249 346.429 98.4441 346.429Z" fill="#263238"/>
<path d="M114.849 333.31H95.1588C94.9956 333.31 94.8391 333.245 94.7237 333.13C94.6083 333.014 94.5435 332.858 94.5435 332.695C94.5435 332.531 94.6083 332.375 94.7237 332.26C94.8391 332.144 94.9956 332.079 95.1588 332.079H114.849C115.012 332.079 115.169 332.144 115.284 332.26C115.4 332.375 115.465 332.531 115.465 332.695C115.465 332.858 115.4 333.014 115.284 333.13C115.169 333.245 115.012 333.31 114.849 333.31Z" fill="#263238"/>
<path d="M83.6764 365.307C83.5132 365.307 83.3567 365.242 83.2413 365.127C83.1259 365.011 83.061 364.855 83.061 364.692V350.736C83.061 350.573 83.1259 350.416 83.2413 350.301C83.3567 350.185 83.5132 350.121 83.6764 350.121C83.8386 350.124 83.9933 350.19 84.108 350.304C84.2227 350.419 84.2885 350.574 84.2917 350.736V364.692C84.2885 364.854 84.2227 365.008 84.108 365.123C83.9933 365.238 83.8386 365.304 83.6764 365.307V365.307Z" fill="#263238"/>
<path d="M110.751 316.081C110.588 316.081 110.431 316.016 110.316 315.901C110.201 315.785 110.136 315.629 110.136 315.466V304.796C110.136 304.633 110.201 304.476 110.316 304.361C110.431 304.245 110.588 304.18 110.751 304.18C110.914 304.18 111.071 304.245 111.186 304.361C111.302 304.476 111.366 304.633 111.366 304.796V315.466C111.363 315.628 111.297 315.782 111.183 315.897C111.068 316.012 110.913 316.078 110.751 316.081Z" fill="#263238"/>
<path d="M85.3136 302.125C85.1504 302.125 84.9939 302.06 84.8785 301.945C84.7631 301.83 84.6982 301.673 84.6982 301.51V290.028C84.6982 289.865 84.7631 289.708 84.8785 289.593C84.9939 289.477 85.1504 289.412 85.3136 289.412C85.4768 289.412 85.6333 289.477 85.7487 289.593C85.8641 289.708 85.9289 289.865 85.9289 290.028V301.51C85.9289 301.673 85.8641 301.83 85.7487 301.945C85.6333 302.06 85.4768 302.125 85.3136 302.125Z" fill="#263238"/>
<path d="M117.31 303.774H100.081C99.918 303.774 99.7615 303.71 99.6461 303.594C99.5307 303.479 99.4658 303.322 99.4658 303.159C99.4658 302.996 99.5307 302.839 99.6461 302.724C99.7615 302.609 99.918 302.544 100.081 302.544H117.31C117.474 302.544 117.63 302.609 117.745 302.724C117.861 302.839 117.926 302.996 117.926 303.159C117.926 303.322 117.861 303.479 117.745 303.594C117.63 303.71 117.474 303.774 117.31 303.774Z" fill="#263238"/>
<path d="M61.5246 210.245H18.0333C17.8711 210.241 17.7164 210.176 17.6017 210.061C17.487 209.946 17.4211 209.791 17.418 209.629V198.959C17.418 198.796 17.4828 198.64 17.5982 198.524C17.7136 198.409 17.8701 198.344 18.0333 198.344C18.1965 198.344 18.353 198.409 18.4684 198.524C18.5838 198.64 18.6486 198.796 18.6486 198.959V209.014H61.5246C61.6878 209.014 61.8443 209.079 61.9597 209.194C62.0751 209.31 62.14 209.466 62.14 209.629C62.1368 209.791 62.071 209.946 61.9563 210.061C61.8415 210.176 61.6868 210.241 61.5246 210.245V210.245Z" fill="#263238"/>
<path d="M39.3728 225.012H12.2984C12.1352 225.012 11.9787 224.948 11.8633 224.832C11.7479 224.717 11.6831 224.56 11.6831 224.397C11.6831 224.234 11.7479 224.077 11.8633 223.962C11.9787 223.847 12.1352 223.782 12.2984 223.782H38.7575V212.09C38.7575 211.927 38.8223 211.771 38.9377 211.655C39.0531 211.54 39.2096 211.475 39.3728 211.475C39.536 211.475 39.6925 211.54 39.8079 211.655C39.9233 211.771 39.9882 211.927 39.9882 212.09V224.397C39.985 224.559 39.9192 224.714 39.8045 224.829C39.6897 224.943 39.535 225.009 39.3728 225.012Z" fill="#263238"/>
<path d="M54.1409 238.956H18.858C18.6948 238.956 18.5383 238.891 18.4229 238.775C18.3075 238.66 18.2427 238.504 18.2427 238.34V228.495C18.2427 228.332 18.3075 228.175 18.4229 228.06C18.5383 227.945 18.6948 227.88 18.858 227.88C19.0212 227.88 19.1777 227.945 19.2931 228.06C19.4085 228.175 19.4733 228.332 19.4733 228.495V237.725H54.1409C54.3041 237.725 54.4606 237.79 54.576 237.905C54.6914 238.021 54.7562 238.177 54.7562 238.34C54.7562 238.504 54.6914 238.66 54.576 238.775C54.4606 238.891 54.3041 238.956 54.1409 238.956Z" fill="#263238"/>
<path d="M70.5451 225.825H50.8546C50.6914 225.825 50.5349 225.76 50.4195 225.644C50.3041 225.529 50.2393 225.372 50.2393 225.209C50.2393 225.046 50.3041 224.89 50.4195 224.774C50.5349 224.659 50.6914 224.594 50.8546 224.594H70.5451C70.7083 224.594 70.8648 224.659 70.9802 224.774C71.0956 224.89 71.1604 225.046 71.1604 225.209C71.1604 225.372 71.0956 225.529 70.9802 225.644C70.8648 225.76 70.7083 225.825 70.5451 225.825Z" fill="#263238"/>
<path d="M39.3727 257.822C39.2095 257.822 39.0529 257.757 38.9375 257.641C38.8222 257.526 38.7573 257.369 38.7573 257.206V243.263C38.7573 243.1 38.8222 242.943 38.9375 242.828C39.0529 242.712 39.2095 242.648 39.3727 242.648C39.5358 242.648 39.6924 242.712 39.8078 242.828C39.9232 242.943 39.988 243.1 39.988 243.263V257.206C39.988 257.369 39.9232 257.526 39.8078 257.641C39.6924 257.757 39.5358 257.822 39.3727 257.822Z" fill="#263238"/>
<path d="M66.4469 208.595C66.2837 208.595 66.1272 208.531 66.0118 208.415C65.8964 208.3 65.8315 208.143 65.8315 207.98V197.323C65.8315 197.159 65.8964 197.003 66.0118 196.888C66.1272 196.772 66.2837 196.707 66.4469 196.707C66.6101 196.707 66.7666 196.772 66.882 196.888C66.9974 197.003 67.0622 197.159 67.0622 197.323V207.98C67.0622 208.143 66.9974 208.3 66.882 208.415C66.7666 208.531 66.6101 208.595 66.4469 208.595Z" fill="#263238"/>
<path d="M41.0094 194.652C40.8462 194.652 40.6897 194.587 40.5743 194.472C40.4589 194.356 40.394 194.2 40.394 194.037V182.555C40.394 182.392 40.4589 182.235 40.5743 182.12C40.6897 182.004 40.8462 181.939 41.0094 181.939C41.1726 181.939 41.3291 182.004 41.4445 182.12C41.5599 182.235 41.6247 182.392 41.6247 182.555V194.037C41.6247 194.2 41.5599 194.356 41.4445 194.472C41.3291 194.587 41.1726 194.652 41.0094 194.652Z" fill="#263238"/>
<path d="M81.2151 196.289H55.7774C55.6142 196.289 55.4577 196.224 55.3423 196.109C55.2269 195.993 55.1621 195.837 55.1621 195.674C55.1621 195.51 55.2269 195.354 55.3423 195.238C55.4577 195.123 55.6142 195.058 55.7774 195.058H81.2151C81.3773 195.061 81.532 195.127 81.6467 195.242C81.7614 195.357 81.8272 195.511 81.8304 195.674C81.8304 195.837 81.7656 195.993 81.6502 196.109C81.5348 196.224 81.3783 196.289 81.2151 196.289Z" fill="#263238"/>
<path d="M115.674 133.119H72.1827C72.0195 133.119 71.863 133.055 71.7476 132.939C71.6322 132.824 71.5674 132.667 71.5674 132.504V121.834C71.5705 121.672 71.6364 121.517 71.7511 121.403C71.8658 121.288 72.0205 121.222 72.1827 121.219C72.3459 121.219 72.5024 121.284 72.6178 121.399C72.7332 121.515 72.798 121.671 72.798 121.834V131.889H115.674C115.837 131.889 115.994 131.954 116.109 132.069C116.225 132.184 116.289 132.341 116.289 132.504C116.289 132.667 116.225 132.824 116.109 132.939C115.994 133.055 115.837 133.119 115.674 133.119V133.119Z" fill="#263238"/>
<path d="M93.5213 147.887H66.4469C66.2837 147.887 66.1272 147.822 66.0118 147.707C65.8964 147.592 65.8315 147.435 65.8315 147.272C65.8315 147.109 65.8964 146.952 66.0118 146.837C66.1272 146.721 66.2837 146.657 66.4469 146.657H92.9059V134.965C92.9059 134.802 92.9708 134.646 93.0862 134.53C93.2016 134.415 93.3581 134.35 93.5213 134.35C93.6021 134.35 93.6821 134.366 93.7568 134.397C93.8314 134.428 93.8992 134.473 93.9564 134.53C94.0135 134.587 94.0588 134.655 94.0898 134.73C94.1207 134.805 94.1366 134.885 94.1366 134.965V147.272C94.1366 147.353 94.1207 147.433 94.0898 147.507C94.0588 147.582 94.0135 147.65 93.9564 147.707C93.8992 147.764 93.8314 147.809 93.7568 147.84C93.6821 147.871 93.6021 147.887 93.5213 147.887V147.887Z" fill="#263238"/>
<path d="M108.29 161.831H73.0069C72.8437 161.831 72.6872 161.766 72.5718 161.65C72.4564 161.535 72.3916 161.378 72.3916 161.215V151.37C72.3916 151.207 72.4564 151.05 72.5718 150.935C72.6872 150.819 72.8437 150.755 73.0069 150.755C73.1701 150.755 73.3266 150.819 73.442 150.935C73.5574 151.05 73.6223 151.207 73.6223 151.37V160.6H108.29C108.452 160.603 108.607 160.669 108.721 160.784C108.836 160.898 108.902 161.053 108.905 161.215C108.905 161.296 108.889 161.376 108.858 161.451C108.827 161.525 108.782 161.593 108.725 161.65C108.668 161.707 108.6 161.753 108.525 161.784C108.451 161.815 108.371 161.831 108.29 161.831Z" fill="#263238"/>
<path d="M116.486 148.712H105.004C104.841 148.712 104.684 148.647 104.569 148.532C104.454 148.416 104.389 148.26 104.389 148.096C104.389 147.933 104.454 147.777 104.569 147.661C104.684 147.546 104.841 147.481 105.004 147.481H116.486C116.649 147.481 116.806 147.546 116.921 147.661C117.037 147.777 117.101 147.933 117.101 148.096C117.101 148.26 117.037 148.416 116.921 148.532C116.806 148.647 116.649 148.712 116.486 148.712Z" fill="#263238"/>
<path d="M93.5216 180.709C93.3584 180.709 93.2019 180.644 93.0865 180.529C92.9711 180.413 92.9062 180.257 92.9062 180.093V166.138C92.9062 165.975 92.9711 165.818 93.0865 165.703C93.2019 165.587 93.3584 165.523 93.5216 165.523C93.6838 165.526 93.8385 165.592 93.9532 165.706C94.0679 165.821 94.1338 165.976 94.1369 166.138V180.093C94.1338 180.256 94.0679 180.41 93.9532 180.525C93.8385 180.64 93.6838 180.706 93.5216 180.709V180.709Z" fill="#263238"/>
<path d="M95.1588 117.527C94.9956 117.527 94.8391 117.462 94.7237 117.347C94.6083 117.231 94.5435 117.075 94.5435 116.912V105.43C94.5435 105.266 94.6083 105.11 94.7237 104.995C94.8391 104.879 94.9956 104.814 95.1588 104.814C95.322 104.814 95.4785 104.879 95.5939 104.995C95.7093 105.11 95.7741 105.266 95.7741 105.43V116.912C95.7741 117.075 95.7093 117.231 95.5939 117.347C95.4785 117.462 95.322 117.527 95.1588 117.527Z" fill="#263238"/>
<path d="M114.849 119.176H109.926C109.763 119.176 109.607 119.111 109.491 118.996C109.376 118.88 109.311 118.724 109.311 118.561C109.311 118.398 109.376 118.241 109.491 118.126C109.607 118.01 109.763 117.945 109.926 117.945H114.849C115.012 117.945 115.169 118.01 115.284 118.126C115.399 118.241 115.464 118.398 115.464 118.561C115.464 118.724 115.399 118.88 115.284 118.996C115.169 119.111 115.012 119.176 114.849 119.176Z" fill="#263238"/>
<path d="M460.257 351.351H416.766C416.603 351.351 416.446 351.287 416.331 351.171C416.215 351.056 416.15 350.899 416.15 350.736V340.079C416.15 339.915 416.215 339.759 416.331 339.643C416.446 339.528 416.603 339.463 416.766 339.463C416.929 339.463 417.085 339.528 417.201 339.643C417.316 339.759 417.381 339.915 417.381 340.079V350.121H460.257C460.419 350.124 460.574 350.19 460.689 350.304C460.803 350.419 460.869 350.574 460.872 350.736C460.872 350.899 460.808 351.056 460.692 351.171C460.577 351.287 460.42 351.351 460.257 351.351Z" fill="#263238"/>
<path d="M438.105 366.119H411.031C410.868 366.119 410.711 366.054 410.596 365.939C410.48 365.824 410.416 365.667 410.416 365.504C410.416 365.341 410.48 365.184 410.596 365.069C410.711 364.953 410.868 364.889 411.031 364.889H437.49V353.197C437.49 353.034 437.555 352.878 437.67 352.762C437.786 352.647 437.942 352.582 438.105 352.582C438.267 352.585 438.422 352.651 438.537 352.766C438.652 352.88 438.717 353.035 438.721 353.197V365.504C438.721 365.667 438.656 365.824 438.54 365.939C438.425 366.054 438.268 366.119 438.105 366.119Z" fill="#263238"/>
<path d="M452.873 380.075H417.59C417.427 380.075 417.271 380.01 417.155 379.895C417.04 379.779 416.975 379.623 416.975 379.46V369.614C416.975 369.451 417.04 369.295 417.155 369.179C417.271 369.064 417.427 368.999 417.59 368.999C417.754 368.999 417.91 369.064 418.026 369.179C418.141 369.295 418.206 369.451 418.206 369.614V378.844H452.873C453.037 378.844 453.193 378.909 453.308 379.024C453.424 379.14 453.489 379.296 453.489 379.46C453.485 379.622 453.42 379.776 453.305 379.891C453.19 380.006 453.036 380.072 452.873 380.075Z" fill="#263238"/>
<path d="M469.277 366.944H449.587C449.424 366.944 449.267 366.879 449.152 366.764C449.037 366.648 448.972 366.492 448.972 366.328C448.972 366.165 449.037 366.009 449.152 365.893C449.267 365.778 449.424 365.713 449.587 365.713H469.277C469.441 365.713 469.597 365.778 469.713 365.893C469.828 366.009 469.893 366.165 469.893 366.328C469.893 366.492 469.828 366.648 469.713 366.764C469.597 366.879 469.441 366.944 469.277 366.944Z" fill="#263238"/>
<path d="M438.105 398.941C437.942 398.941 437.785 398.876 437.67 398.761C437.555 398.645 437.49 398.489 437.49 398.326V384.382C437.49 384.219 437.555 384.062 437.67 383.947C437.785 383.832 437.942 383.767 438.105 383.767C438.268 383.767 438.425 383.832 438.54 383.947C438.656 384.062 438.72 384.219 438.72 384.382V398.326C438.72 398.489 438.656 398.645 438.54 398.761C438.425 398.876 438.268 398.941 438.105 398.941Z" fill="#263238"/>
<path d="M465.179 349.715C465.016 349.715 464.86 349.65 464.744 349.534C464.629 349.419 464.564 349.262 464.564 349.099V338.429C464.564 338.266 464.629 338.11 464.744 337.994C464.86 337.879 465.016 337.814 465.179 337.814C465.342 337.817 465.496 337.883 465.611 337.998C465.726 338.113 465.791 338.267 465.795 338.429V349.099C465.795 349.262 465.73 349.419 465.614 349.534C465.499 349.65 465.342 349.715 465.179 349.715Z" fill="#263238"/>
<path d="M439.742 335.771C439.579 335.771 439.422 335.706 439.307 335.591C439.191 335.476 439.126 335.319 439.126 335.156V323.662C439.126 323.498 439.191 323.342 439.307 323.226C439.422 323.111 439.579 323.046 439.742 323.046C439.905 323.046 440.061 323.111 440.177 323.226C440.292 323.342 440.357 323.498 440.357 323.662V335.156C440.357 335.319 440.292 335.476 440.177 335.591C440.061 335.706 439.905 335.771 439.742 335.771Z" fill="#263238"/>
<path d="M479.948 337.408H454.51C454.347 337.408 454.19 337.343 454.075 337.228C453.959 337.112 453.895 336.956 453.895 336.793C453.895 336.63 453.959 336.473 454.075 336.358C454.19 336.242 454.347 336.177 454.51 336.177H479.948C480.111 336.177 480.267 336.242 480.383 336.358C480.498 336.473 480.563 336.63 480.563 336.793C480.563 336.956 480.498 337.112 480.383 337.228C480.267 337.343 480.111 337.408 479.948 337.408Z" fill="#263238"/>
<path d="M389.285 77.1246H119.365V424.575H389.285V77.1246Z" fill="#263238"/>
<path d="M137.677 245.601C137.677 245.601 131.917 248.247 131.438 251.607C130.958 254.966 123.266 285.007 125.432 287.16C127.598 289.314 142.723 289.56 143.683 289.08C144.642 288.6 152.814 259.298 154.5 253.293C156.186 247.287 149.934 239.571 137.677 245.601Z" fill="#F6B9D5"/>
<path d="M140.175 289.893C135.117 289.893 126.638 289.289 124.989 287.603C123.34 285.917 125.334 275.986 129.419 258.068C130.145 254.893 130.65 252.382 130.822 251.582C131.339 247.964 137.086 245.269 137.419 245.109C143.437 242.155 148.901 242.131 152.383 245.035C153.603 246.037 154.508 247.371 154.988 248.875C155.469 250.379 155.504 251.99 155.091 253.514L154.857 254.339C145.122 289.117 144.421 289.462 143.966 289.696C142.715 289.914 141.442 289.98 140.175 289.893ZM145.91 244.051C143.131 244.144 140.41 244.863 137.948 246.155C136.434 246.844 132.41 249.207 132.053 251.681C131.93 252.542 131.388 254.942 130.638 258.265C128.964 265.649 124.484 285.105 125.875 286.717C127.672 288.514 141.529 288.896 143.338 288.539C143.867 287.591 145.935 281.61 153.688 253.933L153.922 253.108C154.269 251.813 154.235 250.445 153.825 249.168C153.414 247.891 152.645 246.76 151.608 245.909C149.992 244.627 147.971 243.968 145.91 244.051V244.051Z" fill="#263238"/>
<path d="M150.23 341.715C150.23 341.715 141.307 365.405 138.539 380.481C135.77 395.557 135.77 430.938 135.77 430.938H238.222C238.222 430.938 239.145 383.558 236.376 365.405C234.976 355.511 232.816 345.74 229.915 336.177L150.23 341.715Z" fill="#F6B9D5"/>
<path d="M238.222 431.553H135.77C135.606 431.553 135.45 431.488 135.335 431.373C135.219 431.258 135.154 431.101 135.154 430.938C135.154 430.581 135.154 395.323 137.936 380.37C140.717 365.418 149.565 341.74 149.651 341.494C149.694 341.383 149.768 341.287 149.864 341.217C149.96 341.147 150.074 341.106 150.193 341.1L229.878 335.562C230.012 335.553 230.146 335.589 230.258 335.665C230.369 335.741 230.452 335.852 230.493 335.981C233.397 345.577 235.566 355.381 236.979 365.307C239.735 383.312 238.849 430.47 238.837 430.95C238.831 431.11 238.764 431.262 238.649 431.374C238.535 431.486 238.382 431.55 238.222 431.553V431.553ZM136.385 430.323H237.619C237.705 424.748 238.332 382.327 235.773 365.504C234.37 355.806 232.264 346.222 229.472 336.83L150.71 342.306C149.565 345.37 141.726 366.772 139.179 380.592C136.631 394.412 136.41 425.548 136.385 430.323Z" fill="#263238"/>
<path d="M220.684 173.731C220.684 173.731 222.924 172.131 222.284 164.76C221.644 157.388 209.78 145.537 199.529 142.965C189.278 140.393 168.123 147.776 161.379 161.24C154.635 174.703 155.299 249.035 155.299 249.035L211.38 245.835C211.38 245.835 211.06 215.709 211.06 206.737C211.06 197.766 220.684 173.731 220.684 173.731Z" fill="#263238"/>
<path d="M155.337 249.65C155.26 249.653 155.183 249.64 155.111 249.612C155.039 249.585 154.974 249.543 154.918 249.49C154.856 249.434 154.806 249.366 154.772 249.29C154.738 249.213 154.721 249.131 154.721 249.047C154.721 246.007 154.155 174.396 160.875 160.957C167.766 147.075 189.34 139.777 199.763 142.349C209.928 144.884 222.297 156.785 222.986 164.686C223.564 171.331 221.853 173.534 221.287 174.076C220.5 176.057 211.774 198.307 211.774 206.713C211.774 215.586 212.082 245.503 212.094 245.798C212.095 245.958 212.034 246.113 211.924 246.229C211.814 246.346 211.664 246.416 211.504 246.426L155.435 249.625L155.337 249.65ZM194.841 143.063C184.072 143.063 167.766 149.905 161.933 161.523C155.681 174.039 155.866 241.06 155.903 248.407L210.839 245.257C210.839 240.999 210.531 214.921 210.531 206.737C210.531 197.753 219.786 174.494 220.18 173.509C220.224 173.402 220.296 173.308 220.389 173.239C220.389 173.239 222.333 171.54 221.743 164.809C221.152 158.077 209.818 146.152 199.456 143.568C197.944 143.211 196.394 143.041 194.841 143.063V143.063Z" fill="white"/>
<path d="M157.182 232.089C157.102 232.09 157.022 232.076 156.948 232.046C156.873 232.017 156.805 231.973 156.748 231.916C156.691 231.86 156.645 231.793 156.614 231.719C156.583 231.645 156.567 231.566 156.567 231.486C156.567 230.427 156.247 205.445 158.597 196.4C161.059 186.924 172.27 178.358 184.035 170.556C195.8 162.754 200.661 157.277 200.71 157.228C200.762 157.166 200.826 157.116 200.898 157.079C200.97 157.043 201.048 157.021 201.128 157.016C201.209 157.01 201.289 157.02 201.365 157.046C201.442 157.072 201.512 157.113 201.572 157.166C201.694 157.275 201.769 157.428 201.78 157.591C201.792 157.754 201.739 157.915 201.633 158.04C201.437 158.262 196.711 163.566 184.724 171.577C173.156 179.281 162.142 187.662 159.791 196.744C157.478 205.63 157.785 231.203 157.798 231.51C157.798 231.673 157.733 231.83 157.617 231.945C157.502 232.061 157.345 232.126 157.182 232.126V232.089Z" fill="white"/>
<path d="M158.525 201.864H158.414C158.254 201.834 158.111 201.742 158.017 201.609C157.923 201.476 157.884 201.311 157.909 201.15C157.996 200.645 158.069 199.919 158.143 199.144C158.746 193.188 159.989 180.795 171.914 171.553C176.669 167.91 181.138 163.906 185.279 159.578C185.334 159.52 185.401 159.473 185.475 159.441C185.549 159.409 185.629 159.392 185.71 159.392C185.791 159.392 185.87 159.409 185.945 159.441C186.019 159.473 186.085 159.52 186.141 159.578C186.198 159.636 186.244 159.704 186.275 159.779C186.307 159.854 186.323 159.934 186.323 160.015C186.323 160.097 186.307 160.177 186.275 160.252C186.244 160.327 186.198 160.395 186.141 160.452C181.952 164.845 177.426 168.902 172.603 172.586C161.097 181.496 159.891 193.508 159.312 199.329C159.226 200.178 159.152 200.892 159.066 201.408C159.035 201.532 158.966 201.642 158.869 201.724C158.772 201.806 158.651 201.855 158.525 201.864Z" fill="white"/>
<path d="M188.687 157.191C188.543 157.189 188.404 157.136 188.294 157.043C188.169 156.94 188.089 156.792 188.073 156.63C188.057 156.469 188.105 156.308 188.207 156.182C188.922 155.347 189.587 154.472 190.201 153.561C190.294 153.425 190.436 153.331 190.597 153.299C190.758 153.266 190.925 153.299 191.063 153.388C191.197 153.478 191.291 153.618 191.323 153.777C191.356 153.936 191.324 154.102 191.235 154.237C191.235 154.237 190.57 155.247 189.167 156.957C189.109 157.028 189.036 157.086 188.953 157.127C188.87 157.167 188.779 157.189 188.687 157.191V157.191Z" fill="white"/>
<path d="M218.223 236.494C218.223 236.494 227.761 238.648 229.914 239.571C232.068 240.494 234.222 245.417 233.914 247.878C233.606 250.339 227.761 290.951 227.145 297.719C226.53 304.488 231.76 324.179 232.683 327.871C233.606 331.562 234.222 335.254 228.684 338.023C223.146 340.792 199.148 342.638 193.918 343.254C188.687 343.869 155.152 345.407 150.23 344.792C145.307 344.177 140.384 297.867 140.384 284.33C140.384 270.793 138.378 256.308 143.916 252.001C149.454 247.693 177.612 239.571 186.534 237.11C195.456 234.648 218.223 236.494 218.223 236.494Z" fill="#F6B9D5"/>
<path d="M154.574 345.543C152.507 345.543 150.956 345.543 150.156 345.407C144.409 344.681 139.72 296.046 139.72 284.33C139.72 281.438 139.634 278.472 139.535 275.617C139.191 264.541 138.895 255.09 143.498 251.521C149.651 246.733 182.633 237.553 186.374 236.519C195.296 234.058 217.337 235.805 218.273 235.879H218.359C218.753 235.965 227.983 238.057 230.161 238.993C232.622 240.051 234.862 245.232 234.53 247.939C234.444 248.567 234.013 251.631 233.385 256.062C231.576 268.873 228.216 292.735 227.761 297.756C227.207 303.91 231.551 320.905 232.967 326.492L233.274 327.723C234.296 331.796 234.739 335.685 228.955 338.577C224.315 340.891 207.455 342.54 198.385 343.414C196.466 343.611 194.927 343.758 193.992 343.869C189.574 344.386 165.305 345.543 154.574 345.543ZM201.511 236.445C195.899 236.445 190.189 236.741 186.743 237.676C183.051 238.71 150.254 247.829 144.298 252.444C140.2 255.631 140.495 265.292 140.815 275.531C140.914 278.398 141 281.364 141 284.281C141 299.984 146.304 343.623 150.353 344.127C155.276 344.743 188.651 343.204 193.893 342.589C194.841 342.478 196.355 342.331 198.324 342.146C206.655 341.334 224.02 339.685 228.463 337.42C233.385 334.959 233.09 331.809 232.155 327.969L231.847 326.738C230.407 321.09 226.026 303.91 226.592 297.596C227.06 292.526 230.419 268.651 232.228 255.828C232.856 251.447 233.287 248.358 233.361 247.73C233.631 245.577 231.613 240.863 229.73 240.063C227.847 239.263 218.888 237.184 218.187 237.036C217.485 236.888 209.609 236.445 201.511 236.445V236.445Z" fill="#263238"/>
<path d="M227.454 339.869C227.454 339.869 229.3 358.329 230.53 373.712C231.761 389.096 227.146 413.709 228.992 413.401C230.838 413.093 240.991 416.158 241.606 408.478C242.221 400.799 240.991 354.33 238.222 349.407C235.887 344.818 233.832 340.092 232.069 335.254C232.069 335.254 228.069 333.716 227.454 339.869Z" fill="#F6B9D5"/>
<path d="M234.456 414.324C233.28 414.306 232.105 414.228 230.936 414.09C230.326 413.996 229.708 413.955 229.09 413.967C228.967 413.988 228.841 413.979 228.721 413.943C228.602 413.907 228.492 413.843 228.401 413.758C227.675 413.081 227.811 410.718 228.684 401.722C229.497 393.452 230.592 382.142 229.915 373.725C228.684 358.526 226.863 340.079 226.838 339.894V339.771C227.085 337.31 227.86 335.734 229.14 334.947C229.612 334.673 230.138 334.504 230.682 334.451C231.225 334.398 231.774 334.462 232.29 334.639C232.372 334.672 232.447 334.722 232.508 334.786C232.57 334.849 232.617 334.925 232.647 335.008C234.413 339.813 236.468 344.506 238.8 349.062C241.705 354.231 242.812 401.562 242.258 408.478C242.233 409.286 242.042 410.079 241.697 410.81C241.351 411.54 240.86 412.192 240.253 412.724C238.56 413.904 236.514 414.468 234.456 414.324V414.324ZM229.337 412.724C229.78 412.724 230.346 412.724 231.06 412.86C233.398 413.118 237.311 413.536 239.428 411.777C239.91 411.35 240.299 410.828 240.568 410.243C240.837 409.658 240.981 409.024 240.991 408.38C241.643 400.295 240.277 354.231 237.68 349.678C235.37 345.155 233.34 340.494 231.601 335.722C230.98 335.585 230.33 335.686 229.78 336.005C228.869 336.571 228.278 337.9 228.069 339.833C228.192 341.063 229.964 358.858 231.146 373.626C231.823 382.155 230.715 393.526 229.915 401.833C229.447 406.608 228.967 411.53 229.226 412.724H229.337Z" fill="#263238"/>
<path d="M232.684 327.871C232.684 327.871 219.146 335.254 216.07 338.023C212.993 340.792 212.993 340.792 217.916 340.792C222.838 340.792 231.761 341.408 234.837 336.485C237.914 331.562 236.375 324.179 232.684 327.871Z" fill="#F6B9D5"/>
<path d="M221.263 341.432H217.915C214.678 341.432 213.694 341.432 213.399 340.645C213.103 339.857 213.805 339.266 215.663 337.593C218.666 334.885 231.108 328.055 232.314 327.391C234.049 325.705 235.28 326.357 235.735 326.714C237.532 328.141 237.704 333.088 235.353 336.83C232.732 341.014 226.296 341.432 221.263 341.432ZM214.765 340.103C215.355 340.177 216.561 340.177 217.915 340.177H219.453C224.376 340.239 231.76 340.312 234.357 336.153C236.4 332.879 236.215 328.597 235.009 327.637C234.455 327.194 233.692 327.76 233.151 328.289C233.115 328.336 233.068 328.374 233.015 328.4C232.88 328.474 219.478 335.784 216.512 338.466C215.761 339.119 215.097 339.722 214.765 340.103Z" fill="#263238"/>
<path d="M224.069 333.408C224.069 333.408 212.07 327.563 207.763 328.486C203.456 329.409 207.763 423.862 207.763 423.862H225.915C225.915 423.862 213.916 352.484 213.916 347.253C213.916 342.023 224.069 333.408 224.069 333.408Z" fill="#F6B9D5"/>
<path d="M225.914 424.477H207.762C207.603 424.477 207.45 424.416 207.336 424.305C207.221 424.195 207.153 424.045 207.147 423.886C207.147 423.652 206.064 399.999 205.535 376.531C204.44 328.535 206.593 328.104 207.639 327.883C212.107 326.948 223.835 332.609 224.339 332.805C224.433 332.848 224.514 332.915 224.575 332.998C224.636 333.081 224.675 333.179 224.687 333.282C224.699 333.384 224.685 333.488 224.646 333.584C224.607 333.679 224.543 333.763 224.462 333.827C224.364 333.913 214.531 342.318 214.531 347.204C214.531 352.324 226.407 423 226.518 423.714C226.535 423.801 226.532 423.891 226.508 423.976C226.485 424.062 226.442 424.14 226.382 424.206C226.333 424.287 226.264 424.354 226.183 424.401C226.101 424.448 226.009 424.474 225.914 424.477V424.477ZM208.353 423.246H225.188C223.859 415.333 213.3 352.25 213.3 347.253C213.3 342.589 220.598 335.673 222.961 333.568C220.18 332.276 211.307 328.338 207.885 329.089C205.252 331.526 206.753 387.877 208.378 423.246H208.353Z" fill="#263238"/>
<path d="M184.996 209.568C184.996 209.568 185.71 228.544 185.23 230.71C184.75 232.876 168.665 239.571 168.665 239.571L195.1 279.69L205.917 233.59C205.917 233.59 199.911 232.359 199.678 230.464C199.444 228.569 201.117 220.619 201.117 220.619L184.996 209.568Z" fill="white"/>
<path d="M195.099 280.33C194.998 280.331 194.897 280.307 194.807 280.26C194.717 280.213 194.64 280.144 194.583 280.06L168.16 239.94C168.107 239.867 168.072 239.781 168.059 239.691C168.046 239.601 168.055 239.509 168.087 239.423C168.109 239.335 168.152 239.254 168.212 239.185C168.272 239.117 168.347 239.063 168.431 239.03C175.938 235.891 184.27 231.769 184.651 230.575C185.02 228.864 184.59 214.847 184.393 209.592C184.389 209.479 184.417 209.367 184.473 209.268C184.529 209.17 184.611 209.089 184.711 209.034C184.81 208.979 184.923 208.953 185.036 208.958C185.149 208.963 185.259 209 185.353 209.063L201.45 220.139C201.551 220.206 201.629 220.301 201.676 220.413C201.722 220.525 201.733 220.648 201.708 220.767C201.24 222.945 200.084 228.926 200.268 230.415C200.379 231.301 203.333 232.47 206.028 233.012C206.109 233.029 206.185 233.062 206.253 233.11C206.321 233.157 206.379 233.217 206.424 233.287C206.469 233.357 206.499 233.435 206.513 233.516C206.528 233.598 206.526 233.682 206.508 233.762L195.69 279.887C195.664 280.004 195.603 280.11 195.515 280.192C195.427 280.273 195.316 280.326 195.198 280.343L195.099 280.33ZM169.588 239.879L194.841 278.189L205.191 234.058C203.259 233.627 199.321 232.495 199.038 230.55C198.755 228.606 200.034 222.65 200.404 220.89L185.636 210.774C185.796 215.229 186.251 228.914 185.82 230.846C185.365 233.012 174.055 237.996 169.588 239.879V239.879Z" fill="#263238"/>
<path d="M182.891 239.411C182.773 239.409 182.658 239.375 182.558 239.313C182.49 239.268 182.431 239.21 182.385 239.142C182.339 239.074 182.307 238.998 182.291 238.918C182.275 238.838 182.275 238.755 182.292 238.675C182.308 238.595 182.34 238.519 182.386 238.451C184.207 235.719 184.626 230.71 184.626 230.661C184.644 230.5 184.723 230.352 184.846 230.247C184.97 230.142 185.128 230.088 185.29 230.095C185.371 230.101 185.45 230.123 185.522 230.16C185.595 230.197 185.659 230.248 185.712 230.309C185.764 230.371 185.804 230.443 185.829 230.52C185.854 230.597 185.863 230.679 185.856 230.759C185.856 230.981 185.413 236.137 183.395 239.14C183.338 239.221 183.262 239.288 183.175 239.335C183.087 239.382 182.99 239.408 182.891 239.411V239.411Z" fill="#263238"/>
<path d="M192.588 250.081H192.428L177.415 246.204C177.334 246.184 177.258 246.148 177.191 246.099C177.124 246.049 177.067 245.987 177.024 245.915C176.982 245.844 176.953 245.765 176.941 245.682C176.929 245.6 176.933 245.516 176.953 245.435C176.973 245.354 177.009 245.278 177.059 245.211C177.108 245.144 177.171 245.088 177.242 245.045C177.313 245.002 177.393 244.974 177.475 244.962C177.557 244.949 177.641 244.953 177.722 244.974L192.736 248.85C192.817 248.86 192.895 248.885 192.966 248.925C193.037 248.965 193.099 249.019 193.15 249.083C193.2 249.147 193.237 249.22 193.259 249.298C193.281 249.377 193.287 249.459 193.278 249.539C193.268 249.62 193.242 249.698 193.203 249.769C193.163 249.84 193.109 249.903 193.045 249.953C192.981 250.003 192.908 250.04 192.83 250.062C192.751 250.084 192.669 250.091 192.588 250.081V250.081Z" fill="#263238"/>
<path d="M200.17 151.247C200.17 151.247 207.431 159.308 205.412 162.138C203.394 164.969 179.569 174.236 179.569 178.26C179.569 182.284 180.799 187.133 178.338 187.945C175.877 188.757 172.689 187.539 171.483 186.714C170.277 185.89 167.041 190.739 167.447 196.793C167.853 202.848 174.707 205.667 177.526 205.667H181.562C182.546 209.479 184.036 213.142 185.993 216.558C188.823 220.988 208.587 226.637 210.606 225.025C212.624 223.413 220.291 208.891 221.903 202.036C223.515 195.181 219.442 184.29 219.885 181.115C220.328 177.94 221.903 176.278 221.497 172.242C221.091 168.205 208.994 161.757 208.994 161.757C208.994 161.757 201.782 149.635 200.17 151.247Z" fill="white"/>
<path d="M209.227 225.948C208.277 225.924 207.331 225.826 206.396 225.652C200.588 224.692 187.937 220.73 185.537 216.902C183.605 213.583 182.127 210.019 181.143 206.306H177.611C174.744 206.306 167.36 203.501 166.917 196.855C166.572 191.772 168.763 187.256 170.486 186.259C170.693 186.113 170.94 186.035 171.194 186.035C171.447 186.035 171.694 186.113 171.901 186.259C173.033 187.01 176.048 188.117 178.227 187.404C179.568 186.948 179.384 184.315 179.174 181.533C179.1 180.463 179.014 179.355 179.014 178.297C179.014 175.7 185.414 172.291 195.173 167.381C199.616 165.141 204.218 162.815 204.944 161.818C206.175 160.046 202.421 154.668 199.739 151.69C199.629 151.576 199.569 151.423 199.569 151.265C199.569 151.107 199.629 150.955 199.739 150.841C199.863 150.718 200.015 150.626 200.182 150.573C200.349 150.519 200.526 150.506 200.698 150.533C202.987 150.804 207.885 158.655 209.485 161.301C211.307 162.286 221.792 168.095 222.161 172.193C222.351 174.199 222.069 176.222 221.337 178.1C220.967 179.103 220.703 180.143 220.549 181.201C220.601 183.226 220.89 185.237 221.41 187.194C222.383 191.92 223.589 197.803 222.555 202.233C220.918 209.149 213.19 223.843 211.048 225.615C210.496 225.929 209.854 226.046 209.227 225.948V225.948ZM171.2 187.244C170.973 187.363 170.772 187.526 170.609 187.724C168.706 190.339 167.83 193.562 168.148 196.781C168.505 202.528 175.15 205.113 177.611 205.113H181.648C181.785 205.11 181.92 205.155 182.028 205.24C182.135 205.325 182.21 205.446 182.239 205.58C183.215 209.327 184.684 212.927 186.607 216.287C188.552 219.351 199.763 223.289 206.359 224.434C209.707 225.025 210.298 224.606 210.298 224.606C212.094 223.166 219.737 208.915 221.373 201.95C222.358 197.79 221.177 192.105 220.229 187.44C219.664 185.358 219.37 183.211 219.355 181.053C219.517 179.916 219.798 178.798 220.192 177.718C220.876 176.005 221.138 174.152 220.955 172.316C220.66 169.276 212.07 164.058 208.784 162.31C208.686 162.257 208.601 162.181 208.538 162.089C207.147 159.751 205.695 157.572 204.415 155.825C205.929 158.286 207.061 160.957 205.941 162.532C205.092 163.763 201.498 165.572 195.727 168.476C189.573 171.577 180.245 176.266 180.245 178.321C180.245 179.343 180.331 180.413 180.405 181.459C180.639 184.745 180.873 187.834 178.621 188.585C175.864 189.434 172.369 188.031 171.2 187.244V187.244Z" fill="#263238"/>
<path d="M211.91 190.96C211.804 190.961 211.699 190.934 211.606 190.882C211.514 190.83 211.436 190.755 211.381 190.665C207.11 183.539 211.27 179.183 211.811 178.654C212.784 177.423 215.245 175.454 217.817 176.918C217.96 177.001 218.064 177.136 218.108 177.295C218.152 177.454 218.131 177.624 218.051 177.767C218.011 177.838 217.958 177.9 217.894 177.949C217.83 177.999 217.757 178.035 217.679 178.055C217.601 178.076 217.52 178.081 217.44 178.069C217.36 178.058 217.283 178.031 217.214 177.989C214.888 176.672 212.784 179.417 212.759 179.441L212.673 179.54C212.501 179.687 208.452 183.379 212.439 190.037C212.521 190.176 212.545 190.342 212.506 190.498C212.467 190.655 212.368 190.79 212.23 190.874C212.134 190.933 212.023 190.963 211.91 190.96V190.96Z" fill="#263238"/>
<path d="M190.496 183.724C190.393 183.724 190.292 183.699 190.201 183.65C190.059 183.57 189.955 183.438 189.909 183.281C189.863 183.125 189.879 182.957 189.955 182.813C192.564 178.026 200.748 179.614 201.105 179.675C201.263 179.711 201.401 179.806 201.491 179.941C201.58 180.077 201.614 180.242 201.585 180.401C201.568 180.48 201.537 180.556 201.492 180.623C201.446 180.69 201.388 180.747 201.321 180.792C201.254 180.836 201.178 180.867 201.099 180.882C201.019 180.898 200.938 180.897 200.858 180.881C200.785 180.881 193.204 179.417 191.013 183.404C190.961 183.497 190.887 183.575 190.796 183.631C190.706 183.687 190.603 183.719 190.496 183.724V183.724Z" fill="#263238"/>
<path d="M200.576 190.173C200.442 190.175 200.312 190.132 200.205 190.052C200.098 189.972 200.021 189.858 199.985 189.729L199.173 186.899C199.151 186.818 199.145 186.734 199.156 186.651C199.167 186.568 199.194 186.488 199.236 186.415C199.277 186.343 199.333 186.279 199.399 186.228C199.466 186.177 199.541 186.139 199.622 186.118C199.703 186.096 199.787 186.09 199.87 186.101C199.953 186.112 200.033 186.139 200.106 186.18C200.178 186.222 200.242 186.278 200.293 186.344C200.344 186.41 200.382 186.486 200.404 186.567L201.203 189.385C201.249 189.542 201.231 189.71 201.152 189.853C201.074 189.996 200.942 190.102 200.785 190.148L200.576 190.173Z" fill="#263238"/>
<path d="M195.899 191.022C195.087 191.022 194.546 191.022 194.472 191.022C194.391 191.016 194.313 190.993 194.241 190.956C194.169 190.919 194.106 190.868 194.054 190.806C194.003 190.744 193.964 190.673 193.941 190.596C193.917 190.518 193.909 190.437 193.918 190.357C193.933 190.196 194.012 190.047 194.136 189.944C194.261 189.84 194.421 189.79 194.582 189.803C194.582 189.803 199.259 190.16 201.88 188.671C202.023 188.59 202.191 188.567 202.35 188.609C202.509 188.65 202.645 188.752 202.729 188.893C202.807 189.037 202.825 189.206 202.782 189.364C202.738 189.522 202.636 189.657 202.496 189.742C200.429 190.684 198.168 191.123 195.899 191.022Z" fill="#263238"/>
<path d="M217.879 187.773C217.744 187.773 217.613 187.731 217.504 187.651C217.396 187.571 217.316 187.459 217.276 187.33L216.476 184.499C216.432 184.336 216.455 184.162 216.539 184.015C216.623 183.869 216.762 183.762 216.925 183.718C217.089 183.674 217.263 183.696 217.409 183.781C217.556 183.865 217.663 184.004 217.707 184.167L218.519 186.985C218.561 187.143 218.539 187.312 218.459 187.454C218.378 187.597 218.245 187.702 218.088 187.748L217.879 187.773Z" fill="#263238"/>
<path d="M213.202 188.622C212.39 188.622 211.836 188.622 211.775 188.622C211.611 188.609 211.46 188.532 211.354 188.407C211.248 188.282 211.195 188.121 211.209 187.957C211.222 187.794 211.299 187.643 211.424 187.537C211.548 187.431 211.71 187.378 211.873 187.391C211.873 187.391 216.562 187.748 219.183 186.259C219.323 186.179 219.49 186.158 219.646 186.201C219.801 186.244 219.934 186.346 220.014 186.487C220.094 186.627 220.115 186.793 220.072 186.949C220.029 187.105 219.927 187.237 219.786 187.317C217.726 188.269 215.469 188.716 213.202 188.622Z" fill="#263238"/>
<path d="M174.683 200.092C174.59 200.09 174.5 200.069 174.417 200.028C174.334 199.988 174.261 199.93 174.203 199.858C173.637 199.156 173.501 198.529 173.809 198C174.326 197.126 176.036 197.064 177.501 197.175C176.43 195.772 174.387 193.483 172.221 193.483C171.717 193.483 171.077 193.569 170.855 193.951C170.634 194.332 170.978 195.637 171.237 196.104C171.306 196.245 171.319 196.408 171.273 196.558C171.226 196.709 171.124 196.835 170.987 196.913C170.85 196.99 170.688 197.012 170.536 196.973C170.383 196.935 170.251 196.84 170.166 196.707C170.055 196.498 169.034 194.652 169.797 193.335C170.067 192.945 170.44 192.638 170.875 192.447C171.309 192.255 171.788 192.188 172.258 192.252C176.098 192.252 179.224 197.384 179.347 197.606C179.41 197.705 179.444 197.82 179.444 197.938C179.444 198.056 179.41 198.171 179.347 198.27C179.279 198.367 179.185 198.442 179.076 198.488C178.968 198.534 178.848 198.548 178.732 198.529C177.07 198.258 175.249 198.283 175.04 198.529C175.112 198.693 175.207 198.846 175.323 198.984C175.398 199.074 175.446 199.184 175.46 199.301C175.475 199.418 175.456 199.536 175.406 199.642C175.355 199.748 175.275 199.838 175.175 199.9C175.076 199.962 174.96 199.995 174.843 199.993L174.683 200.092Z" fill="#263238"/>
<path d="M224.167 280.921C224.167 280.921 233.286 262.658 236.683 259.261C240.079 255.865 248.448 260.935 249.174 262.867C249.9 264.799 241.248 282.324 237.643 288.083C234.037 293.843 231.649 291.258 229.237 288.563C227.3 286.188 225.602 283.629 224.167 280.921Z" fill="#F6B9D5"/>
<path d="M233.446 292.194C231.613 292.194 230.161 290.582 228.745 289.019C226.781 286.59 225.062 283.972 223.613 281.204C223.571 281.116 223.549 281.019 223.549 280.921C223.549 280.823 223.571 280.726 223.613 280.638C223.983 279.887 232.819 262.252 236.215 258.855C237.446 257.625 239.341 257.268 241.704 257.772C245.261 258.548 249.088 261.157 249.728 262.695C250.614 265.082 241.199 283.616 238.135 288.465C236.646 290.852 235.206 292.071 233.717 292.157L233.446 292.194ZM224.832 280.909C226.191 283.49 227.803 285.931 229.644 288.194C230.874 289.609 232.228 291.049 233.582 290.963C234.64 290.865 235.822 289.806 237.064 287.8C241.187 281.204 248.977 264.836 248.547 263.101C248.19 262.166 244.744 259.692 241.421 258.978C240.688 258.742 239.909 258.687 239.15 258.818C238.392 258.948 237.676 259.261 237.064 259.729C234.062 262.757 226.026 278.583 224.856 280.909H224.832Z" fill="#263238"/>
<path opacity="0.3" d="M224.167 280.921C224.167 280.921 233.286 262.658 236.683 259.261C240.079 255.865 248.448 260.935 249.174 262.867C249.9 264.799 241.248 282.324 237.643 288.083C234.037 293.843 231.649 291.258 229.237 288.563C227.3 286.188 225.602 283.629 224.167 280.921Z" fill="black"/>
<path d="M228.733 208.362C228.733 208.362 237.138 203.082 239.292 203.082C241.445 203.082 246.269 221.345 246.023 223.019C245.777 224.692 236.178 242.475 236.178 242.475C236.178 242.475 248.669 263.138 249.149 265.058C249.629 266.978 240.018 282.841 238.812 282.841C237.606 282.841 230.886 246.327 230.197 242.721C229.212 238.385 228.729 233.951 228.757 229.504C228.991 225.418 229.717 215.093 229.717 215.093C229.717 215.093 227.047 208.608 228.733 208.362Z" fill="white"/>
<path d="M238.812 283.456C237.963 283.456 237.286 283.456 230.197 246.364C229.877 244.617 229.631 243.374 229.533 242.845C228.5 238.462 228.008 233.969 228.068 229.467C228.29 225.665 228.93 216.447 229.016 215.192C228.45 213.776 226.948 209.728 227.785 208.337C227.941 208.071 228.192 207.873 228.487 207.783C229.717 207.02 237.101 202.467 239.292 202.467C239.51 202.482 239.723 202.544 239.914 202.651C240.106 202.757 240.271 202.904 240.4 203.082C242.861 205.913 246.885 221.345 246.627 223.105C246.368 224.865 238.812 238.882 236.88 242.463C238.8 245.638 249.273 263.027 249.74 264.91C250.269 267.027 242.885 278.989 240.535 282.016C239.587 283.222 239.206 283.456 238.812 283.456ZM228.807 208.928C228.499 209.445 229.164 212.214 230.222 214.823C230.246 214.915 230.246 215.013 230.222 215.106C230.222 215.106 229.508 225.431 229.262 229.504C229.22 233.898 229.704 238.282 230.702 242.561C230.8 243.091 231.047 244.346 231.379 246.093C235.428 267.421 237.963 279.456 238.923 281.942C241.187 279.69 248.682 266.682 248.473 265.169C248.263 263.655 240.572 251.028 235.575 242.758C235.521 242.667 235.493 242.563 235.493 242.457C235.493 242.351 235.521 242.247 235.575 242.155C239.267 235.313 245.187 224.04 245.347 222.896C245.581 221.222 241.015 204.436 239.193 203.648C237.803 203.648 232.203 206.848 229.004 208.854C228.957 208.899 228.903 208.937 228.844 208.965L228.807 208.928Z" fill="#263238"/>
<path d="M238.098 227.006C236.403 227.131 234.698 226.952 233.065 226.477C231.638 225.911 231.121 222.637 230.998 221.653C230.981 221.517 231.011 221.38 231.083 221.264C231.154 221.148 231.263 221.059 231.391 221.013L242.467 216.681C242.543 216.651 242.624 216.637 242.706 216.639C242.787 216.641 242.867 216.659 242.942 216.692C243.016 216.725 243.083 216.773 243.139 216.832C243.195 216.892 243.239 216.961 243.267 217.038C243.297 217.112 243.312 217.191 243.31 217.271C243.309 217.351 243.292 217.43 243.26 217.504C243.228 217.577 243.181 217.643 243.124 217.698C243.066 217.754 242.997 217.797 242.923 217.825L232.327 221.973C232.573 223.511 233.102 225.148 233.557 225.332C235.047 225.74 236.595 225.89 238.135 225.775C239.366 225.775 239.44 224.545 239.44 224.225C239.432 224.142 239.443 224.059 239.471 223.981C239.5 223.903 239.545 223.832 239.603 223.773C239.662 223.714 239.733 223.669 239.811 223.641C239.889 223.613 239.972 223.602 240.055 223.609C240.218 223.609 240.375 223.674 240.49 223.79C240.606 223.905 240.671 224.062 240.671 224.225C240.696 224.579 240.648 224.934 240.531 225.269C240.413 225.604 240.228 225.912 239.987 226.172C239.746 226.433 239.454 226.642 239.129 226.785C238.804 226.928 238.453 227.004 238.098 227.006V227.006Z" fill="#263238"/>
<path d="M236.893 225.32C236.769 225.322 236.648 225.285 236.546 225.214C236.445 225.144 236.368 225.043 236.327 224.926C236.297 224.851 236.282 224.771 236.283 224.69C236.284 224.609 236.301 224.529 236.333 224.455C236.365 224.38 236.411 224.313 236.469 224.257C236.527 224.2 236.596 224.156 236.671 224.126L242.197 221.973C242.272 221.941 242.352 221.925 242.434 221.925C242.515 221.925 242.595 221.942 242.67 221.974C242.745 222.006 242.812 222.053 242.869 222.112C242.925 222.171 242.968 222.241 242.997 222.317C243.026 222.393 243.041 222.474 243.039 222.556C243.037 222.637 243.019 222.717 242.985 222.792C242.952 222.866 242.905 222.933 242.845 222.989C242.786 223.045 242.716 223.089 242.64 223.117L237.114 225.271C237.045 225.305 236.969 225.322 236.893 225.32V225.32Z" fill="#263238"/>
<path d="M231.022 218.576C230.906 218.579 230.792 218.548 230.693 218.487C230.595 218.426 230.517 218.337 230.468 218.231C230.433 218.158 230.413 218.078 230.409 217.997C230.404 217.916 230.416 217.834 230.444 217.757C230.471 217.681 230.514 217.61 230.569 217.55C230.624 217.49 230.69 217.441 230.764 217.407L242.64 211.894C242.713 211.858 242.793 211.838 242.874 211.834C242.955 211.829 243.037 211.841 243.114 211.869C243.19 211.896 243.261 211.939 243.321 211.994C243.381 212.049 243.43 212.115 243.464 212.189C243.528 212.34 243.532 212.509 243.475 212.662C243.417 212.816 243.303 212.941 243.156 213.013L231.281 218.527C231.199 218.562 231.111 218.579 231.022 218.576Z" fill="#263238"/>
<path d="M228.967 213.543C228.851 213.546 228.737 213.515 228.638 213.454C228.54 213.392 228.462 213.304 228.413 213.198C228.378 213.125 228.358 213.045 228.353 212.964C228.349 212.882 228.361 212.801 228.389 212.724C228.416 212.647 228.458 212.577 228.513 212.517C228.568 212.457 228.635 212.408 228.709 212.374L240.954 206.614C241.027 206.579 241.107 206.558 241.188 206.554C241.27 206.55 241.351 206.562 241.428 206.589C241.504 206.617 241.575 206.659 241.635 206.714C241.695 206.769 241.744 206.836 241.778 206.909C241.813 206.982 241.833 207.061 241.837 207.141C241.842 207.222 241.829 207.302 241.802 207.378C241.774 207.454 241.732 207.523 241.677 207.582C241.622 207.641 241.556 207.689 241.483 207.722L229.176 213.493C229.11 213.522 229.039 213.538 228.967 213.543V213.543Z" fill="#263238"/>
<path d="M201.178 214.958L213.19 229.541C214.86 231.574 217.183 232.964 219.764 233.476C222.345 233.988 225.023 233.589 227.342 232.347C229.783 231.043 231.664 228.894 232.634 226.302C233.603 223.71 233.595 220.854 232.609 218.268L226.345 201.802C225.739 199.901 224.719 198.158 223.36 196.697C222.001 195.237 220.336 194.094 218.484 193.352C216.632 192.61 214.638 192.287 212.647 192.405C210.655 192.524 208.714 193.081 206.963 194.037L205.535 194.812C203.808 195.739 202.303 197.03 201.124 198.595C199.944 200.16 199.119 201.963 198.705 203.879C198.29 205.795 198.297 207.777 198.724 209.69C199.151 211.603 199.989 213.4 201.178 214.958V214.958Z" fill="white"/>
<path d="M221.989 234.267C220.215 234.269 218.464 233.878 216.859 233.123C215.255 232.367 213.838 231.266 212.71 229.898L200.698 215.315C199.475 213.686 198.616 211.813 198.181 209.823C197.745 207.833 197.744 205.773 198.176 203.782C198.608 201.791 199.463 199.917 200.684 198.286C201.905 196.656 203.463 195.307 205.252 194.332L206.679 193.557C208.507 192.562 210.532 191.981 212.609 191.856C214.686 191.731 216.765 192.064 218.7 192.832C220.634 193.6 222.375 194.784 223.801 196.3C225.226 197.816 226.301 199.628 226.948 201.605L233.2 218.035C234.231 220.761 234.237 223.769 233.216 226.499C232.195 229.229 230.217 231.495 227.65 232.876C225.908 233.803 223.962 234.281 221.989 234.267V234.267ZM201.658 214.576L213.657 229.16C215.285 231.122 217.556 232.444 220.067 232.89C222.577 233.337 225.165 232.879 227.37 231.598C229.575 230.317 231.254 228.296 232.11 225.894C232.965 223.492 232.942 220.864 232.043 218.478L225.779 202.024C225.192 200.211 224.213 198.551 222.911 197.16C221.609 195.769 220.017 194.683 218.247 193.978C216.477 193.273 214.574 192.967 212.672 193.081C210.771 193.195 208.918 193.728 207.245 194.64L205.83 195.427C204.196 196.315 202.773 197.545 201.656 199.032C200.54 200.52 199.758 202.23 199.362 204.047C198.966 205.864 198.966 207.745 199.362 209.562C199.759 211.379 200.542 213.089 201.658 214.576V214.576Z" fill="#263238"/>
<path d="M231.022 217.961C233.803 221.936 232.252 227.806 227.625 231.043C222.998 234.279 216.955 233.725 214.174 229.812C211.393 225.898 212.943 219.967 217.571 216.73C222.198 213.493 228.253 213.998 231.022 217.961Z" fill="white"/>
<path d="M221.165 233.775C220.824 233.793 220.483 233.793 220.143 233.775C218.863 233.698 217.616 233.333 216.496 232.707C215.376 232.081 214.412 231.21 213.676 230.159C212.94 229.109 212.451 227.905 212.245 226.639C212.04 225.372 212.123 224.076 212.488 222.846C213.264 220.163 214.935 217.827 217.223 216.226C219.512 214.625 222.279 213.856 225.066 214.047C226.343 214.138 227.584 214.509 228.7 215.135C229.817 215.76 230.782 216.624 231.527 217.665C234.493 221.899 232.905 228.15 227.982 231.596C225.986 233.003 223.607 233.764 221.165 233.775ZM224.044 215.179C221.835 215.197 219.686 215.898 217.891 217.185C215.818 218.592 214.314 220.69 213.645 223.105C213.322 224.161 213.244 225.277 213.417 226.368C213.589 227.459 214.008 228.497 214.642 229.402C215.275 230.307 216.106 231.056 217.072 231.592C218.038 232.128 219.114 232.436 220.217 232.495C222.717 232.697 225.208 232.003 227.244 230.538C231.601 227.486 233.065 221.997 230.481 218.318C229.837 217.423 229.004 216.682 228.04 216.148C227.076 215.613 226.006 215.3 224.906 215.229C224.62 215.195 224.332 215.179 224.044 215.179V215.179Z" fill="#263238"/>
<path d="M207.147 339.254C207.147 339.254 203.062 320.044 200.896 310.949C198.73 301.854 197.29 297.252 195.616 295.332C193.943 293.412 186.485 297.252 185.279 303.737C184.073 310.223 203.025 337.371 207.147 339.254Z" fill="#F6B9D5"/>
<path d="M207.148 339.906C207.059 339.93 206.966 339.93 206.877 339.906C202.422 337.814 183.495 310.198 184.725 303.688C185.189 301.575 186.19 299.617 187.633 298.004C189.075 296.391 190.91 295.179 192.958 294.483C193.47 294.264 194.032 294.191 194.582 294.274C195.132 294.356 195.648 294.591 196.072 294.951C197.758 296.87 199.173 301.03 201.499 310.826C203.641 319.859 207.652 338.996 207.751 339.193C207.775 339.304 207.766 339.419 207.727 339.526C207.688 339.633 207.619 339.726 207.529 339.796C207.42 339.878 207.284 339.918 207.148 339.906V339.906ZM194.275 295.455C193.922 295.462 193.571 295.511 193.229 295.603C191.393 296.226 189.749 297.312 188.456 298.757C187.162 300.201 186.263 301.955 185.845 303.848C184.824 309.374 200.49 332.756 206.176 337.863C205.154 333.101 202.041 318.591 200.256 311.084C198.016 301.621 196.564 297.461 195.112 295.738C194.994 295.633 194.856 295.553 194.705 295.504C194.555 295.455 194.396 295.439 194.238 295.455H194.275Z" fill="#263238"/>
<path opacity="0.3" d="M207.147 339.254C207.147 339.254 203.062 320.044 200.896 310.949C198.73 301.854 197.29 297.252 195.616 295.332C193.943 293.412 186.485 297.252 185.279 303.737C184.073 310.223 203.025 337.371 207.147 339.254Z" fill="black"/>
<path d="M142.009 250.413C144.642 251.127 196.773 296.046 198.459 293.646C200.145 291.246 220.795 238.636 221.755 236.47C222.715 234.304 211.43 232.63 207.824 232.396C204.218 232.162 204.698 232.876 204.698 232.876L194.139 275.875L168.665 233.11C166.87 232.243 164.818 232.072 162.905 232.63C159.779 233.59 134.071 247.521 134.071 247.521" fill="#F6B9D5"/>
<path d="M198.275 294.36C195.899 294.36 184.651 285.499 160.715 265.932C151.94 258.769 142.87 251.361 141.837 251.004C141.681 250.953 141.552 250.843 141.476 250.699C141.4 250.554 141.384 250.385 141.431 250.229C141.474 250.076 141.575 249.946 141.714 249.867C141.852 249.789 142.016 249.768 142.169 249.81C143.203 250.093 148.568 254.425 161.49 264.984C174.929 275.962 195.099 292.452 198.065 293.105C199.739 290.089 210.803 262.277 216.821 247.14C219.208 241.159 220.931 236.827 221.202 236.224C221.029 235.104 213.055 233.356 207.788 232.999C206.968 232.909 206.14 232.93 205.326 233.061L194.767 276.023C194.737 276.14 194.673 276.246 194.584 276.327C194.494 276.408 194.382 276.46 194.263 276.478C194.142 276.499 194.018 276.481 193.908 276.429C193.798 276.376 193.707 276.29 193.647 276.183L168.271 233.578C166.651 232.861 164.831 232.735 163.127 233.221C160.087 234.156 134.662 247.927 134.404 248.063C134.259 248.138 134.092 248.155 133.935 248.109C133.779 248.063 133.647 247.958 133.567 247.816C133.528 247.745 133.504 247.666 133.497 247.585C133.489 247.504 133.497 247.422 133.521 247.344C133.545 247.266 133.584 247.194 133.637 247.131C133.689 247.069 133.753 247.017 133.825 246.98C134.871 246.413 159.669 233.012 162.758 232.039C164.83 231.427 167.058 231.616 168.997 232.569C169.098 232.62 169.179 232.702 169.231 232.802L193.93 274.263L204.108 232.864C204.094 232.702 204.128 232.539 204.206 232.396C204.465 231.966 205.08 231.584 207.898 231.781C209.855 231.904 220.82 233.159 222.26 235.534C222.381 235.714 222.453 235.922 222.468 236.138C222.484 236.354 222.441 236.571 222.346 236.765C222.088 237.331 220.377 241.688 217.99 247.632C209.375 269.218 200.157 292.366 198.988 294.04C198.918 294.134 198.829 294.212 198.728 294.271C198.626 294.331 198.514 294.369 198.398 294.384L198.275 294.36Z" fill="#263238"/>
<path d="M248.903 261.944L234.012 289.56C234.012 289.56 225.398 284.281 224.167 280.946C224.167 280.946 229.213 304.488 233.052 312.414C236.892 320.339 239.292 326.111 243.144 328.031C246.996 329.95 256.349 331.636 259.474 328.744C262.6 325.852 274.132 306.888 274.365 301.842C274.599 296.796 248.903 261.944 248.903 261.944Z" fill="#F6B9D5"/>
<path d="M253.715 330.873C249.968 330.849 246.266 330.057 242.836 328.547C239.23 326.751 236.904 321.902 233.692 315.195L232.462 312.66C228.634 304.746 223.736 282.016 223.527 281.044C223.493 280.893 223.519 280.734 223.599 280.601C223.68 280.468 223.808 280.371 223.958 280.33C224.108 280.283 224.271 280.297 224.411 280.368C224.551 280.44 224.658 280.563 224.709 280.712C225.57 283.173 231.083 287 233.742 288.699L248.325 261.624C248.375 261.533 248.448 261.455 248.536 261.399C248.624 261.343 248.725 261.31 248.83 261.304C248.932 261.295 249.034 261.313 249.127 261.356C249.22 261.399 249.3 261.466 249.359 261.55C252.005 265.132 275.202 296.71 274.944 301.817C274.686 306.925 262.933 326.32 259.856 329.15C258.564 330.406 256.263 330.873 253.715 330.873ZM225.41 283.751C226.899 290.335 230.64 306.014 233.594 312.118L234.825 314.666C237.938 321.151 240.178 325.84 243.439 327.452C247.131 329.286 256.238 330.898 259.081 328.277C261.924 325.655 273.553 306.679 273.787 301.793C273.947 298.31 259.278 277.044 249.014 263.089L234.579 289.856C234.494 290.002 234.358 290.112 234.197 290.163C234.033 290.2 233.862 290.174 233.717 290.089C230.735 288.277 227.955 286.152 225.422 283.751H225.41Z" fill="#263238"/>
<path d="M210.482 248.37L207.886 284.81C207.851 285.319 207.933 285.83 208.123 286.304C208.313 286.778 208.608 287.202 208.985 287.546C209.363 287.891 209.813 288.145 210.302 288.291C210.791 288.438 211.307 288.472 211.811 288.391L226.788 285.93C227.544 285.806 228.236 285.429 228.75 284.862C229.264 284.294 229.57 283.568 229.619 282.804L231.822 247.816C231.855 247.274 231.772 246.731 231.577 246.223C231.383 245.716 231.082 245.256 230.695 244.874C230.307 244.493 229.843 244.199 229.333 244.012C228.822 243.826 228.278 243.751 227.736 243.792L213.965 244.875C213.063 244.946 212.216 245.337 211.577 245.978C210.938 246.619 210.55 247.468 210.482 248.37V248.37Z" fill="#263238"/>
<path d="M211.258 289.043C210.709 289.045 210.166 288.933 209.662 288.714C209.159 288.495 208.706 288.175 208.333 287.772C207.959 287.37 207.673 286.895 207.492 286.376C207.312 285.858 207.24 285.308 207.283 284.761L209.867 248.333C209.936 247.278 210.383 246.284 211.127 245.533C211.871 244.782 212.862 244.325 213.916 244.247L227.687 243.164C228.317 243.116 228.949 243.202 229.542 243.419C230.135 243.636 230.674 243.978 231.124 244.421C231.573 244.865 231.922 245.4 232.146 245.99C232.371 246.58 232.466 247.211 232.425 247.841L230.235 282.828C230.175 283.731 229.811 284.587 229.204 285.257C228.596 285.927 227.78 286.373 226.887 286.52L211.922 288.982C211.703 289.021 211.481 289.041 211.258 289.043V289.043ZM228.069 244.383H227.823L214.052 245.466C213.292 245.521 212.578 245.849 212.042 246.39C211.506 246.93 211.183 247.647 211.135 248.407V248.407L208.538 284.834C208.506 285.252 208.57 285.672 208.724 286.062C208.878 286.451 209.12 286.801 209.429 287.083C209.739 287.365 210.109 287.573 210.511 287.691C210.913 287.809 211.337 287.834 211.75 287.763L226.727 285.302C227.346 285.2 227.911 284.892 228.332 284.427C228.752 283.962 229.002 283.368 229.041 282.742L231.244 247.743C231.267 247.289 231.195 246.835 231.032 246.411C230.869 245.987 230.618 245.602 230.296 245.281C229.699 244.703 228.9 244.38 228.069 244.383V244.383Z" fill="#263238"/>
<path d="M185.968 294.126C185.968 294.126 192.453 290.766 195.099 286.447C197.745 282.127 204.218 266.756 204.944 265.304C205.671 263.852 228.241 260.738 230.407 261.944C232.573 263.15 229.447 265.304 229.447 265.304C229.447 265.304 213.35 267.765 212.156 268.43C210.962 269.094 208.55 273.476 208.55 273.476C208.55 273.476 218.396 270.83 221.755 270.584C225.115 270.337 232.093 269.624 232.327 270.83C232.56 272.036 230.653 273.291 228.007 274.189C225.361 275.088 220.315 275.42 215.7 276.835C213.11 277.612 210.674 278.832 208.501 280.441C208.501 280.441 219.786 277.795 224.352 277.549C228.918 277.303 233.483 276.835 232.523 278.509C231.564 280.183 225.558 280.195 221.706 281.635C217.854 283.075 209.941 285.721 209.941 285.721C209.941 285.721 228.401 281.881 226.998 283.555C225.595 285.228 220.746 286.201 217.386 286.927C214.027 287.653 210.421 289.08 209.215 290.766C208.009 292.452 205.129 297.498 202.249 299.652C199.37 301.805 194.804 302.051 194.09 302.051C193.376 302.051 188.085 305.423 188.085 305.423L185.968 294.126Z" fill="white"/>
<path d="M188.134 306.026C188.052 306.039 187.969 306.039 187.888 306.026C187.797 305.982 187.716 305.919 187.652 305.84C187.589 305.761 187.543 305.669 187.519 305.571L185.365 294.286C185.339 294.155 185.357 294.02 185.414 293.9C185.472 293.781 185.567 293.683 185.685 293.621C185.747 293.621 192.048 290.286 194.57 286.164C196.515 282.976 200.637 273.574 202.853 268.528C203.665 266.67 204.206 265.452 204.391 265.058C204.576 264.664 204.896 264.479 206.102 264.11C210.507 262.744 228.463 260.184 230.715 261.44C231.008 261.575 231.261 261.787 231.445 262.054C231.629 262.32 231.738 262.631 231.761 262.953C231.835 264.344 230.112 265.612 229.779 265.846C229.697 265.896 229.605 265.93 229.509 265.944C223.355 266.867 213.338 268.491 212.439 268.996C211.383 270.033 210.494 271.229 209.806 272.54C213.713 271.455 217.684 270.608 221.694 270.005L223.085 269.907C229.792 269.377 232.635 269.377 232.93 270.743C233.225 272.11 231.699 273.562 228.216 274.805C226.557 275.314 224.856 275.68 223.134 275.9C220.702 276.255 218.297 276.773 215.935 277.451C214.574 277.891 213.25 278.434 211.972 279.075C216.059 278.121 220.202 277.422 224.377 276.983L225.94 276.884C230.247 276.638 232.524 276.552 233.151 277.586C233.267 277.77 233.329 277.984 233.329 278.201C233.329 278.419 233.267 278.632 233.151 278.817C232.45 280.047 230.173 280.453 227.306 280.97C225.514 281.229 223.748 281.64 222.026 282.201C221.079 282.558 219.873 282.989 218.605 283.432C227.084 281.979 227.49 282.669 227.687 283.001C227.771 283.151 227.805 283.324 227.783 283.495C227.761 283.666 227.684 283.825 227.564 283.948C226.05 285.708 221.62 286.656 218.064 287.419L217.608 287.517C213.916 288.305 210.79 289.745 209.818 291.111C209.572 291.468 209.24 291.96 208.858 292.563C207.357 294.877 205.08 298.372 202.705 300.132C199.431 302.593 194.226 302.667 194.177 302.667C192.207 303.619 190.308 304.709 188.491 305.928C188.385 305.997 188.26 306.031 188.134 306.026ZM186.657 294.446L188.565 304.402C190.878 302.95 193.487 301.436 194.14 301.436C194.14 301.436 198.976 301.362 201.93 299.147C204.12 297.51 206.323 294.126 207.775 291.886C208.169 291.271 208.514 290.754 208.772 290.397C210.175 288.428 214.101 287 217.313 286.311L217.756 286.213C220.353 285.659 224.081 284.859 225.878 283.752C220.578 284.307 215.314 285.17 210.114 286.336C209.96 286.369 209.8 286.342 209.667 286.259C209.534 286.176 209.438 286.045 209.4 285.893C209.357 285.743 209.374 285.582 209.448 285.444C209.521 285.307 209.645 285.203 209.794 285.154C209.88 285.154 217.756 282.496 221.546 281.069C223.336 280.498 225.173 280.086 227.035 279.838C229.189 279.457 231.613 279.014 232.031 278.287C231.662 277.82 228.266 278.017 226.014 278.152L224.438 278.238C219.983 278.472 208.797 281.081 208.686 281.106C208.552 281.139 208.41 281.126 208.285 281.068C208.159 281.01 208.058 280.91 207.997 280.786C207.937 280.66 207.92 280.519 207.949 280.383C207.978 280.247 208.051 280.125 208.157 280.035C210.388 278.39 212.886 277.141 215.541 276.343C217.963 275.645 220.43 275.114 222.925 274.755C224.57 274.537 226.196 274.187 227.786 273.709C230.518 272.713 231.712 271.716 231.724 271.137C230.825 270.596 225.497 271.014 223.195 271.137L221.792 271.248C218.531 271.482 208.797 274.091 208.698 274.116C208.58 274.146 208.455 274.142 208.339 274.102C208.223 274.063 208.121 273.991 208.046 273.894C207.98 273.794 207.945 273.676 207.945 273.556C207.945 273.435 207.98 273.318 208.046 273.217C208.464 272.479 210.593 268.713 211.873 267.95C213.153 267.187 226.223 265.218 229.25 264.763C229.841 264.319 230.616 263.532 230.592 263.027C230.592 262.966 230.592 262.769 230.149 262.523C228.327 261.514 207.111 264.246 205.535 265.71C205.412 265.981 204.822 267.322 204.083 269.033C201.856 274.116 197.709 283.567 195.715 286.816C193.278 290.594 188.146 293.634 186.657 294.458V294.446Z" fill="#263238"/>
<path d="M142.857 254.019C142.857 254.019 136.704 257.132 136.483 261.944C136.261 266.756 136.003 315.749 134.021 325.84C132.04 335.931 131.388 341.211 134.021 344.3C136.655 347.389 154.45 369.048 164.049 370.722C173.648 372.396 207.147 339.254 207.147 339.254C207.147 339.254 196.071 321.717 192.97 313.546C189.868 305.374 186.718 293.129 186.718 293.129C186.718 293.129 178.793 296.009 176.639 296.981C174.485 297.953 168.947 285.905 168.467 281.364C167.987 276.823 167.987 273.672 167.987 273.672" fill="#F6B9D5"/>
<path d="M164.813 371.436C164.542 371.455 164.271 371.455 164 371.436C157.847 370.353 147.497 361.332 134.059 345.333L133.603 344.792C130.834 341.518 131.437 336.485 133.468 325.791C134.932 318.111 135.412 287.825 135.671 271.543C135.745 266.621 135.806 263.101 135.868 261.969C136.114 256.862 142.316 253.674 142.587 253.539C142.659 253.501 142.737 253.478 142.818 253.471C142.899 253.464 142.98 253.474 143.057 253.499C143.134 253.524 143.205 253.565 143.266 253.618C143.327 253.672 143.376 253.737 143.412 253.81C143.481 253.956 143.492 254.123 143.442 254.276C143.391 254.43 143.283 254.558 143.141 254.634C143.079 254.634 137.307 257.649 137.098 262.018C137.037 263.138 136.975 266.67 136.901 271.556C136.643 287.862 136.163 318.222 134.686 326C132.766 336.079 132.126 341.125 134.551 343.992L134.994 344.521C148.063 360.077 158.376 369.196 164.21 370.205C164.441 370.245 164.676 370.266 164.911 370.267C174.387 370.267 202.828 342.675 206.323 339.254C204.587 336.473 195.247 321.385 192.355 313.853C189.672 306.826 186.952 296.686 186.263 294.027C184.343 294.729 178.608 296.846 176.848 297.621C176.627 297.714 176.385 297.75 176.146 297.724C175.907 297.698 175.679 297.612 175.482 297.473C172.677 295.861 168.234 285.462 167.815 281.475C167.335 276.934 167.335 273.759 167.335 273.722C167.335 273.558 167.4 273.402 167.516 273.287C167.631 273.171 167.788 273.106 167.951 273.106C168.114 273.106 168.27 273.171 168.386 273.287C168.501 273.402 168.566 273.558 168.566 273.722C168.566 273.722 168.566 276.872 169.046 281.339C169.452 285.265 173.809 295.049 176.098 296.378C176.258 296.464 176.344 296.476 176.344 296.464C178.51 295.504 186.189 292.772 186.472 292.6C186.551 292.563 186.637 292.545 186.724 292.545C186.812 292.545 186.898 292.563 186.977 292.6C187.127 292.686 187.237 292.827 187.284 292.994C187.284 293.117 190.435 305.3 193.511 313.349C196.588 321.397 207.516 338.762 207.627 338.946C207.701 339.064 207.733 339.204 207.718 339.343C207.702 339.482 207.64 339.611 207.541 339.709C206.2 341.063 175.482 371.436 164.813 371.436Z" fill="#263238"/>
<path d="M142.341 337.223C142.243 337.237 142.144 337.237 142.046 337.223C141.874 337.147 141.728 337.023 141.626 336.866C141.523 336.709 141.468 336.525 141.468 336.337C141.234 334.368 143.843 327.587 148.138 324.658C148.274 324.568 148.44 324.533 148.601 324.563C148.762 324.593 148.905 324.685 148.999 324.818C149.046 324.885 149.079 324.961 149.096 325.041C149.113 325.12 149.114 325.202 149.099 325.283C149.085 325.363 149.054 325.439 149.009 325.507C148.965 325.576 148.907 325.634 148.839 325.68C145.147 328.141 142.981 333.593 142.686 335.599C144.79 333.384 150.378 326.037 153.27 322.16C159.214 312.635 175.04 297.252 175.2 297.104C175.32 297.005 175.472 296.955 175.627 296.964C175.782 296.973 175.928 297.041 176.036 297.153C176.143 297.265 176.204 297.414 176.207 297.569C176.209 297.724 176.153 297.875 176.049 297.99C175.889 298.138 160.186 313.423 154.279 322.849C153.885 323.391 145.061 335.217 143.117 336.928C142.9 337.113 142.626 337.218 142.341 337.223V337.223Z" fill="#263238"/>
<path d="M146.575 314.198C146.456 314.199 146.339 314.166 146.239 314.103C146.138 314.04 146.058 313.949 146.008 313.841C145.942 313.693 145.937 313.524 145.994 313.371C146.052 313.219 146.168 313.096 146.316 313.029C151.973 310.617 157.959 309.061 164.074 308.414C164.155 308.407 164.237 308.416 164.314 308.441C164.391 308.466 164.463 308.506 164.524 308.559C164.586 308.611 164.637 308.676 164.674 308.748C164.711 308.82 164.733 308.899 164.739 308.98C164.746 309.059 164.737 309.139 164.712 309.215C164.688 309.291 164.649 309.361 164.598 309.421C164.546 309.482 164.483 309.532 164.413 309.568C164.342 309.604 164.264 309.626 164.185 309.632C158.214 310.274 152.371 311.796 146.845 314.149C146.76 314.185 146.667 314.202 146.575 314.198V314.198Z" fill="#263238"/>
<g opacity="0.5">
<path d="M391.339 269.722V247.152L181.697 417.954L187.087 424.575H201.252L391.339 269.722Z" fill="white"/>
<path d="M252.091 77.1246H224.401L117.31 164.378V186.936L252.091 77.1246Z" fill="white"/>
<path d="M117.31 107.657V151.382L208.452 77.1246H154.795L117.31 107.657Z" fill="white"/>
<path d="M391.339 385.354V290.582L226.862 424.575H343.196L391.339 385.354Z" fill="white"/>
</g>
<path d="M391.204 74.6633H119.771C119.118 74.6633 118.492 74.9226 118.03 75.3842C117.569 75.8458 117.31 76.4718 117.31 77.1246V409.401C117.31 410.054 117.569 410.68 118.03 411.142C118.492 411.603 119.118 411.863 119.771 411.863H391.204C391.857 411.863 392.483 411.603 392.945 411.142C393.406 410.68 393.665 410.054 393.665 409.401V77.1246C393.665 76.4718 393.406 75.8458 392.945 75.3842C392.483 74.9226 391.857 74.6633 391.204 74.6633ZM388.743 333.531H263.758V79.5859H388.743V333.531ZM254.318 79.5859V333.531H122.232V79.5859H254.318ZM122.232 338.454H254.318V406.94H122.232V338.454ZM263.758 406.94V338.454H388.743V406.94H263.758Z" fill="white"/>
<path d="M419.227 423.578H97.8657V458H419.227V423.578Z" fill="#263238"/>
<path d="M419.227 411.813H97.8657V446.235H419.227V411.813Z" fill="#F6B9D5"/>
<path d="M419.226 446.85H97.8775C97.7143 446.85 97.5578 446.785 97.4424 446.67C97.327 446.555 97.2622 446.398 97.2622 446.235V411.863C97.2622 411.7 97.327 411.543 97.4424 411.428C97.5578 411.312 97.7143 411.247 97.8775 411.247H419.226C419.389 411.247 419.546 411.312 419.661 411.428C419.777 411.543 419.841 411.7 419.841 411.863V446.321C419.821 446.469 419.747 446.604 419.633 446.702C419.52 446.799 419.375 446.852 419.226 446.85V446.85ZM98.4929 445.62H418.611V412.392H98.4929V445.62Z" fill="#263238"/>
<path d="M115.574 418.434H98.0006C97.8374 418.434 97.6809 418.369 97.5655 418.254C97.4501 418.139 97.3853 417.982 97.3853 417.819C97.3853 417.656 97.4501 417.499 97.5655 417.384C97.6809 417.268 97.8374 417.204 98.0006 417.204H115.574C115.738 417.204 115.894 417.268 116.009 417.384C116.125 417.499 116.19 417.656 116.19 417.819C116.19 417.982 116.125 418.139 116.009 418.254C115.894 418.369 115.738 418.434 115.574 418.434Z" fill="#263238"/>
<path d="M122.109 422.939H102.911C102.748 422.939 102.591 422.874 102.476 422.758C102.36 422.643 102.295 422.486 102.295 422.323C102.295 422.16 102.36 422.004 102.476 421.888C102.591 421.773 102.748 421.708 102.911 421.708H122.109C122.272 421.708 122.429 421.773 122.544 421.888C122.659 422.004 122.724 422.16 122.724 422.323C122.724 422.486 122.659 422.643 122.544 422.758C122.429 422.874 122.272 422.939 122.109 422.939Z" fill="#263238"/>
<path d="M125.383 438.457H105.004C104.84 438.457 104.684 438.392 104.568 438.277C104.453 438.162 104.388 438.005 104.388 437.842C104.388 437.679 104.453 437.522 104.568 437.407C104.684 437.291 104.84 437.226 105.004 437.226H125.432C125.596 437.226 125.752 437.291 125.867 437.407C125.983 437.522 126.048 437.679 126.048 437.842C126.048 438.005 125.983 438.162 125.867 438.277C125.752 438.392 125.596 438.457 125.432 438.457H125.383Z" fill="#263238"/>
<path d="M129.468 435.245H103.317C103.154 435.245 102.997 435.18 102.882 435.065C102.766 434.949 102.702 434.793 102.702 434.63C102.702 434.467 102.766 434.31 102.882 434.195C102.997 434.079 103.154 434.014 103.317 434.014H129.468C129.631 434.018 129.785 434.083 129.9 434.198C130.015 434.313 130.081 434.468 130.084 434.63C130.084 434.793 130.019 434.949 129.903 435.065C129.788 435.18 129.632 435.245 129.468 435.245Z" fill="#263238"/>
<path d="M113.937 441.731H105.323C105.16 441.731 105.003 441.666 104.888 441.551C104.772 441.435 104.708 441.279 104.708 441.115C104.708 440.952 104.772 440.796 104.888 440.68C105.003 440.565 105.16 440.5 105.323 440.5H113.937C114.101 440.5 114.257 440.565 114.373 440.68C114.488 440.796 114.553 440.952 114.553 441.115C114.553 441.279 114.488 441.435 114.373 441.551C114.257 441.666 114.101 441.731 113.937 441.731Z" fill="#263238"/>
<path d="M126.195 429.473H111.895C111.733 429.47 111.578 429.404 111.463 429.29C111.349 429.175 111.283 429.02 111.28 428.858C111.28 428.695 111.345 428.538 111.46 428.423C111.575 428.307 111.732 428.243 111.895 428.243H126.195C126.359 428.243 126.515 428.307 126.63 428.423C126.746 428.538 126.811 428.695 126.811 428.858C126.811 429.021 126.746 429.178 126.63 429.293C126.515 429.408 126.359 429.473 126.195 429.473Z" fill="#263238"/>
<path d="M113.938 425.794H107.464C107.301 425.794 107.145 425.729 107.029 425.613C106.914 425.498 106.849 425.342 106.849 425.178C106.849 425.015 106.914 424.859 107.029 424.743C107.145 424.628 107.301 424.563 107.464 424.563H113.999C114.162 424.563 114.319 424.628 114.434 424.743C114.55 424.859 114.615 425.015 114.615 425.178C114.615 425.265 114.597 425.35 114.563 425.429C114.528 425.508 114.477 425.579 114.413 425.637C114.349 425.695 114.274 425.739 114.192 425.766C114.11 425.793 114.024 425.802 113.938 425.794Z" fill="#263238"/>
<path d="M129.468 417.204H123.315C123.152 417.204 122.995 417.139 122.88 417.023C122.765 416.908 122.7 416.752 122.7 416.588C122.7 416.425 122.765 416.269 122.88 416.153C122.995 416.038 123.152 415.973 123.315 415.973H129.468C129.631 415.976 129.785 416.042 129.9 416.157C130.015 416.271 130.08 416.426 130.084 416.588C130.084 416.752 130.019 416.908 129.903 417.023C129.788 417.139 129.632 417.204 129.468 417.204Z" fill="#263238"/>
<path d="M419.239 411.813H130.441V446.235H419.239V411.813Z" fill="#F6B9D5"/>
<path d="M419.226 446.85H130.441C130.277 446.85 130.121 446.785 130.005 446.67C129.89 446.555 129.825 446.398 129.825 446.235V411.863C129.825 411.7 129.89 411.543 130.005 411.428C130.121 411.312 130.277 411.247 130.441 411.247H419.226C419.389 411.247 419.546 411.312 419.661 411.428C419.776 411.543 419.841 411.7 419.841 411.863V446.321C419.82 446.469 419.746 446.604 419.633 446.702C419.52 446.799 419.375 446.852 419.226 446.85V446.85ZM131.056 445.62H418.611V412.392H131.056V445.62Z" fill="#263238"/>
<path d="M147.35 422.656H131.352C131.188 422.656 131.032 422.591 130.917 422.475C130.801 422.36 130.736 422.203 130.736 422.04C130.739 421.878 130.805 421.723 130.92 421.609C131.035 421.494 131.189 421.428 131.352 421.425H147.35C147.512 421.428 147.667 421.494 147.782 421.609C147.897 421.723 147.962 421.878 147.965 422.04C147.965 422.203 147.901 422.36 147.785 422.475C147.67 422.591 147.513 422.656 147.35 422.656Z" fill="#263238"/>
<path d="M142.44 427.566H130.404C130.241 427.566 130.084 427.501 129.969 427.386C129.853 427.27 129.789 427.114 129.789 426.951C129.789 426.787 129.853 426.631 129.969 426.515C130.084 426.4 130.241 426.335 130.404 426.335H142.44C142.603 426.335 142.759 426.4 142.875 426.515C142.99 426.631 143.055 426.787 143.055 426.951C143.055 427.114 142.99 427.27 142.875 427.386C142.759 427.501 142.603 427.566 142.44 427.566Z" fill="#263238"/>
<path d="M418.488 431.135H387.721C387.558 431.135 387.402 431.07 387.286 430.955C387.171 430.839 387.106 430.683 387.106 430.519C387.106 430.356 387.171 430.2 387.286 430.084C387.402 429.969 387.558 429.904 387.721 429.904H418.488C418.651 429.904 418.807 429.969 418.923 430.084C419.038 430.2 419.103 430.356 419.103 430.519C419.103 430.683 419.038 430.839 418.923 430.955C418.807 431.07 418.651 431.135 418.488 431.135Z" fill="#263238"/>
<path d="M394.404 434.704H386.38C386.217 434.704 386.061 434.639 385.945 434.523C385.83 434.408 385.765 434.252 385.765 434.088C385.765 433.925 385.83 433.769 385.945 433.653C386.061 433.538 386.217 433.473 386.38 433.473H394.404C394.568 433.473 394.724 433.538 394.839 433.653C394.955 433.769 395.02 433.925 395.02 434.088C395.02 434.252 394.955 434.408 394.839 434.523C394.724 434.639 394.568 434.704 394.404 434.704Z" fill="#263238"/>
<path d="M213.3 442.284H164.69C164.526 442.284 164.37 442.22 164.254 442.104C164.139 441.989 164.074 441.832 164.074 441.669C164.074 441.506 164.139 441.349 164.254 441.234C164.37 441.119 164.526 441.054 164.69 441.054H213.3C213.464 441.054 213.62 441.119 213.736 441.234C213.851 441.349 213.916 441.506 213.916 441.669C213.913 441.831 213.847 441.986 213.732 442.101C213.617 442.215 213.463 442.281 213.3 442.284V442.284Z" fill="#263238"/>
<path d="M171.876 436.931H159.385C159.223 436.928 159.068 436.862 158.954 436.747C158.839 436.633 158.773 436.478 158.77 436.316C158.77 436.153 158.835 435.996 158.95 435.881C159.066 435.765 159.222 435.7 159.385 435.7H171.876C172.04 435.7 172.196 435.765 172.312 435.881C172.427 435.996 172.492 436.153 172.492 436.316C172.489 436.478 172.423 436.633 172.308 436.747C172.193 436.862 172.039 436.928 171.876 436.931Z" fill="#263238"/>
<path d="M347.836 365.627C347.684 365.628 347.538 365.571 347.426 365.468C347.315 365.366 347.246 365.225 347.233 365.073C347.233 364.876 344.846 344.374 331.149 329.052C317.205 313.41 313.144 291.468 313.095 291.259C313.081 291.179 313.083 291.097 313.1 291.017C313.118 290.938 313.151 290.863 313.198 290.797C313.245 290.73 313.305 290.674 313.374 290.631C313.442 290.587 313.519 290.558 313.599 290.545C313.759 290.519 313.922 290.556 314.055 290.648C314.188 290.74 314.28 290.879 314.313 291.037C314.313 291.259 318.362 312.881 332.072 328.24C346.027 343.869 348.427 364.753 348.452 364.963C348.469 365.124 348.422 365.286 348.32 365.412C348.219 365.539 348.071 365.621 347.91 365.639L347.836 365.627Z" fill="#263238"/>
<path d="M352.881 367.867C352.743 367.868 352.608 367.823 352.498 367.738C352.389 367.653 352.311 367.534 352.278 367.399C352.192 367.03 350.051 358.108 352.832 339.18C355.613 320.253 372.424 303.184 372.584 303.011C372.701 302.898 372.858 302.834 373.021 302.834C373.184 302.834 373.341 302.898 373.458 303.011C373.515 303.069 373.561 303.137 373.592 303.212C373.624 303.287 373.64 303.367 373.64 303.448C373.64 303.529 373.624 303.61 373.592 303.685C373.561 303.76 373.515 303.828 373.458 303.885C373.298 304.057 356.782 320.757 354.05 339.353C351.318 357.948 353.447 367.018 353.472 367.104C353.494 367.182 353.5 367.263 353.489 367.343C353.479 367.423 353.452 367.5 353.41 367.569C353.369 367.638 353.313 367.698 353.248 367.745C353.182 367.792 353.108 367.825 353.029 367.842L352.881 367.867Z" fill="#263238"/>
<path d="M352.882 375.706C352.742 375.705 352.607 375.657 352.498 375.57C352.388 375.483 352.311 375.362 352.279 375.226C352.279 375.005 346.642 351.991 343.319 328.72C339.997 305.448 341.621 292.859 341.633 292.735C341.658 292.575 341.743 292.431 341.872 292.332C342 292.234 342.162 292.188 342.323 292.206C342.484 292.228 342.63 292.312 342.73 292.441C342.829 292.571 342.873 292.734 342.852 292.895C342.852 293.018 341.227 305.423 344.538 328.584C347.848 351.745 353.423 374.746 353.472 374.98C353.492 375.058 353.497 375.139 353.486 375.218C353.474 375.297 353.447 375.374 353.406 375.442C353.365 375.511 353.31 375.571 353.245 375.618C353.181 375.666 353.107 375.7 353.029 375.718L352.882 375.706Z" fill="#263238"/>
<path d="M314.817 296.181C314.817 296.181 308.11 297.855 307.544 285.548C306.978 273.242 315.445 264.836 315.445 264.836C315.445 264.836 315.445 271.556 318.805 276.589C322.164 281.623 321.598 297.301 314.817 296.181Z" fill="#F6B9D5"/>
<path d="M342.248 298.421C342.248 298.421 335.529 300.095 334.975 287.776C334.421 275.457 342.802 267.076 342.802 267.076C342.802 267.076 342.802 273.796 346.162 278.829C349.521 283.862 348.955 299.529 342.248 298.421Z" fill="#F6B9D5"/>
<path d="M369.951 309.718C369.951 309.718 363.404 307.442 369.68 296.834C375.956 286.225 387.586 283.801 387.586 283.801C387.586 283.801 383.894 289.425 383.956 295.48C384.017 301.535 374.947 314.284 369.951 309.718Z" fill="#F6B9D5"/>
<path d="M350.076 362.218C350.076 362.218 354.555 342.072 364.068 332.547C369.712 326.896 377.347 323.684 385.334 323.6C385.334 323.6 374.147 328.08 370.787 337.027C367.428 345.973 367.428 365.578 367.428 365.578H329.376C329.376 365.578 330.496 358.292 320.983 349.899C311.47 341.506 295.754 335.907 295.754 335.907C295.754 335.907 313.107 329.753 325.413 334.787C337.72 339.82 346.691 361.098 346.691 361.098L350.076 362.218Z" fill="#F6B9D5"/>
<path d="M366.886 411.469H328.797L324.342 368.371H371.341L366.886 411.469Z" fill="white"/>
<path d="M366.873 412.072H328.797C328.647 412.073 328.502 412.018 328.391 411.918C328.279 411.818 328.209 411.68 328.194 411.531L323.727 368.458C323.717 368.372 323.725 368.285 323.75 368.202C323.776 368.12 323.818 368.043 323.874 367.978C323.933 367.916 324.004 367.867 324.082 367.833C324.16 367.799 324.244 367.782 324.33 367.781H371.341C371.426 367.779 371.511 367.796 371.59 367.83C371.668 367.864 371.738 367.914 371.796 367.978C371.857 368.041 371.902 368.117 371.93 368.2C371.958 368.283 371.967 368.371 371.956 368.458L367.489 411.531C367.473 411.682 367.401 411.821 367.287 411.922C367.173 412.022 367.025 412.076 366.873 412.072V412.072ZM329.351 410.841H366.27L370.615 368.999H325.019L329.351 410.841Z" fill="#263238"/>
<path d="M325.216 376.826H370.467L371.341 368.371H324.342L325.216 376.826Z" fill="#263238"/>
<path d="M370.467 377.404H325.216C325.063 377.405 324.915 377.349 324.801 377.246C324.687 377.144 324.616 377.003 324.6 376.851L323.727 368.396C323.717 368.31 323.725 368.223 323.75 368.141C323.776 368.058 323.818 367.982 323.874 367.916C323.933 367.855 324.004 367.806 324.082 367.772C324.16 367.738 324.244 367.72 324.33 367.719H371.341C371.426 367.718 371.511 367.735 371.59 367.769C371.668 367.803 371.738 367.853 371.796 367.916C371.857 367.979 371.902 368.055 371.93 368.138C371.958 368.221 371.967 368.309 371.956 368.396L371.082 376.851C371.067 377.003 370.995 377.144 370.882 377.246C370.768 377.349 370.62 377.405 370.467 377.404ZM325.77 376.174H369.913L370.664 368.95H325.019L325.77 376.174Z" fill="#263238"/>
<path d="M375.833 359.978H319.863V370.057H375.833V359.978Z" fill="white"/>
<path d="M375.82 370.66H319.862C319.699 370.66 319.543 370.596 319.427 370.48C319.312 370.365 319.247 370.208 319.247 370.045V359.978C319.247 359.815 319.312 359.659 319.427 359.543C319.543 359.428 319.699 359.363 319.862 359.363H375.82C375.983 359.363 376.14 359.428 376.255 359.543C376.371 359.659 376.436 359.815 376.436 359.978V370.021C376.439 370.103 376.425 370.186 376.396 370.264C376.367 370.341 376.322 370.412 376.264 370.472C376.207 370.531 376.138 370.579 376.062 370.611C375.985 370.644 375.903 370.661 375.82 370.66V370.66ZM320.441 369.43H375.168V360.594H320.478L320.441 369.43Z" fill="#263238"/>
</svg>
