<svg width="500" height="500" viewBox="0 0 500 500" fill="none" xmlns="http://www.w3.org/2000/svg">
<path d="M466.07 106.4C466.6 102.55 461.17 99.4 457.07 99.06C455.12 98.9 453.07 99.2 451.26 98.56C447.26 97.16 445.66 92 441.76 90.36C438.85 89.13 435.49 90.22 432.67 91.64C429.85 93.06 427.05 94.86 423.89 95.06C421.15 95.23 418.16 94.22 415.76 95.56C413.97 96.56 413.03 98.62 411.38 99.84C409.663 100.898 407.676 101.437 405.66 101.39C403.648 101.355 401.648 101.694 399.76 102.39C397.94 103.23 396.43 105.16 396.81 107.13L466.07 106.4Z" fill="#EBEBEB"/>
<path d="M411.17 40.86C411.54 38.22 407.82 36.06 405.03 35.86C403.688 35.9202 402.343 35.8059 401.03 35.52C398.3 34.52 397.21 31.04 394.54 29.91C392.54 29.07 390.26 29.82 388.32 30.79C386.38 31.76 384.48 32.99 382.32 33.13C380.45 33.25 378.41 32.55 376.76 33.47C375.54 34.15 374.9 35.56 373.76 36.4C372.585 37.1203 371.228 37.4882 369.85 37.46C368.487 37.4303 367.131 37.6541 365.85 38.12C365.213 38.3715 364.675 38.8216 364.315 39.4035C363.954 39.9854 363.791 40.6681 363.85 41.35L411.17 40.86Z" fill="#FAFAFA"/>
<path d="M346.11 63.93C346.57 60.59 341.85 57.83 338.3 57.55C336.6 57.41 334.84 57.67 333.24 57.11C329.76 55.9 328.38 51.41 324.98 49.98C322.45 48.91 319.53 49.86 317.07 51.1C314.61 52.34 312.18 53.89 309.44 54.1C307.05 54.25 304.44 53.36 302.36 54.53C300.81 55.4 299.99 57.19 298.56 58.25C297.061 59.1802 295.323 59.6496 293.56 59.6C291.809 59.558 290.066 59.8428 288.42 60.44C286.84 61.17 285.52 62.85 285.85 64.56L346.11 63.93Z" fill="#F5F5F5"/>
<path d="M281.06 190.3H205.14V290.43H281.06V190.3Z" fill="#EBEBEB"/>
<path d="M281.06 190.3H245.46V290.43H281.06V190.3Z" fill="#E0E0E0"/>
<path d="M227.89 203.86H221.06V220.44H227.89V203.86Z" fill="#F5F5F5"/>
<path d="M227.89 268.76H221.06V285.34H227.89V268.76Z" fill="#F5F5F5"/>
<path d="M245.46 227C245.46 227.19 236.46 227.34 225.3 227.34C214.14 227.34 205.14 227.19 205.14 227C205.14 226.81 214.14 226.66 225.3 226.66C236.46 226.66 245.46 226.76 245.46 227Z" fill="#F5F5F5"/>
<path d="M227.89 236.56H221.06V253.14H227.89V236.56Z" fill="#F5F5F5"/>
<path d="M245.46 259.65C245.46 259.84 236.46 259.99 225.3 259.99C214.14 259.99 205.14 259.84 205.14 259.65C205.14 259.46 214.14 259.31 225.3 259.31C236.46 259.31 245.46 259.46 245.46 259.65Z" fill="#F5F5F5"/>
<path d="M259.85 203.86H253.02V220.44H259.85V203.86Z" fill="#F5F5F5"/>
<path d="M274.66 203.86H267.83V220.44H274.66V203.86Z" fill="#F5F5F5"/>
<path d="M259.85 235.33H253.02V251.91H259.85V235.33Z" fill="#F5F5F5"/>
<path d="M274.66 235.33H267.83V251.91H274.66V235.33Z" fill="#F5F5F5"/>
<path d="M259.85 266.79H253.02V283.37H259.85V266.79Z" fill="#F5F5F5"/>
<path d="M274.66 266.79H267.83V283.37H274.66V266.79Z" fill="#F5F5F5"/>
<path d="M286.76 186.81H199.43V190.42H286.76V186.81Z" fill="#E0E0E0"/>
<path d="M281.59 190.76C281.59 190.95 264.59 191.1 243.69 191.1C222.79 191.1 205.8 190.95 205.8 190.76C205.8 190.57 222.8 190.43 243.69 190.43C264.58 190.43 281.59 190.58 281.59 190.76Z" fill="#EBEBEB"/>
<path d="M118.36 103.02H66.3599V267.83H118.36V103.02Z" fill="#F5F5F5"/>
<path d="M118.36 103.02H92.3599V267.37H118.36V103.02Z" fill="#EBEBEB"/>
<path d="M90.6598 86.84H72.2998V103.02H90.6598V86.84Z" fill="#F5F5F5"/>
<path d="M90.6598 86.84H86.2798V103.02H90.6598V86.84Z" fill="#EBEBEB"/>
<path d="M62.0298 103.03V102.08H119.88V103.03" fill="#E0E0E0"/>
<path d="M81.0201 110.08H76.6201V119.36H81.0201V110.08Z" fill="#FAFAFA"/>
<path d="M92.3599 123C92.3599 123.09 86.5399 123.17 79.3599 123.17C72.1799 123.17 66.3599 123.09 66.3599 123C66.3599 122.91 72.1799 122.82 79.3599 122.82C86.5399 122.82 92.3599 122.91 92.3599 123Z" fill="#E0E0E0"/>
<path d="M107.25 110.08H102.85V119.36H107.25V110.08Z" fill="#E0E0E0"/>
<path d="M118.59 123C118.59 123.09 112.77 123.17 105.59 123.17C98.4098 123.17 92.5898 123.09 92.5898 123C92.5898 122.91 98.4098 122.82 105.59 122.82C112.77 122.82 118.59 122.91 118.59 123Z" fill="#E0E0E0"/>
<path d="M107.25 128.51H102.85V137.79H107.25V128.51Z" fill="#E0E0E0"/>
<path d="M118.59 141.43C118.59 141.53 112.77 141.61 105.59 141.61C98.4098 141.61 92.5898 141.53 92.5898 141.43C92.5898 141.33 98.4098 141.26 105.59 141.26C112.77 141.26 118.59 141.33 118.59 141.43Z" fill="#E0E0E0"/>
<path d="M107.25 147.49H102.85V156.77H107.25V147.49Z" fill="#E0E0E0"/>
<path d="M118.59 160.42C118.59 160.51 112.77 160.59 105.59 160.59C98.4098 160.59 92.5898 160.51 92.5898 160.42C92.5898 160.33 98.4098 160.24 105.59 160.24C112.77 160.24 118.59 160.32 118.59 160.42Z" fill="#E0E0E0"/>
<path d="M107.25 166.48H102.85V175.76H107.25V166.48Z" fill="#E0E0E0"/>
<path d="M118.59 179.4C118.59 179.5 112.77 179.58 105.59 179.58C98.4098 179.58 92.5898 179.5 92.5898 179.4C92.5898 179.3 98.4098 179.22 105.59 179.22C112.77 179.22 118.59 179.3 118.59 179.4Z" fill="#E0E0E0"/>
<path d="M107.25 184.92H102.85V194.2H107.25V184.92Z" fill="#E0E0E0"/>
<path d="M118.59 197.84C118.59 197.94 112.77 198.02 105.59 198.02C98.4098 198.02 92.5898 197.94 92.5898 197.84C92.5898 197.74 98.4098 197.66 105.59 197.66C112.77 197.66 118.59 197.74 118.59 197.84Z" fill="#E0E0E0"/>
<path d="M107.25 203.43H102.85V212.71H107.25V203.43Z" fill="#E0E0E0"/>
<path d="M107.25 222.19H102.85V231.47H107.25V222.19Z" fill="#E0E0E0"/>
<path d="M118.59 216.36C118.59 216.45 112.77 216.53 105.59 216.53C98.4098 216.53 92.5898 216.45 92.5898 216.36C92.5898 216.27 98.4098 216.18 105.59 216.18C112.77 216.18 118.59 216.26 118.59 216.36Z" fill="#E0E0E0"/>
<path d="M81.0201 128.79H76.6201V138.07H81.0201V128.79Z" fill="#FAFAFA"/>
<path d="M92.3599 141.71C92.3599 141.81 86.5399 141.89 79.3599 141.89C72.1799 141.89 66.3599 141.81 66.3599 141.71C66.3599 141.61 72.1799 141.54 79.3599 141.54C86.5399 141.54 92.3599 141.62 92.3599 141.71Z" fill="#E0E0E0"/>
<path d="M81.0201 147.5H76.6201V156.78H81.0201V147.5Z" fill="#FAFAFA"/>
<path d="M92.3599 160.42C92.3599 160.52 86.5399 160.6 79.3599 160.6C72.1799 160.6 66.3599 160.52 66.3599 160.42C66.3599 160.32 72.1799 160.25 79.3599 160.25C86.5399 160.25 92.3599 160.32 92.3599 160.42Z" fill="#E0E0E0"/>
<path d="M81.0201 166.21H76.6201V175.49H81.0201V166.21Z" fill="#FAFAFA"/>
<path d="M92.3599 179.13C92.3599 179.23 86.5399 179.31 79.3599 179.31C72.1799 179.31 66.3599 179.23 66.3599 179.13C66.3599 179.03 72.1799 178.95 79.3599 178.95C86.5399 178.95 92.3599 179 92.3599 179.13Z" fill="#E0E0E0"/>
<path d="M81.0201 184.92H76.6201V194.2H81.0201V184.92Z" fill="#FAFAFA"/>
<path d="M92.3599 197.84C92.3599 197.94 86.5399 198.02 79.3599 198.02C72.1799 198.02 66.3599 197.94 66.3599 197.84C66.3599 197.74 72.1799 197.66 79.3599 197.66C86.5399 197.66 92.3599 197.74 92.3599 197.84Z" fill="#E0E0E0"/>
<path d="M81.0201 203.62H76.6201V212.9H81.0201V203.62Z" fill="#FAFAFA"/>
<path d="M92.3599 216.55C92.3599 216.65 86.5399 216.73 79.3599 216.73C72.1799 216.73 66.3599 216.65 66.3599 216.55C66.3599 216.45 72.1799 216.37 79.3599 216.37C86.5399 216.37 92.3599 216.45 92.3599 216.55Z" fill="#E0E0E0"/>
<path d="M81.0201 222.33H76.6201V231.61H81.0201V222.33Z" fill="#FAFAFA"/>
<path d="M110.44 298.45H33.9201L33.5801 177.51H110.11L110.44 298.45Z" fill="#EBEBEB"/>
<path d="M110.1 177.51H71.8398V298.45H110.1V177.51Z" fill="#E0E0E0"/>
<path d="M69.3398 153.7H42.3198V177.51H69.3398V153.7Z" fill="#EBEBEB"/>
<path d="M69.3399 153.7H62.8999V177.51H69.3399V153.7Z" fill="#E0E0E0"/>
<path d="M112.35 176.12H27.21V177.51H112.35V176.12Z" fill="#E0E0E0"/>
<path d="M55.1699 187.9H48.6899V201.56H55.1699V187.9Z" fill="white"/>
<path d="M71.8401 206.91C71.8401 207.06 63.2801 207.18 52.7101 207.18C42.1401 207.18 33.5801 207.06 33.5801 206.91C33.5801 206.76 42.1501 206.65 52.7101 206.65C63.2701 206.65 71.8401 206.77 71.8401 206.91Z" fill="#E0E0E0"/>
<path d="M93.7598 187.9H87.2798V201.56H93.7598V187.9Z" fill="#F5F5F5"/>
<path d="M110.44 206.91C110.44 207.06 101.87 207.18 91.3102 207.18C80.7502 207.18 72.1802 207.06 72.1802 206.91C72.1802 206.76 80.7402 206.65 91.3102 206.65C101.88 206.65 110.44 206.77 110.44 206.91Z" fill="#EBEBEB"/>
<path d="M93.7598 215.01H87.2798V228.67H93.7598V215.01Z" fill="#F5F5F5"/>
<path d="M110.44 234C110.44 234.14 101.87 234.26 91.3102 234.26C80.7502 234.26 72.1802 234.14 72.1802 234C72.1802 233.86 80.7402 233.74 91.3102 233.74C101.88 233.74 110.44 233.89 110.44 234Z" fill="#EBEBEB"/>
<path d="M93.7598 242.95H87.2798V256.61H93.7598V242.95Z" fill="#F5F5F5"/>
<path d="M110.44 262C110.44 262.14 101.87 262.26 91.3102 262.26C80.7502 262.26 72.1802 262.14 72.1802 262C72.1802 261.86 80.7402 261.73 91.3102 261.73C101.88 261.73 110.44 261.82 110.44 262Z" fill="#EBEBEB"/>
<path d="M93.7598 270.88H87.2798V284.54H93.7598V270.88Z" fill="#F5F5F5"/>
<path d="M110.44 289.9C110.44 290.04 101.87 290.16 91.3102 290.16C80.7502 290.16 72.1802 290.04 72.1802 289.9C72.1802 289.76 80.7402 289.64 91.3102 289.64C101.88 289.64 110.44 289.76 110.44 289.9Z" fill="#EBEBEB"/>
<path d="M55.1699 215.43H48.6899V229.09H55.1699V215.43Z" fill="white"/>
<path d="M71.8401 234.44C71.8401 234.59 63.2801 234.71 52.7101 234.71C42.1401 234.71 33.5801 234.59 33.5801 234.44C33.5801 234.29 42.1501 234.18 52.7101 234.18C63.2701 234.18 71.8401 234.3 71.8401 234.44Z" fill="#E0E0E0"/>
<path d="M55.1699 242.96H48.6899V256.62H55.1699V242.96Z" fill="white"/>
<path d="M71.8401 262C71.8401 262.14 63.2801 262.26 52.7101 262.26C42.1401 262.26 33.5801 262.14 33.5801 262C33.5801 261.86 42.1501 261.73 52.7101 261.73C63.2701 261.73 71.8401 261.83 71.8401 262Z" fill="#E0E0E0"/>
<path d="M55.1699 270.49H48.6899V284.15H55.1699V270.49Z" fill="white"/>
<path d="M71.8401 289.51C71.8401 289.65 63.2801 289.77 52.7101 289.77C42.1401 289.77 33.5801 289.65 33.5801 289.51C33.5801 289.37 42.1501 289.24 52.7101 289.24C63.2701 289.24 71.8401 289.36 71.8401 289.51Z" fill="#E0E0E0"/>
<path d="M433 231.45C429.465 230.558 426.142 228.973 423.224 226.788C420.306 224.603 417.851 221.861 416 218.72C414.273 215.672 413.221 212.288 412.914 208.798C412.607 205.308 413.052 201.793 414.22 198.49C416.07 193.35 419.63 188.82 421.16 183.58C422.89 177.64 421.86 171.33 420.79 165.26C419.72 159.19 418.63 152.89 420.25 146.92C421.87 140.95 427 135.34 433.58 134.92C439.68 134.53 445.31 138.75 447.86 143.92C450.41 149.09 450.42 155.07 449.86 160.75C449.3 166.43 448.11 172.12 448.47 177.82C449.21 189.37 456.13 200.24 455.32 211.82C454.89 217.82 452.4 221.68 448.14 226.2C444.47 230.09 438.36 232.66 432.95 231.46" fill="#F5F5F5"/>
<path d="M435.12 288.66C435.05 288.66 435 263.08 435 231.54C435 200 435.05 174.41 435.12 174.41C435.19 174.41 435.23 199.98 435.23 231.54C435.23 263.1 435.18 288.66 435.12 288.66Z" fill="#E0E0E0"/>
<path d="M434.79 211.49C434.408 211.214 434.053 210.903 433.73 210.56C433.1 209.97 432.25 209.13 431.35 208.17C430.45 207.21 429.62 206.36 429.02 205.73C428.684 205.422 428.373 205.087 428.09 204.73C428.467 205.008 428.818 205.319 429.14 205.66C429.77 206.25 430.63 207.09 431.52 208.05C432.41 209.01 433.25 209.87 433.85 210.49C434.187 210.8 434.501 211.134 434.79 211.49V211.49Z" fill="#E0E0E0"/>
<path d="M454.54 283.92H416.34V288.59H454.54V283.92Z" fill="#E0E0E0"/>
<path d="M435.48 187.56C436.305 187.354 437.092 187.017 437.81 186.56C438.56 186.069 439.197 185.425 439.68 184.67C440.267 183.773 440.611 182.74 440.68 181.67V181.57L440.81 181.68C439.728 181.874 438.741 182.419 438 183.23C437.387 183.858 436.859 184.564 436.43 185.33C436.06 185.97 435.79 186.52 435.61 186.89C435.532 187.092 435.435 187.286 435.32 187.47C435.375 187.262 435.445 187.058 435.53 186.86C435.749 186.311 436.003 185.777 436.29 185.26C436.71 184.472 437.231 183.743 437.84 183.09C438.612 182.237 439.647 181.667 440.78 181.47H440.92V181.71C440.845 182.72 440.535 183.698 440.014 184.566C439.493 185.435 438.776 186.169 437.92 186.71C437.384 187.049 436.796 187.299 436.18 187.45C436.015 187.491 435.848 187.521 435.68 187.54L435.48 187.56Z" fill="#E0E0E0"/>
<path d="M435.48 187.56C435.949 186.844 436.485 186.175 437.08 185.56C437.615 184.893 438.207 184.274 438.85 183.71C438.375 184.421 437.839 185.09 437.25 185.71C436.712 186.374 436.12 186.993 435.48 187.56V187.56Z" fill="#E0E0E0"/>
<path d="M225.85 341.8L121.75 341.74C118.773 341.739 115.825 341.151 113.075 340.011C110.325 338.87 107.827 337.199 105.723 335.093C103.618 332.987 101.95 330.487 100.812 327.736C99.6736 324.985 99.0885 322.037 99.0898 319.06V58.06C99.0898 55.0813 99.6769 52.1317 100.817 49.38C101.958 46.6282 103.63 44.1282 105.737 42.0228C107.844 39.9175 110.346 38.248 113.098 37.1099C115.851 35.9718 118.801 35.3874 121.78 35.39L225.88 35.45C231.891 35.4553 237.655 37.8472 241.904 42.0999C246.153 46.3527 248.54 52.1184 248.54 58.13L248.49 319.13C248.49 325.137 246.106 330.899 241.861 335.15C237.616 339.4 231.857 341.792 225.85 341.8V341.8Z" fill="#455A64"/>
<path d="M226.68 44.68H206.5C205.841 44.693 205.192 44.8359 204.589 45.1005C203.986 45.3651 203.441 45.7462 202.986 46.222C202.531 46.6977 202.174 47.2587 201.936 47.8727C201.698 48.4867 201.584 49.1417 201.6 49.8V53.46C201.616 54.1183 201.501 54.7733 201.263 55.3873C201.025 56.0013 200.669 56.5623 200.213 57.0381C199.758 57.5138 199.213 57.8949 198.61 58.1595C198.007 58.4241 197.358 58.567 196.7 58.58H157.36C156.7 58.5671 156.05 58.4238 155.447 58.1586C154.843 57.8934 154.298 57.5113 153.842 57.0345C153.387 56.5577 153.03 55.9956 152.793 55.3804C152.556 54.7652 152.442 54.1091 152.46 53.45V49.76C152.476 49.1017 152.361 48.4467 152.123 47.8327C151.885 47.2187 151.529 46.6577 151.073 46.182C150.618 45.7062 150.073 45.3251 149.47 45.0605C148.867 44.7959 148.218 44.653 147.56 44.64H122.79C118.581 44.6426 114.546 46.3135 111.567 49.2864C108.589 52.2593 106.91 56.2917 106.9 60.5L106.85 315.23C106.85 319.442 108.523 323.481 111.501 326.459C114.479 329.437 118.518 331.11 122.73 331.11L226.61 331.17C228.696 331.173 230.763 330.764 232.691 329.967C234.62 329.17 236.372 328 237.848 326.525C239.324 325.05 240.494 323.299 241.293 321.371C242.091 319.443 242.501 317.377 242.5 315.29L242.55 60.57C242.55 56.3592 240.878 52.3205 237.903 49.3412C234.927 46.3618 230.89 44.6853 226.68 44.68V44.68Z" fill="white"/>
<path d="M226.68 44.68H227.23C227.769 44.6822 228.307 44.7223 228.84 44.8C232.52 45.2947 235.91 47.064 238.42 49.8C239.696 51.1878 240.712 52.7932 241.42 54.54C242.255 56.5897 242.666 58.7871 242.63 61C242.63 63.34 242.63 65.84 242.63 68.48C242.63 89.64 242.63 120.26 242.68 158.09C242.73 195.92 242.68 240.96 242.68 290.98V314.78C242.706 316.414 242.501 318.044 242.07 319.62C241.635 321.206 240.961 322.717 240.07 324.1C239.149 325.476 238.034 326.712 236.76 327.77C234.149 329.883 230.943 331.128 227.59 331.33C224.26 331.43 220.95 331.33 217.59 331.33H197.39H155.88H123.93C120.263 331.532 116.631 330.528 113.59 328.47C110.566 326.366 108.345 323.299 107.29 319.77C106.792 318.025 106.569 316.213 106.63 314.4V309.05C106.63 301.923 106.63 294.843 106.63 287.81C106.63 273.75 106.63 259.91 106.63 246.29C106.63 219.07 106.63 192.81 106.63 167.8C106.63 142.79 106.63 119.02 106.63 96.8C106.63 85.68 106.63 74.95 106.63 64.61V60.75C106.63 60.11 106.69 59.46 106.72 58.82C106.75 58.18 106.88 57.55 107.05 56.93C107.621 54.4562 108.765 52.151 110.39 50.2C111.976 48.3153 113.971 46.8182 116.225 45.8233C118.478 44.8284 120.929 44.3621 123.39 44.46H137.23H147.15C148.261 44.404 149.361 44.7131 150.28 45.34C151.181 45.9626 151.86 46.8557 152.22 47.89C152.521 48.9042 152.633 49.9653 152.55 51.02C152.55 51.54 152.55 52.02 152.55 52.57C152.525 53.073 152.525 53.577 152.55 54.08C152.674 55.0652 153.088 55.9912 153.74 56.74C154.372 57.4857 155.222 58.0139 156.17 58.25C156.638 58.3628 157.119 58.4099 157.6 58.39H164.79H185.73H194.97C195.69 58.39 196.44 58.39 197.13 58.39C197.821 58.3106 198.484 58.0746 199.07 57.7C199.637 57.3433 200.127 56.8762 200.51 56.3264C200.893 55.7767 201.162 55.1556 201.3 54.5C201.41 53.8663 201.45 53.2225 201.42 52.58C201.42 51.93 201.42 51.3 201.42 50.68C201.391 50.0589 201.418 49.4364 201.5 48.82C201.601 48.2233 201.804 47.6483 202.1 47.12C202.658 46.1024 203.552 45.3105 204.63 44.88C205.651 44.5599 206.725 44.4477 207.79 44.55H218.09H224.42H226.58C226.58 44.55 225.85 44.55 224.42 44.55H218.09H207.79C206.744 44.4487 205.689 44.5645 204.69 44.89C203.642 45.3089 202.772 46.0797 202.23 47.07C201.947 47.5834 201.754 48.1415 201.66 48.72C201.582 49.3267 201.556 49.9389 201.58 50.55V52.45C201.617 53.1191 201.577 53.7902 201.46 54.45C201.315 55.1279 201.037 55.7702 200.642 56.3401C200.247 56.9099 199.744 57.3959 199.16 57.77C198.554 58.1535 197.871 58.3993 197.16 58.49C196.42 58.55 195.71 58.49 194.98 58.49H157.69C157.185 58.5096 156.681 58.4591 156.19 58.34C155.222 58.1597 154.33 57.6929 153.63 57C152.947 56.2086 152.51 55.2358 152.37 54.2C152.318 53.6851 152.302 53.1672 152.32 52.65V51.05C152.399 50.0395 152.294 49.023 152.01 48.05C151.661 47.0756 151.018 46.2335 150.17 45.64C149.288 45.0434 148.233 44.7551 147.17 44.82H123.44C121.035 44.7333 118.641 45.1951 116.441 46.1706C114.24 47.146 112.291 48.6095 110.74 50.45C109.155 52.3668 108.039 54.6266 107.48 57.05C107.32 57.65 107.27 58.28 107.16 58.9C107.05 59.52 107.08 60.15 107.08 60.79V96.79C107.08 119.03 107.08 142.79 107.08 167.79V246.3C107.08 259.913 107.08 273.753 107.08 287.82V314.41C107.021 316.183 107.237 317.954 107.72 319.66C108.753 323.084 110.909 326.061 113.84 328.11C116.808 330.117 120.353 331.093 123.93 330.89H134.65H155.88H197.39H217.62C220.95 330.89 224.3 330.94 227.57 330.89C230.834 330.696 233.957 329.486 236.5 327.43C237.739 326.397 238.823 325.191 239.72 323.85C240.607 322.512 241.282 321.045 241.72 319.5C242.14 317.959 242.339 316.367 242.31 314.77V310C242.31 303.6 242.31 297.267 242.31 291C242.31 241 242.31 195.94 242.39 158.1C242.47 120.26 242.45 89.66 242.47 68.5C242.47 65.86 242.47 63.36 242.47 61.02C242.51 58.831 242.116 56.6556 241.31 54.62C240.602 52.8792 239.585 51.2803 238.31 49.9C235.823 47.177 232.463 45.4085 228.81 44.9C228.28 44.8158 227.746 44.7657 227.21 44.75L226.68 44.68Z" fill="#263238"/>
<path d="M229.73 73.71C229.73 73.78 227.1 73.86 223.87 73.88C220.64 73.9 218 73.88 218 73.81C218 73.74 220.63 73.66 223.86 73.64C227.09 73.62 229.73 73.64 229.73 73.71Z" fill="#263238"/>
<path d="M229.75 76.71C229.75 76.78 227.13 76.86 223.89 76.88C220.65 76.9 218.03 76.88 218.03 76.81C218.03 76.74 220.65 76.66 223.89 76.64C227.13 76.62 229.75 76.64 229.75 76.71Z" fill="#263238"/>
<path d="M229.78 79.71C229.78 79.78 227.15 79.86 223.92 79.88C220.69 79.9 218.05 79.88 218.05 79.81C218.05 79.74 220.68 79.66 223.91 79.64C227.14 79.62 229.78 79.64 229.78 79.71Z" fill="#263238"/>
<path d="M122.92 80.64H123.17H123.85L126.35 80.58L126.28 80.65C126.28 80.1 126.28 79.49 126.28 78.84C126.28 78.5 126.28 78.18 126.28 77.84C126.325 77.6414 126.429 77.4613 126.58 77.3237C126.73 77.1861 126.918 77.0976 127.12 77.07C127.53 77.07 127.88 77.07 128.32 77.07C128.553 77.1126 128.763 77.2365 128.913 77.4196C129.063 77.6028 129.144 77.8332 129.14 78.07C129.14 78.92 129.14 79.8 129.14 80.72L129.03 80.61H132.18L132.06 80.74C132.06 79.46 132.06 78.15 132.06 76.8C132.06 76.46 132.06 76.13 132.06 75.8C132.048 75.65 132.002 75.5046 131.926 75.3747C131.85 75.2448 131.745 75.1339 131.62 75.05L130.24 73.69L128.9 72.38L128.26 71.74C128.04 71.53 127.86 71.3 127.6 71.25C127.477 71.2174 127.349 71.213 127.224 71.2373C127.099 71.2615 126.982 71.3138 126.88 71.39C126.69 71.55 126.49 71.78 126.29 71.97L125.16 73.11C124.45 73.85 123.7 74.53 123.16 75.17C123.004 75.5427 122.953 75.9504 123.01 76.35C123.01 76.74 123.01 77.11 123.01 77.46C123.01 78.14 123.01 78.74 123.01 79.25C123.01 79.76 123.01 80.09 123.01 80.4C123.018 80.5366 123.018 80.6735 123.01 80.81C123.01 80.81 123.01 80.69 123.01 80.43C123.01 80.17 123.01 79.75 123.01 79.3C123.01 78.85 123.01 78.18 123.01 77.5C123.01 77.14 123.01 76.76 123.01 76.36C123.01 76.16 123.01 75.95 123.01 75.74C123.007 75.5088 123.066 75.281 123.18 75.08C123.77 74.36 124.46 73.73 125.18 72.97L126.31 71.82C126.51 71.62 126.68 71.42 126.92 71.21C127.049 71.1149 127.198 71.0495 127.355 71.0184C127.512 70.9873 127.674 70.9913 127.83 71.03C128.128 71.1371 128.391 71.3239 128.59 71.57L129 72L130.34 73.31L131.72 74.67C131.851 74.7824 131.969 74.91 132.07 75.05C132.171 75.2094 132.229 75.3918 132.24 75.58C132.24 75.91 132.24 76.25 132.24 76.58C132.24 77.9134 132.24 79.2234 132.24 80.51V80.64H132.12H128.96H128.84V80.52C128.84 79.6 128.84 78.72 128.84 77.87C128.84 77.6882 128.776 77.5121 128.659 77.373C128.542 77.2339 128.379 77.1407 128.2 77.11C127.84 77.11 127.41 77.11 127.05 77.11C126.885 77.1279 126.731 77.1976 126.609 77.3091C126.487 77.4205 126.403 77.5679 126.37 77.73C126.37 78.05 126.37 78.42 126.37 78.73V80.61H126.3H123.76H123.09C123.035 80.6268 122.978 80.6369 122.92 80.64V80.64Z" fill="#263238"/>
<path d="M207.32 238.62H144.36C137.986 238.62 132.82 243.787 132.82 250.16V253.36C132.82 259.733 137.986 264.9 144.36 264.9H207.32C213.693 264.9 218.86 259.733 218.86 253.36V250.16C218.86 243.787 213.693 238.62 207.32 238.62Z" fill="#F6B9D5"/>
<path d="M159.4 254.23L159.86 253.23C160.432 253.621 161.107 253.834 161.8 253.84C162.61 253.84 162.94 253.57 162.94 253.21C162.94 252.11 159.52 252.86 159.52 250.68C159.52 249.68 160.32 248.84 162 248.84C162.702 248.833 163.393 249.017 164 249.37L163.58 250.37C163.085 250.079 162.524 249.921 161.95 249.91C161.14 249.91 160.83 250.21 160.83 250.58C160.83 251.67 164.25 250.92 164.25 253.08C164.25 254.08 163.44 254.9 161.75 254.9C160.918 254.914 160.1 254.681 159.4 254.23V254.23Z" fill="white"/>
<path d="M169.78 253.72V254.81H165.22V248.93H169.67V250H166.57V251.28H169.31V252.34H166.57V253.7L169.78 253.72Z" fill="white"/>
<path d="M170.86 248.93H172.22V253.7H175.17V254.81H170.86V248.93Z" fill="white"/>
<path d="M180.49 253.72V254.81H175.93V248.93H180.38V250H177.29V251.28H180V252.34H177.27V253.7L180.49 253.72Z" fill="white"/>
<path d="M181.18 251.87C181.217 251.235 181.441 250.625 181.823 250.117C182.205 249.608 182.728 249.223 183.328 249.01C183.927 248.797 184.576 248.764 185.193 248.917C185.811 249.07 186.369 249.402 186.8 249.87L185.93 250.67C185.748 250.454 185.522 250.28 185.266 250.161C185.011 250.042 184.732 249.98 184.45 249.98C184.191 249.961 183.93 249.996 183.685 250.082C183.44 250.168 183.216 250.304 183.025 250.481C182.835 250.658 182.683 250.872 182.58 251.11C182.476 251.348 182.422 251.605 182.422 251.865C182.422 252.125 182.476 252.382 182.58 252.62C182.683 252.858 182.835 253.072 183.025 253.249C183.216 253.426 183.44 253.562 183.685 253.648C183.93 253.734 184.191 253.769 184.45 253.75C184.733 253.753 185.014 253.692 185.27 253.571C185.527 253.449 185.752 253.271 185.93 253.05L186.8 253.86C186.369 254.328 185.811 254.66 185.193 254.813C184.576 254.966 183.927 254.933 183.328 254.72C182.728 254.507 182.205 254.122 181.823 253.613C181.441 253.105 181.217 252.495 181.18 251.86V251.87Z" fill="white"/>
<path d="M188.87 250H187V248.89H192.13V250H190.24V254.77H188.88L188.87 250Z" fill="white"/>
<path d="M231.61 137.1C231.84 135.4 229.45 134.01 227.61 133.86C226.751 133.892 225.891 133.819 225.05 133.64C223.29 133.03 222.59 130.75 220.87 130.03C220.201 129.834 219.498 129.784 218.808 129.883C218.118 129.981 217.457 130.225 216.87 130.6C215.691 131.349 214.376 131.859 213 132.1C211.8 132.18 210.48 131.73 209.42 132.32C208.64 132.76 208.22 133.67 207.5 134.2C206.744 134.67 205.869 134.91 204.98 134.89C204.094 134.866 203.212 135.008 202.38 135.31C201.961 135.464 201.606 135.753 201.37 136.131C201.135 136.51 201.032 136.957 201.08 137.4L231.61 137.1Z" fill="#EBEBEB"/>
<path d="M217.28 150.91H139.87V215.55H217.28V150.91Z" fill="#F5F5F5"/>
<path d="M139.87 215.55C139.87 213.73 139.87 189.68 139.79 150.91V150.82H217.39V150.92C217.39 174.33 217.39 196.42 217.39 215.56V215.65H217.3L139.88 215.56L217.3 215.47L217.2 215.56C217.2 196.42 217.2 174.33 217.2 150.92L217.31 151.03H139.9L139.99 150.94C139.91 189.68 139.88 213.73 139.87 215.55Z" fill="#263238"/>
<path d="M165.2 196.75H157.16V215.55H165.2V196.75Z" fill="#455A64"/>
<path d="M158 207.33C158 207.385 158.011 207.439 158.032 207.489C158.053 207.54 158.084 207.585 158.124 207.624C158.163 207.662 158.209 207.692 158.26 207.712C158.311 207.732 158.365 207.741 158.42 207.74C158.529 207.74 158.633 207.697 158.71 207.62C158.787 207.543 158.83 207.439 158.83 207.33C158.831 207.275 158.822 207.221 158.802 207.17C158.782 207.119 158.752 207.073 158.714 207.034C158.675 206.994 158.63 206.963 158.579 206.942C158.529 206.921 158.475 206.91 158.42 206.91C158.309 206.91 158.202 206.954 158.123 207.033C158.044 207.112 158 207.219 158 207.33V207.33Z" fill="#FAFAFA"/>
<path d="M139.87 179.19C139.87 179.19 157.15 179.26 178.48 179.26C199.81 179.26 217.09 179.26 217.09 179.19C217.09 179.12 199.8 179.12 178.48 179.12C157.16 179.12 139.87 179.15 139.87 179.19Z" fill="#E0E0E0"/>
<path d="M139.87 181.48C139.87 181.48 157.15 181.55 178.48 181.55C199.81 181.55 217.09 181.55 217.09 181.48C217.09 181.41 199.8 181.41 178.48 181.41C157.16 181.41 139.87 181.44 139.87 181.48Z" fill="#E0E0E0"/>
<path d="M139.87 183.77C139.87 183.77 157.15 183.84 178.48 183.84C199.81 183.84 217.09 183.84 217.09 183.77C217.09 183.7 199.8 183.7 178.48 183.7C157.16 183.7 139.87 183.73 139.87 183.77Z" fill="#E0E0E0"/>
<path d="M139.87 186.06C139.87 186.06 157.15 186.13 178.48 186.13C199.81 186.13 217.09 186.13 217.09 186.06C217.09 185.99 199.8 186 178.48 186C157.16 186 139.87 186 139.87 186.06Z" fill="#E0E0E0"/>
<path d="M139.87 188.35C139.87 188.35 157.15 188.42 178.48 188.42C199.81 188.42 217.09 188.42 217.09 188.35C217.09 188.28 199.8 188.28 178.48 188.28C157.16 188.28 139.87 188.31 139.87 188.35Z" fill="#E0E0E0"/>
<path d="M139.87 190.64C139.87 190.64 157.15 190.71 178.48 190.71C199.81 190.71 217.09 190.71 217.09 190.64C217.09 190.57 199.8 190.57 178.48 190.57C157.16 190.57 139.87 190.6 139.87 190.64Z" fill="#E0E0E0"/>
<path d="M139.87 192.93C139.87 192.93 157.15 193 178.48 193C199.81 193 217.09 193 217.09 192.93C217.09 192.86 199.8 192.86 178.48 192.86C157.16 192.86 139.87 192.89 139.87 192.93Z" fill="#E0E0E0"/>
<path d="M139.87 195.22C139.87 195.22 157.15 195.29 178.48 195.29C199.81 195.29 217.09 195.29 217.09 195.22C217.09 195.15 199.8 195.15 178.48 195.15C157.16 195.15 139.87 195.18 139.87 195.22Z" fill="#E0E0E0"/>
<path d="M180.7 171.38H186.68V159.67H180.7V171.38Z" fill="white"/>
<path d="M180.7 171.38C180.704 171.36 180.704 171.34 180.7 171.32V171.15C180.7 170.99 180.7 170.78 180.7 170.5C180.7 169.92 180.7 169.1 180.7 168.07C180.7 165.99 180.7 163.07 180.7 159.67L180.63 159.74H186.63C186.63 159.74 186.49 159.61 186.56 159.67V166.04C186.56 168.04 186.56 169.82 186.56 171.36H186.62H182.27H181.05H182.23H186.62V171.3C186.62 169.76 186.62 167.96 186.62 165.98V159.61L186.55 159.54H180.5V159.61C180.5 163.03 180.5 165.97 180.5 168.05V170.47V171.32L180.7 171.38Z" fill="#263238"/>
<path d="M183.67 171.37C183.67 171.37 183.74 168.74 183.74 165.49C183.74 162.24 183.74 159.6 183.67 159.6C183.6 159.6 183.6 162.24 183.6 165.49C183.6 168.74 183.63 171.37 183.67 171.37Z" fill="#263238"/>
<path d="M180.77 165.93C180.77 165.93 182.12 166 183.77 166C185.42 166 186.77 166 186.77 165.93C186.77 165.86 185.42 165.86 183.77 165.86C182.12 165.86 180.77 165.89 180.77 165.93Z" fill="#263238"/>
<path d="M146.59 208.95H152.57V197.24H146.59V208.95Z" fill="#FAFAFA"/>
<path d="M146.59 209C146.59 209 146.59 209 146.59 208.94V208.77C146.59 208.61 146.59 208.4 146.59 208.12C146.59 207.54 146.59 206.72 146.59 205.69C146.59 203.61 146.59 200.69 146.59 197.29L146.52 197.36H152.52L152.45 197.29V203.66C152.45 205.66 152.45 207.44 152.45 208.98H148.1H147H148.18H152.57H152.62V209C152.62 207.46 152.62 205.66 152.62 203.68V197.31C152.69 197.37 152.54 197.22 152.55 197.24H146.55V197.31C146.55 200.73 146.55 203.67 146.55 205.75V208.17V209H146.59Z" fill="#263238"/>
<path d="M149.56 209C149.56 209 149.63 206.36 149.63 203.11C149.63 199.86 149.63 197.22 149.56 197.22C149.49 197.22 149.49 199.86 149.49 203.11C149.49 206.36 149.52 209 149.56 209Z" fill="#263238"/>
<path d="M146.66 203.5C146.66 203.5 148.01 203.57 149.66 203.57C151.31 203.57 152.66 203.57 152.66 203.5C152.66 203.43 151.31 203.43 149.66 203.43C148.01 203.43 146.66 203.46 146.66 203.5Z" fill="#263238"/>
<path d="M189.15 175.17C189.154 175.117 189.154 175.063 189.15 175.01V174.56C189.15 174.16 189.15 173.61 189.15 172.94V172.99H195.15L195.08 172.92V175.14L195.15 175.07H190.87H189.61H190.85C191.92 175.07 193.43 175.07 195.18 175.07H195.25V173C195.25 173 195.12 172.86 195.18 172.92C192.8 172.92 190.66 172.92 189.18 172.92H189.13V172.97C189.13 173.65 189.13 174.21 189.13 174.62V175C189.13 175.057 189.137 175.114 189.15 175.17Z" fill="#E0E0E0"/>
<path d="M151.55 157.36C151.554 157.31 151.554 157.26 151.55 157.21C151.55 157.09 151.55 156.96 151.55 156.79C151.55 156.41 151.55 155.91 151.55 155.29V155.34H155.88L155.81 155.27V156.27C155.81 156.61 155.81 156.95 155.81 157.27L155.87 157.2C154.62 157.2 153.55 157.2 152.78 157.2H151.88H151.54C151.643 157.21 151.747 157.21 151.85 157.2H152.74H155.87H156V155.09C156 155.09 155.86 154.95 155.92 155.02H151.59H151.53C151.53 155.65 151.53 156.17 151.53 156.55C151.53 156.71 151.53 156.85 151.53 156.96C151.491 157.092 151.498 157.233 151.55 157.36V157.36Z" fill="#E0E0E0"/>
<path d="M185.31 177.29H191.12V175.17H185.31V177.29Z" fill="#E0E0E0"/>
<path d="M178.17 158.06H183.98V155.94H178.17V158.06Z" fill="#E0E0E0"/>
<path d="M150.1 175.36H155.91V173.24H150.1V175.36Z" fill="#E0E0E0"/>
<path d="M140.13 167.52H144.7V165.4H140.13V167.52Z" fill="#E0E0E0"/>
<path d="M153 129.43L206.22 129.81L223.36 150.91H136.07L153 129.43Z" fill="#F6B9D5"/>
<path d="M153 129.43C153 129.43 152.61 129.95 151.85 130.93L148.5 135.2L136.13 151L136.07 150.88H206.24H223.36L223.28 151.05C217.17 143.52 211.41 136.41 206.15 129.94H206.22L167.74 129.62L156.87 129.52H153C153 129.52 154.34 129.52 156.85 129.52H167.71L206.22 129.75L223.37 150.85L223.51 151.01H206.24H136.07H135.93L136.02 150.9L148.46 135.16L151.83 130.92L153 129.43Z" fill="#263238"/>
<path d="M179.72 138.69L175.63 145.5H157.2V138.69L165.24 124.09L175.63 138.57L179.72 138.69Z" fill="#F5F5F5"/>
<path d="M165.98 139.13C167.642 139.13 168.99 137.782 168.99 136.12C168.99 134.458 167.642 133.11 165.98 133.11C164.317 133.11 162.97 134.458 162.97 136.12C162.97 137.782 164.317 139.13 165.98 139.13Z" fill="white"/>
<path d="M163 136.12C162.98 135.872 163 135.622 163.06 135.38C163.216 134.704 163.601 134.104 164.15 133.68C164.557 133.361 165.038 133.151 165.549 133.069C166.06 132.987 166.583 133.035 167.07 133.21C167.669 133.427 168.187 133.823 168.553 134.345C168.918 134.866 169.115 135.488 169.115 136.125C169.115 136.762 168.918 137.384 168.553 137.905C168.187 138.427 167.669 138.823 167.07 139.04C166.583 139.215 166.06 139.263 165.549 139.181C165.038 139.099 164.557 138.889 164.15 138.57C163.601 138.146 163.216 137.546 163.06 136.87C163 136.625 162.98 136.372 163 136.12C163 136.12 163 136.39 163.14 136.85C163.245 137.245 163.432 137.614 163.688 137.933C163.944 138.252 164.265 138.515 164.628 138.703C164.991 138.891 165.39 139.001 165.798 139.027C166.207 139.052 166.616 138.992 167 138.85C167.393 138.705 167.751 138.477 168.048 138.181C168.346 137.885 168.576 137.528 168.723 137.135C168.87 136.743 168.931 136.323 168.902 135.904C168.872 135.486 168.753 135.079 168.552 134.71C168.35 134.342 168.072 134.022 167.736 133.771C167.4 133.52 167.014 133.344 166.604 133.256C166.193 133.168 165.769 133.169 165.36 133.259C164.95 133.35 164.565 133.527 164.23 133.78C163.698 134.181 163.314 134.747 163.14 135.39C163 135.86 163 136.13 163 136.12Z" fill="#263238"/>
<path d="M155.14 175.2H174.5V155.12H155.14V175.2Z" fill="white"/>
<path d="M155.15 175.21V174.83C155.15 174.58 155.15 174.22 155.15 173.75C155.15 172.8 155.15 171.41 155.15 169.66C155.15 166.14 155.15 161.13 155.15 155.13L155.09 155.19H174.45L174.38 155.12C174.38 162.48 174.38 169.38 174.38 175.2L174.44 175.13H160.44H156.44H160.37H174.43H174.49V175.07C174.49 169.25 174.49 162.35 174.49 154.99V154.91H154.99V154.98C154.99 160.98 154.99 165.98 154.99 169.55C154.99 171.3 154.99 172.68 154.99 173.62C154.99 174.09 154.99 174.45 154.99 174.69V174.97C154.995 175.02 155.012 175.068 155.04 175.11C155.068 175.152 155.106 175.186 155.15 175.21Z" fill="#263238"/>
<path d="M164.46 174.93C164.46 174.93 164.53 170.53 164.53 165.09C164.53 159.65 164.53 155.25 164.46 155.25C164.39 155.25 164.39 159.66 164.39 165.09C164.39 170.52 164.42 174.93 164.46 174.93Z" fill="#263238"/>
<path d="M155.36 165.81C155.36 165.81 159.6 165.88 164.83 165.88C170.06 165.88 174.3 165.88 174.3 165.81C174.3 165.74 170.06 165.74 164.83 165.74C159.6 165.74 155.36 165.77 155.36 165.81Z" fill="#263238"/>
<path d="M144.03 171.14H150.01V159.43H144.03V171.14Z" fill="#FAFAFA"/>
<path d="M144 171.14C143.998 171.12 143.998 171.1 144 171.08V170.26V167.83C144 165.75 144 162.83 144 159.43L143.93 159.5H149.93L149.86 159.43V165.8C149.86 167.8 149.86 169.58 149.86 171.12H149.92H145.56H144.35H145.53H149.92H149.97V171.06C149.97 169.52 149.97 167.72 149.97 165.74C149.97 164.74 149.97 163.74 149.97 162.65V159.37C150.03 159.44 149.88 159.28 149.9 159.3H143.9V159.37C143.9 162.79 143.9 165.73 143.9 167.81C143.9 168.81 143.9 169.66 143.9 170.23C143.9 170.5 143.9 170.71 143.9 170.87V171.08L144 171.14Z" fill="#263238"/>
<path d="M147 171.14C147 171.14 147.07 168.5 147.07 165.25C147.07 162 147.07 159.36 147 159.36C146.93 159.36 146.93 162 146.93 165.25C146.93 168.5 147 171.14 147 171.14Z" fill="#263238"/>
<path d="M144.1 165.69C144.1 165.69 145.45 165.76 147.1 165.76C148.75 165.76 150.1 165.76 150.1 165.69C150.1 165.62 148.74 165.62 147.1 165.62C145.46 165.62 144.1 165.65 144.1 165.69Z" fill="#263238"/>
<path d="M135.34 192.65H132.39V215.55H135.34V192.65Z" fill="#F5F5F5"/>
<path d="M132.39 215.55C132.39 215.55 132.39 215.41 132.39 215.11C132.39 214.81 132.39 214.33 132.39 213.81C132.39 212.6 132.39 210.97 132.39 208.98C132.39 204.78 132.39 199.07 132.39 192.65V192.54H135.44C135.65 192.75 135.44 192.61 135.54 192.65V199.86C135.54 202.14 135.54 204.29 135.54 206.28C135.54 210.15 135.54 213.34 135.49 215.54H133.28H132.54H133.31H135.49L135.44 215.59C135.44 213.39 135.44 210.2 135.44 206.33C135.44 204.33 135.44 202.19 135.44 199.91C135.44 198.76 135.44 197.58 135.44 196.38V192.7C135.49 192.7 135.34 192.59 135.55 192.8H132.55L132.65 192.7C132.65 199.1 132.65 204.78 132.65 208.95C132.65 210.95 132.65 212.6 132.65 213.81C132.65 214.34 132.65 214.81 132.65 215.13C132.65 215.45 132.39 215.55 132.39 215.55Z" fill="#263238"/>
<path d="M172.14 192.65H169.19V215.55H172.14V192.65Z" fill="#F5F5F5"/>
<path d="M169.19 215.55C169.19 215.55 169.19 215.41 169.19 215.11C169.19 214.81 169.19 214.33 169.19 213.81C169.19 212.6 169.19 210.97 169.19 208.98C169.19 204.78 169.19 199.07 169.19 192.65V192.54H172.19C172.4 192.75 172.25 192.61 172.29 192.65V199.86C172.29 202.14 172.29 204.29 172.29 206.28C172.29 210.15 172.29 213.34 172.29 215.54H172.24H170.03H169.29H170.06H172.24V215.59C172.24 213.39 172.24 210.2 172.24 206.33C172.24 204.33 172.24 202.19 172.24 199.91V192.7L172.34 192.8H169.39L169.5 192.7C169.5 199.1 169.5 204.78 169.45 208.95C169.45 210.95 169.45 212.6 169.45 213.81C169.45 214.34 169.45 214.81 169.45 215.13C169.45 215.45 169.19 215.55 169.19 215.55Z" fill="#263238"/>
<path d="M192.26 192.76H128.53L142.39 181.31H176.88L192.26 192.76Z" fill="#F6B9D5"/>
<g opacity="0.3">
<path d="M192.26 192.76H128.53L142.39 181.31H176.88L192.26 192.76Z" fill="black"/>
</g>
<path d="M176.88 181.31L164.81 192.76H192.35L176.88 181.31Z" fill="#F6B9D5"/>
<path d="M157.2 138.69H154.97L164.22 122.73L165.24 124.09L157.2 138.69Z" fill="#F6B9D5"/>
<path d="M157.2 138.7H155L164.26 122.7L165.26 124.06L157.2 138.7ZM154.99 138.7H157.19L165.19 124.11L164.19 122.77L154.99 138.7Z" fill="#263238"/>
<g opacity="0.3">
<path d="M157.2 138.69H154.97L164.22 122.73L165.24 124.09L157.2 138.69Z" fill="black"/>
</g>
<path d="M175.63 145.5V138.58H179.78L175.63 145.5Z" fill="#EBEBEB"/>
<path d="M179.72 138.69H183.05L171.51 122.66L164.22 122.73L175.63 138.57L179.72 138.69Z" fill="#F6B9D5"/>
<path d="M179.72 138.69H178.65L175.65 138.62L164.19 122.81L164.08 122.65H164.28H167.66H171.57H171.62L183.12 138.72L183.18 138.8H183.08H180.6H179.75H180.6H183.08V138.88L171.49 122.88H171.58H167.68H164.29L164.37 122.71L175.75 138.57L178.75 138.69H179.72Z" fill="#263238"/>
<path d="M198.85 151C198.9 151 198.95 165.46 198.95 183.29C198.95 201.12 198.95 215.58 198.85 215.58C198.75 215.58 198.74 201.13 198.74 183.29C198.74 165.45 198.79 151 198.85 151Z" fill="#263238"/>
<path d="M178.64 209.3H184.62V197.59H178.64V209.3Z" fill="#FAFAFA"/>
<path d="M178.65 209.3V208.41C178.65 207.84 178.65 207.01 178.65 205.98C178.65 203.91 178.65 200.98 178.65 197.58L178.58 197.65H184.58L184.51 197.58V200.85C184.51 201.92 184.51 202.96 184.51 203.95C184.51 205.95 184.51 207.72 184.51 209.27L184.56 209.21H180.21H178.7C178.63 209.21 178.59 209.21 178.59 209.21H180.18H184.56H184.62C184.62 207.66 184.62 205.86 184.62 203.89V200.79C184.62 200.26 184.62 199.72 184.62 199.17V197.52L184.54 197.44H178.54V197.5C178.54 200.93 178.54 203.86 178.54 205.95C178.54 206.95 178.54 207.79 178.54 208.36V209.16C178.591 209.194 178.63 209.243 178.65 209.3V209.3Z" fill="#263238"/>
<path d="M181.62 209.29C181.62 209.29 181.69 206.65 181.69 203.4C181.69 200.15 181.69 197.52 181.62 197.52C181.55 197.52 181.54 200.15 181.54 203.4C181.54 206.65 181.58 209.29 181.62 209.29Z" fill="#263238"/>
<path d="M178.72 203.85C178.72 203.85 180.07 203.92 181.72 203.92C183.37 203.92 184.72 203.92 184.72 203.85C182.721 203.744 180.718 203.744 178.72 203.85V203.85Z" fill="#263238"/>
<path d="M223 215.52C223 215.52 201.34 215.62 174.63 215.62C147.92 215.62 126.26 215.57 126.26 215.52C126.26 215.47 147.91 215.41 174.63 215.41C201.35 215.41 223 215.46 223 215.52Z" fill="#263238"/>
<path d="M199.38 94.53C199.38 94.68 188.24 94.79 174.5 94.79C160.76 94.79 149.62 94.68 149.62 94.53C149.62 94.38 160.76 94.27 174.5 94.27C188.24 94.27 199.38 94.39 199.38 94.53Z" fill="#263238"/>
<path d="M188.23 98.4601C188.23 98.6001 182.55 98.7201 175.53 98.7201C168.51 98.7201 162.83 98.6001 162.83 98.4601C162.83 98.3201 168.52 98.2001 175.53 98.2001C182.54 98.2001 188.23 98.3101 188.23 98.4601Z" fill="#263238"/>
<path d="M221.85 283.1C221.85 283.24 202.07 283.36 177.67 283.36C153.27 283.36 133.49 283.24 133.49 283.1C133.49 282.96 153.27 282.84 177.67 282.84C202.07 282.84 221.85 283 221.85 283.1Z" fill="#263238"/>
<path d="M221.85 293.62C221.85 293.77 202.07 293.88 177.67 293.88C153.27 293.88 133.49 293.77 133.49 293.62C133.49 293.47 153.27 293.36 177.67 293.36C202.07 293.36 221.85 293.48 221.85 293.62Z" fill="#263238"/>
<path d="M221.85 304.3C221.85 304.44 202.07 304.56 177.67 304.56C153.27 304.56 133.49 304.44 133.49 304.3C133.49 304.16 153.27 304.04 177.67 304.04C202.07 304.04 221.85 304.15 221.85 304.3Z" fill="#263238"/>
<path d="M153 121C153.23 119.3 150.84 117.91 149 117.77C148.14 117.805 147.279 117.728 146.44 117.54C144.68 116.93 143.98 114.66 142.26 113.93C141.591 113.735 140.888 113.684 140.198 113.783C139.508 113.881 138.847 114.125 138.26 114.5C137.083 115.253 135.767 115.763 134.39 116C133.18 116.08 131.87 115.63 130.81 116.22C130.02 116.66 129.61 117.57 128.88 118.11C128.122 118.574 127.248 118.81 126.36 118.79C125.477 118.769 124.598 118.915 123.77 119.22C123.353 119.373 122.999 119.661 122.763 120.037C122.528 120.414 122.425 120.858 122.47 121.3L153 121Z" fill="#EBEBEB"/>
<path d="M95.6997 384.32C101.23 378.795 108.101 374.802 115.639 372.732C123.177 370.661 131.123 370.585 138.7 372.51C125.855 381.259 110.7 385.993 95.1597 386.11" fill="#F6B9D5"/>
<path d="M110.29 332.64C108.5 319.96 113.43 305.69 122.92 296.48C123.24 309.04 117.92 323.18 110.29 332.64Z" fill="#F6B9D5"/>
<path d="M102.7 356.59C109.564 343.569 120.481 333.136 133.8 326.87C131.719 334.171 127.731 340.786 122.246 346.034C116.76 351.282 109.976 354.974 102.59 356.73" fill="#F6B9D5"/>
<path d="M101.13 361.21C108.79 361.43 116.54 361.21 123.95 359.21C131.36 357.21 138.45 353.48 143.38 347.62C128.376 347.662 113.719 352.136 101.25 360.48" fill="#F6B9D5"/>
<path d="M105 346C101.11 331.43 94.6997 321.35 83.2397 313.19C82.3667 320.354 84.0786 327.594 88.0675 333.609C92.0564 339.623 98.0604 344.017 105 346" fill="#F6B9D5"/>
<path d="M76.1099 371.12C76.0792 366.866 77.3064 362.698 79.6371 359.14C81.9679 355.582 85.2983 352.791 89.2099 351.12C88.5699 358.64 82.6599 367.35 76.1099 371.12Z" fill="#F6B9D5"/>
<path d="M72.4499 358.83C71.9164 352.731 69.6518 346.911 65.9226 342.055C62.1935 337.199 57.155 333.509 51.3999 331.42C54.0399 343.59 61.0799 353.73 72.4499 358.83" fill="#F6B9D5"/>
<path d="M77.9998 380.63C75.2998 376.77 70.8998 374.37 66.3398 373.17C61.7798 371.97 57.0098 371.87 52.3398 371.77C55.5502 375.259 59.4792 378.009 63.8557 379.833C68.2322 381.656 72.9521 382.508 77.6898 382.33" fill="#F6B9D5"/>
<path d="M83.4398 411.69C74.8453 409.047 65.5728 409.716 57.4467 413.565C49.3205 417.415 42.9291 424.165 39.5298 432.49C55.4798 429.49 71.2198 422.38 83.4398 411.69Z" fill="#F6B9D5"/>
<path d="M100.94 400.89C98.2899 408.73 98.7999 418.19 104.69 424.94C105.863 420.901 106.136 416.654 105.488 412.498C104.84 408.342 103.287 404.38 100.94 400.89Z" fill="#F6B9D5"/>
<path d="M111.29 396.54C111.72 401.589 113.444 406.441 116.295 410.629C119.147 414.817 123.03 418.2 127.57 420.45C127.78 420.587 128.017 420.679 128.264 420.721C128.512 420.762 128.766 420.752 129.01 420.69C129.72 420.4 129.79 419.42 129.7 418.69C128.55 408.69 121.11 398.95 111.29 396.58" fill="#F6B9D5"/>
<path d="M118.05 395.53C120.298 397.96 123.021 399.901 126.05 401.235C129.08 402.569 132.351 403.265 135.661 403.282C138.971 403.299 142.249 402.636 145.292 401.333C148.335 400.031 151.077 398.117 153.35 395.71C142.13 394.48 129.18 393.71 118.05 395.53Z" fill="#F6B9D5"/>
<path d="M119.73 305.82C119.708 305.933 119.674 306.044 119.63 306.15C119.54 306.38 119.43 306.7 119.29 307.15C118.97 308 118.51 309.22 117.93 310.78C117.35 312.34 116.63 314.29 115.82 316.54C115.42 317.67 114.98 318.87 114.52 320.15L113.12 324.21C111.12 329.89 108.93 336.71 106.54 344.3C104.15 351.89 101.75 360.3 99.3297 369.17C96.9097 378.04 94.8297 386.53 93.0297 394.28C91.2297 402.03 89.7797 409.06 88.6897 414.98C88.4097 416.46 88.1497 417.86 87.8997 419.2C87.6497 420.54 87.4497 421.79 87.2497 422.97C86.8497 425.33 86.4997 427.36 86.2497 429.03C85.9997 430.7 85.7897 431.96 85.6597 432.86C85.5897 433.28 85.5297 433.61 85.4897 433.86C85.4775 433.975 85.4541 434.089 85.4197 434.2C85.4128 434.087 85.4128 433.973 85.4197 433.86L85.5397 432.86C85.6597 431.95 85.8297 430.66 86.0497 429.01C86.2697 427.36 86.5797 425.31 86.9697 422.94C87.1597 421.76 87.3597 420.5 87.5797 419.16C87.7997 417.82 88.0697 416.41 88.3397 414.93C89.3397 409 90.8697 401.98 92.5897 394.21C94.3097 386.44 96.4797 377.94 98.8697 369.06C101.26 360.18 103.76 351.8 106.12 344.19C108.48 336.58 110.76 329.79 112.79 324.12L114.22 320.07C114.69 318.79 115.13 317.59 115.55 316.47C116.38 314.23 117.1 312.3 117.73 310.73L119.15 307.13C119.32 306.73 119.44 306.42 119.54 306.2C119.586 306.065 119.65 305.937 119.73 305.82V305.82Z" fill="#263238"/>
<path d="M58.0999 337.92L58.2899 338.1L58.8299 338.67C59.2899 339.16 59.9699 339.91 60.8299 340.9C63.2371 343.678 65.4459 346.622 67.4399 349.71C70.4166 354.293 72.7421 359.267 74.3499 364.49C76.181 370.906 77.5643 377.442 78.4899 384.05C80.7699 398.05 83.5699 410.57 85.5999 419.63L87.9999 430.36C88.2699 431.61 88.4899 432.59 88.6399 433.28C88.7099 433.6 88.7599 433.85 88.7999 434.05C88.8088 434.136 88.8088 434.223 88.7999 434.31C88.7667 434.229 88.74 434.145 88.7199 434.06L88.5199 433.3C88.3499 432.61 88.0999 431.64 87.7899 430.4C87.1799 427.85 86.3099 424.2 85.2299 419.7C83.1299 410.65 80.2299 398.12 77.9999 384.12C77.1036 377.531 75.7673 371.01 73.9999 364.6C72.4155 359.405 70.1312 354.449 67.2099 349.87C65.2304 346.776 63.0525 343.813 60.6899 341C59.8699 340 59.2099 339.23 58.7599 338.71L58.2599 338.12C58.1399 338 58.0899 337.92 58.0999 337.92Z" fill="#263238"/>
<path d="M121.4 395.05C121.27 395.089 121.135 395.113 121 395.12L119.84 395.25L119 395.33L118 395.48C117.28 395.59 116.47 395.69 115.59 395.89L114.19 396.17L112.7 396.54C111.7 396.78 110.59 397.16 109.45 397.54C106.999 398.393 104.621 399.443 102.34 400.68C100.078 401.944 97.945 403.424 95.9696 405.1C95.1135 405.838 94.2989 406.622 93.5296 407.45C92.8392 408.154 92.1914 408.899 91.5896 409.68C90.9996 410.36 90.5896 411.07 90.1596 411.68C89.7932 412.178 89.4591 412.699 89.1596 413.24L88.5596 414.24C88.4966 414.359 88.4193 414.47 88.3296 414.57C88.3679 414.441 88.4216 414.317 88.4896 414.2L89.0096 413.15C89.2818 412.592 89.5925 412.054 89.9396 411.54C90.362 410.846 90.8262 410.178 91.3296 409.54C91.9225 408.738 92.5637 407.974 93.2496 407.25C94.0181 406.406 94.8327 405.604 95.6896 404.85C97.6717 403.137 99.8227 401.629 102.11 400.35C104.413 399.104 106.818 398.057 109.3 397.22C110.46 396.88 111.54 396.51 112.59 396.29L114.1 395.93L115.51 395.68C116.41 395.5 117.23 395.42 117.94 395.34L118.94 395.22H119.78H120.95C121.26 395 121.4 395 121.4 395.05Z" fill="#263238"/>
<path d="M124.6 338.19C124.356 338.476 124.085 338.737 123.79 338.97L121.48 340.97C119.48 342.65 116.79 344.97 113.76 347.46C110.73 349.95 107.96 352.23 105.95 353.85L103.55 355.74C103.275 355.994 102.969 356.212 102.64 356.39C102.883 356.104 103.155 355.843 103.45 355.61L105.76 353.61C107.76 351.93 110.45 349.61 113.48 347.13C116.51 344.65 119.27 342.36 121.28 340.74L123.68 338.84C123.964 338.593 124.272 338.375 124.6 338.19Z" fill="#263238"/>
<path d="M127.36 353C127.36 353.11 121.5 355 114.2 357.11C106.9 359.22 101 361 100.92 360.84C100.84 360.68 106.77 358.89 114.08 356.73C121.39 354.57 127.32 352.92 127.36 353Z" fill="#263238"/>
<path d="M105.6 347.12C105.37 346.86 105.165 346.579 104.99 346.28C104.58 345.64 104.06 344.85 103.44 343.91C102.12 341.91 100.25 339.2 98.0399 336.3C95.8299 333.4 93.6999 330.89 92.1299 329.09L90.2599 327C90.0172 326.752 89.7995 326.481 89.6099 326.19C89.8942 326.387 90.1529 326.619 90.3799 326.88C90.8599 327.35 91.5399 328.05 92.3799 328.88C94.0099 330.64 96.1899 333.14 98.3799 336.04C100.57 338.94 102.44 341.71 103.7 343.75C104.32 344.75 104.81 345.6 105.14 346.19C105.326 346.483 105.48 346.794 105.6 347.12V347.12Z" fill="#263238"/>
<path d="M85.1397 355.36C84.7337 356.148 84.2725 356.907 83.7597 357.63C82.8797 359.02 81.6797 360.94 80.4497 363.11C79.2197 365.28 78.1697 367.3 77.4497 368.76C77.0892 369.572 76.6715 370.357 76.1997 371.11C76.4542 370.254 76.789 369.423 77.1997 368.63C77.8797 367.13 78.8797 365.09 80.1197 362.9C81.3597 360.71 82.6097 358.81 83.5597 357.46C84.0213 356.713 84.5502 356.01 85.1397 355.36V355.36Z" fill="#263238"/>
<path d="M78.1396 381C78.1396 381.06 76.9896 380.51 75.1396 379.68C73.2896 378.85 70.7296 377.77 67.8296 376.75C64.9296 375.73 62.2396 374.98 60.2796 374.48C59.2127 374.254 58.158 373.974 57.1196 373.64C57.4155 373.636 57.7108 373.666 57.9996 373.73C58.5596 373.82 59.3596 373.97 60.3496 374.18C62.9425 374.759 65.4973 375.497 67.9996 376.39C70.4918 377.26 72.9295 378.278 75.2996 379.44C76.1996 379.89 76.9296 380.28 77.4196 380.56C77.6777 380.675 77.9198 380.823 78.1396 381V381Z" fill="#263238"/>
<path d="M83.6498 411.73C83.6498 411.73 83.5298 411.79 83.2898 411.86L82.2298 412.13L78.3098 413.03C73.9886 413.939 69.7164 415.067 65.5098 416.41C61.3267 417.804 57.3198 419.68 53.5698 422C52.1398 422.91 51.0298 423.71 50.2798 424.29C49.9012 424.607 49.5038 424.901 49.0898 425.17C49.0898 425.17 49.1698 425.06 49.3598 424.89C49.5498 424.72 49.8098 424.46 50.1798 424.16C51.2042 423.293 52.2794 422.488 53.3998 421.75C57.1386 419.325 61.1711 417.386 65.3998 415.98C69.6211 414.626 73.9228 413.537 78.2798 412.72L82.2198 411.94C82.6913 411.838 83.169 411.768 83.6498 411.73V411.73Z" fill="#263238"/>
<path d="M103.58 419.3C103.46 419.3 102.76 415.18 102.01 410.07C101.26 404.96 100.75 400.8 100.87 400.78C100.99 400.76 101.69 404.89 102.44 410.01C103.19 415.13 103.7 419.28 103.58 419.3Z" fill="#263238"/>
<path d="M124.33 411.77C123.66 411.07 123.036 410.329 122.46 409.55C121.34 408.15 119.78 406.23 118.03 404.14C116.28 402.05 114.64 400.14 113.46 398.84C112.786 398.143 112.164 397.398 111.6 396.61C111.817 396.755 112.015 396.926 112.19 397.12C112.55 397.47 113.06 397.99 113.69 398.63C114.93 399.93 116.59 401.76 118.36 403.86C120.13 405.96 121.64 407.92 122.7 409.36C123.23 410.08 123.7 410.68 123.93 411.09C124.093 411.297 124.228 411.526 124.33 411.77V411.77Z" fill="#263238"/>
<path d="M69.4199 431.01V441.26H71.9799L81.0999 470.03H101.31L110.13 441.55L113.55 441.26V431.01H69.4199Z" fill="#455A64"/>
<path d="M111.84 441.55C111.84 441.67 102.92 441.76 91.91 441.76C80.9 441.76 72 441.67 72 441.55C72 441.43 80.92 441.33 91.93 441.33C102.94 441.33 111.84 441.43 111.84 441.55Z" fill="#263238"/>
<path d="M126.38 375.6C125.956 375.75 125.522 375.867 125.08 375.95L121.54 376.81C118.54 377.55 114.44 378.67 109.99 380.16C105.54 381.65 101.58 383.25 98.7499 384.47L95.4099 385.93C95.0123 386.133 94.5973 386.301 94.1699 386.43C94.5429 386.184 94.934 385.967 95.3399 385.78C96.0999 385.38 97.2299 384.83 98.6299 384.19C102.291 382.52 106.036 381.041 109.85 379.76C113.665 378.479 117.544 377.394 121.47 376.51C122.97 376.18 124.2 375.93 125.05 375.79C125.487 375.689 125.932 375.625 126.38 375.6Z" fill="#263238"/>
<path d="M105.13 457.52C105.13 457.64 98.8699 457.74 91.1299 457.74C83.3899 457.74 77.1299 457.64 77.1299 457.52C77.1299 457.4 83.3899 457.31 91.1299 457.31C98.8699 457.31 105.13 457.4 105.13 457.52Z" fill="#FAFAFA"/>
<path d="M105.92 455.14C105.92 455.26 99.2798 455.36 91.0998 455.36C82.9198 455.36 76.2798 455.26 76.2798 455.14C76.2798 455.02 82.9198 454.93 91.0998 454.93C99.2798 454.93 105.92 455 105.92 455.14Z" fill="#FAFAFA"/>
<path d="M407.68 375.67C407.689 375.746 407.689 375.823 407.68 375.9C407.68 376.067 407.68 376.287 407.68 376.56C407.68 377.13 407.77 377.99 407.83 379.09C407.98 381.32 408.19 384.5 408.45 388.41C408.99 396.3 409.74 407.16 410.56 419.15C411.38 431.14 412.11 442 412.64 449.9C412.89 453.81 413.09 456.99 413.23 459.22C413.29 460.3 413.34 461.14 413.37 461.76V462.42C413.381 462.493 413.381 462.567 413.37 462.64C413.359 462.567 413.359 462.493 413.37 462.42C413.37 462.25 413.37 462.03 413.3 461.76C413.25 461.15 413.18 460.31 413.08 459.23C412.91 457 412.66 453.83 412.35 449.92C411.79 442.03 411.01 431.17 410.15 419.18C409.29 407.19 408.62 396.3 408.15 388.42C407.92 384.49 407.76 381.3 407.67 379.09C407.67 377.99 407.59 377.14 407.6 376.55C407.6 376.28 407.6 376.06 407.6 375.89C407.6 375.72 407.67 375.67 407.68 375.67Z" fill="#455A64"/>
<path d="M441.32 268C440.24 264.05 437.66 260.71 435.41 257.28C432.771 253.25 430.531 248.973 428.72 244.51C427.72 241.95 426.35 238.95 423.63 238.51L401.53 235.76C396.87 235.95 393.05 239.88 391.44 244.26C389.83 248.64 390 253.38 390 258.05C390 262.72 390 267.55 388 271.78C387.3 273.27 386.36 274.78 386.32 276.39C386.272 277.231 386.417 278.071 386.743 278.847C387.068 279.623 387.567 280.315 388.2 280.87C389.81 282.63 387.41 287.29 389 288.28C391.28 289.69 397.92 287.34 400.59 287.53L408.92 288.15C411.32 288.33 413.85 288.48 416.04 287.47C418.04 286.55 419.56 284.74 421.68 284.24C424.23 283.63 426.8 285.08 429.42 285.3C431.363 285.404 433.283 284.838 434.859 283.697C436.435 282.556 437.572 280.909 438.08 279.03C441.56 276.81 442.41 272 441.32 268Z" fill="#263238"/>
<path d="M394.73 333L391.65 332.57C385.77 332.3 379.1 332.32 375.02 336.57C372.53 339.17 371.56 342.85 370.8 346.36C369.947 350.24 369.227 354.14 368.64 358.06C368.39 359.69 368.18 361.46 368.96 362.92C369.87 364.65 371.88 365.45 373.76 366.01C379.273 367.627 385.026 368.27 390.76 367.91C391.922 367.953 393.064 367.6 394 366.91C395 366 395.17 364.51 395.26 363.16C395.919 353.109 395.742 343.021 394.73 333V333Z" fill="#F6B9D5"/>
<path d="M404.34 450L404.83 462.84C404.83 462.84 391.95 467.66 391.83 470.04L416.76 469.97V449.97L404.34 450Z" fill="#F6B9D5"/>
<path d="M412.54 461.73C412.781 461.8 412.987 461.959 413.116 462.173C413.246 462.388 413.29 462.644 413.24 462.89C413.172 463.129 413.017 463.334 412.807 463.465C412.596 463.596 412.344 463.644 412.1 463.6C411.846 463.523 411.63 463.355 411.493 463.128C411.356 462.9 411.309 462.63 411.36 462.37C411.448 462.121 411.631 461.918 411.869 461.803C412.107 461.689 412.381 461.674 412.63 461.76" fill="#263238"/>
<path d="M416.74 470V468.28L392.79 468.8C392.79 468.8 391.68 469.29 391.79 470.07L416.74 470Z" fill="#263238"/>
<path d="M404.67 462.76C404.67 462.88 405.29 462.93 405.89 463.32C406.49 463.71 406.81 464.22 406.89 464.17C406.97 464.12 406.82 463.42 406.08 462.96C405.34 462.5 404.65 462.64 404.67 462.76Z" fill="#263238"/>
<path d="M402 463.93C402 464.05 402.5 464.26 402.92 464.77C403.34 465.28 403.45 465.83 403.58 465.82C403.71 465.81 403.77 465.13 403.24 464.5C402.71 463.87 402 463.82 402 463.93Z" fill="#263238"/>
<path d="M400.35 467.27C400.46 467.27 400.63 466.69 400.35 466.02C400.07 465.35 399.46 465.09 399.41 465.2C399.36 465.31 399.71 465.65 399.96 466.2C400.21 466.75 400.23 467.26 400.35 467.27Z" fill="#263238"/>
<path d="M404.85 459.71C404.85 459.82 405.46 459.65 406.15 459.71C406.84 459.77 407.37 459.97 407.44 459.86C407.51 459.75 406.98 459.32 406.17 459.28C405.36 459.24 404.79 459.61 404.85 459.71Z" fill="#263238"/>
<path d="M413.29 450L413.79 462.84C413.79 462.84 400.91 467.66 400.79 470.04L425.7 470V450H413.29Z" fill="#F6B9D5"/>
<path d="M421.5 461.73C421.741 461.8 421.947 461.959 422.077 462.173C422.206 462.388 422.25 462.644 422.2 462.89C422.132 463.129 421.978 463.334 421.767 463.465C421.557 463.596 421.305 463.644 421.06 463.6C420.806 463.523 420.59 463.355 420.453 463.128C420.317 462.9 420.269 462.63 420.32 462.37C420.409 462.121 420.592 461.918 420.83 461.803C421.068 461.689 421.341 461.674 421.59 461.76" fill="#263238"/>
<path d="M425.7 470V468.28L401.75 468.8C401.75 468.8 400.64 469.29 400.75 470.07L425.7 470Z" fill="#263238"/>
<path d="M413.63 462.76C413.63 462.88 414.25 462.93 414.85 463.32C415.45 463.71 415.77 464.22 415.85 464.17C415.93 464.12 415.78 463.42 415.04 462.96C414.3 462.5 413.61 462.64 413.63 462.76Z" fill="#263238"/>
<path d="M410.92 463.93C410.92 464.05 411.42 464.26 411.84 464.77C412.26 465.28 412.37 465.83 412.5 465.82C412.63 465.81 412.69 465.13 412.16 464.5C411.63 463.87 410.93 463.82 410.92 463.93Z" fill="#263238"/>
<path d="M409.31 467.27C409.42 467.27 409.59 466.69 409.31 466.02C409.03 465.35 408.42 465.09 408.37 465.2C408.32 465.31 408.67 465.65 408.92 466.2C409.17 466.75 409.19 467.26 409.31 467.27Z" fill="#263238"/>
<path d="M413.81 459.71C413.86 459.82 414.42 459.65 415.11 459.71C415.8 459.77 416.33 459.97 416.4 459.86C416.47 459.75 415.94 459.32 415.13 459.28C414.32 459.24 413.75 459.61 413.81 459.71Z" fill="#263238"/>
<path d="M435.08 358.84L386.53 359.74C386.53 359.74 384.53 401.04 384.53 412.88L404.44 462.64L413.31 460.46L413.47 462.64H427.54L433.76 377.76L435.08 358.84ZM404.54 409.84C404.54 409.2 406.23 397.91 407.98 386.12L411.36 433.48C407.78 422.38 404.44 411.52 404.54 409.81V409.84Z" fill="#263238"/>
<path d="M393.54 248.81C393.8 243.1 399.85 237.29 405.54 237.81L424 241V244.07L423.5 282.07C423.5 282.07 422.13 294.36 411.77 293.84C402.47 293.36 402.77 283.54 402.77 283.53L402.93 276.36C402.93 276.36 395.42 276.19 393.75 266.7C393 262 393.25 255.15 393.54 248.81Z" fill="#FFBE9D"/>
<path d="M395.87 256.25C395.869 256.408 395.899 256.564 395.958 256.71C396.017 256.856 396.104 256.989 396.215 257.101C396.325 257.214 396.457 257.303 396.602 257.365C396.747 257.426 396.903 257.459 397.06 257.46C397.215 257.469 397.371 257.448 397.518 257.396C397.665 257.345 397.8 257.265 397.915 257.16C398.031 257.056 398.124 256.93 398.19 256.789C398.256 256.648 398.294 256.495 398.3 256.34C398.298 256.023 398.172 255.72 397.95 255.494C397.728 255.268 397.427 255.138 397.11 255.13C396.955 255.119 396.798 255.14 396.651 255.191C396.503 255.242 396.368 255.322 396.252 255.426C396.136 255.531 396.043 255.658 395.977 255.799C395.912 255.941 395.875 256.094 395.87 256.25V256.25Z" fill="#263238"/>
<path d="M395.3 253.84C395.46 253.99 396.37 253.3 397.68 253.28C398.99 253.26 399.97 253.9 400.11 253.73C400.25 253.56 400.02 253.38 399.59 253.08C399.018 252.696 398.339 252.5 397.65 252.52C396.968 252.525 396.305 252.749 395.76 253.16C395.36 253.48 395.23 253.77 395.3 253.84Z" fill="#263238"/>
<path d="M407.44 256.25C407.44 256.567 407.565 256.872 407.787 257.099C408.01 257.325 408.313 257.455 408.63 257.46C408.785 257.469 408.941 257.448 409.088 257.396C409.235 257.345 409.37 257.265 409.485 257.16C409.601 257.056 409.694 256.93 409.76 256.789C409.826 256.648 409.864 256.495 409.87 256.34C409.867 256.023 409.742 255.72 409.52 255.494C409.298 255.268 408.997 255.138 408.68 255.13C408.524 255.119 408.368 255.14 408.221 255.191C408.073 255.242 407.938 255.322 407.822 255.426C407.706 255.531 407.613 255.658 407.547 255.799C407.481 255.941 407.445 256.094 407.44 256.25V256.25Z" fill="#263238"/>
<path d="M407.38 253.84C407.54 253.99 408.45 253.3 409.76 253.28C411.07 253.26 412.05 253.9 412.19 253.73C412.33 253.56 412.1 253.38 411.67 253.08C411.098 252.696 410.42 252.5 409.73 252.52C409.048 252.525 408.385 252.749 407.84 253.16C407.44 253.48 407.31 253.77 407.38 253.84Z" fill="#263238"/>
<path d="M403.6 263.44C402.901 263.256 402.183 263.152 401.46 263.13C401.12 263.13 400.8 263.05 400.74 262.86C400.68 262.67 400.79 262.35 400.94 262.02L401.88 259.84C402.23 259.05 403.95 254.59 403.96 254.17C402.925 255.925 402.048 257.769 401.34 259.68C401.03 260.45 400.73 261.17 400.45 261.87C400.35 262.036 400.284 262.222 400.259 262.414C400.233 262.607 400.247 262.803 400.3 262.99C400.36 263.093 400.44 263.183 400.537 263.254C400.633 263.324 400.743 263.374 400.86 263.4C401.051 263.437 401.245 263.457 401.44 263.46C402.159 263.524 402.882 263.517 403.6 263.44V263.44Z" fill="#263238"/>
<path d="M403 276.44C407.48 276.43 411.87 275.177 415.68 272.82C415.68 272.82 412.54 279.52 403.01 278.82L403 276.44Z" fill="#EB996E"/>
<path d="M407.53 263.49C407.32 263.49 407.34 264.9 406.14 265.94C404.94 266.98 403.42 266.84 403.41 267.04C403.4 267.24 403.75 267.31 404.41 267.31C405.245 267.316 406.054 267.021 406.69 266.48C407.302 265.963 407.689 265.228 407.77 264.43C407.8 263.83 407.63 263.48 407.53 263.49Z" fill="#263238"/>
<path d="M407.38 250.29C407.53 250.69 408.66 250.37 410.03 250.44C411.4 250.51 412.54 250.88 412.68 250.49C412.74 250.31 412.51 249.94 412.02 249.58C411.433 249.164 410.739 248.924 410.02 248.89C409.314 248.859 408.615 249.048 408.02 249.43C407.52 249.75 407.31 250.1 407.38 250.29Z" fill="#263238"/>
<path d="M395.36 250.37C395.59 250.73 396.55 250.42 397.7 250.47C398.85 250.52 399.79 250.82 400.03 250.47C400.14 250.29 400.03 249.93 399.6 249.57C399.07 249.143 398.414 248.904 397.734 248.889C397.054 248.875 396.388 249.086 395.84 249.49C395.42 249.83 395.27 250.19 395.36 250.37Z" fill="#263238"/>
<path d="M415.63 312.14L430.89 313.68L434.65 282.93C434.65 282.93 441.79 284.93 443.33 291.53C444.418 296.698 445.246 301.918 445.81 307.17C445.81 307.17 447.64 313.52 447.46 318.17C447.28 322.82 447.22 327.22 445.69 329.22C444.16 331.22 438.91 332.52 436.69 332.46C434.47 332.4 421.1 329.7 421.1 329.7L419.5 328.63L408 319.83L415.63 312.14Z" fill="#455A64"/>
<path d="M383.18 359.74L438.18 359.34L434.92 318.68L434.67 282.93C431.75 281.39 423.51 278.25 423.51 278.25C422.097 280.438 420.159 282.237 417.873 283.484C415.586 284.731 413.024 285.386 410.42 285.39C408.677 285.445 406.971 284.881 405.605 283.797C404.24 282.713 403.302 281.18 402.96 279.47L392.22 281.79C390.707 282.114 389.359 282.969 388.42 284.2L369.29 309.25L349.64 302.06L341.56 312.42C341.56 312.42 357.97 327.79 367.91 329.24C375.53 330.34 384.78 319.24 388.7 314.03L387.47 332L383.18 359.74Z" fill="#455A64"/>
<path d="M426.48 278.85L388.23 320.69L387.26 333.28L434.65 282.93L426.48 278.85Z" fill="#F6B9D5"/>
<path d="M405.11 301.43L402.51 301.05C402.066 301.194 401.669 301.456 401.362 301.808C401.056 302.161 400.851 302.59 400.77 303.05L400.99 304.05C400.656 304.031 400.323 304.101 400.026 304.254C399.729 304.407 399.478 304.637 399.3 304.92C399.146 305.188 399.079 305.497 399.108 305.805C399.136 306.113 399.259 306.405 399.46 306.64C398.966 306.678 398.508 306.91 398.184 307.284C397.86 307.659 397.697 308.146 397.73 308.64L397.98 309.51C397.631 310.039 397.383 310.63 397.25 311.25C397.289 311.773 397.457 312.278 397.74 312.72C398.023 313.161 398.411 313.526 398.87 313.78C399.57 313.99 407.29 317.67 407.29 317.67L409 319C409.786 318.051 410.634 317.155 411.54 316.32C412.9 315.11 415.64 312.15 415.64 312.15L414.12 310.74L413.85 303.28L412.09 298.7L408.51 297.7C408.306 297.946 408.175 298.244 408.133 298.56C408.09 298.877 408.138 299.199 408.27 299.49C408.364 299.784 408.517 300.055 408.72 300.288C408.923 300.52 409.171 300.708 409.45 300.84L410.03 303.35L409.3 304.35C409.007 304.548 408.663 304.659 408.309 304.67C407.955 304.681 407.605 304.59 407.3 304.41C406.375 303.899 405.533 303.251 404.8 302.49L405.11 301.43Z" fill="#FFBE9D"/>
<path d="M389.84 296C389.879 296.332 389.879 296.668 389.84 297C389.84 297.63 389.84 298.54 389.75 299.66C389.66 301.89 389.48 304.99 389.26 308.4C389.04 311.81 388.81 314.9 388.62 317.13C388.52 318.25 388.43 319.13 388.36 319.77C388.35 320.109 388.296 320.445 388.2 320.77C388.149 320.439 388.149 320.101 388.2 319.77C388.2 319.14 388.2 318.24 388.29 317.12C388.39 314.88 388.56 311.79 388.78 308.38C389 304.97 389.23 301.88 389.43 299.64C389.52 298.53 389.61 297.64 389.68 297C389.682 296.66 389.736 296.323 389.84 296V296Z" fill="#263238"/>
<g opacity="0.3">
<path d="M435.62 332.31C429.87 332.22 423.62 331.99 419.08 328.36C417.25 326.88 415.42 325.17 413.18 323.57C411.27 322.21 408.94 321.28 408.06 319.69C407.94 319.85 407.06 320.98 407.06 321.05C409.06 321.3 411.25 323.13 412.81 324.39C414.254 325.782 415.511 327.355 416.55 329.07C418.746 332.102 421.757 334.449 425.234 335.837C428.711 337.225 432.51 337.597 436.19 336.91C436 335.38 435.82 333.84 435.62 332.31Z" fill="black"/>
</g>
<path d="M416.16 311.59C416.006 311.821 415.828 312.036 415.63 312.23L414 314L408.19 320V319.67C409.536 320.787 410.956 321.813 412.44 322.74C414.115 323.794 415.701 324.985 417.18 326.3C418.255 327.364 419.431 328.322 420.69 329.16C421.918 329.849 423.203 330.431 424.53 330.9C426.809 331.646 429.183 332.06 431.58 332.13C433.63 332.26 435.29 332.29 436.44 332.3C437.038 332.281 437.636 332.304 438.23 332.37C438.08 332.41 437.925 332.43 437.77 332.43C437.47 332.43 437.02 332.48 436.45 332.51C435.29 332.51 433.62 332.59 431.56 332.51C427.658 332.525 423.819 331.525 420.42 329.61C419.126 328.763 417.923 327.784 416.83 326.69C413.83 323.95 410.33 322.26 407.89 320.02L407.71 319.86L407.88 319.69L413.88 313.76L415.58 312.12C415.753 311.923 415.948 311.745 416.16 311.59V311.59Z" fill="#263238"/>
<path d="M436.43 321.05C436.35 321.05 435.9 319.73 434.86 317.69C434.251 316.505 433.562 315.363 432.8 314.27C432.35 313.68 431.95 312.91 431.29 312.69C430.477 312.561 429.652 312.521 428.83 312.57C425.31 312.57 422.14 312.36 419.83 312.12C418.68 312.01 417.76 311.89 417.12 311.79C416.779 311.768 416.443 311.7 416.12 311.59C417.362 311.573 418.605 311.63 419.84 311.76C422.13 311.89 425.29 312.04 428.79 312.05H430.08C430.529 312.025 430.98 312.079 431.41 312.21C431.836 312.373 432.205 312.658 432.47 313.03C432.72 313.36 432.94 313.68 433.15 314.03C433.913 315.15 434.582 316.33 435.15 317.56C435.536 318.389 435.87 319.24 436.15 320.11C436.288 320.408 436.383 320.725 436.43 321.05V321.05Z" fill="#263238"/>
<path d="M431.16 296.31C431.418 298.952 431.504 301.607 431.42 304.26C431.504 306.913 431.418 309.568 431.16 312.21C430.903 309.568 430.816 306.913 430.9 304.26C430.816 301.607 430.903 298.952 431.16 296.31V296.31Z" fill="#263238"/>
<g opacity="0.3">
<path d="M431.34 312.21C433.203 313.31 434.774 314.841 435.921 316.676C437.068 318.51 437.757 320.593 437.93 322.75C437.946 322.829 437.946 322.91 437.931 322.989C437.915 323.068 437.884 323.143 437.84 323.21C437.763 323.279 437.663 323.317 437.56 323.317C437.457 323.317 437.357 323.279 437.28 323.21C437.132 323.064 437.025 322.881 436.97 322.68C435.59 319.04 433.97 315.2 431.34 312.22" fill="black"/>
</g>
<g opacity="0.3">
<path d="M388.45 314.48C387.259 311.396 386.769 308.086 387.017 304.789C387.264 301.492 388.242 298.292 389.88 295.42C389.24 302.06 388.99 308.33 388.59 314.31" fill="black"/>
</g>
<path d="M367.79 317.07C367.251 314.5 367.712 311.821 369.08 309.58C369.22 309.65 368.57 311.23 368.23 313.29C367.89 315.35 368 317.06 367.79 317.07Z" fill="#263238"/>
<path d="M428 247.1H427.6C427.747 244.739 427.354 242.376 426.45 240.19C425.546 238.332 424.234 236.702 422.611 235.422C420.989 234.142 419.098 233.246 417.08 232.8C413.16 231.8 409.08 232.28 405.08 233.11C403.22 233.51 401.08 234.31 400.59 236.27C400.429 237.293 400.59 238.342 401.05 239.27C401.938 241.431 403.369 243.325 405.206 244.769C407.042 246.213 409.221 247.157 411.53 247.51C412.577 247.516 413.607 247.777 414.53 248.27C415.584 249.122 416.338 250.289 416.68 251.6C416.825 252.182 416.932 252.774 417 253.37C417.035 255.093 417.222 256.81 417.56 258.5C418.18 260.5 420.11 262.15 420.2 264.29C420.35 267.71 415.79 269.92 415.87 273.34C415.87 274.83 416.87 276.12 417.59 277.4C418.31 278.68 418.99 280.26 418.4 281.63C418.007 282.294 417.577 282.935 417.11 283.55C415.86 285.73 417.35 288.78 419.7 289.65C420.911 290 422.194 290.017 423.414 289.698C424.634 289.38 425.745 288.738 426.63 287.84C428.361 286.005 429.629 283.783 430.33 281.36C434.113 270.081 433.275 257.763 428 247.1V247.1Z" fill="#263238"/>
<path d="M227 224.32L216.48 218.91L201.36 219.2C201.36 219.2 200.86 221.2 203.96 222.2C207.06 223.2 212.59 223.33 212.59 223.33C212.59 223.33 210.37 223.16 215.15 226.76C218.288 228.951 222.055 230.06 225.88 229.92L227 224.32Z" fill="#FFBE9D"/>
<path d="M202.64 220C202.64 220 195.46 221.42 193.89 222.37C192.32 223.32 192.68 224.51 193.09 224.88C193.5 225.25 198.6 224.57 199.9 224.37C200.71 224.25 203.77 224.28 203.77 224.28C203.77 224.28 199.99 225.42 199.59 226.91C199.19 228.4 201.3 229.2 201.3 229.2C201.3 229.2 200.18 231.42 201.01 232.48C201.212 232.777 201.474 233.029 201.779 233.22C202.083 233.411 202.424 233.537 202.78 233.59C202.78 233.59 201.59 235.14 202.78 236.19C203.97 237.24 208.13 236.19 208.13 236.19C208.13 236.19 210.63 236.98 211.7 236.46C212.77 235.94 226 234.57 226 234.57L226.73 225.65L206.29 220.65L202.64 220Z" fill="#FFBE9D"/>
<path d="M206.18 227.49C206 227.43 206.1 226.7 206.07 225.83C206.04 224.96 205.92 224.23 206.07 224.16C206.22 224.09 206.7 224.8 206.72 225.81C206.74 226.82 206.35 227.56 206.18 227.49Z" fill="#EB996E"/>
<path d="M201.3 229.21C201.3 229.11 201.72 229.03 202.3 228.87C202.658 228.783 202.997 228.63 203.3 228.42C203.464 228.305 203.601 228.156 203.703 227.984C203.804 227.811 203.868 227.619 203.89 227.42C203.903 227.228 203.868 227.036 203.787 226.861C203.707 226.687 203.584 226.535 203.43 226.42C203.155 226.204 202.838 226.048 202.5 225.96C201.88 225.8 201.45 225.73 201.5 225.63C201.55 225.53 201.92 225.44 202.63 225.49C203.069 225.529 203.49 225.684 203.85 225.94C204.097 226.103 204.296 226.329 204.428 226.594C204.56 226.859 204.619 227.155 204.6 227.45C204.559 227.737 204.457 228.012 204.3 228.255C204.143 228.499 203.935 228.705 203.69 228.86C203.321 229.091 202.903 229.232 202.47 229.27C201.72 229.39 201.31 229.3 201.3 229.21Z" fill="#EB996E"/>
<path d="M201.3 229.21C201.82 228.961 202.393 228.841 202.97 228.86C203.606 228.806 204.247 228.888 204.85 229.1C205.204 229.235 205.54 229.413 205.85 229.63C206.187 229.898 206.457 230.24 206.64 230.63C206.855 231.038 206.932 231.505 206.86 231.96C206.737 232.375 206.467 232.731 206.1 232.96C205.556 233.304 204.946 233.532 204.31 233.63C203.24 233.81 202.59 233.63 202.6 233.55C202.61 233.47 203.25 233.44 204.2 233.17C204.749 233.02 205.269 232.78 205.74 232.46C205.973 232.3 206.143 232.063 206.22 231.79C206.246 231.482 206.183 231.173 206.04 230.9C205.902 230.597 205.701 230.328 205.45 230.11C205.183 229.924 204.899 229.767 204.6 229.64C204.071 229.427 203.509 229.308 202.94 229.29C202 229.29 201.31 229.32 201.3 229.21Z" fill="#EB996E"/>
<path d="M205 236.65C205 236.57 205.48 236.52 206.19 236.12L206.78 235.81C206.993 235.726 207.195 235.615 207.38 235.48C207.61 235.26 207.47 234.94 206.88 234.65C205.949 234.211 204.958 233.911 203.94 233.76C203.16 233.65 202.65 233.69 202.63 233.59C202.61 233.49 203.11 233.3 203.97 233.29C205.095 233.301 206.203 233.568 207.21 234.07C207.357 234.149 207.497 234.24 207.63 234.34C207.803 234.454 207.941 234.613 208.03 234.8C208.125 234.992 208.153 235.21 208.107 235.419C208.062 235.628 207.946 235.815 207.78 235.95C207.544 236.113 207.284 236.237 207.01 236.32L206.37 236.56C205.57 236.87 205 236.76 205 236.65Z" fill="#EB996E"/>
<path d="M206.5 228.73C206.5 228.92 205.9 229.05 205.2 229.18C204.5 229.31 203.91 229.4 203.84 229.18C203.77 228.96 204.3 228.62 205.08 228.47C205.86 228.32 206.51 228.55 206.5 228.73Z" fill="#EB996E"/>
<path d="M211.26 234.67C211.06 234.67 211.81 232.21 210.69 229.51C210.472 228.954 210.186 228.427 209.84 227.94L209.76 227.82V227.69C209.934 226.911 209.896 226.099 209.65 225.34C209.46 224.77 209.27 224.46 209.33 224.41C209.39 224.36 209.69 224.61 210 225.19C210.419 225.999 210.549 226.927 210.37 227.82L210.32 227.57C210.734 228.078 211.071 228.644 211.32 229.25C211.829 230.479 211.999 231.823 211.81 233.14C211.65 234.14 211.33 234.69 211.26 234.67Z" fill="#EB996E"/>
<path d="M219.28 231.23C219.28 231.31 218.73 231.4 217.86 231.23C216.72 231.01 215.65 230.52 214.74 229.8C213.831 229.079 213.104 228.154 212.62 227.1C212.27 226.29 212.23 225.74 212.31 225.72C212.39 225.7 213.15 227.72 215.16 229.27C217.17 230.82 219.31 231 219.28 231.23Z" fill="#EB996E"/>
<path d="M222.58 229.84C222.271 229.86 221.961 229.816 221.67 229.71C220.864 229.51 220.078 229.239 219.32 228.9C216.752 227.761 214.506 226.006 212.78 223.79L213.07 223.92H212.19C209.192 223.975 206.22 223.36 203.49 222.12C202.648 221.72 201.95 221.071 201.49 220.26C201.19 219.66 201.25 219.26 201.28 219.26C201.31 219.26 201.38 219.6 201.72 220.11C202.228 220.806 202.921 221.347 203.72 221.67C206.418 222.738 209.298 223.268 212.2 223.23H213.05H213.23L213.34 223.37C215.002 225.507 217.12 227.246 219.54 228.46C221.36 229.42 222.61 229.73 222.58 229.84Z" fill="#EB996E"/>
<path d="M320.61 438.39L321.4 458.53C321.4 458.53 301.19 466.1 301 469.84L340.11 469.71L340.16 438.27L320.61 438.39Z" fill="#F6B9D5"/>
<path d="M333.49 456.79C333.866 456.904 334.187 457.152 334.392 457.488C334.597 457.824 334.671 458.223 334.6 458.61C334.502 458.991 334.262 459.32 333.929 459.528C333.595 459.737 333.195 459.809 332.81 459.73C332.41 459.611 332.068 459.347 331.852 458.991C331.636 458.634 331.56 458.209 331.64 457.8C331.779 457.407 332.065 457.083 332.438 456.896C332.811 456.71 333.242 456.675 333.64 456.8" fill="#E0E0E0"/>
<path d="M340.09 469.71L339.97 466.54L302.51 467.85C302.51 467.85 300.78 468.61 300.98 469.85L340.09 469.71Z" fill="#263238"/>
<path d="M320.77 458.33C320.77 458.52 321.77 458.61 322.67 459.22C323.57 459.83 324.12 460.63 324.29 460.55C324.46 460.47 324.18 459.38 323.03 458.66C321.88 457.94 320.73 458.16 320.77 458.33Z" fill="#263238"/>
<path d="M316.67 460C316.67 460.19 317.46 460.51 318.11 461.32C318.76 462.13 318.95 462.98 319.11 462.97C319.27 462.96 319.42 461.88 318.59 460.89C317.76 459.9 316.67 459.86 316.67 460Z" fill="#263238"/>
<path d="M314.36 465C314.53 465 314.79 464.09 314.3 463C313.81 461.91 312.91 461.55 312.83 461.7C312.75 461.85 313.31 462.42 313.7 463.28C314.09 464.14 314.17 464.94 314.36 465Z" fill="#263238"/>
<path d="M282.11 438L282.9 458.15C282.9 458.15 262.69 465.72 262.47 469.45L301.59 469.32L301.64 437.88L282.11 438Z" fill="#F6B9D5"/>
<path d="M295 456.38C295.377 456.492 295.7 456.74 295.905 457.076C296.11 457.413 296.183 457.813 296.11 458.2C296.012 458.581 295.772 458.91 295.439 459.118C295.106 459.327 294.705 459.399 294.32 459.32C293.919 459.199 293.578 458.934 293.361 458.575C293.145 458.217 293.07 457.791 293.15 457.38C293.294 456.993 293.584 456.677 293.957 456.5C294.33 456.322 294.758 456.297 295.15 456.43" fill="#E0E0E0"/>
<path d="M301.59 469.29L301.47 466.12L264 467.43C264 467.43 262.26 468.2 262.46 469.43L301.59 469.29Z" fill="#263238"/>
<path d="M282.27 457.92C282.27 458.11 283.27 458.19 284.17 458.8C285.07 459.41 285.61 460.22 285.79 460.14C285.97 460.06 285.68 458.96 284.52 458.24C283.36 457.52 282.22 457.74 282.27 457.92Z" fill="#263238"/>
<path d="M278.17 459.63C278.17 459.82 278.95 460.14 279.61 460.94C280.27 461.74 280.45 462.6 280.61 462.59C280.77 462.58 280.91 461.5 280.09 460.52C279.27 459.54 278.17 459.45 278.17 459.63Z" fill="#263238"/>
<path d="M275.86 464.55C276.03 464.55 276.29 463.63 275.8 462.55C275.31 461.47 274.41 461.09 274.33 461.25C274.25 461.41 274.8 461.97 275.2 462.83C275.6 463.69 275.67 464.53 275.86 464.55Z" fill="#263238"/>
<path d="M310.38 314.86C304.38 316.26 303.38 390.33 303.38 390.33L303.22 457.62L280.05 457.82C280.05 457.82 276.67 428.32 275.37 399.25C274.53 380.47 273.37 364.35 273.37 364.35C273.37 364.35 271.06 340.05 270.89 319.75C270.72 299.45 272.89 270.88 272.89 270.88L307.33 278.94L310.38 314.86Z" fill="#263238"/>
<path d="M342.61 286.56C342.61 286.56 343.79 307.76 344.22 313.06C344.65 318.36 341.7 456.34 341.7 456.34H319.06C319.06 456.34 310.79 376.94 310.38 364.34C309.97 351.74 305.72 316.25 305.72 316.25V285.55L341.45 286.74" fill="#263238"/>
<path d="M304.43 295.67C304.272 296.612 304.201 297.566 304.22 298.52C304.22 300.29 304.22 302.73 304.42 305.42C304.62 308.11 304.96 310.54 305.26 312.28C305.381 313.229 305.595 314.163 305.9 315.07C305.867 314.117 305.767 313.168 305.6 312.23C305.39 310.48 305.11 308.06 304.91 305.39C304.71 302.72 304.61 300.28 304.57 298.52C304.591 297.568 304.544 296.616 304.43 295.67V295.67Z" fill="#455A64"/>
<path d="M330.91 294.13C331.089 294.8 331.39 295.43 331.8 295.99C333.639 298.831 336.446 300.909 339.7 301.84C340.34 302.07 341.019 302.175 341.7 302.15C339.451 301.61 337.333 300.623 335.473 299.249C333.613 297.875 332.047 296.141 330.87 294.15L330.91 294.13Z" fill="#455A64"/>
<path d="M274.21 306.5C275.026 306.469 275.831 306.3 276.59 306C280.359 304.71 283.511 302.061 285.43 298.57C285.863 297.876 286.171 297.111 286.34 296.31C286.26 296.31 285.91 297.14 285.14 298.4C284.122 300.029 282.857 301.49 281.39 302.73C279.915 303.963 278.254 304.955 276.47 305.67C275.1 306.22 274.2 306.42 274.21 306.5Z" fill="#455A64"/>
<path d="M310.47 295C310.47 295 310.38 294.86 310.13 294.76C309.758 294.627 309.352 294.627 308.98 294.76C308.696 294.857 308.44 295.02 308.231 295.236C308.022 295.452 307.868 295.713 307.78 296C307.708 296.367 307.744 296.748 307.885 297.094C308.026 297.441 308.265 297.739 308.574 297.952C308.882 298.164 309.245 298.282 309.619 298.291C309.994 298.299 310.362 298.198 310.68 298C310.915 297.815 311.105 297.578 311.233 297.307C311.361 297.036 311.425 296.74 311.42 296.44C311.42 296.044 311.286 295.66 311.04 295.35C310.86 295.15 310.71 295.1 310.7 295.12C310.952 295.51 311.081 295.966 311.07 296.43C311.057 296.667 310.993 296.899 310.88 297.108C310.768 297.317 310.611 297.499 310.42 297.64C310.175 297.771 309.898 297.832 309.621 297.817C309.343 297.801 309.076 297.709 308.847 297.551C308.619 297.392 308.438 297.174 308.326 296.92C308.213 296.666 308.173 296.386 308.21 296.11C308.281 295.89 308.398 295.686 308.553 295.514C308.708 295.342 308.898 295.204 309.11 295.11C309.541 294.935 310.016 294.897 310.47 295V295Z" fill="#455A64"/>
<path d="M316.93 381C317.52 381.784 318.19 382.504 318.93 383.15C322.3 386.424 326.046 389.287 330.09 391.68C330.909 392.205 331.776 392.65 332.68 393.01C331.913 392.414 331.108 391.87 330.27 391.38C328.77 390.38 326.72 389.01 324.55 387.38C322.38 385.75 320.55 384.11 319.16 382.91C318.46 382.225 317.715 381.587 316.93 381V381Z" fill="#455A64"/>
<path d="M282.05 373.85C282.574 374.649 283.173 375.396 283.84 376.08C285 377.41 286.67 379.19 288.6 381.08C290.53 382.97 292.38 384.56 293.74 385.68C294.447 386.321 295.214 386.894 296.03 387.39C295.4 386.668 294.711 385.999 293.97 385.39C292.66 384.2 290.87 382.56 288.97 380.7C287.07 378.84 285.34 377.1 284.12 375.84C283.483 375.124 282.791 374.458 282.05 373.85V373.85Z" fill="#455A64"/>
<path d="M343.44 294.67L342.3 298.24C340.671 298.953 339.097 299.785 337.59 300.73C336.99 301.34 334.52 307.2 334.52 307.2C334.52 307.2 334.89 312.28 335.27 312.51C335.65 312.74 336.76 313.18 337.05 311.57C337.34 309.96 337.51 307.22 337.51 307.22L340.2 304.77L340.85 308.38L339.11 313.78C339.11 313.78 335.19 314.78 335.16 315.67C335.127 315.866 335.137 316.068 335.188 316.26C335.239 316.452 335.33 316.632 335.456 316.786C335.582 316.94 335.739 317.066 335.918 317.155C336.096 317.243 336.291 317.293 336.49 317.3C337.492 317.336 338.495 317.296 339.49 317.18C339.49 317.18 339.73 319.54 341.79 319.06L343.85 318.57C343.85 318.57 344.58 320.66 345.85 320.69C346.244 320.67 346.628 320.561 346.974 320.373C347.32 320.184 347.62 319.92 347.85 319.6L351.92 313.6C352.96 312.047 353.731 310.33 354.2 308.52L356.61 299.19L343.44 294.67Z" fill="#FFBE9D"/>
<path d="M339.61 305.1C340.179 304.316 340.936 303.687 341.81 303.27C342.46 302.96 343.38 302.84 343.81 303.43C343.918 303.611 343.975 303.819 343.975 304.03C343.975 304.241 343.918 304.449 343.81 304.63C343.591 304.991 343.28 305.287 342.91 305.49C343.5 305.49 344.19 305.57 344.47 306.08C344.571 306.314 344.59 306.576 344.525 306.822C344.459 307.069 344.313 307.286 344.11 307.44C343.7 307.746 343.224 307.951 342.72 308.04C343.17 307.89 343.6 308.44 343.52 308.9C343.393 309.361 343.096 309.758 342.69 310.01C342.182 310.464 341.565 310.777 340.9 310.92C340.565 310.988 340.217 310.947 339.907 310.806C339.596 310.664 339.338 310.427 339.17 310.13C339.092 309.98 339.053 309.812 339.058 309.643C339.062 309.473 339.11 309.308 339.196 309.162C339.282 309.016 339.404 308.894 339.549 308.808C339.695 308.722 339.861 308.675 340.03 308.67C339.755 308.712 339.474 308.654 339.238 308.508C339.001 308.361 338.825 308.135 338.74 307.87C338.612 307.609 338.539 307.324 338.525 307.033C338.511 306.743 338.557 306.452 338.66 306.18C338.91 305.767 339.232 305.401 339.61 305.1" fill="#FFBE9D"/>
<path d="M339.61 305.1C339.66 305.1 339.26 305.43 338.83 306.1C338.718 306.308 338.655 306.538 338.646 306.774C338.638 307.01 338.683 307.245 338.78 307.46C338.839 307.743 338.978 308.003 339.18 308.21C339.283 308.312 339.41 308.388 339.55 308.43C339.689 308.472 339.837 308.479 339.98 308.45V308.85C339.57 308.85 339.18 309.37 339.29 309.85C339.386 310.111 339.565 310.333 339.8 310.481C340.035 310.63 340.313 310.696 340.59 310.67C341.253 310.599 341.876 310.318 342.37 309.87C342.95 309.47 343.51 308.87 343.08 308.38C343.047 308.328 342.998 308.287 342.94 308.266C342.882 308.244 342.819 308.242 342.76 308.26L342.62 307.76C343.43 307.58 344.2 307.24 344.28 306.56C344.3 306.416 344.271 306.268 344.196 306.143C344.122 306.017 344.007 305.921 343.87 305.87C343.553 305.741 343.212 305.683 342.87 305.7H342.04L342.75 305.28C343.175 305.077 343.508 304.719 343.68 304.28C343.753 304.091 343.75 303.882 343.672 303.695C343.594 303.509 343.446 303.36 343.26 303.28C342.889 303.16 342.49 303.16 342.12 303.28C341.772 303.401 341.438 303.555 341.12 303.74C340.551 304.134 340.018 304.579 339.53 305.07C339.53 305.07 339.6 304.88 339.82 304.59C340.145 304.173 340.533 303.808 340.97 303.51C341.294 303.23 341.678 303.029 342.093 302.921C342.507 302.814 342.941 302.803 343.36 302.89C343.634 302.989 343.859 303.19 343.99 303.45C344.111 303.724 344.139 304.029 344.07 304.32C343.892 304.896 343.492 305.378 342.96 305.66L342.83 305.22C343.242 305.207 343.654 305.275 344.04 305.42C344.27 305.518 344.463 305.687 344.589 305.904C344.716 306.12 344.768 306.371 344.74 306.62C344.703 306.86 344.615 307.09 344.48 307.292C344.345 307.494 344.168 307.664 343.96 307.79C343.569 308.009 343.148 308.167 342.71 308.26L342.56 307.76C342.718 307.714 342.886 307.717 343.042 307.766C343.199 307.816 343.337 307.911 343.44 308.04C343.603 308.234 343.698 308.477 343.71 308.73C343.706 308.974 343.637 309.212 343.51 309.42C343.275 309.757 342.98 310.049 342.64 310.28C342.056 310.79 341.323 311.099 340.55 311.16C340.162 311.183 339.778 311.074 339.46 310.85C339.143 310.627 338.91 310.303 338.8 309.93C338.762 309.754 338.763 309.572 338.803 309.396C338.843 309.221 338.921 309.056 339.031 308.914C339.142 308.772 339.282 308.656 339.443 308.574C339.603 308.492 339.78 308.446 339.96 308.44L341.79 308.52L339.99 308.84C339.605 308.879 339.221 308.764 338.921 308.521C338.621 308.277 338.43 307.924 338.39 307.54C338.292 307.284 338.257 307.008 338.286 306.735C338.316 306.462 338.41 306.2 338.56 305.97C338.748 305.696 338.977 305.453 339.24 305.25C339.5 305.14 339.6 305.08 339.61 305.1Z" fill="#EB996E"/>
<path d="M346.37 310.24C345.722 311.926 344.929 313.552 344 315.1C343.739 315.799 343.276 316.405 342.67 316.84C342.106 317.068 341.49 317.138 340.89 317.04C340.517 317.004 340.142 317.004 339.77 317.04C339.51 317.04 339.37 317.14 339.35 317.1C339.33 317.06 339.46 316.97 339.72 316.87C340.103 316.757 340.5 316.703 340.9 316.71C341.432 316.76 341.969 316.674 342.46 316.46C342.96 316.2 343.23 315.54 343.59 314.88C344.379 313.255 345.309 311.702 346.37 310.24V310.24Z" fill="#EB996E"/>
<path d="M348.59 313.32C348.344 314.624 347.725 315.829 346.81 316.79C346.244 317.567 345.466 318.164 344.57 318.51C343.83 318.71 343.37 318.45 343.4 318.4C343.763 318.375 344.122 318.307 344.47 318.2C345.257 317.788 345.94 317.203 346.47 316.49C347.82 314.89 348.46 313.27 348.59 313.32Z" fill="#EB996E"/>
<path d="M343.29 305.46C342.501 305.738 341.692 305.952 340.87 306.1C340.096 306.417 339.301 306.678 338.49 306.88C339.072 306.22 339.856 305.77 340.72 305.6C341.539 305.276 342.441 305.227 343.29 305.46V305.46Z" fill="#EB996E"/>
<path d="M343.19 307.85C343.24 307.99 342.48 308.42 341.45 308.7C340.42 308.98 339.55 308.99 339.53 308.85C339.51 308.71 340.32 308.47 341.32 308.19C342.32 307.91 343.14 307.72 343.19 307.85Z" fill="#EB996E"/>
<path d="M338.67 171.44C338.67 171.44 348.67 175.98 352.9 189.71C357.13 203.44 367.9 255.65 365.05 272.47C365.05 272.47 358.6 298.32 357.57 299.21L343 294.09L335.06 199.62L338.67 171.44Z" fill="#F6B9D5"/>
<path d="M286.19 170.29L311.44 165.83C311.44 165.83 336.86 169.15 338.67 171.44C340.48 173.73 341.51 261.09 342.29 265.72C343.29 271.53 342.29 290.51 342.29 290.51L271.61 292.79L270.93 280.24L272.11 177.09L286.19 170.29Z" fill="#F6B9D5"/>
<path d="M332.14 187.2C332.14 187.2 332.14 187.29 332.07 187.46C332 187.63 331.98 187.92 331.91 188.24C331.84 188.56 331.75 189.01 331.66 189.5C331.57 189.99 331.52 190.6 331.44 191.25C331.072 194.975 331.179 198.732 331.76 202.43C332.654 207.899 333.89 213.306 335.46 218.62C337.349 225.115 338.783 231.735 339.75 238.43C340.75 245.56 341.28 252.43 341.56 258.64C341.84 264.85 341.96 270.5 342.03 275.22C342.1 279.94 342.14 283.73 342.17 286.41C342.17 287.7 342.22 288.72 342.24 289.41C342.24 289.73 342.24 289.99 342.24 290.2C342.231 290.29 342.231 290.38 342.24 290.47C342.255 290.381 342.255 290.289 342.24 290.2C342.24 289.99 342.24 289.73 342.24 289.41C342.24 288.68 342.24 287.66 342.24 286.36V275.22C342.24 270.49 342.15 264.87 341.88 258.62C341.61 252.37 341.1 245.51 340.09 238.36C339.127 231.644 337.68 225.007 335.76 218.5C334.167 213.21 332.901 207.826 331.97 202.38C331.364 198.709 331.206 194.979 331.5 191.27C331.56 190.61 331.62 190.03 331.67 189.52C331.72 189.01 331.82 188.61 331.88 188.26L332 187.47C332.059 187.387 332.106 187.296 332.14 187.2V187.2Z" fill="#263238"/>
<path d="M286.18 253C286.249 253.127 286.329 253.247 286.42 253.36L287.19 254.36C287.85 255.21 288.86 256.36 290.19 257.81C291.52 259.26 293.12 260.86 295.01 262.57C296.9 264.28 299.09 266.05 301.47 267.78C303.85 269.51 306.25 270.99 308.47 272.26C310.69 273.53 312.75 274.54 314.52 275.32C316.29 276.1 317.72 276.7 318.74 277.06L319.91 277.47C320.18 277.56 320.32 277.6 320.33 277.58C320.208 277.499 320.077 277.431 319.94 277.38L318.81 276.89C317.81 276.48 316.39 275.89 314.66 275.02C312.93 274.15 310.89 273.14 308.66 271.88C306.43 270.62 304.11 269.1 301.73 267.4C299.35 265.7 297.19 263.92 295.28 262.25C293.37 260.58 291.74 258.97 290.41 257.59C289.08 256.21 288.03 255.05 287.33 254.24L286.5 253.32C286.3 253.1 286.2 253 286.18 253Z" fill="#263238"/>
<path d="M285.48 219.57C285.496 219.73 285.529 219.888 285.58 220.04C285.68 220.38 285.8 220.81 285.95 221.34C286.27 222.46 286.81 224.08 287.53 226.05C288.25 228.02 289.21 230.33 290.37 232.85C291.53 235.37 292.95 238.08 294.58 240.85C296.21 243.62 297.91 246.15 299.58 248.4C301.25 250.65 302.78 252.59 304.16 254.18C305.54 255.77 306.68 257.01 307.52 257.84L308.52 258.84C308.622 258.959 308.739 259.064 308.87 259.15C308.789 259.015 308.691 258.891 308.58 258.78L307.69 257.78C306.9 256.91 305.79 255.63 304.45 254.02C303.11 252.41 301.59 250.45 299.97 248.21C298.35 245.97 296.69 243.41 295.06 240.67C293.43 237.93 292.06 235.22 290.84 232.73C289.62 230.24 288.68 227.94 287.92 225.99C287.16 224.04 286.58 222.45 286.2 221.34L285.75 220.07C285.686 219.89 285.595 219.722 285.48 219.57V219.57Z" fill="#263238"/>
<g opacity="0.3">
<path d="M331.64 205.87C340.8 231.4 343.24 258.87 341.99 285.92C338.59 282.64 337.46 277.61 337.5 272.92C337.54 268.23 338.57 263.53 338.77 258.81C339.51 240.87 328.27 223.48 331.64 205.87Z" fill="black"/>
</g>
<g opacity="0.3">
<path d="M286.89 223.86C286.6 223.04 288.89 236.98 292.08 242.22C295.285 247.479 299.719 251.882 305 255.05C305 255.05 293 241.28 286.89 223.86Z" fill="black"/>
</g>
<path d="M265.15 184.27C263.41 188.55 255.48 227.44 255.48 227.44L226.56 219.9C226.56 219.9 219.44 239.57 218.48 239.22C217.52 238.87 256 255.05 263.55 254.5C270.93 253.97 273.47 243.02 273.47 243.02L285 171.73C285 171.73 268.87 175.09 265.15 184.27Z" fill="#F6B9D5"/>
<path d="M270.93 199.15C270.971 199.327 270.994 199.508 271 199.69C271 200.11 271 200.63 271.07 201.26C271.12 202.62 271.17 204.59 271.21 207.02C271.29 211.88 271.35 218.59 271.38 226.02C271.41 233.45 271.38 240.16 271.38 245.02C271.38 247.39 271.38 249.34 271.32 250.78C271.32 251.41 271.32 251.93 271.32 252.34C271.341 252.523 271.341 252.707 271.32 252.89C271.275 252.71 271.254 252.525 271.26 252.34C271.26 251.93 271.26 251.41 271.21 250.78C271.21 249.34 271.15 247.4 271.1 245.02C271.1 240.09 271.01 233.41 270.95 226.02C270.89 218.63 270.95 211.96 270.95 207.02C270.95 204.64 270.95 202.7 270.95 201.26C270.95 200.63 270.95 200.11 270.95 199.7C270.92 199.518 270.913 199.333 270.93 199.15V199.15Z" fill="#263238"/>
<path d="M311.71 171.26C312.146 170.323 312.336 169.291 312.26 168.26L309.56 129.2C309.56 118.29 303.29 109.2 292.39 109.42L291.39 109.51C286.498 109.908 281.937 112.135 278.615 115.748C275.293 119.36 273.456 124.093 273.47 129C273.47 138.46 273.62 148.9 274.09 153.94C275.09 164.36 285.64 165.12 285.64 165.12L286.14 169.18C286.14 169.18 285.6 176.27 293.88 178.36C300.24 179.96 306.99 175.73 309.77 173.69C310.614 173.06 311.282 172.223 311.71 171.26Z" fill="#FFBE9D"/>
<path d="M285.56 165.07C290.405 164.672 295.035 162.891 298.9 159.94C298.9 159.94 296.3 167.72 285.81 167.63L285.56 165.07Z" fill="#EB996E"/>
<path d="M276.64 138.09C276.671 138.478 276.85 138.839 277.141 139.098C277.431 139.357 277.811 139.494 278.2 139.48C278.391 139.48 278.58 139.442 278.757 139.367C278.933 139.293 279.092 139.184 279.226 139.047C279.359 138.91 279.463 138.748 279.533 138.57C279.602 138.391 279.635 138.201 279.63 138.01C279.599 137.622 279.42 137.261 279.129 137.002C278.839 136.743 278.459 136.606 278.07 136.62C277.879 136.621 277.69 136.66 277.515 136.735C277.339 136.81 277.181 136.919 277.047 137.056C276.914 137.193 276.81 137.355 276.74 137.532C276.67 137.71 276.636 137.899 276.64 138.09V138.09Z" fill="#263238"/>
<path d="M276.13 133.87C276.33 134.05 277.39 133.12 278.99 133C280.59 132.88 281.84 133.58 281.99 133.36C282.14 133.14 281.85 132.94 281.3 132.6C280.568 132.175 279.722 131.99 278.88 132.07C278.046 132.134 277.254 132.463 276.62 133.01C276.17 133.43 276 133.79 276.13 133.87Z" fill="#263238"/>
<path d="M291.38 137.26C291.411 137.648 291.59 138.009 291.881 138.268C292.171 138.527 292.551 138.664 292.94 138.65C293.131 138.649 293.319 138.61 293.495 138.535C293.67 138.46 293.829 138.351 293.962 138.214C294.095 138.077 294.2 137.916 294.27 137.738C294.34 137.56 294.374 137.371 294.37 137.18C294.339 136.792 294.16 136.431 293.869 136.172C293.579 135.913 293.199 135.776 292.81 135.79C292.619 135.79 292.429 135.828 292.253 135.903C292.077 135.977 291.918 136.086 291.784 136.223C291.651 136.36 291.547 136.522 291.477 136.701C291.408 136.879 291.375 137.069 291.38 137.26Z" fill="#263238"/>
<path d="M291.91 132.88C292.11 133.06 293.17 132.13 294.78 132C296.39 131.87 297.62 132.58 297.78 132.37C297.94 132.16 297.64 131.94 297.1 131.61C296.364 131.187 295.515 131.001 294.67 131.08C293.836 131.143 293.043 131.473 292.41 132.02C292 132.43 291.81 132.8 291.91 132.88Z" fill="#263238"/>
<path d="M287.07 145.25C286.205 145.045 285.317 144.957 284.43 144.99C284.01 144.99 283.62 144.93 283.53 144.66C283.459 144.239 283.518 143.807 283.7 143.42C284.01 142.42 284.32 141.33 284.7 140.21C286.01 135.63 286.93 131.88 286.7 131.83C286.47 131.78 285.3 135.44 284 140L283.09 143.23C282.876 143.748 282.848 144.324 283.01 144.86C283.084 144.998 283.188 145.118 283.314 145.211C283.441 145.305 283.586 145.369 283.74 145.4C283.972 145.428 284.207 145.428 284.44 145.4C285.319 145.456 286.202 145.405 287.07 145.25V145.25Z" fill="#263238"/>
<path d="M291.88 146C291.62 146 291.76 147.75 290.37 149.1C288.98 150.45 287.11 150.42 287.12 150.66C287.13 150.9 287.56 150.97 288.34 150.93C289.36 150.857 290.322 150.429 291.06 149.72C291.77 149.041 292.186 148.112 292.22 147.13C292.23 146.36 292 146 291.88 146Z" fill="#263238"/>
<path d="M291 126.63C291.2 127.05 292.78 126.72 294.68 126.79C296.58 126.86 298.14 127.25 298.36 126.84C298.46 126.64 298.16 126.25 297.51 125.84C296.649 125.394 295.698 125.148 294.728 125.12C293.759 125.093 292.795 125.284 291.91 125.68C291.22 126.06 290.9 126.43 291 126.63Z" fill="#263238"/>
<path d="M276.34 129.19C276.65 129.53 277.72 129.06 279.05 128.93C280.38 128.8 281.52 128.93 281.75 128.57C281.85 128.38 281.64 128.03 281.12 127.72C280.423 127.369 279.64 127.23 278.865 127.319C278.09 127.408 277.359 127.721 276.76 128.22C276.32 128.63 276.2 129 276.34 129.19Z" fill="#263238"/>
<path d="M308.71 139.47C308.69 139.084 308.748 138.698 308.881 138.336C309.015 137.973 309.221 137.641 309.486 137.361C309.752 137.08 310.072 136.857 310.427 136.703C310.781 136.55 311.164 136.471 311.55 136.47C313.55 136.47 315.76 137.42 315.97 141.47C316.32 148.62 309.07 147.47 309.05 147.3C309.03 147.13 308.84 142.46 308.71 139.47Z" fill="#FFBE9D"/>
<path d="M310.47 144.53C310.47 144.53 310.6 144.62 310.81 144.7C310.957 144.761 311.115 144.793 311.275 144.793C311.434 144.793 311.592 144.761 311.74 144.7C312.189 144.387 312.545 143.96 312.772 143.462C312.999 142.964 313.088 142.414 313.03 141.87C313.021 141.254 312.871 140.648 312.59 140.1C312.51 139.878 312.377 139.679 312.203 139.52C312.029 139.362 311.818 139.248 311.59 139.19C311.444 139.16 311.293 139.182 311.161 139.251C311.03 139.32 310.927 139.433 310.87 139.57C310.79 139.77 310.87 139.92 310.8 139.93C310.73 139.94 310.64 139.82 310.68 139.52C310.717 139.313 310.831 139.127 311 139C311.191 138.845 311.434 138.767 311.68 138.78C311.973 138.818 312.251 138.929 312.489 139.104C312.727 139.279 312.916 139.512 313.04 139.78C313.38 140.392 313.562 141.08 313.57 141.78C313.57 143.22 312.93 144.6 311.91 144.95C311.721 145.017 311.519 145.04 311.32 145.018C311.12 144.995 310.929 144.928 310.76 144.82C310.49 144.71 310.44 144.55 310.47 144.53Z" fill="#EB996E"/>
<path d="M273.47 128.65C273.42 130.1 271.38 125.28 272.08 124.01C271.569 124.172 271.029 124.223 270.497 124.159C269.965 124.096 269.452 123.92 268.993 123.642C268.535 123.365 268.14 122.993 267.836 122.552C267.533 122.11 267.327 121.609 267.232 121.081C267.137 120.554 267.156 120.012 267.288 119.492C267.419 118.972 267.66 118.487 267.993 118.067C268.327 117.648 268.747 117.305 269.224 117.06C269.701 116.816 270.225 116.676 270.76 116.65C270.37 116.009 270.204 115.256 270.289 114.509C270.374 113.763 270.705 113.067 271.23 112.53C271.844 112.071 272.556 111.76 273.31 111.62C273.256 110.735 273.428 109.85 273.81 109.05C274.219 108.175 274.822 107.406 275.574 106.8C276.325 106.194 277.206 105.767 278.147 105.553C279.088 105.339 280.066 105.343 281.006 105.564C281.946 105.785 282.823 106.218 283.57 106.83C284.147 105.986 284.922 105.296 285.826 104.82C286.731 104.343 287.738 104.094 288.76 104.094C289.782 104.094 290.789 104.343 291.694 104.82C292.598 105.296 293.372 105.986 293.95 106.83C294.683 106.344 295.514 106.026 296.383 105.897C297.253 105.768 298.141 105.831 298.983 106.083C299.825 106.335 300.602 106.769 301.258 107.354C301.914 107.939 302.434 108.662 302.78 109.47C303.655 108.955 304.673 108.738 305.682 108.854C306.691 108.969 307.634 109.41 308.37 110.11C308.865 110.78 309.41 111.412 310 112C310.843 112.481 311.73 112.88 312.65 113.19C313.29 113.553 313.845 114.05 314.274 114.648C314.703 115.246 314.998 115.93 315.136 116.653C315.275 117.375 315.255 118.12 315.078 118.834C314.901 119.549 314.571 120.216 314.11 120.79C315.168 121.505 316.103 122.387 316.88 123.4C317.267 123.911 317.525 124.508 317.632 125.139C317.74 125.771 317.695 126.42 317.5 127.03C316.95 128.46 315.38 129.3 314.84 130.74C314.6 131.4 314.6 132.13 314.36 132.8C314.146 133.338 313.819 133.825 313.402 134.226C312.984 134.628 312.486 134.936 311.94 135.13C311.37 138.04 309.4 138.9 309.37 139.75C309.12 148.67 305.26 143.64 302.7 124.96C302.1 120.57 303.63 118.26 300.05 115.69C299.609 116.264 299.205 116.865 298.84 117.49C298.331 118.142 297.691 118.681 296.962 119.071C296.232 119.461 295.429 119.694 294.604 119.755C293.779 119.817 292.95 119.705 292.171 119.426C291.392 119.148 290.68 118.71 290.08 118.14C289.7 118.84 289.16 119.441 288.506 119.894C287.851 120.348 287.099 120.641 286.31 120.751C285.521 120.861 284.718 120.784 283.964 120.527C283.21 120.27 282.527 119.839 281.97 119.27C280.73 120.47 277.81 122.52 275.47 120.54C274.214 123.063 273.531 125.832 273.47 128.65Z" fill="#263238"/>
<path d="M382.42 164.44L380.17 150C372.157 147.125 365.51 141.356 361.534 133.828C357.559 126.3 356.543 117.558 358.686 109.319C360.83 101.08 365.977 93.9407 373.117 89.3045C380.257 84.6683 388.873 82.8705 397.271 84.2644C405.67 85.6583 413.243 90.1431 418.502 96.8372C423.761 103.531 426.327 111.951 425.694 120.44C425.06 128.93 421.275 136.875 415.081 142.715C408.886 148.555 400.732 151.867 392.22 152V152L382.42 164.44Z" fill="#FAFAFA"/>
<path d="M382.42 164.44L392.31 152.08C392.319 152.072 392.326 152.062 392.33 152.05C392.335 152.039 392.338 152.027 392.338 152.015C392.338 152.003 392.335 151.991 392.33 151.98C392.326 151.968 392.319 151.958 392.31 151.95V152.15C395.045 152.118 397.767 151.765 400.42 151.1C403.583 150.3 406.615 149.047 409.42 147.38C410.973 146.468 412.442 145.421 413.81 144.25C414.51 143.63 415.23 143.02 415.93 142.37L417.93 140.24C423.57 133.571 426.456 125.002 426 116.28C425.783 111.444 424.532 106.711 422.33 102.4C419.978 97.8601 416.656 93.8931 412.6 90.78C408.372 87.5221 403.429 85.3179 398.18 84.35L396.18 84.02C395.5 83.9 394.81 83.9 394.13 83.84C393.449 83.7753 392.764 83.7453 392.08 83.75L390.08 83.81C389.41 83.8175 388.741 83.8743 388.08 83.98L386.08 84.23L384.08 84.67C383.427 84.7954 382.782 84.9624 382.15 85.17C377.159 86.6796 372.572 89.2943 368.73 92.82C365.084 96.156 362.216 100.253 360.33 104.82C356.957 113.011 356.849 122.183 360.03 130.45C361.44 133.92 363.372 137.154 365.76 140.04C367.852 142.532 370.294 144.708 373.01 146.5C375.271 147.983 377.698 149.198 380.24 150.12L380.18 150.04C381.68 159.29 382.42 163.83 382.52 164.49C382.42 163.83 381.75 159.28 380.36 150.01C380.357 149.994 380.35 149.979 380.34 149.967C380.329 149.954 380.315 149.945 380.3 149.94C377.775 149.013 375.368 147.791 373.13 146.3C370.444 144.511 368.03 142.345 365.96 139.87C363.607 136.994 361.706 133.777 360.32 130.33C357.179 122.142 357.301 113.061 360.66 104.96C362.538 100.461 365.381 96.4287 368.99 93.15C372.79 89.667 377.326 87.0832 382.26 85.59C382.884 85.381 383.522 85.2173 384.17 85.1L386.11 84.67L388.11 84.42C388.771 84.3138 389.44 84.257 390.11 84.25L392.11 84.19C392.78 84.19 393.46 84.26 394.11 84.28C394.76 84.3 395.47 84.34 396.11 84.46L398.11 84.79C403.296 85.7481 408.18 87.9245 412.36 91.14C416.374 94.195 419.666 98.0976 422 102.57C424.181 106.834 425.425 111.516 425.65 116.3C426.054 124.94 423.162 133.41 417.56 140L415.56 142.11C414.87 142.76 414.15 143.37 413.47 143.98C412.114 145.148 410.658 146.195 409.12 147.11C406.347 148.762 403.354 150.015 400.23 150.83C397.614 151.5 394.93 151.862 392.23 151.91C392.203 151.91 392.178 151.921 392.159 151.939C392.14 151.958 392.13 151.983 392.13 152.01C392.129 152.031 392.136 152.051 392.149 152.067C392.162 152.084 392.18 152.095 392.2 152.1V152.1V151.94L382.42 164.44Z" fill="#263238"/>
<path d="M377.57 116.88C377.724 115.091 378.422 113.391 379.57 112.01C380.638 110.607 382.122 109.578 383.81 109.07C385.248 108.672 386.777 108.758 388.161 109.314C389.545 109.871 390.708 110.867 391.47 112.15C392.126 110.867 393.171 109.825 394.455 109.173C395.74 108.521 397.198 108.292 398.62 108.52C400.349 108.848 401.933 109.708 403.15 110.98C404.441 112.234 405.317 113.853 405.66 115.62C406.048 117.877 405.697 120.198 404.66 122.24C403.456 124.326 401.768 126.092 399.74 127.39C396.45 129.62 392.13 132.39 392.13 132.39C392.13 132.39 388.2 129.77 384.69 127.92C382.534 126.846 380.663 125.276 379.23 123.34C378.005 121.417 377.424 119.155 377.57 116.88V116.88Z" fill="#F6B9D5"/>
<path d="M476.26 470C476.26 470.14 374.92 470.26 249.94 470.26C124.96 470.26 23.5898 470.17 23.5898 470C23.5898 469.83 124.91 469.74 249.94 469.74C374.97 469.74 476.26 469.88 476.26 470Z" fill="#263238"/>
</svg>
