<svg width="564" height="564" viewBox="0 0 564 564" fill="none" xmlns="http://www.w3.org/2000/svg">
<path d="M435.667 87.1154C435.667 87.1154 383.904 44.838 316.573 63.5854C249.243 82.3327 221.054 140.289 182.443 180.209C162.218 201.089 132.348 208.782 108.322 224.855C31.505 276.247 42.8978 391.8 102.118 435.385C153.397 473.117 217.467 477.065 300.86 449.237C384.253 421.41 443.913 404.681 495.621 324.966C547.328 245.25 499.433 144.497 435.667 87.1154Z" fill="#F6B9D5"/>
<path opacity="0.7" d="M435.667 87.1154C435.667 87.1154 383.904 44.838 316.573 63.5854C249.243 82.3327 221.054 140.289 182.443 180.209C162.218 201.089 132.348 208.782 108.322 224.855C31.505 276.247 42.8978 391.8 102.118 435.385C153.397 473.117 217.467 477.065 300.86 449.237C384.253 421.41 443.913 404.681 495.621 324.966C547.328 245.25 499.433 144.497 435.667 87.1154Z" fill="white"/>
<path d="M445.56 517.752H116.184L149.122 470.376H412.622L445.56 517.752Z" fill="#263238" stroke="#263238" stroke-linecap="round" stroke-linejoin="round"/>
<path d="M456.998 454.11C456.998 454.11 423.677 403.294 428.64 391.63C433.603 379.967 451.2 399.966 451.2 399.966C451.2 399.966 425.369 331.655 442.864 316.652C460.359 301.65 466.191 378.309 466.191 378.309C466.191 378.309 481.983 334.147 494.515 350.808C507.047 367.469 475.339 402.459 475.339 402.459C475.339 402.459 496.997 403.294 491.131 417.462C485.265 431.629 469.473 446.62 469.473 446.62L456.998 454.11Z" fill="#F6B9D5"/>
<path d="M447.816 442.447C447.816 442.447 427.828 414.123 437.822 408.291C447.816 402.459 452.813 419.954 452.813 419.954C452.813 419.954 453.648 343.318 469.485 349.15C485.322 354.982 479.479 401.624 479.479 401.624C479.479 401.624 499.467 388.303 498.655 407.456C497.843 426.61 471.154 443.304 471.154 443.304" stroke="#263238" stroke-linecap="round" stroke-linejoin="round"/>
<path d="M466.157 444.116L448.662 424.952" stroke="#263238" stroke-linecap="round" stroke-linejoin="round"/>
<path d="M466.992 453.275L466.157 405.798" stroke="#263238" stroke-linecap="round" stroke-linejoin="round"/>
<path d="M467.827 437.45L483.652 416.627" stroke="#263238" stroke-linecap="round" stroke-linejoin="round"/>
<path d="M481.983 439.119H437.833L442.243 478.272H477.572L481.983 439.119Z" fill="#263238" stroke="#263238" stroke-linecap="round" stroke-linejoin="round"/>
<path d="M102.806 454.11C102.806 454.11 69.4847 403.294 74.4479 391.63C79.4111 379.967 97.0079 399.966 97.0079 399.966C97.0079 399.966 71.1429 331.632 88.6382 316.652C106.133 301.672 111.965 378.309 111.965 378.309C111.965 378.309 127.757 334.147 140.289 350.808C152.821 367.469 121.113 402.459 121.113 402.459C121.113 402.459 142.771 403.294 136.905 417.462C131.04 431.629 115.248 446.62 115.248 446.62L102.806 454.11Z" fill="#F6B9D5"/>
<path d="M96.0492 443.078C96.0492 443.078 75.3392 423.62 74.7075 414.878C74.0758 406.136 87.8938 416.762 93.5338 420.518C99.1738 424.275 79.1067 396.041 79.7271 375.331C80.3475 354.621 91.65 362.787 95.4175 371.575C99.1851 380.362 101.058 388.495 102.953 390.401C104.848 392.307 107.972 375.962 116.128 380.35C129.167 387.378 107.972 411.1 112.36 415.499C116.748 419.898 126.799 396.673 131.818 409.227C136.838 421.782 115.496 444.364 115.496 444.364" stroke="#263238" stroke-linecap="round" stroke-linejoin="round"/>
<path d="M109.224 441.815L93.5337 394.755" stroke="#263238" stroke-linecap="round" stroke-linejoin="round"/>
<path d="M101.069 417.969L107.341 403.542" stroke="#263238" stroke-linecap="round" stroke-linejoin="round"/>
<path d="M88.5142 427.388L106.088 431.776L114.876 425.504" stroke="#263238" stroke-linecap="round" stroke-linejoin="round"/>
<path d="M127.791 439.119H83.6411L88.0516 478.272H123.381L127.791 439.119Z" fill="#263238" stroke="#263238" stroke-linecap="round" stroke-linejoin="round"/>
<path d="M254.556 331.632C254.556 331.632 238.008 333.132 231.996 322.608C225.984 312.084 236.508 299.292 225.228 294.78C213.948 290.268 200.412 305.316 177.852 292.524C155.292 279.733 167.316 263.196 173.34 250.416C179.363 237.636 182.364 231.612 168.072 223.344C153.78 215.076 137.988 191.004 147.768 167.7C157.548 144.395 182.364 154.908 195.144 142.884C207.924 130.859 196.644 116.556 195.9 97.0079C195.155 77.4597 221.46 62.4122 247.032 66.1797C272.604 69.9472 277.86 97.0079 277.86 114.3C277.86 131.592 304.932 136.116 317.724 116.556C330.515 96.9967 341.028 92.4959 359.832 100.764C378.636 109.032 362.844 136.86 371.868 141.372C380.892 145.884 388.404 124.08 415.476 136.86C442.548 149.64 427.512 183.48 413.976 191.76C394.281 203.818 417.507 227.202 421.24 241.516C426.711 262.44 409.87 279.18 389.16 278.244C356.076 276.732 347.796 271.476 341.028 281.244C334.26 291.013 355.32 293.28 352.308 309.072C349.297 324.864 343.284 330.876 329.748 330.876C316.212 330.876 307.944 318.852 293.652 324.864C279.361 330.876 261.324 335.388 254.556 331.632Z" fill="#263238" stroke="#263238" stroke-linecap="round" stroke-linejoin="round"/>
<path d="M228.42 439.356C225.995 448.354 225.136 457.703 225.882 466.992C227.292 481.374 234.624 488.988 266.49 493.782C298.356 498.576 320.352 494.628 338.118 486.168C355.884 477.708 351.857 447.353 347.244 440.394C342.63 433.434 324.864 432.024 296.1 434.562C267.336 437.1 249.57 432.588 239.136 434.28C228.702 435.972 228.42 439.356 228.42 439.356Z" fill="#696969" stroke="#263238" stroke-linecap="round" stroke-linejoin="round"/>
<path opacity="0.3" d="M329.94 443.868C329.94 443.868 314.712 447.816 303.996 450.636C293.28 453.456 292.152 454.584 301.74 455.712C311.328 456.84 329.376 455.712 329.376 455.712C329.376 455.712 303.996 467.556 290.46 470.376C276.924 473.196 252.108 464.172 249.288 461.916C246.468 459.66 261.132 459.66 265.08 457.968C269.028 456.276 266.772 454.02 252.672 451.764C238.572 449.508 241.392 462.48 253.8 471.504C266.208 480.528 273.54 483.348 289.614 480.528C305.688 477.708 327.684 470.94 335.016 457.404C342.348 443.868 329.94 443.868 329.94 443.868Z" fill="black"/>
<path d="M221.235 353.572L219.362 391.247C219.362 391.247 215.978 400 222.069 405.617C228.161 411.235 236.011 409.577 240.117 402.29C244.223 395.003 243.659 378.139 244.697 371.473C245.735 364.806 237.625 357.937 230.958 355.444C224.292 352.951 221.235 353.572 221.235 353.572Z" fill="white" stroke="#263238" stroke-linecap="round" stroke-linejoin="round"/>
<path d="M353.143 353.572L355.016 391.247C355.016 391.247 358.343 400 352.309 405.617C346.274 411.235 338.355 409.577 334.193 402.29C330.031 395.003 330.651 378.139 329.613 371.473C328.575 364.806 336.697 357.937 343.352 355.444C350.007 352.951 353.143 353.572 353.143 353.572Z" fill="white" stroke="#263238" stroke-linecap="round" stroke-linejoin="round"/>
<path d="M272.209 297.431C272.209 297.431 272.92 313.11 269.118 319.754C265.317 326.398 253.202 325.992 245.374 325.992C237.545 325.992 225.893 332.399 222.092 338.817C219.224 344.08 216.765 349.556 214.737 355.196L240.862 369.206C240.862 369.206 238.008 374.676 240.862 382.742C243.716 390.807 247.979 393.909 246.795 397.947C245.611 401.985 230.168 430.715 228.747 435.227C228.029 437.317 227.474 439.459 227.089 441.634C227.089 441.634 260.094 448.053 288.824 447.105C317.554 446.158 347.243 440.45 347.243 440.45C347.243 440.45 338.456 425.019 333.707 416.232C328.959 407.445 324.683 398.421 325.631 395.33C326.579 392.239 332.049 383.937 331.812 369.442C331.812 369.442 352.94 363.983 360.779 355.196C360.779 355.196 351.519 332.162 342.021 328.361C332.523 324.559 321.604 328.361 313.821 326.229C306.038 324.097 301.943 320.284 300.759 317.442C299.574 314.599 298.379 301.289 298.852 298.209L272.209 297.431Z" fill="#F6B9D5" stroke="#263238" stroke-linecap="round" stroke-linejoin="round"/>
<path opacity="0.3" d="M248.16 389.16C248.16 389.16 240.264 380.7 249.288 379.572C258.312 378.444 271.284 387.468 285.384 390.852C299.484 394.236 316.404 379.008 323.736 381.264C331.068 383.52 326.556 394.8 318.66 399.876C310.764 404.952 288.768 404.388 276.36 403.824C263.952 403.26 257.748 399.876 248.16 389.16Z" fill="black"/>
<path d="M258.312 394.394C258.312 394.394 262.61 397.834 274.104 397.834C285.598 397.834 294.408 392.679 302.462 394.112" stroke="#263238" stroke-linecap="round" stroke-linejoin="round"/>
<path d="M253.439 395.251C253.439 395.251 258.301 399.267 268.329 399.549" stroke="#263238" stroke-linecap="round" stroke-linejoin="round"/>
<path d="M240.862 369.149C240.862 369.149 241.685 364.897 247.133 360.881" stroke="#263238" stroke-linecap="round" stroke-linejoin="round"/>
<path d="M331.813 369.386C331.813 369.386 329.906 361.174 324.751 359.448" stroke="#263238" stroke-linecap="round" stroke-linejoin="round"/>
<path d="M287.403 355.139C305.981 354.406 311.813 336.527 313.64 326.139C305.891 323.995 301.887 320.217 300.702 317.385C299.518 314.554 298.322 301.232 298.796 298.153L272.209 297.431C272.209 297.431 272.92 313.11 269.118 319.754C267.178 323.138 263.05 324.695 258.436 325.394C260.196 332.85 267.336 355.94 287.403 355.139Z" fill="white"/>
<path opacity="0.3" d="M299.259 309.14C298.786 305.498 298.631 301.822 298.796 298.153L272.209 297.431C272.349 301.47 272.209 305.514 271.792 309.534C276.462 312.591 285.926 316.246 299.259 309.14Z" fill="black"/>
<path d="M287.403 355.139C305.981 354.406 311.813 336.527 313.64 326.139C305.891 323.995 301.887 320.217 300.702 317.385C299.518 314.554 298.322 301.232 298.796 298.153L272.209 297.431C272.209 297.431 272.92 313.11 269.118 319.754C267.178 323.138 263.05 324.695 258.436 325.394C260.196 332.85 267.336 355.94 287.403 355.139Z" stroke="#263238" stroke-linecap="round" stroke-linejoin="round"/>
<path d="M260.929 265.08C260.929 265.08 257.545 259.564 254.218 262.925C250.89 266.287 254.218 272.987 256.372 276.101C258.527 279.214 262.599 281.605 263.558 280.409C264.516 279.214 260.929 265.08 260.929 265.08Z" fill="white" stroke="#263238" stroke-linecap="round" stroke-linejoin="round"/>
<path d="M312.907 264.584C312.907 264.584 317.701 258.357 320.341 264.347C322.98 270.336 315.829 279.439 312.445 281.12C309.061 282.801 310.764 277.285 311.001 275.367C311.238 273.45 312.907 264.584 312.907 264.584Z" fill="white" stroke="#263238" stroke-linecap="round" stroke-linejoin="round"/>
<path d="M258.312 243.986C258.312 243.986 259.993 266.749 261.188 278.244C262.384 289.738 266.67 300.048 279.846 303.432C293.021 306.816 303.534 302.236 307.403 294.566C311.272 286.895 313.392 272.288 313.392 260.309V241.133C313.392 241.133 279.372 231.533 258.312 243.986Z" fill="white" stroke="#263238" stroke-linecap="round" stroke-linejoin="round"/>
<path d="M283.681 276.563C284.899 277.371 286.297 277.867 287.753 278.007C289.278 277.848 290.749 277.355 292.062 276.563" stroke="#263238" stroke-linecap="round" stroke-linejoin="round"/>
<path d="M280.567 283.997C280.567 283.997 286.557 287.832 295.231 283.511" stroke="#263238" stroke-linecap="round" stroke-linejoin="round"/>
<path d="M270.991 264.584C270.991 264.584 276.022 263.873 278.887 265.791" stroke="#263238" stroke-width="2" stroke-linecap="round" stroke-linejoin="round"/>
<path d="M294.464 265.542C294.464 265.542 299.258 263.151 303.804 265.306" stroke="#263238" stroke-width="2" stroke-linecap="round" stroke-linejoin="round"/>
<path d="M259.733 262.407C261.376 259.636 262.661 256.668 263.557 253.574C265.014 249.524 265.467 245.182 264.877 240.918C262.6 241.739 260.402 242.766 258.312 243.986C258.312 243.986 258.944 252.909 259.733 262.407Z" fill="#263238" stroke="#263238" stroke-linecap="round" stroke-linejoin="round"/>
<path d="M313.381 260.5C313.381 260.421 313.381 260.354 313.381 260.275V241.099C313.381 241.099 311.035 240.444 307.211 239.7C307.459 243.422 308.576 254.646 313.381 260.5Z" fill="#263238" stroke="#263238" stroke-linecap="round" stroke-linejoin="round"/>
<path d="M269.073 256.203C269.073 256.203 273.145 250.698 281.763 252.367" stroke="#263238" stroke-linecap="round" stroke-linejoin="round"/>
<path d="M293.979 253.089C295.946 252.37 298.069 252.19 300.128 252.569C302.187 252.948 304.107 253.872 305.688 255.244" stroke="#263238" stroke-linecap="round" stroke-linejoin="round"/>
<path d="M289.614 480.528C289.614 480.528 278.616 480.528 258.876 461.07C239.136 441.612 226.728 425.256 211.5 418.488C196.272 411.72 181.608 426.666 182.454 442.74C183.3 458.814 195.144 481.374 230.394 494.346C265.644 507.318 295.818 501.96 298.92 501.96C302.022 501.96 317.25 509.574 326.274 510.42C331.242 510.952 336.253 510.952 341.22 510.42C341.22 510.42 343.758 510.702 345.168 510.702C346.578 510.702 348.27 509.01 348.27 509.01C348.27 509.01 351.124 509.754 352.252 507.78C353.38 505.806 352.5 505.062 352.5 505.062C352.5 505.062 357.328 505.479 359.02 502.377C360.712 499.275 358.298 499.399 358.298 499.399C358.298 499.399 361.603 498.756 361.524 496.094C361.586 495.103 361.392 494.112 360.96 493.218C360.96 493.218 362.934 490.116 362.088 487.578C361.242 485.04 358.14 484.194 355.038 485.604C351.936 487.014 336.99 486.45 324.864 485.604C312.738 484.758 289.614 480.528 289.614 480.528Z" fill="white" stroke="#263238" stroke-linecap="round" stroke-linejoin="round"/>
<path d="M284.708 479.4C279.677 477.584 270.901 472.959 258.876 461.104C239.136 441.612 226.728 425.256 211.5 418.488C196.272 411.72 181.608 426.666 182.454 442.74C183.3 458.814 195.144 481.374 230.394 494.346C243.541 499.148 257.322 501.995 271.296 502.795C284.11 497.448 285.305 486.168 284.708 479.4Z" fill="#696969"/>
<path opacity="0.3" d="M279.913 496.703C274.352 494.594 267.855 492.338 260.568 490.116C234.624 482.22 215.448 472.632 202.476 457.968C189.504 443.304 194.016 424.692 194.016 424.692L191.027 421.985C188.157 424.599 185.9 427.815 184.418 431.403C182.936 434.991 182.265 438.862 182.454 442.74C183.3 458.814 195.144 481.374 230.394 494.346C243.541 499.148 257.322 501.995 271.295 502.795C274.611 501.478 277.566 499.39 279.913 496.703Z" fill="black"/>
<path d="M284.708 479.4C279.677 477.584 270.901 472.959 258.876 461.104C239.136 441.612 226.728 425.256 211.5 418.488C196.272 411.72 181.608 426.666 182.454 442.74C183.3 458.814 195.144 481.374 230.394 494.346C243.541 499.148 257.322 501.995 271.296 502.795C284.11 497.448 285.305 486.168 284.708 479.4Z" stroke="#263238" stroke-linecap="round" stroke-linejoin="round"/>
<path d="M360.96 493.218C360.094 492.829 359.153 492.639 358.204 492.662C357.255 492.686 356.323 492.922 355.478 493.353" fill="white"/>
<path d="M360.96 493.218C360.094 492.829 359.153 492.639 358.204 492.662C357.255 492.686 356.323 492.922 355.478 493.353" stroke="#263238" stroke-linecap="round" stroke-linejoin="round"/>
<path d="M358.298 499.399C356.841 498.871 355.244 498.871 353.786 499.399H358.298Z" fill="white"/>
<path d="M358.298 499.399C356.841 498.871 355.244 498.871 353.786 499.399" stroke="#263238" stroke-linecap="round" stroke-linejoin="round"/>
<path d="M352.5 505.062C351.459 504.278 350.169 503.898 348.868 503.99L352.5 505.062Z" fill="white"/>
<path d="M352.5 505.062C351.459 504.278 350.169 503.898 348.868 503.99" stroke="#263238" stroke-linecap="round" stroke-linejoin="round"/>
<path d="M347.977 508.728C347.977 508.728 346.77 506.551 344.999 506.551L347.977 508.728Z" fill="white"/>
<path d="M347.977 508.728C347.977 508.728 346.77 506.551 344.999 506.551" stroke="#263238" stroke-linecap="round" stroke-linejoin="round"/>
<path d="M277.105 480.528C277.105 480.528 288.103 480.528 307.843 461.07C327.583 441.612 339.991 425.256 355.219 418.488C370.447 411.72 385.111 426.666 384.265 442.74C383.419 458.814 371.575 481.374 336.325 494.346C301.075 507.318 270.901 501.96 267.799 501.96C264.697 501.96 249.469 509.574 240.445 510.42C235.477 510.952 230.466 510.952 225.499 510.42C225.499 510.42 222.961 510.702 221.551 510.702C220.141 510.702 218.449 509.01 218.449 509.01C218.449 509.01 215.595 509.754 214.467 507.78C213.339 505.806 214.219 505.062 214.219 505.062C214.219 505.062 209.38 505.479 207.688 502.377C205.996 499.275 208.409 499.399 208.409 499.399C208.409 499.399 205.104 498.756 205.183 496.094C205.118 495.101 205.317 494.109 205.759 493.218C205.759 493.218 203.785 490.116 204.631 487.578C205.477 485.04 208.579 484.194 211.681 485.604C214.783 487.014 229.729 486.45 241.855 485.604C253.981 484.758 277.105 480.528 277.105 480.528Z" fill="white" stroke="#263238" stroke-linecap="round" stroke-linejoin="round"/>
<path d="M282 479.4C287.02 477.584 295.795 472.959 307.831 461.104C327.571 441.646 339.979 425.29 355.207 418.522C370.435 411.754 385.099 426.7 384.253 442.774C383.407 458.848 371.563 481.408 336.313 494.38C323.163 499.183 309.378 502.03 295.401 502.829C282.598 497.448 281.414 486.168 282 479.4Z" fill="#696969"/>
<path opacity="0.3" d="M384.265 442.74C384.851 431.539 377.903 420.902 368.473 417.755L364.344 420.744C364.344 420.744 378.444 429.204 375.06 445.56C371.676 461.916 344.04 478.836 322.044 487.86C311.093 492.153 299.853 495.669 288.407 498.384C290.463 500.257 292.835 501.75 295.412 502.795C309.39 501.996 323.174 499.149 336.325 494.346C371.575 481.374 383.419 458.814 384.265 442.74Z" fill="black"/>
<path d="M282 479.4C287.02 477.584 295.795 472.959 307.831 461.104C327.571 441.646 339.979 425.29 355.207 418.522C370.435 411.754 385.099 426.7 384.253 442.774C383.407 458.848 371.563 481.408 336.313 494.38C323.163 499.183 309.378 502.03 295.401 502.829C282.598 497.448 281.414 486.168 282 479.4Z" stroke="#263238" stroke-linecap="round" stroke-linejoin="round"/>
<path d="M205.759 493.218C206.624 492.829 207.566 492.639 208.515 492.662C209.464 492.686 210.396 492.922 211.241 493.353" fill="white"/>
<path d="M205.759 493.218C206.624 492.829 207.566 492.639 208.515 492.662C209.464 492.686 210.396 492.922 211.241 493.353" stroke="#263238" stroke-linecap="round" stroke-linejoin="round"/>
<path d="M208.41 499.399C209.867 498.871 211.464 498.871 212.922 499.399H208.41Z" fill="white"/>
<path d="M208.41 499.399C209.867 498.871 211.464 498.871 212.922 499.399" stroke="#263238" stroke-linecap="round" stroke-linejoin="round"/>
<path d="M214.219 505.062C215.261 504.278 216.551 503.898 217.851 503.99L214.219 505.062Z" fill="white"/>
<path d="M214.219 505.062C215.261 504.278 216.551 503.898 217.851 503.99" stroke="#263238" stroke-linecap="round" stroke-linejoin="round"/>
<path d="M218.742 508.728C218.742 508.728 219.96 506.472 221.72 506.472L218.742 508.728Z" fill="white"/>
<path d="M218.742 508.728C218.742 508.728 219.96 506.472 221.72 506.472" stroke="#263238" stroke-linecap="round" stroke-linejoin="round"/>
<path d="M226.018 393.751C226.018 393.751 221.855 392.916 214.365 396.661C206.875 400.406 199.995 407.073 196.035 409.363C192.076 411.652 189.38 413.119 185.883 409.577C182.386 406.035 174.851 396.244 167.768 396.458C160.684 396.673 158.191 406.452 159.443 408.528C160.695 410.603 162.568 411.032 164.023 409.363C165.478 407.693 167.35 404.365 169.223 405.618C171.095 406.87 170.057 412.701 167.147 413.739C164.237 414.777 156.318 419.774 158.191 422.695C160.063 425.617 170.689 429.565 178.596 430.185C186.504 430.806 196.295 425.403 202.747 424.354C209.199 423.305 226.694 422.098 234.805 415.409C237.14 413.508 238.93 411.022 239.993 408.205C241.055 405.387 241.351 402.338 240.851 399.368" fill="white"/>
<path d="M226.017 393.751C226.017 393.751 221.855 392.916 214.365 396.661C206.875 400.406 199.995 407.073 196.035 409.363C192.076 411.652 189.38 413.119 185.883 409.577C182.386 406.035 174.851 396.244 167.768 396.458C160.684 396.673 158.191 406.452 159.443 408.528C160.695 410.603 162.568 411.032 164.023 409.363C165.478 407.693 167.35 404.365 169.223 405.618C171.095 406.87 170.057 412.701 167.147 413.739C164.237 414.777 156.318 419.774 158.191 422.695C160.063 425.617 170.689 429.565 178.596 430.185C186.504 430.806 196.295 425.403 202.747 424.354C209.199 423.305 226.694 422.098 234.805 415.409C237.14 413.508 238.93 411.022 239.993 408.205C241.055 405.387 241.351 402.338 240.851 399.368" stroke="#263238" stroke-linecap="round" stroke-linejoin="round"/>
<path d="M159.184 418.319C159.184 418.319 158.36 409.159 155.653 408.528C152.946 407.896 152.528 414.168 152.946 420.191C153.363 426.215 156.691 427.895 158.766 426.226C160.842 424.557 159.184 418.319 159.184 418.319Z" fill="white" stroke="#263238" stroke-linecap="round" stroke-linejoin="round"/>
<path d="M165.692 420.902C165.692 420.902 166.482 411.731 163.932 410.637C161.383 409.543 159.871 415.623 159.206 421.635C158.54 427.647 161.541 429.881 163.887 428.617C166.233 427.354 165.692 420.902 165.692 420.902Z" fill="white" stroke="#263238" stroke-linecap="round" stroke-linejoin="round"/>
<path d="M171.31 423C171.31 423 172.111 413.841 169.55 412.746C166.989 411.652 165.489 417.732 164.835 423.744C164.181 429.757 167.159 431.99 169.505 430.716C171.851 429.441 171.31 423 171.31 423Z" fill="white" stroke="#263238" stroke-linecap="round" stroke-linejoin="round"/>
<path d="M186.041 429.768C182.261 431.511 178.133 432.368 173.972 432.272C173.731 430.545 173.591 428.804 173.554 427.061C173.554 424.805 178.337 415.408 185.421 416.029" fill="white"/>
<path d="M186.041 429.768C182.261 431.511 178.133 432.368 173.972 432.272C173.731 430.545 173.591 428.804 173.554 427.061C173.554 424.805 178.337 415.408 185.421 416.029" stroke="#263238" stroke-linecap="round" stroke-linejoin="round"/>
<path d="M177.277 426.576C177.277 426.576 179.928 419.402 177.739 417.732C175.551 416.063 172.855 420.507 170.971 425.177C169.088 429.847 171.468 432.577 173.949 432.272C176.431 431.968 177.277 426.576 177.277 426.576Z" fill="white" stroke="#263238" stroke-linecap="round" stroke-linejoin="round"/>
<path d="M348.349 393.751C348.349 393.751 352.511 392.916 360.013 396.661C367.514 400.406 374.372 407.073 378.331 409.363C382.291 411.652 384.998 413.119 388.54 409.577C392.082 406.035 399.572 396.244 406.644 396.458C413.717 396.673 416.221 406.452 414.98 408.528C413.739 410.603 411.855 411.032 410.4 409.363C408.945 407.693 407.016 404.365 405.189 405.618C403.362 406.87 404.354 412.701 407.276 413.739C410.197 414.777 418.105 419.774 416.221 422.695C414.337 425.617 403.734 429.565 395.827 430.185C387.919 430.806 378.128 425.403 371.665 424.354C365.201 423.305 347.729 422.098 339.607 415.409C337.272 413.508 335.482 411.022 334.422 408.204C333.362 405.386 333.069 402.337 333.572 399.368" fill="white"/>
<path d="M348.349 393.751C348.349 393.751 352.511 392.916 360.013 396.661C367.514 400.406 374.372 407.073 378.331 409.363C382.291 411.652 384.998 413.119 388.54 409.577C392.082 406.035 399.572 396.244 406.644 396.458C413.717 396.673 416.221 406.452 414.98 408.528C413.739 410.603 411.855 411.032 410.4 409.363C408.945 407.693 407.016 404.365 405.189 405.618C403.362 406.87 404.354 412.701 407.276 413.739C410.197 414.777 418.105 419.774 416.221 422.695C414.337 425.617 403.734 429.565 395.827 430.185C387.919 430.806 378.128 425.403 371.665 424.354C365.201 423.305 347.729 422.098 339.607 415.409C337.272 413.508 335.482 411.022 334.422 408.204C333.362 405.386 333.069 402.337 333.572 399.368" stroke="#263238" stroke-linecap="round" stroke-linejoin="round"/>
<path d="M415.183 418.319C415.183 418.319 416.018 409.159 418.725 408.528C421.432 407.896 421.849 414.168 421.432 420.191C421.015 426.215 417.687 427.895 415.6 426.226C413.514 424.557 415.183 418.319 415.183 418.319Z" fill="white" stroke="#263238" stroke-linecap="round" stroke-linejoin="round"/>
<path d="M408.686 420.902C408.686 420.902 407.885 411.731 410.434 410.637C412.983 409.543 414.506 415.623 415.16 421.635C415.815 427.647 412.848 429.881 410.49 428.64C408.133 427.399 408.686 420.902 408.686 420.902Z" fill="white" stroke="#263238" stroke-linecap="round" stroke-linejoin="round"/>
<path d="M403.057 423C403.057 423 402.267 413.841 404.817 412.746C407.366 411.652 408.889 417.732 409.543 423.744C410.197 429.757 407.208 431.99 404.873 430.716C402.538 429.441 403.057 423 403.057 423Z" fill="white" stroke="#263238" stroke-linecap="round" stroke-linejoin="round"/>
<path d="M388.326 429.768C392.12 431.517 396.264 432.373 400.44 432.272C400.681 430.545 400.821 428.804 400.858 427.061C400.858 424.805 396.064 415.408 388.98 416.029" fill="white"/>
<path d="M388.326 429.768C392.12 431.517 396.264 432.373 400.44 432.272C400.681 430.545 400.821 428.804 400.858 427.061C400.858 424.805 396.064 415.408 388.98 416.029" stroke="#263238" stroke-linecap="round" stroke-linejoin="round"/>
<path d="M397.056 426.576C397.056 426.576 394.405 419.402 396.594 417.732C398.782 416.063 401.467 420.507 403.362 425.177C405.257 429.847 402.865 432.577 400.384 432.272C397.902 431.968 397.056 426.576 397.056 426.576Z" fill="white" stroke="#263238" stroke-linecap="round" stroke-linejoin="round"/>
<path d="M307.944 230.112C305.293 226.265 301.176 230.01 300.116 231.161C298.988 230.033 294.938 226.265 292.299 230.112C289.422 234.297 300.026 243.016 300.116 242.971C300.206 242.926 310.787 234.297 307.944 230.112Z" stroke="#F6B9D5" stroke-linecap="round" stroke-linejoin="round"/>
<path d="M281.605 233.564C278.294 229.106 273.833 225.632 268.701 223.513C260.444 220.287 265.825 213.835 269.412 215.617C271.726 216.754 274.125 217.712 276.586 218.482C276.586 218.482 267.257 210.947 266.907 204.495C266.558 198.043 276.586 206.289 276.586 206.289C276.586 206.289 264.392 189.504 268.34 186.571C272.288 183.638 275.864 189.087 278.379 193.745C280.165 197.227 281.721 200.822 283.038 204.506C283.038 204.506 282.327 192.674 286.275 196.261C290.223 199.848 287.708 217.783 287.708 217.783C287.708 217.783 293.088 203.119 295.604 211.015C298.119 218.911 282.688 232.481 281.605 233.564Z" stroke="#F6B9D5" stroke-linecap="round" stroke-linejoin="round"/>
<path d="M281.605 233.564C281.605 233.564 287.347 216.339 275.514 194.084" stroke="#F6B9D5" stroke-linecap="round" stroke-linejoin="round"/>
<path d="M261.922 119.218C257.809 119.187 253.766 120.275 250.224 122.365C244.584 125.749 243.231 119.737 245.893 118.417C247.595 117.555 249.232 116.567 250.788 115.462C250.788 115.462 242.17 117.605 238.2 114.932C234.229 112.259 243.58 110.014 243.58 110.014C243.58 110.014 228.183 109.698 228.251 106.088C228.318 102.479 233.09 102.704 236.97 103.359C239.823 103.858 242.642 104.54 245.408 105.4C245.408 105.4 238.098 100.539 241.967 99.7603C245.836 98.982 255.323 108.514 255.323 108.514C255.323 108.514 249.04 98.7789 254.815 100.809C260.59 102.84 261.764 118.102 261.922 119.218Z" stroke="#F6B9D5" stroke-linecap="round" stroke-linejoin="round"/>
<path d="M261.922 119.218C261.922 119.218 254.319 108.141 235.899 105.208" stroke="#F6B9D5" stroke-linecap="round" stroke-linejoin="round"/>
<path d="M333.166 190.485C332.847 190.492 332.529 190.533 332.219 190.609C332.696 190.154 333.057 189.592 333.271 188.968C333.485 188.345 333.547 187.679 333.45 187.027C333.353 186.374 333.102 185.755 332.716 185.22C332.33 184.686 331.821 184.252 331.233 183.954C330.644 183.657 329.993 183.506 329.334 183.513C328.675 183.52 328.027 183.685 327.445 183.994C326.862 184.304 326.363 184.749 325.989 185.291C325.614 185.834 325.376 186.459 325.293 187.113C325.028 186.555 324.642 186.065 324.163 185.676C323.684 185.288 323.123 185.013 322.523 184.871C321.923 184.728 321.299 184.722 320.696 184.854C320.093 184.985 319.528 185.25 319.042 185.629C318.555 186.008 318.16 186.492 317.886 187.044C317.611 187.596 317.464 188.203 317.456 188.82C317.447 189.437 317.577 190.047 317.837 190.607C318.096 191.167 318.477 191.661 318.953 192.053C318.421 192.32 317.953 192.699 317.581 193.164C317.21 193.629 316.943 194.169 316.8 194.747C316.658 195.325 316.642 195.927 316.754 196.511C316.866 197.096 317.104 197.649 317.451 198.133C317.798 198.617 318.245 199.02 318.763 199.314C319.28 199.608 319.855 199.786 320.449 199.837C321.042 199.887 321.639 199.808 322.199 199.606C322.758 199.403 323.267 199.082 323.691 198.663C323.784 199.697 324.265 200.657 325.038 201.35C325.81 202.044 326.816 202.419 327.854 202.4C328.891 202.382 329.884 201.971 330.631 201.25C331.378 200.53 331.824 199.553 331.88 198.517C332.295 198.655 332.729 198.731 333.166 198.742C334.261 198.742 335.311 198.307 336.085 197.533C336.86 196.759 337.295 195.709 337.295 194.614C337.295 193.519 336.86 192.469 336.085 191.695C335.311 190.92 334.261 190.485 333.166 190.485V190.485Z" stroke="#F6B9D5" stroke-linecap="round" stroke-linejoin="round"/>
<path d="M326.139 196.588C327.715 196.588 328.992 195.31 328.992 193.734C328.992 192.158 327.715 190.88 326.139 190.88C324.562 190.88 323.285 192.158 323.285 193.734C323.285 195.31 324.562 196.588 326.139 196.588Z" stroke="#F6B9D5" stroke-linecap="round" stroke-linejoin="round"/>
<path d="M250.619 222.96C250.296 222.966 249.975 223.008 249.66 223.085C250.14 222.631 250.504 222.068 250.721 221.444C250.938 220.82 251.001 220.153 250.906 219.5C250.811 218.846 250.56 218.225 250.174 217.689C249.789 217.152 249.279 216.717 248.69 216.419C248.101 216.121 247.448 215.969 246.787 215.976C246.127 215.983 245.478 216.149 244.895 216.46C244.312 216.77 243.813 217.217 243.438 217.761C243.064 218.306 242.827 218.932 242.746 219.588C242.341 218.746 241.663 218.067 240.821 217.661C239.98 217.256 239.026 217.149 238.115 217.357C237.205 217.566 236.392 218.078 235.811 218.809C235.23 219.54 234.915 220.447 234.918 221.381C234.918 221.983 235.052 222.577 235.31 223.121C235.567 223.666 235.942 224.146 236.406 224.528C235.874 224.795 235.406 225.174 235.034 225.639C234.663 226.104 234.396 226.644 234.254 227.222C234.111 227.8 234.095 228.402 234.207 228.986C234.32 229.571 234.557 230.124 234.904 230.608C235.251 231.092 235.698 231.495 236.216 231.789C236.733 232.083 237.309 232.262 237.902 232.312C238.495 232.362 239.092 232.284 239.652 232.081C240.211 231.878 240.721 231.557 241.144 231.138C241.254 232.158 241.741 233.1 242.51 233.779C243.279 234.458 244.275 234.824 245.3 234.805C246.326 234.787 247.307 234.385 248.052 233.68C248.796 232.974 249.249 232.015 249.322 230.992C249.739 231.137 250.177 231.213 250.619 231.217C251.714 231.217 252.764 230.782 253.539 230.008C254.313 229.234 254.748 228.184 254.748 227.089C254.748 225.994 254.313 224.944 253.539 224.17C252.764 223.395 251.714 222.96 250.619 222.96V222.96Z" stroke="#F6B9D5" stroke-linecap="round" stroke-linejoin="round"/>
<path d="M243.58 229.063C245.157 229.063 246.434 227.785 246.434 226.209C246.434 224.633 245.157 223.355 243.58 223.355C242.004 223.355 240.727 224.633 240.727 226.209C240.727 227.785 242.004 229.063 243.58 229.063Z" stroke="#F6B9D5" stroke-linecap="round" stroke-linejoin="round"/>
<path d="M248.363 171.659C248.161 171.662 247.961 171.689 247.765 171.738C248.019 171.501 248.221 171.215 248.359 170.897C248.497 170.578 248.567 170.235 248.566 169.888C248.597 169.218 248.363 168.562 247.916 168.062C247.468 167.562 246.842 167.258 246.172 167.215C245.502 167.172 244.842 167.394 244.334 167.833C243.826 168.271 243.511 168.892 243.456 169.561C243.291 169.214 243.051 168.909 242.752 168.669C242.454 168.428 242.105 168.257 241.731 168.169C241.358 168.081 240.97 168.078 240.595 168.16C240.22 168.242 239.869 168.408 239.567 168.644C239.264 168.881 239.019 169.182 238.849 169.526C238.679 169.87 238.588 170.247 238.584 170.631C238.579 171.015 238.661 171.394 238.823 171.742C238.985 172.09 239.223 172.397 239.52 172.64C239.096 172.846 238.738 173.167 238.487 173.566C238.236 173.964 238.101 174.425 238.098 174.896C238.083 175.415 238.225 175.926 238.506 176.363C238.787 176.8 239.193 177.141 239.671 177.342C240.15 177.544 240.678 177.596 241.186 177.491C241.695 177.387 242.16 177.131 242.52 176.758C242.591 177.392 242.897 177.977 243.377 178.398C243.857 178.819 244.477 179.045 245.116 179.032C245.754 179.019 246.365 178.769 246.828 178.329C247.291 177.89 247.573 177.293 247.619 176.656C247.875 176.751 248.146 176.801 248.419 176.803C249.102 176.803 249.756 176.532 250.238 176.049C250.72 175.567 250.991 174.913 250.991 174.231C250.991 173.549 250.72 172.895 250.238 172.412C249.756 171.93 249.102 171.659 248.419 171.659H248.363Z" stroke="#F6B9D5" stroke-linecap="round" stroke-linejoin="round"/>
<path d="M243.986 175.46C244.971 175.46 245.769 174.662 245.769 173.678C245.769 172.694 244.971 171.896 243.986 171.896C243.002 171.896 242.204 172.694 242.204 173.678C242.204 174.662 243.002 175.46 243.986 175.46Z" stroke="#F6B9D5" stroke-linecap="round" stroke-linejoin="round"/>
<path d="M225.115 250.416C224.917 250.419 224.72 250.446 224.529 250.495C224.779 250.256 224.978 249.969 225.114 249.651C225.249 249.333 225.319 248.991 225.318 248.645C225.315 247.996 225.066 247.373 224.621 246.901C224.176 246.429 223.569 246.143 222.922 246.102C222.274 246.06 221.635 246.266 221.134 246.677C220.632 247.089 220.305 247.675 220.22 248.318C220.053 247.974 219.812 247.672 219.514 247.434C219.215 247.195 218.867 247.026 218.496 246.94C218.124 246.853 217.737 246.851 217.364 246.933C216.991 247.015 216.641 247.18 216.34 247.415C216.039 247.65 215.794 247.949 215.624 248.291C215.453 248.632 215.361 249.008 215.355 249.39C215.348 249.772 215.427 250.15 215.586 250.497C215.744 250.845 215.979 251.152 216.272 251.397C215.942 251.564 215.653 251.8 215.423 252.089C215.193 252.378 215.028 252.713 214.94 253.071C214.852 253.43 214.843 253.803 214.912 254.166C214.982 254.528 215.129 254.872 215.344 255.172C215.559 255.472 215.836 255.723 216.156 255.906C216.477 256.089 216.833 256.201 217.201 256.233C217.569 256.266 217.939 256.218 218.287 256.094C218.635 255.97 218.952 255.773 219.216 255.515C219.287 256.149 219.592 256.734 220.073 257.155C220.553 257.576 221.173 257.802 221.811 257.789C222.45 257.777 223.06 257.526 223.523 257.086C223.986 256.647 224.268 256.05 224.314 255.413C224.571 255.507 224.842 255.557 225.115 255.56C225.797 255.56 226.451 255.289 226.934 254.806C227.416 254.324 227.687 253.67 227.687 252.988C227.687 252.306 227.416 251.652 226.934 251.169C226.451 250.687 225.797 250.416 225.115 250.416V250.416Z" stroke="#F6B9D5" stroke-linecap="round" stroke-linejoin="round"/>
<path d="M220.738 254.217C221.723 254.217 222.521 253.419 222.521 252.435C222.521 251.451 221.723 250.653 220.738 250.653C219.754 250.653 218.956 251.451 218.956 252.435C218.956 253.419 219.754 254.217 220.738 254.217Z" stroke="#F6B9D5" stroke-linecap="round" stroke-linejoin="round"/>
<path d="M275.04 128.919C274.842 128.922 274.646 128.949 274.454 128.998C274.749 128.715 274.973 128.366 275.105 127.979C275.238 127.592 275.276 127.179 275.216 126.774C275.156 126.369 275 125.985 274.761 125.653C274.522 125.321 274.207 125.051 273.842 124.866C273.478 124.68 273.074 124.585 272.665 124.588C272.256 124.591 271.853 124.692 271.491 124.882C271.129 125.073 270.818 125.347 270.584 125.682C270.349 126.018 270.199 126.404 270.145 126.81C269.894 126.283 269.471 125.857 268.945 125.603C268.42 125.349 267.823 125.283 267.255 125.415C266.686 125.546 266.18 125.868 265.819 126.327C265.458 126.786 265.265 127.354 265.272 127.938C265.271 128.311 265.354 128.68 265.514 129.018C265.674 129.355 265.907 129.653 266.197 129.889C265.676 130.143 265.257 130.566 265.008 131.09C264.759 131.613 264.695 132.205 264.826 132.769C264.956 133.333 265.275 133.837 265.729 134.197C266.183 134.557 266.745 134.752 267.325 134.751C267.658 134.751 267.988 134.686 268.296 134.558C268.604 134.43 268.883 134.243 269.118 134.006C269.188 134.641 269.493 135.226 269.972 135.648C270.451 136.07 271.071 136.297 271.709 136.286C272.347 136.274 272.958 136.025 273.422 135.587C273.886 135.148 274.169 134.553 274.217 133.916C274.475 134.005 274.745 134.054 275.018 134.063C275.7 134.063 276.354 133.792 276.836 133.31C277.319 132.827 277.59 132.173 277.59 131.491C277.59 130.809 277.319 130.155 276.836 129.672C276.354 129.19 275.7 128.919 275.018 128.919H275.04Z" stroke="#F6B9D5" stroke-linecap="round" stroke-linejoin="round"/>
<path d="M270.664 132.72C271.648 132.72 272.446 131.923 272.446 130.938C272.446 129.954 271.648 129.156 270.664 129.156C269.679 129.156 268.881 129.954 268.881 130.938C268.881 131.923 269.679 132.72 270.664 132.72Z" stroke="#F6B9D5" stroke-linecap="round" stroke-linejoin="round"/>
<path d="M330.143 145.151C329.942 145.154 329.741 145.181 329.545 145.23C329.799 144.994 330.001 144.707 330.139 144.389C330.277 144.07 330.348 143.727 330.346 143.38C330.377 142.71 330.144 142.054 329.696 141.554C329.248 141.054 328.622 140.75 327.952 140.707C327.282 140.664 326.622 140.886 326.114 141.325C325.607 141.763 325.291 142.384 325.236 143.053C325.072 142.707 324.831 142.402 324.532 142.161C324.234 141.92 323.885 141.749 323.512 141.661C323.138 141.573 322.75 141.57 322.375 141.652C322 141.735 321.649 141.9 321.347 142.136C321.045 142.373 320.799 142.674 320.629 143.018C320.459 143.362 320.368 143.739 320.364 144.123C320.359 144.507 320.441 144.886 320.603 145.234C320.765 145.582 321.003 145.889 321.3 146.132C320.876 146.339 320.518 146.659 320.267 147.058C320.016 147.456 319.881 147.917 319.878 148.388C319.879 148.894 320.029 149.387 320.309 149.808C320.589 150.229 320.986 150.558 321.452 150.754C321.918 150.95 322.431 151.005 322.927 150.911C323.424 150.817 323.882 150.579 324.244 150.227C324.315 150.862 324.621 151.447 325.101 151.867C325.581 152.288 326.201 152.514 326.839 152.502C327.478 152.489 328.088 152.238 328.551 151.799C329.014 151.359 329.297 150.762 329.342 150.125C329.599 150.221 329.87 150.27 330.143 150.272C330.825 150.272 331.479 150.001 331.962 149.519C332.444 149.037 332.715 148.382 332.715 147.7C332.715 147.018 332.444 146.364 331.962 145.882C331.479 145.399 330.825 145.128 330.143 145.128V145.151Z" stroke="#F6B9D5" stroke-linecap="round" stroke-linejoin="round"/>
<path d="M325.767 148.952C326.751 148.952 327.549 148.154 327.549 147.17C327.549 146.186 326.751 145.388 325.767 145.388C324.782 145.388 323.984 146.186 323.984 147.17C323.984 148.154 324.782 148.952 325.767 148.952Z" stroke="#F6B9D5" stroke-linecap="round" stroke-linejoin="round"/>
<path d="M296.664 178.224C298.1 174.323 299.862 170.549 301.932 166.944C304.56 162.804 313.956 162.06 313.956 162.06C313.956 162.06 309.072 169.956 306.816 173.712C304.56 177.468 296.664 178.224 296.664 178.224Z" stroke="#F6B9D5" stroke-linecap="round" stroke-linejoin="round"/>
<path d="M296.664 178.224C296.664 178.224 303.804 168.072 312.084 163.188" stroke="#F6B9D5" stroke-linecap="round" stroke-linejoin="round"/>
<path d="M188.229 214.816C192.284 213.898 196.408 213.321 200.559 213.09C205.454 213.09 211.218 220.513 211.218 220.513C211.218 220.513 201.923 220.716 197.547 220.874C193.17 221.032 188.229 214.816 188.229 214.816Z" stroke="#F6B9D5" stroke-linecap="round" stroke-linejoin="round"/>
<path d="M188.229 214.816C188.229 214.816 200.637 215.279 209.244 219.543" stroke="#F6B9D5" stroke-linecap="round" stroke-linejoin="round"/>
<path d="M355.579 206.232C355.579 206.232 353.752 197.738 349.77 198.235C345.788 198.731 349.003 208.725 349.003 208.725C349.003 208.725 343.769 210.214 344.017 212.459C344.266 214.703 347.988 212.831 351.214 212.335C351.214 212.335 349.917 218.166 353.402 219.103C356.888 220.039 356.222 211.41 356.222 211.41C356.222 211.41 364.006 213 366.194 209.515C368.732 205.51 358.817 205.725 355.579 206.232Z" stroke="#F6B9D5" stroke-linecap="round" stroke-linejoin="round"/>
<path d="M355.58 203.615C355.58 203.615 348.315 214.658 348.744 215.82C349.172 216.982 357.035 206.232 358.343 204.924C359.652 203.615 357.328 201.72 355.58 203.615Z" fill="#263238" stroke="#F6B9D5" stroke-linecap="round" stroke-linejoin="round"/>
<path d="M358.343 204.924C358.343 204.924 363.137 200.558 365.461 202.307C367.785 204.055 365.032 204.337 364.739 203.762" stroke="#F6B9D5" stroke-linecap="round" stroke-linejoin="round"/>
<path d="M356.019 202.735C356.019 202.735 357.328 196.34 355.873 195.031C354.417 193.723 353.831 195.471 354.857 196.486" stroke="#F6B9D5" stroke-linecap="round" stroke-linejoin="round"/>
<path d="M286.512 152.912C282.632 147.272 276.631 152.765 275.018 154.446C273.394 152.765 267.393 147.249 263.512 152.912C259.282 159.059 274.871 171.873 275.018 171.817C275.164 171.76 290.72 159.048 286.512 152.912Z" stroke="#F6B9D5" stroke-linecap="round" stroke-linejoin="round"/>
<path d="M232.673 130.916C228.657 128.524 226.525 133.634 225.995 135.123C224.517 134.548 219.227 132.867 218.449 137.447C217.591 142.444 230.857 145.941 230.935 145.862C231.014 145.783 237.027 133.51 232.673 130.916Z" stroke="#F6B9D5" stroke-linecap="round" stroke-linejoin="round"/>
<path d="M195.234 177.434C190.576 177.085 190.936 182.612 191.14 184.202C189.56 184.349 184.078 185.172 185.421 189.639C186.876 194.501 200.321 191.704 200.344 191.602C200.367 191.5 200.288 177.818 195.234 177.434Z" stroke="#F6B9D5" stroke-linecap="round" stroke-linejoin="round"/>
<path d="M343.104 250.506C346.804 247.652 342.844 243.738 341.649 242.746C342.777 241.618 346.262 237.309 342.28 234.85C337.949 232.199 329.805 243.253 329.872 243.343C329.94 243.434 339.088 253.597 343.104 250.506Z" stroke="#F6B9D5" stroke-linecap="round" stroke-linejoin="round"/>
<path d="M321.537 174.592C324.064 172.246 326.89 170.244 329.94 168.636" stroke="#F6B9D5" stroke-linecap="round" stroke-linejoin="round"/>
<path d="M300.612 219.96C300.612 219.96 303.252 197.502 315.615 181.146" stroke="#F6B9D5" stroke-linecap="round" stroke-linejoin="round"/>
<path d="M267.269 229.492C268.335 231.142 269.299 232.856 270.156 234.624" stroke="#F6B9D5" stroke-linecap="round" stroke-linejoin="round"/>
<path d="M225.273 202.837C226.896 204.134 228.722 205.155 230.676 205.86C239.599 209.244 252.052 212.628 261.741 222.577" stroke="#F6B9D5" stroke-linecap="round" stroke-linejoin="round"/>
<path d="M221.088 192.324C220.649 194.69 221.048 197.135 222.216 199.239" stroke="#F6B9D5" stroke-linecap="round" stroke-linejoin="round"/>
<path d="M325.327 133.736C328.162 131.159 330.492 128.075 332.196 124.644" stroke="#F6B9D5" stroke-linecap="round" stroke-linejoin="round"/>
<path d="M291.904 166.696C293.741 162.08 296.3 157.785 299.484 153.972C305.902 146.335 312.817 142.692 318.965 138.575" stroke="#F6B9D5" stroke-linecap="round" stroke-linejoin="round"/>
<path d="M288.204 184.992C288.204 182.343 288.449 179.7 288.937 177.096" stroke="#F6B9D5" stroke-linecap="round" stroke-linejoin="round"/>
<path d="M323.375 230.766C328.067 228.397 334.655 226.615 343.476 227.292C365.472 228.984 375.624 235.752 385.212 222.78" stroke="#F6B9D5" stroke-linecap="round" stroke-linejoin="round"/>
<path d="M313.584 239.136C314.597 237.571 315.827 236.158 317.239 234.94" stroke="#F6B9D5" stroke-linecap="round" stroke-linejoin="round"/>
<path d="M360.351 179.747H357.339C355.523 179.747 352.207 177.637 353.718 175.821C355.23 174.005 360.351 178.235 360.351 178.235L355.839 164.056L365.495 159.544L369.42 172.821C369.42 172.821 363.385 170.407 362.776 173.114C362.167 175.821 366.702 175.528 369.42 174.321" stroke="#F6B9D5" stroke-linecap="round" stroke-linejoin="round"/>
<path d="M356.73 167.068L366.081 162.545" stroke="#F6B9D5" stroke-linecap="round" stroke-linejoin="round"/>
<path d="M381.095 175.235H379.11C377.903 175.235 375.726 173.836 376.707 172.64C377.688 171.445 381.095 174.231 381.095 174.231L378.106 164.857L384.49 161.868L387.085 170.644C387.085 170.644 383.092 169.053 382.697 170.847C382.302 172.64 385.291 172.437 387.085 171.636" stroke="#F6B9D5" stroke-linecap="round" stroke-linejoin="round"/>
<path d="M378.704 166.854L384.885 163.865" stroke="#F6B9D5" stroke-linecap="round" stroke-linejoin="round"/>
<path d="M205.691 165.083H203.705C202.498 165.083 200.321 163.684 201.303 162.488C202.284 161.293 205.691 164.079 205.691 164.079L202.702 154.705L209.086 151.716L211.68 160.492C211.68 160.492 207.687 158.901 207.293 160.695C206.898 162.488 209.887 162.285 211.68 161.484" stroke="#F6B9D5" stroke-linecap="round" stroke-linejoin="round"/>
<path d="M203.299 156.702L209.481 153.713" stroke="#F6B9D5" stroke-linecap="round" stroke-linejoin="round"/>
<path d="M394.8 196.791C394.8 196.791 402.967 194.332 401.67 189.504C400.542 185.421 396.729 189.504 396.729 189.504C396.729 189.504 399.098 185.669 395.601 183.864C392.104 182.059 391.089 187 391.089 187C391.089 187 390.39 182.42 387.209 184.529C384.028 186.639 390.739 197.941 390.739 197.941L394.8 196.791Z" stroke="#F6B9D5" stroke-linecap="round" stroke-linejoin="round"/>
<path d="M384.332 214.218C387.526 209.289 389.686 203.763 390.683 197.975L394.157 187.237" stroke="#F6B9D5" stroke-linecap="round" stroke-linejoin="round"/>
<path d="M388.562 205.747C388.901 203.525 388.398 201.256 387.152 199.385C385.907 197.293 384.365 195.393 382.573 193.745C382.573 193.745 381.512 197.626 382.212 200.096C382.911 202.566 388.562 205.747 388.562 205.747Z" stroke="#F6B9D5" stroke-linecap="round" stroke-linejoin="round"/>
<path d="M387.513 208.567C388.885 207.389 390.646 206.762 392.454 206.808H399.154C399.154 206.808 390.683 213.508 387.513 208.567Z" stroke="#F6B9D5" stroke-linecap="round" stroke-linejoin="round"/>
<path d="M389.6 189.053L390.66 197.4L396.582 193.001" stroke="#F6B9D5" stroke-linecap="round" stroke-linejoin="round"/>
<path d="M204.698 233.191C204.698 233.191 199.351 226.559 195.37 229.57C191.986 232.131 197.231 234.15 197.231 234.15C197.231 234.15 192.775 233.406 192.471 237.342C192.166 241.279 197.062 240.264 197.062 240.264C197.062 240.264 193.08 242.644 196.238 244.776C199.397 246.908 207.338 236.451 207.338 236.451L204.698 233.191Z" stroke="#F6B9D5" stroke-linecap="round" stroke-linejoin="round"/>
<path d="M224.765 236.293C219.001 235.186 213.071 235.263 207.338 236.519L196.058 237.354" stroke="#F6B9D5" stroke-linecap="round" stroke-linejoin="round"/>
<path d="M215.324 235.56C213.14 236.084 211.229 237.403 209.966 239.26C208.497 241.203 207.319 243.35 206.469 245.633C206.469 245.633 210.462 245.159 212.481 243.569C214.501 241.978 215.324 235.56 215.324 235.56Z" stroke="#F6B9D5" stroke-linecap="round" stroke-linejoin="round"/>
<path d="M218.336 235.481C216.725 234.655 215.479 233.26 214.839 231.567C213.655 228.623 212.324 225.352 212.324 225.352C212.324 225.352 221.72 230.676 218.336 235.481Z" stroke="#F6B9D5" stroke-linecap="round" stroke-linejoin="round"/>
<path d="M199.476 240.884L206.808 236.756L200.502 232.932" stroke="#F6B9D5" stroke-linecap="round" stroke-linejoin="round"/>
<path d="M259.259 204.833C258.922 204.063 258.546 203.31 258.131 202.577C256.112 198.866 253.146 195.606 248.487 196.272C240.591 197.4 255.255 209.808 257.895 210.18C261.143 210.643 260.308 207.338 259.259 204.833Z" fill="#F6B9D5"/>
<path d="M253.247 158.213C252.841 157.254 252.412 156.42 252.119 155.957C250.089 152.235 247.133 148.986 242.475 149.652C234.579 150.78 249.243 163.188 251.882 163.56C255.131 164.022 254.296 160.706 253.247 158.213Z" fill="#F6B9D5"/>
<path d="M332.613 209.413C331.609 209.706 330.73 210.045 330.244 210.237C326.319 211.816 322.743 214.388 322.867 219.091C323.082 227.066 337.091 213.925 337.768 211.342C338.592 208.217 335.208 208.68 332.613 209.413Z" fill="#F6B9D5"/>
<path d="M342.766 167.305C341.962 167.538 341.172 167.813 340.397 168.128C336.471 169.708 332.896 172.268 333.02 176.972C333.234 184.947 347.244 171.806 347.921 169.234C348.744 166.098 345.36 166.549 342.766 167.305Z" fill="#F6B9D5"/>
<path d="M400.575 164.688C399.774 164.917 398.987 165.192 398.218 165.511C394.292 167.091 390.716 169.651 390.841 174.355C391.055 182.33 405.065 169.189 405.741 166.617C406.565 163.447 403.181 163.898 400.575 164.688Z" fill="#F6B9D5"/>
<path d="M242.058 203.04C241.901 202.655 241.724 202.278 241.528 201.912C240.546 200.107 239.102 198.528 236.824 198.833C232.966 199.385 240.129 205.443 241.415 205.601C242.983 205.871 242.577 204.258 242.058 203.04Z" fill="#F6B9D5"/>
<path d="M214.523 173.78C214.14 173.453 213.756 173.182 213.553 173.035C211.85 171.851 209.853 171.084 207.969 172.392C204.766 174.648 213.88 176.814 215.11 176.408C216.576 175.9 215.527 174.648 214.523 173.78Z" fill="#F6B9D5"/>
<path d="M255.221 187.62C255.065 187.235 254.888 186.858 254.691 186.492C253.698 184.676 252.255 183.108 249.987 183.413C246.13 183.966 253.292 190.012 254.578 190.181C256.135 190.463 255.729 188.839 255.221 187.62Z" fill="#F6B9D5"/>
<path d="M188.816 162.218C188.662 161.832 188.485 161.455 188.286 161.09C187.304 159.274 185.861 157.706 183.582 158.01C179.724 158.563 186.887 164.62 188.173 164.778C189.741 165.049 189.335 163.436 188.816 162.218Z" fill="#F6B9D5"/>
<path d="M206.762 201.732C206.398 201.511 206.021 201.311 205.634 201.134C203.784 200.231 201.686 199.78 199.994 201.359C197.174 204.055 206.525 204.822 207.676 204.224C209.165 203.502 207.89 202.42 206.762 201.732Z" fill="#F6B9D5"/>
<path d="M251.837 143.256C251.681 142.871 251.504 142.494 251.307 142.128C250.315 140.323 248.871 138.744 246.604 139.048C242.746 139.601 249.909 145.659 251.194 145.816C252.751 146.087 252.345 144.474 251.837 143.256Z" fill="#F6B9D5"/>
<path d="M294.261 189.098C293.957 189.493 293.697 189.876 293.562 190.091C292.434 191.828 291.746 193.869 293.133 195.731C295.48 198.844 297.329 189.651 296.867 188.432C296.303 186.921 295.085 188.06 294.261 189.098Z" fill="#F6B9D5"/>
<path d="M312.31 212.786C312.005 213.181 311.746 213.564 311.61 213.779C310.482 215.516 309.794 217.557 311.182 219.419C313.528 222.532 315.378 213.339 314.915 212.12C314.351 210.609 313.133 211.748 312.31 212.786Z" fill="#F6B9D5"/>
<path d="M337.441 151.152C337.059 151.256 336.682 151.38 336.313 151.524C334.384 152.257 332.613 153.476 332.625 155.766C332.625 159.657 339.618 153.397 339.979 152.145C340.374 150.565 338.727 150.746 337.441 151.152Z" fill="#F6B9D5"/>
<path d="M293.878 136.973C293.517 137.323 293.201 137.661 293.032 137.853C291.667 139.398 290.663 141.304 291.757 143.324C293.596 146.708 296.822 137.954 296.562 136.691C296.235 135.134 294.848 136.071 293.878 136.973Z" fill="#F6B9D5"/>
<path d="M216.102 216.576C216.395 216.856 216.704 217.12 217.027 217.366C218.663 218.64 220.625 219.509 222.577 218.302C225.882 216.26 216.937 213.575 215.651 213.925C214.128 214.32 215.143 215.64 216.102 216.576Z" fill="#F6B9D5"/>
<path d="M357.034 151.569C356.538 151.569 356.076 151.569 355.816 151.569C353.752 151.693 351.699 152.325 351.022 154.513C349.894 158.236 358.411 154.344 359.121 153.261C359.99 151.942 358.365 151.626 357.034 151.569Z" fill="#F6B9D5"/>
</svg>
