<svg width="500" height="500" viewBox="0 0 500 500" fill="none" xmlns="http://www.w3.org/2000/svg">
<path d="M247 491.07C380.068 491.07 487.94 430.217 487.94 355.15C487.94 280.083 380.068 219.23 247 219.23C113.933 219.23 6.06006 280.083 6.06006 355.15C6.06006 430.217 113.933 491.07 247 491.07Z" fill="#FAFAFA"/>
<path d="M304.63 389.6C269.75 409.74 269.75 442.39 304.63 462.53C339.51 482.67 396.07 482.67 430.95 462.53C465.83 442.39 465.84 409.74 430.95 389.6C396.06 369.46 339.51 369.46 304.63 389.6Z" fill="#E6E6E6"/>
<path d="M351.35 230.31C366.82 239.31 366.82 253.97 351.35 263C335.88 272.03 310.82 272 295.35 263C279.88 254 279.88 239.34 295.35 230.31C310.82 221.28 335.89 221.28 351.35 230.31Z" fill="#E0E0E0"/>
<path d="M153.45 463.44L24.5401 389C22.2301 387.67 22.2301 385.5 24.5401 384.17L247.54 255.4C248.835 254.74 250.267 254.396 251.72 254.396C253.173 254.396 254.606 254.74 255.9 255.4L384.82 329.82C387.13 331.16 387.13 333.32 384.82 334.65L161.82 463.43C160.524 464.089 159.09 464.433 157.636 464.435C156.182 464.436 154.748 464.096 153.45 463.44Z" fill="#E6E6E6"/>
<path d="M473.15 106.1C473.15 75.16 452.78 38.31 427.64 23.8C414.33 16.12 402.37 16.24 394.04 22.64C383.7 26.94 377.04 38.83 377.04 56.47V222.16L468.04 274.71L473.1 271.79L473.15 106.1Z" fill="#E6E6E6"/>
<path d="M468.09 274.71V109C468.09 78.06 447.72 41.21 422.58 26.7C397.44 12.19 377.07 25.51 377.07 56.45V222.16L468.09 274.71Z" fill="#F5F5F5"/>
<path d="M463.12 109V266.09L382.05 219.28V56.47C382.05 41.01 387.49 30.34 396.64 26.98C398.767 26.2046 401.016 25.8184 403.28 25.84C408.46 25.84 414.11 27.58 420.1 31.04C443.82 44.73 463.12 79.71 463.12 109Z" fill="#E0E0E0"/>
<path d="M382.05 219.28L387.19 216.32L463.12 260.16V266.09L382.05 219.28Z" fill="#EBEBEB"/>
<path d="M463.12 109V260.16L387.19 216.32V53.5C387.19 41.21 390.64 31.95 396.65 26.98C398.777 26.2046 401.026 25.8184 403.29 25.84C408.47 25.84 414.12 27.58 420.11 31.04C443.82 44.73 463.12 79.71 463.12 109Z" fill="white"/>
<path d="M425.07 244.12L420.1 241.25V29.24H425.07V244.12Z" fill="#F5F5F5"/>
<path d="M430.05 38.23V241.23L425.05 244.1V34.26C426.77 35.48 428.42 36.8 430.05 38.23Z" fill="#E0E0E0"/>
<path d="M382.05 184.16L420.1 206.13V211.97L382.05 190.01V184.16Z" fill="#F5F5F5"/>
<path d="M387.19 181.2L382.05 184.16L420.1 206.13V200.29L387.19 181.2Z" fill="#EBEBEB"/>
<path d="M425.07 209L463.12 230.96V236.8L425.07 214.84V209Z" fill="#F5F5F5"/>
<path d="M430.21 206.03L425.07 209L463.12 230.96V225.12L430.21 206.03Z" fill="#EBEBEB"/>
<path d="M382.05 67.56L420.1 89.52V95.36L382.05 73.4V67.56Z" fill="#F5F5F5"/>
<path d="M387.19 64.59L382.05 67.56L420.1 89.52V83.68L387.19 64.59Z" fill="#EBEBEB"/>
<path d="M425.07 92.39L463.12 114.36V120.19L425.07 98.24V92.39Z" fill="#F5F5F5"/>
<path d="M430.21 89.43L425.07 92.39L463.12 114.36V108.52L430.21 89.43Z" fill="#EBEBEB"/>
<path d="M32.73 145.72L34.8 146.96L77.32 122.41L75.25 121.17L32.73 145.72Z" fill="#FAFAFA"/>
<path d="M75.2498 121.17L34.7998 144.52L34.8098 102.17L75.2498 78.83V121.17Z" fill="white"/>
<path d="M81.2299 70.85L30.8999 99.91V153.73L81.2299 124.67V70.85ZM77.3199 122.41L34.8099 147V102.17L77.3199 77.62V122.41Z" fill="#F0F0F0"/>
<path d="M77.32 122.41L75.25 121.17V78.83L77.32 77.62V122.41Z" fill="#E0E0E0"/>
<path d="M81.23 70.85L79.13 69.64L28.79 98.7L30.89 99.91L81.23 70.85Z" fill="#FAFAFA"/>
<path d="M28.79 98.7L30.89 99.91V153.73L28.79 152.53V98.7Z" fill="#E0E0E0"/>
<path d="M73.6699 119.91L36.3799 141.44V130.67L45.7099 109.14L51.5199 114.53L49.4299 123.55L62.2999 96.01L73.6699 109.14V119.91Z" fill="#F0F0F0"/>
<path d="M51.1597 98.75C50.3581 99.2748 49.6914 99.981 49.2137 100.811C48.7359 101.642 48.4605 102.573 48.4097 103.53C48.4097 105.28 49.6397 106 51.1597 105.12C51.9642 104.597 52.6337 103.892 53.1133 103.061C53.593 102.23 53.8693 101.298 53.9197 100.34C53.9197 98.58 52.6897 97.87 51.1597 98.75Z" fill="#F0F0F0"/>
<path d="M96.0698 94.02L98.1398 95.25L140.66 70.7L138.59 69.47L96.0698 94.02Z" fill="#FAFAFA"/>
<path d="M138.59 69.47L98.1396 92.81V50.46L138.59 27.13V69.47Z" fill="white"/>
<path d="M144.57 19.14L94.23 48.2V102L144.57 73V19.14ZM140.66 70.7L98.14 95.25V50.46L140.66 25.91V70.7Z" fill="#F0F0F0"/>
<path d="M140.66 70.7L138.59 69.47V27.13L140.66 25.91V70.7Z" fill="#E0E0E0"/>
<path d="M144.57 19.14L142.47 17.93L92.1299 47L94.2299 48.2L144.57 19.14Z" fill="#FAFAFA"/>
<path d="M92.1299 47L94.2299 48.2V102.02L92.1299 100.82V47Z" fill="#E0E0E0"/>
<path d="M137.01 68.2L99.7197 89.73V78.96L109.04 57.44L114.85 62.82L112.76 71.84L125.64 44.31L137.01 57.44V68.2Z" fill="#F0F0F0"/>
<path d="M114.5 47C113.697 47.5243 113.029 48.2302 112.549 49.0606C112.07 49.891 111.792 50.8225 111.74 51.78C111.74 53.54 112.98 54.25 114.5 53.37C115.303 52.8457 115.971 52.1398 116.45 51.3094C116.93 50.479 117.207 49.5474 117.26 48.59C117.26 46.87 116 46.16 114.5 47Z" fill="#F0F0F0"/>
<path d="M298.88 251.38C285.25 237.31 277.24 190.07 290.54 178.91H358.21C371.51 190.07 363.51 237.29 349.88 251.37L349.51 251.76L349.04 252.22C348.647 252.6 348.237 252.97 347.81 253.33L347.48 253.59C347.15 253.85 346.82 254.12 346.48 254.38C345.914 254.787 345.326 255.164 344.72 255.51C333.5 262.06 315.31 262.06 304.1 255.51C303.49 255.162 302.899 254.782 302.33 254.37C301.99 254.13 301.68 253.88 301.33 253.63L300.93 253.32C300.51 252.97 300.11 252.61 299.74 252.25L299.2 251.71L298.88 251.38Z" fill="#37474F"/>
<path d="M352.34 174.41C367.78 183.41 367.78 198.05 352.34 207.06C336.9 216.07 311.86 216.06 296.42 207.06C280.98 198.06 280.98 183.43 296.42 174.41C311.86 165.39 336.9 165.4 352.34 174.41Z" fill="#455A64"/>
<path d="M344.91 178.75C356.25 185.37 356.25 196.1 344.91 202.75C333.57 209.4 315.18 209.37 303.84 202.75C292.5 196.13 292.51 185.39 303.84 178.75C315.17 172.11 333.57 172.13 344.91 178.75Z" fill="#263238"/>
<path d="M303.85 190.13C315.18 183.51 333.57 183.51 344.91 190.13C347.661 191.634 349.995 193.799 351.7 196.43C349.991 199.058 347.659 201.222 344.91 202.73C333.57 209.35 315.18 209.35 303.85 202.73C301.097 201.226 298.76 199.061 297.05 196.43C298.757 193.797 301.095 191.631 303.85 190.13Z" fill="#FAFAFA"/>
<path d="M347.29 99.51L329.58 114.7L346.93 105.87C347.115 111.585 346.295 117.288 344.51 122.72C344.51 122.72 336 128.24 331.14 133L344.47 127.13C344.47 127.13 345.74 136.01 342.56 149.77C341.72 153.38 337.98 160.34 335.65 165.52C334.577 167.913 333.351 170.235 331.98 172.47C331.9 172.61 331.81 172.75 331.72 172.89C328.553 171.243 325.27 169.65 321.87 168.11C319.51 163.62 316.24 152.42 314.87 143.2C309.61 107.91 335.62 86.55 356.87 78.91C356.89 78.91 349.84 88.48 347.29 99.51Z" fill="#F6B9D5"/>
<path opacity="0.45" d="M347.29 99.51L329.58 114.7L346.93 105.87C347.115 111.585 346.295 117.288 344.51 122.72C344.51 122.72 336 128.24 331.14 133L344.47 127.13C344.47 127.13 345.74 136.01 342.56 149.77C341.72 153.38 337.98 160.34 335.65 165.52C334.577 167.913 333.351 170.235 331.98 172.47C331.9 172.61 331.81 172.75 331.72 172.89C328.553 171.243 325.27 169.65 321.87 168.11C319.51 163.62 316.24 152.42 314.87 143.2C309.61 107.91 335.62 86.55 356.87 78.91C356.89 78.91 349.84 88.48 347.29 99.51Z" fill="white"/>
<path d="M332.07 101.59C328.49 105.48 326.5 110.5 325.02 115.5C323.566 120.553 322.677 125.751 322.37 131C321.614 141.465 323.344 151.961 327.42 161.63C327.459 161.753 327.451 161.886 327.397 162.003C327.344 162.12 327.249 162.213 327.13 162.264C327.012 162.315 326.879 162.321 326.757 162.279C326.635 162.238 326.533 162.153 326.47 162.04C322.497 152.19 320.91 141.54 321.84 130.96C322.25 125.703 323.229 120.506 324.76 115.46C326.34 110.43 328.42 105.42 332.07 101.59Z" fill="white"/>
<path d="M271 113.41C271.38 114.06 277.58 124.79 286 145.03L304.85 151.59H290.1L295.63 165.13L314.03 172.46L298.68 172.24C298.68 172.24 300.25 187.53 309.85 195.49C315.15 199.88 317.69 200.41 320.01 199.49C322.83 198.42 324.79 194.49 326.92 188.41C329.05 182.33 329.12 169.41 325.4 156.13C324.383 152.575 322.86 149.183 320.88 146.06C309.53 127.86 284.18 115.55 271 113.41Z" fill="#F6B9D5"/>
<path opacity="0.65" d="M271 113.41C271.38 114.06 277.58 124.79 286 145.03L304.85 151.59H290.1L295.63 165.13L314.03 172.46L298.68 172.24C298.68 172.24 300.25 187.53 309.85 195.49C315.15 199.88 317.69 200.41 320.01 199.49C322.83 198.42 324.79 194.49 326.92 188.41C329.05 182.33 329.12 169.41 325.4 156.13C324.383 152.575 322.86 149.183 320.88 146.06C309.53 127.86 284.18 115.55 271 113.41Z" fill="white"/>
<path d="M391.51 120C389.556 119.974 387.603 120.064 385.66 120.27C378.007 121.156 370.493 122.987 363.29 125.72C360.62 126.72 357.94 127.84 355.29 129.1C353.97 129.73 352.67 130.39 351.38 131.1C344.979 134.443 339.185 138.837 334.24 144.1C331.931 146.604 329.949 149.389 328.34 152.39C328.13 152.78 327.9 153.15 327.71 153.55C327.21 154.55 326.71 155.55 326.34 156.55C321.4 167.72 320.98 175.47 321.29 184.07C321.53 190.74 323.8 198.37 325.1 199.62C325.275 199.786 325.47 199.931 325.68 200.05C327.58 201.26 330.6 200.56 336.26 197.39C347.6 191 352 175 352 175L336.26 172.33L356.47 168.33L364.69 155.52L349.58 152.78L370.11 149.62C382.6 130.43 391 120.62 391.48 120H391.51Z" fill="#F6B9D5"/>
<path opacity="0.65" d="M391.51 120C389.556 119.974 387.603 120.064 385.66 120.27C378.007 121.156 370.493 122.987 363.29 125.72C360.62 126.72 357.94 127.84 355.29 129.1C353.97 129.73 352.67 130.39 351.38 131.1C344.979 134.443 339.185 138.837 334.24 144.1C331.931 146.604 329.949 149.389 328.34 152.39C328.13 152.78 327.9 153.15 327.71 153.55C327.21 154.55 326.71 155.55 326.34 156.55C321.4 167.72 320.98 175.47 321.29 184.07C321.53 190.74 323.8 198.37 325.1 199.62C325.275 199.786 325.47 199.931 325.68 200.05C327.58 201.26 330.6 200.56 336.26 197.39C347.6 191 352 175 352 175L336.26 172.33L356.47 168.33L364.69 155.52L349.58 152.78L370.11 149.62C382.6 130.43 391 120.62 391.48 120H391.51Z" fill="white"/>
<path d="M385.66 120.26C378.007 121.146 370.493 122.977 363.29 125.71C360.62 126.71 357.94 127.83 355.29 129.09C353.97 129.72 352.67 130.38 351.38 131.09C344.979 134.433 339.185 138.827 334.24 144.09C331.931 146.594 329.949 149.379 328.34 152.38C328.13 152.77 327.9 153.14 327.71 153.54C327.21 154.54 326.71 155.54 326.34 156.54C321.4 167.71 320.98 175.46 321.29 184.06C321.53 190.73 323.8 198.36 325.1 199.61C325.275 199.776 325.47 199.921 325.68 200.04C326.064 200.27 326.488 200.426 326.93 200.5C325.53 190.16 330.62 163.94 338.32 153.15C346.32 141.93 365.32 125.65 391.47 120.04C389.531 120.002 387.591 120.075 385.66 120.26Z" fill="#F6B9D5"/>
<path opacity="0.25" d="M385.66 120.26C378.007 121.146 370.493 122.977 363.29 125.71C360.62 126.71 357.94 127.83 355.29 129.09C353.97 129.72 352.67 130.38 351.38 131.09C344.979 134.433 339.185 138.827 334.24 144.09C331.931 146.594 329.949 149.379 328.34 152.38C328.13 152.77 327.9 153.14 327.71 153.54C327.21 154.54 326.71 155.54 326.34 156.54C321.4 167.71 320.98 175.46 321.29 184.06C321.53 190.73 323.8 198.36 325.1 199.61C325.275 199.776 325.47 199.921 325.68 200.04C326.064 200.27 326.488 200.426 326.93 200.5C325.53 190.16 330.62 163.94 338.32 153.15C346.32 141.93 365.32 125.65 391.47 120.04C389.531 120.002 387.591 120.075 385.66 120.26Z" fill="white"/>
<path d="M326.87 200.48C326.372 192.825 326.87 185.137 328.35 177.61C329.737 170.029 332.297 162.711 335.94 155.92C339.81 149.17 345.38 143.66 351.3 138.77C357.314 133.988 363.939 130.029 371 127C371.013 126.991 371.029 126.986 371.045 126.986C371.061 126.986 371.077 126.991 371.09 127C371.098 127.012 371.103 127.026 371.103 127.04C371.103 127.054 371.098 127.068 371.09 127.08C364.361 130.66 358.012 134.911 352.14 139.77C349.189 142.156 346.409 144.746 343.82 147.52C341.161 150.222 338.813 153.214 336.82 156.44C333.111 163.087 330.466 170.274 328.98 177.74C327.33 185.201 326.658 192.845 326.98 200.48C326.98 200.496 326.974 200.511 326.962 200.522C326.951 200.534 326.936 200.54 326.92 200.54C326.906 200.538 326.893 200.53 326.884 200.519C326.875 200.508 326.87 200.494 326.87 200.48Z" fill="white"/>
<path d="M157.13 456.7C156.447 456.699 155.79 456.44 155.291 455.974C154.792 455.508 154.488 454.871 154.44 454.19L150.44 397.87C150.24 394.95 148.69 392.17 147.38 391.41L49.2097 333.54C49.0125 333.982 48.9006 334.457 48.8797 334.94L44.8797 386.69C44.8254 387.405 44.4893 388.069 43.9454 388.536C43.4016 389.003 42.6945 389.234 41.9797 389.18C41.265 389.126 40.6011 388.79 40.1341 388.246C39.6671 387.702 39.4354 386.995 39.4897 386.28L43.4897 334.53C43.7097 331.71 44.8697 329.61 46.7497 328.62C47.5638 328.212 48.4695 328.022 49.3789 328.067C50.2883 328.113 51.1705 328.393 51.9397 328.88L150.15 386.76C153.21 388.52 155.58 392.95 155.9 397.51L159.9 453.83C159.949 454.543 159.714 455.247 159.245 455.787C158.776 456.327 158.113 456.659 157.4 456.71L157.13 456.7Z" fill="#263238"/>
<path d="M360.84 339C360.157 338.999 359.5 338.74 359.001 338.274C358.502 337.808 358.198 337.171 358.15 336.49L354.15 280.17C353.95 277.25 352.4 274.47 351.09 273.71L252.88 215.84C252.677 216.283 252.564 216.763 252.55 217.25L248.55 268.99C248.523 269.344 248.426 269.689 248.266 270.006C248.106 270.322 247.885 270.604 247.615 270.836C247.346 271.067 247.034 271.243 246.697 271.353C246.359 271.464 246.004 271.507 245.65 271.48C244.935 271.426 244.271 271.089 243.804 270.546C243.573 270.276 243.397 269.964 243.286 269.627C243.176 269.29 243.133 268.934 243.16 268.58L247.16 216.83C247.38 214.01 248.54 211.91 250.42 210.92C251.234 210.512 252.139 210.322 253.049 210.367C253.958 210.413 254.84 210.693 255.61 211.18L353.82 269.06C356.88 270.83 359.25 275.25 359.57 279.81L363.57 336.13C363.594 336.488 363.546 336.848 363.43 337.187C363.313 337.527 363.129 337.839 362.89 338.107C362.65 338.374 362.36 338.591 362.035 338.745C361.71 338.898 361.358 338.985 361 339H360.84Z" fill="#263238"/>
<path d="M153.49 395.18L45.4898 331.66C42.4898 329.95 40.8198 327.4 40.8198 324.66C40.8198 321.92 42.5198 319.39 45.4898 317.66L233.49 209.09C238.73 206.09 246.94 206.09 252.17 209.09L360.17 272.61C363.17 274.32 364.85 276.87 364.85 279.61C364.85 282.35 363.15 284.88 360.17 286.61L172.17 395.19C169.282 396.675 166.082 397.45 162.835 397.45C159.588 397.45 156.387 396.675 153.5 395.19L153.49 395.18ZM236.22 213.9L48.2698 322.47C47.0898 323.16 46.3498 324 46.3498 324.68C46.3498 325.36 47.0898 326.2 48.2698 326.89L156.27 390.4C158.316 391.416 160.57 391.944 162.855 391.944C165.14 391.944 167.393 391.416 169.44 390.4L357.44 281.83C358.62 281.14 359.36 280.3 359.36 279.62C359.36 278.94 358.62 278.09 357.44 277.41L249.44 213.9C247.396 212.88 245.144 212.35 242.86 212.35C240.576 212.35 238.323 212.88 236.28 213.9H236.22Z" fill="#455A64"/>
<path d="M301.68 235.59C302.182 235.59 302.669 235.419 303.06 235.104C303.451 234.789 303.723 234.35 303.83 233.86L312.83 192.86C312.913 192.57 312.935 192.265 312.895 191.966C312.856 191.667 312.756 191.379 312.601 191.12C312.446 190.861 312.239 190.636 311.994 190.46C311.749 190.284 311.47 190.16 311.175 190.095C310.88 190.031 310.575 190.028 310.279 190.086C309.983 190.144 309.702 190.262 309.453 190.433C309.204 190.604 308.993 190.824 308.832 191.08C308.672 191.336 308.566 191.622 308.52 191.92L299.52 232.92C299.458 233.204 299.453 233.497 299.504 233.782C299.556 234.068 299.663 234.341 299.82 234.585C299.977 234.829 300.18 235.04 300.419 235.206C300.657 235.371 300.926 235.488 301.21 235.55C301.365 235.578 301.522 235.591 301.68 235.59Z" fill="#37474F"/>
<path d="M278.63 222.28C279.131 222.278 279.617 222.106 280.008 221.792C280.398 221.477 280.671 221.039 280.78 220.55L289.78 179.55C289.862 179.26 289.885 178.955 289.845 178.656C289.806 178.357 289.705 178.069 289.55 177.81C289.395 177.551 289.189 177.326 288.944 177.15C288.699 176.974 288.42 176.85 288.125 176.785C287.83 176.721 287.525 176.718 287.229 176.776C286.933 176.834 286.651 176.952 286.403 177.123C286.154 177.294 285.943 177.514 285.782 177.77C285.622 178.026 285.515 178.312 285.47 178.61L276.47 219.61C276.344 220.181 276.451 220.779 276.766 221.272C277.081 221.765 277.578 222.113 278.15 222.24C278.308 222.268 278.469 222.281 278.63 222.28Z" fill="#37474F"/>
<path d="M251.39 167.9C251.426 167.504 251.568 167.124 251.8 166.801C252.032 166.478 252.346 166.222 252.71 166.06L264.27 159.39C265.254 158.888 266.344 158.626 267.45 158.626C268.555 158.626 269.645 158.888 270.63 159.39L335.11 196.61C335.473 196.772 335.787 197.027 336.019 197.351C336.251 197.674 336.393 198.054 336.43 198.45V201.9C336.392 202.296 336.25 202.675 336.018 202.998C335.786 203.321 335.473 203.577 335.11 203.74L323.55 210.41C322.564 210.908 321.474 211.168 320.37 211.168C319.265 211.168 318.176 210.908 317.19 210.41L252.71 173.18C252.346 173.021 252.032 172.767 251.8 172.445C251.568 172.123 251.426 171.745 251.39 171.35V167.9Z" fill="#37474F"/>
<path d="M252.71 166.06L264.27 159.39C265.254 158.888 266.344 158.626 267.45 158.626C268.555 158.626 269.645 158.888 270.63 159.39L320.37 188.1V211.17C319.263 211.188 318.169 210.926 317.19 210.41L252.71 173.18C252.346 173.021 252.032 172.767 251.8 172.445C251.568 172.123 251.426 171.745 251.39 171.35V167.9C251.426 167.504 251.568 167.124 251.8 166.801C252.032 166.478 252.346 166.222 252.71 166.06Z" fill="#263238"/>
<path d="M270.63 159.39L335.11 196.61C335.496 196.739 335.831 196.986 336.069 197.316C336.307 197.646 336.435 198.043 336.435 198.45C336.435 198.857 336.307 199.254 336.069 199.584C335.831 199.914 335.496 200.161 335.11 200.29L323.55 207C322.564 207.498 321.475 207.758 320.37 207.758C319.265 207.758 318.176 207.498 317.19 207L252.71 169.77C252.327 169.639 251.996 169.391 251.761 169.062C251.526 168.733 251.399 168.339 251.399 167.935C251.399 167.531 251.526 167.137 251.761 166.808C251.996 166.479 252.327 166.231 252.71 166.1L264.27 159.43C265.251 158.922 266.34 158.653 267.445 158.646C268.55 158.639 269.642 158.894 270.63 159.39Z" fill="#455A64"/>
<path d="M52.5898 302.24L244.93 191.12C245.38 190.911 245.878 190.826 246.371 190.873C246.865 190.921 247.338 191.099 247.74 191.39L352.74 253.2C353.903 253.951 354.872 254.967 355.567 256.165C356.263 257.362 356.664 258.707 356.74 260.09V276.75C356.793 277.243 356.714 277.741 356.51 278.193C356.306 278.645 355.985 279.034 355.58 279.32L163.2 390.45C162.748 390.655 162.251 390.738 161.757 390.689C161.264 390.639 160.792 390.46 160.39 390.17L55.3898 328.37C54.2268 327.616 53.2583 326.598 52.5632 325.399C51.8681 324.2 51.4661 322.854 51.3898 321.47V304.82C51.341 304.322 51.4266 303.82 51.6376 303.366C51.8487 302.912 52.1775 302.524 52.5898 302.24Z" fill="#F6B9D5"/>
<g opacity="0.8">
<path d="M52.5898 302.24L244.93 191.12C245.38 190.911 245.878 190.826 246.371 190.873C246.865 190.921 247.338 191.099 247.74 191.39L352.74 253.2C353.903 253.951 354.872 254.967 355.567 256.165C356.263 257.362 356.664 258.707 356.74 260.09V276.75C356.793 277.243 356.714 277.741 356.51 278.193C356.306 278.645 355.985 279.034 355.58 279.32L163.2 390.45C162.748 390.655 162.251 390.738 161.757 390.689C161.264 390.639 160.792 390.46 160.39 390.17L55.3898 328.37C54.2268 327.616 53.2583 326.598 52.5632 325.399C51.8681 324.2 51.4661 322.854 51.3898 321.47V304.82C51.341 304.322 51.4266 303.82 51.6376 303.366C51.8487 302.912 52.1775 302.524 52.5898 302.24Z" fill="white"/>
</g>
<path d="M163.21 390.44L355.53 279.32C355.937 279.035 356.261 278.647 356.468 278.195C356.676 277.743 356.759 277.245 356.71 276.75V260.09C356.646 258.599 356.184 257.152 355.37 255.9L163 367C163.809 368.252 164.265 369.7 164.32 371.19V387.85C164.381 388.341 164.311 388.84 164.116 389.295C163.921 389.751 163.608 390.146 163.21 390.44Z" fill="#F6B9D5"/>
<g opacity="0.6">
<path d="M163.21 390.44L355.53 279.32C355.937 279.035 356.261 278.647 356.468 278.195C356.676 277.743 356.759 277.245 356.71 276.75V260.09C356.646 258.599 356.184 257.152 355.37 255.9L163 367C163.809 368.252 164.265 369.7 164.32 371.19V387.85C164.381 388.341 164.311 388.84 164.116 389.295C163.921 389.751 163.608 390.146 163.21 390.44Z" fill="white"/>
</g>
<g opacity="0.4">
<path d="M164.37 387.87V371.21C164.292 369.828 163.889 368.484 163.194 367.286C162.499 366.089 161.531 365.073 160.37 364.32L55.3697 302.52C54.9909 302.172 54.5111 301.955 54.0001 301.898C53.4891 301.841 52.9734 301.949 52.5277 302.205C52.082 302.462 51.7295 302.853 51.5213 303.323C51.3131 303.793 51.26 304.318 51.3697 304.82V321.47C51.446 322.854 51.8481 324.2 52.5432 325.399C53.2383 326.598 54.2068 327.616 55.3697 328.37L160.37 390.17C160.751 390.511 161.229 390.722 161.737 390.775C162.246 390.828 162.758 390.72 163.201 390.465C163.644 390.21 163.995 389.822 164.205 389.357C164.415 388.891 164.472 388.37 164.37 387.87Z" fill="#F6B9D5"/>
</g>
<path d="M42.7099 195.82L220.11 93.34C220.521 93.1805 220.966 93.1299 221.402 93.193C221.838 93.256 222.251 93.4307 222.6 93.7L237 102C239.413 103.57 241.123 106.015 241.77 108.82L257.87 201.82C258.1 203.13 257.82 204.03 257.18 204.4L79.8099 306.9C79.3993 307.061 78.9538 307.113 78.5172 307.05C78.0806 306.987 77.6679 306.811 77.3199 306.54L62.8799 298.2C60.4678 296.629 58.7581 294.185 58.1099 291.38L42.0099 198.38C41.7799 197.1 42.0699 196.2 42.7099 195.82Z" fill="#F6B9D5"/>
<g opacity="0.8">
<path d="M42.7099 195.82L220.11 93.34C220.521 93.1805 220.966 93.1299 221.402 93.193C221.838 93.256 222.251 93.4307 222.6 93.7L237 102C239.413 103.57 241.123 106.015 241.77 108.82L257.87 201.82C258.1 203.13 257.82 204.03 257.18 204.4L79.8099 306.9C79.3993 307.061 78.9538 307.113 78.5172 307.05C78.0806 306.987 77.6679 306.811 77.3199 306.54L62.8799 298.2C60.4678 296.629 58.7581 294.185 58.1099 291.38L42.0099 198.38C41.7799 197.1 42.0699 196.2 42.7099 195.82Z" fill="white"/>
</g>
<path d="M80.5199 304.31C80.7399 305.64 80.4599 306.52 79.8199 306.9L257.22 204.41C257.86 204.04 258.14 203.14 257.92 201.83L241.81 108.83C241.51 107.384 240.903 106.02 240.03 104.83L62.6299 207.39C63.5097 208.576 64.1174 209.942 64.4099 211.39L80.5199 304.31Z" fill="#F6B9D5"/>
<g opacity="0.6">
<path d="M80.5199 304.31C80.7399 305.64 80.4599 306.52 79.8199 306.9L257.22 204.41C257.86 204.04 258.14 203.14 257.92 201.83L241.81 108.83C241.51 107.384 240.903 106.02 240.03 104.83L62.6299 207.39C63.5097 208.576 64.1174 209.942 64.4099 211.39L80.5199 304.31Z" fill="white"/>
</g>
<g opacity="0.4">
<path d="M77.3199 306.54L62.8799 298.2C60.4678 296.629 58.7581 294.185 58.1099 291.38L42.0099 198.38C41.7799 197.07 42.0699 196.17 42.7099 195.79C43.1208 195.631 43.5659 195.58 44.0022 195.643C44.4384 195.706 44.8509 195.881 45.1999 196.15L59.6399 204.49C62.0534 206.064 63.763 208.512 64.4099 211.32L80.5199 304.32C80.7399 305.64 80.4499 306.54 79.8099 306.91C79.3985 307.07 78.9525 307.12 78.5158 307.055C78.0792 306.99 77.667 306.813 77.3199 306.54Z" fill="#F6B9D5"/>
</g>
<path d="M92.2798 356.38C92.4896 356.379 92.6983 356.348 92.8998 356.29C93.1777 356.21 93.437 356.075 93.6629 355.894C93.8888 355.713 94.0768 355.49 94.2161 355.236C94.3554 354.983 94.4434 354.704 94.4749 354.416C94.5064 354.129 94.4809 353.838 94.3998 353.56L85.3998 322.89C85.2154 322.353 84.8316 321.908 84.3278 321.646C83.8241 321.385 83.239 321.327 82.6939 321.485C82.1488 321.643 81.6854 322.005 81.3998 322.496C81.1142 322.986 81.0282 323.568 81.1598 324.12L90.1598 354.79C90.2923 355.249 90.571 355.653 90.9535 355.94C91.336 356.227 91.8016 356.381 92.2798 356.38Z" fill="#37474F"/>
<path d="M69.2196 343.07C69.4295 343.07 69.6384 343.04 69.8396 342.98C70.1175 342.899 70.3768 342.765 70.6027 342.584C70.8286 342.403 71.0166 342.18 71.1559 341.926C71.2953 341.673 71.3832 341.394 71.4147 341.106C71.4462 340.819 71.4207 340.528 71.3396 340.25L62.3396 309.58C62.1765 309.019 61.7972 308.546 61.2852 308.265C60.7733 307.983 60.1705 307.917 59.6096 308.08C59.0486 308.243 58.5755 308.622 58.2942 309.134C58.0129 309.646 57.9465 310.249 58.1096 310.81L67.1096 341.48C67.2431 341.937 67.5206 342.338 67.9008 342.625C68.281 342.911 68.7435 343.068 69.2196 343.07Z" fill="#37474F"/>
<path d="M33.2998 293.71C33.3365 293.314 33.4782 292.934 33.7102 292.611C33.9422 292.287 34.2562 292.032 34.6198 291.87L46.1798 285.2C47.1659 284.696 48.2575 284.433 49.3648 284.433C50.4722 284.433 51.5637 284.696 52.5498 285.2L117 322.42C117.363 322.582 117.677 322.837 117.909 323.161C118.141 323.484 118.283 323.864 118.32 324.26V327.71C118.282 328.106 118.14 328.485 117.908 328.808C117.676 329.131 117.363 329.387 117 329.55L105.44 336.22C104.454 336.718 103.365 336.978 102.26 336.978C101.155 336.978 100.066 336.718 99.0798 336.22L34.6198 299C34.2549 298.84 33.9398 298.585 33.7076 298.261C33.4753 297.937 33.3345 297.557 33.2998 297.16V293.71Z" fill="#37474F"/>
<path d="M34.6198 291.87L46.1798 285.2C47.1659 284.696 48.2575 284.433 49.3648 284.433C50.4722 284.433 51.5637 284.696 52.5498 285.2L102.28 313.91V337C101.173 337.018 100.079 336.756 99.0998 336.24L34.6198 299C34.2549 298.84 33.9398 298.585 33.7076 298.261C33.4753 297.937 33.3345 297.557 33.2998 297.16V293.72C33.3348 293.322 33.4757 292.94 33.7078 292.615C33.9399 292.29 34.2548 292.033 34.6198 291.87Z" fill="#263238"/>
<path d="M52.54 285.2L117 322.42C117.386 322.549 117.722 322.796 117.959 323.126C118.197 323.456 118.325 323.853 118.325 324.26C118.325 324.667 118.197 325.064 117.959 325.394C117.722 325.724 117.386 325.971 117 326.1L105.44 332.77C104.454 333.268 103.365 333.528 102.26 333.528C101.155 333.528 100.066 333.268 99.08 332.77L34.62 295.54C34.2376 295.409 33.9057 295.161 33.6708 294.832C33.4359 294.503 33.3096 294.109 33.3096 293.705C33.3096 293.301 33.4359 292.907 33.6708 292.578C33.9057 292.249 34.2376 292.001 34.62 291.87L46.18 285.2C47.1648 284.698 48.2545 284.436 49.36 284.436C50.4654 284.436 51.5552 284.698 52.54 285.2Z" fill="#455A64"/>
<path d="M127.2 194.34C121.64 193.78 117.04 200.19 107.78 204.72C90.5096 213.17 82.7796 220.85 74.6996 230.22C66.6196 239.59 63.6196 238 61.1596 243.84C58.6996 249.68 65.4996 252.18 68.7396 260.47C74.1896 274.47 80.9796 283.81 88.0396 289.63C100.51 299.9 98.5996 307.05 104.28 307C110.28 306.93 109.88 301.74 119.38 298.05C141.85 289.32 151.07 281.55 161.45 266.19C165.51 260.19 170.67 260.69 171.65 254.9C172.14 252 167.93 250.44 164.12 241.35C157.81 226.24 147.72 212.06 137.88 204.7C133.59 201.47 132.86 194.9 127.2 194.34Z" fill="#F6B9D5"/>
<path opacity="0.3" d="M127.2 194.34C121.64 193.78 117.04 200.19 107.78 204.72C90.5096 213.17 82.7796 220.85 74.6996 230.22C66.6196 239.59 63.6196 238 61.1596 243.84C58.6996 249.68 65.4996 252.18 68.7396 260.47C74.1896 274.47 80.9796 283.81 88.0396 289.63C100.51 299.9 98.5996 307.05 104.28 307C110.28 306.93 109.88 301.74 119.38 298.05C141.85 289.32 151.07 281.55 161.45 266.19C165.51 260.19 170.67 260.69 171.65 254.9C172.14 252 167.93 250.44 164.12 241.35C157.81 226.24 147.72 212.06 137.88 204.7C133.59 201.47 132.86 194.9 127.2 194.34Z" fill="black"/>
<path opacity="0.2" d="M67.2794 253.57C71.9994 260.3 71.3894 267 81.1594 279.38C90.5294 291.26 97.3194 294.59 100.159 299.92C102.489 304.35 105.679 306.42 106.439 301.24C107.199 296.06 103.129 281.24 93.6894 268.57C82.7794 254 75.8394 248.38 71.1394 246.23C63.7794 242.87 63.5394 248.28 67.2794 253.57Z" fill="black"/>
<path opacity="0.2" d="M119.759 292.33C113.559 294.47 113.289 299.97 110.169 304.22C112.73 301.487 115.88 299.373 119.379 298.04C129.609 294.04 137.099 290.29 143.199 285.9C135.259 290.08 124.259 290.78 119.759 292.33ZM158.569 263.85C154.729 267.39 155.109 273.68 150.479 279.76C154.597 275.618 158.283 271.068 161.479 266.18C165.179 260.7 169.799 260.63 171.329 256.25C167.899 260.56 163.199 259.59 158.569 263.85Z" fill="black"/>
<path opacity="0.3" d="M119.47 207.71C106.24 210.19 92.9997 217 83.9097 227.19C82.119 229.325 81.2486 232.084 81.4897 234.86C81.6015 236.592 82.1497 238.268 83.0834 239.732C84.0171 241.195 85.3058 242.398 86.8297 243.23C89.9397 244.99 94.4897 245 97.7397 244.58C104.59 243.7 108.63 241.91 117.48 241.77C120.735 241.799 123.935 242.612 126.81 244.14C131.18 246.56 134.44 249.31 138.27 251.36C143.54 254.18 152.9 252.89 156.14 249.64C159.61 246.17 160.39 240.95 157.29 234.41C150.38 219.88 137.52 205.73 119.47 207.71Z" fill="#F6B9D5"/>
<path d="M227.47 151.9C232.31 149.1 239.14 153.03 249.47 153.33C268.68 153.9 283.82 158.02 295.01 163.24C306.2 168.46 308.32 165.75 312.96 170.05C317.6 174.35 312.46 179.44 312.96 188.33C313.75 203.33 311.45 214.64 307.42 222.85C300.31 237.36 305 243.09 299.8 245.37C294.27 247.8 292.52 242.9 282.35 243.46C258.29 244.79 241.79 241.17 225.99 231.46C219.82 227.67 215.32 230.26 212.04 225.39C210.4 222.95 213.59 219.79 213.3 209.94C212.81 193.57 216.15 176.49 222.06 165.72C224.6 161 222.55 154.75 227.47 151.9Z" fill="#F6B9D5"/>
<path opacity="0.3" d="M227.47 151.9C232.31 149.1 239.14 153.03 249.47 153.33C268.68 153.9 283.82 158.02 295.01 163.24C306.2 168.46 308.32 165.75 312.96 170.05C317.6 174.35 312.46 179.44 312.96 188.33C313.75 203.33 311.45 214.64 307.42 222.85C300.31 237.36 305 243.09 299.8 245.37C294.27 247.8 292.52 242.9 282.35 243.46C258.29 244.79 241.79 241.17 225.99 231.46C219.82 227.67 215.32 230.26 212.04 225.39C210.4 222.95 213.59 219.79 213.3 209.94C212.81 193.57 216.15 176.49 222.06 165.72C224.6 161 222.55 154.75 227.47 151.9Z" fill="black"/>
<path opacity="0.2" d="M311.4 181.44C309.85 189.53 313.2 195.38 309.4 210.68C305.77 225.37 300.97 231.2 300.61 237.22C300.31 242.22 298.27 245.42 295.43 241.02C292.59 236.62 290.19 221.44 293.56 206.02C297.43 188.23 301.45 180.27 304.84 176.38C310.17 170.25 312.61 175.08 311.4 181.44Z" fill="black"/>
<path opacity="0.2" d="M255.61 242.24C262.97 243.71 271.35 244.07 282.31 243.46C286.047 243.224 289.79 243.846 293.25 245.28C288.66 242.7 286.14 237.8 279.61 238.42C274.87 238.86 264.56 242.77 255.61 242.24ZM212.89 226.49C216.08 229.85 220.32 228.01 225.95 231.49C230.872 234.622 236.099 237.249 241.55 239.33C234.83 235.71 232.55 229.82 227.61 228.18C221.64 226.19 217.76 229 212.89 226.49Z" fill="black"/>
<path opacity="0.3" d="M240 160.89C253.07 157.68 270.58 157.78 283.07 163.29C285.47 164.46 289.78 167.58 290.68 170.29C291.295 171.913 291.49 173.666 291.245 175.385C291 177.104 290.324 178.733 289.28 180.12C287.17 183.01 283.03 184.89 279.9 185.85C273.3 187.85 266.58 187.16 257.95 190.18C255.49 191.04 250.35 194.42 248.36 197.11C245.36 201.11 243.54 204.97 240.9 208.42C237.27 213.17 228.22 215.86 223.9 214.24C219.3 212.51 216.44 208.08 216.57 200.84C216.91 184.74 222.78 166.53 240 160.89Z" fill="#F6B9D5"/>
<path opacity="0.1" d="M195.49 182.44C192.49 170.62 189.21 157.07 177.49 151.03C174.32 148.47 171.41 145.45 167.08 145.11C155.056 142.966 142.662 144.806 131.78 150.35C128.61 151.763 125.787 153.851 123.51 156.47C113.51 162.87 112.02 175.38 113.26 186.33C114.557 200.967 118.362 215.273 124.51 228.62C127.35 234.79 130.72 240.82 132.17 247.47C133.89 255.36 132.83 263.81 135.6 271.4C142.09 288.4 161.85 293.31 176.6 300.95C181.71 303.34 186.35 309.12 181.23 313.52C171.93 321.42 158.61 309.99 148.44 314.52C144.68 316.17 142.08 319.67 138.58 321.82C134.39 324.4 129.05 324.96 125.3 328.16C120.08 332.63 119.8 340.48 120.02 347.35C120.16 351.62 121.02 356.88 125.11 358.17C129.2 359.46 132.97 355.61 136.02 352.55C146.64 342.13 164.02 336.24 178.36 341.39C179.57 342.39 179.85 344.14 180.09 345.71C181.63 358.04 192.95 363.36 197.64 349.89C198.71 346.06 198.56 341.97 199.64 338.15C202.04 329.85 209.99 324.21 218.24 321.64C226.49 319.07 235.24 318.92 243.82 317.72C259.08 315.45 285.73 307.33 293.61 293.38C297.01 286.43 295.14 277.79 290.7 271.45C280.23 257.56 257.3 248.27 241.3 241.75C231.84 238.22 221.67 235.12 214.78 227.75C210.88 223.58 208.34 218.33 206.07 213.08C201.789 203.143 198.253 192.901 195.49 182.44Z" fill="black"/>
<path d="M184.24 343.9C188 357.16 193.96 360.78 198.61 358.25C201.36 356.75 202.43 352.52 203.9 348.59C205.897 343.712 208.497 339.102 211.64 334.87C215.13 330.16 218.09 325.87 224.23 321.95C225.1 321.438 226.002 320.98 226.93 320.58C230.42 319.03 238.71 315.71 245.1 312.52L232.83 291.52C229.923 294.384 226.833 297.056 223.58 299.52C221.93 300.47 220.99 300.76 218.13 300.2C214.62 299.51 210.49 299.04 206.84 301.83C203.19 304.62 204.17 308.05 200.67 313.24C197.17 318.43 189.55 324.24 185.95 328.5C182.35 332.76 183.26 340.44 184.24 343.9Z" fill="#FFA8A7"/>
<path d="M221.24 300.36L221.65 300.29C221.24 299.61 219.18 300.19 218.1 299.98C214.6 299.28 210.29 298.89 206.64 301.69C202.99 304.49 203.84 307.93 200.35 313.12C196.86 318.31 189.21 324 185.61 328.26C182.01 332.52 183 340.49 184 344C187.76 357.26 194.07 361.17 198.71 358.64C201.47 357.14 202.71 352.64 204.21 348.72C206.151 343.843 208.705 339.232 211.81 335C215.31 330.29 218.38 326.19 224.52 322.26C224.84 322.06 226.52 321.4 226.27 320.89L225.92 321.06C220.46 317.14 218.75 302.83 221.24 300.36Z" fill="#F6B9D5"/>
<path opacity="0.15" d="M183.19 339.77C183.334 341.201 183.606 342.617 184 344C187.76 357.26 194.07 361.17 198.71 358.64C200.27 357.8 201.35 356 202.26 353.89C201.63 349.67 199.26 345.69 194.59 341.04C190.22 336.68 185.48 336 183.19 339.77Z" fill="black"/>
<path opacity="0.15" d="M218.1 300C214.6 299.3 210.29 298.91 206.64 301.71C203.56 304.06 203.64 306.89 201.7 310.81C210.14 310.3 215.21 305.37 218.1 300Z" fill="black"/>
<path d="M293.91 263C288.27 256.47 281.03 248.43 262.07 239.81C242.15 230.75 225.41 226.19 223.36 221.97L143 236.94L204 270.66L244.34 281.12L228.11 294C228.52 303.94 240.68 315.36 240.68 315.36C252.27 310.78 260.02 308.79 280.49 299.46C287.029 296.46 293.749 290.58 296.49 283.27C298.27 278.71 299.54 269.54 293.91 263Z" fill="#455A64"/>
<path d="M217.84 256.72L211.53 257.13C231.53 271.31 251.77 284.79 257.68 295.3C259.86 299.09 261.005 303.387 261 307.76C262.82 307.05 264.68 306.33 266.66 305.49C266.618 301.178 265.467 296.949 263.32 293.21C257.44 282.7 237.88 270.89 217.84 256.72Z" fill="#37474F"/>
<path d="M252.13 271.67C245.35 275.39 244.85 275.06 241.63 272.67C238.41 270.28 217.84 256.73 217.84 256.73C222.24 249.73 223.9 243.1 222.37 236.56L215.74 235.27L204 270.66L244.34 281.12C248.11 278.21 254.64 272.91 260.43 270.68C264.028 269.225 267.975 268.86 271.78 269.63C265.37 267.12 258.92 268 252.13 271.67Z" fill="#37474F"/>
<path d="M126.13 342.46C125.04 356.2 129.37 361.67 134.61 360.91C137.71 360.46 140.19 356.91 142.94 353.7C146.494 349.817 150.526 346.4 154.94 343.53C159.86 340.33 164.12 337.34 171.24 335.8C172.23 335.616 173.233 335.502 174.24 335.46C178.05 335.21 186.98 334.98 194.08 334.22L189.69 309.52C186.76 310.86 179.96 314.23 178.45 314.52C176.57 314.83 175.59 314.78 173.1 313.25C170.1 311.39 166.34 309.51 161.95 310.86C157.56 312.21 157.28 315.76 152.2 319.4C147.12 323.04 137.94 325.85 133.09 328.59C128.24 331.33 126.41 338.87 126.13 342.46Z" fill="#FFA8A7"/>
<path d="M176 314.52C176.135 314.552 176.271 314.576 176.41 314.59C176.26 313.81 174.13 313.64 173.19 313.06C170.19 311.2 166.24 309.33 161.85 310.68C157.46 312.03 157.05 315.56 151.98 319.2C146.91 322.84 137.74 325.53 132.89 328.27C128.04 331.01 126.15 338.82 125.89 342.41C124.8 356.15 129.36 362.01 134.59 361.25C137.69 360.81 140.45 357.03 143.2 353.86C146.73 349.981 150.738 346.567 155.13 343.7C160.05 340.5 164.35 337.7 171.48 336.18C171.85 336.1 173.62 336.06 173.6 335.51H173.21C169.4 330 172.78 316 176 314.52Z" fill="#F6B9D5"/>
<path opacity="0.15" d="M126.58 338.22C126.211 339.592 125.964 340.994 125.84 342.41C124.75 356.15 129.31 362.01 134.54 361.25C136.29 361 137.93 359.69 139.54 358.03C140.41 353.85 139.54 349.29 136.82 343.32C134.25 337.77 130 335.5 126.58 338.22Z" fill="black"/>
<path opacity="0.15" d="M173.16 313.06C170.16 311.2 166.21 309.33 161.82 310.68C158.12 311.81 157.24 314.5 154.02 317.5C162.11 320 168.57 317.11 173.16 313.06Z" fill="black"/>
<path d="M257.68 295.3C251.77 284.79 231.57 271.3 211.53 257.13C211.53 257.13 225.14 244.72 223.67 225.68L143 236.94C143.48 253.01 145.38 258.12 149 266.26C152 272.98 161.7 283 172.11 288.69C178.59 292.24 192.37 299.01 201.86 303.62L187.26 309C182.64 322.21 191.4 335.37 191.4 335.37C206.08 333.37 212.74 333.87 234.67 328.8C246.23 326.13 252.52 323.67 256.04 320.15C260.81 315.43 263.6 305.82 257.68 295.3Z" fill="#455A64"/>
<path d="M204 300.12C202.52 300.51 199.72 301.48 198.32 301.96C201.45 303.47 201.84 303.62 201.84 303.62C208.98 301.42 213.78 299.39 219.09 299.74C215.06 298 212.08 298 204 300.12Z" fill="#37474F"/>
<path d="M205.72 114.89C205.191 112.792 204.309 110.8 203.11 109C201.963 107.435 200.918 105.798 199.98 104.1C199.563 103.262 199.276 102.365 199.13 101.44C199.08 100.951 199.08 100.459 199.13 99.97C199.25 97.34 199.46 94.61 198.53 92.1C196.78 86.97 190.73 79.38 177.34 77.24C166.34 75.48 156.45 88.54 146.04 90.88C140.2 91.88 134.99 98.04 134.72 104.18C134.45 110.32 134.72 112.63 132.49 116.18C130.26 119.73 127.14 121.08 125.59 124.33C124.17 127.05 124.05 130.76 126.27 132.88C125.27 130.32 126.07 127.6 128.87 125.75C128.332 126.971 128.065 128.294 128.086 129.628C128.106 130.962 128.415 132.276 128.99 133.48C129.475 134.468 130.013 135.429 130.6 136.36C130.774 136.696 130.86 137.071 130.85 137.45C130.849 138.26 130.639 139.056 130.24 139.76C129.604 140.786 128.892 141.762 128.11 142.68C126.46 144.88 125.39 147.95 126.71 150.37C127.71 152.12 129.71 153.15 130.48 154.98C131.69 157.83 129.42 161.15 130.24 164.13C130.99 166.85 133.97 168.26 136.71 168.93C138.657 169.516 140.719 169.605 142.71 169.19C145.17 168.54 147.17 166.68 149.62 165.97C153.45 164.86 157.42 166.72 161.33 167.46C165.99 168.34 171.33 167.32 174.25 163.56C175.25 162.28 175.91 160.71 177.25 159.87C178.673 159.182 180.283 158.985 181.83 159.31C186.4 159.85 191.33 161.01 195.39 158.83C196.91 157.986 198.163 156.733 199.006 155.213C199.849 153.693 200.249 151.966 200.16 150.23C200.03 148.17 199.16 146.23 199.07 144.17C199.023 143.552 199.185 142.935 199.53 142.42C199.847 142 200.118 141.547 200.34 141.07C200.423 140.51 200.395 139.939 200.26 139.39C200.13 138.07 199.99 136.76 199.86 135.45C199.705 134.228 199.705 132.992 199.86 131.77C200.47 127.77 204.2 124.95 205.53 121.13C206.189 119.111 206.255 116.945 205.72 114.89Z" fill="#263238"/>
<path d="M184.46 146.37C199.25 145.25 212.46 148.44 219.3 156.19C226.14 163.94 236.62 186.41 236.62 186.41L229.56 217.3C229.56 217.3 223.5 216.46 214.7 208.66C205.9 200.86 184.46 146.37 184.46 146.37Z" fill="#F6B9D5"/>
<path opacity="0.15" d="M184.46 146.37C199.25 145.25 212.46 148.44 219.3 156.19C226.14 163.94 236.62 186.41 236.62 186.41L229.56 217.3C229.56 217.3 223.5 216.46 214.7 208.66C205.9 200.86 184.46 146.37 184.46 146.37Z" fill="black"/>
<path d="M132.13 154.81C124.36 157.7 127.73 169.36 130.13 191.01C131.13 199.7 134.76 219.41 137.68 235.26C139.11 243.01 140.12 248.63 144.2 251.34C144.2 251.34 155.85 262.27 189.2 252.13C215.07 244.26 224.28 223.13 224.28 223.13C225.83 214.06 216.41 211.07 214.07 191.13C221.41 177.27 212.23 168.58 206.36 161.64C197.96 151.69 189.29 147.89 186.58 147.03C180.22 145.03 156.06 146.38 144.89 150.15C141.06 151.43 133.91 154.15 132.13 154.81Z" fill="#37474F"/>
<path d="M195 105.06C193.91 109.17 194.8 112.18 193.36 116.18C192.84 117.64 160.01 135.05 154.12 138.56C154.12 138.56 148.3 128.56 143.85 123.42C137.17 115.68 131.61 95.31 146.1 90.75C146.1 90.75 146.54 83.13 157.88 78.75C175.12 72 201.48 80.36 195 105.06Z" fill="#263238"/>
<path d="M190.12 94.8C190.12 94.8 196.33 99.44 195.32 119.38C194.71 131.62 191.39 137.61 187.37 139.97C184.95 141.38 178.93 141.83 175.16 141.41C175.16 141.41 175.09 143.02 175.01 144.56C174.91 146.46 177.34 146.46 178.85 146.48C178.85 146.48 194.85 159.39 176.77 163.78C166.41 166.29 157.05 158.37 144.87 150.15C149.1 148.35 150.43 147.38 150.95 143.38C151.87 136.19 151.95 127.38 151.95 127.38C151.95 127.38 149.03 131.04 144.68 127.54C139.77 123.54 138.9 115.98 142.83 112.84C147.62 109.02 151.54 112.16 153.28 115.67C154.87 118.88 158.02 118.92 158.81 114.87C159.93 109.09 158.81 98.63 163.89 96.82C170.2 94.58 181.44 105.47 190.12 94.8Z" fill="#FFA8A7"/>
<path d="M160.17 120.86C160.28 122.86 162.69 124.36 165.56 124.2C168.43 124.04 170.65 122.29 170.56 120.29C170.47 118.29 168.04 116.79 165.18 116.95C162.32 117.11 160.06 118.86 160.17 120.86Z" fill="#F28F8F"/>
<path d="M189.51 119.59C189.62 121.59 192.03 123.09 194.9 122.93C197.77 122.77 199.99 121.02 199.9 119.02C199.81 117.02 197.38 115.52 194.52 115.68C191.66 115.84 189.4 117.59 189.51 119.59Z" fill="#F28F8F"/>
<path d="M173.77 126.43L181.13 128.09C181.044 128.582 180.86 129.051 180.589 129.47C180.318 129.89 179.965 130.25 179.552 130.53C179.138 130.81 178.673 131.004 178.183 131.1C177.693 131.196 177.189 131.193 176.7 131.09C175.708 130.836 174.851 130.211 174.306 129.344C173.761 128.477 173.569 127.434 173.77 126.43Z" fill="#B16668"/>
<path d="M172.54 107.12L167.43 109.67C167.246 109.345 167.13 108.987 167.089 108.616C167.048 108.245 167.084 107.869 167.193 107.513C167.303 107.156 167.484 106.825 167.726 106.541C167.968 106.257 168.265 106.025 168.6 105.86C169.293 105.524 170.089 105.468 170.822 105.702C171.555 105.937 172.171 106.444 172.54 107.12Z" fill="#263238"/>
<path d="M187.05 105.88L192.11 108.54C192.3 108.22 192.423 107.864 192.471 107.494C192.52 107.124 192.492 106.749 192.39 106.39C192.288 106.032 192.114 105.698 191.878 105.409C191.642 105.12 191.35 104.882 191.02 104.71C190.334 104.358 189.54 104.283 188.801 104.501C188.062 104.719 187.435 105.212 187.05 105.88Z" fill="#263238"/>
<path d="M179.11 110.4L179.79 123.4L187.15 120.64L179.11 110.4Z" fill="#F28F8F"/>
<path d="M155.25 129.19C155.25 129.19 155 136.06 159.36 139.46C164.51 143.46 171.98 144.19 175.02 144.29L175.16 141.41C171.85 141 165.16 140.12 161.1 137.51C159.604 136.601 158.312 135.393 157.305 133.961C156.299 132.529 155.599 130.905 155.25 129.19Z" fill="#F28F8F"/>
<path d="M169.6 114.33C169.52 115.52 170.9 116.65 172.65 116.47C173.351 116.465 174.022 116.184 174.518 115.688C175.014 115.192 175.295 114.521 175.3 113.82C174.963 114.246 174.537 114.592 174.051 114.834C173.566 115.076 173.032 115.208 172.49 115.22C171.973 115.273 171.451 115.222 170.954 115.069C170.458 114.916 169.997 114.665 169.6 114.33Z" fill="#263238"/>
<path d="M186 113.71C185.92 114.9 187.3 116.03 189.05 115.85C189.751 115.845 190.422 115.564 190.918 115.068C191.414 114.572 191.695 113.901 191.7 113.2C191.363 113.626 190.937 113.972 190.451 114.214C189.965 114.456 189.432 114.588 188.89 114.6C188.373 114.654 187.851 114.603 187.354 114.45C186.858 114.297 186.397 114.045 186 113.71Z" fill="#263238"/>
<path d="M173.92 128.52C174.213 128.495 174.507 128.495 174.8 128.52C175.616 128.579 176.408 128.825 177.114 129.24C177.82 129.654 178.421 130.226 178.87 130.91C178.184 131.199 177.425 131.265 176.7 131.1C176.053 130.946 175.457 130.628 174.97 130.176C174.483 129.724 174.121 129.153 173.92 128.52Z" fill="#F28F8F"/>
<path d="M132.13 154.81C120.4 160.41 118.47 170.6 122.67 186.28C126.16 199.33 133.12 220.28 138.36 229.28C142.61 236.58 146.54 238.96 148.45 239.47L160.76 207.71L152.76 180.03C152.76 180.03 145.72 155.21 132.13 154.81Z" fill="#F6B9D5"/>
<path opacity="0.15" d="M157.7 197.09L155.7 189.99C152.12 194.77 148.21 200.81 146.07 203.99C143.24 208.27 142.31 217.48 142.94 222.61C143.33 226.27 152.38 208.13 157.7 197.09Z" fill="black"/>
<path d="M202.35 169.87C200.88 172.95 200.82 176.05 204.09 183.27C206.19 187.92 212.95 205.19 220.85 212.12C228.75 219.05 234.69 218.55 237.85 216.33C241.01 214.11 242.23 201.39 240.26 194.1C238.29 186.81 234.59 184.1 228.87 177.22C223.15 170.34 217.39 163.02 214.19 164.71C210.99 166.4 202.35 169.87 202.35 169.87Z" fill="#F6B9D5"/>
<path d="M202.08 139C200.53 137.11 198.71 135 199.48 133.72C200.36 132.28 201.392 130.939 202.56 129.72C203.3 129.14 204.41 130.2 204.69 131.49C204.747 132.709 204.531 133.925 204.06 135.05L202.08 139Z" fill="#FFA8A7"/>
<path d="M204.12 133.83C206.28 132.99 208.81 134.44 209.4 137.83C209.99 141.22 212.21 150.46 209.52 152.88C208.868 153.566 207.993 154 207.052 154.102C206.111 154.205 205.164 153.97 204.38 153.44C204.38 153.44 199.55 135.63 204.12 133.83Z" fill="#E0E0E0"/>
<path d="M217.84 141.83C217.66 140.13 217.44 139.65 216.05 138.13C214.496 136.279 212.826 134.529 211.05 132.89C210.05 132.21 208.71 132.89 207.7 133.67C206.69 134.45 204.64 136.05 204.34 136.96C204.253 137.859 204.401 138.765 204.77 139.59L206.29 149.04C206.29 149.04 207.72 149.3 208.17 148.73C208 149.19 208.88 150.34 209.08 150.39L209.18 151.96C209.18 151.96 208.18 153.49 204.95 152.65C201.72 151.81 198.32 152.01 197.2 154.86C196.08 157.71 201 167.07 201 167.07C201 167.07 202 168.81 206.45 168C209.201 167.575 211.741 166.269 213.69 164.28C213.69 164.28 211.03 159.6 211.64 158.51C212.25 157.42 215.81 154.32 216.57 153.21C217.33 152.1 217.3 151.02 217.78 150.3C218.203 149.842 218.506 149.286 218.663 148.683C218.82 148.079 218.826 147.446 218.68 146.84C219.071 145.89 219.255 144.867 219.22 143.84C219.006 143.031 218.518 142.32 217.84 141.83Z" fill="#FFA8A7"/>
<path opacity="0.5" d="M213.71 151.63C212.33 151.38 211.34 149.45 210.82 148.3C210.3 147.15 209.05 147.52 208.17 148.73C208 149.19 208.88 150.34 209.08 150.39L209.18 151.96C209.18 151.96 208.18 153.49 204.95 152.65C201.72 151.81 198.32 152.01 197.2 154.86C196.08 157.71 201 167.07 201 167.07C201 167.07 202 168.81 206.45 168C209.201 167.575 211.741 166.269 213.69 164.28C213.69 164.28 211.03 159.6 211.64 158.51C212.934 156.965 214.319 155.499 215.79 154.12C216.4 153.48 215.09 151.88 213.71 151.63Z" fill="#F28F8F"/>
<path d="M215.85 140C215.555 139.97 215.275 139.859 215.04 139.68C214.79 139.52 214.56 139.35 214.32 139.18L212.94 138.18C212.069 137.493 211.106 136.931 210.08 136.51C209.624 136.327 209.119 136.306 208.65 136.45C208.173 136.696 207.732 137.005 207.34 137.37C206.48 138.1 205.68 138.92 204.81 139.69C205.464 138.734 206.196 137.834 207 137C207.41 136.551 207.889 136.169 208.42 135.87C209.044 135.63 209.735 135.63 210.36 135.87C211.469 136.32 212.486 136.971 213.36 137.79C213.8 138.16 214.22 138.57 214.62 138.98C214.961 139.396 215.378 139.742 215.85 140Z" fill="#F28F8F"/>
<path d="M215.39 143.81C215.116 143.813 214.848 143.725 214.63 143.56C214.41 143.42 214.19 143.26 213.98 143.1L212.79 142.1C212.019 141.45 211.189 140.874 210.31 140.38C209.943 140.153 209.501 140.077 209.08 140.17C208.628 140.372 208.194 140.609 207.78 140.88L205.16 142.59C205.858 141.801 206.625 141.075 207.45 140.42C207.876 140.074 208.339 139.776 208.83 139.53C209.125 139.438 209.436 139.407 209.744 139.44C210.052 139.473 210.35 139.568 210.62 139.72C211.567 140.252 212.427 140.926 213.17 141.72C213.54 142.1 213.88 142.5 214.22 142.89C214.522 143.294 214.926 143.611 215.39 143.81Z" fill="#F28F8F"/>
<path d="M214.77 147.89C214.28 147.95 213.88 147.59 213.5 147.34C213.12 147.09 212.79 146.74 212.5 146.42L211.5 145.49C211.182 145.179 210.848 144.886 210.5 144.61C209.91 144.08 209.11 144.34 208.27 144.61C207.43 144.88 206.62 145.34 205.8 145.75C206.461 145.097 207.212 144.542 208.03 144.1C208.453 143.857 208.912 143.681 209.39 143.58C209.66 143.533 209.937 143.545 210.203 143.614C210.468 143.683 210.716 143.808 210.93 143.98C211.287 144.288 211.621 144.623 211.93 144.98C212.25 145.32 212.56 145.66 212.85 145.98L213.71 146.98C213.954 147.391 214.327 147.71 214.77 147.89Z" fill="#F28F8F"/>
<path opacity="0.5" d="M219 143.24C219.051 143.42 219.066 143.608 219.043 143.794C219.02 143.98 218.96 144.159 218.867 144.321C218.774 144.483 218.649 144.625 218.5 144.738C218.351 144.852 218.181 144.934 218 144.98C217.09 145.12 218 145.98 218.66 146.84C219.051 145.89 219.236 144.867 219.2 143.84C219.158 143.633 219.091 143.431 219 143.24Z" fill="#F28F8F"/>
<path d="M209.08 150.39C209.718 150.556 210.392 150.506 211 150.25C210.306 150.314 209.609 150.168 209 149.83C208.783 149.568 208.629 149.259 208.549 148.928C208.469 148.597 208.466 148.252 208.54 147.92C208.315 148.166 208.178 148.478 208.15 148.81C208.1 149.23 208.57 150.29 209.08 150.39Z" fill="#B16668"/>
<path d="M204.47 134.24C204.045 133.693 203.527 133.226 202.94 132.86L202.66 132.7C201.611 132.117 200.466 131.727 199.28 131.55C193.03 130.55 184.74 133.71 180.74 138.62C179.972 139.54 179.376 140.59 178.98 141.72C178.98 141.82 178.91 141.93 178.88 142.04C178.69 142.689 178.616 143.366 178.66 144.04C178.82 149.62 184.6 157.45 189.77 159.83L189.92 159.89L190.17 160L190.69 160.2L190.87 160.25C191.003 160.302 191.14 160.342 191.28 160.37C191.52 160.438 191.764 160.491 192.01 160.53C194.499 160.79 197.015 160.46 199.354 159.568C201.692 158.675 203.787 157.243 205.47 155.39C205.63 155.204 205.777 155.007 205.91 154.8C206 154.67 206.08 154.54 206.16 154.41C206.24 154.28 206.21 154.33 206.23 154.28C206.33 154.112 206.42 153.938 206.5 153.76C206.539 153.693 206.573 153.623 206.6 153.55C206.6 153.5 206.65 153.44 206.68 153.38C209 148.19 208.05 138.51 204.47 134.24Z" fill="#F5F5F5"/>
<path d="M202.79 150.87C206.61 151.09 207.52 153.47 204.79 156.18C201.548 159.094 197.339 160.698 192.98 160.68C189.16 160.46 188.26 158.08 190.98 155.37C194.222 152.456 198.431 150.852 202.79 150.87Z" fill="#EBEBEB"/>
<path d="M202.35 151.41C205.79 151.57 206.59 153.66 204.13 156.07C201.174 158.672 197.377 160.117 193.44 160.14C190 159.98 189.21 157.89 191.67 155.48C194.624 152.883 198.416 151.438 202.35 151.41Z" fill="#E0E0E0"/>
<path opacity="0.1" d="M202.35 151.41C205.79 151.57 206.59 153.66 204.13 156.07C201.174 158.672 197.377 160.117 193.44 160.14C190 159.98 189.21 157.89 191.67 155.48C194.624 152.883 198.416 151.438 202.35 151.41Z" fill="black"/>
<path d="M202.35 151.41C198.416 151.438 194.624 152.883 191.67 155.48C190.57 156.56 190.12 157.57 190.27 158.37C190.7 159.07 191.7 159.52 193.27 159.6C197.203 159.572 200.995 158.127 203.95 155.53C205.05 154.45 205.49 153.44 205.35 152.64C204.89 151.94 203.88 151.48 202.35 151.41Z" fill="#E0E0E0"/>
<path d="M174.15 150.08C173.77 147.87 172.88 145.67 173.58 143.89C174.58 141.2 174.64 139.34 175.46 138.52C176.28 137.7 178.07 138.94 178.39 140.29L174.15 150.08Z" fill="#F28F8F"/>
<path d="M175.21 147.16C176.268 144.552 177.463 142.002 178.79 139.52C179.53 138.11 181.84 136.05 183.79 134.38C185.74 132.71 187.49 130.38 188.34 131.23C188.796 131.631 189.099 132.179 189.198 132.778C189.296 133.378 189.184 133.994 188.88 134.52C188.19 135.76 186.24 138.46 186.24 138.46C186.24 138.46 190.11 135.46 191.67 134.07C193.23 132.68 194.26 131.56 195.18 132.3C196.1 133.04 195.96 134.41 194.75 135.98C193.502 137.604 192.166 139.16 190.75 140.64C189.58 141.88 188.65 143.09 188.65 143.09C188.65 143.09 192.39 140.38 193.65 139.21C194.91 138.04 196.43 136.56 197 137.06C197.79 137.77 198 139.55 196.36 141.58C193.88 144.7 191.42 147.28 190.29 148.75C189.16 150.22 187.9 152.03 188.5 152.41C188.5 152.41 189.65 151.26 191.24 149.64C192.83 148.02 195.1 145.56 196.24 145.14C197.38 144.72 198.88 145.19 197.79 147.38C196.335 149.983 194.616 152.429 192.66 154.68C190.4 157.47 189.88 157.89 189.73 159.21C189.58 160.53 190.03 164.58 189.89 167.07C189.73 170.01 188.61 170.59 187.07 173.26C185.914 175.568 184.911 177.95 184.07 180.39L171.74 173.91C171.74 173.91 174.44 168.77 174.74 164.91C175.07 159.84 174.11 154.62 174.06 152.27C174.01 149.92 174.49 149.06 175.21 147.16Z" fill="#FFA8A7"/>
<path d="M174.65 164.91C174.669 160.929 174.398 156.952 173.84 153.01C173.738 152.009 173.785 150.998 173.98 150.01C174.245 149.044 174.579 148.098 174.98 147.18C175.69 145.31 176.54 143.5 177.42 141.71C177.88 140.82 178.29 139.94 178.82 139.05C179.411 138.23 180.081 137.47 180.82 136.78C182.26 135.38 183.82 134.14 185.22 132.78C185.59 132.43 185.95 132.09 186.34 131.78C186.718 131.418 187.178 131.151 187.68 131C187.824 130.978 187.973 130.993 188.109 131.046C188.246 131.099 188.367 131.186 188.46 131.3C188.638 131.487 188.792 131.695 188.92 131.92C189.176 132.376 189.294 132.898 189.26 133.42C189.212 133.933 189.033 134.426 188.74 134.85C188.48 135.27 188.2 135.69 187.92 136.1C187.35 136.91 186.77 137.72 186.17 138.52C186.74 137.7 187.29 136.87 187.83 136.04C188.444 135.272 188.863 134.366 189.05 133.4C189.073 132.923 188.955 132.45 188.71 132.04C188.45 131.67 188.14 131.16 187.71 131.27C187.259 131.424 186.849 131.677 186.51 132.01C186.14 132.33 185.79 132.68 185.44 133.01C182.68 135.87 179.11 138.01 177.78 141.93C176.9 143.71 176.04 145.5 175.33 147.35C174.935 148.25 174.601 149.176 174.33 150.12C174.137 151.081 174.08 152.063 174.16 153.04C174.3 155.04 174.55 157.04 174.66 158.99C174.794 160.961 174.791 162.939 174.65 164.91Z" fill="#B16668"/>
<path d="M186.19 138.46C185.46 139.19 184.67 139.86 183.99 140.61C183.32 141.371 182.723 142.195 182.21 143.07C181.64 143.92 181.06 144.78 180.45 145.61C180.145 146.036 179.811 146.44 179.45 146.82C179.06 147.186 178.561 147.414 178.03 147.47C179.03 147.17 179.56 146.24 180.11 145.37C180.66 144.5 181.2 143.63 181.76 142.77C182.292 141.869 182.941 141.041 183.69 140.31C184.47 139.624 185.306 139.006 186.19 138.46Z" fill="#F28F8F"/>
<path d="M188.6 143.09C187.96 143.76 187.24 144.34 186.6 144.95C186.267 145.252 185.966 145.587 185.7 145.95C185.47 146.31 185.24 146.73 185.01 147.12C184.54 147.91 184.07 148.7 183.56 149.46C183.069 150.243 182.521 150.988 181.92 151.69C182.36 150.89 182.76 150.06 183.2 149.25C183.64 148.44 184.08 147.64 184.54 146.84C184.78 146.45 185 146.06 185.28 145.66C185.583 145.281 185.937 144.945 186.33 144.66C187.05 144.07 187.82 143.58 188.6 143.09Z" fill="#F28F8F"/>
<path opacity="0.5" d="M190.24 148.75L190.64 148.26C189.168 149.598 187.844 151.09 186.69 152.71C186.11 153.62 186.1 154.05 186.35 154.21C186.6 154.37 187.43 153.42 187.43 153.42L188.43 152.42C187.85 152 189.12 150.21 190.24 148.75Z" fill="#F28F8F"/>
<path d="M188.45 152.41C187.88 153.09 187.31 153.75 186.78 154.41C186.494 154.73 186.223 155.063 185.97 155.41C185.73 155.77 185.49 156.13 185.21 156.48C185.359 156.062 185.536 155.654 185.74 155.26C185.961 154.874 186.212 154.507 186.49 154.16C187.045 153.475 187.707 152.884 188.45 152.41Z" fill="#F28F8F"/>
<path d="M186.7 142.77C186.664 142.666 186.617 142.565 186.56 142.47C186.5 142.38 186.43 142.3 186.36 142.21C186.186 142.019 185.991 141.848 185.78 141.7C185.555 141.54 185.31 141.413 185.05 141.32C184.941 141.276 184.827 141.246 184.71 141.23C184.6 141.23 184.5 141.23 184.51 141.36C184.513 141.416 184.533 141.47 184.567 141.514C184.6 141.559 184.647 141.592 184.7 141.61H184.8L184.98 141.7L185.19 141.81C185.345 141.899 185.49 142.007 185.62 142.13L185.8 142.29L185.89 142.38L185.94 142.44C186.07 142.59 186.2 142.76 186.34 142.91L186.43 143.03C186.54 143.17 186.77 143.16 186.73 142.94C186.723 142.883 186.713 142.826 186.7 142.77Z" fill="#F28F8F"/>
<path d="M185.27 142.88C185.229 142.837 185.186 142.797 185.14 142.76L185.06 142.69L184.96 142.62L184.77 142.47C184.646 142.361 184.529 142.244 184.42 142.12C184.42 142.07 184.28 142.02 184.23 142.12C184.18 142.22 184.23 142.29 184.23 142.35C184.35 142.505 184.484 142.649 184.63 142.78C184.709 142.852 184.792 142.919 184.88 142.98C184.934 143.026 184.994 143.063 185.06 143.09C185.06 143.09 185.16 143.15 185.2 143.14C185.24 143.13 185.31 143 185.27 142.88Z" fill="#F28F8F"/>
<path d="M181.33 140C181.319 139.95 181.298 139.903 181.27 139.86C181.232 139.771 181.173 139.693 181.1 139.63C181.026 139.55 180.942 139.479 180.85 139.42C180.7 139.318 180.543 139.228 180.38 139.15C180.193 139.067 179.994 139.013 179.79 138.99C179.701 138.97 179.609 138.97 179.52 138.99C179.502 138.998 179.487 139.008 179.474 139.022C179.461 139.036 179.451 139.052 179.444 139.07C179.438 139.088 179.435 139.107 179.436 139.126C179.437 139.144 179.441 139.163 179.45 139.18C179.464 139.233 179.493 139.28 179.534 139.316C179.575 139.351 179.626 139.374 179.68 139.38L179.92 139.44L180.12 139.51L180.34 139.61C180.379 139.624 180.413 139.648 180.44 139.68C180.509 139.714 180.573 139.758 180.63 139.81L180.71 139.88C180.751 139.92 180.794 139.956 180.84 139.99H180.9C180.9 139.99 180.99 140.06 181.04 140.09L181.15 140.15C181.16 140.155 181.172 140.157 181.183 140.157C181.195 140.156 181.206 140.153 181.216 140.147C181.226 140.141 181.234 140.133 181.24 140.123C181.246 140.113 181.249 140.102 181.25 140.09C181.26 140.064 181.26 140.036 181.25 140.01L181.33 140Z" fill="#F28F8F"/>
<path d="M180.57 140.58C180.57 140.49 180.41 140.45 180.33 140.42H180.2L179.99 140.36L179.81 140.31H179.72H179.59C179.56 140.305 179.53 140.305 179.5 140.31C179.44 140.31 179.41 140.37 179.42 140.43C179.42 140.463 179.429 140.496 179.444 140.526C179.46 140.555 179.482 140.581 179.51 140.6C179.682 140.692 179.863 140.766 180.05 140.82L180.25 140.88H180.34H180.4C180.449 140.895 180.501 140.895 180.55 140.88C180.562 140.848 180.562 140.812 180.55 140.78L180.57 140.58Z" fill="#F28F8F"/>
<path d="M188.39 146.74C188.032 146.591 187.696 146.396 187.39 146.16C187.05 145.89 186.82 145.52 186.5 145.24C186.44 145.18 186.38 145.24 186.37 145.31C186.383 145.589 186.501 145.853 186.7 146.05C186.857 146.229 187.027 146.396 187.21 146.55C187.563 146.849 187.986 147.056 188.44 147.15C188.462 147.154 188.484 147.154 188.506 147.148C188.528 147.143 188.548 147.133 188.566 147.118C188.583 147.104 188.597 147.086 188.606 147.065C188.615 147.045 188.62 147.022 188.62 147C188.612 146.939 188.585 146.881 188.544 146.835C188.503 146.788 188.45 146.755 188.39 146.74Z" fill="#F28F8F"/>
<path d="M187 147.37L186.87 147.27L186.54 147.01L186.08 146.61C186.02 146.55 185.91 146.51 185.85 146.61C185.79 146.71 185.85 146.8 185.91 146.87C186.07 147.065 186.244 147.249 186.43 147.42C186.508 147.492 186.592 147.559 186.68 147.62L186.81 147.73L186.91 147.81C186.979 147.844 187.053 147.867 187.13 147.88C187.24 147.88 187.26 147.76 187.24 147.68C187.201 147.55 187.116 147.44 187 147.37Z" fill="#F28F8F"/>
<path d="M191.25 153.5C191.108 153.317 190.947 153.149 190.77 153C190.579 152.833 190.367 152.692 190.14 152.58C190.039 152.528 189.931 152.491 189.82 152.47C189.64 152.47 189.64 152.66 189.75 152.76C189.843 152.826 189.939 152.886 190.04 152.94L190.29 153.1L190.39 153.17L190.58 153.34L190.67 153.43C190.728 153.486 190.778 153.55 190.82 153.62C190.926 153.795 191.053 153.957 191.2 154.1C191.26 154.16 191.41 154.22 191.44 154.1C191.451 153.884 191.383 153.671 191.25 153.5Z" fill="#F28F8F"/>
<path d="M190.45 154C190.401 153.911 190.329 153.839 190.24 153.79L190.13 153.72L189.91 153.58L189.48 153.33C189.441 153.316 189.399 153.316 189.36 153.33C189.341 153.335 189.323 153.345 189.309 153.359C189.295 153.373 189.285 153.391 189.28 153.41C189.27 153.457 189.274 153.506 189.292 153.55C189.309 153.595 189.34 153.633 189.38 153.66L189.82 153.94L190.03 154.07H190.13L190.27 154.14C190.306 154.149 190.344 154.149 190.38 154.14C190.47 154.2 190.48 154.07 190.45 154Z" fill="#F28F8F"/>
<path d="M170.08 176.76C167.64 176.59 165.69 178.98 162.16 184.5C158.63 190.02 152.61 201 149.88 205C147.96 207.8 142.28 215.86 142.76 227.1C143.07 234.1 144.69 242.53 155.62 238.99C163.62 236.4 168.75 232.86 173.8 224.38C179.19 215.31 182.17 197.82 183.72 191.38C185.27 184.94 183.26 183.09 183.26 183.09L170.08 176.76Z" fill="#F6B9D5"/>
<path d="M173 171C173 171 175.3 175.67 178.92 177.22C183.18 179.05 185.31 176.93 185.31 176.93L182.17 186.21C182.17 186.21 179.67 188.46 174.55 186.04C173.115 185.435 171.848 184.493 170.855 183.293C169.863 182.094 169.175 180.672 168.85 179.15L173 171Z" fill="#F6B9D5"/>
<path opacity="0.15" d="M173 171C173 171 175.3 175.67 178.92 177.22C183.18 179.05 185.31 176.93 185.31 176.93L182.17 186.21C182.17 186.21 179.67 188.46 174.55 186.04C173.115 185.435 171.848 184.493 170.855 183.293C169.863 182.094 169.175 180.672 168.85 179.15L173 171Z" fill="black"/>
<path d="M200.7 166.51C201.7 167.42 205.43 168.03 209.01 166.36C212.59 164.69 212.85 162.69 212.85 162.69L216.29 168.47C216.29 168.47 215.45 171.68 211.29 173.41C210.115 173.922 208.836 174.152 207.556 174.081C206.276 174.01 205.031 173.64 203.92 173L200.7 166.51Z" fill="#F6B9D5"/>
<path opacity="0.15" d="M200.7 166.51C201.7 167.42 205.43 168.03 209.01 166.36C212.59 164.69 212.85 162.69 212.85 162.69L216.29 168.47C216.29 168.47 215.45 171.68 211.29 173.41C210.115 173.922 208.836 174.152 207.556 174.081C206.276 174.01 205.031 173.64 203.92 173L200.7 166.51Z" fill="black"/>
<path d="M290 404.49C290.049 404.059 290.209 403.647 290.465 403.297C290.721 402.946 291.064 402.668 291.46 402.49C292.552 401.936 293.76 401.647 294.985 401.647C296.21 401.647 297.418 401.936 298.51 402.49C298.909 402.664 299.255 402.94 299.511 403.292C299.768 403.643 299.926 404.057 299.97 404.49L298.51 441.22C298.475 441.52 298.365 441.806 298.19 442.053C298.016 442.299 297.782 442.498 297.51 442.63C296.735 443.023 295.879 443.227 295.01 443.227C294.141 443.227 293.285 443.023 292.51 442.63C292.236 442.502 291.999 442.304 291.824 442.057C291.648 441.81 291.54 441.521 291.51 441.22L290 404.49Z" fill="#455A64"/>
<path d="M298.47 402.46C297.378 401.906 296.17 401.617 294.945 401.617C293.72 401.617 292.512 401.906 291.42 402.46C291.024 402.638 290.681 402.916 290.425 403.267C290.169 403.617 290.009 404.029 289.96 404.46L290.45 416.65C293.099 419.318 296.018 421.704 299.16 423.77L299.93 404.46C299.884 404.028 299.725 403.615 299.469 403.264C299.212 402.913 298.868 402.635 298.47 402.46Z" fill="#263238"/>
<path d="M444.76 404.49C444.713 404.058 444.554 403.646 444.297 403.295C444.041 402.944 443.697 402.666 443.3 402.49C442.215 401.942 441.016 401.656 439.8 401.656C438.584 401.656 437.385 401.942 436.3 402.49C435.901 402.664 435.555 402.94 435.299 403.292C435.042 403.643 434.884 404.057 434.84 404.49L436.3 441.22C436.335 441.52 436.445 441.806 436.62 442.053C436.794 442.299 437.028 442.498 437.3 442.63C438.075 443.023 438.931 443.227 439.8 443.227C440.669 443.227 441.525 443.023 442.3 442.63C442.571 442.498 442.805 442.299 442.98 442.053C443.155 441.806 443.265 441.52 443.3 441.22L444.76 404.49Z" fill="#455A64"/>
<path d="M443.3 402.45C442.215 401.902 441.016 401.616 439.8 401.616C438.584 401.616 437.385 401.902 436.3 402.45C435.901 402.624 435.555 402.9 435.299 403.252C435.042 403.603 434.884 404.017 434.84 404.45L435.62 424.16C438.727 422.192 441.631 419.921 444.29 417.38L444.8 404.45C444.749 404.014 444.584 403.599 444.32 403.247C444.057 402.896 443.705 402.621 443.3 402.45Z" fill="#263238"/>
<path d="M372.77 432.06C372.725 431.627 372.567 431.214 372.31 430.863C372.054 430.512 371.709 430.234 371.31 430.06C370.224 429.515 369.025 429.231 367.81 429.231C366.595 429.231 365.396 429.515 364.31 430.06C363.912 430.234 363.567 430.512 363.31 430.863C363.054 431.214 362.895 431.627 362.85 432.06L364.31 468.79C364.344 469.089 364.454 469.375 364.629 469.62C364.804 469.865 365.038 470.061 365.31 470.19C366.084 470.587 366.941 470.795 367.81 470.795C368.68 470.795 369.537 470.587 370.31 470.19C370.583 470.062 370.819 469.867 370.994 469.621C371.169 469.376 371.278 469.09 371.31 468.79L372.77 432.06Z" fill="#455A64"/>
<path d="M372.31 443.61L372.77 432.06C372.727 431.627 372.569 431.213 372.313 430.861C372.056 430.509 371.71 430.233 371.31 430.06C370.224 429.515 369.025 429.231 367.81 429.231C366.595 429.231 365.396 429.515 364.31 430.06C363.912 430.234 363.567 430.512 363.31 430.863C363.054 431.214 362.895 431.627 362.85 432.06L363.31 443.61C366.2 443.72 369.38 443.72 372.31 443.61Z" fill="#263238"/>
<path d="M457.11 378.48H457C457 365.28 448.37 352.09 430.92 342.02C396.04 321.88 339.48 321.88 304.6 342.02C287.16 352.09 278.51 365.28 278.52 378.48H278.44V385.57C278.65 398.57 287.38 411.57 304.6 421.52C339.48 441.66 396.04 441.66 430.92 421.52C448.14 411.58 456.92 398.59 457.08 385.57L457.11 378.48Z" fill="#F6B9D5"/>
<path opacity="0.25" d="M457.11 378.48H457C457 365.28 448.37 352.09 430.92 342.02C396.04 321.88 339.48 321.88 304.6 342.02C287.16 352.09 278.51 365.28 278.52 378.48H278.44V385.57C278.65 398.57 287.38 411.57 304.6 421.52C339.48 441.66 396.04 441.66 430.92 421.52C448.14 411.58 456.92 398.59 457.08 385.57L457.11 378.48Z" fill="black"/>
<path d="M304.63 342C269.75 362.13 269.75 394.79 304.63 414.93C339.51 435.07 396.07 435.07 430.95 414.93C465.83 394.79 465.84 362.14 430.95 342C396.06 321.86 339.51 321.88 304.63 342Z" fill="#F6B9D5"/>
<path opacity="0.2" d="M425.44 350.81C438.72 358.48 438.72 370.92 425.44 378.59C412.16 386.26 390.62 386.25 377.34 378.59C364.06 370.93 364.05 358.48 377.34 350.81C390.63 343.14 412.16 343.14 425.44 350.81Z" fill="black"/>
<path d="M441.31 317.68C437.19 315.44 430.71 317.14 426.02 326.56L428.02 328.02L422.79 324.37C427.87 314.15 434.94 313.18 439.06 316.14C439.67 316.58 440.6 317.21 441.31 317.68Z" fill="#F6B9D5"/>
<path opacity="0.7" d="M441.31 317.68C437.19 315.44 430.71 317.14 426.02 326.56L428.02 328.02L422.79 324.37C427.87 314.15 434.94 313.18 439.06 316.14C439.67 316.58 440.6 317.21 441.31 317.68Z" fill="white"/>
<path d="M441.52 328.12C439.81 332.07 433.66 338.5 432.52 343.26L433.33 346.88L429.33 341.06C430.49 336.31 436.64 329.87 438.33 325.93C439.57 323.08 439.33 320.73 438.47 319.17C439.165 319.257 439.828 319.515 440.4 319.92C442.2 321.2 443.22 324.18 441.52 328.12Z" fill="#F6B9D5"/>
<path opacity="0.4" d="M441.52 328.12C439.81 332.07 433.66 338.5 432.52 343.26L433.33 346.88L429.33 341.06C430.49 336.31 436.64 329.87 438.33 325.93C439.57 323.08 439.33 320.73 438.47 319.17C439.165 319.257 439.828 319.515 440.4 319.92C442.2 321.2 443.22 324.18 441.52 328.12Z" fill="white"/>
<path d="M442.59 330.8C440.66 334.02 434.81 341.8 433.31 346.88L432.5 343.26C433.66 338.5 439.81 332.07 441.5 328.12C443.19 324.17 442.179 321.2 440.329 319.92C439.758 319.515 439.095 319.257 438.4 319.17C435.35 318.75 431.4 321.44 428 328.02L426 326.56C430.69 317.14 437.17 315.44 441.29 317.68C441.619 317.856 441.93 318.064 442.22 318.3C446.29 321.46 444.78 327.13 442.59 330.8Z" fill="#F6B9D5"/>
<path opacity="0.55" d="M442.59 330.8C440.66 334.02 434.81 341.8 433.31 346.88L432.5 343.26C433.66 338.5 439.81 332.07 441.5 328.12C443.19 324.17 442.179 321.2 440.329 319.92C439.758 319.515 439.095 319.257 438.4 319.17C435.35 318.75 431.4 321.44 428 328.02L426 326.56C430.69 317.14 437.17 315.44 441.29 317.68C441.619 317.856 441.93 318.064 442.22 318.3C446.29 321.46 444.78 327.13 442.59 330.8Z" fill="white"/>
<path d="M419.139 351.9C428.839 357.5 428.839 366.59 419.139 372.19C409.439 377.79 393.699 377.79 383.999 372.19C374.299 366.59 374.289 357.5 383.999 351.9C393.709 346.3 409.429 346.3 419.139 351.9Z" fill="#F6B9D5"/>
<path opacity="0.4" d="M419.139 351.9C428.839 357.5 428.839 366.59 419.139 372.19C409.439 377.79 393.699 377.79 383.999 372.19C374.299 366.59 374.289 357.5 383.999 351.9C393.709 346.3 409.429 346.3 419.139 351.9Z" fill="white"/>
<path d="M433.6 345.73C433.6 363.42 419.26 373.25 401.6 373.25C383.94 373.25 369.6 363.42 369.6 345.73C369.6 337.234 372.975 329.085 378.982 323.078C384.99 317.07 393.138 313.695 401.635 313.695C410.131 313.695 418.279 317.07 424.287 323.078C430.295 329.085 433.67 337.234 433.67 345.73H433.6Z" fill="#F6B9D5"/>
<path opacity="0.8" d="M433.6 345.73C433.6 363.42 419.26 373.25 401.6 373.25C383.94 373.25 369.6 363.42 369.6 345.73C369.6 337.234 372.975 329.085 378.982 323.078C384.99 317.07 393.138 313.695 401.635 313.695C410.131 313.695 418.279 317.07 424.287 323.078C430.295 329.085 433.67 337.234 433.67 345.73H433.6Z" fill="white"/>
<path opacity="0.15" d="M401.57 338.41C412.81 338.41 421.93 333.11 421.93 326.57C421.901 325.148 421.475 323.762 420.7 322.57C420.33 322.27 419.95 321.97 419.54 321.68C410.21 315.29 400.54 313.86 391.54 316.31C385.39 318.31 381.23 322.18 381.23 326.59C381.2 333.11 390.32 338.41 401.57 338.41Z" fill="#F6B9D5"/>
<path d="M419 320.7L418.58 320.21C416.469 317.771 413.859 315.815 410.926 314.474C407.992 313.133 404.805 312.439 401.58 312.439C398.354 312.439 395.167 313.133 392.234 314.474C389.3 315.815 386.69 317.771 384.58 320.21L384.16 320.7C380.85 324.82 382.16 329.85 388.01 333.24C395.51 337.57 407.7 337.57 415.2 333.24C421 329.85 422.32 324.82 419 320.7Z" fill="#F6B9D5"/>
<path opacity="0.8" d="M419 320.7L418.58 320.21C416.469 317.771 413.859 315.815 410.926 314.474C407.992 313.133 404.805 312.439 401.58 312.439C398.354 312.439 395.167 313.133 392.234 314.474C389.3 315.815 386.69 317.771 384.58 320.21L384.16 320.7C380.85 324.82 382.16 329.85 388.01 333.24C395.51 337.57 407.7 337.57 415.2 333.24C421 329.85 422.32 324.82 419 320.7Z" fill="white"/>
<path d="M405.16 313.52C405.111 314.441 404.711 315.308 404.042 315.942C403.373 316.577 402.487 316.93 401.565 316.93C400.643 316.93 399.756 316.577 399.087 315.942C398.418 315.308 398.018 314.441 397.97 313.52C397.97 311.52 401.09 307.52 401.57 307.52C402.05 307.52 405.16 311.53 405.16 313.52Z" fill="#F6B9D5"/>
<path opacity="0.2" d="M405.05 312.78C404.998 313.456 404.69 314.088 404.189 314.544C403.688 315.001 403.031 315.249 402.352 315.238C401.674 315.226 401.026 314.956 400.54 314.483C400.055 314.009 399.768 313.368 399.74 312.69C399.74 311.22 400.8 308.15 401.57 307.48C401.09 307.48 397.97 311.48 397.97 313.48C397.971 313.839 398.025 314.196 398.13 314.54C398.359 315.271 398.816 315.91 399.434 316.364C400.052 316.818 400.798 317.063 401.565 317.063C402.331 317.063 403.078 316.818 403.696 316.364C404.313 315.91 404.77 315.271 405 314.54C405.105 314.196 405.159 313.839 405.16 313.48C405.151 313.243 405.114 313.008 405.05 312.78Z" fill="black"/>
<path opacity="0.15" d="M404.6 318.72C403.75 318.93 405.42 322.04 407.22 327.56C408.16 330.48 408.67 334.66 413.42 332.34C417.8 330.19 414.13 325.14 410.74 321.91C407.73 319 405.51 318.49 404.6 318.72Z" fill="#F6B9D5"/>
<path opacity="0.15" d="M405.38 316.81C405.83 317.04 408.57 317.41 412.99 321.53C415.36 323.75 417.21 326.53 418.09 326.91C418.97 327.29 419.59 323.39 418.09 321.45C416.234 319.062 413.716 317.274 410.85 316.31C407.79 315.39 404.64 316.43 405.38 316.81Z" fill="#F6B9D5"/>
<path opacity="0.15" d="M401.57 335.11C397 335.11 396.23 334.29 397.99 326.93C398.92 323.06 400.79 319.15 401.57 319.15C402.35 319.15 404.21 323.06 405.14 326.93C406.9 334.29 406.13 335.11 401.57 335.11Z" fill="#F6B9D5"/>
<path opacity="0.15" d="M398.53 318.72C399.38 318.93 397.71 322.04 395.91 327.56C394.97 330.48 394.46 334.66 389.71 332.34C385.33 330.19 389 325.14 392.39 321.91C395.4 319 397.62 318.49 398.53 318.72Z" fill="#F6B9D5"/>
<path opacity="0.15" d="M397.749 316.81C397.299 317.04 394.559 317.41 390.139 321.53C387.769 323.75 385.919 326.53 385.039 326.91C384.159 327.29 383.539 323.39 385.039 321.45C386.895 319.062 389.413 317.274 392.279 316.31C395.339 315.39 398.489 316.43 397.749 316.81Z" fill="#F6B9D5"/>
<path d="M374.69 341.8C377.95 343.53 381.79 348.85 382.33 354.17C382.87 359.49 380.33 362.43 377.03 363.56C373.73 364.69 366.53 364.08 362.75 361.03C358.75 357.8 358.89 355.57 356.83 354.7C354.77 353.83 353.75 355.04 353.68 352.25C353.691 350.653 354.269 349.111 355.311 347.901C356.354 346.69 357.792 345.889 359.37 345.64C362.21 345.11 363.49 346.64 365.1 348.64C366.23 350.07 366.85 351.25 367.81 351.31C368.77 351.37 369.63 350.71 370.17 348.05C370.71 345.39 372.1 342.47 374.69 341.8Z" fill="#F6B9D5"/>
<path opacity="0.7" d="M374.69 341.8C377.95 343.53 381.79 348.85 382.33 354.17C382.87 359.49 380.33 362.43 377.03 363.56C373.73 364.69 366.53 364.08 362.75 361.03C358.75 357.8 358.89 355.57 356.83 354.7C354.77 353.83 353.75 355.04 353.68 352.25C353.691 350.653 354.269 349.111 355.311 347.901C356.354 346.69 357.792 345.889 359.37 345.64C362.21 345.11 363.49 346.64 365.1 348.64C366.23 350.07 366.85 351.25 367.81 351.31C368.77 351.37 369.63 350.71 370.17 348.05C370.71 345.39 372.1 342.47 374.69 341.8Z" fill="white"/>
<path opacity="0.3" d="M362.23 347.23C361.23 346.65 358.52 346.72 356.58 348.45C354.64 350.18 354.81 352.2 355.26 352.45C357.135 352.552 358.98 351.945 360.43 350.75C360.965 350.327 361.403 349.794 361.714 349.187C362.025 348.579 362.201 347.912 362.23 347.23Z" fill="#F6B9D5"/>
<path opacity="0.15" d="M382.33 354.17C381.918 351.033 380.687 348.06 378.76 345.55C380.34 348.08 380.51 353.2 379.06 355.7C377.61 358.2 375.38 360.13 370.93 359.7C366.48 359.27 364.93 355.1 363.69 352.97C362.45 350.84 361 351.92 359.16 352.97C357.32 354.02 354.47 354.21 353.9 353.69C354.31 354.61 355.27 354.08 356.83 354.69C358.89 355.56 358.72 357.79 362.75 361.02C366.53 364.07 373.7 364.68 377.03 363.55C380.36 362.42 382.87 359.5 382.33 354.17Z" fill="#F6B9D5"/>
<path opacity="0.2" d="M359.24 375.18C372.52 382.85 372.51 395.28 359.24 402.94C345.97 410.6 324.44 410.61 311.16 402.94C297.88 395.27 297.88 382.85 311.16 375.18C324.44 367.51 346 367.52 359.24 375.18Z" fill="black"/>
<path d="M358.28 374.64C345.53 367.28 324.87 367.28 312.12 374.64V373.32C305.45 377.17 302.28 382.27 302.59 387.32C302.28 392.32 305.45 397.46 312.12 401.32C324.87 408.68 345.53 408.68 358.28 401.32C371.03 393.96 371 382 358.28 374.64Z" fill="#E0E0E0"/>
<path d="M358.28 373.32C371.03 380.68 371.03 392.61 358.28 399.97C345.53 407.33 324.87 407.33 312.12 399.97C299.37 392.61 299.37 380.68 312.12 373.32C324.87 365.96 345.53 366 358.28 373.32Z" fill="#F6B9D5"/>
<path d="M358.28 373.32C371.03 380.68 371.03 392.61 358.28 399.97C345.53 407.33 324.87 407.33 312.12 399.97C299.37 392.61 299.37 380.68 312.12 373.32C324.87 365.96 345.53 366 358.28 373.32Z" fill="#FAFAFA"/>
<path d="M319.55 378.81C310.79 383.87 310.79 392.07 319.55 397.13C328.31 402.19 342.55 402.18 351.27 397.13C359.99 392.08 360.03 383.87 351.27 378.81C342.51 373.75 328.31 373.75 319.55 378.81Z" fill="#E0E0E0"/>
<path d="M320.63 379.43C312.46 384.15 312.46 391.79 320.63 396.5C328.8 401.21 342.03 401.22 350.19 396.5C358.35 391.78 358.36 384.15 350.19 379.43C342.02 374.71 328.79 374.72 320.63 379.43Z" fill="#EBEBEB"/>
<path opacity="0.1" d="M353.25 393C355.91 392.07 358.54 387.07 354.93 380.34C351.55 374.06 340.93 371.34 332.06 372.54C327.691 372.447 323.415 373.804 319.9 376.4C319.46 376.72 319.03 377.04 318.62 377.4C318.542 377.451 318.469 377.508 318.4 377.57C318 377.9 317.62 378.23 317.25 378.57C316.571 379.198 315.952 379.888 315.4 380.63C315.113 381.017 314.856 381.425 314.63 381.85C313.964 382.885 313.668 384.115 313.79 385.34V385.27C313.79 385.36 313.73 385.46 313.69 385.55C313.65 385.64 313.52 386 313.44 386.23C313.36 386.46 313.26 386.82 313.19 387.11C313.12 387.4 313.11 387.6 313.08 387.85C313.031 388.145 312.998 388.442 312.98 388.74C312.98 389 312.98 389.27 312.98 389.53C312.98 389.79 312.98 390.12 313.03 390.41C313.077 390.763 313.144 391.114 313.23 391.46C313.32 391.86 313.43 392.25 313.56 392.65C313.69 393.05 313.79 393.36 313.95 393.71C314.11 394.06 314.18 394.17 314.3 394.41C314.42 394.65 314.63 395.04 314.82 395.36C315.01 395.68 315.13 395.81 315.29 396.04C315.45 396.27 315.71 396.64 315.95 396.93C316.19 397.22 316.33 397.37 316.52 397.58C316.71 397.79 317.06 398.15 317.35 398.42C317.64 398.69 317.78 398.82 318.01 399.01C318.24 399.2 318.65 399.53 319.01 399.78L319.75 400.31C320.13 400.55 320.53 400.78 320.93 401.01C321.33 401.24 321.44 401.3 321.72 401.44C322.18 401.67 322.67 401.88 323.17 402.08C323.42 402.18 323.65 402.29 323.91 402.38C324.699 402.669 325.503 402.913 326.32 403.11C339.12 406.17 345.42 398.73 342.74 396.72C342.61 396.63 342.46 396.53 342.3 396.44C342.14 396.35 341.99 396.27 341.81 396.19C338.93 394.79 333.37 393.74 334.14 389.6C334.327 389.596 334.512 389.565 334.69 389.51C335.777 389.105 336.791 388.524 337.69 387.79C338.448 387.232 339.149 386.599 339.78 385.9C339.871 385.794 339.949 385.676 340.01 385.55C340.629 385.424 341.258 385.357 341.89 385.35C342.569 385.368 343.243 385.483 343.89 385.69C344.188 385.789 344.479 385.909 344.76 386.05C346.96 387.17 348.25 389.42 349.52 391.13C349.94 391.735 350.438 392.283 351 392.76C351.187 392.903 351.397 393.014 351.62 393.09C351.676 393.096 351.733 393.096 351.79 393.09C351.962 393.138 352.141 393.162 352.32 393.16H352.48C352.687 393.147 352.892 393.11 353.09 393.05L353.25 393Z" fill="black"/>
<path d="M339.4 383.92C333.23 383.92 318.75 377.92 322.54 374.44C330.9 367.86 350.15 369.73 354.93 378.62C359.6 387.32 353.82 393.17 351.06 391C348.3 388.83 346.78 382.06 339.4 383.92Z" fill="#F6B9D5"/>
<path opacity="0.35" d="M339.4 383.92C333.23 383.92 318.75 377.92 322.54 374.44C330.9 367.86 350.15 369.73 354.93 378.62C359.6 387.32 353.82 393.17 351.06 391C348.3 388.83 346.78 382.06 339.4 383.92Z" fill="white"/>
<path opacity="0.3" d="M351.6 387.59C350.99 384.21 347.47 379.02 339.4 379.69C335.86 379.98 335.28 381.69 335.75 383.46C336.948 383.736 338.171 383.89 339.4 383.92C346.78 382.06 348.28 388.82 351.06 391C351.488 391.304 352.002 391.462 352.527 391.449C353.051 391.436 353.557 391.254 353.97 390.93C352.85 391.38 352 389.94 351.6 387.59Z" fill="#F6B9D5"/>
<path d="M334.46 386.77C334.46 383.21 325.74 376.03 319.64 378.21C308.25 383.04 312.15 397.99 326.35 401.38C339.15 404.43 345.45 397 342.77 394.98C340.29 393.12 332.2 392.41 334.46 386.77Z" fill="#F6B9D5"/>
<path opacity="0.5" d="M334.46 386.77C334.46 383.21 325.74 376.03 319.64 378.21C308.25 383.04 312.15 397.99 326.35 401.38C339.15 404.43 345.45 397 342.77 394.98C340.29 393.12 332.2 392.41 334.46 386.77Z" fill="white"/>
<path opacity="0.25" d="M342.77 395C342.468 394.791 342.151 394.608 341.82 394.45C342.82 394.94 342.6 396.59 339.99 398.03C337.38 399.47 328.99 399.93 323.04 396.15C317.09 392.37 316.33 383.15 318.81 380.29L316.45 380.16C309.23 386.16 313.7 398.38 326.35 401.4C339 404.42 345.45 397 342.77 395Z" fill="#F6B9D5"/>
<path d="M334.46 386.77C333.369 384.575 331.663 382.745 329.55 381.502C327.437 380.259 325.009 379.657 322.56 379.77C315.93 379.94 313.79 383.65 313.79 383.65C313.79 383.65 313.14 380.75 317.25 376.88C321.36 373.01 327.83 369.76 334.46 371.19C341.09 372.62 341.25 382.56 339.8 384.19C338.35 385.82 335.43 387.89 334.14 387.89C334.11 387.49 334.223 387.093 334.46 386.77Z" fill="#F6B9D5"/>
<path opacity="0.5" d="M334.46 386.77C333.369 384.575 331.663 382.745 329.55 381.502C327.437 380.259 325.009 379.657 322.56 379.77C315.93 379.94 313.79 383.65 313.79 383.65C313.79 383.65 313.14 380.75 317.25 376.88C321.36 373.01 327.83 369.76 334.46 371.19C341.09 372.62 341.25 382.56 339.8 384.19C338.35 385.82 335.43 387.89 334.14 387.89C334.11 387.49 334.223 387.093 334.46 386.77Z" fill="white"/>
<path opacity="0.25" d="M334.46 386.77C334.232 387.082 334.119 387.464 334.14 387.85C335.43 387.85 338.35 385.78 339.8 384.15C340.4 383.47 340.72 381.35 340.42 379.01C340.479 379.691 340.391 380.376 340.161 381.02C339.932 381.663 339.566 382.25 339.09 382.74C338.14 383.51 335.95 385.09 333.65 382.39C331.35 379.69 326.71 377.67 322.31 377.52C317.91 377.37 318.18 376.52 319.9 374.68C318.966 375.332 318.081 376.051 317.25 376.83C313.14 380.7 313.79 383.6 313.79 383.6C313.79 383.6 315.93 379.89 322.56 379.72C325.014 379.612 327.446 380.221 329.56 381.473C331.673 382.725 333.376 384.566 334.46 386.77Z" fill="#F6B9D5"/>
<path d="M258.45 62L228.45 79.35C227.77 79.74 227.22 80.69 227.22 82.53V119.53C227.226 119.943 227.344 120.347 227.56 120.699C227.777 121.051 228.084 121.338 228.45 121.53L231.98 123.53C232.359 123.722 232.779 123.823 233.205 123.823C233.63 123.823 234.05 123.722 234.43 123.53L264.43 106.17C264.784 105.936 265.08 105.623 265.291 105.255C265.503 104.887 265.626 104.474 265.65 104.05V66.05C265.627 65.6271 265.504 65.2158 265.29 64.8504C265.076 64.4851 264.778 64.1763 264.42 63.95L260.9 61.95C260.516 61.7668 260.094 61.676 259.669 61.6847C259.243 61.6933 258.826 61.8013 258.45 62Z" fill="#F6B9D5"/>
<path opacity="0.2" d="M258.45 62L228.45 79.35C227.77 79.74 227.22 80.69 227.22 82.53V119.53C227.226 119.943 227.344 120.347 227.56 120.699C227.777 121.051 228.084 121.338 228.45 121.53L231.98 123.53C232.359 123.722 232.779 123.823 233.205 123.823C233.63 123.823 234.05 123.722 234.43 123.53L264.43 106.17C264.784 105.936 265.08 105.623 265.291 105.255C265.503 104.887 265.626 104.474 265.65 104.05V66.05C265.627 65.6271 265.504 65.2158 265.29 64.8504C265.076 64.4851 264.778 64.1763 264.42 63.95L260.9 61.95C260.516 61.7668 260.094 61.676 259.669 61.6847C259.243 61.6933 258.826 61.8013 258.45 62Z" fill="black"/>
<path d="M265.65 65.89C265.55 65.28 265.05 65.06 264.44 65.41L234.44 82.76C234.081 82.9899 233.785 83.3062 233.58 83.68L227.58 80.24C227.785 79.8859 228.073 79.5872 228.42 79.37L258.42 62.02C258.8 61.8299 259.22 61.7309 259.645 61.7309C260.07 61.7309 260.49 61.8299 260.87 62.02L264.39 64.02C264.722 64.223 265.006 64.495 265.224 64.8177C265.441 65.1404 265.587 65.5061 265.65 65.89Z" fill="#F6B9D5"/>
<path opacity="0.3" d="M265.65 65.89C265.55 65.28 265.05 65.06 264.44 65.41L234.44 82.76C234.081 82.9899 233.785 83.3062 233.58 83.68L227.58 80.24C227.785 79.8859 228.073 79.5872 228.42 79.37L258.42 62.02C258.8 61.8299 259.22 61.7309 259.645 61.7309C260.07 61.7309 260.49 61.8299 260.87 62.02L264.39 64.02C264.722 64.223 265.006 64.495 265.224 64.8177C265.441 65.1404 265.587 65.5061 265.65 65.89Z" fill="white"/>
<path d="M224.45 108.66C223.68 108.2 219.17 105.66 218.98 105.56C218.836 105.472 218.713 105.353 218.62 105.211C218.528 105.07 218.468 104.909 218.445 104.742C218.422 104.574 218.436 104.404 218.487 104.243C218.538 104.082 218.625 103.934 218.74 103.81L227.21 93.07L233.21 96.51L224.21 106.94C224.103 107.065 224.024 107.211 223.978 107.368C223.932 107.526 223.92 107.691 223.943 107.854C223.966 108.017 224.022 108.173 224.11 108.311C224.197 108.45 224.313 108.569 224.45 108.66Z" fill="#F6B9D5"/>
<path opacity="0.3" d="M224.45 108.66C223.68 108.2 219.17 105.66 218.98 105.56C218.836 105.472 218.713 105.353 218.62 105.211C218.528 105.07 218.468 104.909 218.445 104.742C218.422 104.574 218.436 104.404 218.487 104.243C218.538 104.082 218.625 103.934 218.74 103.81L227.21 93.07L233.21 96.51L224.21 106.94C224.103 107.065 224.024 107.211 223.978 107.368C223.932 107.526 223.92 107.691 223.943 107.854C223.966 108.017 224.022 108.173 224.11 108.311C224.197 108.45 224.313 108.569 224.45 108.66Z" fill="white"/>
<path d="M264.44 65.41L234.44 82.76C234.085 82.9936 233.79 83.307 233.578 83.6751C233.366 84.0433 233.244 84.4559 233.22 84.88V96.51L224.22 106.94C224.068 107.088 223.962 107.276 223.916 107.483C223.87 107.69 223.885 107.905 223.959 108.104C224.033 108.302 224.164 108.475 224.334 108.6C224.505 108.725 224.708 108.798 224.92 108.81L233.18 109.27V122.9C233.18 123.68 233.73 124 234.4 123.61L264.4 106.25C264.755 106.016 265.05 105.703 265.262 105.335C265.474 104.967 265.596 104.554 265.62 104.13V66.13C265.66 65.33 265.11 65 264.44 65.41Z" fill="#F6B9D5"/>
<path d="M249 107.07L246.49 106.4C241.78 105.14 239.4 102.17 239.4 97.57C239.4 93.57 241.63 89.06 244.4 87.47C246.48 86.27 248.26 87.09 249.01 89.28C249.76 86.28 251.54 83.35 253.62 82.15C256.38 80.56 258.62 82.5 258.62 86.49C258.62 91.09 256.24 96.81 251.53 103.49L249 107.07Z" fill="white"/>
</svg>
