<svg width="1440" height="551" viewBox="0 0 1440 551" fill="none" xmlns="http://www.w3.org/2000/svg">
<path d="M-7 431.062C360.5 547.562 233.5 73.0617 488 176.562C742.5 280.062 848.5 22.5617 996.5 68.5616C1144.5 114.562 1447 549.562 1447 549.562" stroke="#F6B9D5" stroke-opacity="0.5" stroke-width="2"/>
<g filter="url(#filter0_d_693_3401)">
<path d="M338 291.894C418.762 291.894 484.232 258.769 484.232 217.908C484.232 177.047 418.762 143.922 338 143.922C257.238 143.922 191.768 177.047 191.768 217.908C191.768 258.769 257.238 291.894 338 291.894Z" fill="#FAFAFA"/>
</g>
<path d="M389.6 189.444L418.25 172.932C418.397 172.884 418.525 172.791 418.616 172.666C418.707 172.541 418.756 172.39 418.756 172.236C418.756 172.082 418.707 171.931 418.616 171.806C418.525 171.681 418.397 171.588 418.25 171.54L367.754 142.266C367.382 142.079 366.971 141.981 366.554 141.981C366.138 141.981 365.727 142.079 365.354 142.266L336.71 158.778C336.563 158.826 336.435 158.919 336.345 159.044C336.254 159.169 336.205 159.32 336.205 159.474C336.205 159.628 336.254 159.779 336.345 159.904C336.435 160.029 336.563 160.122 336.71 160.17L387.2 189.444C387.573 189.631 387.984 189.729 388.4 189.729C388.817 189.729 389.228 189.631 389.6 189.444Z" fill="#E0E0E0"/>
<path d="M453.422 222.672C464.049 222.672 472.664 217.697 472.664 211.56C472.664 205.423 464.049 200.448 453.422 200.448C442.795 200.448 434.18 205.423 434.18 211.56C434.18 217.697 442.795 222.672 453.422 222.672Z" fill="#E0E0E0"/>
<path d="M299.12 266.532C318.694 266.532 334.562 257.369 334.562 246.066C334.562 234.763 318.694 225.6 299.12 225.6C279.546 225.6 263.678 234.763 263.678 246.066C263.678 257.369 279.546 266.532 299.12 266.532Z" fill="#E0E0E0"/>
<path d="M382.268 26.598L385.46 24.744C387.476 23.724 390.164 24.024 393.056 25.884C398.87 29.628 403.31 38.262 402.974 45.174C402.806 48.618 401.486 50.976 399.482 52.02L396.284 53.874C394.274 54.9 391.58 54.6 388.688 52.734C382.874 48.99 378.428 40.356 378.764 33.45C378.938 30 380.264 27.642 382.268 26.598Z" fill="#EBEBEB"/>
<path d="M396.464 53.784L399.506 51.984C401.51 50.94 402.83 48.576 402.998 45.138C403.064 41.7922 402.345 38.4775 400.898 35.46L397.706 37.308C399.149 40.3288 399.868 43.6446 399.806 46.992C399.662 50.4 398.396 52.71 396.464 53.784Z" fill="#E0E0E0"/>
<path d="M388.694 52.734C382.88 48.99 378.434 40.356 378.77 33.45C379.106 26.544 384.092 24 389.906 27.72C395.72 31.44 400.16 40.098 399.8 47.01C399.44 53.922 394.508 56.478 388.694 52.734Z" fill="#F0F0F0"/>
<path d="M393.566 52.254C396.992 52.422 397.55 48.564 397.628 46.902C397.928 40.806 393.842 32.874 388.718 29.568C387.627 28.8051 386.359 28.3341 385.034 28.2C381.608 28.038 381.05 31.89 380.966 33.558C380.672 39.648 384.752 47.586 389.882 50.886C390.973 51.649 392.241 52.1199 393.566 52.254Z" fill="white"/>
<path d="M388.628 41.4H388.748C388.821 41.3733 388.884 41.3252 388.929 41.262C388.974 41.1988 388.999 41.1235 389 41.046V32.184C389.007 32.1307 389.002 32.0767 388.987 32.0254C388.971 31.9741 388.944 31.9268 388.909 31.8865C388.873 31.8463 388.83 31.814 388.781 31.7919C388.732 31.7698 388.679 31.7584 388.625 31.7584C388.572 31.7584 388.519 31.7698 388.47 31.7919C388.421 31.814 388.377 31.8463 388.342 31.8865C388.306 31.9268 388.28 31.9741 388.264 32.0254C388.248 32.0767 388.243 32.1307 388.25 32.184V39.9119L384.14 34.632C384.08 34.5524 383.99 34.5001 383.891 34.4866C383.792 34.4731 383.692 34.4995 383.612 34.56C383.533 34.6204 383.48 34.71 383.467 34.809C383.453 34.9081 383.48 35.0084 383.54 35.088L388.34 41.226C388.37 41.2762 388.412 41.3183 388.463 41.3487C388.513 41.379 388.57 41.3966 388.628 41.4Z" fill="#E0E0E0"/>
<path d="M390.734 47.88H390.8C390.84 47.8675 390.874 47.8399 390.894 47.8029C390.914 47.7659 390.919 47.7226 390.908 47.682L388.82 40.704C388.808 40.6642 388.781 40.6308 388.744 40.6111C388.707 40.5914 388.665 40.5871 388.625 40.599C388.585 40.6109 388.552 40.6382 388.532 40.6748C388.512 40.7113 388.508 40.7542 388.52 40.794L390.59 47.766C390.599 47.7974 390.618 47.825 390.644 47.8454C390.67 47.8657 390.701 47.8778 390.734 47.88Z" fill="#EBEBEB"/>
<path d="M388.742 39.234C388.058 38.796 387.476 39.096 387.434 39.906C387.438 40.35 387.546 40.787 387.749 41.1819C387.952 41.5768 388.245 41.9186 388.604 42.18C389.288 42.618 389.87 42.318 389.912 41.502C389.91 41.0585 389.802 40.6219 389.599 40.2277C389.396 39.8336 389.102 39.4931 388.742 39.234Z" fill="#EBEBEB"/>
<path d="M383.558 173.478L386.018 185.682L388.412 187.062L390.782 185.694L393.26 173.478L388.412 170.676L383.558 173.478Z" fill="#E0E0E0"/>
<path opacity="0.05" d="M383.558 173.478L386.018 185.682L388.412 187.062L390.782 185.694L393.26 173.478L388.412 170.676L383.558 173.478Z" fill="black"/>
<path d="M388.412 187.062V176.274L383.558 173.478L386.018 185.682L388.412 187.062Z" fill="#EBEBEB"/>
<path opacity="0.05" d="M383.558 173.478L385.148 181.356L388.412 183.24L391.658 181.368L393.26 173.478L388.412 170.676L383.558 173.478Z" fill="black"/>
<path d="M404.894 161.16L407.354 173.364L409.748 174.744L412.118 173.376L414.602 161.16L409.748 158.358L404.894 161.16Z" fill="#E0E0E0"/>
<path opacity="0.05" d="M404.894 161.16L407.354 173.364L409.748 174.744L412.118 173.376L414.602 161.16L409.748 158.358L404.894 161.16Z" fill="black"/>
<path d="M409.748 174.744V163.956L404.894 161.16L407.354 173.364L409.748 174.744Z" fill="#EBEBEB"/>
<path opacity="0.05" d="M404.894 161.16L406.484 169.038L409.748 170.922L412.994 169.05L414.596 161.16L409.748 158.358L404.894 161.16Z" fill="black"/>
<path d="M339.854 148.266L342.314 160.47L344.702 161.85L347.072 160.482L349.556 148.266L344.702 145.464L339.854 148.266Z" fill="#E0E0E0"/>
<path opacity="0.05" d="M339.854 148.266L342.314 160.47L344.702 161.85L347.072 160.482L349.556 148.266L344.702 145.464L339.854 148.266Z" fill="black"/>
<path d="M344.702 161.85V151.068L339.854 148.266L342.314 160.47L344.702 161.85Z" fill="#EBEBEB"/>
<path opacity="0.05" d="M339.854 148.266L341.438 156.15L344.702 158.034L347.954 156.156L349.556 148.266L344.702 145.464L339.854 148.266Z" fill="black"/>
<path d="M388.412 181.272L414.854 166.008V108.78L388.412 124.044V181.272Z" fill="#E0E0E0"/>
<path d="M388.412 124.044L338.474 95.238V152.466L388.412 181.272V124.044Z" fill="#EBEBEB"/>
<path d="M338.474 95.238L388.412 124.044L414.854 108.78L364.916 79.974L338.474 95.238Z" fill="#F5F5F5"/>
<path d="M384.632 152.394L342.254 127.95V148.95L341.558 149.352L383.942 173.796L384.638 173.394L384.632 152.394Z" fill="#E0E0E0"/>
<path d="M383.936 152.796L341.558 128.352V149.352L383.942 173.796L383.936 152.796Z" fill="#F5F5F5"/>
<path d="M365.276 147.096L360.14 144.132C359.474 143.742 358.94 143.922 358.94 144.522C358.985 144.895 359.117 145.252 359.326 145.565C359.534 145.878 359.813 146.137 360.14 146.322L365.282 149.322C365.948 149.706 366.482 149.526 366.482 148.926C366.441 148.547 366.31 148.184 366.1 147.865C365.89 147.547 365.608 147.283 365.276 147.096Z" fill="#E0E0E0"/>
<path d="M384.638 127.032L342.254 102.588V123.594L341.564 123.996L383.942 148.44L384.638 148.038V127.032Z" fill="#E0E0E0"/>
<path d="M383.942 127.434L341.558 102.99L341.564 123.996L383.942 148.44V127.434Z" fill="#F5F5F5"/>
<path d="M365.282 121.734L360.14 118.8C359.474 118.416 358.94 118.59 358.94 119.19C358.985 119.563 359.117 119.92 359.326 120.233C359.534 120.546 359.813 120.805 360.14 120.99L365.282 123.96C365.948 124.344 366.482 124.17 366.482 123.564C366.439 123.186 366.308 122.824 366.1 122.506C365.891 122.188 365.611 121.924 365.282 121.734Z" fill="#E0E0E0"/>
<path d="M383.48 104.73L382.706 105.102L368.45 96.87L369.218 96.498L383.48 104.73Z" fill="#FAFAFA"/>
<path d="M369.218 96.498L382.784 104.328L384.758 84.036L371.192 76.212L369.218 96.498Z" fill="white"/>
<path d="M366.998 97.542L383.882 107.292L386.21 83.364L369.326 73.614L366.998 97.542ZM370.502 75.804L384.758 84.036L382.706 105.102L368.45 96.87L370.502 75.804Z" fill="#F0F0F0"/>
<path d="M368.45 96.8701L369.218 96.4981L371.192 76.2121L370.502 75.8041L368.45 96.8701Z" fill="#E0E0E0"/>
<path d="M369.326 73.614L370.106 73.254L386.99 83.004L386.21 83.364L369.326 73.614Z" fill="#FAFAFA"/>
<path d="M386.99 83.004L386.21 83.364L383.882 107.292L384.662 106.932L386.99 83.004Z" fill="#E0E0E0"/>
<path opacity="0.05" d="M364.754 97.6741L383.6 108.54L391.592 103.92L372.776 93.0601L364.754 97.6741Z" fill="black"/>
<path d="M369.818 96.1143L382.322 103.332L382.652 99.9123L380.33 89.8743L378.11 93.3003L378.572 96.1863L374.876 85.5363L370.148 92.6943L369.818 96.1143Z" fill="#F0F0F0"/>
<path d="M380.522 85.644C380.783 85.8072 380.996 86.0361 381.14 86.3078C381.285 86.5796 381.355 86.8845 381.344 87.192C381.29 87.75 380.834 87.96 380.324 87.666C380.063 87.5037 379.85 87.2759 379.704 87.0054C379.559 86.7348 379.487 86.431 379.496 86.124C379.55 85.566 380 85.35 380.522 85.644Z" fill="#F0F0F0"/>
<path opacity="0.05" d="M393.89 107.862C391.574 109.2 391.574 111.366 393.89 112.704C395.191 113.365 396.63 113.709 398.09 113.709C399.549 113.709 400.988 113.365 402.29 112.704C404.6 111.366 404.6 109.2 402.29 107.862C400.988 107.201 399.549 106.857 398.09 106.857C396.63 106.857 395.191 107.201 393.89 107.862Z" fill="black"/>
<path d="M401.84 111.234C403.856 109.176 405.038 104.034 403.076 102.414H393.08C391.112 104.046 392.294 109.176 394.31 111.234L394.364 111.288L394.43 111.354C394.488 111.413 394.55 111.467 394.616 111.516L394.664 111.558L394.814 111.672L395.078 111.84C396.008 112.31 397.036 112.555 398.078 112.555C399.12 112.555 400.148 112.31 401.078 111.84L401.342 111.672L401.48 111.564L401.54 111.516L401.714 111.36L401.798 111.282L401.84 111.234Z" fill="#F5F5F5"/>
<path d="M393.944 101.634C391.664 102.948 391.664 105.084 393.944 106.434C395.225 107.082 396.64 107.42 398.075 107.42C399.51 107.42 400.925 107.082 402.206 106.434C404.486 105.114 404.486 102.978 402.206 101.634C400.926 100.983 399.511 100.644 398.075 100.644C396.639 100.644 395.224 100.983 393.944 101.634Z" fill="white"/>
<path d="M395.564 102.564C394.178 103.368 394.178 104.67 395.564 105.468C396.343 105.864 397.204 106.071 398.078 106.071C398.952 106.071 399.813 105.864 400.592 105.468C401.978 104.67 401.978 103.368 400.592 102.564C399.812 102.171 398.951 101.966 398.078 101.966C397.205 101.966 396.344 102.171 395.564 102.564Z" fill="#EBEBEB"/>
<path d="M400.592 103.944C399.813 103.548 398.952 103.341 398.078 103.341C397.204 103.341 396.343 103.548 395.564 103.944C395.228 104.127 394.942 104.388 394.73 104.706C394.942 105.024 395.228 105.285 395.564 105.468C396.343 105.864 397.204 106.071 398.078 106.071C398.952 106.071 399.813 105.864 400.592 105.468C400.927 105.287 401.212 105.025 401.42 104.706C401.212 104.387 400.927 104.125 400.592 103.944Z" fill="#E0E0E0"/>
<path d="M395.87 104.706C395.166 103.989 394.561 103.182 394.07 102.306C393.23 100.824 393.074 98.832 393.512 98.586C393.95 98.34 395.708 100.326 395.708 100.326C395.547 99.4921 395.485 98.6423 395.522 97.794C395.6 96.468 395.918 95.268 396.296 95.028C396.674 94.788 397.526 96.45 397.886 97.662C398.246 98.874 398.486 99.864 398.486 99.864C398.631 98.9204 398.85 97.9896 399.14 97.08C399.578 95.826 399.98 95.544 400.286 95.67C400.592 95.796 400.802 96.378 400.886 98.07C400.92 98.8707 400.896 99.6728 400.814 100.47C400.814 100.47 401.414 99.786 402.128 99.12C402.842 98.454 403.214 98.292 403.43 98.43C403.646 98.568 403.706 99.702 402.53 101.832C401.946 102.915 401.197 103.901 400.31 104.754C400.31 104.754 398.648 105.756 395.87 104.706Z" fill="#EBEBEB"/>
<path d="M238.55 139.8L239.906 140.61L285.974 114.012L284.618 113.202L238.55 139.8Z" fill="#FAFAFA"/>
<path d="M284.618 113.202L239.906 139.014V48.456L284.618 22.65V113.202Z" fill="white"/>
<path d="M288.53 17.4301L237.35 46.9801V145.038L288.53 115.488V17.4301ZM285.974 114.03L239.906 140.61V48.4561L285.974 21.8581V114.03Z" fill="#F0F0F0"/>
<path d="M285.974 114.012L284.618 113.202V22.65L285.974 21.858V114.012Z" fill="#E0E0E0"/>
<path d="M239.906 107.328V108.918L285.974 82.314L284.618 81.51L239.906 107.328Z" fill="#FAFAFA"/>
<path d="M239.906 75.618V77.208L285.974 50.61L284.618 49.8L239.906 75.618Z" fill="#FAFAFA"/>
<path d="M288.53 17.43L287.156 16.644L235.97 46.194L237.35 46.98L288.53 17.43Z" fill="#FAFAFA"/>
<path d="M235.97 46.1941L237.35 46.9801V145.038L235.97 144.246V46.1941Z" fill="#E0E0E0"/>
<path d="M259.61 37.08L260.984 36.282V128.442L259.61 127.656V37.08Z" fill="#E0E0E0"/>
<path d="M263.54 34.818L260.984 36.282V128.442L263.54 126.96V34.818Z" fill="#F0F0F0"/>
<path d="M288.53 49.134V52.08L237.35 81.63V78.684L288.53 49.134Z" fill="#F0F0F0"/>
<path d="M288.53 80.832V83.784L237.35 113.334V110.382L288.53 80.832Z" fill="#F0F0F0"/>
<path d="M260.984 65.0341L259.61 64.2421L239.906 75.6181V77.2081L260.984 65.0341Z" fill="#FAFAFA"/>
<path d="M260.984 96.7321L259.61 95.9341L239.906 107.31V108.9L260.984 96.7321Z" fill="#FAFAFA"/>
<path d="M301.598 54.9241L302.582 55.5121L322.754 43.8661L321.776 43.2781L301.598 54.9241Z" fill="#FAFAFA"/>
<path d="M321.776 43.278L302.582 54.354V34.254L321.776 23.184V43.278Z" fill="white"/>
<path d="M324.614 19.392L300.722 33.192V58.728L324.614 44.928V19.392ZM322.754 43.866L302.6 55.512V34.254L322.772 22.608L322.754 43.866Z" fill="#EBEBEB"/>
<path d="M322.754 43.866L321.776 43.278V23.184L322.754 22.608V43.866Z" fill="#E0E0E0"/>
<path d="M324.614 19.392L323.612 18.822L299.726 32.616L300.722 33.186L324.614 19.392Z" fill="#F5F5F5"/>
<path d="M299.726 32.616L300.722 33.186V58.728L299.726 58.152V32.616Z" fill="#E0E0E0"/>
<path d="M321.026 42.678L303.332 52.89V47.784L307.754 37.566L310.508 40.122L309.518 44.406L315.626 31.338L321.026 37.566V42.678Z" fill="#F0F0F0"/>
<path d="M310.34 32.634C309.96 32.8832 309.643 33.2183 309.416 33.6122C309.189 34.0062 309.057 34.448 309.032 34.902C309.032 35.736 309.632 36.072 310.34 35.658C310.722 35.4098 311.04 35.0751 311.268 34.6811C311.497 34.287 311.629 33.8447 311.654 33.39C311.654 32.556 311.066 32.22 310.34 32.634Z" fill="#F0F0F0"/>
<path d="M301.556 88.644L302.54 89.232L322.718 77.58L321.734 76.998L301.556 88.644Z" fill="#FAFAFA"/>
<path d="M321.734 76.9979L302.54 88.0739V67.9739L321.734 56.9039V76.9979Z" fill="white"/>
<path d="M324.572 53.1119L300.686 66.9119V92.4539L324.572 78.6539V53.1119ZM322.718 77.5799L302.54 89.2319V67.9739L322.718 56.3279V77.5799Z" fill="#EBEBEB"/>
<path d="M322.718 77.58L321.734 76.998V56.904L322.718 56.328V77.58Z" fill="#E0E0E0"/>
<path d="M324.572 53.112L323.576 52.542L299.69 66.336L300.686 66.906L324.572 53.112Z" fill="#F5F5F5"/>
<path d="M299.69 66.3359L300.686 66.9059V92.4419L299.69 91.8719V66.3359Z" fill="#E0E0E0"/>
<path d="M320.984 76.398L303.29 86.61V81.504L307.712 71.286L310.472 73.842L309.482 78.126L315.59 65.058L320.984 71.286V76.398Z" fill="#F0F0F0"/>
<path d="M310.304 66.3539C309.923 66.6024 309.606 66.9374 309.379 67.3314C309.151 67.7255 309.02 68.1677 308.996 68.6219C308.996 69.4559 309.596 69.7919 310.304 69.3779C310.684 69.1287 311.001 68.7936 311.228 68.3997C311.455 68.0058 311.587 67.564 311.612 67.1099C311.6 66.2759 311 65.9339 310.304 66.3539Z" fill="#F0F0F0"/>
<path d="M223.508 260.952C219.116 260.952 215.018 259.836 211.97 257.808C209.276 256.008 207.77 253.782 207.77 251.514C207.77 249.246 209.252 247.002 211.97 245.214C215.018 243.186 219.116 242.07 223.508 242.07C227.9 242.07 231.998 243.186 235.046 245.214C237.74 247.014 239.246 249.24 239.246 251.514C239.246 253.788 237.764 256.02 235.046 257.808C231.998 259.836 227.9 260.952 223.508 260.952Z" fill="#E0E0E0"/>
<path d="M233.822 250.758C233.829 250.484 233.803 250.21 233.744 249.942C233.252 246.876 230.606 243.564 228.758 242.508H218.342C216.494 243.564 213.842 246.87 213.356 249.936C213.295 250.206 213.267 250.482 213.272 250.758C213.272 250.806 213.272 250.896 213.272 250.896C213.368 252.342 214.358 253.764 216.272 254.862C220.286 257.184 226.796 257.184 230.816 254.862C232.718 253.764 233.708 252.342 233.816 250.896C233.81 250.896 233.822 250.8 233.822 250.758Z" fill="#37474F"/>
<path d="M218.6 242.34C215.87 243.912 215.87 246.468 218.6 248.046C221.33 249.624 225.758 249.618 228.482 248.046C231.206 246.474 231.212 243.912 228.482 242.34C225.752 240.768 221.336 240.762 218.6 242.34Z" fill="#455A64"/>
<path d="M224.972 89.682H222.128V244.098C222.12 244.235 222.154 244.372 222.226 244.489C222.298 244.606 222.404 244.698 222.53 244.752C222.842 244.909 223.186 244.99 223.535 244.99C223.884 244.99 224.228 244.909 224.54 244.752C224.667 244.698 224.774 244.606 224.847 244.489C224.92 244.372 224.956 244.236 224.948 244.098L224.972 89.682Z" fill="#37474F"/>
<path d="M202.526 84.162L212.42 58.908H234.68L244.586 84.162C245.996 88.11 244.058 92.376 238.748 95.442C230.348 100.284 216.758 100.284 208.37 95.442C203.054 92.4 201.116 88.11 202.526 84.162Z" fill="#BA68C8"/>
<g opacity="0.4">
<path d="M202.526 84.162L212.42 58.908H234.68L244.586 84.162C245.996 88.11 244.058 92.376 238.748 95.442C230.348 100.284 216.758 100.284 208.37 95.442C203.054 92.4 201.116 88.11 202.526 84.162Z" fill="white"/>
</g>
<path opacity="0.2" d="M213.482 88.956C209.444 82.404 214.604 70.002 218.396 59.652V58.908H212.396L202.514 84.162C201.104 88.11 203.042 92.376 208.346 95.442C216.746 100.284 230.336 100.284 238.724 95.442C231.158 98.4 217.514 95.508 213.482 88.956Z" fill="#BA68C8"/>
<path d="M231.602 64.956C227.156 67.524 219.944 67.524 215.492 64.956C211.04 62.388 211.046 58.224 215.492 55.656C219.938 53.088 227.156 53.088 231.602 55.656C236.048 58.224 236.054 62.4 231.602 64.956Z" fill="#BA68C8"/>
<g opacity="0.6">
<path d="M231.602 64.956C227.156 67.524 219.944 67.524 215.492 64.956C211.04 62.388 211.046 58.224 215.492 55.656C219.938 53.088 227.156 53.088 231.602 55.656C236.048 58.224 236.054 62.4 231.602 64.956Z" fill="white"/>
</g>
<path d="M223.55 65.562C226.123 65.6198 228.668 65.0166 230.942 63.81C232.67 62.814 233.618 61.572 233.618 60.306C233.618 59.04 232.67 57.798 230.942 56.802C228.668 55.5954 226.123 54.9922 223.55 55.05C220.976 54.99 218.431 55.5934 216.158 56.802C214.43 57.798 213.482 59.04 213.482 60.306C213.482 61.572 214.43 62.814 216.158 63.81C218.431 65.0186 220.976 65.6219 223.55 65.562Z" fill="#BA68C8"/>
<path d="M427.886 134.238L437.636 139.872V156.756L427.886 151.128V134.238Z" fill="#F0F0F0"/>
<path d="M437.636 156.756L438.614 156.192V139.302L437.636 139.872V156.756Z" fill="#E0E0E0"/>
<path d="M438.614 139.302L428.864 133.674L427.886 134.238L437.636 139.872L438.614 139.302Z" fill="#FAFAFA"/>
<path d="M434.252 148.578L430.226 150.9L429.092 150.246L427.964 150.9V146.982L429.092 146.328L430.226 144.366L434.252 142.044V148.578Z" fill="#455A64"/>
<path d="M427.964 150.9L425.702 149.592V145.674L426.83 145.02L427.964 143.058L431.984 140.736L434.252 142.044L430.226 144.366L429.092 146.328L427.964 146.982V150.9Z" fill="#37474F"/>
<path d="M429.092 146.328L426.83 145.02L425.702 145.674L427.964 146.982L429.092 146.328Z" fill="#263238"/>
<path d="M430.226 144.366L434.252 142.044L431.984 140.736L427.964 143.058L430.226 144.366Z" fill="#263238"/>
<path d="M427.4 149.454L426.59 149.922C426.486 149.97 426.371 149.99 426.257 149.978C426.143 149.967 426.034 149.924 425.942 149.856C425.674 149.684 425.452 149.45 425.292 149.175C425.132 148.899 425.04 148.59 425.024 148.272C425.01 148.157 425.029 148.04 425.076 147.935C425.124 147.829 425.199 147.738 425.294 147.672L426.104 147.198C426.208 147.151 426.323 147.132 426.437 147.144C426.55 147.155 426.659 147.197 426.752 147.264C427.019 147.438 427.242 147.672 427.402 147.949C427.561 148.225 427.653 148.535 427.67 148.854C427.683 148.969 427.665 149.086 427.617 149.191C427.57 149.297 427.495 149.388 427.4 149.454Z" fill="#455A64"/>
<path d="M425.966 149.856C425.698 149.683 425.476 149.45 425.316 149.175C425.156 148.899 425.065 148.59 425.048 148.272C425.048 147.672 425.456 147.45 425.966 147.738C426.232 147.913 426.454 148.148 426.613 148.424C426.773 148.7 426.865 149.01 426.884 149.328C426.884 149.916 426.47 150.15 425.966 149.856Z" fill="#263238"/>
<path d="M259.796 269.658C258.004 269.66 256.242 269.191 254.69 268.296L233.144 255.864C233.072 255.826 233.009 255.775 232.957 255.712C232.906 255.65 232.868 255.577 232.846 255.5C232.823 255.422 232.816 255.34 232.826 255.26C232.836 255.18 232.862 255.102 232.902 255.032C232.943 254.962 232.997 254.901 233.062 254.852C233.127 254.804 233.2 254.769 233.279 254.75C233.358 254.73 233.439 254.727 233.519 254.74C233.599 254.753 233.675 254.783 233.744 254.826L255.29 267.258C256.659 268.044 258.211 268.458 259.79 268.458C261.369 268.458 262.92 268.044 264.29 267.258L419.162 177.858C420.169 177.275 421.005 176.437 421.587 175.43C422.169 174.422 422.477 173.28 422.48 172.116V155.226C422.48 155.067 422.543 154.914 422.655 154.802C422.768 154.689 422.921 154.626 423.08 154.626C423.239 154.626 423.391 154.689 423.504 154.802C423.616 154.914 423.68 155.067 423.68 155.226V172.098C423.677 173.472 423.313 174.821 422.626 176.011C421.938 177.201 420.951 178.189 419.762 178.878L264.89 268.278C263.342 269.177 261.585 269.653 259.796 269.658Z" fill="#E0E0E0"/>
<path d="M259.796 266.844C258.004 266.846 256.243 266.377 254.69 265.482L231.146 251.898C231.077 251.859 231.017 251.806 230.969 251.743C230.921 251.681 230.885 251.609 230.865 251.533C230.844 251.457 230.839 251.377 230.849 251.299C230.859 251.22 230.884 251.145 230.924 251.076C230.963 251.007 231.016 250.947 231.078 250.899C231.141 250.851 231.213 250.815 231.289 250.795C231.365 250.774 231.445 250.769 231.523 250.779C231.602 250.789 231.677 250.815 231.746 250.854L255.29 264.438C256.658 265.228 258.21 265.644 259.79 265.644C261.37 265.644 262.922 265.228 264.29 264.438L419.162 175.038C420.17 174.454 421.006 173.616 421.589 172.607C422.171 171.598 422.478 170.455 422.48 169.29V153.234C422.482 152.274 422.736 151.331 423.216 150.499C423.696 149.668 424.385 148.976 425.216 148.494C425.284 148.454 425.36 148.429 425.438 148.418C425.517 148.408 425.597 148.413 425.673 148.434C425.749 148.455 425.821 148.49 425.884 148.538C425.946 148.587 425.999 148.647 426.038 148.716C426.116 148.854 426.137 149.017 426.095 149.17C426.053 149.323 425.953 149.453 425.816 149.532C425.168 149.909 424.63 150.45 424.256 151.099C423.881 151.748 423.682 152.484 423.68 153.234V169.278C423.677 170.653 423.314 172.003 422.627 173.194C421.939 174.385 420.951 175.374 419.762 176.064L264.89 265.464C263.342 266.363 261.585 266.839 259.796 266.844Z" fill="black"/>
<path d="M443.93 214.722C438.854 209.484 435.872 188.124 440.822 183.966H466.022C470.972 188.118 467.996 209.478 462.92 214.716C462.877 214.767 462.831 214.815 462.782 214.86L462.608 215.034C462.462 215.181 462.308 215.319 462.146 215.448C462.109 215.483 462.069 215.515 462.026 215.544C461.9 215.64 461.78 215.742 461.642 215.838C461.432 215.992 461.214 216.134 460.988 216.264C456.788 218.7 450.038 218.7 445.868 216.264C445.646 216.138 445.43 215.988 445.208 215.832C445.082 215.748 444.968 215.652 444.854 215.562L444.704 215.442C444.548 215.31 444.398 215.178 444.26 215.046L444.056 214.842L443.93 214.722Z" fill="#37474F"/>
<path d="M463.832 182.292C469.58 185.652 469.58 191.088 463.832 194.448C458.084 197.808 448.76 197.802 443.012 194.448C437.264 191.094 437.264 185.652 443.012 182.292C448.76 178.932 458.078 178.938 463.832 182.292Z" fill="#455A64"/>
<path d="M461.066 183.906C465.266 186.372 465.266 190.368 461.066 192.834C456.866 195.3 449.996 195.3 445.778 192.834C441.56 190.368 441.578 186.372 445.778 183.906C449.978 181.44 456.842 181.44 461.066 183.906Z" fill="#263238"/>
<path d="M445.778 188.142C449.978 185.676 456.842 185.676 461.066 188.142C462.09 188.702 462.958 189.509 463.592 190.488C462.958 191.467 462.09 192.274 461.066 192.834C456.866 195.3 449.996 195.3 445.778 192.834C444.752 192.275 443.881 191.469 443.246 190.488C443.881 189.507 444.752 188.701 445.778 188.142Z" fill="#FAFAFA"/>
<path d="M451.724 154.542C449.792 156.636 444.428 157.212 442.208 151.542C440.12 146.238 437.876 141.216 437.234 139.266C437.142 139.012 437.103 138.743 437.118 138.473C437.134 138.204 437.204 137.94 437.324 137.699C437.444 137.457 437.611 137.242 437.817 137.067C438.022 136.892 438.26 136.76 438.518 136.68C438.518 136.68 438.668 133.77 443.606 135.738C448.544 137.706 452.006 140.712 454.178 145.554C456.35 150.396 455.03 153.894 451.724 154.542Z" fill="#BA68C8"/>
<path opacity="0.45" d="M451.724 154.542C449.792 156.636 444.428 157.212 442.208 151.542C440.12 146.238 437.876 141.216 437.234 139.266C437.142 139.012 437.103 138.743 437.118 138.473C437.134 138.204 437.204 137.94 437.324 137.699C437.444 137.457 437.611 137.242 437.817 137.067C438.022 136.892 438.26 136.76 438.518 136.68C438.518 136.68 438.668 133.77 443.606 135.738C448.544 137.706 452.006 140.712 454.178 145.554C456.35 150.396 455.03 153.894 451.724 154.542Z" fill="white"/>
<path d="M453.86 162C453.775 161.011 453.633 160.027 453.434 159.054C453.03 157.12 452.483 155.219 451.796 153.366C450.408 149.589 448.482 146.033 446.078 142.806C444.744 140.966 443.237 139.259 441.578 137.706C441.53 137.658 441.488 137.772 441.524 137.808C444.297 140.72 446.666 143.992 448.568 147.534C450.398 151.02 451.767 154.729 452.642 158.568C452.882 159.642 453.116 160.722 453.308 161.802C453.5 162.882 453.626 164.016 453.812 165.12C453.812 165.228 453.998 165.3 454.01 165.12C454.04 164.078 453.99 163.035 453.86 162Z" fill="#BA68C8"/>
<path opacity="0.3" d="M453.86 162C453.775 161.011 453.633 160.027 453.434 159.054C453.03 157.12 452.483 155.219 451.796 153.366C450.408 149.589 448.482 146.033 446.078 142.806C444.744 140.966 443.237 139.259 441.578 137.706C441.53 137.658 441.488 137.772 441.524 137.808C444.297 140.72 446.666 143.992 448.568 147.534C450.398 151.02 451.767 154.729 452.642 158.568C452.882 159.642 453.116 160.722 453.308 161.802C453.5 162.882 453.626 164.016 453.812 165.12C453.812 165.228 453.998 165.3 454.01 165.12C454.04 164.078 453.99 163.035 453.86 162Z" fill="black"/>
<path d="M455.51 153.078C451.076 154.452 447.782 150.99 448.91 145.56C450.038 140.13 455.756 134.112 457.91 135.732C459.254 134.382 462.218 134.868 463.616 139.272C465.014 143.676 463.748 155.004 455.51 153.078Z" fill="#BA68C8"/>
<path opacity="0.25" d="M455.51 153.078C451.076 154.452 447.782 150.99 448.91 145.56C450.038 140.13 455.756 134.112 457.91 135.732C459.254 134.382 462.218 134.868 463.616 139.272C465.014 143.676 463.748 155.004 455.51 153.078Z" fill="white"/>
<path d="M458.114 139.032C456.852 142.197 455.867 145.465 455.168 148.8C454.411 152.166 453.838 155.571 453.452 159C452.739 165.645 452.443 172.328 452.564 179.01C452.564 180.858 452.606 182.706 452.636 184.548C452.666 186.39 452.636 188.37 452.81 190.266C452.87 190.986 453.902 190.794 453.914 190.134C453.98 186.81 453.8 183.468 453.764 180.144C453.728 176.82 453.764 173.544 453.824 170.286C453.943 163.589 454.545 156.91 455.624 150.3C455.942 148.464 456.296 146.628 456.722 144.81C457.172 142.896 457.724 141.012 458.228 139.116C458.24 139.026 458.156 138.93 458.114 139.032Z" fill="#BA68C8"/>
<path opacity="0.3" d="M458.114 139.032C456.852 142.197 455.867 145.465 455.168 148.8C454.411 152.166 453.838 155.571 453.452 159C452.739 165.645 452.443 172.328 452.564 179.01C452.564 180.858 452.606 182.706 452.636 184.548C452.666 186.39 452.636 188.37 452.81 190.266C452.87 190.986 453.902 190.794 453.914 190.134C453.98 186.81 453.8 183.468 453.764 180.144C453.728 176.82 453.764 173.544 453.824 170.286C453.943 163.589 454.545 156.91 455.624 150.3C455.942 148.464 456.296 146.628 456.722 144.81C457.172 142.896 457.724 141.012 458.228 139.116C458.24 139.026 458.156 138.93 458.114 139.032Z" fill="black"/>
<path d="M448.298 168.99C446.36 171.186 441.92 170.994 438.944 167.076C435.968 163.158 434.18 148.476 438.344 149.388C439.232 147.426 450.806 152.142 452.294 161.742C453.398 168.726 448.298 168.99 448.298 168.99Z" fill="#BA68C8"/>
<path opacity="0.25" d="M448.298 168.99C446.36 171.186 441.92 170.994 438.944 167.076C435.968 163.158 434.18 148.476 438.344 149.388C439.232 147.426 450.806 152.142 452.294 161.742C453.398 168.726 448.298 168.99 448.298 168.99Z" fill="white"/>
<path d="M451.76 175.944C451.618 175.038 451.417 174.142 451.16 173.262C450.674 171.462 450.098 169.662 449.438 167.94C448.07 164.395 446.345 160.997 444.29 157.8C443.18 155.993 441.956 154.26 440.624 152.61C440.582 152.568 440.552 152.67 440.57 152.7C441.602 154.206 442.652 155.7 443.57 157.272C444.488 158.844 445.37 160.602 446.198 162.318C447.735 165.629 449.011 169.056 450.014 172.566C450.296 173.562 450.53 174.57 450.824 175.566C451.118 176.562 451.514 177.606 451.778 178.65C451.814 178.8 452.006 178.86 451.988 178.65C451.91 177.744 451.88 176.844 451.76 175.944Z" fill="#BA68C8"/>
<path opacity="0.3" d="M451.76 175.944C451.618 175.038 451.417 174.142 451.16 173.262C450.674 171.462 450.098 169.662 449.438 167.94C448.07 164.395 446.345 160.997 444.29 157.8C443.18 155.993 441.956 154.26 440.624 152.61C440.582 152.568 440.552 152.67 440.57 152.7C441.602 154.206 442.652 155.7 443.57 157.272C444.488 158.844 445.37 160.602 446.198 162.318C447.735 165.629 449.011 169.056 450.014 172.566C450.296 173.562 450.53 174.57 450.824 175.566C451.118 176.562 451.514 177.606 451.778 178.65C451.814 178.8 452.006 178.86 451.988 178.65C451.91 177.744 451.88 176.844 451.76 175.944Z" fill="black"/>
<path d="M455.384 166.8C452.852 166.2 452.726 163.2 455.894 159.444C459.062 155.688 467.042 154.08 467.42 155.652C469.22 155.652 469.22 161.208 465.266 166.314C461.312 171.42 455.6 170.25 455.384 166.8Z" fill="#BA68C8"/>
<path opacity="0.25" d="M455.384 166.8C452.852 166.2 452.726 163.2 455.894 159.444C459.062 155.688 467.042 154.08 467.42 155.652C469.22 155.652 469.22 161.208 465.266 166.314C461.312 171.42 455.6 170.25 455.384 166.8Z" fill="white"/>
<path d="M460.352 161.4C456.998 163.734 454.438 167.038 453.014 170.868C452.93 171.084 453.308 171.402 453.398 171.162C454.836 167.374 457.237 164.025 460.364 161.448C460.364 161.448 460.4 161.364 460.352 161.4Z" fill="#BA68C8"/>
<path opacity="0.3" d="M460.352 161.4C456.998 163.734 454.438 167.038 453.014 170.868C452.93 171.084 453.308 171.402 453.398 171.162C454.836 167.374 457.237 164.025 460.364 161.448C460.364 161.448 460.4 161.364 460.352 161.4Z" fill="black"/>
<path d="M458.282 185.358C454.772 186.78 456.272 190.956 459.698 194.13C462.65 196.712 466.463 198.093 470.384 198C472.736 197.832 473.342 197.508 473.342 197.508C473.342 197.508 473.72 193.908 473.342 191.7C472.964 189.577 471.983 187.608 470.516 186.028C469.048 184.448 467.157 183.324 465.068 182.79C459.59 181.29 458.282 183.27 458.282 185.358Z" fill="#BA68C8"/>
<path opacity="0.45" d="M458.282 185.358C454.772 186.78 456.272 190.956 459.698 194.13C462.65 196.712 466.463 198.093 470.384 198C472.736 197.832 473.342 197.508 473.342 197.508C473.342 197.508 473.72 193.908 473.342 191.7C472.964 189.577 471.983 187.608 470.516 186.028C469.048 184.448 467.157 183.324 465.068 182.79C459.59 181.29 458.282 183.27 458.282 185.358Z" fill="white"/>
<path d="M467.996 191.526C466.417 189.645 464.602 187.975 462.596 186.558C460.598 185.244 457.934 184.122 455.54 184.938C454.61 185.256 453.14 186.18 453.338 187.338C453.338 187.452 453.56 187.734 453.698 187.578C454.07 187.047 454.492 186.553 454.958 186.102C455.511 185.697 456.165 185.45 456.848 185.388C458.563 185.271 460.274 185.661 461.768 186.51C464.138 187.764 466.058 189.72 467.948 191.592C467.99 191.604 468.014 191.55 467.996 191.526Z" fill="#BA68C8"/>
<path opacity="0.3" d="M467.996 191.526C466.417 189.645 464.602 187.975 462.596 186.558C460.598 185.244 457.934 184.122 455.54 184.938C454.61 185.256 453.14 186.18 453.338 187.338C453.338 187.452 453.56 187.734 453.698 187.578C454.07 187.047 454.492 186.553 454.958 186.102C455.511 185.697 456.165 185.45 456.848 185.388C458.563 185.271 460.274 185.661 461.768 186.51C464.138 187.764 466.058 189.72 467.948 191.592C467.99 191.604 468.014 191.55 467.996 191.526Z" fill="black"/>
<path d="M444.914 167.4C445.25 165.804 442.94 162 435.746 161.244C428.552 160.488 423.146 163.56 422.072 164.958C420.998 166.356 420.434 167.82 421.742 168.186C423.05 168.552 427.544 168.99 430.496 170.346C433.448 171.702 439.448 175.746 443.54 174.546C447.632 173.346 446.954 168.972 444.914 167.4Z" fill="#BA68C8"/>
<path opacity="0.45" d="M444.914 167.4C445.25 165.804 442.94 162 435.746 161.244C428.552 160.488 423.146 163.56 422.072 164.958C420.998 166.356 420.434 167.82 421.742 168.186C423.05 168.552 427.544 168.99 430.496 170.346C433.448 171.702 439.448 175.746 443.54 174.546C447.632 173.346 446.954 168.972 444.914 167.4Z" fill="white"/>
<path d="M450.386 172.956C447.35 166.686 439.532 164.772 433.136 164.808C431.033 164.81 428.939 165.076 426.902 165.6C426.872 165.6 426.866 165.678 426.902 165.672C430.347 165.089 433.863 165.055 437.318 165.57C440.714 166.116 444.044 167.172 446.84 169.236C448.217 170.271 449.373 171.571 450.242 173.058C450.332 173.226 450.446 173.082 450.386 172.956Z" fill="#BA68C8"/>
<path opacity="0.3" d="M450.386 172.956C447.35 166.686 439.532 164.772 433.136 164.808C431.033 164.81 428.939 165.076 426.902 165.6C426.872 165.6 426.866 165.678 426.902 165.672C430.347 165.089 433.863 165.055 437.318 165.57C440.714 166.116 444.044 167.172 446.84 169.236C448.217 170.271 449.373 171.571 450.242 173.058C450.332 173.226 450.446 173.082 450.386 172.956Z" fill="black"/>
<path d="M461.678 159C461.588 161.514 465.128 162.978 468.56 160.8C471.992 158.622 475.58 156.504 478.76 155.682C481.94 154.86 483.44 152.274 482.438 151.02C481.436 149.766 479.84 146.604 471.494 147.636C463.148 148.668 460.184 152.436 459.038 155.088C457.892 157.74 460.4 159.714 461.678 159Z" fill="#BA68C8"/>
<path opacity="0.45" d="M461.678 159C461.588 161.514 465.128 162.978 468.56 160.8C471.992 158.622 475.58 156.504 478.76 155.682C481.94 154.86 483.44 152.274 482.438 151.02C481.436 149.766 479.84 146.604 471.494 147.636C463.148 148.668 460.184 152.436 459.038 155.088C457.892 157.74 460.4 159.714 461.678 159Z" fill="white"/>
<path d="M475.268 150.996C474.055 150.878 472.83 151.007 471.668 151.374C470.614 151.643 469.587 152.01 468.602 152.472C466.635 153.384 464.863 154.668 463.382 156.252C462.951 156.699 462.55 157.174 462.182 157.674C461.815 158.114 461.513 158.605 461.288 159.132C461.234 159.3 461.474 159.564 461.624 159.396C462.038 158.922 462.344 158.34 462.734 157.836C463.15 157.297 463.599 156.784 464.078 156.3C465.044 155.328 466.124 154.476 467.294 153.762C468.422 153.068 469.616 152.488 470.858 152.028C471.542 151.782 472.232 151.584 472.94 151.428C473.674 151.202 474.44 151.097 475.208 151.116C475.292 151.092 475.31 151.002 475.268 150.996Z" fill="#BA68C8"/>
<path opacity="0.3" d="M475.268 150.996C474.055 150.878 472.83 151.007 471.668 151.374C470.614 151.643 469.587 152.01 468.602 152.472C466.635 153.384 464.863 154.668 463.382 156.252C462.951 156.699 462.55 157.174 462.182 157.674C461.815 158.114 461.513 158.605 461.288 159.132C461.234 159.3 461.474 159.564 461.624 159.396C462.038 158.922 462.344 158.34 462.734 157.836C463.15 157.297 463.599 156.784 464.078 156.3C465.044 155.328 466.124 154.476 467.294 153.762C468.422 153.068 469.616 152.488 470.858 152.028C471.542 151.782 472.232 151.584 472.94 151.428C473.674 151.202 474.44 151.097 475.208 151.116C475.292 151.092 475.31 151.002 475.268 150.996Z" fill="black"/>
<path d="M455.69 172.572C454.52 171.402 451.346 171.672 449.84 175.128C448.334 178.584 451.49 182.37 451.844 183.438C453.296 182.598 454.424 183.096 456.98 182.598C458.401 182.259 459.663 181.442 460.554 180.285C461.445 179.127 461.912 177.698 461.876 176.238C461.708 173.07 460.4 171 455.69 172.572Z" fill="#BA68C8"/>
<path opacity="0.45" d="M455.69 172.572C454.52 171.402 451.346 171.672 449.84 175.128C448.334 178.584 451.49 182.37 451.844 183.438C453.296 182.598 454.424 183.096 456.98 182.598C458.401 182.259 459.663 181.442 460.554 180.285C461.445 179.127 461.912 177.698 461.876 176.238C461.708 173.07 460.4 171 455.69 172.572Z" fill="white"/>
<path d="M455.648 172.2C455.01 172.602 454.477 173.152 454.094 173.802C453.68 174.404 453.344 175.055 453.092 175.74C452.545 177.14 452.392 178.663 452.648 180.144C452.648 180.198 452.708 180.144 452.702 180.144C452.588 178.657 452.841 177.165 453.44 175.8C453.724 175.178 454.078 174.59 454.496 174.048C454.717 173.764 454.954 173.491 455.204 173.232C455.451 173.035 455.677 172.811 455.876 172.566C455.96 172.422 455.822 172.134 455.648 172.2Z" fill="#BA68C8"/>
<path opacity="0.3" d="M455.648 172.2C455.01 172.602 454.477 173.152 454.094 173.802C453.68 174.404 453.344 175.055 453.092 175.74C452.545 177.14 452.392 178.663 452.648 180.144C452.648 180.198 452.708 180.144 452.702 180.144C452.588 178.657 452.841 177.165 453.44 175.8C453.724 175.178 454.078 174.59 454.496 174.048C454.717 173.764 454.954 173.491 455.204 173.232C455.451 173.035 455.677 172.811 455.876 172.566C455.96 172.422 455.822 172.134 455.648 172.2Z" fill="black"/>
<path d="M450.2 179.58C450.092 177 447.302 174.966 443.336 173.784C441.387 173.173 439.304 173.127 437.33 173.651C435.356 174.176 433.571 175.25 432.182 176.748C429.284 179.898 427.784 182.58 428.96 183.348C430.136 184.116 435.38 186 438.8 187.086C442.22 188.172 446.738 188.478 450.2 186.444C453.662 184.41 453.398 180.864 450.2 179.58Z" fill="#BA68C8"/>
<path opacity="0.25" d="M450.2 179.58C450.092 177 447.302 174.966 443.336 173.784C441.387 173.173 439.304 173.127 437.33 173.651C435.356 174.176 433.571 175.25 432.182 176.748C429.284 179.898 427.784 182.58 428.96 183.348C430.136 184.116 435.38 186 438.8 187.086C442.22 188.172 446.738 188.478 450.2 186.444C453.662 184.41 453.398 180.864 450.2 179.58Z" fill="white"/>
<path d="M450.404 179.286C449.06 178.61 447.592 178.218 446.09 178.134C444.652 177.996 443.204 178.014 441.77 178.188C440.256 178.378 438.761 178.695 437.3 179.136C436.538 179.358 435.776 179.61 435.032 179.886C434.32 180.12 433.627 180.405 432.956 180.738C432.926 180.738 432.914 180.84 432.956 180.828C433.682 180.678 434.396 180.39 435.104 180.174C435.812 179.958 436.64 179.712 437.42 179.514C438.857 179.127 440.321 178.848 441.8 178.68C443.289 178.509 444.793 178.509 446.282 178.68C447.658 178.903 449.015 179.236 450.338 179.676C450.644 179.766 450.56 179.4 450.404 179.286Z" fill="#BA68C8"/>
<path opacity="0.3" d="M450.404 179.286C449.06 178.61 447.592 178.218 446.09 178.134C444.652 177.996 443.204 178.014 441.77 178.188C440.256 178.378 438.761 178.695 437.3 179.136C436.538 179.358 435.776 179.61 435.032 179.886C434.32 180.12 433.627 180.405 432.956 180.738C432.926 180.738 432.914 180.84 432.956 180.828C433.682 180.678 434.396 180.39 435.104 180.174C435.812 179.958 436.64 179.712 437.42 179.514C438.857 179.127 440.321 178.848 441.8 178.68C443.289 178.509 444.793 178.509 446.282 178.68C447.658 178.903 449.015 179.236 450.338 179.676C450.644 179.766 450.56 179.4 450.404 179.286Z" fill="black"/>
<path d="M458.372 175.746C455.534 173.49 456.482 168.084 466.406 167.796C476.33 167.508 483.428 170.094 483.11 173.292C484.712 174.888 483.902 179.364 475.862 180.762C467.822 182.16 456.32 181.464 458.372 175.746Z" fill="#BA68C8"/>
<path opacity="0.25" d="M458.372 175.746C455.534 173.49 456.482 168.084 466.406 167.796C476.33 167.508 483.428 170.094 483.11 173.292C484.712 174.888 483.902 179.364 475.862 180.762C467.822 182.16 456.32 181.464 458.372 175.746Z" fill="white"/>
<path d="M478.442 173.328C475.513 172.843 472.54 172.668 469.574 172.806C466.816 172.791 464.066 173.108 461.384 173.748C460.698 173.939 460.03 174.188 459.386 174.492C459.092 174.636 458.786 174.786 458.516 174.96C458.246 175.134 458.042 175.212 457.958 175.476C457.951 175.517 457.954 175.559 457.967 175.599C457.979 175.639 458 175.676 458.028 175.706C458.056 175.737 458.091 175.761 458.13 175.776C458.169 175.791 458.21 175.797 458.252 175.794C458.857 175.56 459.439 175.27 459.992 174.93C460.551 174.695 461.124 174.494 461.708 174.33C462.838 174.011 463.992 173.785 465.158 173.652C467.944 173.305 470.751 173.151 473.558 173.19C475.19 173.19 476.816 173.334 478.442 173.466C478.472 173.442 478.49 173.334 478.442 173.328Z" fill="#BA68C8"/>
<path opacity="0.3" d="M478.442 173.328C475.513 172.843 472.54 172.668 469.574 172.806C466.816 172.791 464.066 173.108 461.384 173.748C460.698 173.939 460.03 174.188 459.386 174.492C459.092 174.636 458.786 174.786 458.516 174.96C458.246 175.134 458.042 175.212 457.958 175.476C457.951 175.517 457.954 175.559 457.967 175.599C457.979 175.639 458 175.676 458.028 175.706C458.056 175.737 458.091 175.761 458.13 175.776C458.169 175.791 458.21 175.797 458.252 175.794C458.857 175.56 459.439 175.27 459.992 174.93C460.551 174.695 461.124 174.494 461.708 174.33C462.838 174.011 463.992 173.785 465.158 173.652C467.944 173.305 470.751 173.151 473.558 173.19C475.19 173.19 476.816 173.334 478.442 173.466C478.472 173.442 478.49 173.334 478.442 173.328Z" fill="black"/>
<path d="M266.36 130.32C268.994 131.154 268.682 135.276 267.938 137.364C267.194 139.452 264.458 144.564 263.378 147.156C262.298 149.748 260.768 156.924 260.768 156.924C260.768 156.924 260.474 160.386 256.67 157.812C252.866 155.238 251.75 150.972 254.576 145.278C257.402 139.584 257.018 136.056 258.23 133.326C259.442 130.596 262.952 129.822 266.36 130.32Z" fill="#455A64"/>
<path d="M251.954 155.346C251.954 155.448 251.954 155.55 251.954 155.652C251.896 156.274 251.945 156.901 252.098 157.506C252.698 159.474 255.218 159.714 256.754 158.862C257.832 158.244 258.839 157.507 259.754 156.666C261.607 154.975 263.589 153.43 265.682 152.046C270.122 149.22 272.012 149.394 273.932 149.646C275.516 149.874 276.536 151.11 277.532 152.262C278.876 153.846 280.184 155.466 281.48 157.062C284.444 160.77 287.342 164.532 290.252 168.288L291.92 170.43C296.72 176.598 300.86 179.1 303.404 179.664C305.126 180.069 306.925 180.004 308.614 179.477C310.303 178.949 311.819 177.978 313.004 176.664C316.004 173.196 316.982 171.264 320.534 164.478C322.934 159.894 324.338 156.756 325.514 154.356L330.698 173.16C323.696 175.56 321.842 180.36 315.602 189.312C312.65 193.56 309.678 197.796 306.686 202.02C304.256 205.446 302.12 209.286 297.83 210.57C296.57 210.954 295.196 211.116 294.122 211.878C292.37 213.114 291.938 215.568 292.262 217.692C292.532 219.444 293.336 221.082 293.528 222.834C293.645 224.69 293.428 226.551 292.886 228.33C292.226 230.928 291.464 233.664 292.244 236.226C293.444 240.09 297.356 241.548 300.704 243.072C301.249 243.36 301.836 243.563 302.444 243.672C302.747 243.721 303.057 243.701 303.352 243.615C303.647 243.529 303.918 243.378 304.148 243.174C304.88 242.448 304.748 241.242 304.502 240.234C304.016 237.978 304.136 235.734 304.004 233.43C303.872 231.126 304.496 226.878 304.934 224.562C305.738 220.29 307.892 218.916 311.18 216C315.116 212.502 316.334 211.566 319.334 209.124C327.542 202.416 335.728 195.684 343.892 188.928C344.888 188.1 346.232 186.996 347.618 185.616C350.845 182.366 352.754 178.035 352.976 173.46C353.491 163.291 353.176 153.098 352.034 142.98C351.332 137.01 350.426 132.18 350.234 128.43L315.476 113.01C311.042 116.82 305.402 122.646 304.112 136.044C302.84 140.844 301.334 148.554 299.552 155.286C294.302 149.574 289.694 146.988 286.286 144.528C284.522 143.25 282.602 141.726 281.342 139.92C280.184 138.258 279.716 136.092 278.09 134.772C276.56 133.524 274.328 133.434 272.468 134.088C270.608 134.742 269.036 136.032 267.578 137.358C266.188 138.763 264.651 140.014 262.994 141.09C262.058 141.636 261.05 142.038 260.072 142.512C258.011 143.422 256.192 144.803 254.762 146.544C252.8 149.016 252.122 152.226 251.954 155.346Z" fill="#FFA8A7"/>
<path d="M299.498 209.868C297.764 210.582 297.782 216.084 298.172 219.042C298.562 222 297.35 230.526 298.904 232.95C300.458 235.374 303.626 235.95 303.98 234.372C303.98 234.372 304.628 238.992 305.282 240.852C305.936 242.712 304.532 245.322 301.454 244.824C298.376 244.326 292.238 240.768 291.41 236.544C290.582 232.32 292.292 228.396 292.724 224.844C293.156 221.292 291.866 219.63 291.584 216.876C291.302 214.122 292.184 211.224 294.248 210.564C295.964 210.127 297.727 209.893 299.498 209.868Z" fill="#37474F"/>
<path d="M266.36 130.32C263.084 130.698 262.55 135.522 261.866 138.42C261.182 141.318 257 148.866 257.6 151.686C258.2 154.506 260.654 155.928 261.854 154.83C261.854 154.83 260.804 159.366 260.75 161.334C260.696 163.302 258.464 165.246 255.764 163.692C253.064 162.138 249.92 156.432 250.364 152.154C250.808 147.876 253.04 145.08 254.702 141.912C256.364 138.744 255.752 136.734 256.466 134.058C257.18 131.382 259.046 128.988 261.2 129.102C262.962 129.304 264.694 129.712 266.36 130.32Z" fill="#37474F"/>
<path d="M315.8 111.966C310.538 114.312 305.906 120.798 304.628 127.182C303.35 133.566 303.578 135.216 302.336 139.95C301.094 144.684 299.336 154.212 299.336 154.212C299.336 154.212 296 150 292.4 147.474C288.8 144.948 283.964 141.828 283.964 141.828C283.964 141.828 282.128 141.39 279.164 145.56C276.536 149.28 277.064 152.16 277.064 152.16C277.064 152.16 287.3 165.528 290.12 169.524C292.94 173.52 298.724 180.924 305.798 180.468C312.29 180.06 314.894 176.202 319.07 167.988C323.246 159.774 325.4 155.34 325.4 155.34L330.2 172.8C330.2 172.8 325.064 175.38 322.052 179.322C319.04 183.264 305.456 203.046 305.456 203.046C305.456 203.046 304.766 206.79 308.366 210.288C311.966 213.786 314.156 213.888 314.156 213.888C314.156 213.888 334.814 197.202 341.396 192.084C347.978 186.966 352.112 182.814 353.024 177.99C353.936 173.166 353.888 165.954 353.696 159.864C353.504 153.774 351.254 127.398 351.254 127.398L315.8 111.966Z" fill="#455A64"/>
<path d="M319.154 153.636C318.03 157.459 316.679 161.211 315.11 164.874C313.532 168.51 311.63 172.074 308.972 174.99C307.66 176.469 306.103 177.711 304.37 178.662C303.453 179.151 302.485 179.537 301.484 179.814L301.82 179.928C302.753 179.704 303.662 179.387 304.532 178.98C306.346 178.07 307.989 176.852 309.386 175.38C310.78 173.914 312.001 172.291 313.022 170.544C314.053 168.803 314.975 167 315.782 165.144C317.341 161.436 318.648 157.628 319.694 153.744C320.768 149.886 321.674 145.986 322.478 142.068L320.84 147.84C320.308 149.8 319.746 151.732 319.154 153.636Z" fill="#37474F"/>
<path d="M297.578 152.196C297.14 155.334 296.546 162.48 299.228 167.274C298.526 164.922 298.562 158.508 299.288 154.212C299.288 154.2 298.628 153.36 297.578 152.196Z" fill="#37474F"/>
<path d="M286.106 143.262L283.52 141.528C282.366 141.711 281.272 142.165 280.327 142.852C279.382 143.539 278.613 144.441 278.084 145.482C277.041 147.454 276.501 149.653 276.512 151.884L278.726 154.284C278.738 151.655 279.42 149.072 280.706 146.778C281.235 145.783 282.008 144.939 282.953 144.324C283.897 143.709 284.982 143.344 286.106 143.262Z" fill="#37474F"/>
<path d="M329.96 147.468C332.12 157.254 335.36 173.232 334.928 174.426C334.718 174.864 334.058 175.284 333.056 175.926C329.407 178.2 326.184 181.095 323.534 184.482C319.886 188.958 309.656 203.298 306.47 207.768C306.596 207.996 306.734 208.224 306.884 208.458C309.818 204.324 320.39 189.498 324.104 184.944C326.705 181.619 329.869 178.776 333.452 176.544C334.556 175.836 335.288 175.344 335.588 174.744C336.338 173.184 331.628 151.614 330.674 147.306L329.96 147.468Z" fill="#37474F"/>
<path d="M307.196 200.496C307.196 200.496 307.652 205.296 310.58 207.864C312.514 209.465 314.733 210.686 317.12 211.464L313.898 214.23C311.446 213.57 309.231 212.231 307.508 210.366C305.927 208.502 304.89 206.24 304.508 203.826L307.196 200.496Z" fill="#37474F"/>
<path d="M348.062 154.854C348.727 159.424 349.06 164.036 349.058 168.654C349.055 170.969 348.905 173.282 348.608 175.578C348.35 177.907 347.758 180.186 346.85 182.346C346.324 183.402 345.667 184.388 344.894 185.28C344.534 185.736 344.15 186.174 343.766 186.606C343.382 187.038 342.992 187.47 342.596 187.89C341.012 189.576 339.392 191.22 337.706 192.798C334.366 195.974 330.928 199.042 327.392 202.002L332.384 197.202C334.048 195.602 335.692 193.992 337.316 192.372C338.93 190.74 340.556 189.114 342.116 187.416C342.506 186.996 342.89 186.57 343.262 186.138C343.634 185.706 344.012 185.274 344.36 184.824C345.087 183.967 345.706 183.024 346.202 182.016C347.095 179.928 347.687 177.724 347.96 175.47C348.262 173.199 348.445 170.914 348.506 168.624C348.584 166.332 348.56 164.028 348.464 161.73C348.368 159.432 348.23 157.152 348.062 154.854Z" fill="#37474F"/>
<path d="M295.652 159.6C292.376 156.084 284.156 148.2 280.124 144.336C279.974 144.516 279.818 144.702 279.662 144.936C283.7 148.794 291.866 156.63 295.118 160.122C297.314 162.48 299.168 163.644 300.638 163.602C300.789 163.597 300.94 163.579 301.088 163.548C301.575 163.413 302.017 163.15 302.367 162.786C302.718 162.422 302.964 161.97 303.08 161.478C303.86 159.162 306.638 148.632 308.912 136.314C309.122 135.15 309.332 134.082 309.512 133.08C309.959 133.116 310.408 133.128 310.856 133.116C313.504 133.067 316.037 132.027 317.954 130.2C320.66 127.65 322.256 123.486 322.154 119.334H321.416C321.542 123.282 320.03 127.23 317.474 129.642C316.442 130.603 315.218 131.336 313.884 131.793C312.549 132.25 311.133 132.421 309.728 132.294C311.696 123.33 313.874 120.546 320.414 114.42L319.916 113.886C312.464 120.858 310.49 123.744 308.21 136.122C305.93 148.5 303.182 158.892 302.408 161.19C302.323 161.557 302.144 161.895 301.89 162.172C301.635 162.45 301.314 162.657 300.956 162.774C300.068 162.978 298.442 162.6 295.652 159.6Z" fill="#37474F"/>
<path d="M325.4 155.34L331.13 142.326C331.13 142.326 339.53 142.272 343.394 137.652C339.662 145.242 332.522 144.852 332.522 144.852L328.064 155.514L330.2 172.8L325.4 155.34Z" fill="#37474F"/>
<path d="M357.284 81.444C359.894 82.17 362.222 82.842 364.58 83.7C372.038 86.4 386.276 85.362 386.276 85.362C386.276 85.362 404.54 76.332 406.238 75.6C407.936 74.868 410.576 72.564 412.94 70.668C415.304 68.772 417.14 67.176 418.238 66.864C419.336 66.552 420.638 66.528 423.638 66.744C425.234 66.858 427.412 66.984 429.332 67.272C430.791 67.5274 432.234 67.87 433.652 68.298C434.54 68.544 434.138 70.182 431.504 70.002C429.41 69.858 426.662 70.002 426.662 70.002C426.662 70.002 428.39 71.052 427.592 72.48C426.794 73.908 428.006 73.56 427.352 74.598C426.698 75.636 427.736 76.638 426.752 77.436C425.768 78.234 426.788 78.948 425.732 79.752C424.676 80.556 423.554 80.286 422.228 79.83C420.902 79.374 420.356 78.804 419.306 79.752C418.256 80.7 417.104 82.152 414.506 82.434C411.908 82.716 409.472 85.08 404.366 88.962C398.654 93.306 395.426 95.718 392.228 97.788C390.176 99.114 389.144 99.198 385.628 99.27L354.65 99.87L357.284 81.444Z" fill="#FFA8A7"/>
<path d="M413.342 78.2821C413.88 77.6107 414.343 76.8824 414.722 76.1101C415.094 75.2943 415.627 74.5618 416.288 73.9561C417.764 72.7981 419.612 72.5881 421.088 71.8921C421.44 71.7539 421.76 71.5446 422.027 71.2772C422.294 71.0098 422.504 70.6901 422.642 70.3381C422.684 70.2033 422.684 70.0588 422.642 69.9241C422.582 69.8221 422.57 69.7861 422.372 69.7321C421.976 69.657 421.574 69.6268 421.172 69.6421L418.586 69.7381C418.149 69.7442 417.712 69.7201 417.278 69.6661C417.057 69.6403 416.84 69.5899 416.63 69.5161C416.438 69.4441 416.18 69.3061 416.186 69.0721C416.222 69.2941 416.468 69.3661 416.66 69.4081C416.867 69.4491 417.078 69.4692 417.29 69.4681C417.715 69.4652 418.14 69.4351 418.562 69.3781C419.42 69.2821 420.266 69.1561 421.142 69.0721C421.599 69.0005 422.065 69.0005 422.522 69.0721C422.678 69.0986 422.826 69.1619 422.954 69.2568C423.081 69.3518 423.184 69.4756 423.254 69.6181C423.368 69.8893 423.393 70.1897 423.326 70.4761C423.174 70.9385 422.924 71.3624 422.592 71.7188C422.261 72.0751 421.856 72.3553 421.406 72.5401C419.744 73.2901 417.998 73.4641 416.642 74.3821C415.989 74.9006 415.444 75.5429 415.04 76.2721C414.567 77.0157 413.996 77.6918 413.342 78.2821Z" fill="#F28F8F"/>
<path d="M423.398 72.6481L423.596 72.4621L424.394 71.7301C424.233 71.7115 424.071 71.7452 423.932 71.8261C423.203 72.0529 422.57 72.515 422.132 73.1401C422.04 73.3178 422.004 73.5186 422.026 73.7171C422.048 73.9157 422.129 74.1032 422.258 74.2561C422.365 74.3938 422.493 74.5151 422.636 74.6161C422.723 74.669 422.813 74.7171 422.906 74.7601C422.682 74.9531 422.512 75.2013 422.414 75.4801C422.305 75.875 422.319 76.2938 422.456 76.6801C422.529 76.8845 422.637 77.0751 422.774 77.2441C422.816 77.2969 422.862 77.347 422.912 77.3941C422.857 77.4659 422.813 77.5446 422.78 77.6281C422.692 77.8086 422.647 78.0066 422.647 78.2071C422.647 78.4076 422.692 78.6055 422.78 78.7861C422.855 78.9498 422.952 79.1031 423.068 79.2421C423.11 79.2841 423.506 79.4581 423.494 79.3561C423.464 79.2209 423.414 79.0913 423.344 78.9721C423.245 78.7142 423.235 78.431 423.316 78.167C423.396 77.9029 423.562 77.6732 423.788 77.5141C423.818 77.4981 423.844 77.4729 423.86 77.4421C423.86 77.3701 423.824 77.2981 423.764 77.2501C423.546 77.0926 423.374 76.8817 423.262 76.6378C423.151 76.3939 423.104 76.1252 423.128 75.8581C423.192 75.5956 423.331 75.3578 423.53 75.1741C423.614 75.0841 423.776 74.9281 423.752 74.7901C423.728 74.6521 423.53 74.5921 423.416 74.5201C423.241 74.4373 423.085 74.3187 422.96 74.1721C422.872 74.0249 422.826 73.8571 422.826 73.6861C422.826 73.5151 422.872 73.3472 422.96 73.2001C423.076 72.9944 423.224 72.8082 423.398 72.6481Z" fill="#F28F8F"/>
<path d="M365.474 91.6741C364.017 88.2854 362.125 85.1007 359.846 82.2001L357.284 81.4741C358.304 88.1521 346.646 85.1341 342.206 78.9241C340.34 79.2481 338.168 78.3241 335.906 78.2161C333.644 78.1081 332.18 78.3061 330.242 79.5301C326.732 81.7561 326.426 86.0581 326.294 89.8201C326.222 92.0941 326.192 94.3381 326 96.6061C325.784 99.2101 325.508 102.702 323.882 104.622C322.082 106.758 316.436 110.856 313.634 112.002C315.362 125.436 340.256 135.57 352.178 130.038C353.431 126.515 354.209 122.841 354.494 119.112C356.028 116.336 357.292 113.418 358.268 110.4C361.31 109.524 365.192 108.198 366.854 103.758C368 100.8 368 97.5481 365.474 91.6741Z" fill="#BA68C8"/>
<path d="M368.18 67.386C367.922 68.124 367.58 68.856 367.346 69.588C367.112 70.32 367.034 71.202 366.818 71.988C366.431 73.5593 365.686 75.0196 364.64 76.254C363.023 77.9435 360.803 78.9249 358.466 78.984C356.134 79.0261 353.833 78.4462 351.8 77.304C350.282 76.488 348.998 75.738 347.228 75.768C345.334 75.8185 343.445 75.5383 341.648 74.94C340.654 74.6457 339.734 74.1447 338.948 73.47C338.561 73.1352 338.252 72.719 338.045 72.2512C337.838 71.7835 337.736 71.2756 337.748 70.764C337.458 71.1188 337.253 71.5352 337.149 71.9814C337.045 72.4276 337.044 72.8917 337.148 73.338C335.667 72.6586 334.51 71.4299 333.92 69.912C333.352 68.4134 333.268 66.7748 333.68 65.226C334.016 63.876 334.85 62.478 336.236 62.178C335.086 61.769 333.829 61.7839 332.69 62.22C331.718 62.556 330.152 63.696 330.218 64.71C330.051 63.7292 330.171 62.721 330.565 61.8073C330.959 60.8937 331.61 60.1138 332.438 59.562C333.716 58.734 335.288 58.5 336.71 57.954C338.576 57.234 339.32 56.112 339.74 54.282C340.376 51.516 341.81 48.72 344.888 48.432C345.11 46.032 347.288 43.956 349.466 43.182C354.332 41.448 360.62 41.934 365.33 43.98C370.91 46.38 372.8 50.04 374.066 51.258C375.469 52.6037 377.329 53.3688 379.274 53.4C378.097 53.8033 376.844 53.933 375.61 53.7791C374.376 53.6252 373.193 53.1919 372.152 52.512C372.997 52.9831 373.638 53.7504 373.952 54.666C374.371 55.8204 374.419 57.0768 374.09 58.2599C373.761 59.4431 373.071 60.494 372.116 61.266C372.292 60.3767 372.29 59.461 372.107 58.5727C371.925 57.6845 371.567 56.8417 371.054 56.094C371.532 57.2247 371.629 58.4804 371.33 59.6712C371.031 60.8619 370.353 61.923 369.398 62.694C369.082 64.2802 368.676 65.8469 368.18 67.386Z" fill="#37474F"/>
<path d="M369.398 59.49C369.398 58.464 369.278 57.462 369.182 56.442C368.09 50.958 365.33 50.712 363.248 51.876C362.611 52.2584 361.886 52.4673 361.144 52.4821C360.402 52.4968 359.669 52.3168 359.018 51.96C357.554 51.09 356.24 51.072 354.602 51.474C352.202 52.074 350.432 53.916 349.928 56.826C349.928 56.826 349.46 60.024 349.328 60.702C349.286 61.0841 349.167 61.4538 348.978 61.7885C348.789 62.1231 348.534 62.4156 348.228 62.6481C347.921 62.8806 347.571 63.0482 347.198 63.1407C346.825 63.2332 346.437 63.2486 346.058 63.186C344.9 60.618 341.54 60.048 339.74 61.764C337.94 63.48 338.582 66.816 340.76 68.85C343.406 71.31 345.056 69.804 345.056 69.804L344.39 75.954C344.393 76.0159 344.393 76.078 344.39 76.14C344.204 77.814 344.144 78.972 342.206 78.894C342.854 81.96 345.524 88.41 354.89 88.368C361.316 88.338 357.29 81.444 357.29 81.444C357.29 81.444 356.66 81.27 356.864 79.644L357.152 77.124C359.666 77.862 361.544 77.802 363.062 77.328C365.594 76.53 368.012 74.448 369.02 65.574C369.277 63.5563 369.403 61.524 369.398 59.49Z" fill="#FFA8A7"/>
<path d="M367.874 59.172L365.6 57.6C365.694 57.4466 365.819 57.3139 365.966 57.2102C366.113 57.1065 366.28 57.0339 366.456 56.9969C366.633 56.9598 366.815 56.9591 366.991 56.9947C367.168 57.0303 367.335 57.1015 367.484 57.204C367.789 57.4189 368.001 57.7433 368.073 58.1098C368.146 58.4764 368.074 58.8568 367.874 59.172Z" fill="#263238"/>
<path d="M355.73 57.132L353.564 58.854C353.446 58.718 353.357 58.5596 353.301 58.3883C353.246 58.217 353.226 58.0363 353.242 57.857C353.259 57.6778 353.311 57.5036 353.396 57.345C353.481 57.1864 353.597 57.0467 353.738 56.934C354.032 56.7066 354.403 56.6003 354.773 56.6372C355.143 56.674 355.486 56.851 355.73 57.132Z" fill="#263238"/>
<path d="M360.421 59.916L360.979 67.584L365.137 66.012L360.421 59.916Z" fill="#F28F8F"/>
<path d="M357.146 77.136C349.982 75.036 348.572 72.894 347.726 70.536C347.726 70.536 347.558 73.794 350.048 75.66C352.652 77.61 356.948 78.87 356.948 78.87L357.146 77.136Z" fill="#F28F8F"/>
<path d="M357.703 61.9081C357.712 62.1597 357.645 62.4082 357.512 62.6219C357.379 62.8356 357.185 63.0051 356.956 63.1087C356.726 63.2124 356.471 63.2456 356.223 63.2042C355.975 63.1629 355.744 63.0487 355.561 62.8762C355.377 62.7037 355.249 62.4807 355.193 62.2353C355.136 61.99 355.154 61.7334 355.243 61.498C355.332 61.2626 355.49 61.059 355.695 60.9131C355.9 60.7671 356.144 60.6853 356.395 60.6781C356.562 60.6725 356.728 60.6999 356.885 60.7588C357.041 60.8176 357.184 60.9068 357.305 61.0211C357.427 61.1354 357.525 61.2726 357.593 61.4248C357.661 61.5771 357.699 61.7413 357.703 61.9081Z" fill="#263238"/>
<path d="M366.974 62.1901C366.982 62.4415 366.915 62.6896 366.782 62.9032C366.649 63.1168 366.456 63.2862 366.227 63.39C365.998 63.4938 365.743 63.5273 365.495 63.4864C365.247 63.4455 365.017 63.3319 364.833 63.16C364.649 62.9881 364.521 62.7656 364.464 62.5207C364.406 62.2758 364.423 62.0194 364.511 61.7839C364.6 61.5485 364.756 61.3446 364.961 61.1979C365.165 61.0513 365.408 60.9685 365.66 60.9601C365.827 60.9545 365.993 60.9818 366.15 61.0406C366.306 61.0994 366.449 61.1885 366.571 61.3027C366.693 61.417 366.792 61.5541 366.861 61.7064C366.93 61.8586 366.968 62.023 366.974 62.1901Z" fill="#263238"/>
<path d="M359.666 70.482C359.384 71.214 358.934 70.722 358.244 70.482C357.554 70.242 356.894 70.284 357.176 69.552C357.227 69.3741 357.315 69.2088 357.434 69.0666C357.552 68.9244 357.699 68.8084 357.865 68.7259C358.031 68.6434 358.212 68.5962 358.397 68.5873C358.582 68.5785 358.767 68.6081 358.94 68.6744C359.113 68.7406 359.27 68.8421 359.402 68.9723C359.533 69.1025 359.637 69.2586 359.705 69.4308C359.773 69.603 359.805 69.7874 359.798 69.9725C359.791 70.1576 359.746 70.3393 359.666 70.506V70.482Z" fill="#B16668"/>
<path d="M341.942 115.2L341.342 95.808C341.312 88.926 339.812 79.074 333.47 78.282C323.87 79.542 325.904 92.394 326.462 100.98C327.02 109.566 327.062 113.472 327.452 117.048C327.884 121.032 328.052 122.304 332.636 125.448C337.346 128.694 351.794 137.94 353.354 139.668C354.914 141.396 356.918 143.808 359.018 146.214C359.798 147.108 360.914 148.014 362.174 147.732C362.505 147.621 362.851 147.557 363.2 147.54C363.681 147.665 364.131 147.89 364.52 148.2C364.887 148.397 365.294 148.506 365.711 148.52C366.127 148.533 366.541 148.451 366.92 148.278C367.628 147.954 368.27 146.826 369.05 146.868C369.269 146.894 369.486 146.938 369.698 147C370.46 147.168 370.982 147.534 371.756 147.468C372.613 147.358 373.433 147.054 374.156 146.58C375.291 145.762 376.383 144.885 377.426 143.952C377.966 143.454 377.138 142.422 376.094 142.668C375.084 142.909 374.115 143.3 373.22 143.826C372.122 143.623 371.052 143.289 370.034 142.83C368.882 142.145 367.946 141.149 367.334 139.956C367.148 139.536 368.534 140.118 369.536 140.67C370.588 141.191 371.762 141.415 372.932 141.318C374.324 141.048 374.27 140.364 374.078 139.974C373.886 139.584 371.744 138.858 370.532 137.646C369.164 136.284 367.376 134.646 365.06 134.046C362.744 133.446 360.566 133.05 359.06 131.646C357.554 130.242 341.942 115.2 341.942 115.2Z" fill="#FFA8A7"/>
<path opacity="0.2" d="M289.4 238.716C289.511 238.656 289.595 238.557 289.636 238.437C289.677 238.318 289.67 238.188 289.619 238.073C289.567 237.958 289.473 237.867 289.357 237.818C289.241 237.769 289.11 237.766 288.992 237.81L279.932 240.72C279.805 240.761 279.7 240.85 279.639 240.968C279.579 241.086 279.567 241.224 279.608 241.35C279.648 241.477 279.738 241.582 279.856 241.643C279.974 241.703 280.111 241.715 280.238 241.674L289.298 238.758L289.4 238.716ZM289.4 234L280.118 231.924C279.994 231.909 279.869 231.94 279.766 232.012C279.664 232.084 279.592 232.191 279.565 232.313C279.537 232.435 279.556 232.562 279.617 232.671C279.678 232.78 279.777 232.862 279.896 232.902L289.184 234.978C289.248 234.993 289.315 234.995 289.38 234.984C289.445 234.973 289.507 234.95 289.563 234.915C289.619 234.879 289.667 234.833 289.705 234.779C289.743 234.725 289.77 234.664 289.784 234.6C289.812 234.47 289.788 234.333 289.716 234.221C289.644 234.108 289.53 234.029 289.4 234ZM290.516 240.222L285.2 248.142C285.126 248.253 285.1 248.388 285.126 248.518C285.151 248.649 285.228 248.764 285.338 248.838C285.417 248.889 285.51 248.917 285.605 248.917C285.7 248.917 285.792 248.889 285.872 248.838C285.935 248.801 285.988 248.75 286.028 248.688L291.338 240.792C291.412 240.682 291.439 240.548 291.414 240.418C291.388 240.288 291.313 240.173 291.203 240.099C291.093 240.025 290.958 239.998 290.828 240.023C290.698 240.048 290.584 240.124 290.51 240.234L290.516 240.222Z" fill="black"/>
<path d="M343.226 42.414C343.303 42.5758 343.314 42.7614 343.255 42.9308C343.197 43.1002 343.074 43.24 342.914 43.32L340.058 44.724C339.977 44.7624 339.889 44.7823 339.8 44.7823C339.711 44.7823 339.623 44.7624 339.542 44.724C339.456 44.697 339.377 44.6528 339.309 44.594C339.241 44.5351 339.185 44.463 339.146 44.382L338 42.126C337.964 42.0437 337.946 41.9549 337.946 41.865C337.946 41.7752 337.964 41.6864 338 41.604C338.028 41.5195 338.073 41.4414 338.131 41.3744C338.19 41.3074 338.262 41.2529 338.342 41.214L341.192 39.816C341.272 39.7748 341.36 39.7503 341.449 39.7441C341.539 39.7379 341.629 39.7501 341.714 39.78C341.798 39.8084 341.876 39.8532 341.943 39.9119C342.01 39.9706 342.065 40.042 342.104 40.122L343.226 42.414ZM340.826 37.542C340.866 37.6224 340.89 37.7102 340.895 37.7999C340.9 37.8897 340.887 37.9796 340.856 38.064C340.829 38.1491 340.785 38.2276 340.726 38.2948C340.667 38.3619 340.595 38.4161 340.514 38.454L337.664 39.858C337.497 39.927 337.309 39.927 337.142 39.858C337.056 39.832 336.977 39.788 336.91 39.729C336.843 39.6701 336.789 39.5975 336.752 39.516L331.952 29.754C331.913 29.6744 331.89 29.5877 331.885 29.4991C331.88 29.4105 331.892 29.3217 331.922 29.238C331.949 29.1522 331.993 29.0728 332.052 29.0047C332.111 28.9366 332.183 28.8813 332.264 28.842L335.12 27.444C335.201 27.4057 335.289 27.3857 335.378 27.3857C335.467 27.3857 335.555 27.4057 335.636 27.444C335.721 27.4707 335.8 27.5141 335.868 27.5719C335.936 27.6296 335.992 27.7004 336.032 27.78L340.826 37.542Z" fill="#BA68C8"/>
<g opacity="0.5">
<path d="M343.226 42.414C343.303 42.5758 343.314 42.7614 343.255 42.9308C343.197 43.1002 343.074 43.24 342.914 43.32L340.058 44.724C339.977 44.7624 339.889 44.7823 339.8 44.7823C339.711 44.7823 339.623 44.7624 339.542 44.724C339.456 44.697 339.377 44.6528 339.309 44.594C339.241 44.5351 339.185 44.463 339.146 44.382L338 42.126C337.964 42.0437 337.946 41.9549 337.946 41.865C337.946 41.7752 337.964 41.6864 338 41.604C338.028 41.5195 338.073 41.4414 338.131 41.3744C338.19 41.3074 338.262 41.2529 338.342 41.214L341.192 39.816C341.272 39.7748 341.36 39.7503 341.449 39.7441C341.539 39.7379 341.629 39.7501 341.714 39.78C341.798 39.8084 341.876 39.8532 341.943 39.9119C342.01 39.9706 342.065 40.042 342.104 40.122L343.226 42.414ZM340.826 37.542C340.866 37.6224 340.89 37.7102 340.895 37.7999C340.9 37.8897 340.887 37.9796 340.856 38.064C340.829 38.1491 340.785 38.2276 340.726 38.2948C340.667 38.3619 340.595 38.4161 340.514 38.454L337.664 39.858C337.497 39.927 337.309 39.927 337.142 39.858C337.056 39.832 336.977 39.788 336.91 39.729C336.843 39.6701 336.789 39.5975 336.752 39.516L331.952 29.754C331.913 29.6744 331.89 29.5877 331.885 29.4991C331.88 29.4105 331.892 29.3217 331.922 29.238C331.949 29.1522 331.993 29.0728 332.052 29.0047C332.111 28.9366 332.183 28.8813 332.264 28.842L335.12 27.444C335.201 27.4057 335.289 27.3857 335.378 27.3857C335.467 27.3857 335.555 27.4057 335.636 27.444C335.721 27.4707 335.8 27.5141 335.868 27.5719C335.936 27.6296 335.992 27.7004 336.032 27.78L340.826 37.542Z" fill="white"/>
</g>
<path d="M337.598 48.864C337.661 48.9278 337.71 49.0039 337.742 49.0876C337.774 49.1712 337.788 49.2606 337.784 49.35C337.784 49.4402 337.765 49.5292 337.729 49.6118C337.692 49.6943 337.64 49.7686 337.574 49.83L335.27 52.014C335.206 52.077 335.13 52.126 335.046 52.158C334.963 52.19 334.873 52.2043 334.784 52.2C334.694 52.1997 334.605 52.1808 334.522 52.1447C334.44 52.1086 334.365 52.056 334.304 51.99L332.552 50.142C332.49 50.0775 332.442 50.0012 332.41 49.9178C332.378 49.8343 332.363 49.7454 332.366 49.656C332.382 49.4795 332.466 49.316 332.6 49.2L334.91 47.016C334.974 46.9531 335.05 46.9041 335.133 46.8721C335.217 46.8401 335.306 46.8258 335.396 46.83C335.485 46.8316 335.573 46.851 335.654 46.887C335.736 46.9231 335.809 46.9751 335.87 47.04L337.598 48.864ZM333.866 44.928C333.988 45.0599 334.055 45.2341 334.052 45.414C334.05 45.5039 334.031 45.5926 333.995 45.6749C333.959 45.7573 333.907 45.8318 333.842 45.894L331.538 48.078C331.409 48.2045 331.236 48.2753 331.055 48.2753C330.874 48.2753 330.701 48.2045 330.572 48.078L323.09 40.164C323.024 40.1022 322.974 40.0264 322.941 39.9423C322.909 39.8581 322.896 39.7678 322.904 39.678C322.904 39.5888 322.923 39.5007 322.959 39.4191C322.996 39.3376 323.048 39.2643 323.114 39.204L325.4 37.014C325.465 36.9531 325.541 36.9057 325.625 36.8748C325.708 36.8439 325.797 36.83 325.886 36.834C325.976 36.8326 326.065 36.85 326.148 36.8851C326.23 36.9202 326.305 36.9724 326.366 37.038L333.866 44.928Z" fill="#BA68C8"/>
<g opacity="0.2">
<path d="M337.598 48.864C337.661 48.9278 337.71 49.0039 337.742 49.0876C337.774 49.1712 337.788 49.2606 337.784 49.35C337.784 49.4402 337.765 49.5292 337.729 49.6118C337.692 49.6943 337.64 49.7686 337.574 49.83L335.27 52.014C335.206 52.077 335.13 52.126 335.046 52.158C334.963 52.19 334.873 52.2043 334.784 52.2C334.694 52.1997 334.605 52.1808 334.522 52.1447C334.44 52.1086 334.365 52.056 334.304 51.99L332.552 50.142C332.49 50.0775 332.442 50.0012 332.41 49.9178C332.378 49.8343 332.363 49.7454 332.366 49.656C332.382 49.4795 332.466 49.316 332.6 49.2L334.91 47.016C334.974 46.9531 335.05 46.9041 335.133 46.8721C335.217 46.8401 335.306 46.8258 335.396 46.83C335.485 46.8316 335.573 46.851 335.654 46.887C335.736 46.9231 335.809 46.9751 335.87 47.04L337.598 48.864ZM333.866 44.928C333.988 45.0599 334.055 45.2341 334.052 45.414C334.05 45.5039 334.031 45.5926 333.995 45.6749C333.959 45.7573 333.907 45.8318 333.842 45.894L331.538 48.078C331.409 48.2045 331.236 48.2753 331.055 48.2753C330.874 48.2753 330.701 48.2045 330.572 48.078L323.09 40.164C323.024 40.1022 322.974 40.0264 322.941 39.9423C322.909 39.8581 322.896 39.7678 322.904 39.678C322.904 39.5888 322.923 39.5007 322.959 39.4191C322.996 39.3376 323.048 39.2643 323.114 39.204L325.4 37.014C325.465 36.9531 325.541 36.9057 325.625 36.8748C325.708 36.8439 325.797 36.83 325.886 36.834C325.976 36.8326 326.065 36.85 326.148 36.8851C326.23 36.9202 326.305 36.9724 326.366 37.038L333.866 44.928Z" fill="white"/>
</g>
<path d="M436.136 77.658C436.538 88.83 440.936 100.542 450.464 105.534C453.696 103.558 456.781 101.352 459.698 98.934C464.216 95.094 465.446 87.774 465.446 87.774C465.446 87.774 455.912 83.814 456.086 65.208L436.136 77.658Z" fill="#EBEBEB"/>
<path d="M459.698 98.934C463.256 95.19 464.528 90.342 464.21 85.35C464.21 85.35 466.364 86.508 466.754 87.642C466.754 87.642 466.652 93.45 459.698 98.934Z" fill="#F5F5F5"/>
<path d="M422.186 57.8339C415.052 61.8779 404.294 58.9739 404.294 58.9739L424.16 49.7339C424.16 49.7339 431.552 52.3799 441.668 46.4879L422.186 57.8339Z" fill="#F0F0F0"/>
<path d="M422.186 57.834C428.948 53.634 430.628 45.474 430.25 42.774L446.888 33.444C446.226 38.1495 444.435 42.6249 441.668 46.488L422.186 57.834Z" fill="#E0E0E0"/>
<path d="M426.332 59.9459C435.146 57.3419 444.884 67.4099 449.66 76.7939L469.034 64.2299C469.034 64.2299 457.442 46.2839 446.282 48.8399L426.332 59.9459Z" fill="#F5F5F5"/>
<defs>
<filter id="filter0_d_693_3401" x="143.768" y="119.922" width="388.464" height="243.972" filterUnits="userSpaceOnUse" color-interpolation-filters="sRGB">
<feFlood flood-opacity="0" result="BackgroundImageFix"/>
<feColorMatrix in="SourceAlpha" type="matrix" values="0 0 0 0 0 0 0 0 0 0 0 0 0 0 0 0 0 0 127 0" result="hardAlpha"/>
<feOffset dy="24"/>
<feGaussianBlur stdDeviation="24"/>
<feComposite in2="hardAlpha" operator="out"/>
<feColorMatrix type="matrix" values="0 0 0 0 0 0 0 0 0 0 0 0 0 0 0 0 0 0 0.08 0"/>
<feBlend mode="normal" in2="BackgroundImageFix" result="effect1_dropShadow_693_3401"/>
<feBlend mode="normal" in="SourceGraphic" in2="effect1_dropShadow_693_3401" result="shape"/>
</filter>
</defs>
</svg>
