<svg width="1404" height="828" viewBox="0 0 1404 828" fill="none" xmlns="http://www.w3.org/2000/svg">
<line x1="285" y1="198.372" x2="1170" y2="198.372" stroke="#F6B9D5" stroke-opacity="0.5" stroke-width="2"/>
<path d="M269.5 493.372C269.5 493.372 297.098 453.546 317.5 430.872C530.161 194.538 936.458 790.361 1125 534.372C1189.09 447.361 1198.59 380.383 1202 272.372C1202 272.372 1195.82 130.06 1227.5 59.8717C1254.32 0.444859 1315 -9.65262 1357.5 10.3716C1400 30.3959 1408.5 89.8717 1400 110.872C1391.5 131.872 1387 196.372 1169.5 198.372" stroke="#F6B9D5" stroke-opacity="0.5" stroke-width="2"/>
<path d="M285 198.347C285 198.347 50.4219 202.825 7 91.3716" stroke="#F6B9D5" stroke-opacity="0.5" stroke-width="2"/>
<path d="M245.033 533.626C245.172 534.16 245.719 534.48 246.253 534.34L254.96 532.063C255.494 531.923 255.814 531.377 255.675 530.842C255.535 530.308 254.988 529.988 254.454 530.128L246.714 532.152L244.69 524.412C244.55 523.878 244.004 523.558 243.47 523.698C242.935 523.838 242.616 524.384 242.755 524.918L245.033 533.626ZM269.137 491.867L245.137 532.867L246.863 533.878L270.863 492.878L269.137 491.867Z" fill="#F6B9D5" fill-opacity="0.5"/>
<g filter="url(#filter0_d_3615_2237)">
<path d="M162.044 755.683C224.527 755.683 275.18 726.437 275.18 690.361C275.18 654.285 224.527 625.039 162.044 625.039C99.5605 625.039 48.9077 654.285 48.9077 690.361C48.9077 726.437 99.5605 755.683 162.044 755.683Z" fill="#F5F5F5"/>
</g>
<path d="M80.4294 731.687L78.8908 730.781C78.636 730.613 78.424 730.387 78.2717 730.123C78.1195 729.858 78.0311 729.562 78.0137 729.257V615.219C78.0318 614.915 78.1206 614.62 78.2728 614.356C78.4251 614.093 78.6366 613.868 78.8908 613.7L149.647 572.844C149.92 572.707 150.221 572.636 150.526 572.636C150.832 572.636 151.133 572.707 151.406 572.844L152.944 573.736C153.2 573.903 153.412 574.127 153.565 574.391C153.718 574.655 153.808 574.951 153.826 575.255V689.312C153.808 689.617 153.719 689.914 153.566 690.179C153.413 690.443 153.2 690.669 152.944 690.836L82.1885 731.687C81.9155 731.825 81.6143 731.896 81.3089 731.896C81.0035 731.896 80.7023 731.825 80.4294 731.687V731.687Z" fill="#37474F"/>
<path d="M153.817 575.113C153.753 574.662 153.386 574.495 152.945 574.75L82.1886 615.602C81.9285 615.762 81.7141 615.986 81.5663 616.253L78.2686 614.352C78.4178 614.086 78.6319 613.862 78.8909 613.7L149.647 572.844C149.92 572.707 150.221 572.636 150.526 572.636C150.832 572.636 151.133 572.707 151.406 572.844L152.945 573.736C153.18 573.889 153.38 574.092 153.531 574.329C153.681 574.567 153.779 574.834 153.817 575.113V575.113Z" fill="#455A64"/>
<path d="M82.0317 731.761C82.0156 731.765 81.9988 731.765 81.9827 731.761L81.8896 731.795H81.8553C81.8014 731.795 81.7475 731.825 81.6936 731.839C81.3449 731.907 80.9845 731.88 80.6499 731.761C80.5824 731.737 80.5169 731.707 80.4539 731.673L78.8908 730.781C78.636 730.613 78.424 730.387 78.2717 730.123C78.1195 729.858 78.0311 729.562 78.0137 729.257V615.219C78.0244 614.913 78.1121 614.615 78.2685 614.352L81.5662 616.253C81.4067 616.515 81.3172 616.814 81.3065 617.121V731.183C81.2986 731.347 81.3451 731.509 81.4388 731.643C81.4984 731.711 81.5758 731.762 81.6623 731.789C81.7488 731.815 81.841 731.818 81.9288 731.795L82.0317 731.761Z" fill="#263238"/>
<path d="M106.84 610.643C106.818 610.523 106.763 610.411 106.684 610.319L106.625 610.27C106.578 610.236 106.524 610.213 106.467 610.204C106.41 610.196 106.351 610.202 106.296 610.221C106.253 610.232 106.211 610.25 106.174 610.275C105.956 610.425 105.786 610.634 105.684 610.878C105.553 611.154 105.483 611.455 105.478 611.76C105.458 611.988 105.529 612.215 105.674 612.392C105.739 612.454 105.823 612.492 105.912 612.499C106.002 612.507 106.091 612.483 106.164 612.431C106.269 612.368 106.362 612.287 106.439 612.191C106.508 612.1 106.571 612.003 106.625 611.902C106.775 611.607 106.857 611.282 106.865 610.951C106.868 610.848 106.859 610.745 106.84 610.643ZM118.346 584.932C118.09 584.782 117.799 584.705 117.503 584.707C116.941 584.733 116.394 584.902 115.915 585.197C114.578 586.016 113.545 587.25 112.975 588.71C112.882 588.916 112.794 589.132 112.715 589.342C112.637 589.553 112.554 589.769 112.485 589.989C112.417 590.21 112.338 590.43 112.274 590.651C112.25 590.724 112.23 590.803 112.206 590.871L112.078 591.317C112.081 591.338 112.081 591.36 112.078 591.381C112.005 591.65 111.936 591.93 111.858 592.204C111.819 592.356 111.784 592.498 111.745 592.645L111.633 593.081C111.476 593.664 111.319 594.223 111.143 594.757L111.03 595.08C110.976 595.232 110.922 595.384 110.863 595.531C110.804 595.678 110.77 595.757 110.726 595.859C110.653 596.041 110.574 596.212 110.491 596.379C110.408 596.545 110.388 596.59 110.334 596.692C109.094 599.074 107.58 600.005 106.703 601.23C105.934 602.298 105.723 603.151 104.684 604.841C104.356 605.38 103.944 606.002 103.405 606.747C101.911 608.805 101.377 609.824 101.196 610.442C101.194 610.458 101.194 610.475 101.196 610.491C101.196 610.54 101.196 610.584 101.161 610.628C101.159 610.643 101.159 610.658 101.161 610.672C101.159 610.711 101.159 610.751 101.161 610.79C101.144 610.91 101.136 611.031 101.137 611.152V615.729L102.783 616.68V612.098C102.779 611.859 102.814 611.621 102.886 611.392C103.067 610.775 103.597 609.761 105.096 607.703C105.635 606.953 106.047 606.331 106.375 605.792C107.404 604.106 107.624 603.249 108.394 602.19C109.271 600.96 110.785 600.034 112.025 597.648C112.203 597.281 112.362 596.905 112.5 596.521C113.294 594.561 113.651 591.92 114.626 589.7C115.195 588.241 116.229 587.01 117.566 586.197C118.571 585.618 119.306 585.569 119.869 585.834L118.346 584.932ZM125.563 590.783C125.426 590.705 125.28 590.646 125.127 590.607C124.505 590.46 123.579 590.822 122.648 590.714C123.956 592.405 125.774 591.317 126.774 591.557C126.929 591.595 127.078 591.656 127.215 591.739L125.563 590.783ZM129.052 597.07C129.003 597.1 128.957 597.134 128.915 597.173L128.846 597.241L128.783 597.315C128.508 597.67 128.356 598.105 128.351 598.554C128.335 598.78 128.403 599.004 128.542 599.182C128.561 599.199 128.581 599.216 128.601 599.231C128.647 599.266 128.7 599.288 128.757 599.297C128.813 599.305 128.871 599.3 128.925 599.28C128.97 599.269 129.013 599.251 129.052 599.226C129.101 599.196 129.145 599.157 129.194 599.123C129.265 599.056 129.329 598.982 129.385 598.902C129.619 598.561 129.746 598.159 129.753 597.746C129.753 597.153 129.439 596.844 129.052 597.07V597.07ZM130.13 592.929C129.601 592.634 129.026 592.431 128.43 592.327C128.175 592.268 127.94 592.204 127.749 592.14C128.404 592.724 129.208 593.115 130.071 593.272C130.595 593.374 131.105 593.539 131.59 593.762L130.13 592.929Z" fill="#BA68C8"/>
<path d="M131.723 593.846L131.59 593.767C131.106 593.544 130.596 593.379 130.071 593.277C129.208 593.122 128.404 592.73 127.749 592.145C127.585 591.994 127.406 591.859 127.215 591.744C127.078 591.663 126.929 591.603 126.774 591.567C125.794 591.327 123.956 592.415 122.653 590.724L122.609 590.671C121.697 589.441 121.364 586.697 119.997 585.893L119.86 585.815C119.296 585.55 118.561 585.599 117.557 586.177C113.936 588.27 113.813 593.238 112.51 596.506C111.206 599.775 109.354 600.799 108.35 602.205C107.345 603.611 107.277 604.655 105.047 607.723C102.818 610.79 102.734 611.545 102.734 612.133V616.709L132.389 599.559V594.983C132.407 594.748 132.353 594.513 132.234 594.31C132.115 594.107 131.936 593.945 131.723 593.846V593.846ZM106.174 612.431C105.787 612.657 105.478 612.358 105.478 611.76C105.474 611.478 105.535 611.199 105.656 610.944C105.776 610.69 105.954 610.466 106.174 610.29C106.561 610.065 106.87 610.369 106.87 610.966C106.874 611.248 106.813 611.526 106.692 611.78C106.572 612.034 106.395 612.257 106.174 612.431V612.431ZM117.557 598.643C117.371 598.784 117.154 598.879 116.925 598.92C116.695 598.961 116.459 598.947 116.235 598.878C116.012 598.81 115.809 598.689 115.641 598.526C115.474 598.364 115.348 598.163 115.273 597.942C115.017 597.363 114.895 596.733 114.916 596.1C114.916 593.851 116.097 591.347 117.557 590.504C117.754 590.386 117.969 590.302 118.194 590.254C119.35 590.024 120.198 591.131 120.198 593.047C120.198 595.296 119.017 597.8 117.557 598.643V598.643ZM129.052 599.221C128.665 599.446 128.352 599.148 128.352 598.555C128.349 598.272 128.41 597.993 128.532 597.739C128.653 597.484 128.831 597.26 129.052 597.085C129.439 596.864 129.753 597.163 129.753 597.761C129.756 598.042 129.694 598.319 129.573 598.573C129.451 598.826 129.273 599.048 129.052 599.221V599.221Z" fill="#BA68C8"/>
<path opacity="0.1" d="M131.723 593.846L131.59 593.767C131.106 593.544 130.596 593.379 130.071 593.277C129.208 593.122 128.404 592.73 127.749 592.145C127.585 591.994 127.406 591.859 127.215 591.744C127.078 591.663 126.929 591.603 126.774 591.567C125.794 591.327 123.956 592.415 122.653 590.724L122.609 590.671C121.697 589.441 121.364 586.697 119.997 585.893L119.86 585.815C119.296 585.55 118.561 585.599 117.557 586.177C113.936 588.27 113.813 593.238 112.51 596.506C111.206 599.775 109.354 600.799 108.35 602.205C107.345 603.611 107.277 604.655 105.047 607.723C102.818 610.79 102.734 611.545 102.734 612.133V616.709L132.389 599.559V594.983C132.407 594.748 132.353 594.513 132.234 594.31C132.115 594.107 131.936 593.945 131.723 593.846V593.846ZM106.174 612.431C105.787 612.657 105.478 612.358 105.478 611.76C105.474 611.478 105.535 611.199 105.656 610.944C105.776 610.69 105.954 610.466 106.174 610.29C106.561 610.065 106.87 610.369 106.87 610.966C106.874 611.248 106.813 611.526 106.692 611.78C106.572 612.034 106.395 612.257 106.174 612.431V612.431ZM117.557 598.643C117.371 598.784 117.154 598.879 116.925 598.92C116.695 598.961 116.459 598.947 116.235 598.878C116.012 598.81 115.809 598.689 115.641 598.526C115.474 598.364 115.348 598.163 115.273 597.942C115.017 597.363 114.895 596.733 114.916 596.1C114.916 593.851 116.097 591.347 117.557 590.504C117.754 590.386 117.969 590.302 118.194 590.254C119.35 590.024 120.198 591.131 120.198 593.047C120.198 595.296 119.017 597.8 117.557 598.643V598.643ZM129.052 599.221C128.665 599.446 128.352 599.148 128.352 598.555C128.349 598.272 128.41 597.993 128.532 597.739C128.653 597.484 128.831 597.26 129.052 597.085C129.439 596.864 129.753 597.163 129.753 597.761C129.756 598.042 129.694 598.319 129.573 598.573C129.451 598.826 129.273 599.048 129.052 599.221V599.221Z" fill="black"/>
<path opacity="0.25" d="M102.837 611.412C102.765 611.64 102.73 611.878 102.734 612.118V616.699L101.088 615.749V611.172C101.087 611.051 101.095 610.929 101.112 610.809C101.11 610.77 101.11 610.731 101.112 610.692C101.111 610.677 101.111 610.662 101.112 610.648C101.112 610.604 101.112 610.559 101.147 610.51V610.461L102.837 611.412Z" fill="black"/>
<path opacity="0.25" d="M108.345 602.21C107.576 603.268 107.365 604.126 106.326 605.811L104.685 604.851C105.714 603.161 105.934 602.308 106.703 601.24L108.345 602.21Z" fill="black"/>
<path opacity="0.25" d="M114.636 589.661C113.656 591.881 113.303 594.497 112.51 596.482C112.355 596.879 112.179 597.266 111.98 597.643L110.334 596.697C110.388 596.595 110.442 596.487 110.491 596.384C110.54 596.281 110.652 596.046 110.726 595.864C110.77 595.762 110.819 595.649 110.863 595.536C110.907 595.423 110.976 595.237 111.03 595.085L111.142 594.762C111.319 594.228 111.476 593.669 111.632 593.086L111.745 592.65C111.784 592.503 111.819 592.361 111.858 592.209C111.936 591.935 112.005 591.655 112.078 591.386C112.081 591.365 112.081 591.343 112.078 591.322L112.206 590.876C112.23 590.808 112.25 590.729 112.274 590.656C112.338 590.435 112.412 590.215 112.485 589.994C112.559 589.774 112.632 589.563 112.715 589.347C112.799 589.132 112.882 588.921 112.975 588.715L114.636 589.661Z" fill="black"/>
<path d="M105.679 610.878C105.548 611.154 105.478 611.454 105.473 611.76C105.454 611.988 105.524 612.215 105.669 612.392C105.529 612.213 105.46 611.987 105.478 611.76C105.484 611.455 105.552 611.155 105.679 610.878V610.878ZM106.875 610.951C106.874 610.847 106.863 610.744 106.841 610.643C106.861 610.744 106.871 610.848 106.87 610.951C106.864 611.282 106.784 611.607 106.635 611.902C106.785 611.607 106.867 611.282 106.875 610.951V610.951ZM128.601 599.23C128.647 599.265 128.7 599.288 128.757 599.297C128.813 599.305 128.871 599.299 128.925 599.279C128.871 599.296 128.814 599.301 128.758 599.292C128.701 599.284 128.648 599.263 128.601 599.23V599.23Z" fill="#BA68C8"/>
<path d="M120.203 593.047C120.203 595.296 119.017 597.8 117.557 598.643C117.37 598.779 117.154 598.87 116.925 598.908C116.697 598.946 116.463 598.931 116.242 598.864C116.02 598.796 115.818 598.678 115.65 598.519C115.482 598.36 115.353 598.164 115.273 597.947C115.5 597.898 115.717 597.812 115.915 597.692C117.385 596.844 118.556 594.345 118.556 592.096C118.578 591.462 118.454 590.832 118.194 590.254C119.36 590.023 120.203 591.131 120.203 593.047Z" fill="#BA68C8"/>
<path opacity="0.3" d="M120.203 593.047C120.203 595.296 119.017 597.8 117.557 598.643C117.37 598.779 117.154 598.87 116.925 598.908C116.697 598.946 116.463 598.931 116.242 598.864C116.02 598.796 115.818 598.678 115.65 598.519C115.482 598.36 115.353 598.164 115.273 597.947C115.5 597.898 115.717 597.812 115.915 597.692C117.385 596.844 118.556 594.345 118.556 592.096C118.578 591.462 118.454 590.832 118.194 590.254C119.36 590.023 120.203 591.131 120.203 593.047Z" fill="black"/>
<path d="M106.62 611.902C106.571 612.005 106.51 612.102 106.439 612.191C106.362 612.287 106.269 612.368 106.164 612.431C106.091 612.482 106.002 612.507 105.912 612.499C105.823 612.492 105.739 612.454 105.674 612.392C105.529 612.215 105.459 611.988 105.478 611.76C105.483 611.455 105.553 611.154 105.684 610.878C105.786 610.634 105.957 610.425 106.174 610.275C106.211 610.25 106.253 610.232 106.297 610.221C106.364 610.198 106.436 610.195 106.505 610.212C106.574 610.23 106.636 610.267 106.684 610.319C106.764 610.411 106.818 610.523 106.841 610.643C106.863 610.744 106.874 610.848 106.875 610.951C106.867 611.284 106.78 611.61 106.62 611.902V611.902Z" fill="#37474F"/>
<path d="M129.753 597.746C129.746 598.159 129.619 598.561 129.385 598.903C129.33 598.983 129.265 599.056 129.194 599.123C129.145 599.157 129.101 599.197 129.052 599.226C129.013 599.251 128.97 599.269 128.925 599.28C128.858 599.302 128.787 599.305 128.719 599.287C128.651 599.27 128.59 599.233 128.543 599.182C128.403 599.004 128.335 598.78 128.351 598.555C128.356 598.106 128.508 597.67 128.783 597.315L128.846 597.241L128.915 597.173C128.957 597.134 129.003 597.1 129.052 597.07C129.439 596.845 129.753 597.153 129.753 597.746Z" fill="#37474F"/>
<path d="M86.7797 626.269L148.353 590.719C148.516 590.637 148.697 590.594 148.88 590.594C149.063 590.594 149.243 590.637 149.407 590.719L149.999 591.062C150.153 591.163 150.281 591.299 150.372 591.458C150.464 591.617 150.518 591.795 150.529 591.979V685.912C150.518 686.094 150.465 686.272 150.373 686.431C150.281 686.589 150.153 686.723 149.999 686.823L88.4261 722.373C88.2634 722.457 88.0827 722.501 87.8993 722.501C87.716 722.501 87.5353 722.457 87.3726 722.373L86.7797 722.03C86.6259 721.93 86.4977 721.796 86.4057 721.637C86.3138 721.479 86.2606 721.301 86.2505 721.118V627.185C86.2602 627.002 86.3132 626.823 86.4052 626.664C86.4972 626.504 86.6255 626.369 86.7797 626.269V626.269Z" fill="#F5F5F5"/>
<path d="M150.509 591.817C150.44 591.602 150.24 591.533 150.019 591.67L88.426 627.22C88.27 627.318 88.1418 627.455 88.0536 627.617L86.4072 626.666C86.4921 626.503 86.6212 626.367 86.7796 626.274L148.353 590.724C148.515 590.64 148.695 590.596 148.877 590.596C149.06 590.596 149.24 590.64 149.402 590.724L149.999 591.063C150.13 591.148 150.243 591.259 150.33 591.389C150.418 591.518 150.479 591.664 150.509 591.817V591.817Z" fill="#FAFAFA"/>
<path d="M88.3036 722.451C88.2403 722.475 88.1746 722.491 88.1076 722.5H88.0047C87.8989 722.512 87.792 722.512 87.6862 722.5C87.6191 722.492 87.5532 722.476 87.4902 722.451L87.3726 722.392L86.7797 722.049C86.6253 721.951 86.4967 721.816 86.4047 721.658C86.3127 721.499 86.2598 721.321 86.2505 721.138V627.185C86.2556 627.001 86.3097 626.822 86.4073 626.666L88.0537 627.617C87.9609 627.775 87.9087 627.953 87.9018 628.136V722.069C87.9018 722.358 88.0684 722.5 88.3036 722.451Z" fill="#E0E0E0"/>
<path d="M112.627 604.694L112.544 604.832C112.347 605.152 112.205 605.503 112.122 605.87C112.122 605.9 112.122 605.914 112.122 605.929C112.121 605.937 112.121 605.946 112.122 605.954L111.118 611.608L110.804 613.416C110.804 613.49 110.77 613.563 110.75 613.642C110.731 613.715 110.708 613.787 110.682 613.857C110.682 613.906 110.648 613.955 110.628 614.004L112.274 614.955C112.353 614.766 112.41 614.569 112.446 614.367L112.769 612.559L113.749 606.904C113.824 606.451 114 606.021 114.264 605.645L112.627 604.694Z" fill="#BA68C8"/>
<path d="M101.289 622.937C101.122 623.202 100.965 623.466 100.799 623.731C100.73 623.858 100.661 623.986 100.598 624.113C100.534 624.24 100.441 624.441 100.372 624.603C100.304 624.765 100.215 624.966 100.147 625.152C100.078 625.338 100.01 625.524 99.9459 625.71C99.8822 625.897 99.8038 626.147 99.745 626.367C99.7058 626.509 99.6666 626.651 99.6274 626.803C99.536 627.149 99.4527 627.502 99.3775 627.862C99.3775 627.984 99.3236 628.111 99.304 628.234C99.2844 628.356 99.2403 628.538 99.2158 628.685C99.2158 628.685 99.2158 628.685 99.2158 628.709C99.2158 628.827 99.2158 628.905 99.2746 628.94C99.2823 628.943 99.2907 628.945 99.2991 628.945C99.3076 628.945 99.3159 628.943 99.3236 628.94V628.94L100.74 627.832L100.97 627.651L101.083 627.568L101.205 627.47L101.303 627.396L101.387 627.327C101.8 625.829 102.49 624.422 103.42 623.177L101.774 622.227C101.612 622.462 101.445 622.702 101.289 622.937Z" fill="#BA68C8"/>
<path d="M119.105 592.253C119.027 592.38 118.958 592.508 118.89 592.635C118.845 592.705 118.805 592.779 118.772 592.856C118.713 592.959 118.664 593.066 118.61 593.174C118.556 593.282 118.522 593.346 118.483 593.434C118.4 593.6 118.326 593.767 118.258 593.924C118.189 594.081 118.101 594.286 118.032 594.468C117.964 594.629 117.91 594.791 117.856 594.958C117.768 595.203 117.694 595.448 117.625 595.698C117.586 595.83 117.557 595.957 117.523 596.085C117.523 596.095 117.523 596.104 117.523 596.114C117.523 596.183 117.488 596.246 117.478 596.315C117.439 596.467 117.41 596.624 117.385 596.776C117.361 596.928 117.336 597.016 117.302 597.138C117.268 597.261 117.238 597.393 117.199 597.52C117.16 597.648 117.121 597.761 117.082 597.883C117.082 597.883 117.082 597.883 117.082 597.917C117.033 598.05 116.979 598.187 116.92 598.324C116.861 598.461 116.812 598.594 116.743 598.736C116.727 598.772 116.712 598.81 116.699 598.848C116.65 598.951 116.596 599.054 116.547 599.162L116.288 599.652C116.229 599.77 116.17 599.877 116.106 599.99L117.758 600.941C118.351 599.939 118.784 598.851 119.042 597.716C119.353 596.112 119.94 594.574 120.776 593.169L119.105 592.253Z" fill="#BA68C8"/>
<path d="M128.9 595.918C128.818 595.869 128.726 595.839 128.631 595.83C128.791 596.085 129.006 596.301 129.26 596.463C129.515 596.624 129.802 596.726 130.101 596.761C130.243 596.763 130.382 596.793 130.512 596.849L128.9 595.918Z" fill="#BA68C8"/>
<path opacity="0.4" d="M128.9 595.918C128.818 595.869 128.726 595.839 128.631 595.83C128.791 596.085 129.006 596.301 129.26 596.463C129.515 596.624 129.802 596.726 130.101 596.761C130.243 596.763 130.382 596.793 130.512 596.849L128.9 595.918Z" fill="white"/>
<path d="M135.04 603.077C134.781 602.951 134.496 602.889 134.208 602.898C133.92 602.906 133.639 602.985 133.388 603.126C131.473 603.969 130.644 604.351 129.655 604.763C129.464 606.037 130.213 606.154 130.586 606.003C131.977 605.454 132.688 605.116 135.04 604.082C135.288 603.942 135.567 603.865 135.852 603.855C136.136 603.846 136.419 603.905 136.676 604.028L135.04 603.077Z" fill="#BA68C8"/>
<path opacity="0.4" d="M135.04 603.077C134.781 602.951 134.496 602.889 134.208 602.898C133.92 602.906 133.639 602.985 133.388 603.126C131.473 603.969 130.644 604.351 129.655 604.763C129.464 606.037 130.213 606.154 130.586 606.003C131.977 605.454 132.688 605.116 135.04 604.082C135.288 603.942 135.567 603.865 135.852 603.855C136.136 603.846 136.419 603.905 136.676 604.028L135.04 603.077Z" fill="white"/>
<path d="M112.265 614.955C111.91 615.731 111.411 616.433 110.795 617.023L105.64 620.899C104.816 621.57 104.073 622.334 103.425 623.177L101.779 622.227C102.425 621.381 103.168 620.615 103.994 619.943L109.158 616.072C109.764 615.478 110.254 614.777 110.604 614.004L112.265 614.955Z" fill="#BA68C8"/>
<path opacity="0.4" d="M112.265 614.955C111.91 615.731 111.411 616.433 110.795 617.023L105.64 620.899C104.816 621.57 104.073 622.334 103.425 623.177L101.779 622.227C102.425 621.381 103.168 620.615 103.994 619.943L109.158 616.072C109.764 615.478 110.254 614.777 110.604 614.004L112.265 614.955Z" fill="white"/>
<path d="M117.733 600.98C117.022 602.295 116.146 603.513 115.126 604.606C114.805 604.92 114.52 605.269 114.274 605.645L112.627 604.694C112.869 604.315 113.155 603.966 113.48 603.655C114.498 602.562 115.372 601.344 116.082 600.029L117.733 600.98Z" fill="#BA68C8"/>
<path opacity="0.4" d="M117.733 600.98C117.022 602.295 116.146 603.513 115.126 604.606C114.805 604.92 114.52 605.269 114.274 605.645L112.627 604.694C112.869 604.315 113.155 603.966 113.48 603.655C114.498 602.562 115.372 601.344 116.082 600.029L117.733 600.98Z" fill="white"/>
<path d="M127.033 588.813C126.426 588.495 125.617 588.549 124.666 589.049C123.255 589.788 121.834 591.356 120.746 593.209L119.1 592.229C120.178 590.376 121.599 588.799 123.02 588.069C123.482 587.808 123.999 587.662 124.529 587.642C124.846 587.638 125.159 587.718 125.436 587.873L127.033 588.813Z" fill="#BA68C8"/>
<path opacity="0.4" d="M127.033 588.813C126.426 588.495 125.617 588.549 124.666 589.049C123.255 589.788 121.834 591.356 120.746 593.209L119.1 592.229C120.178 590.376 121.599 588.799 123.02 588.069C123.482 587.808 123.999 587.662 124.529 587.642C124.846 587.638 125.159 587.718 125.436 587.873L127.033 588.813Z" fill="white"/>
<path opacity="0.15" d="M103.44 623.177C102.51 624.422 101.82 625.829 101.406 627.327L101.323 627.396L101.225 627.47L101.103 627.568L100.99 627.651L100.76 627.832L99.363 628.949C99.3554 628.953 99.347 628.955 99.3385 628.955C99.3301 628.955 99.3217 628.953 99.314 628.949C99.2601 628.915 99.2356 628.837 99.2552 628.719C99.2552 628.719 99.2552 628.719 99.2552 628.695C99.2552 628.548 99.3091 628.396 99.3434 628.244C99.3777 628.092 99.3924 627.994 99.4169 627.871C99.4921 627.515 99.5754 627.162 99.6668 626.813C99.706 626.661 99.7452 626.519 99.7844 626.377C99.8432 626.156 99.9118 625.941 99.9853 625.72C100.059 625.5 100.113 625.348 100.186 625.162C100.26 624.975 100.328 624.794 100.412 624.613C100.495 624.432 100.559 624.275 100.637 624.123C100.715 623.971 100.769 623.868 100.838 623.741C100.98 623.476 101.137 623.211 101.328 622.947C101.519 622.682 101.651 622.457 101.818 622.236L103.44 623.177Z" fill="black"/>
<path opacity="0.15" d="M114.273 605.645C114.009 606.021 113.833 606.451 113.759 606.904L112.779 612.559L112.456 614.367C112.42 614.569 112.363 614.766 112.284 614.955L110.638 614.004C110.638 613.955 110.677 613.906 110.692 613.857C110.718 613.787 110.741 613.715 110.76 613.642C110.76 613.563 110.799 613.49 110.814 613.416L111.128 611.608L112.132 605.954C112.131 605.946 112.131 605.937 112.132 605.929C112.132 605.929 112.132 605.9 112.132 605.87C112.215 605.503 112.357 605.152 112.554 604.832L112.637 604.694L114.273 605.645Z" fill="black"/>
<path opacity="0.15" d="M120.751 593.209C119.915 594.613 119.328 596.152 119.017 597.756C118.759 598.891 118.326 599.979 117.733 600.98L116.082 600.03C116.145 599.917 116.204 599.809 116.263 599.691L116.523 599.201C116.572 599.094 116.625 598.991 116.674 598.888C116.687 598.85 116.702 598.812 116.719 598.775C116.782 598.638 116.841 598.496 116.895 598.364C116.949 598.231 117.008 598.089 117.057 597.957C117.057 597.957 117.057 597.932 117.057 597.923C117.096 597.8 117.14 597.682 117.174 597.56C117.209 597.437 117.248 597.305 117.277 597.178C117.307 597.05 117.336 596.933 117.36 596.815C117.385 596.698 117.414 596.506 117.454 596.355C117.454 596.286 117.483 596.222 117.498 596.154C117.498 596.144 117.498 596.134 117.498 596.124C117.532 595.997 117.561 595.869 117.601 595.737C117.669 595.487 117.743 595.247 117.831 594.997C117.885 594.831 117.939 594.669 118.007 594.507C118.076 594.326 118.154 594.145 118.233 593.963C118.311 593.782 118.375 593.63 118.458 593.473C118.497 593.385 118.541 593.302 118.585 593.214C118.63 593.125 118.688 592.998 118.747 592.895C118.78 592.819 118.82 592.745 118.865 592.675C118.933 592.547 119.002 592.42 119.08 592.292L120.751 593.209Z" fill="black"/>
<path d="M99.3481 628.949L100.74 627.832C100.186 628.278 99.4314 628.861 99.3481 628.949Z" fill="#BA68C8"/>
<path d="M136.681 604.037C136.423 603.915 136.14 603.855 135.855 603.864C135.569 603.872 135.29 603.948 135.04 604.086C132.693 605.125 131.982 605.463 130.591 606.017C130.218 606.164 129.469 606.046 129.66 604.772C129.658 604.745 129.658 604.717 129.66 604.689L129.978 602.881L130.87 597.952C130.87 597.952 131.071 597.172 130.556 596.883H130.517C130.391 596.821 130.251 596.791 130.11 596.795C129.811 596.758 129.523 596.655 129.268 596.492C129.014 596.329 128.799 596.111 128.64 595.854C128.365 595.445 128.175 594.985 128.079 594.501C127.984 594.018 127.987 593.52 128.087 593.037C128.464 590.92 128.052 589.44 127.107 588.891L127.033 588.842C126.426 588.524 125.617 588.578 124.666 589.078C122.163 590.391 119.634 594.286 119.017 597.785C118.63 599.99 116.41 603.386 115.126 604.645C113.842 605.904 113.759 606.943 113.759 606.943L112.779 612.598L112.456 614.406C112.22 615.758 110.834 617.066 110.834 617.066L105.64 620.898C103.579 622.538 102.092 624.789 101.391 627.327C101.391 627.327 99.4315 628.826 99.3335 628.949L99.995 628.572L135.628 608.085C135.628 608.085 136.039 607.864 136.118 607.805C136.196 607.747 137.642 606.394 137.642 606.394C137.617 605.228 137.279 604.395 136.681 604.037ZM126.391 593.644C126.009 595.796 124.461 598.192 122.922 599C121.859 599.554 121.08 599.211 120.82 598.231C120.706 597.681 120.706 597.114 120.82 596.565C121.197 594.414 122.756 592.018 124.294 591.214C124.436 591.137 124.586 591.073 124.74 591.023C125.999 590.641 126.71 591.714 126.381 593.644H126.391Z" fill="#BA68C8"/>
<path d="M99.3533 628.954L135.652 608.09L136.142 607.811C136.231 607.757 137.666 606.395 137.666 606.395L101.406 627.327C101.406 627.327 99.2112 629.033 99.3533 628.954Z" fill="#BA68C8"/>
<path opacity="0.3" d="M99.3533 628.954L135.652 608.09L136.142 607.811C136.231 607.757 137.666 606.395 137.666 606.395L101.406 627.327C101.406 627.327 99.2112 629.033 99.3533 628.954Z" fill="black"/>
<path d="M124.75 591.023C124.595 591.073 124.446 591.137 124.304 591.214C122.765 592.018 121.207 594.414 120.83 596.565C120.716 597.114 120.716 597.681 120.83 598.231C121.089 599.211 121.868 599.554 122.932 599C124.47 598.192 126.019 595.796 126.401 593.644C126.71 591.714 125.999 590.641 124.75 591.023ZM120.928 598.192C120.819 597.661 120.819 597.115 120.928 596.584C121.305 594.458 122.839 592.091 124.358 591.302C124.484 591.236 124.615 591.178 124.75 591.131C124.85 591.649 124.85 592.181 124.75 592.699C124.372 594.85 122.819 597.246 121.276 598.054C121.163 598.114 121.047 598.164 120.928 598.206V598.192Z" fill="#BA68C8"/>
<path opacity="0.4" d="M124.75 591.023C124.595 591.073 124.446 591.137 124.304 591.214C122.765 592.018 121.207 594.414 120.83 596.565C120.716 597.114 120.716 597.681 120.83 598.231C121.089 599.211 121.868 599.554 122.932 599C124.47 598.192 126.019 595.796 126.401 593.644C126.71 591.714 125.999 590.641 124.75 591.023ZM120.928 598.192C120.819 597.661 120.819 597.115 120.928 596.584C121.305 594.458 122.839 592.091 124.358 591.302C124.484 591.236 124.615 591.178 124.75 591.131C124.85 591.649 124.85 592.181 124.75 592.699C124.372 594.85 122.819 597.246 121.276 598.054C121.163 598.114 121.047 598.164 120.928 598.206V598.192Z" fill="black"/>
<path d="M96.1679 656.639C96.0905 656.639 96.0144 656.619 95.9474 656.58C95.8668 656.528 95.8021 656.455 95.7606 656.368C95.7191 656.282 95.7024 656.186 95.7122 656.09V653.998C95.7195 653.81 95.7724 653.627 95.8663 653.464C95.9602 653.3 96.0923 653.163 96.2512 653.062L98.0789 652.009C98.1547 651.958 98.243 651.93 98.3338 651.927C98.4246 651.925 98.5144 651.947 98.5932 651.992C98.672 652.038 98.7366 652.104 98.78 652.184C98.8233 652.264 98.8435 652.354 98.8384 652.445V654.557C98.832 654.745 98.7794 654.928 98.6855 655.092C98.5915 655.255 98.4589 655.392 98.2994 655.492L96.4717 656.551C96.3799 656.606 96.2752 656.637 96.1679 656.639V656.639ZM98.3827 652.356C98.3537 652.365 98.3257 652.376 98.2994 652.391L96.4717 653.444C96.3799 653.506 96.3034 653.588 96.2482 653.684C96.193 653.78 96.1605 653.887 96.1532 653.998V656.11C96.1451 656.139 96.1451 656.169 96.1532 656.198C96.1825 656.193 96.2107 656.183 96.2365 656.169L98.0642 655.11C98.1561 655.048 98.2325 654.966 98.2877 654.87C98.3429 654.774 98.3754 654.667 98.3827 654.557V652.445C98.3852 652.423 98.3852 652.402 98.3827 652.381V652.356Z" fill="#455A64"/>
<path d="M100.392 651.705L107.595 647.545C107.835 647.408 108.026 647.515 108.026 647.79V648.353C108.018 648.502 107.974 648.646 107.899 648.775C107.824 648.903 107.72 649.013 107.595 649.093L100.392 653.253C100.157 653.391 99.9609 653.283 99.9609 653.008V652.445C99.9695 652.296 100.013 652.152 100.088 652.023C100.163 651.895 100.267 651.786 100.392 651.705V651.705Z" fill="#E0E0E0"/>
<path d="M114.019 646.335C113.941 646.335 113.865 646.315 113.798 646.276C113.717 646.224 113.651 646.151 113.609 646.065C113.566 645.978 113.549 645.882 113.558 645.786V643.674C113.566 643.485 113.62 643.302 113.715 643.139C113.81 642.976 113.942 642.838 114.102 642.738L115.93 641.684C116.005 641.63 116.095 641.599 116.188 641.594C116.28 641.588 116.373 641.61 116.454 641.655C116.533 641.703 116.597 641.772 116.639 641.854C116.68 641.936 116.698 642.029 116.689 642.121V644.232C116.683 644.421 116.63 644.604 116.536 644.767C116.442 644.931 116.31 645.068 116.15 645.168L114.323 646.227C114.233 646.289 114.128 646.326 114.019 646.335V646.335ZM116.229 642.052C116.202 642.062 116.176 642.073 116.15 642.086L114.323 643.14C114.23 643.201 114.153 643.283 114.097 643.379C114.041 643.475 114.007 643.583 113.999 643.693V645.805C113.989 645.834 113.989 645.865 113.999 645.894C114.028 645.888 114.056 645.878 114.082 645.864L115.91 644.806C116.002 644.744 116.079 644.662 116.135 644.566C116.19 644.47 116.222 644.363 116.229 644.252V642.14C116.237 642.111 116.237 642.081 116.229 642.052V642.052Z" fill="#455A64"/>
<path d="M118.243 641.4L125.446 637.24C125.686 637.103 125.877 637.211 125.877 637.485V638.049C125.868 638.197 125.825 638.342 125.75 638.47C125.675 638.599 125.571 638.708 125.446 638.789L118.243 642.949C118.003 643.086 117.812 642.978 117.812 642.704V642.14C117.823 641.992 117.867 641.849 117.942 641.721C118.017 641.592 118.12 641.483 118.243 641.4Z" fill="#E0E0E0"/>
<path d="M131.865 636.029C131.787 636.03 131.711 636.009 131.644 635.971C131.564 635.918 131.5 635.844 131.459 635.758C131.417 635.672 131.4 635.576 131.409 635.481V633.369C131.417 633.181 131.47 632.998 131.564 632.835C131.657 632.672 131.789 632.534 131.948 632.433L133.776 631.379C133.852 631.328 133.941 631.298 134.033 631.295C134.125 631.291 134.216 631.314 134.296 631.36C134.376 631.406 134.441 631.474 134.484 631.555C134.528 631.637 134.547 631.728 134.54 631.82V633.927C134.533 634.116 134.479 634.3 134.384 634.463C134.29 634.626 134.156 634.763 133.996 634.863L132.168 635.922C132.079 635.985 131.974 636.022 131.865 636.029V636.029ZM132.168 632.835C132.077 632.897 132.002 632.98 131.946 633.075C131.891 633.171 131.858 633.278 131.85 633.388V635.5C131.84 635.529 131.84 635.56 131.85 635.588C131.878 635.585 131.905 635.575 131.928 635.559L133.756 634.501C133.849 634.439 133.926 634.357 133.982 634.261C134.038 634.165 134.071 634.058 134.079 633.947V631.84C134.089 631.81 134.089 631.777 134.079 631.747C134.079 631.747 134.05 631.747 133.996 631.781L132.168 632.835Z" fill="#455A64"/>
<path d="M136.093 631.096L143.296 626.935C143.532 626.798 143.728 626.906 143.728 627.18V627.744C143.716 627.892 143.672 628.035 143.597 628.163C143.522 628.292 143.419 628.401 143.296 628.484L136.093 632.644C135.853 632.781 135.662 632.673 135.662 632.399V631.835C135.671 631.687 135.714 631.542 135.789 631.414C135.864 631.285 135.968 631.176 136.093 631.096Z" fill="#E0E0E0"/>
<path d="M100.412 641.395V642.218C100.412 642.669 100.725 642.851 101.112 642.625L143.252 618.316C143.457 618.182 143.626 618.002 143.748 617.79C143.87 617.578 143.94 617.34 143.953 617.096V616.268C143.953 615.822 143.639 615.641 143.252 615.861L101.112 640.175C100.908 640.309 100.738 640.49 100.616 640.702C100.495 640.914 100.425 641.151 100.412 641.395Z" fill="#E0E0E0"/>
<path d="M97.2021 634.967V635.79C97.2021 636.241 97.5157 636.422 97.9077 636.196L140.023 611.888C140.229 611.755 140.4 611.575 140.523 611.362C140.646 611.15 140.716 610.912 140.729 610.667V609.839C140.729 609.393 140.415 609.212 140.023 609.433L97.9077 633.761C97.7039 633.893 97.5339 634.07 97.4113 634.28C97.2887 634.489 97.2171 634.724 97.2021 634.967V634.967Z" fill="#455A64"/>
<path d="M100.412 646.379V647.207C100.412 647.653 100.725 647.834 101.112 647.613L143.252 623.305C143.457 623.17 143.626 622.99 143.748 622.778C143.87 622.566 143.94 622.329 143.953 622.084V621.256C143.953 620.81 143.639 620.629 143.252 620.85L101.112 645.163C100.909 645.297 100.739 645.477 100.617 645.688C100.496 645.899 100.425 646.135 100.412 646.379V646.379Z" fill="#E0E0E0"/>
<path d="M95.7956 646.805C96.8981 645.712 97.1725 645.247 97.1725 644.845C97.1725 644.443 97.0108 644.227 96.5159 644.512C96.3019 644.636 96.1178 644.806 95.9764 645.009C95.835 645.212 95.7399 645.444 95.6976 645.688L94.4922 645.957C94.5971 645.326 94.8354 644.724 95.1911 644.191C95.5468 643.659 96.0118 643.209 96.5551 642.87C97.7605 642.174 98.4612 642.694 98.4612 643.85C98.3939 644.976 97.9038 646.035 97.0892 646.815V647.77L95.7956 648.515V646.805Z" fill="#455A64"/>
<path d="M95.7813 649.98C95.7793 649.744 95.8389 649.513 95.954 649.307C96.0692 649.102 96.236 648.93 96.4379 648.809C96.8691 648.559 97.0896 648.779 97.0896 649.225C97.0933 649.462 97.0351 649.695 96.9208 649.902C96.8065 650.11 96.64 650.283 96.4379 650.406C96.0018 650.656 95.7813 650.421 95.7813 649.98Z" fill="#455A64"/>
<path d="M96.4522 653.998L96.9912 654.405L96.5012 655.336C96.4591 655.392 96.4363 655.461 96.4363 655.532C96.4363 655.602 96.4591 655.671 96.5012 655.728C96.5943 655.796 96.7266 655.728 96.805 655.581L97.295 654.655L97.834 655.061C97.9124 655.12 98.03 655.061 98.0986 654.934C98.1348 654.885 98.1544 654.826 98.1544 654.765C98.1544 654.704 98.1348 654.645 98.0986 654.596L97.5596 654.189L98.0496 653.258C98.0918 653.201 98.1146 653.133 98.1146 653.062C98.1146 652.991 98.0918 652.923 98.0496 652.866C97.9565 652.797 97.8242 652.866 97.7458 653.013L97.2558 653.944L96.7168 653.537C96.6384 653.479 96.5208 653.537 96.4522 653.66C96.416 653.709 96.3965 653.768 96.3965 653.829C96.3965 653.89 96.416 653.949 96.4522 653.998Z" fill="#BA68C8"/>
<path d="M96.1679 675.245C96.0909 675.247 96.0148 675.228 95.9474 675.191C95.8668 675.139 95.8021 675.065 95.7606 674.979C95.7191 674.892 95.7024 674.796 95.7122 674.701V672.589C95.7187 672.401 95.7712 672.217 95.8652 672.054C95.9592 671.891 96.0917 671.753 96.2512 671.653L98.0789 670.599C98.1547 670.549 98.243 670.521 98.3338 670.518C98.4246 670.515 98.5144 670.538 98.5932 670.583C98.672 670.628 98.7366 670.695 98.78 670.775C98.8233 670.854 98.8435 670.945 98.8384 671.035V673.147C98.832 673.336 98.7794 673.519 98.6855 673.682C98.5915 673.846 98.4589 673.983 98.2994 674.083L96.4717 675.137C96.3819 675.199 96.277 675.236 96.1679 675.245V675.245ZM98.3827 670.967C98.3529 670.972 98.3245 670.984 98.2994 671.001L96.4717 672.055C96.3799 672.116 96.3034 672.199 96.2482 672.295C96.193 672.391 96.1605 672.498 96.1532 672.608V674.72C96.1451 674.749 96.1451 674.78 96.1532 674.808C96.1825 674.804 96.2107 674.794 96.2365 674.779L98.0642 673.721C98.1561 673.659 98.2325 673.577 98.2877 673.481C98.3429 673.385 98.3754 673.277 98.3827 673.167V671.055C98.3874 671.026 98.3874 670.996 98.3827 670.967Z" fill="#455A64"/>
<path d="M100.392 670.31L107.595 666.155C107.835 666.017 108.026 666.125 108.026 666.4V666.958C108.018 667.108 107.975 667.253 107.9 667.383C107.825 667.512 107.721 667.622 107.595 667.703L100.392 671.863C100.157 672 99.9609 671.888 99.9609 671.613V671.055C99.9692 670.905 100.012 670.76 100.087 670.631C100.162 670.501 100.267 670.391 100.392 670.31V670.31Z" fill="#E0E0E0"/>
<path d="M114.019 664.939C113.942 664.942 113.865 664.923 113.798 664.886C113.717 664.834 113.651 664.761 113.609 664.675C113.566 664.588 113.549 664.491 113.558 664.396V662.284C113.566 662.095 113.619 661.911 113.714 661.748C113.809 661.585 113.942 661.448 114.102 661.348L115.93 660.294C116.005 660.24 116.095 660.209 116.188 660.203C116.28 660.198 116.373 660.22 116.454 660.265C116.533 660.312 116.597 660.381 116.639 660.464C116.68 660.546 116.698 660.639 116.689 660.73V662.842C116.683 663.03 116.63 663.214 116.536 663.377C116.442 663.54 116.31 663.678 116.15 663.778L114.323 664.832C114.233 664.894 114.128 664.931 114.019 664.939V664.939ZM116.229 660.662C116.201 660.669 116.174 660.68 116.15 660.696L114.323 661.75C114.23 661.811 114.153 661.893 114.097 661.989C114.041 662.085 114.007 662.192 113.999 662.303V664.415C113.989 664.444 113.989 664.475 113.999 664.503C114.028 664.498 114.056 664.488 114.082 664.474L115.91 663.416C116.002 663.354 116.078 663.272 116.134 663.176C116.189 663.08 116.221 662.972 116.229 662.862V660.75C116.237 660.721 116.237 660.691 116.229 660.662V660.662Z" fill="#455A64"/>
<path d="M118.243 660.005L125.446 655.85C125.686 655.713 125.877 655.821 125.877 656.095V656.654C125.869 656.803 125.826 656.948 125.751 657.078C125.676 657.207 125.571 657.317 125.446 657.398L118.243 661.559C118.003 661.696 117.812 661.559 117.812 661.309V660.75C117.822 660.601 117.866 660.457 117.941 660.328C118.016 660.199 118.119 660.088 118.243 660.005Z" fill="#E0E0E0"/>
<path d="M131.865 654.635C131.788 654.637 131.712 654.619 131.644 654.581C131.564 654.528 131.5 654.455 131.459 654.369C131.417 654.282 131.4 654.187 131.409 654.091V651.979C131.417 651.791 131.47 651.608 131.564 651.445C131.657 651.282 131.789 651.144 131.948 651.043L133.776 649.99C133.851 649.938 133.94 649.909 134.032 649.906C134.123 649.902 134.214 649.924 134.294 649.97C134.373 650.015 134.439 650.082 134.482 650.163C134.526 650.243 134.546 650.335 134.54 650.426V652.538C134.533 652.727 134.479 652.91 134.384 653.073C134.29 653.237 134.156 653.374 133.996 653.474L132.168 654.527C132.079 654.59 131.974 654.627 131.865 654.635ZM132.168 651.445C132.077 651.508 132.002 651.59 131.946 651.686C131.891 651.782 131.858 651.889 131.85 651.999V654.111C131.84 654.139 131.84 654.17 131.85 654.199C131.877 654.193 131.904 654.183 131.928 654.17L133.756 653.111C133.849 653.05 133.926 652.968 133.982 652.872C134.038 652.776 134.071 652.668 134.079 652.558V650.446C134.088 650.417 134.088 650.386 134.079 650.357C134.05 650.365 134.022 650.376 133.996 650.392L132.168 651.445Z" fill="#455A64"/>
<path d="M136.093 649.701L143.296 645.545C143.532 645.408 143.728 645.516 143.728 645.79V646.349C143.717 646.498 143.673 646.642 143.598 646.771C143.523 646.9 143.42 647.011 143.296 647.094L136.093 651.254C135.853 651.391 135.662 651.278 135.662 651.004V650.445C135.67 650.296 135.713 650.15 135.788 650.021C135.863 649.892 135.968 649.782 136.093 649.701V649.701Z" fill="#E0E0E0"/>
<path d="M100.412 660V660.828C100.412 661.274 100.725 661.456 101.112 661.235L143.252 636.926C143.457 636.792 143.626 636.612 143.748 636.4C143.87 636.188 143.94 635.95 143.953 635.706V634.878C143.953 634.432 143.639 634.251 143.252 634.471L101.112 658.785C100.909 658.919 100.739 659.098 100.617 659.309C100.496 659.52 100.425 659.757 100.412 660Z" fill="#E0E0E0"/>
<path d="M100.412 664.989V665.817C100.412 666.263 100.725 666.444 101.112 666.223L143.252 641.91C143.457 641.777 143.627 641.598 143.749 641.387C143.871 641.175 143.941 640.938 143.953 640.694V639.866C143.953 639.416 143.639 639.234 143.252 639.46L101.112 663.773C100.909 663.907 100.739 664.087 100.617 664.298C100.496 664.509 100.425 664.745 100.412 664.989V664.989Z" fill="#E0E0E0"/>
<path d="M95.7956 665.415C96.8981 664.322 97.1725 663.857 97.1725 663.455C97.1725 663.053 97.0108 662.838 96.5159 663.122C96.3019 663.246 96.1178 663.416 95.9764 663.619C95.835 663.822 95.7399 664.054 95.6976 664.298L94.4922 664.567C94.5971 663.936 94.8354 663.334 95.1911 662.802C95.5468 662.269 96.0118 661.819 96.5551 661.48C97.7605 660.784 98.4612 661.304 98.4612 662.485C98.3939 663.611 97.9038 664.669 97.0892 665.449V666.405L95.7956 667.15V665.415Z" fill="#455A64"/>
<path d="M95.7813 668.59C95.7793 668.355 95.8389 668.123 95.954 667.917C96.0692 667.712 96.236 667.54 96.4379 667.419C96.8691 667.169 97.0896 667.39 97.0896 667.836C97.0928 668.072 97.0344 668.305 96.9202 668.512C96.8059 668.72 96.6397 668.893 96.4379 669.017C96.0018 669.266 95.7813 669.041 95.7813 668.59Z" fill="#455A64"/>
<path d="M114.303 662.284L114.842 662.691L114.352 663.622C114.31 663.678 114.287 663.747 114.287 663.818C114.287 663.888 114.31 663.957 114.352 664.014C114.44 664.082 114.577 664.014 114.656 663.867L115.146 662.941L115.685 663.347C115.763 663.406 115.881 663.347 115.945 663.22C115.981 663.171 116 663.112 116 663.051C116 662.99 115.981 662.931 115.945 662.882L115.406 662.475L115.896 661.544C115.935 661.485 115.954 661.415 115.95 661.344C115.945 661.273 115.918 661.206 115.871 661.152C115.783 661.088 115.646 661.152 115.567 661.299L115.077 662.23L114.538 661.823C114.465 661.765 114.347 661.823 114.279 661.946C114.245 661.997 114.229 662.058 114.234 662.119C114.238 662.18 114.262 662.238 114.303 662.284V662.284Z" fill="#BA68C8"/>
<path d="M96.1683 693.854C96.0909 693.855 96.0148 693.834 95.9478 693.796C95.8687 693.748 95.8047 693.679 95.7631 693.597C95.7215 693.514 95.704 693.422 95.7126 693.33V691.218C95.7191 691.03 95.7716 690.846 95.8656 690.683C95.9595 690.52 96.0921 690.382 96.2516 690.282L98.0793 689.229C98.1551 689.179 98.2433 689.151 98.3341 689.148C98.4249 689.145 98.5147 689.167 98.5935 689.213C98.6723 689.258 98.737 689.324 98.7803 689.404C98.8236 689.484 98.8439 689.574 98.8388 689.665V691.777C98.8323 691.965 98.7798 692.149 98.6858 692.312C98.5918 692.475 98.4593 692.613 98.2998 692.713L96.4721 693.766C96.3803 693.822 96.2755 693.852 96.1683 693.854V693.854ZM98.3831 689.577C98.3532 689.582 98.3248 689.594 98.2998 689.611L96.4721 690.664C96.3802 690.726 96.3038 690.808 96.2486 690.904C96.1934 691 96.1609 691.108 96.1536 691.218V693.33C96.1461 693.359 96.1461 693.389 96.1536 693.418C96.1835 693.413 96.2118 693.401 96.2369 693.384L98.0646 692.33C98.1564 692.269 98.2329 692.187 98.2881 692.091C98.3433 691.995 98.3758 691.887 98.3831 691.777V689.665C98.3878 689.636 98.3878 689.606 98.3831 689.577V689.577Z" fill="#455A64"/>
<path d="M100.392 688.92L107.595 684.76C107.835 684.623 108.026 684.736 108.026 685.01V685.569C108.018 685.718 107.975 685.863 107.9 685.993C107.825 686.122 107.721 686.232 107.595 686.313L100.392 690.474C100.157 690.611 99.9609 690.498 99.9609 690.224V689.665C99.9692 689.516 100.012 689.37 100.087 689.241C100.162 689.112 100.267 689.002 100.392 688.92V688.92Z" fill="#E0E0E0"/>
<path d="M114.019 683.55C113.941 683.551 113.865 683.53 113.798 683.491C113.718 683.444 113.653 683.376 113.611 683.293C113.568 683.211 113.55 683.118 113.558 683.026V680.914C113.565 680.725 113.619 680.541 113.714 680.378C113.809 680.215 113.942 680.078 114.102 679.978L115.93 678.924C116.006 678.873 116.095 678.842 116.187 678.836C116.279 678.83 116.371 678.849 116.454 678.89C116.534 678.943 116.598 679.016 116.639 679.103C116.681 679.189 116.698 679.285 116.689 679.38V681.492C116.683 681.68 116.63 681.864 116.536 682.027C116.442 682.19 116.31 682.328 116.15 682.428L114.322 683.481C114.229 683.53 114.124 683.554 114.019 683.55V683.55ZM116.229 679.272C116.201 679.279 116.174 679.291 116.15 679.307L114.322 680.36C114.23 680.422 114.153 680.504 114.097 680.6C114.041 680.696 114.007 680.803 113.999 680.914V683.026C113.99 683.054 113.99 683.085 113.999 683.114C114.029 683.108 114.057 683.096 114.082 683.08L115.93 682.026C116.021 681.964 116.098 681.882 116.153 681.786C116.208 681.69 116.241 681.583 116.248 681.472V679.361C116.252 679.33 116.245 679.299 116.229 679.272V679.272Z" fill="#455A64"/>
<path d="M118.243 678.615L125.446 674.455C125.686 674.323 125.877 674.431 125.877 674.705V675.264C125.869 675.413 125.826 675.559 125.751 675.688C125.676 675.818 125.571 675.927 125.446 676.009L118.243 680.169C118.003 680.306 117.812 680.193 117.812 679.919V679.36C117.822 679.211 117.866 679.067 117.941 678.938C118.016 678.809 118.119 678.699 118.243 678.615Z" fill="#E0E0E0"/>
<path d="M131.865 673.245C131.787 673.245 131.711 673.225 131.644 673.186C131.565 673.139 131.501 673.07 131.459 672.987C131.418 672.905 131.4 672.813 131.409 672.721V670.609C131.415 670.421 131.468 670.237 131.562 670.074C131.656 669.911 131.788 669.773 131.948 669.673V669.673L133.776 668.62C133.85 668.566 133.939 668.535 134.031 668.529C134.122 668.524 134.214 668.544 134.295 668.588C134.375 668.632 134.442 668.698 134.487 668.778C134.532 668.858 134.554 668.949 134.55 669.041V671.153C134.542 671.341 134.489 671.525 134.394 671.688C134.299 671.851 134.166 671.989 134.006 672.089L132.178 673.142C132.085 673.205 131.977 673.241 131.865 673.245V673.245ZM132.168 670.055C132.077 670.118 132.001 670.2 131.946 670.296C131.891 670.392 131.858 670.499 131.85 670.609V672.721C131.841 672.75 131.841 672.78 131.85 672.809C131.878 672.802 131.904 672.79 131.928 672.775L133.756 671.721C133.848 671.66 133.926 671.578 133.982 671.482C134.038 671.386 134.071 671.278 134.079 671.168V669.041C134.088 669.012 134.088 668.981 134.079 668.953C134.051 668.959 134.023 668.969 133.996 668.982L132.168 670.055Z" fill="#455A64"/>
<path d="M136.093 668.311L143.296 664.151C143.532 664.019 143.728 664.151 143.728 664.401V664.959C143.717 665.108 143.673 665.253 143.598 665.382C143.523 665.511 143.42 665.621 143.296 665.704L136.093 669.864C135.853 670.001 135.662 669.889 135.662 669.614V669.041C135.672 668.894 135.716 668.752 135.791 668.625C135.866 668.498 135.97 668.391 136.093 668.311Z" fill="#E0E0E0"/>
<path d="M100.412 678.611V679.439C100.412 679.885 100.725 680.066 101.112 679.846L143.252 655.532C143.457 655.399 143.627 655.22 143.749 655.009C143.871 654.797 143.941 654.56 143.953 654.317V653.488C143.953 653.043 143.639 652.856 143.252 653.082L101.112 677.396C100.909 677.529 100.739 677.709 100.617 677.92C100.496 678.131 100.425 678.368 100.412 678.611V678.611Z" fill="#E0E0E0"/>
<path d="M100.412 683.599V684.427C100.412 684.873 100.725 685.054 101.112 684.829L143.252 660.52C143.457 660.387 143.626 660.207 143.748 659.996C143.87 659.785 143.94 659.548 143.953 659.305V658.477C143.953 658.026 143.639 657.845 143.252 658.07L101.112 682.384C100.908 682.517 100.738 682.696 100.616 682.907C100.495 683.119 100.425 683.356 100.412 683.599V683.599Z" fill="#E0E0E0"/>
<path d="M95.7956 684.025C96.8981 682.932 97.1725 682.467 97.1725 682.065C97.1725 681.663 97.0108 681.443 96.5159 681.732C96.3019 681.856 96.1178 682.026 95.9764 682.229C95.835 682.432 95.7399 682.664 95.6976 682.908L94.4922 683.172C94.5978 682.542 94.8363 681.941 95.192 681.409C95.5477 680.878 96.0123 680.428 96.5551 680.09C97.7605 679.395 98.4612 679.914 98.4612 681.07C98.3939 682.196 97.9038 683.255 97.0892 684.035V684.99L95.7956 685.735V684.025Z" fill="#455A64"/>
<path d="M95.7808 687.2C95.7785 686.964 95.8378 686.732 95.953 686.525C96.0681 686.319 96.2351 686.146 96.4374 686.024C96.8686 685.779 97.0891 686 97.0891 686.446C97.0919 686.682 97.0333 686.915 96.9191 687.122C96.8048 687.329 96.6389 687.503 96.4374 687.627C96.0013 687.877 95.7808 687.661 95.7808 687.2Z" fill="#455A64"/>
<path d="M132.154 670.589L132.688 670.996L132.198 671.927C132.155 671.983 132.131 672.052 132.131 672.123C132.131 672.194 132.155 672.263 132.198 672.319C132.286 672.388 132.423 672.319 132.501 672.172L132.991 671.241L133.53 671.648C133.609 671.706 133.722 671.648 133.79 671.525C133.827 671.477 133.847 671.417 133.847 671.356C133.847 671.295 133.827 671.236 133.79 671.187L133.251 670.78L133.741 669.849C133.778 669.79 133.796 669.72 133.792 669.649C133.787 669.579 133.761 669.512 133.717 669.457C133.628 669.389 133.491 669.457 133.413 669.604L132.923 670.535L132.384 670.124C132.305 670.065 132.188 670.124 132.124 670.251C132.091 670.303 132.076 670.364 132.082 670.425C132.087 670.486 132.112 670.544 132.154 670.589V670.589Z" fill="#BA68C8"/>
<path d="M96.1683 712.465C96.0909 712.465 96.0148 712.445 95.9478 712.406C95.8687 712.359 95.8047 712.29 95.7631 712.207C95.7215 712.125 95.704 712.032 95.7126 711.941V709.829C95.7191 709.641 95.7716 709.457 95.8656 709.294C95.9595 709.13 96.0921 708.993 96.2516 708.893L98.0793 707.834C98.1567 707.785 98.2457 707.756 98.3376 707.751C98.4294 707.746 98.5211 707.764 98.6036 707.805C98.6842 707.857 98.7489 707.93 98.7904 708.017C98.8319 708.103 98.8487 708.2 98.8388 708.295V710.407C98.8311 710.595 98.778 710.778 98.6842 710.941C98.5903 711.104 98.4584 711.242 98.2998 711.343L96.4721 712.396C96.3784 712.445 96.2738 712.469 96.1683 712.465V712.465ZM98.3831 708.187C98.3538 708.192 98.3256 708.202 98.2998 708.217L96.4721 709.275C96.3802 709.337 96.3038 709.419 96.2486 709.515C96.1934 709.611 96.1609 709.718 96.1536 709.829V711.941C96.1461 711.97 96.1461 712 96.1536 712.029C96.1826 712.021 96.2106 712.009 96.2369 711.995L98.0646 710.941C98.1564 710.879 98.2329 710.797 98.2881 710.701C98.3433 710.605 98.3758 710.498 98.3831 710.387V708.275C98.3884 708.246 98.3884 708.216 98.3831 708.187Z" fill="#455A64"/>
<path d="M100.392 707.531L107.595 703.37C107.835 703.233 108.026 703.346 108.026 703.62V704.179C108.018 704.328 107.975 704.474 107.9 704.603C107.825 704.733 107.721 704.843 107.595 704.924L100.392 709.084C100.157 709.221 99.9609 709.084 99.9609 708.834V708.275C99.9692 708.126 100.012 707.981 100.087 707.851C100.162 707.722 100.267 707.612 100.392 707.531V707.531Z" fill="#E0E0E0"/>
<path d="M114.019 702.16C113.941 702.161 113.865 702.141 113.798 702.102C113.714 702.053 113.646 701.98 113.604 701.893C113.561 701.806 113.545 701.708 113.558 701.612V699.5C113.566 699.311 113.619 699.127 113.714 698.964C113.809 698.801 113.942 698.664 114.102 698.564L115.93 697.505C116.006 697.455 116.095 697.427 116.186 697.424C116.277 697.421 116.367 697.444 116.446 697.49C116.525 697.536 116.59 697.603 116.633 697.684C116.676 697.764 116.695 697.855 116.689 697.946V700.058C116.683 700.246 116.63 700.43 116.536 700.593C116.442 700.756 116.31 700.894 116.15 700.994L114.323 702.048C114.233 702.112 114.128 702.151 114.019 702.16ZM116.229 697.883C116.201 697.889 116.175 697.899 116.15 697.912L114.323 698.97C114.23 699.032 114.153 699.114 114.097 699.21C114.041 699.306 114.007 699.413 113.999 699.524V701.636C113.99 701.665 113.99 701.695 113.999 701.724C114.028 701.715 114.056 701.704 114.082 701.69L115.91 700.636C116.002 700.575 116.078 700.492 116.134 700.397C116.189 700.301 116.221 700.193 116.229 700.083V697.951C116.234 697.929 116.234 697.905 116.229 697.883V697.883Z" fill="#455A64"/>
<path d="M118.243 697.226L125.446 693.066C125.686 692.928 125.877 693.066 125.877 693.315V693.874C125.869 694.023 125.826 694.169 125.751 694.298C125.676 694.428 125.571 694.538 125.446 694.619L118.243 698.779C118.003 698.916 117.812 698.803 117.812 698.529V697.951C117.825 697.805 117.87 697.665 117.945 697.539C118.02 697.414 118.121 697.307 118.243 697.226Z" fill="#E0E0E0"/>
<path d="M131.865 691.855C131.787 691.856 131.711 691.836 131.644 691.797C131.565 691.749 131.501 691.68 131.459 691.598C131.418 691.515 131.4 691.423 131.409 691.331V689.219C131.415 689.031 131.468 688.847 131.562 688.684C131.656 688.521 131.788 688.383 131.948 688.283L133.776 687.225C133.854 687.175 133.944 687.147 134.036 687.141C134.129 687.136 134.221 687.155 134.305 687.196C134.385 687.248 134.449 687.322 134.49 687.408C134.532 687.494 134.549 687.59 134.54 687.686V689.797C134.532 689.986 134.478 690.169 134.383 690.332C134.288 690.495 134.156 690.633 133.996 690.733L132.168 691.787C132.075 691.836 131.97 691.86 131.865 691.855ZM132.168 688.666C132.077 688.728 132.001 688.81 131.946 688.906C131.891 689.002 131.858 689.109 131.85 689.219V691.331C131.841 691.36 131.841 691.391 131.85 691.419C131.877 691.41 131.903 691.398 131.928 691.385L133.756 690.332C133.848 690.27 133.926 690.188 133.982 690.092C134.038 689.996 134.071 689.889 134.079 689.778V687.661C134.089 687.632 134.089 687.601 134.079 687.573C134.051 687.579 134.023 687.589 133.996 687.602L132.168 688.666Z" fill="#455A64"/>
<path d="M136.093 686.921L143.296 682.761C143.532 682.624 143.728 682.737 143.728 683.011V683.57C143.717 683.718 143.673 683.863 143.598 683.992C143.523 684.121 143.42 684.231 143.296 684.314L136.093 688.475C135.853 688.612 135.662 688.474 135.662 688.225V687.661C135.671 687.513 135.714 687.368 135.789 687.24C135.864 687.111 135.968 687.002 136.093 686.921Z" fill="#E0E0E0"/>
<path d="M100.412 697.221V698.049C100.412 698.495 100.725 698.676 101.112 698.451L143.252 674.142C143.457 674.009 143.626 673.83 143.748 673.618C143.87 673.407 143.94 673.17 143.953 672.927V672.099C143.953 671.648 143.639 671.467 143.252 671.692L101.112 696.006C100.908 696.139 100.738 696.318 100.616 696.53C100.495 696.741 100.425 696.978 100.412 697.221V697.221Z" fill="#E0E0E0"/>
<path d="M100.412 702.209V703.037C100.412 703.483 100.725 703.664 101.112 703.439L143.252 679.13C143.456 678.996 143.625 678.817 143.747 678.606C143.869 678.395 143.939 678.158 143.953 677.915V677.087C143.953 676.636 143.639 676.454 143.252 676.68L101.112 700.994C100.908 701.127 100.738 701.306 100.616 701.517C100.495 701.729 100.425 701.965 100.412 702.209V702.209Z" fill="#E0E0E0"/>
<path d="M95.7956 702.635C96.8981 701.542 97.1725 701.077 97.1725 700.675C97.1725 700.273 97.0108 700.053 96.5159 700.342C96.3025 700.466 96.1187 700.635 95.9774 700.837C95.836 701.039 95.7405 701.27 95.6976 701.513L94.4922 701.783C94.5978 701.152 94.8363 700.551 95.192 700.02C95.5477 699.488 96.0123 699.039 96.5551 698.7C97.7605 698.005 98.4612 698.524 98.4612 699.705C98.3939 700.831 97.9038 701.89 97.0892 702.669V703.625L95.7956 704.37V702.635Z" fill="#455A64"/>
<path d="M95.7808 705.791C95.7785 705.555 95.8378 705.322 95.953 705.116C96.0681 704.91 96.2351 704.737 96.4374 704.615C96.8686 704.37 97.0891 704.586 97.0891 705.037C97.0925 705.272 97.0341 705.505 96.9198 705.711C96.8055 705.918 96.6392 706.09 96.4374 706.213C96.0013 706.487 95.7808 706.281 95.7808 705.791Z" fill="#455A64"/>
<path d="M132.154 689.278L132.688 689.684L132.198 690.615C132.155 690.672 132.131 690.741 132.131 690.811C132.131 690.882 132.155 690.951 132.198 691.007C132.286 691.076 132.423 691.007 132.501 690.86L132.991 689.929L133.53 690.341C133.609 690.4 133.722 690.341 133.79 690.214C133.827 690.165 133.847 690.106 133.847 690.045C133.847 689.984 133.827 689.924 133.79 689.876L133.251 689.469L133.741 688.538C133.778 688.478 133.796 688.408 133.792 688.338C133.787 688.268 133.761 688.201 133.717 688.146C133.628 688.077 133.491 688.146 133.413 688.293L132.923 689.224L132.384 688.812C132.305 688.758 132.188 688.812 132.124 688.94C132.091 688.991 132.076 689.053 132.082 689.114C132.087 689.175 132.112 689.232 132.154 689.278V689.278Z" fill="#BA68C8"/>
<path d="M179.89 609.977L176.288 607.899L176.254 607.874C174.461 606.86 172.006 607.012 169.286 608.585C166.738 610.055 164.416 612.505 162.666 615.332C160.643 618.596 159.374 622.369 159.374 625.755C159.374 628.915 160.476 631.145 162.265 632.169L165.925 634.261C167.728 635.412 170.281 635.31 173.108 633.678C178.586 630.512 183.026 622.824 183.026 616.503C183.021 613.225 181.816 610.957 179.89 609.977Z" fill="#BA68C8"/>
<path opacity="0.1" d="M165.846 634.251L162.26 632.198C160.471 631.159 159.369 628.94 159.369 625.784C159.369 622.398 160.638 618.625 162.661 615.362L166.488 617.572C164.465 620.83 163.196 624.603 163.196 627.984C163.186 630.983 164.195 633.144 165.846 634.251Z" fill="black"/>
<path opacity="0.4" d="M179.817 609.937C178.053 609.08 175.696 609.295 173.104 610.79C170.511 612.284 168.233 614.71 166.479 617.552L162.652 615.342C164.401 612.505 166.729 610.06 169.272 608.595C171.991 607.022 174.446 606.875 176.24 607.884L176.274 607.909L179.817 609.937Z" fill="white"/>
<path d="M170.913 619.287C170.92 619.668 170.839 620.046 170.676 620.391C170.512 620.736 170.272 621.039 169.972 621.276C169.453 621.575 169.032 621.173 169.032 620.374C169.025 619.993 169.106 619.615 169.269 619.27C169.432 618.925 169.673 618.622 169.972 618.385C170.492 618.081 170.913 618.488 170.913 619.287Z" fill="#455A64"/>
<path d="M176.269 616.195C176.276 616.576 176.194 616.954 176.031 617.3C175.868 617.645 175.627 617.947 175.328 618.184C174.809 618.483 174.387 618.081 174.387 617.283C174.38 616.901 174.462 616.523 174.625 616.178C174.788 615.833 175.029 615.53 175.328 615.293C175.847 614.994 176.269 615.396 176.269 616.195Z" fill="#455A64"/>
<path d="M167.713 631.233C167.676 631.238 167.638 631.238 167.601 631.233C167.531 631.219 167.465 631.191 167.407 631.152C167.348 631.112 167.298 631.061 167.259 631.002C167.22 630.942 167.194 630.876 167.181 630.806C167.168 630.737 167.169 630.665 167.184 630.596C168.037 626.544 170.207 622.996 172.711 621.551C173.221 621.212 173.803 620.998 174.411 620.925C175.018 620.851 175.634 620.922 176.21 621.129C177.391 621.619 178.302 622.8 178.773 624.476C178.796 624.609 178.769 624.747 178.697 624.861C178.625 624.976 178.513 625.059 178.382 625.095C178.252 625.132 178.112 625.118 177.992 625.057C177.871 624.996 177.777 624.892 177.729 624.765C177.356 623.422 176.67 622.486 175.803 622.129C175.38 621.99 174.93 621.95 174.489 622.013C174.048 622.076 173.628 622.24 173.26 622.491C171.045 623.77 169.031 627.117 168.252 630.821C168.222 630.941 168.153 631.047 168.055 631.121C167.957 631.196 167.836 631.236 167.713 631.233V631.233Z" fill="#455A64"/>
<path d="M179.89 578.626L176.288 576.549H176.254C174.461 575.534 172.006 575.686 169.286 577.259C166.738 578.729 164.416 581.179 162.666 584.007C160.643 587.27 159.374 591.043 159.374 594.429C159.374 597.589 160.476 599.819 162.265 600.843L165.925 602.935C167.728 604.087 170.281 603.984 173.108 602.352C178.586 599.187 183.026 591.499 183.026 585.202C183.021 581.875 181.816 579.606 179.89 578.626Z" fill="#BA68C8"/>
<path opacity="0.1" d="M165.846 602.891L162.26 600.838C160.471 599.799 159.369 597.579 159.369 594.424C159.369 591.038 160.638 587.265 162.661 584.001L166.488 586.211C164.465 589.47 163.196 593.243 163.196 596.624C163.186 599.632 164.195 601.793 165.846 602.891Z" fill="black"/>
<path opacity="0.4" d="M179.817 578.587C178.053 577.73 175.696 577.945 173.104 579.44C170.511 580.934 168.233 583.36 166.479 586.202L162.652 583.992C164.401 581.155 166.729 578.71 169.272 577.245C171.991 575.672 174.446 575.525 176.24 576.534H176.274L179.817 578.587Z" fill="white"/>
<path d="M170.854 598.329C170.389 598.33 169.928 598.241 169.497 598.065C168.218 597.54 167.238 596.261 166.733 594.453C166.699 594.307 166.723 594.153 166.8 594.024C166.876 593.894 167 593.8 167.144 593.759C167.289 593.719 167.444 593.736 167.576 593.807C167.709 593.878 167.809 593.997 167.856 594.14C168.262 595.61 169.002 596.59 169.938 596.987C170.396 597.139 170.883 597.184 171.36 597.117C171.838 597.049 172.294 596.872 172.692 596.599C175.078 595.223 177.254 591.606 178.082 587.608C178.115 587.457 178.206 587.325 178.335 587.241C178.464 587.157 178.622 587.127 178.773 587.157C178.848 587.173 178.919 587.203 178.982 587.246C179.045 587.29 179.1 587.345 179.141 587.409C179.183 587.473 179.212 587.545 179.226 587.62C179.24 587.696 179.239 587.773 179.224 587.848C178.302 592.219 175.96 596.051 173.26 597.614C172.534 598.057 171.705 598.304 170.854 598.329V598.329Z" fill="#455A64"/>
<path d="M170.746 588.627C170.754 589.04 170.666 589.448 170.49 589.821C170.314 590.194 170.055 590.522 169.732 590.778C169.169 591.102 168.718 590.666 168.718 589.798C168.71 589.387 168.797 588.978 168.973 588.606C169.149 588.234 169.409 587.907 169.732 587.652C170.291 587.329 170.746 587.765 170.746 588.627Z" fill="#455A64"/>
<path d="M176.529 585.29C176.536 585.702 176.448 586.11 176.272 586.482C176.096 586.854 175.837 587.181 175.514 587.436C174.956 587.76 174.5 587.324 174.5 586.456C174.493 586.045 174.581 585.637 174.757 585.265C174.932 584.893 175.192 584.566 175.514 584.31C176.073 583.987 176.529 584.428 176.529 585.29Z" fill="#455A64"/>
<path d="M187.259 666.865L161.289 681.859C161.028 681.992 160.739 682.062 160.446 682.062C160.153 682.062 159.865 681.992 159.603 681.859L158.227 681.061C157.98 680.9 157.775 680.683 157.628 680.427C157.482 680.172 157.398 679.885 157.384 679.591V649.603C157.398 649.309 157.482 649.022 157.628 648.766C157.775 648.511 157.98 648.294 158.227 648.133L184.197 633.139C184.457 633.006 184.745 632.937 185.037 632.937C185.329 632.937 185.617 633.006 185.877 633.139L187.254 633.942C187.501 634.103 187.707 634.32 187.854 634.575C188 634.831 188.084 635.118 188.097 635.412V665.405C188.082 665.697 187.998 665.982 187.852 666.235C187.707 666.489 187.504 666.705 187.259 666.865V666.865Z" fill="#455A64"/>
<path d="M161.147 681.923C160.9 682.022 160.634 682.068 160.368 682.057C160.102 682.046 159.842 681.978 159.603 681.859L158.227 681.056C157.98 680.895 157.775 680.678 157.629 680.422C157.484 680.167 157.401 679.88 157.389 679.586V649.598C157.396 649.303 157.48 649.016 157.634 648.765L160.691 650.543C160.54 650.794 160.456 651.079 160.446 651.371V681.359C160.446 681.854 160.745 682.08 161.147 681.923Z" fill="#263238"/>
<path d="M187.259 666.865L161.289 681.859C160.824 682.129 160.446 681.913 160.446 681.369V651.401C160.46 651.107 160.544 650.82 160.691 650.564C160.837 650.309 161.042 650.092 161.289 649.931L187.259 634.937C187.725 634.667 188.102 634.888 188.102 635.427V665.42C188.084 665.71 187.998 665.991 187.852 666.242C187.706 666.493 187.503 666.707 187.259 666.865Z" fill="#37474F"/>
<path fill-rule="evenodd" clip-rule="evenodd" d="M173.564 659.393L166.508 669.389C169.624 672.54 175.622 670.173 179.904 664.102C182.477 660.461 183.859 656.531 183.859 652.861L175.318 657.771C174.64 658.202 174.046 658.751 173.564 659.393Z" fill="#BA68C8"/>
<path opacity="0.3" fill-rule="evenodd" clip-rule="evenodd" d="M173.564 659.393L166.508 669.389C169.624 672.54 175.622 670.173 179.904 664.102C182.477 660.461 183.859 656.531 183.859 652.861L175.318 657.771C174.64 658.202 174.046 658.751 173.564 659.393Z" fill="black"/>
<path d="M166.15 669.134L173.206 659.138C173.724 658.45 174.366 657.864 175.097 657.408L183.638 652.479C183.705 652.44 183.781 652.42 183.859 652.42C183.936 652.42 184.012 652.44 184.079 652.479C184.146 652.518 184.202 652.574 184.24 652.641C184.279 652.708 184.3 652.784 184.299 652.861C184.299 656.644 182.903 660.623 180.267 664.357C177.43 668.375 173.784 670.932 170.516 671.217C169.729 671.308 168.931 671.22 168.183 670.959C167.434 670.699 166.754 670.273 166.194 669.712C166.126 669.644 166.083 669.555 166.071 669.459C166.058 669.364 166.077 669.267 166.125 669.183C166.128 669.165 166.137 669.147 166.15 669.134V669.134ZM183.398 653.635L175.558 658.173C174.935 658.562 174.387 659.06 173.941 659.643L167.105 669.32C167.57 669.701 168.106 669.983 168.681 670.152C169.257 670.32 169.861 670.371 170.457 670.3C173.426 670.055 176.915 667.576 179.556 663.827C180.007 663.195 180.414 662.553 180.786 661.912C182.295 659.396 183.19 656.561 183.398 653.635Z" fill="white"/>
<path fill-rule="evenodd" clip-rule="evenodd" d="M173.882 657.247L171.3 649.578C166.263 654.375 163.504 662.215 165.141 667.086C165.404 667.951 165.871 668.741 166.503 669.389L173.559 659.393C173.759 659.077 173.891 658.723 173.947 658.354C174.002 657.984 173.98 657.607 173.882 657.247Z" fill="#BA68C8"/>
<path d="M171.001 649.26C171.054 649.208 171.118 649.171 171.19 649.151C171.261 649.131 171.336 649.13 171.407 649.147C171.479 649.166 171.546 649.202 171.6 649.253C171.655 649.303 171.696 649.366 171.721 649.436L174.298 657.105C174.418 657.531 174.447 657.978 174.382 658.416C174.318 658.854 174.163 659.274 173.926 659.648L166.89 669.644C166.851 669.695 166.803 669.738 166.747 669.769C166.692 669.8 166.63 669.819 166.566 669.825C166.502 669.832 166.436 669.824 166.375 669.802C166.314 669.78 166.259 669.744 166.213 669.698C165.536 669.009 165.033 668.169 164.743 667.248C163.553 663.705 164.611 658.639 167.149 654.243C168.188 652.406 169.485 650.728 171.001 649.26V649.26ZM173.206 659.138C173.365 658.878 173.47 658.589 173.513 658.287C173.557 657.986 173.539 657.679 173.461 657.384L171.109 650.387C166.512 655.101 164.033 662.392 165.562 666.949C165.757 667.575 166.064 668.161 166.468 668.679L173.206 659.138Z" fill="white"/>
<path fill-rule="evenodd" clip-rule="evenodd" d="M174.97 657.404L182.026 647.408C179.537 644.889 175.332 645.737 171.305 649.578L173.882 657.247C174.093 657.884 174.583 657.952 174.97 657.404Z" fill="#BA68C8"/>
<path opacity="0.1" fill-rule="evenodd" clip-rule="evenodd" d="M174.97 657.404L182.026 647.408C179.537 644.889 175.332 645.737 171.305 649.578L173.882 657.247C174.093 657.884 174.583 657.952 174.97 657.404Z" fill="black"/>
<path d="M171.001 649.26C175.215 645.242 179.669 644.394 182.34 647.099C182.413 647.172 182.457 647.269 182.466 647.372C182.475 647.475 182.448 647.578 182.389 647.663L175.328 657.659C175.241 657.854 175.092 658.015 174.905 658.118C174.718 658.221 174.502 658.26 174.29 658.229C174.079 658.198 173.883 658.098 173.734 657.946C173.584 657.793 173.488 657.596 173.461 657.384L170.883 649.716C170.864 649.657 170.858 649.594 170.864 649.533C170.871 649.471 170.891 649.411 170.923 649.358C170.942 649.32 170.968 649.287 171.001 649.26V649.26ZM181.443 647.481C179.155 645.521 175.44 646.359 171.81 649.716L174.299 657.115C174.326 657.197 174.365 657.275 174.416 657.345C174.496 657.302 174.562 657.237 174.607 657.159L181.443 647.481Z" fill="white"/>
<path fill-rule="evenodd" clip-rule="evenodd" d="M175.318 657.771L183.859 652.871C183.859 650.421 183.271 648.682 182.026 647.417L174.97 657.413C174.583 657.952 174.73 658.124 175.318 657.771Z" fill="#BA68C8"/>
<path opacity="0.2" fill-rule="evenodd" clip-rule="evenodd" d="M175.318 657.771L183.859 652.871C183.859 650.421 183.271 648.682 182.026 647.417L174.97 657.413C174.583 657.952 174.73 658.124 175.318 657.771Z" fill="black"/>
<path d="M174.607 657.149L181.668 647.153C181.705 647.1 181.754 647.057 181.81 647.026C181.865 646.995 181.928 646.976 181.991 646.971C182.055 646.965 182.12 646.973 182.18 646.995C182.24 647.017 182.295 647.053 182.339 647.099C183.677 648.451 184.299 650.284 184.299 652.861C184.299 652.939 184.279 653.015 184.24 653.082C184.202 653.149 184.146 653.205 184.079 653.243L175.543 658.173C175.357 658.281 174.798 658.604 174.455 658.227C174.359 658.1 174.308 657.946 174.308 657.788C174.308 657.63 174.359 657.476 174.455 657.35L174.607 657.149ZM182.08 648.118L175.803 657.011L183.427 652.601C183.378 650.656 182.947 649.211 182.08 648.118Z" fill="white"/>
<path d="M241.737 621.756C241.284 621.538 240.786 621.429 240.283 621.438C239.78 621.447 239.286 621.575 238.842 621.81L194.183 647.594C193.752 647.88 193.395 648.263 193.14 648.712C192.884 649.162 192.738 649.665 192.713 650.181V662.921C192.694 663.431 192.814 663.936 193.06 664.383C193.307 664.829 193.67 665.2 194.112 665.455C194.553 665.71 195.056 665.84 195.566 665.83C196.076 665.821 196.574 665.672 197.005 665.401L241.664 639.617C242.095 639.331 242.452 638.948 242.707 638.498C242.963 638.049 243.109 637.546 243.134 637.03V624.29C243.116 623.787 242.98 623.297 242.738 622.856C242.495 622.416 242.153 622.04 241.737 621.756V621.756Z" fill="#263238"/>
<path d="M243.119 624.02C242.997 623.265 242.384 623.001 241.649 623.432L223.029 634.178L196.991 649.211C196.549 649.485 196.184 649.868 195.932 650.323L193.129 648.706C193.381 648.251 193.743 647.867 194.183 647.589L238.841 621.81C239.253 621.549 239.725 621.401 240.212 621.379C240.698 621.358 241.182 621.464 241.615 621.687C242.047 621.911 242.414 622.244 242.678 622.653C242.942 623.062 243.094 623.534 243.119 624.02V624.02Z" fill="#455A64"/>
<path d="M195.491 651.798V664.538C195.491 665.488 196.163 665.876 196.986 665.4L241.644 639.616C242.075 639.331 242.432 638.947 242.688 638.498C242.943 638.049 243.089 637.546 243.114 637.029V624.289C243.114 623.339 242.448 622.952 241.644 623.427L223.024 634.177L196.981 649.211C196.547 649.495 196.186 649.877 195.927 650.326C195.668 650.776 195.519 651.28 195.491 651.798V651.798Z" fill="#37474F"/>
<path d="M203.086 649.931L203.816 651.479C203.825 651.502 203.838 651.522 203.855 651.539C203.871 651.556 203.891 651.569 203.913 651.578C203.936 651.586 203.959 651.591 203.983 651.59C204.007 651.589 204.03 651.583 204.052 651.573L205.683 650.95C205.943 650.847 206.046 651.215 205.86 651.568L204.679 653.782C204.608 653.911 204.575 654.057 204.586 654.204L204.865 656.213C204.909 656.531 204.64 656.948 204.409 656.918L202.939 656.737C202.88 656.74 202.822 656.757 202.771 656.787C202.72 656.817 202.677 656.858 202.645 656.909L201.175 658.776C200.945 659.07 200.685 658.962 200.72 658.594L200.999 656.267C201.011 656.21 201.009 656.151 200.993 656.096C200.976 656.04 200.947 655.989 200.906 655.948L199.725 655.096C199.539 654.958 199.642 654.473 199.901 654.277L201.533 653.018C201.647 652.923 201.729 652.794 201.768 652.651L202.498 650.259C202.66 649.882 202.969 649.691 203.086 649.931Z" fill="#BA68C8"/>
<path d="M211.343 645.208L212.073 646.756C212.08 646.779 212.093 646.799 212.11 646.817C212.126 646.834 212.146 646.848 212.169 646.857C212.191 646.865 212.215 646.869 212.239 646.868C212.263 646.867 212.287 646.86 212.308 646.849L213.94 646.227C214.199 646.124 214.302 646.491 214.116 646.844L212.95 649.059C212.878 649.189 212.846 649.337 212.857 649.485L213.136 651.489C213.18 651.808 212.911 652.224 212.68 652.195L211.21 652.019C211.151 652.019 211.093 652.035 211.042 652.064C210.99 652.093 210.947 652.135 210.916 652.185L209.446 654.052C209.216 654.346 208.956 654.243 208.991 653.871L209.27 651.543C209.282 651.487 209.28 651.428 209.264 651.372C209.247 651.317 209.218 651.266 209.177 651.225L207.996 650.372C207.81 650.235 207.913 649.755 208.172 649.554L209.804 648.295C209.918 648.199 210 648.071 210.039 647.927L210.769 645.536C210.892 645.154 211.225 644.963 211.343 645.208Z" fill="#BA68C8"/>
<path d="M219.599 640.484L220.33 642.032C220.338 642.054 220.351 642.075 220.368 642.092C220.384 642.109 220.404 642.122 220.427 642.131C220.449 642.139 220.472 642.143 220.496 642.142C220.52 642.142 220.543 642.136 220.565 642.125L222.196 641.498C222.456 641.4 222.559 641.763 222.373 642.116L221.192 644.33C221.121 644.461 221.089 644.609 221.099 644.757L221.378 646.761C221.422 647.079 221.153 647.501 220.922 647.471L219.452 647.29C219.393 647.293 219.336 647.31 219.284 647.34C219.233 647.369 219.19 647.411 219.158 647.461L217.688 649.323C217.458 649.622 217.198 649.515 217.233 649.147L217.512 646.82C217.524 646.762 217.522 646.703 217.506 646.646C217.49 646.59 217.46 646.538 217.419 646.496L216.238 645.644C216.052 645.511 216.155 645.026 216.414 644.825L218.046 643.566C218.16 643.47 218.242 643.342 218.281 643.198L219.011 640.807C219.149 640.43 219.482 640.234 219.599 640.484Z" fill="#BA68C8"/>
<path d="M227.856 635.756L228.586 637.304C228.594 637.326 228.607 637.346 228.624 637.363C228.641 637.38 228.661 637.394 228.683 637.402C228.705 637.411 228.729 637.415 228.753 637.414C228.776 637.413 228.8 637.407 228.821 637.397L230.453 636.77C230.712 636.672 230.815 637.034 230.629 637.387L229.448 639.602C229.377 639.732 229.345 639.88 229.355 640.028L229.634 642.032C229.679 642.351 229.409 642.772 229.179 642.743L227.709 642.562C227.65 642.564 227.592 642.581 227.541 642.611C227.49 642.641 227.446 642.683 227.415 642.733L225.945 644.595C225.714 644.894 225.455 644.786 225.489 644.419L225.768 642.091C225.781 642.035 225.778 641.976 225.762 641.92C225.746 641.865 225.716 641.814 225.675 641.773L224.494 640.92C224.308 640.783 224.411 640.298 224.671 640.097L226.302 638.843C226.415 638.745 226.496 638.618 226.538 638.475L227.268 636.084C227.405 635.721 227.738 635.511 227.856 635.756Z" fill="#BA68C8"/>
<path d="M236.112 631.027L236.842 632.575C236.851 632.597 236.864 632.618 236.88 632.635C236.897 632.652 236.917 632.665 236.939 632.674C236.961 632.682 236.985 632.686 237.009 632.685C237.033 632.685 237.056 632.679 237.077 632.668L238.709 632.046C238.969 631.943 239.072 632.311 238.885 632.663L237.705 634.878C237.633 635.007 237.601 635.153 237.611 635.3L237.891 637.309C237.935 637.627 237.665 638.044 237.435 638.014L235.965 637.833C235.906 637.836 235.848 637.853 235.797 637.883C235.746 637.912 235.703 637.954 235.671 638.004L234.201 639.871C233.971 640.165 233.711 640.058 233.745 639.69L234.025 637.363C234.037 637.306 234.035 637.247 234.019 637.191C234.002 637.136 233.972 637.085 233.932 637.044L232.77 636.211C232.584 636.074 232.687 635.589 232.947 635.393L234.578 634.133C234.693 634.038 234.775 633.91 234.814 633.766L235.544 631.375C235.661 630.973 235.98 630.782 236.112 631.027Z" fill="#BA68C8"/>
<path d="M201.856 641.782L199.406 640.371C199.358 640.35 199.317 640.314 199.289 640.268L198.838 639.484L200.308 638.646L200.264 638.774L201.856 641.782Z" fill="#BA68C8"/>
<path opacity="0.2" d="M201.856 641.782L199.406 640.371C199.358 640.35 199.317 640.314 199.289 640.268L198.838 639.484L200.308 638.646L200.264 638.774L201.856 641.782Z" fill="black"/>
<path d="M200.078 638.764L201.773 641.704C201.797 641.747 201.832 641.781 201.875 641.804C201.918 641.826 201.967 641.836 202.015 641.831C202.064 641.827 202.11 641.808 202.147 641.777C202.185 641.747 202.214 641.706 202.229 641.66L204.017 636.5L200.078 638.764Z" fill="#BA68C8"/>
<path d="M242.84 597.795C242.818 597.386 242.7 596.987 242.495 596.632C242.29 596.277 242.003 595.975 241.659 595.752V595.752C241.292 595.568 240.888 595.473 240.478 595.473C240.068 595.473 239.664 595.568 239.297 595.752L193.894 621.952C193.55 622.177 193.264 622.48 193.059 622.835C192.854 623.191 192.735 623.59 192.713 624V638.945C192.735 639.356 192.854 639.755 193.059 640.111C193.264 640.466 193.55 640.769 193.894 640.994V640.994C194.26 641.18 194.664 641.276 195.075 641.276C195.485 641.276 195.89 641.18 196.256 640.994L241.772 614.72C242.835 614.112 242.845 613.505 242.845 612.76L242.84 597.795Z" fill="#BA68C8"/>
<path opacity="0.2" d="M192.693 638.94C192.716 639.35 192.834 639.75 193.039 640.105C193.244 640.461 193.53 640.764 193.874 640.989V640.989C194.207 641.158 194.571 641.255 194.944 641.272C195.316 641.29 195.688 641.228 196.035 641.091C195.481 641.302 195.055 640.984 195.055 640.307V625.358C195.069 624.947 195.189 624.547 195.403 624.196L193.036 622.829C192.826 623.183 192.708 623.584 192.693 623.995V638.94Z" fill="black"/>
<path opacity="0.4" d="M242.786 597.462C242.649 596.972 242.189 596.801 241.645 597.114L196.236 623.315C195.886 623.53 195.599 623.834 195.403 624.197L193.042 622.829C193.241 622.47 193.527 622.167 193.875 621.947L239.278 595.752C239.644 595.566 240.048 595.469 240.459 595.469C240.869 595.469 241.274 595.566 241.64 595.752V595.752C241.937 595.944 242.193 596.195 242.39 596.489C242.587 596.783 242.722 597.114 242.786 597.462V597.462Z" fill="white"/>
<path d="M198.25 625.622L239.023 602.034C239.42 601.808 239.743 601.911 239.743 602.269C239.714 602.489 239.634 602.7 239.509 602.884C239.384 603.067 239.217 603.219 239.023 603.327L198.25 626.901C197.858 627.132 197.535 627.029 197.535 626.671C197.566 626.453 197.646 626.245 197.77 626.063C197.894 625.881 198.058 625.731 198.25 625.622Z" fill="white"/>
<path d="M198.25 632.291L233.221 612.103C233.618 611.873 233.937 611.976 233.937 612.334C233.908 612.554 233.828 612.765 233.704 612.95C233.58 613.134 233.415 613.287 233.221 613.397L198.25 633.58C197.858 633.81 197.535 633.703 197.535 633.345C197.567 633.127 197.649 632.919 197.772 632.737C197.896 632.554 198.059 632.402 198.25 632.291Z" fill="white"/>
<path d="M198.25 635.535L238.19 612.446C238.582 612.216 238.905 612.324 238.905 612.681C238.873 612.9 238.793 613.109 238.669 613.292C238.545 613.476 238.381 613.628 238.19 613.74L198.25 636.824C197.858 637.054 197.535 636.951 197.535 636.593C197.564 636.374 197.644 636.164 197.768 635.98C197.892 635.797 198.057 635.644 198.25 635.535Z" fill="white"/>
<path d="M198.25 628.861L238.19 605.772C238.582 605.542 238.905 605.65 238.905 606.007C238.876 606.227 238.795 606.437 238.671 606.62C238.547 606.804 238.383 606.956 238.19 607.066L198.25 630.174C197.858 630.4 197.535 630.297 197.535 629.939C197.561 629.716 197.64 629.502 197.764 629.315C197.888 629.128 198.055 628.972 198.25 628.861V628.861Z" fill="white"/>
<path d="M241.737 572.114C241.284 571.896 240.786 571.787 240.283 571.796C239.78 571.805 239.286 571.933 238.842 572.168L194.183 597.947C193.753 598.234 193.396 598.617 193.141 599.066C192.886 599.516 192.739 600.018 192.713 600.534V613.274C192.694 613.784 192.814 614.289 193.06 614.736C193.307 615.182 193.67 615.553 194.112 615.808C194.553 616.063 195.056 616.193 195.566 616.183C196.076 616.174 196.574 616.025 197.005 615.754L241.664 589.97C242.095 589.684 242.452 589.301 242.707 588.851C242.963 588.402 243.109 587.899 243.134 587.383V574.643C243.115 574.141 242.979 573.651 242.737 573.212C242.494 572.773 242.152 572.397 241.737 572.114V572.114Z" fill="#263238"/>
<path d="M243.119 574.378C242.997 573.623 242.384 573.359 241.649 573.785L223.029 584.531L196.991 599.564C196.55 599.842 196.186 600.226 195.932 600.681L193.129 599.064C193.38 598.608 193.742 598.223 194.183 597.947L238.841 572.168C239.253 571.907 239.725 571.759 240.212 571.737C240.698 571.716 241.182 571.822 241.615 572.045C242.047 572.269 242.414 572.602 242.678 573.011C242.942 573.42 243.094 573.892 243.119 574.378Z" fill="#455A64"/>
<path d="M195.491 602.156V614.896C195.491 615.847 196.163 616.234 196.986 615.759L241.644 589.975C242.075 589.689 242.432 589.306 242.688 588.856C242.943 588.407 243.089 587.904 243.114 587.388V574.648C243.114 573.697 242.448 573.31 241.644 573.785L223.024 584.531L196.981 599.569C196.547 599.853 196.186 600.235 195.927 600.685C195.668 601.134 195.519 601.638 195.491 602.156V602.156Z" fill="#37474F"/>
<path d="M203.086 600.294L203.816 601.843C203.825 601.865 203.838 601.885 203.855 601.902C203.871 601.919 203.891 601.932 203.913 601.941C203.936 601.95 203.959 601.954 203.983 601.953C204.007 601.952 204.03 601.946 204.052 601.936L205.683 601.309C205.943 601.211 206.046 601.578 205.86 601.926L204.679 604.141C204.608 604.271 204.575 604.419 204.586 604.567L204.865 606.571C204.909 606.89 204.64 607.311 204.409 607.282L202.939 607.101C202.88 607.103 202.822 607.12 202.771 607.15C202.72 607.18 202.677 607.222 202.645 607.272L201.175 609.134C200.945 609.433 200.685 609.325 200.72 608.958L200.999 606.63C201.011 606.574 201.009 606.515 200.993 606.459C200.976 606.404 200.947 606.353 200.906 606.312L199.725 605.459C199.539 605.322 199.642 604.837 199.901 604.636L201.533 603.381C201.646 603.285 201.728 603.157 201.768 603.014L202.498 600.623C202.66 600.241 202.969 600.049 203.086 600.294Z" fill="#BA68C8"/>
<path d="M211.343 595.566L212.073 597.114C212.081 597.137 212.094 597.157 212.111 597.174C212.128 597.191 212.148 597.204 212.17 597.213C212.192 597.221 212.216 597.226 212.239 597.225C212.263 597.224 212.286 597.218 212.308 597.207L213.94 596.585C214.199 596.482 214.302 596.85 214.116 597.203L212.95 599.417C212.879 599.546 212.846 599.692 212.857 599.839L213.136 601.848C213.18 602.166 212.911 602.583 212.68 602.553L211.21 602.372C211.151 602.375 211.093 602.392 211.042 602.422C210.991 602.452 210.948 602.493 210.916 602.544L209.446 604.41C209.216 604.704 208.956 604.602 208.991 604.229L209.27 601.902C209.282 601.845 209.28 601.786 209.264 601.731C209.247 601.675 209.218 601.624 209.177 601.583L207.996 600.731C207.81 600.593 207.913 600.108 208.172 599.912L209.804 598.653C209.918 598.558 210 598.429 210.039 598.285L210.769 595.894C210.892 595.512 211.225 595.321 211.343 595.566Z" fill="#BA68C8"/>
<path d="M219.599 590.837L220.33 592.391C220.338 592.413 220.351 592.433 220.368 592.45C220.384 592.467 220.404 592.48 220.427 592.489C220.449 592.498 220.472 592.502 220.496 592.501C220.52 592.5 220.543 592.494 220.565 592.484L222.196 591.857C222.456 591.759 222.559 592.121 222.373 592.474L221.192 594.689C221.12 594.819 221.088 594.967 221.099 595.115L221.378 597.119C221.422 597.438 221.153 597.854 220.922 597.83L219.452 597.648C219.393 597.649 219.335 597.665 219.284 597.694C219.232 597.723 219.189 597.765 219.158 597.815L217.688 599.682C217.458 599.976 217.198 599.873 217.233 599.501L217.512 597.173C217.524 597.117 217.521 597.058 217.505 597.002C217.489 596.947 217.459 596.896 217.419 596.855L216.238 596.002C216.052 595.87 216.155 595.385 216.414 595.184L218.046 593.924C218.16 593.829 218.242 593.701 218.281 593.557L219.011 591.166C219.149 590.788 219.482 590.592 219.599 590.837Z" fill="#BA68C8"/>
<path d="M227.856 586.114L228.586 587.662C228.594 587.684 228.607 587.704 228.624 587.721C228.641 587.738 228.661 587.752 228.683 587.76C228.705 587.769 228.729 587.773 228.753 587.772C228.776 587.771 228.8 587.766 228.821 587.755L230.453 587.128C230.712 587.03 230.815 587.393 230.629 587.745L229.448 589.96C229.377 590.09 229.345 590.238 229.355 590.386L229.634 592.391C229.678 592.709 229.409 593.13 229.179 593.101L227.709 592.92C227.649 592.923 227.592 592.94 227.541 592.969C227.489 592.999 227.446 593.041 227.415 593.091L225.945 594.953C225.714 595.252 225.455 595.144 225.489 594.777L225.768 592.449C225.785 592.391 225.787 592.329 225.773 592.27C225.759 592.211 225.731 592.156 225.69 592.111L224.509 591.259C224.323 591.126 224.426 590.641 224.685 590.44L226.317 589.186C226.43 589.088 226.512 588.958 226.552 588.814L227.282 586.422C227.405 586.06 227.738 585.864 227.856 586.114Z" fill="#BA68C8"/>
<path d="M236.112 581.385L236.842 582.934C236.851 582.956 236.864 582.976 236.88 582.993C236.897 583.01 236.917 583.023 236.939 583.032C236.961 583.041 236.985 583.045 237.009 583.044C237.033 583.043 237.056 583.037 237.077 583.027L238.709 582.4C238.969 582.302 239.072 582.669 238.885 583.017L237.705 585.251C237.634 585.382 237.601 585.53 237.611 585.678L237.891 587.682C237.935 588 237.665 588.422 237.435 588.392L235.965 588.211C235.906 588.214 235.848 588.231 235.797 588.261C235.746 588.29 235.703 588.332 235.671 588.382L234.201 590.244C233.971 590.543 233.711 590.436 233.745 590.068L234.025 587.741C234.037 587.684 234.035 587.625 234.019 587.569C234.002 587.514 233.972 587.463 233.932 587.422L232.751 586.569C232.565 586.432 232.667 585.947 232.927 585.746L234.559 584.492C234.673 584.396 234.755 584.268 234.794 584.124L235.524 581.733C235.661 581.331 235.98 581.14 236.112 581.385Z" fill="#455A64"/>
<path d="M201.856 592.14L199.406 590.729C199.358 590.708 199.317 590.672 199.289 590.626L198.838 589.842L200.308 589.004L200.264 589.132L201.856 592.14Z" fill="#BA68C8"/>
<path opacity="0.2" d="M201.856 592.14L199.406 590.729C199.358 590.708 199.317 590.672 199.289 590.626L198.838 589.842L200.308 589.004L200.264 589.132L201.856 592.14Z" fill="black"/>
<path d="M200.078 589.122L201.773 592.062C201.797 592.105 201.832 592.139 201.875 592.162C201.918 592.184 201.967 592.194 202.015 592.189C202.064 592.184 202.11 592.166 202.147 592.135C202.185 592.105 202.214 592.064 202.229 592.018L204.017 586.858L200.078 589.122Z" fill="#BA68C8"/>
<path d="M242.84 548.153C242.818 547.743 242.699 547.344 242.494 546.988C242.289 546.632 242.003 546.33 241.659 546.105V546.105C241.293 545.919 240.889 545.822 240.478 545.822C240.068 545.822 239.663 545.919 239.297 546.105L193.874 572.305C193.53 572.53 193.244 572.833 193.039 573.189C192.834 573.544 192.716 573.943 192.693 574.354V589.299C192.716 589.709 192.834 590.108 193.039 590.464C193.244 590.819 193.53 591.122 193.874 591.347V591.347C194.24 591.533 194.645 591.63 195.055 591.63C195.466 591.63 195.87 591.533 196.236 591.347L241.752 565.068C242.815 564.465 242.825 563.858 242.825 563.108L242.84 548.153Z" fill="#BA68C8"/>
<path opacity="0.2" d="M192.693 589.299C192.716 589.709 192.834 590.108 193.039 590.464C193.244 590.82 193.53 591.122 193.874 591.347V591.347C194.207 591.517 194.571 591.613 194.944 591.63C195.317 591.647 195.689 591.584 196.035 591.445C195.481 591.656 195.055 591.342 195.055 590.666V575.716C195.069 575.304 195.189 574.902 195.403 574.55L193.036 573.188C192.826 573.541 192.708 573.942 192.693 574.354V589.299Z" fill="black"/>
<path opacity="0.4" d="M242.786 547.82C242.649 547.33 242.189 547.158 241.645 547.472L196.236 573.672C195.886 573.888 195.599 574.192 195.403 574.554L193.042 573.187C193.241 572.828 193.527 572.525 193.875 572.305L239.278 546.105C239.644 545.921 240.049 545.826 240.459 545.826C240.869 545.826 241.273 545.921 241.64 546.105V546.105C241.938 546.297 242.193 546.549 242.391 546.844C242.588 547.139 242.722 547.471 242.786 547.82V547.82Z" fill="white"/>
<path d="M198.25 575.975L239.023 552.392C239.42 552.166 239.743 552.269 239.743 552.627C239.714 552.847 239.634 553.058 239.509 553.241C239.384 553.425 239.217 553.577 239.023 553.685L198.25 577.269C197.858 577.499 197.535 577.396 197.535 577.039C197.566 576.819 197.646 576.609 197.77 576.425C197.894 576.241 198.058 576.087 198.25 575.975V575.975Z" fill="white"/>
<path d="M198.25 582.644L233.221 562.456C233.618 562.226 233.937 562.329 233.937 562.687C233.908 562.907 233.829 563.117 233.705 563.301C233.58 563.485 233.415 563.637 233.221 563.745L198.25 583.938C197.858 584.163 197.535 584.06 197.535 583.703C197.564 583.483 197.645 583.273 197.769 583.09C197.893 582.906 198.057 582.754 198.25 582.644V582.644Z" fill="white"/>
<path d="M198.25 585.888L238.19 562.804C238.582 562.574 238.905 562.682 238.905 563.035C238.874 563.254 238.794 563.464 238.67 563.648C238.546 563.832 238.382 563.986 238.19 564.098L198.25 587.182C197.858 587.412 197.535 587.309 197.535 586.951C197.566 586.732 197.646 586.522 197.77 586.338C197.894 586.154 198.058 586 198.25 585.888V585.888Z" fill="white"/>
<path d="M198.25 579.239L238.19 556.15C238.582 555.92 238.905 556.028 238.905 556.385C238.873 556.604 238.793 556.813 238.669 556.996C238.545 557.18 238.381 557.333 238.19 557.444L198.25 580.528C197.858 580.758 197.535 580.655 197.535 580.297C197.564 580.078 197.644 579.868 197.768 579.684C197.892 579.501 198.057 579.348 198.25 579.239Z" fill="white"/>
<path d="M215.194 669.286L232.368 665.92C232.477 665.902 232.588 665.918 232.687 665.966C232.786 666.013 232.868 666.09 232.921 666.186C232.975 666.282 232.998 666.392 232.986 666.501C232.975 666.611 232.93 666.714 232.858 666.797L221.211 679.988L215.194 669.286Z" fill="#FFA8A7"/>
<path d="M232.868 666.797C232.94 666.714 232.985 666.611 232.996 666.501C233.008 666.392 232.985 666.282 232.931 666.186C232.878 666.09 232.796 666.013 232.697 665.966C232.598 665.918 232.487 665.902 232.378 665.92L229.017 666.591C229.477 666.876 229.85 667.283 230.094 667.766C230.337 668.249 230.443 668.791 230.399 669.33V669.634L232.868 666.797Z" fill="#BA68C8"/>
<path d="M157.183 716.713L158.584 715.905L160.285 714.925L221.216 679.973C221.775 678.081 221.6 676.048 220.726 674.279C219.506 671.555 217.144 669.379 215.184 669.276L154.302 704.223L151.063 706.08C153.229 704.992 159.339 715.591 157.183 716.713Z" fill="#37474F"/>
<path d="M162.539 713.66L165.675 711.857C166.601 711.367 166.072 709.088 164.989 706.736C163.553 703.61 160.736 700.582 159.506 701.234L157.193 702.562L156.375 703.052C157.604 702.4 160.427 705.423 161.858 708.554C162.892 710.808 163.421 712.999 162.632 713.596C162.607 713.626 162.575 713.648 162.539 713.66Z" fill="#EBEBEB"/>
<path d="M163.318 713.205C165.469 712.063 159.31 701.445 157.154 702.591L154.013 704.385C156.164 703.248 162.343 713.856 160.172 714.998L163.318 713.205Z" fill="#BA68C8"/>
<path d="M157.183 716.713L160.285 714.939C162.406 713.832 156.546 703.542 154.302 704.223C154.257 704.231 154.214 704.248 154.174 704.272L151.063 706.08C153.229 704.992 159.339 715.591 157.183 716.713Z" fill="#EBEBEB"/>
<path opacity="0.15" d="M232.947 666.218L232.368 665.919L219.908 672.735L155.473 709.711C155.35 709.52 155.252 709.505 155.174 709.637C157.006 712.494 158.388 716.091 157.183 716.718L158.584 715.909L160.285 714.929L221.216 679.978L232.863 666.787C232.935 666.713 232.982 666.618 232.997 666.516C233.012 666.414 232.994 666.31 232.947 666.218Z" fill="black"/>
<path d="M144.017 724.244L157.183 716.713C158.104 716.223 157.594 713.979 156.531 711.642C155.105 708.51 152.298 705.453 151.063 706.08L137.843 713.631C135.216 715.145 137.632 720.839 140.557 723.387C141.645 724.362 142.88 724.788 144.017 724.244Z" fill="#F28F8F"/>
<path opacity="0.1" d="M144.801 720.163C144.046 717.193 141.645 714.283 139.435 713.661C139.111 713.546 138.763 713.51 138.422 713.557C138.081 713.604 137.757 713.732 137.475 713.93C135.515 715.768 137.803 720.991 140.572 723.402C141.635 724.343 142.826 724.764 143.963 724.269C144.933 723.691 145.33 722.172 144.801 720.163Z" fill="black"/>
<defs>
<filter id="filter0_d_3615_2237" x="0.907715" y="601.039" width="322.272" height="226.644" filterUnits="userSpaceOnUse" color-interpolation-filters="sRGB">
<feFlood flood-opacity="0" result="BackgroundImageFix"/>
<feColorMatrix in="SourceAlpha" type="matrix" values="0 0 0 0 0 0 0 0 0 0 0 0 0 0 0 0 0 0 127 0" result="hardAlpha"/>
<feOffset dy="24"/>
<feGaussianBlur stdDeviation="24"/>
<feComposite in2="hardAlpha" operator="out"/>
<feColorMatrix type="matrix" values="0 0 0 0 0 0 0 0 0 0 0 0 0 0 0 0 0 0 0.08 0"/>
<feBlend mode="normal" in2="BackgroundImageFix" result="effect1_dropShadow_3615_2237"/>
<feBlend mode="normal" in="SourceGraphic" in2="effect1_dropShadow_3615_2237" result="shape"/>
</filter>
</defs>
</svg>
