<svg width="564" height="564" viewBox="0 0 564 564" fill="none" xmlns="http://www.w3.org/2000/svg">
<path d="M282.347 559.695C422.882 559.695 536.809 495.426 536.809 416.146C536.809 336.867 422.882 272.598 282.347 272.598C141.811 272.598 27.8838 336.867 27.8838 416.146C27.8838 495.426 141.811 559.695 282.347 559.695Z" fill="#FAFAFA"/>
<path d="M343.212 452.53C306.374 473.8 306.374 508.283 343.212 529.553C380.049 550.824 439.784 550.824 476.621 529.553C513.459 508.283 513.47 473.8 476.621 452.53C439.773 431.26 380.049 431.26 343.212 452.53Z" fill="#E6E6E6"/>
<path d="M392.553 284.3C408.892 293.805 408.892 309.288 392.553 318.825C376.215 328.361 349.749 328.33 333.41 318.825C317.072 309.319 317.072 293.837 333.41 284.3C349.749 274.763 376.226 274.763 392.553 284.3Z" fill="#E0E0E0"/>
<path d="M183.547 530.514L47.4015 451.896C44.9619 450.492 44.9619 448.2 47.4015 446.795L282.917 310.798C284.284 310.101 285.797 309.737 287.332 309.737C288.867 309.737 290.379 310.101 291.747 310.798L427.902 389.395C430.342 390.81 430.342 393.091 427.902 394.496L192.386 530.504C191.017 531.199 189.503 531.563 187.968 531.565C186.432 531.567 184.917 531.207 183.547 530.514V530.514Z" fill="#E6E6E6"/>
<path d="M521.189 153.119C521.189 120.442 499.676 81.5239 473.125 66.1995C459.068 58.0885 446.437 58.2152 437.639 64.9744C426.719 69.5157 419.685 82.0731 419.685 100.703V275.692L515.792 331.192L521.136 328.108L521.189 153.119Z" fill="#E6E6E6"/>
<path d="M515.845 331.192V156.181C515.845 123.505 494.332 84.5866 467.781 69.2622C441.23 53.9379 419.716 68.0054 419.716 100.682V275.692L515.845 331.192Z" fill="#F5F5F5"/>
<path d="M510.596 156.181V322.088L424.976 272.651V100.703C424.976 84.3754 430.721 73.1066 440.385 69.558C442.631 68.739 445.007 68.3312 447.398 68.354C452.868 68.354 458.835 70.1917 465.162 73.8458C490.213 88.3042 510.596 125.247 510.596 156.181Z" fill="#E0E0E0"/>
<path d="M424.976 272.651L430.405 269.525L510.596 315.825V322.088L424.976 272.651Z" fill="#EBEBEB"/>
<path d="M510.596 156.181V315.825L430.404 269.525V97.5664C430.404 84.5866 434.048 74.8069 440.395 69.558C442.642 68.739 445.017 68.3312 447.408 68.354C452.879 68.354 458.846 70.1917 465.172 73.8458C490.213 88.3042 510.596 125.247 510.596 156.181Z" fill="white"/>
<path d="M470.411 298.885L465.162 295.854V71.9448H470.411V298.885Z" fill="#F5F5F5"/>
<path d="M475.67 81.4394V295.833L470.389 298.864V77.2466C472.206 78.5351 473.948 79.9291 475.67 81.4394Z" fill="#E0E0E0"/>
<path d="M424.976 235.56L465.162 258.763V264.931L424.976 241.738V235.56Z" fill="#F5F5F5"/>
<path d="M430.405 232.434L424.976 235.56L465.162 258.763V252.595L430.405 232.434Z" fill="#EBEBEB"/>
<path d="M470.41 261.794L510.596 284.986V291.154L470.41 267.962V261.794Z" fill="#F5F5F5"/>
<path d="M475.839 258.657L470.41 261.794L510.596 284.986V278.819L475.839 258.657Z" fill="#EBEBEB"/>
<path d="M424.976 112.416L465.162 135.608V141.776L424.976 118.583V112.416Z" fill="#F5F5F5"/>
<path d="M430.405 109.279L424.976 112.416L465.162 135.608V129.44L430.405 109.279Z" fill="#EBEBEB"/>
<path d="M470.41 138.639L510.596 161.842V167.999L470.41 144.817V138.639Z" fill="#F5F5F5"/>
<path d="M475.839 135.513L470.41 138.639L510.596 161.842V155.674L475.839 135.513Z" fill="#EBEBEB"/>
<path d="M56.0508 194.962L58.237 196.272L103.143 170.344L100.957 169.034L56.0508 194.962Z" fill="#FAFAFA"/>
<path d="M100.957 169.034L58.2363 193.695L58.2469 148.968L100.957 124.318V169.034Z" fill="white"/>
<path d="M107.272 115.89L54.1177 146.581V203.422L107.272 172.731V115.89ZM103.143 170.344L58.2471 196.314V148.968L103.143 123.04V170.344Z" fill="#F0F0F0"/>
<path d="M103.143 170.344L100.957 169.034V124.318L103.143 123.04V170.344Z" fill="#E0E0E0"/>
<path d="M107.272 115.89L105.054 114.612L51.8892 145.303L54.107 146.581L107.272 115.89Z" fill="#FAFAFA"/>
<path d="M51.8892 145.303L54.107 146.581V203.422L51.8892 202.154V145.303Z" fill="#E0E0E0"/>
<path d="M99.2882 167.704L59.9053 190.442V179.068L69.7589 156.329L75.895 162.022L73.6877 171.548L87.28 142.462L99.2882 156.329V167.704Z" fill="#F0F0F0"/>
<path d="M75.5147 145.356C74.6682 145.91 73.9641 146.656 73.4595 147.533C72.9549 148.41 72.664 149.394 72.6104 150.404C72.6104 152.253 73.9094 153.013 75.5147 152.084C76.3644 151.532 77.0714 150.787 77.578 149.909C78.0846 149.032 78.3764 148.047 78.4296 147.035C78.4296 145.176 77.1306 144.427 75.5147 145.356Z" fill="#F0F0F0"/>
<path d="M122.945 140.361L125.131 141.66L170.038 115.732L167.852 114.433L122.945 140.361Z" fill="#FAFAFA"/>
<path d="M167.852 114.433L125.131 139.083V94.3558L167.852 69.7164V114.433Z" fill="white"/>
<path d="M174.167 61.278L121.002 91.9689V148.788L174.167 118.161V61.278ZM170.038 115.732L125.131 141.66V94.3558L170.038 68.4279V115.732Z" fill="#F0F0F0"/>
<path d="M170.038 115.732L167.852 114.433V69.7163L170.038 68.4279V115.732Z" fill="#E0E0E0"/>
<path d="M174.167 61.2779L171.95 60L118.784 90.7016L121.002 91.9689L174.167 61.2779Z" fill="#FAFAFA"/>
<path d="M118.784 90.7015L121.002 91.9689V148.81L118.784 147.542V90.7015Z" fill="#E0E0E0"/>
<path d="M166.183 113.091L126.8 135.83V124.455L136.643 101.728L142.779 107.409L140.572 116.936L154.175 87.8606L166.183 101.728V113.091Z" fill="#F0F0F0"/>
<path d="M142.41 90.7015C141.562 91.2552 140.856 92.0007 140.35 92.8777C139.844 93.7547 139.551 94.7386 139.495 95.7498C139.495 97.6085 140.805 98.3584 142.41 97.429C143.258 96.8753 143.964 96.1298 144.47 95.2528C144.976 94.3758 145.269 93.3919 145.325 92.3807C145.325 90.5642 143.994 89.8143 142.41 90.7015Z" fill="#F0F0F0"/>
<path d="M337.138 306.552C322.743 291.693 314.283 241.801 328.33 230.015H399.798C413.844 241.801 405.395 291.672 391 306.542L390.609 306.954L390.113 307.44C389.698 307.841 389.265 308.232 388.814 308.612L388.465 308.886C388.117 309.161 387.768 309.446 387.409 309.721C386.811 310.151 386.19 310.549 385.551 310.914C373.701 317.832 354.49 317.832 342.651 310.914C342.006 310.547 341.382 310.145 340.781 309.71C340.422 309.457 340.095 309.193 339.725 308.929L339.303 308.601C338.859 308.232 338.437 307.851 338.046 307.471L337.476 306.901L337.138 306.552Z" fill="#37474F"/>
<path d="M393.599 225.263C409.906 234.768 409.906 250.229 393.599 259.745C377.292 269.261 350.847 269.25 334.54 259.745C318.234 250.24 318.234 234.789 334.54 225.263C350.847 215.736 377.292 215.747 393.599 225.263Z" fill="#455A64"/>
<path d="M385.752 229.846C397.728 236.838 397.728 248.17 385.752 255.193C373.775 262.216 354.353 262.185 342.377 255.193C330.4 248.202 330.411 236.859 342.377 229.846C354.343 222.833 373.775 222.855 385.752 229.846Z" fill="#263238"/>
<path d="M342.387 241.865C354.353 234.873 373.775 234.873 385.752 241.865C388.657 243.454 391.121 245.74 392.923 248.518C391.118 251.294 388.654 253.58 385.752 255.172C373.775 262.163 354.353 262.163 342.387 255.172C339.479 253.583 337.011 251.297 335.206 248.518C337.008 245.737 339.477 243.45 342.387 241.865V241.865Z" fill="#FAFAFA"/>
<path d="M388.265 146.159L369.561 162.201L387.884 152.876C388.08 158.911 387.214 164.935 385.329 170.671C385.329 170.671 376.341 176.501 371.208 181.528L385.286 175.329C385.286 175.329 386.628 184.707 383.269 199.24C382.382 203.052 378.432 210.403 375.971 215.874C374.839 218.401 373.544 220.853 372.095 223.214C372.011 223.362 371.916 223.509 371.821 223.657C368.476 221.918 365.009 220.235 361.418 218.609C358.926 213.867 355.472 202.038 354.025 192.301C348.47 155.03 375.94 132.471 398.382 124.403C398.403 124.403 390.958 134.51 388.265 146.159Z" fill="#F6B9D5"/>
<path opacity="0.45" d="M388.265 146.159L369.561 162.201L387.884 152.876C388.08 158.911 387.214 164.935 385.329 170.671C385.329 170.671 376.341 176.501 371.208 181.528L385.286 175.329C385.286 175.329 386.628 184.707 383.269 199.24C382.382 203.052 378.432 210.403 375.971 215.874C374.839 218.401 373.544 220.853 372.095 223.214C372.011 223.362 371.916 223.509 371.821 223.657C368.476 221.918 365.009 220.235 361.418 218.609C358.926 213.867 355.472 202.038 354.025 192.301C348.47 155.03 375.94 132.471 398.382 124.403C398.403 124.403 390.958 134.51 388.265 146.159Z" fill="white"/>
<path d="M372.191 148.355C368.41 152.464 366.308 157.766 364.745 163.046C363.21 168.383 362.271 173.873 361.946 179.416C361.148 190.469 362.975 201.554 367.28 211.765V211.765C367.321 211.895 367.312 212.035 367.256 212.159C367.199 212.283 367.099 212.381 366.974 212.435C366.849 212.489 366.708 212.495 366.58 212.451C366.451 212.407 366.343 212.317 366.277 212.198V212.198C362.08 201.796 360.405 190.548 361.387 179.374C361.819 173.822 362.853 168.333 364.471 163.004C366.139 157.692 368.336 152.4 372.191 148.355Z" fill="white"/>
<path d="M307.693 160.839C308.095 161.525 314.643 172.858 323.535 194.234L343.443 201.162H327.865L333.706 215.462L353.138 223.203L336.927 222.971C336.927 222.971 338.585 239.119 348.724 247.526C354.321 252.162 357.004 252.722 359.454 251.75C362.432 250.62 364.502 246.469 366.752 240.048C369.001 233.627 369.075 219.982 365.147 205.957C364.072 202.201 362.464 198.62 360.373 195.321C348.386 176.1 321.613 163.099 307.693 160.839Z" fill="#F6B9D5"/>
<path opacity="0.65" d="M307.693 160.839C308.095 161.525 314.643 172.858 323.535 194.234L343.443 201.162H327.865L333.706 215.462L353.138 223.203L336.927 222.971C336.927 222.971 338.585 239.119 348.724 247.526C354.321 252.162 357.004 252.722 359.454 251.75C362.432 250.62 364.502 246.469 366.752 240.048C369.001 233.627 369.075 219.982 365.147 205.957C364.072 202.201 362.464 198.62 360.373 195.321C348.386 176.1 321.613 163.099 307.693 160.839Z" fill="white"/>
<path d="M434.967 167.799C432.903 167.771 430.84 167.867 428.788 168.084C420.706 169.02 412.77 170.953 405.163 173.84C402.343 174.896 399.512 176.079 396.714 177.409C395.32 178.075 393.947 178.772 392.584 179.522C385.824 183.052 379.705 187.693 374.482 193.251C372.044 195.895 369.951 198.837 368.251 202.007C368.029 202.418 367.786 202.809 367.586 203.232C367.058 204.288 366.53 205.344 366.139 206.4C360.922 218.197 360.478 226.382 360.805 235.465C361.059 242.509 363.456 250.567 364.829 251.887C365.014 252.063 365.22 252.215 365.442 252.342C367.448 253.619 370.638 252.88 376.616 249.532C388.592 242.784 393.239 225.886 393.239 225.886L376.616 223.066L397.96 218.841L406.641 205.312L390.683 202.418L412.365 199.081C425.556 178.814 434.428 168.454 434.935 167.799H434.967Z" fill="#F6B9D5"/>
<path opacity="0.65" d="M434.967 167.799C432.903 167.771 430.84 167.867 428.788 168.084C420.706 169.02 412.77 170.953 405.163 173.84C402.343 174.896 399.512 176.079 396.714 177.409C395.32 178.075 393.947 178.772 392.584 179.522C385.824 183.052 379.705 187.693 374.482 193.251C372.044 195.895 369.951 198.837 368.251 202.007C368.029 202.418 367.786 202.809 367.586 203.232C367.058 204.288 366.53 205.344 366.139 206.4C360.922 218.197 360.478 226.382 360.805 235.465C361.059 242.509 363.456 250.567 364.829 251.887C365.014 252.063 365.22 252.215 365.442 252.342C367.448 253.619 370.638 252.88 376.616 249.532C388.592 242.784 393.239 225.886 393.239 225.886L376.616 223.066L397.96 218.841L406.641 205.312L390.683 202.418L412.365 199.081C425.556 178.814 434.428 168.454 434.935 167.799H434.967Z" fill="white"/>
<path d="M428.788 168.073C420.706 169.009 412.77 170.942 405.163 173.829C402.343 174.885 399.512 176.068 396.714 177.399C395.32 178.064 393.947 178.761 392.584 179.511C385.824 183.042 379.705 187.683 374.482 193.241C372.044 195.885 369.951 198.827 368.251 201.996C368.029 202.408 367.786 202.799 367.586 203.221C367.058 204.277 366.53 205.333 366.139 206.39C360.922 218.186 360.478 226.371 360.805 235.454C361.059 242.498 363.456 250.557 364.829 251.877C365.014 252.052 365.22 252.205 365.442 252.331C365.848 252.574 366.295 252.739 366.762 252.817C365.283 241.896 370.659 214.205 378.791 202.809C387.24 190.96 407.307 173.766 434.924 167.841C432.876 167.801 430.827 167.878 428.788 168.073V168.073Z" fill="#F6B9D5"/>
<path opacity="0.25" d="M428.788 168.073C420.706 169.009 412.77 170.942 405.163 173.829C402.343 174.885 399.512 176.068 396.714 177.399C395.32 178.064 393.947 178.761 392.584 179.511C385.824 183.042 379.705 187.683 374.482 193.241C372.044 195.885 369.951 198.827 368.251 201.996C368.029 202.408 367.786 202.799 367.586 203.221C367.058 204.277 366.53 205.333 366.139 206.39C360.922 218.186 360.478 226.371 360.805 235.454C361.059 242.498 363.456 250.557 364.829 251.877C365.014 252.052 365.22 252.205 365.442 252.331C365.848 252.574 366.295 252.739 366.762 252.817C365.283 241.896 370.659 214.205 378.791 202.809C387.24 190.96 407.307 173.766 434.924 167.841C432.876 167.801 430.827 167.878 428.788 168.073V168.073Z" fill="white"/>
<path d="M366.699 252.796C366.174 244.711 366.699 236.592 368.262 228.642C369.727 220.636 372.431 212.907 376.278 205.735C380.366 198.606 386.248 192.787 392.501 187.622C398.852 182.571 405.849 178.391 413.306 175.192C413.32 175.182 413.337 175.177 413.354 175.177C413.371 175.177 413.387 175.182 413.401 175.192C413.41 175.204 413.415 175.219 413.415 175.234C413.415 175.249 413.41 175.264 413.401 175.276C406.295 179.057 399.589 183.547 393.388 188.678C390.271 191.198 387.335 193.933 384.601 196.863C381.792 199.717 379.312 202.877 377.208 206.284C373.291 213.305 370.497 220.895 368.928 228.779C367.186 236.659 366.476 244.733 366.816 252.796C366.816 252.813 366.809 252.829 366.797 252.841C366.785 252.852 366.769 252.859 366.752 252.859C366.737 252.857 366.724 252.849 366.714 252.837C366.704 252.826 366.699 252.811 366.699 252.796V252.796Z" fill="white"/>
<path d="M187.432 523.396C186.711 523.395 186.017 523.121 185.49 522.629C184.963 522.137 184.642 521.464 184.591 520.745L180.366 461.264C180.155 458.18 178.518 455.244 177.135 454.441L73.4549 393.324C73.2466 393.79 73.1284 394.292 73.1064 394.802L68.8819 449.457C68.8245 450.211 68.4695 450.913 67.8952 451.406C67.3208 451.899 66.574 452.144 65.8191 452.086C65.0643 452.029 64.3631 451.674 63.8699 451.1C63.3768 450.525 63.132 449.778 63.1894 449.024L67.4139 394.369C67.6462 391.391 68.8713 389.173 70.8568 388.127C71.7166 387.697 72.6732 387.496 73.6336 387.544C74.594 387.592 75.5257 387.887 76.3381 388.402L180.06 449.53C183.292 451.389 185.795 456.068 186.133 460.884L190.357 520.365C190.41 521.118 190.161 521.861 189.666 522.431C189.171 523.002 188.47 523.352 187.717 523.406L187.432 523.396Z" fill="#263238"/>
<path d="M402.575 399.09C401.854 399.089 401.16 398.815 400.633 398.323C400.106 397.831 399.785 397.158 399.734 396.439L395.51 336.958C395.299 333.874 393.662 330.938 392.278 330.136L288.556 269.018C288.342 269.486 288.223 269.992 288.207 270.507L283.983 325.151C283.955 325.524 283.853 325.889 283.683 326.223C283.514 326.558 283.281 326.856 282.996 327.1C282.712 327.344 282.382 327.53 282.026 327.647C281.67 327.763 281.294 327.809 280.92 327.78C280.165 327.723 279.464 327.368 278.971 326.794C278.727 326.509 278.541 326.18 278.424 325.823C278.307 325.467 278.262 325.091 278.29 324.718L282.515 270.063C282.747 267.085 283.972 264.867 285.958 263.821C286.818 263.391 287.774 263.19 288.735 263.238C289.695 263.286 290.627 263.582 291.439 264.096L395.161 325.225C398.393 327.094 400.896 331.762 401.234 336.578L405.458 396.059C405.484 396.437 405.434 396.817 405.311 397.175C405.187 397.534 404.993 397.864 404.74 398.147C404.488 398.429 404.181 398.658 403.838 398.82C403.495 398.982 403.123 399.074 402.744 399.09H402.575Z" fill="#263238"/>
<path d="M183.588 458.423L69.5263 391.338C66.358 389.532 64.5942 386.839 64.5942 383.945C64.5942 381.051 66.3897 378.379 69.5263 376.552L268.078 261.889C273.612 258.72 282.283 258.72 287.806 261.889L401.868 328.974C405.036 330.78 406.81 333.473 406.81 336.367C406.81 339.26 405.015 341.932 401.868 343.76L203.316 458.434C200.267 460.002 196.887 460.82 193.457 460.82C190.028 460.82 186.648 460.002 183.598 458.434L183.588 458.423ZM270.961 266.969L72.4624 381.632C71.2161 382.361 70.4346 383.248 70.4346 383.966C70.4346 384.684 71.2161 385.572 72.4624 386.3L186.524 453.375C188.685 454.448 191.065 455.006 193.478 455.006C195.891 455.006 198.272 454.448 200.433 453.375L398.985 338.711C400.231 337.983 401.012 337.095 401.012 336.377C401.012 335.659 400.231 334.761 398.985 334.043L284.923 266.969C282.765 265.892 280.386 265.332 277.974 265.332C275.562 265.332 273.183 265.892 271.024 266.969H270.961Z" fill="#455A64"/>
<path d="M340.095 289.876C340.625 289.876 341.139 289.695 341.552 289.363C341.965 289.031 342.252 288.567 342.366 288.049L351.871 244.748C351.958 244.441 351.982 244.12 351.94 243.804C351.898 243.488 351.792 243.184 351.629 242.91C351.465 242.636 351.247 242.399 350.988 242.213C350.729 242.027 350.435 241.896 350.123 241.828C349.812 241.76 349.49 241.757 349.177 241.818C348.864 241.88 348.567 242.004 348.304 242.185C348.041 242.365 347.818 242.598 347.649 242.868C347.479 243.138 347.367 243.44 347.319 243.755L337.814 287.056C337.748 287.356 337.743 287.665 337.797 287.967C337.852 288.269 337.965 288.557 338.131 288.815C338.296 289.073 338.511 289.296 338.763 289.47C339.015 289.645 339.299 289.769 339.599 289.834C339.762 289.864 339.929 289.878 340.095 289.876V289.876Z" fill="#37474F"/>
<path d="M315.751 275.819C316.281 275.817 316.794 275.636 317.207 275.304C317.619 274.972 317.907 274.509 318.022 273.992L327.527 230.691C327.614 230.384 327.638 230.063 327.596 229.747C327.555 229.431 327.449 229.127 327.285 228.853C327.121 228.579 326.903 228.342 326.644 228.156C326.385 227.97 326.091 227.839 325.78 227.771C325.468 227.703 325.146 227.7 324.833 227.761C324.52 227.823 324.223 227.947 323.96 228.128C323.698 228.308 323.475 228.541 323.305 228.811C323.136 229.081 323.023 229.383 322.975 229.698L313.47 272.999C313.338 273.603 313.45 274.234 313.783 274.755C314.116 275.275 314.641 275.643 315.244 275.777C315.412 275.807 315.581 275.821 315.751 275.819V275.819Z" fill="#37474F"/>
<path d="M286.982 218.387C287.021 217.968 287.17 217.568 287.415 217.226C287.66 216.885 287.992 216.615 288.376 216.444L300.585 209.399C301.625 208.869 302.776 208.593 303.943 208.593C305.111 208.593 306.262 208.869 307.302 209.399L375.401 248.708C375.785 248.879 376.116 249.149 376.361 249.491C376.606 249.832 376.756 250.233 376.795 250.652V254.295C376.755 254.714 376.605 255.114 376.36 255.455C376.115 255.796 375.784 256.067 375.401 256.239L363.192 263.283C362.151 263.809 361 264.083 359.833 264.083C358.667 264.083 357.516 263.809 356.475 263.283L288.376 223.963C287.992 223.795 287.66 223.527 287.415 223.187C287.17 222.847 287.02 222.448 286.982 222.031V218.387Z" fill="#37474F"/>
<path d="M288.376 216.444L300.585 209.399C301.625 208.869 302.776 208.593 303.943 208.593C305.111 208.593 306.262 208.869 307.302 209.399L359.833 239.721V264.086C358.664 264.104 357.509 263.828 356.475 263.283L288.376 223.963C287.992 223.795 287.66 223.527 287.415 223.187C287.17 222.847 287.02 222.448 286.982 222.031V218.387C287.021 217.968 287.17 217.568 287.415 217.226C287.66 216.885 287.992 216.615 288.376 216.444Z" fill="#263238"/>
<path d="M307.302 209.399L375.401 248.708C375.809 248.845 376.163 249.105 376.415 249.454C376.666 249.803 376.801 250.222 376.801 250.652C376.801 251.081 376.666 251.5 376.415 251.849C376.163 252.198 375.809 252.459 375.401 252.595L363.193 259.681C362.151 260.208 361.001 260.482 359.834 260.482C358.667 260.482 357.517 260.208 356.476 259.681L288.377 220.362C287.973 220.223 287.622 219.962 287.374 219.615C287.126 219.267 286.993 218.851 286.993 218.424C286.993 217.997 287.126 217.581 287.374 217.233C287.622 216.886 287.973 216.625 288.377 216.486L300.585 209.442C301.622 208.905 302.771 208.621 303.939 208.614C305.106 208.606 306.259 208.876 307.302 209.399V209.399Z" fill="#455A64"/>
<path d="M77.0246 360.267L280.16 242.91C280.635 242.69 281.161 242.6 281.682 242.65C282.204 242.7 282.703 242.888 283.127 243.195L394.02 308.474C395.249 309.268 396.272 310.341 397.007 311.605C397.741 312.87 398.165 314.291 398.245 315.751V333.346C398.301 333.867 398.217 334.393 398.002 334.87C397.787 335.347 397.448 335.758 397.02 336.06L193.843 453.428C193.366 453.645 192.84 453.732 192.319 453.68C191.798 453.628 191.299 453.439 190.875 453.132L79.9817 387.863C78.7535 387.067 77.7306 385.992 76.9965 384.726C76.2624 383.459 75.8378 382.038 75.7572 380.576V362.992C75.7057 362.466 75.7961 361.935 76.019 361.456C76.2419 360.977 76.5891 360.566 77.0246 360.267V360.267Z" fill="#F6B9D5"/>
<g opacity="0.8">
<path d="M77.0246 360.267L280.16 242.91C280.635 242.69 281.161 242.6 281.682 242.65C282.204 242.7 282.703 242.888 283.127 243.195L394.02 308.474C395.249 309.268 396.272 310.341 397.007 311.605C397.741 312.87 398.165 314.291 398.245 315.751V333.346C398.301 333.867 398.217 334.393 398.002 334.87C397.787 335.347 397.448 335.758 397.02 336.06L193.843 453.428C193.366 453.645 192.84 453.732 192.319 453.68C191.798 453.628 191.299 453.439 190.875 453.132L79.9817 387.863C78.7535 387.067 77.7306 385.992 76.9965 384.726C76.2624 383.459 75.8378 382.038 75.7572 380.576V362.992C75.7057 362.466 75.7961 361.935 76.019 361.456C76.2419 360.977 76.5891 360.566 77.0246 360.267V360.267Z" fill="white"/>
</g>
<path d="M193.854 453.417L396.968 336.06C397.397 335.759 397.74 335.349 397.959 334.872C398.178 334.395 398.266 333.869 398.214 333.346V315.751C398.147 314.176 397.658 312.648 396.799 311.326L193.632 428.661C194.486 429.984 194.968 431.513 195.026 433.087V450.682C195.091 451.201 195.016 451.728 194.81 452.208C194.604 452.689 194.274 453.106 193.854 453.417Z" fill="#F6B9D5"/>
<g opacity="0.6">
<path d="M193.854 453.417L396.968 336.06C397.397 335.759 397.74 335.349 397.959 334.872C398.178 334.395 398.266 333.869 398.214 333.346V315.751C398.147 314.176 397.658 312.648 396.799 311.326L193.632 428.661C194.486 429.984 194.968 431.513 195.026 433.087V450.682C195.091 451.201 195.016 451.728 194.81 452.208C194.604 452.689 194.274 453.106 193.854 453.417Z" fill="white"/>
</g>
<g opacity="0.4">
<path d="M195.078 450.703V433.108C194.996 431.648 194.571 430.228 193.837 428.964C193.103 427.7 192.081 426.626 190.854 425.831L79.9607 360.562C79.5605 360.195 79.0539 359.965 78.5142 359.906C77.9745 359.846 77.4298 359.96 76.9591 360.23C76.4883 360.501 76.1161 360.915 75.8962 361.411C75.6763 361.908 75.6202 362.461 75.7362 362.992V380.576C75.8167 382.038 76.2413 383.459 76.9754 384.726C77.7096 385.992 78.7324 387.067 79.9607 387.863L190.854 453.132C191.256 453.492 191.762 453.715 192.298 453.771C192.835 453.827 193.376 453.712 193.844 453.443C194.311 453.174 194.682 452.765 194.904 452.273C195.126 451.781 195.187 451.231 195.078 450.703V450.703Z" fill="#F6B9D5"/>
</g>
<path d="M66.5905 247.874L253.947 139.642C254.381 139.474 254.851 139.421 255.312 139.487C255.773 139.554 256.208 139.738 256.577 140.023L271.785 148.788C274.333 150.447 276.139 153.029 276.823 155.991L293.826 254.211C294.069 255.594 293.774 256.545 293.098 256.936L105.773 365.188C105.339 365.359 104.869 365.413 104.407 365.347C103.946 365.28 103.511 365.094 103.143 364.808L87.8925 356C85.345 354.341 83.5394 351.759 82.8548 348.797L65.8512 250.578C65.6083 249.226 65.9146 248.275 66.5905 247.874Z" fill="#F6B9D5"/>
<g opacity="0.8">
<path d="M66.5905 247.874L253.947 139.642C254.381 139.474 254.851 139.421 255.312 139.487C255.773 139.554 256.208 139.738 256.577 140.023L271.785 148.788C274.333 150.447 276.139 153.029 276.823 155.991L293.826 254.211C294.069 255.594 293.774 256.545 293.098 256.936L105.773 365.188C105.339 365.359 104.869 365.413 104.407 365.347C103.946 365.28 103.511 365.094 103.143 364.808L87.8925 356C85.345 354.341 83.5394 351.759 82.8548 348.797L65.8512 250.578C65.6083 249.226 65.9146 248.275 66.5905 247.874Z" fill="white"/>
</g>
<path d="M106.522 362.453C106.755 363.858 106.459 364.787 105.783 365.188L293.14 256.946C293.816 256.555 294.111 255.605 293.879 254.221L276.865 156.002C276.549 154.475 275.907 153.034 274.985 151.777L87.6284 260.093C88.5576 261.346 89.1994 262.789 89.5083 264.318L106.522 362.453Z" fill="#F6B9D5"/>
<g opacity="0.6">
<path d="M106.522 362.453C106.755 363.858 106.459 364.787 105.783 365.188L293.14 256.946C293.816 256.555 294.111 255.605 293.879 254.221L276.865 156.002C276.549 154.475 275.907 153.034 274.985 151.777L87.6284 260.093C88.5576 261.346 89.1994 262.789 89.5083 264.318L106.522 362.453Z" fill="white"/>
</g>
<g opacity="0.4">
<path d="M103.143 364.808L87.8925 356C85.345 354.341 83.5394 351.759 82.8548 348.797L65.8512 250.578C65.6083 249.194 65.9146 248.244 66.5905 247.842C67.0245 247.674 67.4946 247.62 67.9553 247.687C68.416 247.754 68.8517 247.938 69.2202 248.223L84.4707 257.031C87.0196 258.693 88.8252 261.278 89.5084 264.244L106.523 362.464C106.755 363.858 106.449 364.808 105.773 365.199C105.338 365.368 104.867 365.421 104.406 365.352C103.945 365.284 103.51 365.096 103.143 364.808V364.808Z" fill="#F6B9D5"/>
</g>
<path d="M118.942 417.445C119.164 417.444 119.384 417.412 119.597 417.35C119.89 417.265 120.164 417.123 120.403 416.932C120.641 416.741 120.84 416.505 120.987 416.237C121.134 415.97 121.227 415.675 121.26 415.372C121.294 415.068 121.267 414.76 121.181 414.467L111.676 382.076C111.481 381.509 111.076 381.039 110.544 380.762C110.012 380.486 109.394 380.425 108.818 380.592C108.242 380.759 107.753 381.141 107.451 381.659C107.15 382.177 107.059 382.792 107.198 383.375L116.703 415.766C116.843 416.251 117.137 416.678 117.541 416.981C117.945 417.284 118.437 417.447 118.942 417.445V417.445Z" fill="#37474F"/>
<path d="M94.5883 403.388C94.81 403.389 95.0306 403.357 95.2431 403.293C95.5366 403.208 95.8105 403.066 96.049 402.875C96.2876 402.684 96.4861 402.448 96.6333 402.18C96.7805 401.913 96.8733 401.618 96.9066 401.315C96.9399 401.011 96.9129 400.703 96.8273 400.41L87.3221 368.019C87.1499 367.426 86.7493 366.927 86.2086 366.63C85.6679 366.332 85.0313 366.262 84.4389 366.435C83.8465 366.607 83.3468 367.007 83.0497 367.548C82.7526 368.089 82.6825 368.725 82.8547 369.318L92.3599 401.709C92.5009 402.192 92.794 402.616 93.1955 402.918C93.597 403.221 94.0855 403.386 94.5883 403.388V403.388Z" fill="#37474F"/>
<path d="M56.6523 351.258C56.6911 350.84 56.8407 350.439 57.0857 350.097C57.3308 349.756 57.6624 349.486 58.0464 349.315L70.2552 342.27C71.2967 341.738 72.4495 341.461 73.619 341.461C74.7885 341.461 75.9413 341.738 76.9827 342.27L145.05 381.579C145.434 381.75 145.766 382.02 146.011 382.362C146.256 382.703 146.405 383.104 146.444 383.523V387.166C146.404 387.585 146.254 387.985 146.009 388.326C145.764 388.668 145.433 388.938 145.05 389.11L132.841 396.154C131.8 396.68 130.649 396.954 129.483 396.954C128.316 396.954 127.166 396.68 126.124 396.154L58.0464 356.845C57.6611 356.676 57.3283 356.406 57.083 356.064C56.8377 355.723 56.6889 355.321 56.6523 354.902V351.258Z" fill="#37474F"/>
<path d="M58.0464 349.315L70.2552 342.27C71.2967 341.738 72.4495 341.461 73.619 341.461C74.7885 341.461 75.9413 341.738 76.9827 342.27L129.504 372.592V396.978C128.335 396.997 127.18 396.72 126.145 396.175L58.0464 356.845C57.6611 356.676 57.3283 356.406 57.083 356.064C56.8377 355.723 56.6889 355.321 56.6523 354.902V351.269C56.6893 350.848 56.8381 350.445 57.0832 350.102C57.3283 349.758 57.6609 349.487 58.0464 349.315V349.315Z" fill="#263238"/>
<path d="M76.9718 342.27L145.05 381.579C145.457 381.716 145.812 381.977 146.063 382.325C146.314 382.674 146.449 383.093 146.449 383.523C146.449 383.952 146.314 384.371 146.063 384.72C145.812 385.069 145.457 385.33 145.05 385.466L132.841 392.51C131.8 393.037 130.649 393.311 129.482 393.311C128.316 393.311 127.165 393.037 126.124 392.51L58.0461 353.191C57.6422 353.052 57.2917 352.791 57.0436 352.443C56.7955 352.096 56.6621 351.68 56.6621 351.253C56.6621 350.826 56.7955 350.41 57.0436 350.062C57.2917 349.715 57.6422 349.453 58.0461 349.315L70.2549 342.27C71.295 341.74 72.4459 341.464 73.6134 341.464C74.7809 341.464 75.9318 341.74 76.9718 342.27V342.27Z" fill="#455A64"/>
<path d="M155.822 246.311C149.95 245.72 145.092 252.489 135.312 257.274C117.073 266.198 108.909 274.309 100.376 284.205C91.8422 294.101 88.6739 292.421 86.0758 298.589C83.4777 304.757 90.6594 307.397 94.0812 316.153C99.8371 330.938 107.008 340.802 114.464 346.949C127.634 357.796 125.617 365.347 131.616 365.294C137.953 365.22 137.53 359.739 147.563 355.842C171.295 346.622 181.032 338.416 191.995 322.194C196.282 315.857 201.732 316.385 202.767 310.27C203.285 307.207 198.838 305.56 194.814 295.959C188.15 280.001 177.494 265.025 167.102 257.252C162.571 253.841 161.8 246.902 155.822 246.311Z" fill="#F6B9D5"/>
<path opacity="0.3" d="M155.822 246.311C149.95 245.72 145.092 252.489 135.312 257.274C117.073 266.198 108.909 274.309 100.376 284.205C91.8422 294.101 88.6739 292.421 86.0758 298.589C83.4777 304.757 90.6594 307.397 94.0812 316.153C99.8371 330.938 107.008 340.802 114.464 346.949C127.634 357.796 125.617 365.347 131.616 365.294C137.953 365.22 137.53 359.739 147.563 355.842C171.295 346.622 181.032 338.416 191.995 322.194C196.282 315.857 201.732 316.385 202.767 310.27C203.285 307.207 198.838 305.56 194.814 295.959C188.15 280.001 177.494 265.025 167.102 257.252C162.571 253.841 161.8 246.902 155.822 246.311Z" fill="black"/>
<path opacity="0.2" d="M92.5388 308.865C97.5237 315.973 96.8795 323.049 107.198 336.124C117.094 348.671 124.265 352.188 127.264 357.817C129.725 362.495 133.094 364.681 133.897 359.211C134.699 353.74 130.401 338.088 120.431 324.707C108.909 309.319 101.579 303.384 96.6154 301.113C88.8423 297.565 88.5889 303.278 92.5388 308.865Z" fill="black"/>
<path opacity="0.2" d="M147.965 349.801C141.417 352.061 141.132 357.869 137.836 362.358C140.541 359.471 143.867 357.239 147.563 355.831C158.367 351.607 166.278 347.646 172.72 343.01C164.335 347.424 152.717 348.164 147.965 349.801ZM188.953 319.722C184.897 323.461 185.299 330.104 180.409 336.525C184.757 332.151 188.65 327.345 192.026 322.183C195.934 316.395 200.813 316.322 202.429 311.696C198.807 316.248 193.843 315.223 188.953 319.722V319.722Z" fill="black"/>
<path opacity="0.3" d="M147.659 260.431C133.686 263.051 119.703 270.243 110.103 281.005C108.212 283.26 107.292 286.173 107.547 289.105C107.665 290.935 108.244 292.705 109.23 294.25C110.216 295.796 111.577 297.067 113.187 297.945C116.471 299.804 121.277 299.814 124.709 299.371C131.944 298.441 136.21 296.551 145.557 296.403C148.995 296.434 152.375 297.292 155.411 298.906C160.026 301.462 163.469 304.366 167.514 306.531C173.08 309.51 182.965 308.147 186.387 304.715C190.052 301.05 190.875 295.537 187.601 288.63C180.303 273.284 166.722 258.34 147.659 260.431Z" fill="#F6B9D5"/>
<path d="M261.72 201.489C266.832 198.532 274.045 202.682 284.955 202.999C305.243 203.601 321.233 207.953 333.051 213.465C344.869 218.978 347.108 216.116 352.008 220.658C356.909 225.199 351.48 230.575 352.008 239.964C352.842 255.806 350.413 267.75 346.157 276.421C338.648 291.745 343.601 297.797 338.11 300.205C332.269 302.771 330.421 297.596 319.68 298.188C294.27 299.592 276.844 295.769 260.157 285.514C253.641 281.512 248.888 284.247 245.424 279.104C243.692 276.527 247.061 273.189 246.755 262.787C246.237 245.498 249.765 227.459 256.006 216.085C258.689 211.1 256.524 204.499 261.72 201.489Z" fill="#F6B9D5"/>
<path opacity="0.3" d="M261.72 201.489C266.832 198.532 274.045 202.682 284.955 202.999C305.243 203.601 321.233 207.953 333.051 213.465C344.869 218.978 347.108 216.116 352.008 220.658C356.909 225.199 351.48 230.575 352.008 239.964C352.842 255.806 350.413 267.75 346.157 276.421C338.648 291.745 343.601 297.797 338.11 300.205C332.269 302.771 330.421 297.596 319.68 298.188C294.27 299.592 276.844 295.769 260.157 285.514C253.641 281.512 248.888 284.247 245.424 279.104C243.692 276.527 247.061 273.189 246.755 262.787C246.237 245.498 249.765 227.459 256.006 216.085C258.689 211.1 256.524 204.499 261.72 201.489Z" fill="black"/>
<path opacity="0.2" d="M350.361 232.687C348.724 241.231 352.262 247.409 348.248 263.568C344.415 279.082 339.345 285.24 338.965 291.598C338.648 296.878 336.494 300.258 333.494 295.611C330.495 290.964 327.96 274.932 331.519 258.646C335.606 239.858 339.852 231.451 343.432 227.343C349.062 220.869 351.638 225.97 350.361 232.687Z" fill="black"/>
<path opacity="0.2" d="M291.439 296.899C299.213 298.452 308.063 298.832 319.638 298.188C323.586 297.938 327.538 298.596 331.192 300.11C326.344 297.385 323.683 292.21 316.786 292.865C311.78 293.33 300.892 297.459 291.439 296.899ZM246.322 280.265C249.691 283.814 254.169 281.871 260.115 285.546C265.314 288.854 270.834 291.628 276.59 293.826C269.493 290.003 267.085 283.782 261.868 282.05C255.563 279.948 251.465 282.916 246.322 280.265V280.265Z" fill="black"/>
<path opacity="0.3" d="M274.953 210.984C288.757 207.593 307.249 207.699 320.44 213.518C322.975 214.754 327.527 218.049 328.477 220.911C329.128 222.626 329.333 224.477 329.075 226.292C328.816 228.108 328.102 229.828 326.999 231.293C324.771 234.345 320.398 236.331 317.092 237.344C310.122 239.457 303.025 238.728 293.911 241.917C291.312 242.826 285.884 246.395 283.782 249.236C280.614 253.461 278.692 257.538 275.904 261.181C272.07 266.198 262.512 269.039 257.949 267.328C253.091 265.501 250.071 260.822 250.208 253.176C250.567 236.172 256.767 216.94 274.953 210.984Z" fill="#F6B9D5"/>
<path opacity="0.1" d="M227.945 233.743C224.777 221.26 221.313 206.949 208.935 200.57C205.587 197.867 202.514 194.677 197.941 194.318C185.242 192.054 172.152 193.997 160.659 199.852C157.311 201.344 154.33 203.55 151.925 206.316C141.364 213.075 139.79 226.287 141.1 237.851C142.47 253.31 146.489 268.419 152.981 282.515C155.981 289.031 159.54 295.4 161.071 302.423C162.888 310.756 161.768 319.68 164.694 327.696C171.548 345.65 192.417 350.836 207.995 358.904C213.392 361.429 218.292 367.533 212.885 372.18C203.063 380.523 188.995 368.452 178.254 373.236C174.283 374.979 171.537 378.675 167.841 380.946C163.416 383.671 157.776 384.262 153.816 387.642C148.303 392.363 148.007 400.653 148.239 407.909C148.387 412.418 149.295 417.974 153.615 419.336C157.935 420.698 161.916 416.632 165.137 413.401C176.353 402.396 194.709 396.175 209.854 401.614C211.132 402.67 211.427 404.519 211.681 406.177C213.307 419.199 225.262 424.817 230.216 410.591C231.346 406.546 231.187 402.227 232.328 398.192C234.863 389.426 243.259 383.47 251.972 380.756C260.685 378.041 269.926 377.883 278.988 376.616C295.104 374.218 323.25 365.643 331.572 350.91C335.163 343.57 333.188 334.445 328.499 327.749C317.441 313.079 293.224 303.268 276.326 296.382C266.335 292.654 255.594 289.38 248.318 281.596C244.199 277.192 241.516 271.647 239.119 266.103C234.598 255.608 230.863 244.791 227.945 233.743V233.743Z" fill="black"/>
<path d="M216.064 404.265C220.035 418.269 226.329 422.092 231.24 419.42C234.145 417.836 235.275 413.369 236.827 409.218C238.937 404.066 241.683 399.198 245.002 394.728C248.688 389.754 251.814 385.223 258.298 381.083C259.218 380.542 260.17 380.059 261.15 379.636C264.836 377.999 273.591 374.493 280.34 371.124L267.381 348.945C264.311 351.97 261.048 354.792 257.612 357.394C255.869 358.398 254.876 358.704 251.856 358.112C248.149 357.384 243.787 356.887 239.932 359.834C236.077 362.78 237.112 366.403 233.416 371.884C229.72 377.366 221.672 383.502 217.87 388.001C214.068 392.5 215.029 400.611 216.064 404.265Z" fill="#FFA8A7"/>
<path d="M255.14 358.281L255.573 358.207C255.14 357.489 252.965 358.102 251.824 357.88C248.128 357.141 243.576 356.729 239.721 359.686C235.866 362.643 236.764 366.276 233.078 371.757C229.392 377.239 221.313 383.248 217.511 387.747C213.708 392.246 214.754 400.664 215.81 404.371C219.781 418.375 226.445 422.504 231.346 419.832C234.261 418.248 235.57 413.496 237.154 409.356C239.205 404.205 241.902 399.336 245.181 394.865C248.877 389.891 252.12 385.561 258.604 381.41C258.942 381.199 260.717 380.502 260.453 379.964L260.083 380.143C254.316 376.003 252.511 360.89 255.14 358.281Z" fill="#F6B9D5"/>
<path opacity="0.15" d="M214.955 399.903C215.107 401.415 215.394 402.91 215.81 404.371C219.781 418.375 226.445 422.504 231.346 419.832C232.993 418.945 234.134 417.044 235.095 414.816C234.43 410.359 231.927 406.155 226.994 401.245C222.379 396.64 217.373 395.922 214.955 399.903Z" fill="black"/>
<path opacity="0.15" d="M251.824 357.901C248.127 357.162 243.576 356.75 239.721 359.707C236.468 362.189 236.552 365.178 234.503 369.318C243.417 368.779 248.772 363.573 251.824 357.901Z" fill="black"/>
<path d="M331.889 318.825C325.932 311.928 318.286 303.437 298.262 294.333C277.224 284.765 259.544 279.949 257.379 275.492L172.509 291.302L236.932 326.914L279.536 337.962L262.396 351.564C262.829 362.062 275.671 374.123 275.671 374.123C287.912 369.286 296.097 367.184 317.715 357.331C324.622 354.162 331.72 347.952 334.613 340.232C336.493 335.416 337.835 325.732 331.889 318.825Z" fill="#455A64"/>
<path d="M251.549 312.192L244.885 312.625C266.008 327.601 287.384 341.837 293.625 352.937C295.928 356.94 297.138 361.479 297.132 366.097C299.054 365.347 301.018 364.586 303.109 363.699C303.065 359.145 301.85 354.679 299.582 350.73C293.372 339.63 272.714 327.157 251.549 312.192Z" fill="#37474F"/>
<path d="M287.763 327.981C280.603 331.91 280.075 331.561 276.674 329.037C273.273 326.513 251.549 312.203 251.549 312.203C256.196 304.81 257.949 297.808 256.333 290.901L249.331 289.538L236.932 326.914L279.536 337.961C283.518 334.888 290.414 329.291 296.529 326.936C300.33 325.399 304.498 325.013 308.516 325.827C301.747 323.176 294.935 324.105 287.763 327.981Z" fill="#37474F"/>
<path d="M154.692 402.744C153.541 417.255 158.114 423.032 163.648 422.23C166.922 421.754 169.541 418.005 172.445 414.615C176.2 410.514 180.458 406.905 185.119 403.874C190.315 400.495 194.814 397.337 202.334 395.71C203.38 395.516 204.439 395.396 205.502 395.351C209.526 395.087 218.957 394.844 226.456 394.042L221.819 367.955C218.725 369.371 211.543 372.93 209.948 373.236C207.963 373.563 206.928 373.511 204.298 371.895C201.13 369.93 197.159 367.945 192.522 369.371C187.886 370.796 187.59 374.546 182.225 378.39C176.86 382.234 167.165 385.202 162.043 388.096C156.92 390.99 154.988 398.953 154.692 402.744Z" fill="#FFA8A7"/>
<path d="M207.361 373.236C207.503 373.27 207.648 373.295 207.794 373.31C207.635 372.486 205.386 372.307 204.393 371.694C201.225 369.73 197.053 367.755 192.416 369.181C187.78 370.606 187.347 374.334 181.993 378.179C176.638 382.023 166.953 384.864 161.831 387.758C156.709 390.652 154.713 398.9 154.438 402.691C153.287 417.203 158.103 423.391 163.626 422.589C166.9 422.124 169.815 418.132 172.72 414.784C176.448 410.688 180.682 407.082 185.319 404.054C190.515 400.674 195.057 397.717 202.587 396.112C202.978 396.027 204.847 395.985 204.826 395.404H204.414C200.39 389.585 203.96 374.799 207.361 373.236Z" fill="#F6B9D5"/>
<path opacity="0.15" d="M155.168 398.266C154.778 399.716 154.517 401.196 154.386 402.691C153.235 417.203 158.051 423.391 163.574 422.589C165.422 422.325 167.155 420.941 168.855 419.188C169.774 414.773 168.855 409.958 165.982 403.652C163.268 397.791 158.779 395.394 155.168 398.266Z" fill="black"/>
<path opacity="0.15" d="M204.362 371.694C201.193 369.73 197.022 367.755 192.385 369.181C188.478 370.374 187.548 373.215 184.147 376.383C192.692 379.024 199.514 375.971 204.362 371.694Z" fill="black"/>
<path d="M293.625 352.937C287.383 341.837 266.05 327.59 244.885 312.625C244.885 312.625 259.259 299.519 257.706 279.41L172.509 291.302C173.016 308.274 175.022 313.671 178.846 322.267C182.014 329.365 192.258 339.947 203.253 345.956C210.096 349.706 224.65 356.856 234.672 361.724L219.253 367.406C214.374 381.358 223.625 395.256 223.625 395.256C239.129 393.144 246.163 393.672 269.324 388.318C281.533 385.498 288.176 382.9 291.893 379.182C296.931 374.197 299.877 364.048 293.625 352.937Z" fill="#455A64"/>
<path d="M236.932 358.028C235.369 358.44 232.412 359.464 230.934 359.971C234.239 361.566 234.651 361.724 234.651 361.724C242.192 359.401 247.261 357.257 252.869 357.627C248.613 355.789 245.466 355.789 236.932 358.028Z" fill="#37474F"/>
<path d="M238.75 162.402C238.192 160.187 237.259 158.083 235.993 156.181V156.181C234.783 154.528 233.678 152.8 232.688 151.006C232.247 150.121 231.944 149.174 231.79 148.197C231.737 147.681 231.737 147.161 231.79 146.644C231.917 143.867 232.138 140.984 231.156 138.333C229.308 132.915 222.918 124.899 208.777 122.639C197.159 120.78 186.714 134.573 175.72 137.044C169.552 138.1 164.05 144.606 163.765 151.091C163.48 157.575 163.765 160.015 161.41 163.764C159.054 167.513 155.759 168.939 154.122 172.372C152.623 175.244 152.496 179.163 154.841 181.402C153.784 178.698 154.629 175.825 157.586 173.871C157.019 175.161 156.736 176.558 156.758 177.967C156.78 179.376 157.106 180.764 157.713 182.035C158.226 183.078 158.793 184.094 159.414 185.077C159.597 185.432 159.688 185.828 159.678 186.228C159.677 187.083 159.455 187.924 159.033 188.668C158.362 189.751 157.61 190.782 156.784 191.752C155.041 194.075 153.911 197.317 155.305 199.873C156.361 201.721 158.474 202.809 159.287 204.742C160.565 207.752 158.167 211.258 159.033 214.405C159.825 217.278 162.973 218.767 165.866 219.475C167.923 220.093 170.101 220.188 172.203 219.749C174.801 219.063 176.914 217.099 179.501 216.349C183.546 215.176 187.739 217.141 191.868 217.922C196.79 218.852 202.43 217.774 205.513 213.803C206.57 212.452 207.267 210.793 208.682 209.906C210.184 209.18 211.885 208.972 213.519 209.315C218.345 209.885 223.552 211.11 227.84 208.808C229.445 207.917 230.769 206.594 231.659 204.988C232.55 203.382 232.972 201.559 232.878 199.725C232.74 197.55 231.821 195.501 231.726 193.325C231.677 192.672 231.848 192.021 232.212 191.477C232.547 191.033 232.834 190.555 233.068 190.051C233.155 189.46 233.127 188.857 232.983 188.277C232.846 186.883 232.698 185.499 232.561 184.116C232.397 182.825 232.397 181.52 232.561 180.229C233.205 176.005 237.144 173.026 238.549 168.992C239.246 166.86 239.315 164.572 238.75 162.402Z" fill="#263238"/>
<path d="M216.296 195.649C231.916 194.466 245.868 197.835 253.092 206.02C260.316 214.205 271.384 237.936 271.384 237.936L263.928 270.56C263.928 270.56 257.527 269.672 248.234 261.435C238.94 253.197 216.296 195.649 216.296 195.649Z" fill="#F6B9D5"/>
<path opacity="0.15" d="M216.296 195.649C231.916 194.466 245.868 197.835 253.092 206.02C260.316 214.205 271.384 237.936 271.384 237.936L263.928 270.56C263.928 270.56 257.527 269.672 248.234 261.435C238.94 253.197 216.296 195.649 216.296 195.649Z" fill="black"/>
<path d="M161.029 204.562C152.823 207.615 156.383 219.929 158.917 242.794C159.973 251.972 163.807 272.788 166.891 289.528C168.401 297.713 169.468 303.648 173.777 306.51C173.777 306.51 186.081 318.054 221.303 307.344C248.624 299.033 258.351 276.717 258.351 276.717C259.988 267.138 250.04 263.98 247.568 242.921C255.32 228.283 245.625 219.105 239.426 211.776C230.554 201.267 221.398 197.254 218.535 196.346C211.819 194.234 186.303 195.659 174.506 199.641C170.461 200.993 162.909 203.865 161.029 204.562Z" fill="#37474F"/>
<path d="M227.428 152.02C226.277 156.361 227.217 159.54 225.696 163.764C225.147 165.306 190.474 183.693 184.254 187.4C184.254 187.4 178.107 176.839 173.407 171.411C166.352 163.236 160.48 141.723 175.784 136.907C175.784 136.907 176.248 128.859 188.225 124.234C206.432 117.105 234.272 125.934 227.428 152.02Z" fill="#263238"/>
<path d="M222.274 141.184C222.274 141.184 228.832 146.085 227.766 167.144C227.122 180.071 223.615 186.397 219.37 188.889C216.814 190.379 210.456 190.854 206.474 190.41C206.474 190.41 206.4 192.111 206.316 193.737C206.21 195.744 208.777 195.744 210.371 195.765C210.371 195.765 227.269 209.399 208.175 214.036C197.233 216.687 187.348 208.322 174.484 199.641C178.952 197.74 180.356 196.715 180.906 192.491C181.877 184.897 181.962 175.593 181.962 175.593C181.962 175.593 178.878 179.458 174.284 175.762C169.098 171.537 168.179 163.553 172.33 160.237C177.389 156.202 181.529 159.519 183.366 163.226C185.046 166.616 188.372 166.658 189.207 162.381C190.39 156.276 189.207 145.229 194.572 143.318C201.236 140.952 213.107 152.453 222.274 141.184Z" fill="#FFA8A7"/>
<path d="M190.643 168.707C190.759 170.819 193.305 172.403 196.336 172.234C199.367 172.065 201.711 170.217 201.616 168.105C201.521 165.993 198.955 164.409 195.934 164.578C192.914 164.747 190.527 166.595 190.643 168.707Z" fill="#F28F8F"/>
<path d="M221.63 167.366C221.746 169.478 224.291 171.062 227.323 170.893C230.354 170.724 232.698 168.876 232.603 166.764C232.508 164.651 229.942 163.067 226.921 163.236C223.901 163.405 221.514 165.253 221.63 167.366Z" fill="#F28F8F"/>
<path d="M205.007 174.59L212.78 176.343C212.689 176.862 212.495 177.358 212.208 177.801C211.922 178.243 211.549 178.624 211.113 178.919C210.676 179.215 210.185 179.42 209.667 179.521C209.15 179.623 208.617 179.62 208.101 179.511C207.054 179.243 206.149 178.583 205.573 177.667C204.997 176.752 204.795 175.65 205.007 174.59Z" fill="#B16668"/>
<path d="M203.708 154.196L198.311 156.889C198.116 156.546 197.994 156.167 197.951 155.775C197.908 155.384 197.945 154.987 198.061 154.61C198.177 154.234 198.368 153.885 198.624 153.584C198.879 153.284 199.193 153.039 199.547 152.865C200.278 152.51 201.119 152.451 201.893 152.699C202.668 152.946 203.317 153.482 203.708 154.196V154.196Z" fill="#263238"/>
<path d="M219.032 152.886L224.376 155.695C224.577 155.357 224.707 154.981 224.758 154.591C224.809 154.2 224.78 153.804 224.672 153.425C224.564 153.046 224.38 152.694 224.131 152.389C223.883 152.083 223.574 151.832 223.225 151.651C222.501 151.279 221.662 151.199 220.881 151.43C220.101 151.66 219.439 152.181 219.032 152.886Z" fill="#263238"/>
<path d="M210.646 157.66L211.364 171.389L219.137 168.475L210.646 157.66Z" fill="#F28F8F"/>
<path d="M185.447 177.504C185.447 177.504 185.183 184.76 189.787 188.351C195.226 192.575 203.116 193.346 206.326 193.452L206.474 190.41C202.978 189.977 195.913 189.048 191.625 186.291C190.045 185.331 188.681 184.055 187.618 182.543C186.555 181.031 185.815 179.316 185.447 177.504Z" fill="#F28F8F"/>
<path d="M200.603 161.81C200.518 163.067 201.976 164.261 203.824 164.071C204.564 164.065 205.273 163.768 205.797 163.245C206.32 162.721 206.617 162.012 206.623 161.272C206.267 161.721 205.817 162.087 205.304 162.342C204.791 162.598 204.228 162.737 203.655 162.75C203.109 162.807 202.557 162.752 202.033 162.591C201.509 162.429 201.022 162.164 200.603 161.81V161.81Z" fill="#263238"/>
<path d="M217.923 161.156C217.838 162.412 219.296 163.606 221.144 163.416C221.885 163.41 222.593 163.114 223.117 162.59C223.641 162.066 223.937 161.358 223.943 160.617C223.587 161.067 223.137 161.432 222.624 161.688C222.111 161.943 221.548 162.083 220.975 162.096C220.429 162.152 219.878 162.098 219.353 161.937C218.829 161.775 218.342 161.51 217.923 161.156V161.156Z" fill="#263238"/>
<path d="M205.165 176.797C205.474 176.77 205.785 176.77 206.094 176.797C206.957 176.859 207.793 177.119 208.538 177.557C209.284 177.995 209.918 178.598 210.393 179.321C209.669 179.626 208.867 179.696 208.101 179.522C207.418 179.36 206.789 179.023 206.274 178.546C205.76 178.068 205.378 177.466 205.165 176.797Z" fill="#F28F8F"/>
<path d="M161.029 204.562C148.641 210.477 146.602 221.239 151.038 237.799C154.724 251.581 162.075 273.707 167.609 283.212C172.097 290.922 176.248 293.435 178.265 293.974L191.266 260.431L182.817 231.198C182.817 231.198 175.382 204.985 161.029 204.562Z" fill="#F6B9D5"/>
<path opacity="0.15" d="M188.034 249.215L185.922 241.717C182.141 246.765 178.012 253.144 175.751 256.503C172.763 261.023 171.78 270.75 172.446 276.168C172.858 280.033 182.416 260.875 188.034 249.215Z" fill="black"/>
<path d="M235.19 220.468C233.638 223.721 233.574 226.995 237.028 234.62C239.246 239.531 246.385 257.77 254.729 265.089C263.072 272.408 269.345 271.88 272.683 269.535C276.02 267.191 277.309 253.757 275.228 246.058C273.147 238.358 269.24 235.496 263.199 228.23C257.158 220.964 251.074 213.233 247.695 215.018C244.315 216.803 235.19 220.468 235.19 220.468Z" fill="#F6B9D5"/>
<path d="M234.905 187.865C233.268 185.869 231.346 183.641 232.16 182.289C233.089 180.768 234.179 179.351 235.412 178.064C236.194 177.452 237.366 178.571 237.662 179.934C237.722 181.221 237.495 182.505 236.997 183.693L234.905 187.865Z" fill="#FFA8A7"/>
<path d="M237.06 182.405C239.341 181.518 242.013 183.049 242.636 186.629C243.259 190.21 245.604 199.968 242.763 202.524C242.074 203.249 241.151 203.706 240.157 203.815C239.163 203.923 238.163 203.675 237.334 203.115C237.334 203.115 232.233 184.306 237.06 182.405Z" fill="#E0E0E0"/>
<path d="M251.549 190.854C251.359 189.058 251.127 188.552 249.659 186.946C248.018 184.991 246.254 183.143 244.378 181.412C243.322 180.694 241.907 181.412 240.84 182.236C239.773 183.06 237.608 184.749 237.292 185.711C237.2 186.66 237.357 187.617 237.746 188.488L239.351 198.469C239.351 198.469 240.861 198.743 241.337 198.141C241.157 198.627 242.086 199.842 242.298 199.894L242.403 201.552C242.403 201.552 241.347 203.168 237.936 202.281C234.525 201.394 230.934 201.605 229.751 204.615C228.568 207.625 233.764 217.51 233.764 217.51C233.764 217.51 234.82 219.348 239.52 218.493C242.426 218.043 245.109 216.665 247.166 214.564C247.166 214.564 244.357 209.621 245.001 208.47C245.646 207.319 249.405 204.045 250.208 202.873C251.011 201.7 250.979 200.56 251.486 199.799C251.933 199.315 252.253 198.729 252.419 198.091C252.585 197.454 252.591 196.785 252.436 196.145C252.85 195.142 253.045 194.061 253.007 192.977C252.781 192.122 252.266 191.372 251.549 190.854V190.854Z" fill="#FFA8A7"/>
<path opacity="0.5" d="M247.187 201.204C245.73 200.94 244.684 198.902 244.135 197.687C243.586 196.472 242.266 196.863 241.337 198.141C241.157 198.627 242.086 199.842 242.298 199.894L242.403 201.552C242.403 201.552 241.347 203.168 237.936 202.281C234.525 201.394 230.934 201.605 229.751 204.615C228.568 207.625 233.764 217.511 233.764 217.511C233.764 217.511 234.82 219.348 239.52 218.493C242.426 218.043 245.109 216.665 247.166 214.564C247.166 214.564 244.357 209.621 245.001 208.47C246.368 206.838 247.831 205.29 249.384 203.834C250.028 203.158 248.645 201.468 247.187 201.204Z" fill="#F28F8F"/>
<path d="M249.448 188.921C249.137 188.89 248.841 188.773 248.592 188.583C248.328 188.414 248.085 188.235 247.832 188.055L246.374 186.999C245.455 186.273 244.438 185.68 243.354 185.235C242.872 185.042 242.339 185.02 241.844 185.172C241.34 185.432 240.875 185.758 240.46 186.144C239.552 186.914 238.707 187.781 237.788 188.594C238.479 187.584 239.252 186.634 240.101 185.753C240.535 185.278 241.041 184.875 241.601 184.559C242.26 184.305 242.99 184.305 243.65 184.559C244.822 185.034 245.896 185.722 246.818 186.587C247.283 186.978 247.726 187.411 248.149 187.844C248.509 188.283 248.95 188.648 249.448 188.921V188.921Z" fill="#F28F8F"/>
<path d="M248.962 192.945C248.673 192.948 248.391 192.855 248.16 192.681C247.927 192.533 247.695 192.364 247.473 192.195L246.216 191.139C245.403 190.452 244.526 189.844 243.597 189.322C243.21 189.082 242.744 189.003 242.298 189.101C241.821 189.314 241.362 189.565 240.925 189.851L238.158 191.656C238.896 190.824 239.705 190.057 240.577 189.365C241.027 189 241.516 188.685 242.034 188.425C242.346 188.328 242.675 188.295 243 188.33C243.325 188.364 243.64 188.465 243.925 188.625C244.925 189.187 245.834 189.9 246.618 190.738C247.009 191.139 247.368 191.561 247.727 191.973C248.046 192.4 248.472 192.735 248.962 192.945Z" fill="#F28F8F"/>
<path d="M248.307 197.254C247.79 197.317 247.367 196.937 246.966 196.673C246.565 196.409 246.216 196.039 245.91 195.701L244.854 194.719C244.518 194.391 244.166 194.081 243.798 193.79C243.175 193.23 242.33 193.505 241.443 193.79C240.555 194.075 239.7 194.561 238.834 194.994C239.533 194.305 240.326 193.718 241.189 193.251C241.636 192.995 242.121 192.809 242.625 192.702C242.911 192.653 243.204 192.665 243.484 192.738C243.765 192.811 244.026 192.943 244.252 193.125C244.629 193.45 244.982 193.803 245.308 194.181C245.646 194.54 245.973 194.899 246.28 195.237L247.188 196.293C247.446 196.727 247.839 197.064 248.307 197.254Z" fill="#F28F8F"/>
<path opacity="0.5" d="M252.775 192.343C252.829 192.533 252.844 192.732 252.82 192.928C252.796 193.124 252.733 193.314 252.635 193.485C252.536 193.656 252.404 193.806 252.247 193.926C252.09 194.045 251.91 194.132 251.719 194.181C250.757 194.329 251.719 195.237 252.416 196.145C252.829 195.142 253.024 194.061 252.986 192.977C252.942 192.758 252.871 192.545 252.775 192.343V192.343Z" fill="#F28F8F"/>
<path d="M242.298 199.894C242.971 200.069 243.684 200.017 244.325 199.746C243.593 199.814 242.857 199.659 242.213 199.303C241.984 199.026 241.821 198.7 241.737 198.35C241.653 198.001 241.65 197.637 241.727 197.286C241.49 197.545 241.345 197.875 241.315 198.226C241.263 198.669 241.759 199.789 242.298 199.894Z" fill="#B16668"/>
<path d="M237.429 182.838C236.981 182.26 236.434 181.767 235.813 181.38L235.518 181.211C234.41 180.596 233.201 180.184 231.948 179.997C225.347 178.941 216.592 182.278 212.368 187.464C211.557 188.435 210.927 189.544 210.509 190.738C210.509 190.843 210.435 190.959 210.403 191.076C210.203 191.761 210.124 192.476 210.171 193.188C210.34 199.081 216.444 207.351 221.904 209.864L222.063 209.927L222.327 210.044L222.876 210.255L223.066 210.308C223.206 210.362 223.351 210.405 223.499 210.434C223.753 210.506 224.01 210.562 224.27 210.603C226.899 210.878 229.556 210.53 232.026 209.587C234.496 208.644 236.709 207.132 238.485 205.175C238.655 204.978 238.81 204.77 238.95 204.552C239.045 204.414 239.13 204.277 239.214 204.14C239.299 204.003 239.267 204.055 239.288 204.003C239.394 203.825 239.489 203.642 239.573 203.453C239.615 203.383 239.65 203.308 239.679 203.232C239.679 203.179 239.732 203.115 239.763 203.052C242.214 197.571 241.21 187.348 237.429 182.838Z" fill="#F5F5F5"/>
<path d="M235.655 200.401C239.69 200.634 240.651 203.147 237.767 206.009C234.344 209.087 229.898 210.781 225.295 210.762C221.26 210.529 220.31 208.016 223.182 205.154C226.606 202.076 231.052 200.382 235.655 200.401V200.401Z" fill="#EBEBEB"/>
<path d="M235.19 200.972C238.823 201.141 239.668 203.348 237.07 205.893C233.948 208.641 229.939 210.168 225.78 210.192C222.147 210.023 221.313 207.815 223.911 205.27C227.031 202.527 231.036 201.001 235.19 200.972V200.972Z" fill="#E0E0E0"/>
<path opacity="0.1" d="M235.19 200.972C238.823 201.141 239.668 203.348 237.07 205.893C233.948 208.641 229.939 210.168 225.78 210.192C222.147 210.023 221.313 207.815 223.911 205.27C227.031 202.527 231.036 201.001 235.19 200.972V200.972Z" fill="black"/>
<path d="M235.19 200.972C231.035 201.001 227.031 202.527 223.911 205.27C222.749 206.411 222.274 207.477 222.432 208.322C222.886 209.061 223.942 209.537 225.6 209.621C229.755 209.592 233.759 208.066 236.88 205.323C238.041 204.182 238.506 203.115 238.358 202.271C237.872 201.531 236.806 201.045 235.19 200.972Z" fill="#E0E0E0"/>
<path d="M205.408 199.567C205.006 197.233 204.066 194.909 204.806 193.029C205.862 190.188 205.925 188.224 206.791 187.358C207.657 186.492 209.548 187.802 209.885 189.227L205.408 199.567Z" fill="#F28F8F"/>
<path d="M206.527 196.483C207.645 193.729 208.907 191.036 210.308 188.414C211.09 186.925 213.529 184.749 215.589 182.986C217.648 181.222 219.496 178.761 220.394 179.659C220.876 180.083 221.196 180.661 221.3 181.294C221.404 181.928 221.285 182.578 220.964 183.134C220.236 184.443 218.176 187.295 218.176 187.295C218.176 187.295 222.263 184.126 223.911 182.658C225.558 181.19 226.646 180.007 227.618 180.789C228.589 181.571 228.442 183.017 227.164 184.676C225.846 186.391 224.435 188.034 222.939 189.597C221.704 190.907 220.721 192.185 220.721 192.185C220.721 192.185 224.671 189.323 226.002 188.087C227.333 186.851 228.938 185.288 229.54 185.816C230.374 186.566 230.596 188.446 228.864 190.59C226.245 193.885 223.647 196.61 222.453 198.162C221.26 199.715 219.929 201.626 220.563 202.028C220.563 202.028 221.777 200.813 223.457 199.102C225.136 197.391 227.533 194.793 228.737 194.35C229.941 193.906 231.526 194.402 230.374 196.715C228.838 199.464 227.022 202.048 224.956 204.425C222.57 207.372 222.02 207.815 221.862 209.209C221.704 210.603 222.179 214.881 222.031 217.51C221.862 220.615 220.679 221.228 219.053 224.048C217.832 226.485 216.773 229.001 215.884 231.578L202.862 224.734C202.862 224.734 205.714 219.306 206.031 215.229C206.379 209.875 205.365 204.362 205.313 201.88C205.26 199.398 205.767 198.49 206.527 196.483Z" fill="#FFA8A7"/>
<path d="M205.935 215.229C205.956 211.025 205.67 206.824 205.08 202.661C204.973 201.604 205.023 200.536 205.228 199.493C205.508 198.473 205.861 197.474 206.284 196.504C207.034 194.529 207.931 192.618 208.861 190.727C209.346 189.787 209.779 188.858 210.339 187.918C210.964 187.052 211.671 186.249 212.451 185.52C213.972 184.042 215.62 182.732 217.098 181.296C217.489 180.926 217.869 180.567 218.281 180.24C218.681 179.857 219.166 179.575 219.696 179.416C219.85 179.392 220.006 179.409 220.151 179.465C220.295 179.52 220.423 179.613 220.52 179.733C220.709 179.93 220.872 180.15 221.006 180.388C221.277 180.87 221.402 181.42 221.365 181.972C221.315 182.514 221.126 183.034 220.816 183.482C220.541 183.926 220.246 184.369 219.95 184.802C219.348 185.658 218.735 186.513 218.102 187.358C218.704 186.492 219.285 185.615 219.855 184.739C220.504 183.928 220.947 182.971 221.143 181.951C221.168 181.447 221.043 180.947 220.784 180.514C220.51 180.124 220.182 179.585 219.728 179.701C219.253 179.864 218.82 180.131 218.461 180.483C218.07 180.821 217.7 181.19 217.331 181.539C214.416 184.559 210.646 186.819 209.241 190.959C208.311 192.839 207.403 194.73 206.653 196.684C206.237 197.634 205.884 198.612 205.597 199.609C205.394 200.624 205.334 201.662 205.418 202.693C205.566 204.805 205.83 206.918 205.946 208.977C206.088 211.059 206.084 213.148 205.935 215.229V215.229Z" fill="#B16668"/>
<path d="M218.123 187.295C217.352 188.066 216.518 188.773 215.8 189.565C215.092 190.37 214.463 191.24 213.92 192.163C213.318 193.061 212.705 193.969 212.061 194.846C211.739 195.296 211.386 195.723 211.005 196.124C210.593 196.51 210.067 196.751 209.505 196.81C210.561 196.494 211.121 195.511 211.702 194.593C212.283 193.674 212.853 192.755 213.445 191.847C214.007 190.895 214.692 190.021 215.483 189.249C216.307 188.525 217.19 187.871 218.123 187.295V187.295Z" fill="#F28F8F"/>
<path d="M220.669 192.185C219.993 192.892 219.232 193.505 218.556 194.149C218.205 194.468 217.887 194.822 217.606 195.205C217.363 195.585 217.12 196.029 216.877 196.441C216.381 197.275 215.884 198.109 215.346 198.912C214.827 199.739 214.248 200.526 213.614 201.267C214.078 200.422 214.501 199.546 214.966 198.69C215.43 197.835 215.895 196.99 216.381 196.145C216.634 195.733 216.867 195.321 217.162 194.899C217.483 194.499 217.856 194.143 218.271 193.843C219.032 193.22 219.845 192.702 220.669 192.185Z" fill="#F28F8F"/>
<path opacity="0.5" d="M222.401 198.162L222.823 197.645C221.269 199.058 219.871 200.634 218.652 202.344C218.039 203.306 218.029 203.76 218.293 203.929C218.557 204.098 219.433 203.094 219.433 203.094L220.489 202.038C219.877 201.595 221.218 199.704 222.401 198.162Z" fill="#F28F8F"/>
<path d="M220.51 202.028C219.908 202.746 219.306 203.443 218.746 204.14C218.444 204.478 218.158 204.83 217.891 205.196C217.638 205.576 217.384 205.956 217.088 206.326C217.246 205.885 217.433 205.454 217.648 205.038C217.881 204.63 218.146 204.242 218.44 203.876C219.026 203.153 219.725 202.529 220.51 202.028Z" fill="#F28F8F"/>
<path d="M218.662 191.847C218.624 191.736 218.574 191.63 218.514 191.53C218.451 191.435 218.377 191.35 218.303 191.255C218.119 191.054 217.914 190.873 217.691 190.717C217.453 190.548 217.194 190.413 216.92 190.315C216.804 190.269 216.684 190.237 216.561 190.22C216.444 190.22 216.339 190.22 216.349 190.357C216.353 190.416 216.373 190.473 216.409 190.52C216.445 190.567 216.494 190.603 216.55 190.621C216.55 190.621 216.55 190.621 216.55 190.621H216.656L216.846 190.717L217.068 190.833C217.232 190.927 217.384 191.041 217.522 191.171L217.712 191.34L217.807 191.435L217.86 191.498C217.997 191.656 218.134 191.836 218.282 191.994L218.377 192.121C218.493 192.269 218.736 192.258 218.694 192.026C218.686 191.966 218.676 191.906 218.662 191.847V191.847Z" fill="#F28F8F"/>
<path d="M217.152 191.963C217.109 191.918 217.063 191.875 217.014 191.836L216.93 191.762L216.824 191.688L216.624 191.53C216.493 191.415 216.369 191.291 216.254 191.16C216.254 191.107 216.106 191.055 216.053 191.16C216 191.266 216.053 191.34 216.053 191.403C216.18 191.567 216.321 191.719 216.476 191.857C216.559 191.933 216.647 192.004 216.74 192.068C216.797 192.117 216.861 192.156 216.93 192.185C216.93 192.185 217.035 192.248 217.078 192.237C217.12 192.227 217.194 192.09 217.152 191.963Z" fill="#F28F8F"/>
<path d="M212.99 188.921C212.978 188.868 212.957 188.818 212.927 188.773C212.887 188.68 212.825 188.597 212.747 188.53C212.669 188.445 212.581 188.371 212.483 188.309C212.325 188.201 212.159 188.106 211.987 188.024C211.789 187.936 211.579 187.879 211.364 187.855C211.27 187.833 211.173 187.833 211.079 187.855C211.06 187.862 211.044 187.874 211.03 187.889C211.016 187.903 211.006 187.92 210.999 187.939C210.992 187.958 210.989 187.978 210.99 187.998C210.991 188.018 210.996 188.037 211.005 188.055C211.019 188.111 211.05 188.161 211.094 188.198C211.137 188.236 211.191 188.26 211.248 188.266L211.501 188.33L211.712 188.404L211.945 188.509C211.986 188.524 212.022 188.55 212.05 188.583C212.124 188.619 212.191 188.665 212.251 188.721V188.721L212.336 188.794C212.379 188.836 212.425 188.875 212.473 188.911H212.536C212.536 188.911 212.631 188.985 212.684 189.016L212.8 189.08C212.811 189.085 212.823 189.087 212.836 189.087C212.848 189.086 212.86 189.083 212.87 189.076C212.88 189.07 212.889 189.061 212.895 189.051C212.902 189.04 212.905 189.028 212.906 189.016C212.916 188.989 212.916 188.959 212.906 188.932V188.932L212.99 188.921Z" fill="#F28F8F"/>
<path d="M212.188 189.534C212.188 189.439 212.019 189.396 211.935 189.365H211.797L211.576 189.301L211.386 189.249H211.291H211.153C211.122 189.243 211.09 189.243 211.058 189.249C210.995 189.249 210.963 189.312 210.974 189.375C210.974 189.411 210.983 189.445 210.999 189.477C211.016 189.508 211.04 189.535 211.069 189.555C211.25 189.652 211.441 189.73 211.639 189.787L211.85 189.851H211.945H212.009C212.06 189.866 212.115 189.866 212.167 189.851C212.18 189.817 212.18 189.779 212.167 189.745V189.745L212.188 189.534Z" fill="#F28F8F"/>
<path d="M220.446 196.039C220.069 195.883 219.714 195.677 219.39 195.427C219.031 195.142 218.788 194.751 218.45 194.455C218.387 194.392 218.324 194.455 218.313 194.529C218.328 194.824 218.452 195.103 218.662 195.311C218.828 195.5 219.008 195.676 219.2 195.839C219.574 196.155 220.02 196.373 220.499 196.472C220.522 196.477 220.547 196.477 220.57 196.471C220.593 196.465 220.614 196.454 220.632 196.439C220.651 196.424 220.665 196.405 220.675 196.383C220.685 196.361 220.69 196.338 220.689 196.314C220.681 196.249 220.653 196.188 220.61 196.14C220.567 196.091 220.51 196.056 220.446 196.039V196.039Z" fill="#F28F8F"/>
<path d="M218.979 196.705L218.841 196.599L218.493 196.325L218.007 195.902C217.944 195.839 217.827 195.797 217.764 195.902C217.701 196.008 217.764 196.103 217.827 196.177C217.997 196.383 218.18 196.577 218.377 196.758C218.46 196.834 218.548 196.904 218.641 196.969L218.778 197.085L218.884 197.17C218.957 197.205 219.035 197.23 219.116 197.243C219.232 197.243 219.253 197.117 219.232 197.032C219.192 196.895 219.101 196.778 218.979 196.705V196.705Z" fill="#F28F8F"/>
<path d="M223.467 203.179C223.317 202.985 223.147 202.808 222.96 202.651C222.759 202.474 222.535 202.325 222.295 202.207C222.188 202.153 222.074 202.114 221.957 202.091C221.767 202.091 221.767 202.292 221.883 202.397C221.981 202.467 222.083 202.53 222.189 202.587L222.453 202.756L222.559 202.83L222.759 203.01L222.854 203.105C222.916 203.164 222.969 203.232 223.013 203.306C223.125 203.491 223.26 203.661 223.414 203.813C223.478 203.876 223.636 203.939 223.668 203.813C223.679 203.584 223.608 203.359 223.467 203.179Z" fill="#F28F8F"/>
<path d="M222.622 203.707C222.571 203.613 222.494 203.536 222.401 203.485L222.284 203.411L222.052 203.263L221.598 202.999C221.557 202.985 221.512 202.985 221.471 202.999C221.451 203.004 221.432 203.015 221.417 203.03C221.402 203.045 221.392 203.063 221.387 203.084C221.376 203.133 221.38 203.185 221.399 203.232C221.418 203.279 221.45 203.319 221.492 203.348L221.957 203.644L222.179 203.781H222.284L222.432 203.855C222.47 203.864 222.51 203.864 222.548 203.855C222.643 203.918 222.654 203.781 222.622 203.707Z" fill="#F28F8F"/>
<path d="M201.109 227.744C198.532 227.565 196.472 230.089 192.744 235.919C189.016 241.749 182.658 253.345 179.775 257.569C177.747 260.526 171.748 269.039 172.255 280.91C172.583 288.303 174.294 297.206 185.837 293.467C194.286 290.732 199.704 286.993 205.038 278.037C210.73 268.458 213.877 249.986 215.514 243.185C217.151 236.383 215.028 234.43 215.028 234.43L201.109 227.744Z" fill="#F6B9D5"/>
<path d="M204.193 221.661C204.193 221.661 206.622 226.593 210.445 228.23C214.944 230.163 217.194 227.924 217.194 227.924L213.878 237.725C213.878 237.725 211.237 240.101 205.83 237.545C204.315 236.906 202.976 235.911 201.928 234.644C200.88 233.378 200.154 231.876 199.81 230.268L204.193 221.661Z" fill="#F6B9D5"/>
<path opacity="0.15" d="M204.193 221.661C204.193 221.661 206.622 226.593 210.445 228.23C214.944 230.163 217.194 227.924 217.194 227.924L213.878 237.725C213.878 237.725 211.237 240.101 205.83 237.545C204.315 236.906 202.976 235.911 201.928 234.644C200.88 233.378 200.154 231.876 199.81 230.268L204.193 221.661Z" fill="black"/>
<path d="M233.448 216.919C234.504 217.88 238.443 218.524 242.224 216.761C246.005 214.997 246.28 212.885 246.28 212.885L249.913 218.989C249.913 218.989 249.026 222.379 244.632 224.206C243.391 224.748 242.041 224.99 240.689 224.915C239.337 224.84 238.022 224.449 236.848 223.773L233.448 216.919Z" fill="#F6B9D5"/>
<path opacity="0.15" d="M233.448 216.919C234.504 217.88 238.443 218.524 242.224 216.761C246.005 214.997 246.28 212.885 246.28 212.885L249.913 218.989C249.913 218.989 249.026 222.379 244.632 224.206C243.391 224.748 242.041 224.99 240.689 224.915C239.337 224.84 238.022 224.449 236.848 223.773L233.448 216.919Z" fill="black"/>
<path d="M327.76 468.256C327.811 467.8 327.98 467.366 328.251 466.995C328.521 466.625 328.883 466.331 329.302 466.143C330.455 465.558 331.731 465.253 333.025 465.253C334.318 465.253 335.594 465.558 336.747 466.143C337.169 466.327 337.534 466.619 337.805 466.99C338.076 467.362 338.243 467.798 338.289 468.256L336.747 507.047C336.71 507.364 336.594 507.667 336.41 507.927C336.225 508.187 335.978 508.397 335.691 508.536C334.873 508.951 333.968 509.167 333.051 509.167C332.134 509.167 331.229 508.951 330.411 508.536C330.121 508.401 329.871 508.192 329.686 507.931C329.501 507.67 329.387 507.366 329.355 507.047L327.76 468.256Z" fill="#455A64"/>
<path d="M336.705 466.112C335.551 465.526 334.276 465.221 332.982 465.221C331.688 465.221 330.413 465.526 329.259 466.112C328.841 466.3 328.479 466.593 328.208 466.964C327.938 467.334 327.769 467.768 327.717 468.224L328.235 481.098C331.033 483.916 334.116 486.436 337.434 488.618L338.247 468.224C338.198 467.767 338.03 467.332 337.76 466.961C337.489 466.59 337.125 466.297 336.705 466.112Z" fill="#263238"/>
<path d="M491.205 468.256C491.156 467.799 490.987 467.364 490.717 466.993C490.446 466.623 490.083 466.33 489.663 466.143C488.517 465.564 487.251 465.262 485.967 465.262C484.683 465.262 483.417 465.564 482.27 466.143C481.849 466.327 481.484 466.619 481.213 466.99C480.942 467.362 480.775 467.798 480.729 468.256L482.27 507.047C482.307 507.364 482.423 507.667 482.608 507.927C482.793 508.187 483.04 508.397 483.327 508.536C484.145 508.951 485.049 509.167 485.967 509.167C486.884 509.167 487.789 508.951 488.607 508.536C488.894 508.397 489.141 508.187 489.326 507.927C489.51 507.667 489.626 507.364 489.663 507.047L491.205 468.256Z" fill="#455A64"/>
<path d="M489.663 466.101C488.517 465.522 487.251 465.22 485.967 465.22C484.683 465.22 483.417 465.522 482.27 466.101C481.849 466.285 481.484 466.577 481.213 466.948C480.942 467.319 480.775 467.756 480.729 468.213L481.552 489.03C484.834 486.951 487.901 484.553 490.709 481.869L491.248 468.213C491.194 467.753 491.019 467.314 490.741 466.943C490.463 466.572 490.091 466.281 489.663 466.101V466.101Z" fill="#263238"/>
<path d="M415.175 497.373C415.128 496.916 414.961 496.48 414.69 496.109C414.419 495.738 414.054 495.445 413.634 495.261C412.486 494.685 411.221 494.385 409.937 494.385C408.654 494.385 407.388 494.685 406.241 495.261C405.82 495.445 405.455 495.738 405.185 496.109C404.914 496.48 404.746 496.916 404.699 497.373L406.241 536.165C406.276 536.48 406.392 536.782 406.577 537.041C406.762 537.299 407.01 537.507 407.297 537.643C408.114 538.063 409.019 538.282 409.937 538.282C410.855 538.282 411.761 538.063 412.577 537.643C412.866 537.508 413.115 537.302 413.3 537.043C413.485 536.784 413.6 536.481 413.634 536.165L415.175 497.373Z" fill="#455A64"/>
<path d="M414.69 509.571L415.175 497.373C415.13 496.915 414.964 496.478 414.692 496.107C414.421 495.735 414.056 495.443 413.634 495.261C412.486 494.685 411.221 494.385 409.937 494.385C408.654 494.385 407.388 494.685 406.241 495.261C405.82 495.445 405.455 495.738 405.185 496.109C404.914 496.48 404.746 496.916 404.699 497.373L405.185 509.571C408.237 509.687 411.595 509.687 414.69 509.571Z" fill="#263238"/>
<path d="M504.249 440.786H504.132C504.132 426.845 495.018 412.915 476.589 402.28C439.751 381.009 380.017 381.009 343.179 402.28C324.76 412.915 315.625 426.845 315.635 440.786H315.551V448.274C315.773 462.004 324.993 475.733 343.179 486.242C380.017 507.512 439.751 507.512 476.589 486.242C494.775 475.744 504.048 462.025 504.217 448.274L504.249 440.786Z" fill="#F6B9D5"/>
<path opacity="0.25" d="M504.249 440.786H504.132C504.132 426.845 495.018 412.915 476.589 402.28C439.751 381.009 380.017 381.009 343.179 402.28C324.76 412.915 315.625 426.845 315.635 440.786H315.551V448.274C315.773 462.004 324.993 475.733 343.179 486.242C380.017 507.512 439.751 507.512 476.589 486.242C494.775 475.744 504.048 462.025 504.217 448.274L504.249 440.786Z" fill="black"/>
<path d="M343.211 402.258C306.373 423.518 306.373 458.011 343.211 479.282C380.048 500.552 439.783 500.552 476.62 479.282C513.458 458.011 513.469 423.529 476.62 402.258C439.772 380.988 380.048 381.009 343.211 402.258Z" fill="#F6B9D5"/>
<path opacity="0.2" d="M470.801 411.563C484.826 419.663 484.826 432.802 470.801 440.902C456.775 449.003 434.026 448.992 420.001 440.902C405.976 432.812 405.965 419.663 420.001 411.563C434.037 403.462 456.775 403.462 470.801 411.563Z" fill="black"/>
<path d="M487.561 376.573C483.21 374.208 476.366 376.003 471.413 385.952L473.525 387.494L468.002 383.639C473.367 372.845 480.834 371.821 485.185 374.947C485.829 375.412 486.812 376.077 487.561 376.573Z" fill="#F6B9D5"/>
<path opacity="0.7" d="M487.561 376.573C483.21 374.208 476.366 376.003 471.413 385.952L473.525 387.494L468.002 383.639C473.367 372.845 480.834 371.821 485.185 374.947C485.829 375.412 486.812 376.077 487.561 376.573Z" fill="white"/>
<path d="M487.783 387.599C485.977 391.771 479.482 398.562 478.278 403.589L479.134 407.412L474.909 401.266C476.134 396.249 482.629 389.448 484.414 385.286C485.724 382.277 485.47 379.795 484.562 378.147C485.297 378.239 485.997 378.511 486.6 378.939C488.502 380.291 489.579 383.438 487.783 387.599Z" fill="#F6B9D5"/>
<path opacity="0.4" d="M487.783 387.599C485.977 391.771 479.482 398.562 478.278 403.589L479.134 407.412L474.909 401.266C476.134 396.249 482.629 389.448 484.414 385.286C485.724 382.277 485.47 379.795 484.562 378.147C485.297 378.239 485.997 378.511 486.6 378.939C488.502 380.291 489.579 383.438 487.783 387.599Z" fill="white"/>
<path d="M488.913 390.43C486.874 393.831 480.696 402.047 479.112 407.412L478.256 403.589C479.482 398.562 485.977 391.771 487.762 387.599C489.546 383.428 488.48 380.291 486.526 378.939C485.922 378.511 485.222 378.239 484.488 378.147C481.266 377.704 477.095 380.544 473.504 387.494L471.392 385.952C476.345 376.003 483.189 374.208 487.54 376.573C487.888 376.76 488.216 376.979 488.522 377.228V377.228C492.82 380.566 491.226 386.554 488.913 390.43Z" fill="#F6B9D5"/>
<path opacity="0.55" d="M488.913 390.43C486.874 393.831 480.696 402.047 479.112 407.412L478.256 403.589C479.482 398.562 485.977 391.771 487.762 387.599C489.546 383.428 488.48 380.291 486.526 378.939C485.922 378.511 485.222 378.239 484.488 378.147C481.266 377.704 477.095 380.544 473.504 387.494L471.392 385.952C476.345 376.003 483.189 374.208 487.54 376.573C487.888 376.76 488.216 376.979 488.522 377.228V377.228C492.82 380.566 491.226 386.554 488.913 390.43Z" fill="white"/>
<path d="M464.147 412.714C474.391 418.628 474.391 428.229 464.147 434.143C453.902 440.057 437.279 440.057 427.034 434.143C416.79 428.229 416.779 418.628 427.034 412.714C437.289 406.8 453.892 406.8 464.147 412.714Z" fill="#F6B9D5"/>
<path opacity="0.4" d="M464.147 412.714C474.391 418.628 474.391 428.229 464.147 434.143C453.902 440.057 437.279 440.057 427.034 434.143C416.79 428.229 416.779 418.628 427.034 412.714C437.289 406.8 453.892 406.8 464.147 412.714Z" fill="white"/>
<path d="M479.418 406.198C479.418 424.881 464.273 435.262 445.622 435.262C426.971 435.262 411.826 424.881 411.826 406.198C411.826 397.225 415.391 388.619 421.736 382.274C428.081 375.929 436.686 372.365 445.659 372.365C454.632 372.365 463.238 375.929 469.583 382.274C475.928 388.619 479.492 397.225 479.492 406.198H479.418Z" fill="#F6B9D5"/>
<path opacity="0.8" d="M479.418 406.198C479.418 424.881 464.273 435.262 445.622 435.262C426.971 435.262 411.826 424.881 411.826 406.198C411.826 397.225 415.391 388.619 421.736 382.274C428.081 375.929 436.686 372.365 445.659 372.365C454.632 372.365 463.238 375.929 469.583 382.274C475.928 388.619 479.492 397.225 479.492 406.198H479.418Z" fill="white"/>
<path opacity="0.15" d="M445.591 398.467C457.461 398.467 467.093 392.869 467.093 385.962C467.064 384.461 466.614 382.997 465.794 381.738C465.403 381.421 465.002 381.104 464.569 380.798C454.715 374.049 444.503 372.539 434.998 375.127C428.502 377.239 424.109 381.326 424.109 385.984C424.077 392.869 433.709 398.467 445.591 398.467Z" fill="#F6B9D5"/>
<path d="M463.999 379.763L463.556 379.245C461.327 376.67 458.57 374.603 455.472 373.187C452.374 371.771 449.008 371.038 445.602 371.038C442.196 371.038 438.829 371.771 435.731 373.187C432.633 374.603 429.876 376.67 427.648 379.245L427.204 379.763C423.708 384.114 425.092 389.426 431.27 393.007C439.191 397.58 452.065 397.58 459.986 393.007C466.112 389.426 467.506 384.114 463.999 379.763Z" fill="#F6B9D5"/>
<path opacity="0.8" d="M463.999 379.763L463.556 379.245C461.327 376.67 458.57 374.603 455.472 373.187C452.374 371.771 449.008 371.038 445.602 371.038C442.196 371.038 438.829 371.771 435.731 373.187C432.633 374.603 429.876 376.67 427.648 379.245L427.204 379.763C423.708 384.114 425.092 389.426 431.27 393.007C439.191 397.58 452.065 397.58 459.986 393.007C466.112 389.426 467.506 384.114 463.999 379.763Z" fill="white"/>
<path d="M449.383 372.18C449.331 373.152 448.909 374.068 448.203 374.738C447.496 375.408 446.56 375.782 445.586 375.782C444.612 375.782 443.676 375.408 442.969 374.738C442.263 374.068 441.84 373.152 441.789 372.18C441.789 370.068 445.084 365.843 445.591 365.843C446.098 365.843 449.383 370.078 449.383 372.18Z" fill="#F6B9D5"/>
<path opacity="0.2" d="M449.266 371.398C449.212 372.113 448.887 372.779 448.357 373.262C447.828 373.745 447.134 374.007 446.418 373.994C445.701 373.982 445.017 373.697 444.504 373.197C443.991 372.696 443.688 372.019 443.658 371.303C443.658 369.751 444.778 366.509 445.591 365.801C445.084 365.801 441.789 370.026 441.789 372.138C441.79 372.517 441.847 372.894 441.958 373.257C442.2 374.03 442.683 374.705 443.335 375.184C443.988 375.663 444.776 375.921 445.586 375.921C446.395 375.921 447.184 375.663 447.836 375.184C448.489 374.705 448.971 374.03 449.214 373.257C449.324 372.894 449.381 372.517 449.383 372.138C449.373 371.888 449.334 371.639 449.266 371.398V371.398Z" fill="black"/>
<path opacity="0.15" d="M448.791 377.672C447.893 377.894 449.657 381.178 451.558 387.008C452.551 390.092 453.089 394.506 458.106 392.056C462.732 389.786 458.856 384.452 455.275 381.041C452.096 377.968 449.752 377.429 448.791 377.672Z" fill="#F6B9D5"/>
<path opacity="0.15" d="M449.615 375.655C450.09 375.898 452.984 376.288 457.652 380.64C460.155 382.984 462.109 385.92 463.038 386.322C463.968 386.723 464.622 382.604 463.038 380.555C461.079 378.033 458.419 376.145 455.392 375.127C452.16 374.155 448.833 375.253 449.615 375.655Z" fill="#F6B9D5"/>
<path opacity="0.15" d="M445.591 394.982C440.765 394.982 439.952 394.116 441.81 386.343C442.792 382.255 444.767 378.126 445.591 378.126C446.415 378.126 448.379 382.255 449.362 386.343C451.22 394.116 450.407 394.982 445.591 394.982Z" fill="#F6B9D5"/>
<path opacity="0.15" d="M442.381 377.672C443.278 377.894 441.515 381.178 439.614 387.008C438.621 390.092 438.082 394.506 433.066 392.056C428.44 389.786 432.316 384.452 435.896 381.041C439.075 377.968 441.42 377.429 442.381 377.672Z" fill="#F6B9D5"/>
<path opacity="0.15" d="M441.556 375.655C441.081 375.898 438.187 376.288 433.519 380.64C431.016 382.984 429.062 385.92 428.133 386.322C427.203 386.723 426.549 382.604 428.133 380.555C430.093 378.033 432.752 376.145 435.779 375.127C439.011 374.155 442.338 375.253 441.556 375.655Z" fill="#F6B9D5"/>
<path d="M417.202 402.047C420.645 403.874 424.701 409.493 425.271 415.112C425.841 420.73 423.159 423.835 419.674 425.028C416.188 426.222 408.584 425.578 404.592 422.357C400.368 418.945 400.516 416.59 398.34 415.671C396.164 414.752 395.087 416.03 395.013 413.084C395.025 411.397 395.636 409.769 396.737 408.49C397.837 407.212 399.356 406.366 401.023 406.103C404.022 405.543 405.374 407.159 407.074 409.271C408.268 410.781 408.922 412.028 409.936 412.091C410.95 412.154 411.858 411.457 412.429 408.648C412.999 405.839 414.467 402.755 417.202 402.047Z" fill="#F6B9D5"/>
<path opacity="0.7" d="M417.202 402.047C420.645 403.874 424.701 409.493 425.271 415.112C425.841 420.73 423.159 423.835 419.674 425.028C416.188 426.222 408.584 425.578 404.592 422.357C400.368 418.945 400.516 416.59 398.34 415.671C396.164 414.752 395.087 416.03 395.013 413.084C395.025 411.397 395.636 409.769 396.737 408.49C397.837 407.212 399.356 406.366 401.023 406.103C404.022 405.543 405.374 407.159 407.074 409.271C408.268 410.781 408.922 412.028 409.936 412.091C410.95 412.154 411.858 411.457 412.429 408.648C412.999 405.839 414.467 402.755 417.202 402.047Z" fill="white"/>
<path opacity="0.3" d="M404.043 407.782C402.987 407.169 400.125 407.243 398.076 409.07C396.027 410.898 396.207 413.031 396.682 413.295C398.663 413.402 400.611 412.761 402.142 411.5C402.708 411.053 403.17 410.49 403.499 409.848C403.827 409.207 404.012 408.502 404.043 407.782Z" fill="#F6B9D5"/>
<path opacity="0.15" d="M425.271 415.111C424.836 411.798 423.536 408.658 421.501 406.008C423.17 408.68 423.349 414.087 421.818 416.727C420.286 419.368 417.931 421.406 413.231 420.952C408.532 420.498 406.895 416.094 405.585 413.844C404.275 411.595 402.744 412.735 400.801 413.844C398.858 414.953 395.848 415.154 395.246 414.605C395.679 415.576 396.692 415.016 398.34 415.661C400.516 416.579 400.336 418.935 404.592 422.346C408.584 425.567 416.157 426.211 419.674 425.018C423.191 423.824 425.842 420.741 425.271 415.111Z" fill="#F6B9D5"/>
<path opacity="0.2" d="M400.885 437.301C414.911 445.401 414.9 458.529 400.885 466.619C386.871 474.709 364.132 474.719 350.107 466.619C336.082 458.518 336.082 445.401 350.107 437.301C364.132 429.2 386.902 429.211 400.885 437.301Z" fill="black"/>
<path d="M399.872 436.73C386.406 428.957 364.587 428.957 351.121 436.73V435.336C344.077 439.402 340.729 444.789 341.056 450.122C340.729 455.403 344.077 460.831 351.121 464.908C364.587 472.681 386.406 472.681 399.872 464.908C413.337 457.135 413.306 444.503 399.872 436.73Z" fill="#E0E0E0"/>
<path d="M399.872 435.336C413.337 443.109 413.337 455.709 399.872 463.482C386.406 471.255 364.587 471.255 351.121 463.482C337.656 455.709 337.656 443.109 351.121 435.336C364.587 427.563 386.406 427.605 399.872 435.336Z" fill="#F6B9D5"/>
<path d="M399.872 435.336C413.337 443.109 413.337 455.709 399.872 463.482C386.406 471.255 364.587 471.255 351.121 463.482C337.656 455.709 337.656 443.109 351.121 435.336C364.587 427.563 386.406 427.605 399.872 435.336Z" fill="#FAFAFA"/>
<path d="M358.968 441.134C349.716 446.478 349.716 455.139 358.968 460.483C368.22 465.827 383.259 465.816 392.468 460.483C401.678 455.149 401.72 446.478 392.468 441.134C383.217 435.79 368.22 435.79 358.968 441.134Z" fill="#E0E0E0"/>
<path d="M360.109 441.789C351.48 446.774 351.48 454.843 360.109 459.817C368.737 464.792 382.71 464.802 391.328 459.817C399.946 454.832 399.956 446.774 391.328 441.789C382.699 436.804 368.727 436.815 360.109 441.789Z" fill="#EBEBEB"/>
<path opacity="0.1" d="M394.559 456.121C397.368 455.139 400.146 449.858 396.333 442.75C392.764 436.118 381.547 433.245 372.18 434.512C367.566 434.414 363.05 435.848 359.337 438.589V438.589C358.872 438.927 358.418 439.265 357.985 439.645C357.903 439.699 357.826 439.759 357.753 439.825C357.331 440.173 356.929 440.522 356.538 440.881C355.822 441.545 355.168 442.273 354.585 443.056C354.282 443.465 354.01 443.896 353.771 444.345C353.068 445.438 352.755 446.737 352.884 448.031V448.031V447.957C352.884 448.052 352.821 448.158 352.779 448.253C352.736 448.348 352.599 448.728 352.515 448.971C352.43 449.214 352.325 449.594 352.251 449.9C352.177 450.206 352.166 450.418 352.134 450.682C352.083 450.993 352.048 451.307 352.029 451.622C352.029 451.896 352.029 452.181 352.029 452.456C352.029 452.731 352.029 453.079 352.082 453.385C352.132 453.759 352.202 454.129 352.293 454.494C352.388 454.917 352.504 455.329 352.641 455.751C352.779 456.174 352.884 456.501 353.053 456.871C353.222 457.24 353.296 457.356 353.423 457.61C353.55 457.863 353.771 458.275 353.972 458.613C354.173 458.951 354.299 459.088 354.468 459.331C354.637 459.574 354.912 459.965 355.166 460.271C355.419 460.578 355.567 460.736 355.767 460.958C355.968 461.18 356.338 461.56 356.644 461.845C356.95 462.13 357.098 462.267 357.341 462.468C357.584 462.669 358.017 463.017 358.397 463.281L359.179 463.841C359.58 464.094 360.003 464.337 360.425 464.58C360.847 464.823 360.964 464.887 361.259 465.034C361.745 465.277 362.263 465.499 362.791 465.71C363.055 465.816 363.298 465.932 363.572 466.027C364.405 466.333 365.255 466.59 366.118 466.798V466.798C379.636 470.03 386.289 462.172 383.459 460.05C383.322 459.954 383.163 459.849 382.994 459.754C382.825 459.659 382.667 459.574 382.477 459.49C379.435 458.011 373.563 456.902 374.376 452.53C374.574 452.526 374.769 452.494 374.957 452.435C376.106 452.007 377.176 451.393 378.126 450.618C378.927 450.029 379.666 449.36 380.333 448.622C380.429 448.51 380.511 448.386 380.576 448.253C381.23 448.12 381.894 448.049 382.561 448.041C383.279 448.061 383.99 448.182 384.674 448.4C384.989 448.505 385.296 448.632 385.592 448.781C387.916 449.964 389.278 452.34 390.62 454.146C391.064 454.785 391.589 455.364 392.183 455.867C392.381 456.018 392.602 456.136 392.837 456.216C392.897 456.222 392.957 456.222 393.017 456.216C393.199 456.267 393.388 456.292 393.577 456.29H393.746C393.964 456.276 394.18 456.237 394.39 456.174L394.559 456.121Z" fill="black"/>
<path d="M379.932 446.531C373.416 446.531 358.123 440.194 362.126 436.519C370.955 429.57 391.285 431.545 396.333 440.934C401.266 450.122 395.161 456.3 392.246 454.008C389.331 451.717 387.726 444.567 379.932 446.531Z" fill="#F6B9D5"/>
<path opacity="0.35" d="M379.932 446.531C373.416 446.531 358.123 440.194 362.126 436.519C370.955 429.57 391.285 431.545 396.333 440.934C401.266 450.122 395.161 456.3 392.246 454.008C389.331 451.717 387.726 444.567 379.932 446.531Z" fill="white"/>
<path opacity="0.3" d="M392.816 450.407C392.172 446.837 388.455 441.356 379.932 442.064C376.193 442.37 375.58 444.176 376.077 446.045C377.342 446.337 378.634 446.499 379.932 446.531C387.726 444.567 389.31 451.706 392.246 454.009C392.698 454.33 393.241 454.496 393.795 454.483C394.349 454.469 394.884 454.277 395.319 453.935C394.136 454.41 393.239 452.889 392.816 450.407Z" fill="#F6B9D5"/>
<path d="M374.715 449.541C374.715 445.781 365.505 438.198 359.063 440.501C347.034 445.602 351.153 461.391 366.149 464.971C379.668 468.192 386.321 460.345 383.491 458.212C380.872 456.248 372.328 455.498 374.715 449.541Z" fill="#F6B9D5"/>
<path opacity="0.5" d="M374.715 449.541C374.715 445.781 365.505 438.198 359.063 440.501C347.034 445.602 351.153 461.391 366.149 464.971C379.668 468.192 386.321 460.345 383.491 458.212C380.872 456.248 372.328 455.498 374.715 449.541Z" fill="white"/>
<path opacity="0.25" d="M383.491 458.233C383.172 458.013 382.837 457.819 382.488 457.652C383.544 458.17 383.311 459.912 380.555 461.433C377.798 462.954 368.937 463.44 362.653 459.448C356.37 455.455 355.567 445.718 358.186 442.697L355.694 442.56C348.068 448.897 352.789 461.803 366.149 464.992C379.509 468.182 386.321 460.345 383.491 458.233Z" fill="#F6B9D5"/>
<path d="M374.714 449.541C373.562 447.223 371.76 445.29 369.529 443.977C367.298 442.665 364.733 442.029 362.147 442.148C355.144 442.328 352.884 446.246 352.884 446.246C352.884 446.246 352.198 443.183 356.539 439.096C360.879 435.009 367.712 431.576 374.714 433.087C381.717 434.597 381.886 445.095 380.354 446.816C378.823 448.538 375.739 450.724 374.377 450.724C374.345 450.302 374.464 449.882 374.714 449.541Z" fill="#F6B9D5"/>
<path opacity="0.5" d="M374.714 449.541C373.562 447.223 371.76 445.29 369.529 443.977C367.298 442.665 364.733 442.029 362.147 442.148C355.144 442.328 352.884 446.246 352.884 446.246C352.884 446.246 352.198 443.183 356.539 439.096C360.879 435.009 367.712 431.576 374.714 433.087C381.717 434.597 381.886 445.095 380.354 446.816C378.823 448.538 375.739 450.724 374.377 450.724C374.345 450.302 374.464 449.882 374.714 449.541Z" fill="white"/>
<path opacity="0.25" d="M374.714 449.541C374.474 449.871 374.355 450.274 374.377 450.682C375.739 450.682 378.823 448.496 380.354 446.774C380.988 446.056 381.326 443.817 381.009 441.346C381.071 442.065 380.978 442.789 380.736 443.468C380.493 444.148 380.107 444.768 379.604 445.285C378.601 446.098 376.288 447.767 373.859 444.915C371.43 442.064 366.529 439.93 361.883 439.772C357.236 439.614 357.521 438.716 359.337 436.773C358.351 437.462 357.416 438.22 356.539 439.043C352.198 443.13 352.884 446.193 352.884 446.193C352.884 446.193 355.144 442.275 362.147 442.095C364.738 441.981 367.307 442.624 369.539 443.947C371.771 445.269 373.57 447.213 374.714 449.541V449.541Z" fill="#F6B9D5"/>
<path d="M294.439 106.543L262.756 124.867C262.037 125.279 261.457 126.282 261.457 128.226V167.302C261.463 167.739 261.588 168.165 261.816 168.537C262.045 168.908 262.369 169.212 262.756 169.415L266.484 171.527C266.885 171.73 267.328 171.836 267.777 171.836C268.227 171.836 268.67 171.73 269.071 171.527L300.755 153.192C301.13 152.946 301.441 152.615 301.665 152.226C301.889 151.837 302.018 151.401 302.043 150.953V110.821C302.02 110.374 301.89 109.94 301.664 109.554C301.438 109.168 301.122 108.842 300.744 108.603L297.027 106.491C296.621 106.297 296.176 106.201 295.727 106.21C295.278 106.22 294.837 106.334 294.439 106.543V106.543Z" fill="#F6B9D5"/>
<path opacity="0.2" d="M294.439 106.543L262.756 124.867C262.037 125.279 261.457 126.282 261.457 128.226V167.302C261.463 167.739 261.588 168.165 261.816 168.537C262.045 168.908 262.369 169.212 262.756 169.415L266.484 171.527C266.885 171.73 267.328 171.836 267.777 171.836C268.227 171.836 268.67 171.73 269.071 171.527L300.755 153.192C301.13 152.946 301.441 152.615 301.665 152.226C301.889 151.837 302.018 151.401 302.043 150.953V110.821C302.02 110.374 301.89 109.94 301.664 109.554C301.438 109.168 301.122 108.842 300.744 108.603L297.027 106.491C296.621 106.297 296.176 106.201 295.727 106.21C295.278 106.22 294.837 106.334 294.439 106.543V106.543Z" fill="black"/>
<path d="M302.044 110.652C301.938 110.007 301.41 109.775 300.766 110.145L269.082 128.469C268.703 128.711 268.39 129.045 268.174 129.44L261.837 125.807C262.053 125.433 262.358 125.118 262.724 124.888L294.408 106.565C294.81 106.364 295.252 106.259 295.702 106.259C296.151 106.259 296.594 106.364 296.995 106.565L300.713 108.677C301.063 108.891 301.364 109.178 301.593 109.519C301.823 109.86 301.977 110.246 302.044 110.652V110.652Z" fill="#F6B9D5"/>
<path opacity="0.3" d="M302.044 110.652C301.938 110.007 301.41 109.775 300.766 110.145L269.082 128.469C268.703 128.711 268.39 129.045 268.174 129.44L261.837 125.807C262.053 125.433 262.358 125.118 262.724 124.888L294.408 106.565C294.81 106.364 295.252 106.259 295.702 106.259C296.151 106.259 296.594 106.364 296.995 106.565L300.713 108.677C301.063 108.891 301.364 109.178 301.593 109.519C301.823 109.86 301.977 110.246 302.044 110.652V110.652Z" fill="white"/>
<path d="M258.531 155.822C257.718 155.336 252.954 152.654 252.754 152.548C252.601 152.455 252.472 152.329 252.374 152.18C252.276 152.031 252.213 151.861 252.188 151.684C252.164 151.507 252.18 151.327 252.233 151.157C252.287 150.987 252.379 150.831 252.5 150.7L261.446 139.357L267.782 142.99L258.277 154.006C258.165 154.137 258.081 154.292 258.033 154.458C257.984 154.624 257.971 154.799 257.995 154.971C258.019 155.143 258.079 155.307 258.172 155.454C258.264 155.601 258.386 155.726 258.531 155.822V155.822Z" fill="#F6B9D5"/>
<path opacity="0.3" d="M258.531 155.822C257.718 155.336 252.954 152.654 252.754 152.548C252.601 152.455 252.472 152.329 252.374 152.18C252.276 152.031 252.213 151.861 252.188 151.684C252.164 151.507 252.18 151.327 252.233 151.157C252.287 150.987 252.379 150.831 252.5 150.7L261.446 139.357L267.782 142.99L258.277 154.006C258.165 154.137 258.081 154.292 258.033 154.458C257.984 154.624 257.971 154.799 257.995 154.971C258.019 155.143 258.079 155.307 258.172 155.454C258.264 155.601 258.386 155.726 258.531 155.822V155.822Z" fill="white"/>
<path d="M300.765 110.145L269.081 128.469C268.707 128.715 268.395 129.046 268.171 129.435C267.948 129.824 267.818 130.26 267.793 130.708V142.99L258.288 154.006C258.127 154.162 258.016 154.361 257.967 154.579C257.918 154.797 257.934 155.025 258.012 155.235C258.09 155.444 258.228 155.626 258.408 155.759C258.589 155.891 258.804 155.968 259.027 155.981L267.751 156.466V170.861C267.751 171.685 268.332 172.023 269.039 171.611L300.723 153.277C301.098 153.03 301.409 152.699 301.633 152.31C301.857 151.922 301.986 151.486 302.011 151.038V110.905C302.054 110.06 301.473 109.712 300.765 110.145Z" fill="#F6B9D5"/>
<path d="M284.459 154.143L281.808 153.435C276.834 152.105 274.32 148.968 274.32 144.11C274.32 139.885 276.675 135.122 279.601 133.443C281.798 132.176 283.678 133.042 284.47 135.354C285.262 132.186 287.142 129.092 289.338 127.824C292.253 126.145 294.619 128.194 294.619 132.408C294.619 137.266 292.105 143.307 287.131 150.362L284.459 154.143Z" fill="white"/>
</svg>
