<svg width="1398" height="848" viewBox="0 0 1398 848" fill="none" xmlns="http://www.w3.org/2000/svg">
<line x1="279" y1="198.371" x2="1164" y2="198.371" stroke="#F6B9D5" stroke-width="2"/>
<path d="M263.5 493.372C263.5 493.372 291.098 453.545 311.5 430.872C524.161 194.538 930.458 790.361 1119 534.372C1183.09 447.361 1192.59 380.383 1196 272.371C1196 272.371 1189.82 130.06 1221.5 59.8714C1248.32 0.444614 1309 -9.65287 1351.5 10.3714C1394 30.3957 1402.5 89.8714 1394 110.871C1385.5 131.871 1381 196.371 1163.5 198.372" stroke="#F6B9D5" stroke-width="2"/>
<path d="M279 198.347C279 198.347 44.4219 202.825 1 91.3713" stroke="#F6B9D5" stroke-width="2"/>
<path d="M239.033 533.625C239.172 534.159 239.719 534.479 240.253 534.34L248.96 532.062C249.494 531.923 249.814 531.376 249.675 530.842C249.535 530.307 248.988 529.988 248.454 530.127L240.714 532.152L238.69 524.412C238.55 523.878 238.004 523.558 237.47 523.697C236.935 523.837 236.616 524.384 236.755 524.918L239.033 533.625ZM263.137 491.867L239.137 532.867L240.863 533.877L264.863 492.877L263.137 491.867Z" fill="#F6B9D5"/>
<path d="M323 749.322H31V749.468H323V749.322Z" fill="#EBEBEB"/>
<path d="M293.741 758.718H274.399V758.864H293.741V758.718Z" fill="#EBEBEB"/>
<path d="M224.432 760.307H219.357V760.453H224.432V760.307Z" fill="#EBEBEB"/>
<path d="M273.816 753.299H262.609V753.445H273.816V753.299Z" fill="#EBEBEB"/>
<path d="M86.8597 754.28H61.6367V754.426H86.8597V754.28Z" fill="#EBEBEB"/>
<path d="M95.7597 754.28H92.063V754.426H95.7597V754.28Z" fill="#EBEBEB"/>
<path d="M162.488 756.744H107.779V756.89H162.488V756.744Z" fill="#EBEBEB"/>
<path d="M169.408 723.275H56.6435C55.7601 723.274 54.9134 722.922 54.2893 722.297C53.6652 721.671 53.3147 720.824 53.3147 719.941V561.426C53.3224 560.547 53.6763 559.707 54.2996 559.089C54.9229 558.47 55.7651 558.122 56.6435 558.12H169.408C170.292 558.12 171.141 558.471 171.766 559.097C172.391 559.722 172.743 560.57 172.743 561.455V719.941C172.743 720.825 172.391 721.673 171.766 722.299C171.141 722.924 170.292 723.275 169.408 723.275ZM56.6435 558.237C55.7988 558.238 54.9893 558.575 54.3926 559.173C53.7958 559.771 53.4607 560.581 53.4607 561.426V719.941C53.4607 720.785 53.7958 721.595 54.3926 722.193C54.9893 722.791 55.7988 723.128 56.6435 723.129H169.408C170.253 723.128 171.063 722.791 171.661 722.194C172.259 721.596 172.595 720.786 172.597 719.941V561.426C172.595 560.58 172.259 559.77 171.661 559.173C171.063 558.575 170.253 558.238 169.408 558.237H56.6435Z" fill="#EBEBEB"/>
<path d="M295.733 723.275H182.963C182.079 723.274 181.231 722.922 180.606 722.297C179.981 721.672 179.629 720.825 179.628 719.941V561.426C179.637 560.547 179.992 559.707 180.617 559.088C181.241 558.469 182.084 558.122 182.963 558.12H295.733C296.61 558.123 297.451 558.472 298.073 559.091C298.695 559.709 299.048 560.548 299.056 561.426V719.941C299.056 720.823 298.706 721.669 298.083 722.294C297.461 722.92 296.615 723.272 295.733 723.275ZM182.963 558.237C182.117 558.238 181.307 558.575 180.71 559.173C180.112 559.77 179.775 560.58 179.774 561.426V719.941C179.775 720.786 180.112 721.596 180.71 722.194C181.307 722.791 182.117 723.128 182.963 723.129H295.733C296.578 723.128 297.388 722.791 297.986 722.194C298.584 721.596 298.92 720.786 298.922 719.941V561.426C298.92 560.58 298.584 559.77 297.986 559.173C297.388 558.575 296.578 558.238 295.733 558.237H182.963Z" fill="#EBEBEB"/>
<path d="M187.383 749.322H207.882V672.975H187.383V749.322Z" fill="#E6E6E6"/>
<path d="M190.794 749.322H187.384V742.448H194.374L190.794 749.322Z" fill="#F0F0F0"/>
<path d="M270.814 749.322H291.312V672.975H270.814V749.322Z" fill="#E6E6E6"/>
<path d="M187.384 746.682H273.792V672.975H187.384V746.682Z" fill="#F0F0F0"/>
<path d="M190.035 696.452H271.147V676.24H190.035V696.452Z" fill="#E6E6E6"/>
<path d="M226.757 682.512H234.419C237.748 682.512 240.93 680.018 243.22 675.615H217.956C220.245 680.03 223.428 682.512 226.757 682.512Z" fill="#F0F0F0"/>
<path d="M270.382 749.322H273.792V742.448H266.802L270.382 749.322Z" fill="#F0F0F0"/>
<path d="M190.035 719.935H271.147V699.723H190.035V719.935Z" fill="#E6E6E6"/>
<path d="M226.757 706.001H234.419C237.748 706.001 240.93 703.507 243.22 699.104H217.956C220.245 703.536 223.428 706.001 226.757 706.001Z" fill="#F0F0F0"/>
<path d="M190.035 743.417H271.147V723.205H190.035V743.417Z" fill="#E6E6E6"/>
<path d="M226.757 729.483H234.419C237.748 729.483 240.93 726.99 243.22 722.586H217.956C220.245 726.99 223.428 729.483 226.757 729.483Z" fill="#F0F0F0"/>
<path d="M76.5461 655.66H154.825V576.452H76.5461L76.5461 655.66Z" fill="#E6E6E6"/>
<path d="M71.1091 655.66H153.383V576.452H71.1091L71.1091 655.66Z" fill="#F0F0F0"/>
<path d="M146.498 648.769V583.343H78.0119V648.769H146.498Z" fill="white"/>
<path d="M111.779 591.992L99.2113 604.583C96.1743 607.628 94.4688 611.752 94.4688 616.053C94.4688 620.353 96.1743 624.478 99.2113 627.523L111.779 640.096C111.84 640.158 111.913 640.206 111.993 640.24C112.073 640.273 112.159 640.29 112.246 640.29C112.333 640.29 112.419 640.273 112.499 640.24C112.579 640.206 112.652 640.158 112.713 640.096L125.287 627.523C128.324 624.478 130.029 620.353 130.029 616.053C130.029 611.752 128.324 607.628 125.287 604.583L112.719 591.992C112.594 591.869 112.425 591.8 112.249 591.8C112.073 591.8 111.904 591.869 111.779 591.992ZM100.146 626.565C97.3572 623.769 95.7914 619.981 95.7914 616.032C95.7914 612.084 97.3572 608.296 100.146 605.5V626.565ZM124.352 626.565V605.523C127.141 608.319 128.707 612.107 128.707 616.056C128.707 620.005 127.141 623.792 124.352 626.588V626.565Z" fill="#F0F0F0"/>
<path d="M268.6 645.72H224.865L222.371 671.545H266.107L268.6 645.72Z" fill="#E6E6E6"/>
<path d="M266.107 671.545L265.932 672.975H222.19L222.371 671.545H266.107Z" fill="#E6E6E6"/>
<path d="M267.257 645.72H223.521L221.022 671.545H264.758L267.257 645.72Z" fill="#F0F0F0"/>
<path d="M263.876 669.863L265.704 647.472C265.708 647.398 265.698 647.323 265.673 647.253C265.648 647.182 265.609 647.118 265.558 647.063C265.507 647.009 265.446 646.965 265.377 646.935C265.309 646.905 265.235 646.889 265.161 646.888H224.952C224.814 646.888 224.681 646.939 224.58 647.032C224.478 647.125 224.415 647.253 224.403 647.39L222.552 669.775C222.547 669.85 222.558 669.925 222.583 669.996C222.609 670.067 222.648 670.131 222.7 670.186C222.751 670.241 222.813 670.285 222.882 670.314C222.951 670.344 223.026 670.359 223.101 670.359H263.309C263.45 670.366 263.587 670.318 263.693 670.225C263.798 670.133 263.864 670.003 263.876 669.863Z" fill="white"/>
<path d="M253.364 671.545L253.189 672.975H205.026L205.201 671.545H253.364Z" fill="#F0F0F0"/>
<path d="M194.573 631.914H276.7V577.316H194.573V631.914Z" fill="#E6E6E6"/>
<path d="M192.75 631.914H274.878V577.316H192.75V631.914Z" fill="#F5F5F5"/>
<path d="M271.602 628.235V581.001H196.027V628.235H271.602Z" fill="white"/>
<path d="M197.399 628.229V580.995H196.021V628.229H197.399Z" fill="#E6E6E6"/>
<path d="M194.105 621.969H273.523V617.028H194.105V621.969Z" fill="#F5F5F5"/>
<path d="M189.176 571.231H280.28C280.413 571.232 280.54 571.286 280.634 571.38C280.728 571.474 280.781 571.6 280.783 571.733C280.783 571.866 280.73 571.994 280.635 572.088C280.541 572.183 280.413 572.235 280.28 572.235H189.176C189.11 572.236 189.044 572.224 188.982 572.199C188.921 572.174 188.865 572.137 188.817 572.09C188.77 572.044 188.733 571.988 188.707 571.927C188.681 571.865 188.668 571.8 188.668 571.733C188.67 571.599 188.724 571.472 188.819 571.378C188.914 571.284 189.043 571.231 189.176 571.231Z" fill="#E6E6E6"/>
<path d="M187.413 571.733C187.413 571.982 187.486 572.226 187.625 572.433C187.763 572.641 187.96 572.802 188.19 572.898C188.42 572.994 188.673 573.019 188.918 572.971C189.163 572.923 189.387 572.803 189.564 572.627C189.741 572.451 189.861 572.227 189.911 571.983C189.96 571.738 189.936 571.485 189.841 571.254C189.747 571.024 189.586 570.826 189.379 570.687C189.172 570.548 188.929 570.473 188.68 570.472C188.514 570.471 188.349 570.503 188.195 570.566C188.042 570.629 187.902 570.722 187.784 570.839C187.666 570.956 187.573 571.096 187.509 571.249C187.445 571.402 187.413 571.567 187.413 571.733Z" fill="#E6E6E6"/>
<path d="M276.017 574.56C276.197 574.56 276.369 574.489 276.496 574.364C276.624 574.238 276.698 574.067 276.701 573.888V572.428C276.701 572.247 276.629 572.073 276.5 571.945C276.372 571.817 276.199 571.745 276.017 571.745C275.928 571.745 275.839 571.763 275.757 571.797C275.674 571.831 275.599 571.882 275.536 571.945C275.473 572.009 275.423 572.084 275.39 572.167C275.356 572.25 275.339 572.339 275.34 572.428V573.888C275.343 574.066 275.415 574.236 275.542 574.362C275.669 574.487 275.839 574.558 276.017 574.56Z" fill="#E6E6E6"/>
<path d="M196.78 574.56C196.955 574.552 197.12 574.479 197.243 574.354C197.365 574.23 197.436 574.063 197.44 573.888V572.428C197.44 572.247 197.368 572.073 197.24 571.945C197.112 571.817 196.938 571.745 196.757 571.745C196.667 571.745 196.579 571.763 196.496 571.797C196.414 571.831 196.339 571.882 196.276 571.945C196.213 572.009 196.163 572.084 196.129 572.167C196.096 572.25 196.079 572.339 196.079 572.428V573.888C196.081 573.978 196.1 574.067 196.136 574.15C196.172 574.233 196.225 574.308 196.29 574.37C196.355 574.432 196.432 574.481 196.516 574.514C196.6 574.547 196.69 574.562 196.78 574.56Z" fill="#E6E6E6"/>
<path opacity="0.4" d="M189.34 624.778H273.523V571.733H189.34V624.778Z" fill="#E0E0E0"/>
<path d="M266.65 571.733C266.65 571.983 266.724 572.226 266.862 572.434C267.001 572.641 267.198 572.803 267.429 572.899C267.659 572.994 267.913 573.019 268.157 572.97C268.402 572.922 268.627 572.802 268.803 572.625C268.98 572.449 269.1 572.224 269.149 571.979C269.197 571.735 269.172 571.481 269.077 571.25C268.981 571.02 268.82 570.823 268.612 570.684C268.405 570.546 268.161 570.472 267.911 570.472C267.577 570.472 267.256 570.605 267.019 570.841C266.783 571.078 266.65 571.399 266.65 571.733Z" fill="#E6E6E6"/>
<path d="M147.508 745.537H154.259V686.98H147.508V745.537Z" fill="#F0F0F0"/>
<path d="M74.2743 749.246H151.666V745.537H74.2743V749.246Z" fill="#F0F0F0"/>
<path d="M147.508 686.98H71.6814V745.537H147.508V686.98Z" fill="#F5F5F5"/>
<path d="M138.041 694.186H81.1481C78.8516 694.186 76.99 696.048 76.99 698.344V709.23C76.99 711.527 78.8516 713.388 81.1481 713.388H138.041C140.338 713.388 142.199 711.527 142.199 709.23V698.344C142.199 696.048 140.338 694.186 138.041 694.186Z" fill="#F0F0F0"/>
<path d="M138.041 719.123H81.1481C78.8516 719.123 76.99 720.985 76.99 723.281V734.167C76.99 736.463 78.8516 738.325 81.1481 738.325H138.041C140.338 738.325 142.199 736.463 142.199 734.167V723.281C142.199 720.985 140.338 719.123 138.041 719.123Z" fill="#F0F0F0"/>
<path d="M95.4678 705.107H123.722C124.071 705.107 124.406 704.969 124.653 704.722C124.9 704.476 125.04 704.142 125.042 703.793C125.04 703.443 124.9 703.109 124.653 702.861C124.406 702.614 124.071 702.475 123.722 702.473H95.4678C95.1182 702.475 94.7834 702.614 94.5362 702.861C94.289 703.109 94.1495 703.443 94.1479 703.793C94.1495 704.142 94.2892 704.476 94.5366 704.722C94.7839 704.969 95.1188 705.107 95.4678 705.107Z" fill="#F5F5F5"/>
<path d="M95.4678 730.044H123.722C124.071 730.044 124.406 729.906 124.653 729.659C124.9 729.413 125.04 729.079 125.042 728.73C125.04 728.38 124.9 728.046 124.653 727.798C124.406 727.551 124.071 727.412 123.722 727.41H95.4678C95.1182 727.412 94.7834 727.551 94.5362 727.798C94.289 728.046 94.1495 728.38 94.1479 728.73C94.1495 729.079 94.2892 729.413 94.5366 729.659C94.7839 729.906 95.1188 730.044 95.4678 730.044Z" fill="#F5F5F5"/>
<g filter="url(#filter0_d_5667_3255)">
<path d="M177 775.695C239.536 775.695 290.232 772.735 290.232 769.084C290.232 765.433 239.536 762.473 177 762.473C114.464 762.473 63.7683 765.433 63.7683 769.084C63.7683 772.735 114.464 775.695 177 775.695Z" fill="#F5F5F5"/>
</g>
<path d="M202.025 585.247H94.1013L102.488 732.222H210.405L202.025 585.247Z" fill="#263238"/>
<path d="M204.121 585.247H96.198L104.584 732.222H212.507L204.121 585.247Z" fill="#733C92"/>
<path opacity="0.5" d="M196.687 590.188H101.133L107.983 723.229H206.019L196.687 590.188Z" fill="black"/>
<path d="M101.133 590.188C108.234 634.536 103.363 678.885 110.477 723.229H208.501C201.4 678.885 206.27 634.536 199.157 590.188H101.133Z" fill="white"/>
<g opacity="0.3">
<path d="M121.175 630.051C123.34 630.069 125.416 630.916 126.974 632.419C128.532 633.922 129.454 635.965 129.55 638.128C129.594 639.168 129.425 640.207 129.055 641.18C128.684 642.153 128.12 643.041 127.395 643.789C126.671 644.536 125.802 645.129 124.841 645.531C123.88 645.932 122.847 646.133 121.806 646.123C119.655 646.105 117.593 645.26 116.048 643.763C114.503 642.266 113.593 640.231 113.508 638.081C113.463 637.044 113.627 636.008 113.991 635.036C114.356 634.064 114.912 633.175 115.627 632.422C116.345 631.677 117.207 631.085 118.161 630.683C119.115 630.282 120.141 630.079 121.175 630.086M121.117 628.399C119.858 628.391 118.611 628.64 117.452 629.13C116.293 629.621 115.245 630.343 114.375 631.252C113.504 632.161 112.828 633.238 112.387 634.417C111.947 635.597 111.752 636.853 111.814 638.111C111.916 640.706 113.013 643.163 114.878 644.971C116.743 646.779 119.232 647.8 121.83 647.822C123.094 647.833 124.348 647.587 125.514 647.098C126.681 646.61 127.736 645.89 128.616 644.982C129.496 644.074 130.183 642.997 130.635 641.816C131.086 640.635 131.293 639.374 131.244 638.111C131.118 635.504 129.998 633.044 128.115 631.237C126.231 629.431 123.727 628.415 121.117 628.399Z" fill="#733C92"/>
</g>
<path d="M175.377 702.905H144.425C144.193 702.901 143.963 702.947 143.751 703.039C143.538 703.131 143.348 703.267 143.192 703.438C143.036 703.609 142.918 703.812 142.847 704.032C142.776 704.252 142.752 704.485 142.778 704.716C142.834 705.208 143.067 705.663 143.433 705.997C143.799 706.331 144.274 706.521 144.769 706.532H175.721C175.953 706.536 176.183 706.491 176.395 706.398C176.608 706.306 176.798 706.169 176.953 705.997C177.108 705.825 177.224 705.621 177.294 705.4C177.364 705.179 177.385 704.946 177.356 704.716C177.301 704.225 177.07 703.772 176.706 703.439C176.342 703.106 175.87 702.916 175.377 702.905Z" fill="#E0E0E0"/>
<path d="M191.933 695.284H143.8C143.567 695.28 143.335 695.325 143.121 695.416C142.907 695.507 142.714 695.643 142.556 695.814C142.398 695.985 142.277 696.187 142.203 696.408C142.128 696.629 142.101 696.862 142.124 697.094C142.165 697.585 142.388 698.043 142.749 698.378C143.109 698.714 143.582 698.904 144.074 698.911H192.184C192.417 698.917 192.649 698.875 192.865 698.785C193.081 698.696 193.275 698.561 193.435 698.392C193.595 698.222 193.717 698.02 193.793 697.799C193.87 697.579 193.898 697.344 193.878 697.112C193.84 696.62 193.619 696.159 193.26 695.821C192.9 695.483 192.427 695.291 191.933 695.284Z" fill="#E0E0E0"/>
<g opacity="0.3">
<path d="M122.162 661.488C124.311 661.503 126.371 662.349 127.911 663.847C129.451 665.346 130.352 667.382 130.426 669.53C130.465 670.569 130.295 671.606 129.925 672.578C129.554 673.551 128.992 674.438 128.271 675.189C127.55 675.936 126.684 676.528 125.726 676.93C124.768 677.331 123.738 677.534 122.7 677.525C120.546 677.51 118.48 676.666 116.932 675.169C115.383 673.671 114.471 671.635 114.384 669.483C114.348 668.442 114.523 667.404 114.899 666.432C115.275 665.46 115.843 664.575 116.569 663.828C117.296 663.081 118.166 662.489 119.127 662.087C120.088 661.685 121.121 661.481 122.162 661.488ZM122.162 659.794C120.897 659.787 119.643 660.034 118.476 660.523C117.309 661.012 116.252 661.731 115.37 662.638C114.487 663.545 113.797 664.621 113.341 665.801C112.884 666.981 112.671 668.242 112.713 669.506C112.817 672.109 113.92 674.571 115.793 676.381C117.666 678.191 120.165 679.21 122.77 679.224C124.031 679.229 125.281 678.978 126.443 678.487C127.605 677.996 128.656 677.275 129.532 676.367C130.408 675.459 131.091 674.383 131.539 673.204C131.988 672.025 132.193 670.767 132.143 669.506C132.056 666.912 130.968 664.452 129.107 662.642C127.247 660.831 124.758 659.811 122.162 659.794Z" fill="#733C92"/>
</g>
<path d="M158.195 636.078H141.639C141.153 636.074 140.686 635.883 140.336 635.545C139.986 635.207 139.779 634.748 139.759 634.262C139.751 634.027 139.79 633.793 139.875 633.573C139.959 633.354 140.087 633.154 140.251 632.985C140.414 632.816 140.61 632.682 140.826 632.59C141.043 632.498 141.275 632.451 141.511 632.451H158.061C158.548 632.455 159.015 632.645 159.366 632.981C159.718 633.318 159.928 633.776 159.953 634.262C159.962 634.498 159.923 634.733 159.838 634.953C159.754 635.174 159.626 635.375 159.461 635.545C159.297 635.714 159.1 635.849 158.883 635.941C158.665 636.032 158.431 636.079 158.195 636.078Z" fill="#E0E0E0"/>
<path d="M177.304 636.078H166.091C165.604 636.074 165.137 635.884 164.786 635.546C164.435 635.208 164.227 634.748 164.205 634.262C164.197 634.027 164.236 633.793 164.321 633.573C164.405 633.354 164.533 633.154 164.697 632.985C164.86 632.816 165.056 632.682 165.272 632.59C165.489 632.498 165.722 632.451 165.957 632.451H177.175C177.661 632.455 178.128 632.645 178.478 632.982C178.829 633.318 179.038 633.776 179.062 634.262C179.07 634.498 179.031 634.733 178.947 634.953C178.862 635.174 178.734 635.375 178.57 635.545C178.405 635.714 178.209 635.849 177.991 635.941C177.774 636.032 177.54 636.079 177.304 636.078Z" fill="#E0E0E0"/>
<path d="M186.344 643.699H141.902C141.415 643.697 140.949 643.506 140.6 643.168C140.25 642.829 140.045 642.369 140.027 641.883C140.019 641.648 140.059 641.414 140.143 641.195C140.228 640.975 140.356 640.775 140.519 640.606C140.683 640.437 140.878 640.303 141.095 640.211C141.311 640.12 141.544 640.073 141.779 640.073H186.216C186.7 640.075 187.165 640.265 187.514 640.603C187.862 640.94 188.066 641.399 188.084 641.883C188.093 642.118 188.054 642.351 187.971 642.571C187.888 642.79 187.761 642.99 187.599 643.16C187.436 643.329 187.242 643.464 187.026 643.557C186.811 643.649 186.579 643.698 186.344 643.699Z" fill="#E0E0E0"/>
<g opacity="0.3">
<path d="M123.43 692.884C125.608 692.927 127.695 693.771 129.289 695.256C130.884 696.741 131.875 698.761 132.073 700.931C132.178 701.948 132.07 702.975 131.758 703.948C131.445 704.921 130.934 705.819 130.257 706.584C129.574 707.337 128.738 707.934 127.805 708.337C126.873 708.74 125.865 708.939 124.849 708.92C122.652 708.885 120.543 708.048 118.919 706.567C117.295 705.086 116.268 703.064 116.031 700.879C115.93 699.855 116.048 698.821 116.376 697.845C116.704 696.87 117.235 695.975 117.934 695.22C118.638 694.47 119.49 693.875 120.436 693.472C121.382 693.07 122.402 692.87 123.43 692.884ZM123.348 691.196C122.097 691.172 120.856 691.412 119.704 691.901C118.553 692.39 117.518 693.116 116.667 694.033C115.816 694.95 115.169 696.037 114.767 697.222C114.366 698.406 114.219 699.663 114.337 700.908C114.787 706.269 119.651 710.62 125.012 710.62C130.374 710.62 134.216 706.269 133.772 700.908C133.541 698.289 132.348 695.848 130.425 694.055C128.502 692.262 125.983 691.243 123.354 691.196H123.348Z" fill="#733C92"/>
</g>
<path d="M193.936 671.492H142.655C142.42 671.492 142.187 671.539 141.971 671.631C141.754 671.722 141.559 671.856 141.395 672.025C141.232 672.194 141.104 672.394 141.019 672.614C140.935 672.833 140.895 673.067 140.903 673.302C140.924 673.787 141.13 674.245 141.479 674.582C141.828 674.918 142.293 675.109 142.778 675.113H194.082C194.317 675.113 194.55 675.066 194.766 674.974C194.983 674.882 195.179 674.748 195.342 674.579C195.506 674.41 195.633 674.21 195.718 673.991C195.802 673.771 195.842 673.537 195.834 673.302C195.816 672.813 195.607 672.35 195.253 672.011C194.898 671.673 194.426 671.487 193.936 671.492Z" fill="#E0E0E0"/>
<path d="M181.783 663.865H142.433C142.198 663.865 141.964 663.912 141.747 664.004C141.531 664.096 141.335 664.231 141.171 664.4C141.007 664.57 140.88 664.771 140.796 664.991C140.711 665.211 140.672 665.446 140.681 665.681C140.698 666.165 140.901 666.624 141.248 666.961C141.595 667.299 142.06 667.489 142.544 667.491H181.9C182.135 667.492 182.368 667.444 182.584 667.353C182.801 667.261 182.996 667.127 183.16 666.958C183.323 666.789 183.451 666.589 183.536 666.369C183.62 666.15 183.66 665.916 183.652 665.681C183.638 665.195 183.435 664.733 183.086 664.393C182.737 664.054 182.27 663.865 181.783 663.865Z" fill="#E0E0E0"/>
<path d="M122.063 643.804L121.374 642.671C119.862 640.201 116.702 637.999 115.616 637.351L116.434 635.903C118.579 637.201 120.49 638.852 122.087 640.785C124.569 637.45 128.195 634.022 133.107 630.32L134.164 631.686C128.908 635.64 125.182 639.278 122.793 642.741C122.554 643.098 122.309 643.454 122.063 643.804Z" fill="#733C92"/>
<path d="M122.939 675.224C122.712 674.844 122.478 674.464 122.244 674.091C120.726 671.62 117.572 669.419 116.498 668.765L117.327 667.316C119.461 668.618 121.362 670.268 122.951 672.198C125.439 668.87 129.095 665.436 134.082 661.733L135.116 663.1C129.79 667.053 126.04 670.692 123.663 674.155L122.939 675.224Z" fill="#733C92"/>
<path d="M124.942 706.713L124.172 705.58C122.49 703.11 119.231 700.908 118.11 700.26L118.869 698.811C121.076 700.119 123.064 701.764 124.761 703.688C127.051 700.359 130.531 696.925 135.367 693.228L136.459 694.595C131.296 698.549 127.751 702.187 125.596 705.65L124.942 706.713Z" fill="#733C92"/>
<path d="M161.875 601.336C160.847 603.578 159.794 605.819 158.715 608.058C160.938 609.164 162.839 610.824 164.234 612.877C165.63 614.931 166.472 617.31 166.681 619.784H174.442C173.928 611.848 168.824 604.939 161.875 601.336Z" fill="#733C92"/>
<path d="M132.307 619.796H140.068C139.878 617.601 140.278 615.394 141.226 613.406C142.175 611.417 143.638 609.718 145.464 608.484C143.953 606.241 142.419 603.999 140.862 601.756C135.197 605.424 131.81 612.146 132.307 619.796Z" fill="#263238"/>
<path d="M151.374 598.731C147.65 598.695 143.997 599.746 140.862 601.757C142.42 603.999 143.954 606.242 145.464 608.484C147.488 607.162 149.857 606.467 152.274 606.487C154.51 606.5 156.711 607.042 158.698 608.07C159.772 605.827 160.825 603.586 161.857 601.348C158.622 599.652 155.027 598.755 151.374 598.731Z" fill="#733C92"/>
<path opacity="0.5" d="M151.374 598.731C147.65 598.695 143.997 599.746 140.862 601.757C142.42 603.999 143.954 606.242 145.464 608.484C147.488 607.162 149.857 606.467 152.274 606.487C154.51 606.5 156.711 607.042 158.698 608.07C159.772 605.827 160.825 603.586 161.857 601.348C158.622 599.652 155.027 598.755 151.374 598.731Z" fill="#263238"/>
<path d="M160.858 614.482C160.858 614.482 153.021 617.688 152.192 618.272C151.994 618.422 151.828 618.61 151.703 618.825C151.579 619.04 151.499 619.278 151.468 619.525C151.437 619.771 151.456 620.021 151.523 620.261C151.59 620.5 151.704 620.723 151.859 620.918C152.151 621.333 152.594 621.618 153.093 621.713C153.593 621.808 154.109 621.705 154.534 621.426C155.392 620.807 160.87 614.482 160.858 614.482ZM152.624 620.322C152.548 620.226 152.491 620.116 152.458 619.999C152.425 619.881 152.416 619.758 152.431 619.636C152.446 619.515 152.486 619.398 152.547 619.292C152.608 619.186 152.69 619.093 152.787 619.02C152.998 618.884 153.252 618.835 153.497 618.882C153.743 618.928 153.961 619.068 154.107 619.271C154.183 619.366 154.24 619.476 154.273 619.594C154.306 619.712 154.315 619.835 154.3 619.956C154.285 620.078 154.245 620.195 154.184 620.301C154.123 620.407 154.041 620.499 153.944 620.573C153.736 620.711 153.484 620.764 153.239 620.722C152.993 620.679 152.773 620.545 152.624 620.345V620.322Z" fill="#263238"/>
<path d="M170.15 610.774C170.188 611.125 170.151 611.481 170.041 611.817C169.931 612.153 169.751 612.462 169.512 612.722C169.273 612.983 168.981 613.19 168.656 613.329C168.331 613.469 167.98 613.537 167.627 613.53C166.878 613.515 166.16 613.227 165.609 612.719C165.058 612.211 164.712 611.519 164.637 610.774C164.597 610.424 164.632 610.07 164.74 609.735C164.848 609.4 165.026 609.092 165.263 608.831C165.5 608.571 165.789 608.364 166.112 608.225C166.435 608.085 166.785 608.016 167.136 608.023C167.888 608.036 168.608 608.322 169.163 608.829C169.718 609.335 170.069 610.027 170.15 610.774Z" fill="white"/>
<path d="M166.733 610.143C166.739 610.198 166.733 610.254 166.716 610.307C166.698 610.36 166.67 610.409 166.632 610.45C166.595 610.492 166.549 610.525 166.498 610.547C166.447 610.57 166.392 610.581 166.336 610.581C166.216 610.58 166.101 610.535 166.013 610.454C165.924 610.373 165.869 610.262 165.857 610.143C165.851 610.087 165.856 610.031 165.873 609.977C165.89 609.924 165.918 609.875 165.956 609.833C165.994 609.792 166.04 609.759 166.091 609.736C166.143 609.714 166.198 609.703 166.254 609.705C166.374 609.706 166.49 609.751 166.578 609.832C166.666 609.913 166.722 610.023 166.733 610.143Z" fill="#263238"/>
<path d="M168.824 610.143C168.83 610.199 168.824 610.255 168.806 610.309C168.788 610.362 168.759 610.411 168.721 610.452C168.683 610.494 168.637 610.527 168.585 610.549C168.533 610.571 168.477 610.582 168.421 610.581C168.302 610.577 168.188 610.531 168.1 610.451C168.012 610.37 167.956 610.261 167.942 610.143C167.935 610.086 167.941 610.029 167.958 609.976C167.976 609.922 168.004 609.872 168.043 609.831C168.081 609.789 168.128 609.756 168.18 609.734C168.232 609.713 168.289 609.703 168.345 609.705C168.465 609.706 168.58 609.751 168.669 609.832C168.757 609.913 168.813 610.023 168.824 610.143Z" fill="#263238"/>
<path d="M167.522 612.432C166.944 612.427 166.389 612.209 165.962 611.819C165.923 611.778 165.9 611.724 165.9 611.667C165.9 611.61 165.923 611.555 165.962 611.515C165.982 611.495 166.006 611.478 166.032 611.467C166.058 611.456 166.086 611.45 166.114 611.45C166.143 611.45 166.171 611.456 166.197 611.467C166.223 611.478 166.247 611.495 166.266 611.515C166.612 611.834 167.063 612.013 167.533 612.017C167.752 612.022 167.968 611.981 168.17 611.896C168.371 611.812 168.552 611.686 168.701 611.527C168.741 611.485 168.795 611.46 168.853 611.459C168.881 611.458 168.91 611.463 168.936 611.473C168.963 611.483 168.987 611.498 169.008 611.518C169.029 611.537 169.045 611.561 169.057 611.587C169.069 611.613 169.075 611.641 169.076 611.669C169.077 611.698 169.072 611.726 169.062 611.753C169.052 611.779 169.036 611.804 169.017 611.825C168.824 612.025 168.592 612.183 168.334 612.288C168.077 612.393 167.8 612.442 167.522 612.432Z" fill="#263238"/>
<path d="M154.586 602.562C154.634 602.91 154.607 603.264 154.505 603.6C154.403 603.935 154.229 604.245 153.996 604.507C153.763 604.769 153.476 604.977 153.154 605.118C152.832 605.258 152.484 605.327 152.133 605.319C151.378 605.301 150.654 605.014 150.092 604.508C149.531 604.002 149.169 603.312 149.073 602.562C149.021 602.217 149.045 601.863 149.144 601.528C149.243 601.192 149.415 600.883 149.646 600.62C149.878 600.358 150.164 600.15 150.485 600.01C150.805 599.871 151.153 599.803 151.503 599.812C152.259 599.83 152.985 600.116 153.55 600.62C154.115 601.124 154.482 601.813 154.586 602.562Z" fill="white"/>
<path d="M151.152 601.92C151.16 601.975 151.155 602.031 151.14 602.084C151.124 602.137 151.096 602.186 151.06 602.227C151.023 602.269 150.978 602.302 150.928 602.325C150.877 602.347 150.822 602.359 150.767 602.358C150.646 602.355 150.531 602.309 150.441 602.229C150.351 602.149 150.293 602.039 150.276 601.92C150.268 601.865 150.271 601.809 150.287 601.755C150.302 601.702 150.33 601.653 150.366 601.611C150.403 601.569 150.449 601.536 150.5 601.514C150.551 601.491 150.606 601.481 150.662 601.482C150.782 601.484 150.899 601.529 150.989 601.61C151.079 601.69 151.137 601.8 151.152 601.92Z" fill="#263238"/>
<path d="M153.237 601.92C153.245 601.975 153.24 602.032 153.224 602.085C153.208 602.139 153.18 602.188 153.143 602.23C153.106 602.271 153.06 602.304 153.009 602.326C152.957 602.349 152.902 602.359 152.846 602.358C152.726 602.354 152.611 602.308 152.521 602.228C152.432 602.148 152.373 602.039 152.355 601.92C152.348 601.865 152.352 601.808 152.369 601.755C152.385 601.702 152.413 601.652 152.45 601.611C152.487 601.569 152.533 601.536 152.584 601.514C152.635 601.491 152.691 601.481 152.747 601.482C152.867 601.485 152.983 601.531 153.072 601.611C153.162 601.691 153.221 601.801 153.237 601.92Z" fill="#263238"/>
<path d="M153.296 603.672H150.563C150.511 603.663 150.463 603.637 150.429 603.597C150.395 603.556 150.376 603.506 150.376 603.453C150.376 603.4 150.395 603.349 150.429 603.309C150.463 603.269 150.511 603.242 150.563 603.234H153.296C153.348 603.242 153.395 603.269 153.429 603.309C153.463 603.349 153.482 603.4 153.482 603.453C153.482 603.506 153.463 603.556 153.429 603.597C153.395 603.637 153.348 603.663 153.296 603.672Z" fill="#263238"/>
<path d="M140.716 610.774C140.754 611.125 140.717 611.481 140.607 611.817C140.497 612.153 140.317 612.462 140.078 612.722C139.839 612.983 139.548 613.19 139.223 613.329C138.898 613.469 138.547 613.537 138.193 613.53C137.444 613.515 136.726 613.227 136.176 612.719C135.625 612.211 135.279 611.519 135.203 610.774C135.163 610.424 135.198 610.07 135.306 609.735C135.414 609.4 135.593 609.092 135.829 608.831C136.066 608.571 136.356 608.364 136.679 608.225C137.002 608.085 137.351 608.016 137.703 608.023C138.454 608.037 139.174 608.324 139.728 608.83C140.283 609.336 140.634 610.027 140.716 610.774Z" fill="white"/>
<path d="M137.288 610.143C137.294 610.198 137.288 610.254 137.271 610.307C137.253 610.36 137.225 610.409 137.187 610.45C137.15 610.492 137.104 610.525 137.053 610.547C137.002 610.57 136.947 610.581 136.891 610.581C136.771 610.58 136.656 610.535 136.568 610.454C136.479 610.373 136.424 610.262 136.412 610.143C136.406 610.087 136.411 610.031 136.428 609.977C136.445 609.924 136.473 609.875 136.511 609.833C136.548 609.792 136.595 609.759 136.646 609.736C136.698 609.714 136.753 609.703 136.809 609.705C136.929 609.706 137.044 609.751 137.133 609.832C137.221 609.913 137.277 610.023 137.288 610.143Z" fill="#263238"/>
<path d="M139.379 610.143C139.386 610.198 139.38 610.255 139.363 610.308C139.346 610.362 139.318 610.411 139.28 610.452C139.243 610.494 139.196 610.527 139.145 610.549C139.093 610.571 139.038 610.582 138.982 610.581C138.863 610.577 138.749 610.531 138.661 610.451C138.573 610.37 138.517 610.261 138.503 610.143C138.496 610.087 138.501 610.031 138.518 609.977C138.535 609.924 138.564 609.875 138.601 609.833C138.639 609.792 138.685 609.759 138.737 609.736C138.788 609.714 138.844 609.703 138.9 609.705C139.02 609.704 139.136 609.749 139.225 609.83C139.314 609.911 139.369 610.023 139.379 610.143Z" fill="#263238"/>
<path d="M136.704 612.432C136.677 612.432 136.65 612.428 136.625 612.417C136.6 612.407 136.577 612.393 136.558 612.374C136.518 612.333 136.496 612.279 136.496 612.222C136.496 612.165 136.518 612.11 136.558 612.07C136.748 611.869 136.977 611.709 137.231 611.6C137.485 611.491 137.759 611.437 138.036 611.439C138.614 611.445 139.17 611.666 139.595 612.058C139.615 612.078 139.632 612.102 139.643 612.128C139.654 612.154 139.66 612.182 139.66 612.21C139.66 612.239 139.654 612.267 139.643 612.293C139.632 612.319 139.615 612.342 139.595 612.362C139.553 612.401 139.498 612.423 139.44 612.423C139.383 612.423 139.328 612.401 139.285 612.362C138.94 612.04 138.485 611.86 138.012 611.86C137.795 611.855 137.578 611.895 137.377 611.979C137.176 612.062 136.995 612.187 136.844 612.344C136.81 612.39 136.76 612.421 136.704 612.432Z" fill="#263238"/>
<path d="M180.936 590.567C179.114 586.73 174.863 584.19 170.278 584.19H160.934C160.293 584.218 159.655 584.076 159.086 583.779C158.517 583.482 158.036 583.039 157.693 582.496C156.391 580.055 153.284 578.315 149.757 578.315C146.229 578.315 143.333 580.067 142.305 582.496C141.878 583.524 140.658 584.19 139.256 584.19H129.912C125.328 584.19 121.362 586.73 119.984 590.567C119.933 590.701 119.913 590.845 119.926 590.987C119.941 591.287 120.07 591.569 120.288 591.776C120.505 591.982 120.794 592.097 121.094 592.097H180.008C180.188 592.098 180.365 592.051 180.522 591.963C180.679 591.875 180.81 591.748 180.904 591.594C180.997 591.44 181.049 591.265 181.055 591.085C181.061 590.905 181.02 590.727 180.936 590.567ZM150.136 585.247C149.439 585.232 148.773 584.958 148.268 584.477C147.763 583.996 147.457 583.343 147.409 582.648C147.385 582.313 147.432 581.977 147.545 581.661C147.658 581.344 147.835 581.055 148.066 580.811C148.296 580.567 148.575 580.373 148.884 580.242C149.193 580.111 149.526 580.045 149.862 580.049C150.563 580.056 151.236 580.328 151.746 580.81C152.256 581.292 152.565 581.948 152.612 582.648C152.636 582.985 152.589 583.323 152.475 583.641C152.36 583.959 152.181 584.249 151.948 584.494C151.715 584.738 151.433 584.932 151.121 585.061C150.809 585.191 150.474 585.254 150.136 585.247Z" fill="#263238"/>
<path d="M241.485 764.92C241.028 764.977 240.567 764.862 240.189 764.599C240.139 764.537 240.109 764.462 240.102 764.383C240.094 764.304 240.11 764.225 240.148 764.155C240.176 764.095 240.217 764.042 240.269 764.001C240.321 763.959 240.381 763.93 240.446 763.916C241.135 763.723 242.729 764.576 242.782 764.617C242.802 764.625 242.818 764.64 242.829 764.659C242.839 764.678 242.843 764.7 242.84 764.722C242.839 764.741 242.832 764.76 242.819 764.775C242.807 764.789 242.789 764.8 242.77 764.803C242.346 764.879 241.916 764.918 241.485 764.92ZM240.715 764.091C240.651 764.081 240.586 764.081 240.522 764.091C240.482 764.098 240.444 764.115 240.412 764.139C240.38 764.163 240.353 764.195 240.335 764.231C240.277 764.36 240.335 764.424 240.335 764.459C240.569 764.733 241.655 764.739 242.437 764.628C241.9 764.347 241.316 764.165 240.715 764.091Z" fill="#733C92"/>
<path d="M242.77 764.803H242.729C242.186 764.57 241.053 763.635 241.077 763.157C241.077 763.04 241.147 762.9 241.427 762.87C241.637 762.853 241.846 762.915 242.011 763.046C242.448 763.503 242.744 764.077 242.864 764.698C242.871 764.713 242.875 764.729 242.875 764.745C242.875 764.761 242.871 764.777 242.864 764.792C242.85 764.801 242.835 764.807 242.818 764.809C242.802 764.811 242.785 764.809 242.77 764.803ZM241.526 763.051H241.468C241.287 763.051 241.281 763.139 241.281 763.162C241.281 763.454 242.046 764.184 242.612 764.5C242.502 764.001 242.253 763.544 241.894 763.18C241.788 763.1 241.659 763.059 241.526 763.063V763.051Z" fill="#733C92"/>
<path d="M247.477 764.704H243.185L241.649 754.764H245.941L247.477 764.704Z" fill="#FFC3BD"/>
<path d="M243.156 764.208H247.828C247.916 764.21 248.001 764.239 248.072 764.292C248.143 764.344 248.196 764.416 248.225 764.5L249.498 768.313C249.525 768.399 249.532 768.489 249.518 768.578C249.505 768.666 249.471 768.751 249.419 768.824C249.368 768.897 249.3 768.958 249.222 769.001C249.143 769.044 249.056 769.069 248.966 769.072C247.273 769.072 244.82 768.95 242.694 768.95C240.212 768.95 240.434 769.084 237.52 769.084C235.768 769.084 235.073 767.303 235.768 767.139C239.044 766.409 239.424 766.328 242.122 764.541C242.424 764.326 242.785 764.21 243.156 764.208Z" fill="#263238"/>
<path opacity="0.2" d="M241.649 754.77L242.443 759.892H246.736L245.941 754.77H241.649Z" fill="black"/>
<path d="M246.987 657.663L244.067 660.612L248.54 662.195C248.54 662.195 250.292 659.789 249.06 658.142L246.987 657.663Z" fill="#FFC3BD"/>
<path d="M243.085 664.735L247.553 665.389L248.552 662.195L244.078 660.612L243.085 664.735Z" fill="#FFC3BD"/>
<path d="M248.937 621.35C249.317 622.167 249.62 622.862 249.924 623.621C250.228 624.381 250.508 625.111 250.8 625.858C251.355 627.359 251.851 628.889 252.313 630.437C252.782 632.002 253.172 633.591 253.481 635.196L253.703 636.423L253.884 637.672C253.948 638.087 253.989 638.519 254.024 638.946C254.059 639.372 254.117 639.757 254.117 640.295V641.054V641.725L254.082 642.385L254.018 643.01C253.942 643.851 253.831 644.64 253.726 645.44C253.492 647.016 253.224 648.558 252.926 650.112C252.307 653.166 251.629 656.15 250.812 659.158L245.491 658.107C245.83 655.14 246.181 652.126 246.461 649.16C246.595 647.676 246.741 646.199 246.823 644.75C246.858 644.038 246.899 643.314 246.899 642.631V642.117V641.644V641.171L246.858 640.785C246.831 640.477 246.789 640.171 246.73 639.868C246.677 639.541 246.63 639.214 246.554 638.881L246.338 637.883L246.087 636.878C245.725 635.535 245.316 634.186 244.849 632.837C244.382 631.488 243.862 630.145 243.313 628.813C243.045 628.142 242.764 627.476 242.472 626.822C242.18 626.168 241.888 625.484 241.602 624.918L248.937 621.35Z" fill="#263238"/>
<path d="M228.772 655.572C228.772 655.572 229.484 688.416 231.411 701.498C233.42 715.105 240.755 758.899 240.755 758.899H248.02C248.02 758.899 245.416 717.219 244.586 703.828C243.681 689.228 243.88 655.572 243.88 655.572H228.772Z" fill="#733C92"/>
<path d="M239.009 756.002C238.974 756.002 239.757 759.022 239.757 759.022H248.598L248.534 756.329L239.009 756.002Z" fill="#263238"/>
<path d="M227.135 602.328C227.157 601.964 226.982 601.658 226.744 601.643C226.506 601.628 226.294 601.911 226.272 602.275C226.25 602.639 226.425 602.946 226.663 602.96C226.901 602.975 227.112 602.692 227.135 602.328Z" fill="#263238"/>
<path d="M226.956 602.959C226.482 604.073 225.861 605.118 225.11 606.066C225.355 606.245 225.637 606.366 225.935 606.423C226.233 606.479 226.539 606.469 226.833 606.393L226.956 602.959Z" fill="#ED847E"/>
<path d="M228.497 600.285C228.452 600.285 228.408 600.273 228.369 600.25C228.16 600.085 227.914 599.974 227.653 599.925C227.391 599.876 227.122 599.891 226.868 599.969C226.842 599.98 226.814 599.985 226.786 599.984C226.758 599.983 226.73 599.977 226.705 599.966C226.679 599.954 226.656 599.938 226.637 599.917C226.618 599.897 226.603 599.873 226.593 599.847C226.584 599.82 226.58 599.791 226.582 599.763C226.584 599.735 226.591 599.707 226.604 599.682C226.616 599.656 226.634 599.633 226.655 599.615C226.676 599.596 226.701 599.581 226.728 599.572C227.048 599.468 227.388 599.443 227.72 599.5C228.052 599.557 228.365 599.694 228.632 599.899C228.676 599.934 228.705 599.984 228.712 600.04C228.72 600.095 228.706 600.152 228.673 600.197C228.652 600.224 228.625 600.246 228.595 600.261C228.565 600.276 228.531 600.284 228.497 600.285Z" fill="#263238"/>
<path d="M238.495 606.312C237.771 609.453 236.954 615.206 239.079 617.297C239.079 617.297 238.11 620.479 232.276 620.479C225.852 620.479 229.327 617.297 229.327 617.297C232.831 616.461 232.86 613.868 232.334 611.427L238.495 606.312Z" fill="#FFC3BD"/>
<path d="M241.339 618.768C241.97 617.489 242.665 616.018 241.339 615.562C239.891 615.054 231.884 614.54 229.075 615.486C228.325 615.678 227.681 616.159 227.286 616.825C226.891 617.491 226.776 618.287 226.967 619.037L241.339 618.768Z" fill="#733C92"/>
<path d="M247.483 618.529C251.18 620.234 253.06 633.164 253.06 633.164L245.614 635.5C244.284 632.079 243.205 628.566 242.385 624.988C241.24 619.592 243.699 616.789 247.483 618.529Z" fill="#263238"/>
<path d="M201.721 638.648L198.287 635.693L195.198 640.189C195.198 640.189 197.972 642.414 201.038 641.503L201.721 638.648Z" fill="#FFC3BD"/>
<path d="M193.761 634.262L193.288 638.706L195.198 640.19L198.287 635.693L193.761 634.262Z" fill="#FFC3BD"/>
<path d="M239.284 601.529C238.851 605.99 238.822 608.618 236.486 610.908C235.734 611.653 234.793 612.18 233.764 612.431C232.735 612.683 231.658 612.65 230.646 612.336C229.635 612.023 228.728 611.44 228.022 610.65C227.316 609.86 226.839 608.894 226.64 607.853C225.822 603.847 226.64 597.224 231.096 595.449C232.044 595.04 233.084 594.888 234.11 595.007C235.136 595.126 236.113 595.513 236.942 596.129C237.771 596.745 238.424 597.568 238.835 598.516C239.246 599.463 239.401 600.502 239.284 601.529Z" fill="#FFC3BD"/>
<path d="M230.144 602.959C229.753 599.876 229.817 598.708 231.464 598.025C229.753 597.686 228.269 597.639 227.563 596.641C226.856 595.642 226.687 593.09 230.121 591.922C229.805 592.506 230.804 593.721 233.963 592.623C237.123 591.525 241.725 591.408 242.139 594.62C243.81 594.036 246.607 599.193 243.307 602.959C240.557 606.113 238.723 608.291 238.18 609.967C238.154 610.046 238.113 610.118 238.057 610.179C238.002 610.241 237.934 610.289 237.859 610.322C237.783 610.356 237.701 610.372 237.619 610.371C237.536 610.371 237.455 610.352 237.38 610.318C236.241 609.786 234.203 610.242 233.292 610.487C233.163 610.521 233.028 610.509 232.907 610.455C232.786 610.401 232.687 610.307 232.626 610.189C232.036 608.975 230.442 605.506 230.144 602.959Z" fill="#263238"/>
<path d="M241.521 595.011C241.521 595.011 242.875 593.102 245.474 594.521C244.138 594.458 242.801 594.624 241.521 595.011Z" fill="#263238"/>
<path d="M241.742 595.42C241.742 595.42 243.629 594.252 242.157 592.05C242.247 593.19 242.106 594.336 241.742 595.42Z" fill="#263238"/>
<path d="M232.328 603.088C232.123 604.192 231.576 605.204 230.763 605.979C229.683 607.001 228.748 606.277 228.719 604.963C228.69 603.795 229.216 601.821 230.471 601.295C231.727 600.77 232.55 601.768 232.328 603.088Z" fill="#FFC3BD"/>
<path opacity="0.3" d="M229.373 673.822C229.794 683.622 230.454 694.998 231.411 701.498C231.779 703.974 232.317 707.443 232.959 711.467C235.54 697.381 237.082 679.23 229.373 673.822Z" fill="black"/>
<path d="M226.155 764.92C225.606 764.92 225.075 764.844 224.906 764.599C224.861 764.533 224.838 764.456 224.838 764.377C224.838 764.298 224.861 764.221 224.906 764.155C224.984 764.038 225.102 763.953 225.239 763.916C225.957 763.723 227.429 764.576 227.493 764.617C227.511 764.626 227.525 764.642 227.532 764.662C227.54 764.681 227.54 764.702 227.534 764.722C227.53 764.742 227.52 764.76 227.505 764.775C227.491 764.789 227.472 764.799 227.452 764.803C227.024 764.878 226.59 764.917 226.155 764.92ZM225.507 764.091C225.441 764.081 225.374 764.081 225.309 764.091C225.267 764.099 225.227 764.116 225.192 764.14C225.157 764.164 225.127 764.195 225.104 764.231C225.028 764.36 225.052 764.424 225.075 764.459C225.268 764.733 226.348 764.739 227.154 764.628C226.646 764.343 226.086 764.16 225.507 764.091Z" fill="#733C92"/>
<path d="M227.458 764.803H227.417C226.909 764.57 225.91 763.635 226.009 763.157C226.009 763.04 226.114 762.9 226.395 762.87C226.499 762.857 226.605 762.866 226.705 762.896C226.806 762.926 226.899 762.977 226.979 763.046C227.51 763.495 227.563 764.652 227.563 764.698C227.562 764.716 227.558 764.734 227.55 764.75C227.542 764.766 227.53 764.781 227.516 764.792C227.498 764.801 227.478 764.805 227.458 764.803ZM226.471 763.051H226.412C226.225 763.051 226.214 763.139 226.208 763.162C226.149 763.454 226.821 764.184 227.341 764.5C227.309 764.017 227.127 763.555 226.821 763.18C226.722 763.101 226.598 763.059 226.471 763.063V763.051Z" fill="#733C92"/>
<path d="M232.176 764.704H227.89L227.808 754.764H232.101L232.176 764.704Z" fill="#FFC3BD"/>
<path d="M227.931 764.208H232.603C232.686 764.207 232.768 764.235 232.832 764.289C232.896 764.343 232.939 764.417 232.953 764.5L233.671 768.313C233.688 768.407 233.683 768.504 233.658 768.596C233.633 768.688 233.588 768.773 233.526 768.845C233.464 768.918 233.387 768.976 233.3 769.015C233.213 769.054 233.119 769.074 233.023 769.073C231.335 769.073 228.894 768.95 226.774 768.95C224.287 768.95 222.137 769.084 219.223 769.084C217.471 769.084 217.039 767.303 217.781 767.139C221.162 766.409 223.907 766.328 226.868 764.541C227.185 764.335 227.553 764.22 227.931 764.208Z" fill="#263238"/>
<path opacity="0.2" d="M227.814 754.77L227.849 759.892H232.141L232.106 754.77H227.814Z" fill="black"/>
<path d="M221.115 655.572C221.115 655.572 219.363 687.651 219.398 700.733C219.398 714.34 226.29 758.899 226.29 758.899H233.555C233.555 758.899 231.662 715.134 232.48 701.784C233.35 687.184 237.567 655.584 237.567 655.584L221.115 655.572Z" fill="#733C92"/>
<path d="M224.993 756.002C224.958 756.002 225.291 759.022 225.291 759.022H234.133L234.472 756.329L224.993 756.002Z" fill="#263238"/>
<path d="M222.68 618.488C222.68 618.488 215.369 636.96 218.552 668.887H245.252C245.532 665.383 242.741 634.863 246.724 618.266C244.197 617.777 241.642 617.453 239.073 617.297C235.825 617.11 232.569 617.11 229.321 617.297C227.08 617.522 224.86 617.921 222.68 618.488Z" fill="#263238"/>
<path opacity="0.2" d="M218.902 635.208C218.505 638.128 218.178 641.463 217.968 645.136C223.154 640.371 224.929 628.498 224.929 628.498L218.902 635.208Z" fill="black"/>
<path d="M225.431 627.283C224.38 630.016 223.317 632.65 222.149 635.296C220.981 637.941 219.772 640.552 218.412 643.168L217.88 644.143L217.611 644.634C217.5 644.832 217.512 644.844 217.208 645.352C216.685 646.176 215.959 646.851 215.1 647.314C214.39 647.688 213.615 647.922 212.817 648.003C211.72 648.104 210.613 648.015 209.546 647.741C208.703 647.532 207.875 647.262 207.07 646.935C205.625 646.337 204.226 645.634 202.883 644.832C202.223 644.453 201.592 644.044 200.967 643.664C200.343 643.285 199.776 642.8 199.104 642.333L202.258 637.497C204.521 638.744 206.897 639.775 209.354 640.575C209.875 640.736 210.408 640.857 210.948 640.937C211.256 641.003 211.574 641.003 211.882 640.937C211.917 640.937 211.806 640.902 211.614 641.001C211.379 641.121 211.178 641.298 211.03 641.515C210.907 641.72 211.065 641.416 211.117 641.299L211.328 640.838L211.748 639.921C212.858 637.445 213.886 634.881 214.884 632.329C215.883 629.777 216.852 627.114 217.746 624.538L225.431 627.283Z" fill="#263238"/>
<path d="M228.334 620.427C229.7 624.246 220.029 639.623 220.029 639.623L214.294 633.941C214.294 633.941 215.76 629.111 217.693 623.294C219.597 617.577 227.031 616.777 228.334 620.427Z" fill="#263238"/>
<defs>
<filter id="filter0_d_5667_3255" x="15.7683" y="738.473" width="322.464" height="109.222" filterUnits="userSpaceOnUse" color-interpolation-filters="sRGB">
<feFlood flood-opacity="0" result="BackgroundImageFix"/>
<feColorMatrix in="SourceAlpha" type="matrix" values="0 0 0 0 0 0 0 0 0 0 0 0 0 0 0 0 0 0 127 0" result="hardAlpha"/>
<feOffset dy="24"/>
<feGaussianBlur stdDeviation="24"/>
<feComposite in2="hardAlpha" operator="out"/>
<feColorMatrix type="matrix" values="0 0 0 0 0 0 0 0 0 0 0 0 0 0 0 0 0 0 0.08 0"/>
<feBlend mode="normal" in2="BackgroundImageFix" result="effect1_dropShadow_5667_3255"/>
<feBlend mode="normal" in="SourceGraphic" in2="effect1_dropShadow_5667_3255" result="shape"/>
</filter>
</defs>
</svg>
