<svg width="376" height="351" viewBox="0 0 376 351" fill="none" xmlns="http://www.w3.org/2000/svg">
<g filter="url(#filter0_d_754_4735)">
<path d="M188 278.272C264.993 278.272 327.408 246.693 327.408 207.739C327.408 168.784 264.993 137.206 188 137.206C111.007 137.206 48.5923 168.784 48.5923 207.739C48.5923 246.693 111.007 278.272 188 278.272Z" fill="#FAFAFA"/>
</g>
<path d="M237.192 180.603L264.505 164.862C264.645 164.816 264.767 164.728 264.854 164.608C264.94 164.489 264.987 164.346 264.987 164.198C264.987 164.051 264.94 163.908 264.854 163.788C264.767 163.669 264.645 163.581 264.505 163.535L216.366 135.627C216.011 135.448 215.619 135.355 215.222 135.355C214.824 135.355 214.432 135.448 214.078 135.627L186.77 151.368C186.63 151.414 186.508 151.503 186.422 151.622C186.335 151.741 186.289 151.885 186.289 152.032C186.289 152.179 186.335 152.323 186.422 152.442C186.508 152.561 186.63 152.65 186.77 152.696L234.904 180.603C235.259 180.782 235.651 180.875 236.048 180.875C236.445 180.875 236.837 180.782 237.192 180.603Z" fill="#E0E0E0"/>
<path d="M298.036 212.281C308.167 212.281 316.38 207.538 316.38 201.687C316.38 195.837 308.167 191.094 298.036 191.094C287.905 191.094 279.692 195.837 279.692 201.687C279.692 207.538 287.905 212.281 298.036 212.281Z" fill="#E0E0E0"/>
<path d="M150.935 254.094C169.595 254.094 184.723 245.359 184.723 234.583C184.723 223.808 169.595 215.072 150.935 215.072C132.274 215.072 117.146 223.808 117.146 234.583C117.146 245.359 132.274 254.094 150.935 254.094Z" fill="#E0E0E0"/>
<path d="M230.202 25.3566L233.245 23.5891C235.167 22.6167 237.73 22.9027 240.487 24.6759C246.029 28.2452 250.262 36.4762 249.942 43.0657C249.782 46.349 248.523 48.5969 246.613 49.5922L243.564 51.3597C241.648 52.3378 239.08 52.0518 236.323 50.2729C230.78 46.7036 226.541 38.4725 226.862 31.8888C227.028 28.5998 228.292 26.3519 230.202 25.3566Z" fill="#EBEBEB"/>
<path d="M243.736 51.2741L246.636 49.5581C248.546 48.5628 249.805 46.3091 249.965 43.0315C250.028 39.8419 249.342 36.6819 247.963 33.8052L244.92 35.5669C246.296 38.4468 246.982 41.6078 246.922 44.799C246.785 48.048 245.578 50.2502 243.736 51.2741Z" fill="#E0E0E0"/>
<path d="M236.328 50.2727C230.786 46.7034 226.547 38.4723 226.868 31.8886C227.188 25.3049 231.941 22.8796 237.484 26.426C243.027 29.9724 247.259 38.2263 246.916 44.8158C246.573 51.4052 241.871 53.842 236.328 50.2727Z" fill="#F0F0F0"/>
<path d="M240.973 49.8151C244.239 49.9753 244.771 46.2973 244.845 44.7129C245.131 38.9013 241.236 31.3395 236.351 28.1878C235.311 27.4605 234.102 27.0115 232.839 26.8836C229.573 26.7292 229.041 30.4014 228.961 31.9916C228.681 37.7974 232.57 45.3649 237.461 48.5109C238.501 49.2383 239.71 49.6873 240.973 49.8151Z" fill="white"/>
<path d="M236.266 39.468H236.38C236.449 39.4426 236.51 39.3967 236.552 39.3365C236.595 39.2762 236.619 39.2044 236.62 39.1305V30.682C236.627 30.6313 236.622 30.5798 236.607 30.5309C236.592 30.482 236.567 30.4368 236.533 30.3985C236.499 30.3601 236.458 30.3294 236.411 30.3083C236.364 30.2873 236.314 30.2764 236.263 30.2764C236.212 30.2764 236.161 30.2873 236.114 30.3083C236.068 30.3294 236.026 30.3601 235.992 30.3985C235.959 30.4368 235.933 30.482 235.918 30.5309C235.903 30.5798 235.899 30.6313 235.905 30.682V38.0494L231.987 33.0158C231.929 32.9399 231.844 32.8901 231.75 32.8772C231.655 32.8644 231.56 32.8895 231.484 32.9472C231.408 33.0048 231.358 33.0902 231.345 33.1846C231.332 33.279 231.357 33.3747 231.415 33.4505L235.991 39.3021C236.02 39.35 236.06 39.3902 236.108 39.4191C236.156 39.448 236.21 39.4648 236.266 39.468Z" fill="#E0E0E0"/>
<path d="M238.273 45.6453H238.336C238.374 45.6334 238.407 45.607 238.426 45.5718C238.445 45.5365 238.45 45.4952 238.439 45.4565L236.449 38.8041C236.437 38.7662 236.411 38.7344 236.376 38.7156C236.341 38.6968 236.301 38.6927 236.263 38.7041C236.225 38.7154 236.193 38.7414 236.174 38.7763C236.155 38.8111 236.151 38.852 236.163 38.8899L238.136 45.5366C238.145 45.5665 238.163 45.5929 238.188 45.6123C238.212 45.6317 238.242 45.6432 238.273 45.6453Z" fill="#EBEBEB"/>
<path d="M236.374 37.4029C235.722 36.9854 235.167 37.2714 235.127 38.0436C235.131 38.4669 235.234 38.8835 235.427 39.2599C235.621 39.6364 235.9 39.9623 236.242 40.2114C236.894 40.629 237.449 40.343 237.489 39.5651C237.487 39.1423 237.385 38.726 237.191 38.3503C236.997 37.9745 236.717 37.6499 236.374 37.4029Z" fill="#EBEBEB"/>
<path d="M231.432 165.382L233.777 177.017L236.059 178.332L238.319 177.028L240.681 165.382L236.059 162.711L231.432 165.382Z" fill="#E0E0E0"/>
<path opacity="0.05" d="M231.432 165.382L233.777 177.017L236.059 178.332L238.319 177.028L240.681 165.382L236.059 162.711L231.432 165.382Z" fill="black"/>
<path d="M236.059 178.332V168.048L231.432 165.382L233.777 177.017L236.059 178.332Z" fill="#EBEBEB"/>
<path opacity="0.05" d="M231.432 165.382L232.947 172.893L236.059 174.689L239.154 172.904L240.681 165.382L236.059 162.711L231.432 165.382Z" fill="black"/>
<path d="M251.772 153.639L254.117 165.273L256.399 166.589L258.659 165.285L261.027 153.639L256.399 150.968L251.772 153.639Z" fill="#E0E0E0"/>
<path opacity="0.05" d="M251.772 153.639L254.117 165.273L256.399 166.589L258.659 165.285L261.027 153.639L256.399 150.968L251.772 153.639Z" fill="black"/>
<path d="M256.399 166.589V156.305L251.772 153.639L254.117 165.274L256.399 166.589Z" fill="#EBEBEB"/>
<path opacity="0.05" d="M251.772 153.639L253.288 161.149L256.399 162.945L259.494 161.161L261.021 153.639L256.399 150.968L251.772 153.639Z" fill="black"/>
<path d="M189.767 141.347L192.112 152.981L194.389 154.297L196.648 152.992L199.016 141.347L194.389 138.675L189.767 141.347Z" fill="#E0E0E0"/>
<path opacity="0.05" d="M189.767 141.347L192.112 152.981L194.389 154.297L196.648 152.992L199.016 141.347L194.389 138.675L189.767 141.347Z" fill="black"/>
<path d="M194.389 154.297V144.018L189.767 141.347L192.112 152.981L194.389 154.297Z" fill="#EBEBEB"/>
<path opacity="0.05" d="M189.767 141.347L191.277 148.863L194.389 150.659L197.489 148.868L199.016 141.347L194.389 138.675L189.767 141.347Z" fill="black"/>
<path d="M236.059 172.813L261.267 158.261V103.704L236.059 118.255V172.813Z" fill="#E0E0E0"/>
<path d="M236.059 118.255L188.452 90.7935V145.351L236.059 172.813V118.255Z" fill="#EBEBEB"/>
<path d="M188.452 90.7934L236.059 118.255L261.267 103.703L213.66 76.2417L188.452 90.7934Z" fill="#F5F5F5"/>
<path d="M232.455 145.282L192.055 121.979V141.999L191.392 142.382L231.798 165.686L232.461 165.302L232.455 145.282Z" fill="#E0E0E0"/>
<path d="M231.792 145.666L191.392 122.362V142.382L231.798 165.686L231.792 145.666Z" fill="#F5F5F5"/>
<path d="M214.003 140.231L209.106 137.405C208.471 137.034 207.962 137.205 207.962 137.777C208.005 138.133 208.131 138.473 208.33 138.771C208.529 139.069 208.795 139.317 209.106 139.493L214.008 142.353C214.643 142.719 215.152 142.548 215.152 141.976C215.113 141.615 214.988 141.268 214.788 140.965C214.588 140.661 214.319 140.41 214.003 140.231Z" fill="#E0E0E0"/>
<path d="M232.461 121.104L192.055 97.8003V117.826L191.397 118.209L231.798 141.513L232.461 141.129V121.104Z" fill="#E0E0E0"/>
<path d="M231.798 121.487L191.392 98.1836L191.397 118.209L231.798 141.513V121.487Z" fill="#F5F5F5"/>
<path d="M214.008 116.053L209.106 113.256C208.471 112.89 207.962 113.056 207.962 113.628C208.005 113.983 208.131 114.324 208.33 114.622C208.529 114.92 208.795 115.167 209.106 115.344L214.008 118.175C214.643 118.541 215.152 118.375 215.152 117.798C215.111 117.438 214.987 117.092 214.788 116.789C214.589 116.486 214.322 116.234 214.008 116.053Z" fill="#E0E0E0"/>
<path d="M231.357 99.8425L230.62 100.197L217.029 92.3493L217.761 91.9946L231.357 99.8425Z" fill="#FAFAFA"/>
<path d="M217.761 91.9946L230.694 99.4592L232.576 80.1142L219.643 72.6553L217.761 91.9946Z" fill="white"/>
<path d="M215.645 92.9901L231.741 102.285L233.96 79.4737L217.864 70.1787L215.645 92.9901ZM218.985 72.2665L232.576 80.1143L230.62 100.197L217.029 92.3494L218.985 72.2665Z" fill="#F0F0F0"/>
<path d="M217.029 92.3495L217.761 91.9949L219.643 72.6556L218.985 72.2666L217.029 92.3495Z" fill="#E0E0E0"/>
<path d="M217.864 70.1787L218.607 69.8354L234.703 79.1304L233.96 79.4737L217.864 70.1787Z" fill="#FAFAFA"/>
<path d="M234.704 79.1304L233.96 79.4736L231.741 102.285L232.484 101.942L234.704 79.1304Z" fill="#E0E0E0"/>
<path opacity="0.05" d="M213.505 93.116L231.472 103.475L239.091 99.0705L221.153 88.7173L213.505 93.116Z" fill="black"/>
<path d="M218.333 91.6293L230.253 98.5104L230.568 95.25L228.354 85.6805L226.238 88.9466L226.678 91.6979L223.155 81.5449L218.648 88.3689L218.333 91.6293Z" fill="#F0F0F0"/>
<path d="M228.537 81.6473C228.786 81.8028 228.989 82.0211 229.127 82.2801C229.265 82.5392 229.331 82.8299 229.321 83.1231C229.27 83.655 228.835 83.8552 228.349 83.5749C228.1 83.4202 227.896 83.203 227.758 82.9451C227.62 82.6872 227.551 82.3975 227.559 82.1049C227.611 81.5729 228.04 81.367 228.537 81.6473Z" fill="#F0F0F0"/>
<path opacity="0.05" d="M241.282 102.829C239.074 104.104 239.074 106.169 241.282 107.445C242.523 108.075 243.894 108.403 245.286 108.403C246.677 108.403 248.049 108.075 249.29 107.445C251.492 106.169 251.492 104.104 249.29 102.829C248.049 102.198 246.677 101.87 245.286 101.87C243.894 101.87 242.523 102.198 241.282 102.829Z" fill="black"/>
<path d="M248.861 106.043C250.783 104.081 251.91 99.1792 250.039 97.6348H240.51C238.633 99.1906 239.76 104.081 241.682 106.043L241.734 106.095L241.797 106.158C241.852 106.214 241.911 106.265 241.974 106.312L242.02 106.352L242.163 106.461L242.414 106.621C243.301 107.069 244.281 107.303 245.274 107.303C246.268 107.303 247.248 107.069 248.134 106.621L248.386 106.461L248.518 106.358L248.575 106.312L248.741 106.163L248.821 106.089L248.861 106.043Z" fill="#F5F5F5"/>
<path d="M241.333 96.891C239.16 98.1437 239.16 100.18 241.333 101.467C242.554 102.085 243.903 102.407 245.272 102.407C246.64 102.407 247.989 102.085 249.21 101.467C251.383 100.209 251.383 98.1723 249.21 96.891C247.99 96.2706 246.64 95.9473 245.272 95.9473C243.903 95.9473 242.553 96.2706 241.333 96.891Z" fill="white"/>
<path d="M242.878 97.778C241.556 98.5445 241.556 99.7857 242.878 100.546C243.62 100.924 244.441 101.121 245.274 101.121C246.107 101.121 246.929 100.924 247.671 100.546C248.992 99.7857 248.992 98.5445 247.671 97.778C246.928 97.4029 246.107 97.2075 245.274 97.2075C244.442 97.2075 243.621 97.4029 242.878 97.778Z" fill="#EBEBEB"/>
<path d="M247.671 99.0937C246.929 98.7159 246.107 98.519 245.274 98.519C244.441 98.519 243.62 98.7159 242.878 99.0937C242.558 99.268 242.285 99.5173 242.083 99.8201C242.285 100.123 242.558 100.372 242.878 100.547C243.62 100.924 244.441 101.121 245.274 101.121C246.107 101.121 246.929 100.924 247.671 100.547C247.99 100.374 248.262 100.124 248.46 99.8201C248.262 99.5161 247.99 99.2665 247.671 99.0937Z" fill="#E0E0E0"/>
<path d="M243.17 99.8199C242.499 99.1366 241.922 98.3672 241.454 97.5319C240.653 96.1191 240.504 94.22 240.922 93.9855C241.339 93.751 243.015 95.6443 243.015 95.6443C242.862 94.8494 242.803 94.0392 242.838 93.2305C242.912 91.9663 243.215 90.8223 243.576 90.5935C243.936 90.3647 244.748 91.9492 245.091 93.1046C245.435 94.2601 245.663 95.2039 245.663 95.2039C245.802 94.3043 246.01 93.4169 246.287 92.5498C246.705 91.3543 247.088 91.0855 247.379 91.2056C247.671 91.3257 247.871 91.8805 247.951 93.4936C247.985 94.2569 247.962 95.0216 247.883 95.7816C247.883 95.7816 248.455 95.1295 249.136 94.4946C249.816 93.8597 250.171 93.7052 250.377 93.8368C250.583 93.9683 250.64 95.0494 249.519 97.08C248.962 98.1128 248.248 99.0526 247.402 99.8657C247.402 99.8657 245.818 100.821 243.17 99.8199Z" fill="#EBEBEB"/>
<path d="M93.1909 133.276L94.4836 134.048L138.402 108.691L137.109 107.919L93.1909 133.276Z" fill="#FAFAFA"/>
<path d="M137.109 107.919L94.4839 132.526V46.1945L137.109 21.5928V107.919Z" fill="white"/>
<path d="M140.838 16.6167L92.0469 44.7877V138.27L140.838 110.099V16.6167ZM138.402 108.709L94.4836 134.048V46.1948L138.402 20.8381V108.709Z" fill="#F0F0F0"/>
<path d="M138.402 108.691L137.109 107.919V21.5929L138.402 20.8379V108.691Z" fill="#E0E0E0"/>
<path d="M94.4839 102.319V103.835L138.402 78.4725L137.109 77.7061L94.4839 102.319Z" fill="#FAFAFA"/>
<path d="M94.4839 72.0892V73.605L138.402 48.2483L137.109 47.4761L94.4839 72.0892Z" fill="#FAFAFA"/>
<path d="M140.839 16.6165L139.529 15.8672L90.7314 44.0382L92.047 44.7875L140.839 16.6165Z" fill="#FAFAFA"/>
<path d="M90.7314 44.0381L92.047 44.7874V138.269L90.7314 137.514V44.0381Z" fill="#E0E0E0"/>
<path d="M113.268 35.3496L114.578 34.5889V122.448L113.268 121.699V35.3496Z" fill="#E0E0E0"/>
<path d="M117.015 33.1929L114.578 34.5886V122.448L117.015 121.035V33.1929Z" fill="#F0F0F0"/>
<path d="M140.838 46.8408V49.6493L92.0469 77.8203V75.0118L140.838 46.8408Z" fill="#F0F0F0"/>
<path d="M140.838 77.0596V79.8738L92.0469 108.045V105.231L140.838 77.0596Z" fill="#F0F0F0"/>
<path d="M114.578 61.9992L113.268 61.2441L94.4839 72.0893V73.6051L114.578 61.9992Z" fill="#FAFAFA"/>
<path d="M114.578 92.2178L113.268 91.457L94.4839 102.302V103.818L114.578 92.2178Z" fill="#FAFAFA"/>
<path d="M153.297 52.3613L154.235 52.9219L173.466 41.8194L172.533 41.2588L153.297 52.3613Z" fill="#FAFAFA"/>
<path d="M172.533 41.2583L154.235 51.8175V32.6555L172.533 22.1021V41.2583Z" fill="white"/>
<path d="M175.239 18.4873L152.462 31.6433V55.9876L175.239 42.8316V18.4873ZM173.466 41.8192L154.252 52.9217V32.6557L173.483 21.5532L173.466 41.8192Z" fill="#EBEBEB"/>
<path d="M173.466 41.8192L172.533 41.2586V22.1023L173.466 21.5532V41.8192Z" fill="#E0E0E0"/>
<path d="M175.239 18.4872L174.284 17.9438L151.512 31.0941L152.462 31.6375L175.239 18.4872Z" fill="#F5F5F5"/>
<path d="M151.512 31.0942L152.462 31.6376V55.9877L151.512 55.4386V31.0942Z" fill="#E0E0E0"/>
<path d="M171.818 40.6868L154.95 50.4222V45.5545L159.165 35.8133L161.791 38.2501L160.847 42.3341L166.67 29.876L171.818 35.8133V40.6868Z" fill="#F0F0F0"/>
<path d="M161.631 31.1117C161.268 31.3493 160.966 31.6687 160.75 32.0443C160.533 32.4198 160.408 32.841 160.384 33.2739C160.384 34.0689 160.956 34.3893 161.631 33.9946C161.995 33.758 162.298 33.4389 162.516 33.0632C162.733 32.6876 162.859 32.2659 162.883 31.8324C162.883 31.0373 162.323 30.717 161.631 31.1117Z" fill="#F0F0F0"/>
<path d="M153.257 84.5078L154.195 85.0684L173.431 73.9601L172.493 73.4053L153.257 84.5078Z" fill="#FAFAFA"/>
<path d="M172.493 73.4048L154.195 83.9639V64.8019L172.493 54.2485V73.4048Z" fill="white"/>
<path d="M175.199 50.6338L152.428 63.7898V88.1398L175.199 74.9838V50.6338ZM173.432 73.9599L154.195 85.0682V64.8022L173.432 53.6997V73.9599Z" fill="#EBEBEB"/>
<path d="M173.431 73.96L172.493 73.4051V54.2488L173.431 53.6997V73.96Z" fill="#E0E0E0"/>
<path d="M175.199 50.6337L174.249 50.0903L151.478 63.2406L152.428 63.784L175.199 50.6337Z" fill="#F5F5F5"/>
<path d="M151.478 63.2407L152.428 63.7841V88.1284L151.478 87.585V63.2407Z" fill="#E0E0E0"/>
<path d="M171.778 72.8333L154.91 82.5687V77.701L159.126 67.9598L161.757 70.3965L160.813 74.4806L166.636 62.0225L171.778 67.9598V72.8333Z" fill="#F0F0F0"/>
<path d="M161.597 63.2578C161.234 63.4947 160.932 63.814 160.715 64.1897C160.498 64.5654 160.373 64.9869 160.35 65.4199C160.35 66.215 160.922 66.5353 161.597 66.1407C161.96 65.9031 162.261 65.5836 162.478 65.2081C162.695 64.8325 162.82 64.4114 162.844 63.9785C162.833 63.1834 162.261 62.8574 161.597 63.2578Z" fill="#F0F0F0"/>
<path d="M78.8507 248.774C74.6637 248.774 70.7569 247.71 67.8512 245.777C65.2829 244.061 63.8472 241.939 63.8472 239.777C63.8472 237.615 65.26 235.475 67.8512 233.771C70.7569 231.837 74.6637 230.773 78.8507 230.773C83.0378 230.773 86.9445 231.837 89.8503 233.771C92.4186 235.487 93.8543 237.609 93.8543 239.777C93.8543 241.945 92.4415 244.072 89.8503 245.777C86.9445 247.71 83.0378 248.774 78.8507 248.774Z" fill="#E0E0E0"/>
<path d="M88.6833 239.056C88.6901 238.795 88.6651 238.533 88.6089 238.278C88.1399 235.355 85.6174 232.198 83.8556 231.191H73.9257C72.1639 232.198 69.6357 235.349 69.1724 238.272C69.1146 238.529 69.0878 238.792 69.0923 239.056C69.0923 239.102 69.0923 239.187 69.0923 239.187C69.1838 240.566 70.1276 241.922 71.9523 242.968C75.779 245.182 81.9852 245.182 85.8176 242.968C87.6308 241.922 88.5746 240.566 88.6776 239.187C88.6718 239.187 88.6833 239.096 88.6833 239.056Z" fill="#37474F"/>
<path d="M74.1717 231.031C71.5691 232.53 71.5691 234.966 74.1717 236.471C76.7743 237.975 80.9956 237.969 83.5925 236.471C86.1894 234.972 86.1951 232.53 83.5925 231.031C80.9899 229.532 76.78 229.527 74.1717 231.031Z" fill="#455A64"/>
<path d="M80.2467 85.4971H77.5354V232.707C77.5272 232.838 77.5596 232.968 77.6282 233.079C77.6968 233.191 77.7983 233.279 77.9187 233.33C78.216 233.48 78.5441 233.558 78.8768 233.558C79.2095 233.558 79.5376 233.48 79.8349 233.33C79.9559 233.279 80.0581 233.192 80.1276 233.08C80.1972 232.969 80.2308 232.838 80.2238 232.707L80.2467 85.4971Z" fill="#37474F"/>
<path d="M58.8481 80.2347L68.2804 56.1592H89.5016L98.9453 80.2347C100.29 83.9984 98.442 88.0653 93.3798 90.9883C85.3718 95.6043 72.416 95.6043 64.4194 90.9883C59.3515 88.0882 57.5039 83.9984 58.8481 80.2347Z" fill="#BA68C8"/>
<g opacity="0.4">
<path d="M58.8481 80.2347L68.2804 56.1592H89.5016L98.9453 80.2347C100.29 83.9984 98.442 88.0653 93.3798 90.9883C85.3718 95.6043 72.416 95.6043 64.4194 90.9883C59.3515 88.0882 57.5039 83.9984 58.8481 80.2347Z" fill="white"/>
</g>
<path opacity="0.2" d="M69.2927 84.8049C65.4431 78.5587 70.3623 66.7355 73.9774 56.8685V56.1592H68.2574L58.8365 80.2347C57.4923 83.9984 59.3399 88.0653 64.3964 90.9883C72.4044 95.6043 85.3602 95.6043 93.3567 90.9883C86.1438 93.8082 73.1365 91.0512 69.2927 84.8049Z" fill="#BA68C8"/>
<path d="M86.5671 61.9248C82.3285 64.3729 75.4531 64.3729 71.2089 61.9248C66.9646 59.4766 66.9703 55.5069 71.2089 53.0588C75.4474 50.6106 82.3285 50.6106 86.5671 53.0588C90.8056 55.5069 90.8113 59.4881 86.5671 61.9248Z" fill="#BA68C8"/>
<g opacity="0.6">
<path d="M86.5671 61.9248C82.3285 64.3729 75.4531 64.3729 71.2089 61.9248C66.9646 59.4766 66.9703 55.5069 71.2089 53.0588C75.4474 50.6106 82.3285 50.6106 86.5671 53.0588C90.8056 55.5069 90.8113 59.4881 86.5671 61.9248Z" fill="white"/>
</g>
<path d="M78.8906 62.5024C81.3438 62.5575 83.7702 61.9824 85.9377 60.8321C87.585 59.8826 88.4888 58.6986 88.4888 57.4917C88.4888 56.2847 87.585 55.1007 85.9377 54.1512C83.7702 53.0009 81.3438 52.4258 78.8906 52.4809C76.4372 52.4238 74.0104 52.999 71.8436 54.1512C70.1962 55.1007 69.2925 56.2847 69.2925 57.4917C69.2925 58.6986 70.1962 59.8826 71.8436 60.8321C74.0104 61.9843 76.4372 62.5595 78.8906 62.5024Z" fill="#BA68C8"/>
<path d="M273.691 127.974L282.986 133.345V149.441L273.691 144.075V127.974Z" fill="#F0F0F0"/>
<path d="M282.986 149.441L283.918 148.903V132.801L282.986 133.345V149.441Z" fill="#E0E0E0"/>
<path d="M283.918 132.801L274.623 127.436L273.691 127.974L282.986 133.345L283.918 132.801Z" fill="#FAFAFA"/>
<path d="M279.76 141.645L275.922 143.858L274.84 143.235L273.765 143.858V140.123L274.84 139.5L275.922 137.629L279.76 135.416V141.645Z" fill="#455A64"/>
<path d="M273.765 143.858L271.609 142.611V138.876L272.684 138.253L273.765 136.382L277.598 134.168L279.76 135.415L275.922 137.629L274.841 139.5L273.765 140.123V143.858Z" fill="#37474F"/>
<path d="M274.841 139.499L272.684 138.252L271.609 138.876L273.765 140.123L274.841 139.499Z" fill="#263238"/>
<path d="M275.922 137.629L279.76 135.415L277.598 134.168L273.765 136.382L275.922 137.629Z" fill="#263238"/>
<path d="M273.228 142.48L272.455 142.926C272.356 142.972 272.247 142.99 272.138 142.979C272.029 142.968 271.925 142.928 271.838 142.863C271.583 142.698 271.37 142.476 271.218 142.213C271.066 141.951 270.978 141.656 270.963 141.353C270.95 141.243 270.967 141.132 271.012 141.031C271.058 140.931 271.129 140.844 271.22 140.781L271.992 140.329C272.092 140.284 272.201 140.266 272.31 140.277C272.418 140.288 272.522 140.328 272.61 140.392C272.865 140.558 273.077 140.781 273.229 141.045C273.382 141.308 273.469 141.604 273.485 141.908C273.498 142.017 273.481 142.128 273.435 142.229C273.39 142.33 273.318 142.416 273.228 142.48Z" fill="#455A64"/>
<path d="M271.861 142.863C271.605 142.699 271.393 142.476 271.241 142.213C271.089 141.951 271.001 141.656 270.985 141.353C270.985 140.781 271.374 140.569 271.861 140.844C272.114 141.011 272.326 141.235 272.478 141.498C272.63 141.761 272.718 142.056 272.736 142.36C272.736 142.92 272.341 143.143 271.861 142.863Z" fill="#263238"/>
<path d="M113.445 257.074C111.737 257.076 110.058 256.628 108.577 255.776L88.0368 243.924C87.9685 243.888 87.9081 243.839 87.8592 243.779C87.8104 243.719 87.7741 243.65 87.7526 243.576C87.7311 243.502 87.7249 243.424 87.7342 243.348C87.7435 243.271 87.7682 243.197 87.8068 243.131C87.8454 243.064 87.8971 243.006 87.9588 242.959C88.0205 242.913 88.091 242.88 88.1659 242.861C88.2408 242.843 88.3187 242.84 88.3948 242.852C88.4709 242.865 88.5437 242.893 88.6088 242.934L109.149 254.786C110.455 255.536 111.934 255.93 113.439 255.93C114.945 255.93 116.424 255.536 117.729 254.786L265.374 169.558C266.334 169.002 267.131 168.204 267.686 167.243C268.241 166.283 268.535 165.193 268.537 164.084V147.982C268.537 147.83 268.597 147.685 268.705 147.578C268.812 147.47 268.957 147.41 269.109 147.41C269.261 147.41 269.406 147.47 269.514 147.578C269.621 147.685 269.681 147.83 269.681 147.982V164.067C269.678 165.377 269.332 166.663 268.677 167.797C268.021 168.932 267.08 169.874 265.946 170.53L118.301 255.758C116.826 256.615 115.151 257.069 113.445 257.074Z" fill="#E0E0E0"/>
<path d="M113.445 254.391C111.737 254.394 110.058 253.946 108.577 253.093L86.1322 240.143C86.0669 240.105 86.0095 240.055 85.9635 239.996C85.9175 239.936 85.8837 239.868 85.8641 239.795C85.8444 239.722 85.8393 239.646 85.849 239.571C85.8587 239.497 85.883 239.425 85.9206 239.359C85.9581 239.294 86.0082 239.237 86.0679 239.191C86.1276 239.145 86.1958 239.111 86.2686 239.091C86.3413 239.071 86.4172 239.066 86.492 239.076C86.5667 239.086 86.6389 239.11 86.7042 239.148L109.149 252.098C110.454 252.851 111.933 253.247 113.439 253.247C114.946 253.247 116.425 252.851 117.729 252.098L265.374 166.87C266.335 166.313 267.133 165.514 267.688 164.552C268.243 163.591 268.536 162.5 268.537 161.39V146.083C268.539 145.168 268.781 144.269 269.239 143.476C269.697 142.683 270.354 142.024 271.146 141.564C271.211 141.527 271.283 141.502 271.358 141.492C271.433 141.482 271.509 141.487 271.581 141.507C271.654 141.527 271.723 141.561 271.782 141.607C271.842 141.653 271.892 141.71 271.929 141.776C272.004 141.907 272.023 142.063 271.984 142.209C271.944 142.354 271.848 142.478 271.718 142.554C271.1 142.914 270.587 143.429 270.23 144.048C269.873 144.667 269.684 145.368 269.681 146.083V161.378C269.679 162.689 269.333 163.977 268.677 165.112C268.022 166.247 267.08 167.19 265.946 167.848L118.301 253.076C116.826 253.933 115.151 254.386 113.445 254.391Z" fill="black"/>
<path d="M288.987 204.702C284.147 199.708 281.305 179.345 286.024 175.381H310.048C314.767 179.339 311.929 199.702 307.09 204.696C307.049 204.744 307.005 204.79 306.959 204.833L306.793 204.999C306.654 205.139 306.507 205.271 306.352 205.394C306.317 205.427 306.279 205.458 306.238 205.485C306.118 205.577 306.004 205.674 305.872 205.766C305.672 205.912 305.464 206.048 305.248 206.172C301.244 208.494 294.809 208.494 290.834 206.172C290.622 206.052 290.417 205.909 290.205 205.76C290.085 205.68 289.976 205.588 289.867 205.502L289.724 205.388C289.576 205.262 289.433 205.136 289.301 205.01L289.107 204.816L288.987 204.702Z" fill="#37474F"/>
<path d="M307.96 173.785C313.439 176.988 313.439 182.171 307.96 185.374C302.48 188.577 293.591 188.571 288.111 185.374C282.632 182.176 282.632 176.988 288.111 173.785C293.591 170.582 302.474 170.588 307.96 173.785Z" fill="#455A64"/>
<path d="M305.323 175.324C309.327 177.675 309.327 181.484 305.323 183.835C301.319 186.186 294.769 186.186 290.748 183.835C286.727 181.484 286.744 177.675 290.748 175.324C294.752 172.973 301.296 172.973 305.323 175.324Z" fill="#263238"/>
<path d="M290.748 179.362C294.752 177.011 301.296 177.011 305.323 179.362C306.299 179.896 307.126 180.665 307.731 181.598C307.126 182.532 306.299 183.301 305.323 183.835C301.319 186.186 294.769 186.186 290.748 183.835C289.77 183.302 288.94 182.533 288.334 181.598C288.94 180.663 289.77 179.894 290.748 179.362Z" fill="#FAFAFA"/>
<path d="M296.417 147.33C294.575 149.326 289.461 149.876 287.345 144.47C285.354 139.414 283.215 134.626 282.603 132.767C282.516 132.525 282.478 132.268 282.493 132.011C282.508 131.754 282.574 131.503 282.688 131.273C282.803 131.043 282.963 130.838 283.158 130.671C283.354 130.504 283.582 130.378 283.827 130.302C283.827 130.302 283.97 127.528 288.678 129.404C293.385 131.28 296.686 134.146 298.756 138.762C300.827 143.378 299.569 146.712 296.417 147.33Z" fill="#BA68C8"/>
<path opacity="0.45" d="M296.417 147.33C294.575 149.326 289.461 149.876 287.345 144.47C285.354 139.414 283.215 134.626 282.603 132.767C282.516 132.525 282.478 132.268 282.493 132.011C282.508 131.754 282.574 131.503 282.688 131.273C282.803 131.043 282.963 130.838 283.158 130.671C283.354 130.504 283.582 130.378 283.827 130.302C283.827 130.302 283.97 127.528 288.678 129.404C293.385 131.28 296.686 134.146 298.756 138.762C300.827 143.378 299.569 146.712 296.417 147.33Z" fill="white"/>
<path d="M298.453 154.44C298.373 153.497 298.237 152.559 298.047 151.631C297.662 149.788 297.14 147.975 296.486 146.209C295.162 142.608 293.326 139.218 291.035 136.142C289.763 134.388 288.326 132.76 286.745 131.28C286.699 131.234 286.659 131.343 286.693 131.377C289.336 134.153 291.595 137.272 293.408 140.649C295.153 143.973 296.458 147.508 297.292 151.168C297.521 152.192 297.744 153.222 297.927 154.251C298.11 155.281 298.23 156.362 298.408 157.414C298.408 157.517 298.585 157.586 298.596 157.414C298.625 156.421 298.577 155.426 298.453 154.44Z" fill="#BA68C8"/>
<path opacity="0.3" d="M298.453 154.44C298.373 153.497 298.237 152.559 298.047 151.631C297.662 149.788 297.14 147.975 296.486 146.209C295.162 142.608 293.326 139.218 291.035 136.142C289.763 134.388 288.326 132.76 286.745 131.28C286.699 131.234 286.659 131.343 286.693 131.377C289.336 134.153 291.595 137.272 293.408 140.649C295.153 143.973 296.458 147.508 297.292 151.168C297.521 152.192 297.744 153.222 297.927 154.251C298.11 155.281 298.23 156.362 298.408 157.414C298.408 157.517 298.585 157.586 298.596 157.414C298.625 156.421 298.577 155.426 298.453 154.44Z" fill="black"/>
<path d="M300.026 145.934C295.799 147.244 292.659 143.944 293.734 138.767C294.81 133.591 300.261 127.853 302.314 129.398C303.595 128.111 306.421 128.574 307.754 132.773C309.087 136.971 307.88 147.77 300.026 145.934Z" fill="#BA68C8"/>
<path opacity="0.25" d="M300.026 145.934C295.799 147.244 292.659 143.944 293.734 138.767C294.81 133.591 300.261 127.853 302.314 129.398C303.595 128.111 306.421 128.574 307.754 132.773C309.087 136.971 307.88 147.77 300.026 145.934Z" fill="white"/>
<path d="M302.509 132.544C301.306 135.561 300.366 138.677 299.7 141.856C298.978 145.065 298.432 148.311 298.064 151.58C297.385 157.915 297.102 164.286 297.218 170.656C297.218 172.418 297.258 174.18 297.286 175.936C297.315 177.692 297.286 179.579 297.452 181.387C297.509 182.073 298.493 181.89 298.505 181.261C298.567 178.092 298.396 174.906 298.362 171.737C298.327 168.568 298.362 165.445 298.419 162.339C298.532 155.955 299.106 149.588 300.135 143.286C300.438 141.536 300.775 139.785 301.182 138.052C301.611 136.227 302.137 134.431 302.617 132.624C302.629 132.538 302.549 132.447 302.509 132.544Z" fill="#BA68C8"/>
<path opacity="0.3" d="M302.509 132.544C301.306 135.561 300.366 138.677 299.7 141.856C298.978 145.065 298.432 148.311 298.064 151.58C297.385 157.915 297.102 164.286 297.218 170.656C297.218 172.418 297.258 174.18 297.286 175.936C297.315 177.692 297.286 179.579 297.452 181.387C297.509 182.073 298.493 181.89 298.505 181.261C298.567 178.092 298.396 174.906 298.362 171.737C298.327 168.568 298.362 165.445 298.419 162.339C298.532 155.955 299.106 149.588 300.135 143.286C300.438 141.536 300.775 139.785 301.182 138.052C301.611 136.227 302.137 134.431 302.617 132.624C302.629 132.538 302.549 132.447 302.509 132.544Z" fill="black"/>
<path d="M293.151 161.104C291.303 163.198 287.07 163.014 284.233 159.279C281.396 155.544 279.691 141.547 283.661 142.417C284.508 140.546 295.542 145.042 296.96 154.194C298.013 160.852 293.151 161.104 293.151 161.104Z" fill="#BA68C8"/>
<path opacity="0.25" d="M293.151 161.104C291.303 163.198 287.07 163.014 284.233 159.279C281.396 155.544 279.691 141.547 283.661 142.417C284.508 140.546 295.542 145.042 296.96 154.194C298.013 160.852 293.151 161.104 293.151 161.104Z" fill="white"/>
<path d="M296.451 167.734C296.315 166.87 296.124 166.016 295.879 165.177C295.416 163.461 294.867 161.745 294.238 160.103C292.933 156.723 291.289 153.484 289.33 150.436C288.272 148.714 287.104 147.061 285.835 145.489C285.795 145.448 285.766 145.546 285.783 145.574C286.767 147.01 287.768 148.434 288.643 149.933C289.519 151.432 290.359 153.108 291.149 154.743C292.614 157.9 293.83 161.167 294.787 164.513C295.056 165.463 295.279 166.424 295.559 167.373C295.839 168.323 296.217 169.318 296.468 170.313C296.503 170.456 296.686 170.514 296.669 170.313C296.594 169.45 296.566 168.592 296.451 167.734Z" fill="#BA68C8"/>
<path opacity="0.3" d="M296.451 167.734C296.315 166.87 296.124 166.016 295.879 165.177C295.416 163.461 294.867 161.745 294.238 160.103C292.933 156.723 291.289 153.484 289.33 150.436C288.272 148.714 287.104 147.061 285.835 145.489C285.795 145.448 285.766 145.546 285.783 145.574C286.767 147.01 287.768 148.434 288.643 149.933C289.519 151.432 290.359 153.108 291.149 154.743C292.614 157.9 293.83 161.167 294.787 164.513C295.056 165.463 295.279 166.424 295.559 167.373C295.839 168.323 296.217 169.318 296.468 170.313C296.503 170.456 296.686 170.514 296.669 170.313C296.594 169.45 296.566 168.592 296.451 167.734Z" fill="black"/>
<path d="M299.906 159.016C297.493 158.444 297.372 155.584 300.393 152.003C303.413 148.423 311.02 146.89 311.381 148.388C313.097 148.388 313.097 153.685 309.327 158.553C305.558 163.421 300.112 162.305 299.906 159.016Z" fill="#BA68C8"/>
<path opacity="0.25" d="M299.906 159.016C297.493 158.444 297.372 155.584 300.393 152.003C303.413 148.423 311.02 146.89 311.381 148.388C313.097 148.388 313.097 153.685 309.327 158.553C305.558 163.421 300.112 162.305 299.906 159.016Z" fill="white"/>
<path d="M304.642 153.868C301.445 156.093 299.004 159.243 297.647 162.894C297.567 163.1 297.927 163.403 298.013 163.174C299.384 159.563 301.673 156.371 304.654 153.914C304.654 153.914 304.688 153.834 304.642 153.868Z" fill="#BA68C8"/>
<path opacity="0.3" d="M304.642 153.868C301.445 156.093 299.004 159.243 297.647 162.894C297.567 163.1 297.927 163.403 298.013 163.174C299.384 159.563 301.673 156.371 304.654 153.914C304.654 153.914 304.688 153.834 304.642 153.868Z" fill="black"/>
<path d="M302.669 176.708C299.323 178.063 300.753 182.045 304.019 185.07C306.833 187.532 310.468 188.849 314.206 188.76C316.448 188.6 317.026 188.291 317.026 188.291C317.026 188.291 317.386 184.859 317.026 182.754C316.666 180.73 315.731 178.853 314.332 177.346C312.933 175.84 311.13 174.768 309.138 174.26C303.916 172.83 302.669 174.717 302.669 176.708Z" fill="#BA68C8"/>
<path opacity="0.45" d="M302.669 176.708C299.323 178.063 300.753 182.045 304.019 185.07C306.833 187.532 310.468 188.849 314.206 188.76C316.448 188.6 317.026 188.291 317.026 188.291C317.026 188.291 317.386 184.859 317.026 182.754C316.666 180.73 315.731 178.853 314.332 177.346C312.933 175.84 311.13 174.768 309.138 174.26C303.916 172.83 302.669 174.717 302.669 176.708Z" fill="white"/>
<path d="M311.93 182.588C310.425 180.795 308.694 179.203 306.782 177.852C304.877 176.6 302.337 175.53 300.055 176.308C299.168 176.611 297.767 177.492 297.956 178.596C297.956 178.705 298.167 178.973 298.299 178.825C298.654 178.319 299.056 177.847 299.5 177.418C300.028 177.031 300.651 176.796 301.302 176.737C302.937 176.625 304.568 176.997 305.992 177.807C308.252 179.002 310.082 180.867 311.884 182.651C311.924 182.663 311.947 182.611 311.93 182.588Z" fill="#BA68C8"/>
<path opacity="0.3" d="M311.93 182.588C310.425 180.795 308.694 179.203 306.782 177.852C304.877 176.6 302.337 175.53 300.055 176.308C299.168 176.611 297.767 177.492 297.956 178.596C297.956 178.705 298.167 178.973 298.299 178.825C298.654 178.319 299.056 177.847 299.5 177.418C300.028 177.031 300.651 176.796 301.302 176.737C302.937 176.625 304.568 176.997 305.992 177.807C308.252 179.002 310.082 180.867 311.884 182.651C311.924 182.663 311.947 182.611 311.93 182.588Z" fill="black"/>
<path d="M289.925 159.588C290.245 158.067 288.043 154.44 281.185 153.719C274.326 152.999 269.173 155.927 268.149 157.26C267.125 158.593 266.587 159.988 267.834 160.337C269.081 160.686 273.365 161.104 276.18 162.397C278.994 163.689 284.714 167.545 288.615 166.401C292.516 165.257 291.87 161.087 289.925 159.588Z" fill="#BA68C8"/>
<path opacity="0.45" d="M289.925 159.588C290.245 158.067 288.043 154.44 281.185 153.719C274.326 152.999 269.173 155.927 268.149 157.26C267.125 158.593 266.587 159.988 267.834 160.337C269.081 160.686 273.365 161.104 276.18 162.397C278.994 163.689 284.714 167.545 288.615 166.401C292.516 165.257 291.87 161.087 289.925 159.588Z" fill="white"/>
<path d="M295.141 164.885C292.247 158.908 284.794 157.083 278.696 157.117C276.691 157.119 274.695 157.373 272.753 157.872C272.725 157.872 272.719 157.947 272.753 157.941C276.037 157.385 279.389 157.353 282.683 157.844C285.921 158.364 289.095 159.371 291.761 161.339C293.073 162.326 294.176 163.564 295.004 164.982C295.09 165.142 295.198 165.005 295.141 164.885Z" fill="#BA68C8"/>
<path opacity="0.3" d="M295.141 164.885C292.247 158.908 284.794 157.083 278.696 157.117C276.691 157.119 274.695 157.373 272.753 157.872C272.725 157.872 272.719 157.947 272.753 157.941C276.037 157.385 279.389 157.353 282.683 157.844C285.921 158.364 289.095 159.371 291.761 161.339C293.073 162.326 294.176 163.564 295.004 164.982C295.09 165.142 295.198 165.005 295.141 164.885Z" fill="black"/>
<path d="M305.907 151.58C305.821 153.977 309.196 155.372 312.468 153.296C315.739 151.22 319.16 149.201 322.192 148.417C325.223 147.633 326.653 145.168 325.698 143.973C324.743 142.777 323.221 139.763 315.265 140.746C307.308 141.73 304.482 145.322 303.39 147.851C302.297 150.379 304.688 152.261 305.907 151.58Z" fill="#BA68C8"/>
<path opacity="0.45" d="M305.907 151.58C305.821 153.977 309.196 155.372 312.468 153.296C315.739 151.22 319.16 149.201 322.192 148.417C325.223 147.633 326.653 145.168 325.698 143.973C324.743 142.777 323.221 139.763 315.265 140.746C307.308 141.73 304.482 145.322 303.39 147.851C302.297 150.379 304.688 152.261 305.907 151.58Z" fill="white"/>
<path d="M318.862 143.95C317.706 143.837 316.538 143.96 315.43 144.31C314.425 144.566 313.447 144.916 312.507 145.357C310.632 146.226 308.942 147.45 307.531 148.96C307.12 149.387 306.738 149.839 306.387 150.316C306.037 150.735 305.75 151.203 305.535 151.706C305.483 151.866 305.712 152.118 305.855 151.958C306.25 151.506 306.541 150.951 306.913 150.47C307.31 149.956 307.737 149.467 308.195 149.006C309.116 148.079 310.145 147.267 311.26 146.586C312.336 145.925 313.474 145.372 314.658 144.933C315.31 144.699 315.968 144.51 316.643 144.361C317.343 144.146 318.073 144.045 318.805 144.064C318.885 144.041 318.902 143.955 318.862 143.95Z" fill="#BA68C8"/>
<path opacity="0.3" d="M318.862 143.95C317.706 143.837 316.538 143.96 315.43 144.31C314.425 144.566 313.447 144.916 312.507 145.357C310.632 146.226 308.942 147.45 307.531 148.96C307.12 149.387 306.738 149.839 306.387 150.316C306.037 150.735 305.75 151.203 305.535 151.706C305.483 151.866 305.712 152.118 305.855 151.958C306.25 151.506 306.541 150.951 306.913 150.47C307.31 149.956 307.737 149.467 308.195 149.006C309.116 148.079 310.145 147.267 311.26 146.586C312.336 145.925 313.474 145.372 314.658 144.933C315.31 144.699 315.968 144.51 316.643 144.361C317.343 144.146 318.073 144.045 318.805 144.064C318.885 144.041 318.902 143.955 318.862 143.95Z" fill="black"/>
<path d="M300.198 164.519C299.082 163.403 296.056 163.661 294.621 166.955C293.185 170.25 296.194 173.859 296.531 174.878C297.915 174.077 298.991 174.551 301.427 174.077C302.782 173.754 303.985 172.975 304.835 171.871C305.684 170.768 306.129 169.406 306.095 168.014C305.935 164.993 304.688 163.02 300.198 164.519Z" fill="#BA68C8"/>
<path opacity="0.45" d="M300.198 164.519C299.082 163.403 296.056 163.661 294.621 166.955C293.185 170.25 296.194 173.859 296.531 174.878C297.915 174.077 298.991 174.551 301.427 174.077C302.782 173.754 303.985 172.975 304.835 171.871C305.684 170.768 306.129 169.406 306.095 168.014C305.935 164.993 304.688 163.02 300.198 164.519Z" fill="white"/>
<path d="M300.158 164.164C299.549 164.548 299.041 165.071 298.676 165.691C298.282 166.265 297.961 166.885 297.721 167.539C297.2 168.874 297.053 170.325 297.298 171.737C297.298 171.789 297.355 171.737 297.349 171.737C297.24 170.32 297.482 168.898 298.053 167.596C298.323 167.003 298.661 166.442 299.059 165.926C299.27 165.655 299.496 165.395 299.734 165.148C299.97 164.96 300.185 164.747 300.375 164.513C300.455 164.376 300.324 164.101 300.158 164.164Z" fill="#BA68C8"/>
<path opacity="0.3" d="M300.158 164.164C299.549 164.548 299.041 165.071 298.676 165.691C298.282 166.265 297.961 166.885 297.721 167.539C297.2 168.874 297.053 170.325 297.298 171.737C297.298 171.789 297.355 171.737 297.349 171.737C297.24 170.32 297.482 168.898 298.053 167.596C298.323 167.003 298.661 166.442 299.059 165.926C299.27 165.655 299.496 165.395 299.734 165.148C299.97 164.96 300.185 164.747 300.375 164.513C300.455 164.376 300.324 164.101 300.158 164.164Z" fill="black"/>
<path d="M294.964 171.2C294.861 168.74 292.201 166.801 288.42 165.674C286.562 165.091 284.577 165.047 282.694 165.547C280.812 166.048 279.111 167.071 277.787 168.5C275.024 171.503 273.594 174.06 274.715 174.792C275.836 175.524 280.836 177.32 284.096 178.355C287.356 179.391 291.663 179.682 294.964 177.743C298.264 175.804 298.013 172.424 294.964 171.2Z" fill="#BA68C8"/>
<path opacity="0.25" d="M294.964 171.2C294.861 168.74 292.201 166.801 288.42 165.674C286.562 165.091 284.577 165.047 282.694 165.547C280.812 166.048 279.111 167.071 277.787 168.5C275.024 171.503 273.594 174.06 274.715 174.792C275.836 175.524 280.836 177.32 284.096 178.355C287.356 179.391 291.663 179.682 294.964 177.743C298.264 175.804 298.013 172.424 294.964 171.2Z" fill="white"/>
<path d="M295.159 170.919C293.878 170.275 292.478 169.901 291.046 169.821C289.675 169.69 288.295 169.707 286.928 169.873C285.484 170.054 284.059 170.356 282.666 170.776C281.94 170.988 281.213 171.228 280.504 171.491C279.826 171.715 279.164 171.986 278.525 172.304C278.496 172.304 278.485 172.401 278.525 172.389C279.217 172.246 279.898 171.972 280.573 171.766C281.248 171.56 282.037 171.325 282.781 171.137C284.151 170.767 285.546 170.502 286.956 170.342C288.376 170.179 289.809 170.179 291.229 170.342C292.541 170.555 293.834 170.872 295.096 171.291C295.388 171.377 295.307 171.028 295.159 170.919Z" fill="#BA68C8"/>
<path opacity="0.3" d="M295.159 170.919C293.878 170.275 292.478 169.901 291.046 169.821C289.675 169.69 288.295 169.707 286.928 169.873C285.484 170.054 284.059 170.356 282.666 170.776C281.94 170.988 281.213 171.228 280.504 171.491C279.826 171.715 279.164 171.986 278.525 172.304C278.496 172.304 278.485 172.401 278.525 172.389C279.217 172.246 279.898 171.972 280.573 171.766C281.248 171.56 282.037 171.325 282.781 171.137C284.151 170.767 285.546 170.502 286.956 170.342C288.376 170.179 289.809 170.179 291.229 170.342C292.541 170.555 293.834 170.872 295.096 171.291C295.388 171.377 295.307 171.028 295.159 170.919Z" fill="black"/>
<path d="M302.754 167.545C300.049 165.394 300.953 160.24 310.414 159.966C319.874 159.691 326.641 162.157 326.338 165.205C327.865 166.727 327.093 170.994 319.428 172.327C311.763 173.659 300.798 172.996 302.754 167.545Z" fill="#BA68C8"/>
<path opacity="0.25" d="M302.754 167.545C300.049 165.394 300.953 160.24 310.414 159.966C319.874 159.691 326.641 162.157 326.338 165.205C327.865 166.727 327.093 170.994 319.428 172.327C311.763 173.659 300.798 172.996 302.754 167.545Z" fill="white"/>
<path d="M321.888 165.24C319.096 164.777 316.262 164.61 313.434 164.742C310.805 164.728 308.184 165.03 305.626 165.64C304.972 165.822 304.335 166.059 303.721 166.349C303.441 166.487 303.149 166.63 302.892 166.795C302.635 166.961 302.44 167.036 302.36 167.287C302.354 167.327 302.357 167.367 302.368 167.405C302.38 167.443 302.4 167.478 302.427 167.507C302.454 167.536 302.487 167.559 302.524 167.573C302.561 167.588 302.601 167.594 302.64 167.591C303.217 167.367 303.772 167.091 304.299 166.767C304.832 166.543 305.379 166.352 305.935 166.195C307.012 165.891 308.112 165.675 309.224 165.549C311.88 165.218 314.556 165.071 317.232 165.108C318.788 165.108 320.338 165.245 321.888 165.371C321.917 165.348 321.934 165.245 321.888 165.24Z" fill="#BA68C8"/>
<path opacity="0.3" d="M321.888 165.24C319.096 164.777 316.262 164.61 313.434 164.742C310.805 164.728 308.184 165.03 305.626 165.64C304.972 165.822 304.335 166.059 303.721 166.349C303.441 166.487 303.149 166.63 302.892 166.795C302.635 166.961 302.44 167.036 302.36 167.287C302.354 167.327 302.357 167.367 302.368 167.405C302.38 167.443 302.4 167.478 302.427 167.507C302.454 167.536 302.487 167.559 302.524 167.573C302.561 167.588 302.601 167.594 302.64 167.591C303.217 167.367 303.772 167.091 304.299 166.767C304.832 166.543 305.379 166.352 305.935 166.195C307.012 165.891 308.112 165.675 309.224 165.549C311.88 165.218 314.556 165.071 317.232 165.108C318.788 165.108 320.338 165.245 321.888 165.371C321.917 165.348 321.934 165.245 321.888 165.24Z" fill="black"/>
<path d="M119.703 124.238C122.215 125.033 121.917 128.963 121.208 130.954C120.499 132.944 117.89 137.818 116.861 140.289C115.831 142.76 114.372 149.601 114.372 149.601C114.372 149.601 114.092 152.901 110.466 150.447C106.839 147.994 105.775 143.927 108.469 138.498C111.164 133.07 110.797 129.707 111.953 127.104C113.108 124.502 116.455 123.764 119.703 124.238Z" fill="#455A64"/>
<path d="M105.97 148.096C105.97 148.193 105.97 148.291 105.97 148.388C105.915 148.981 105.961 149.578 106.107 150.155C106.679 152.032 109.081 152.26 110.546 151.448C111.574 150.859 112.533 150.157 113.406 149.355C115.173 147.742 117.062 146.27 119.057 144.95C123.29 142.256 125.092 142.422 126.922 142.662C128.432 142.88 129.405 144.058 130.354 145.156C131.635 146.666 132.882 148.211 134.118 149.732C136.944 153.267 139.706 156.853 142.481 160.434L144.071 162.476C148.647 168.356 152.594 170.742 155.019 171.279C156.661 171.665 158.376 171.604 159.986 171.101C161.596 170.598 163.041 169.672 164.171 168.419C167.031 165.113 167.963 163.271 171.349 156.802C173.637 152.432 174.976 149.44 176.097 147.152L181.039 165.079C174.364 167.367 172.596 171.943 166.648 180.477C163.833 184.527 161 188.565 158.148 192.592C155.831 195.858 153.795 199.519 149.705 200.743C148.504 201.109 147.194 201.264 146.17 201.99C144.5 203.168 144.088 205.508 144.397 207.533C144.654 209.203 145.421 210.764 145.604 212.435C145.716 214.204 145.508 215.979 144.992 217.674C144.362 220.151 143.636 222.759 144.38 225.202C145.524 228.885 149.253 230.275 152.445 231.728C152.965 232.003 153.525 232.196 154.104 232.3C154.393 232.347 154.688 232.328 154.969 232.246C155.25 232.164 155.509 232.02 155.728 231.826C156.426 231.133 156.3 229.984 156.066 229.023C155.602 226.872 155.717 224.733 155.591 222.536C155.465 220.34 156.06 216.29 156.477 214.082C157.244 210.009 159.297 208.7 162.432 205.92C166.184 202.585 167.345 201.693 170.205 199.365C178.03 192.97 185.834 186.552 193.617 180.111C194.567 179.322 195.848 178.269 197.169 176.954C200.246 173.855 202.066 169.726 202.277 165.365C202.768 155.671 202.468 145.953 201.379 136.307C200.71 130.616 199.846 126.011 199.663 122.436L166.527 107.736C162.3 111.368 156.924 116.922 155.694 129.695C154.481 134.271 153.045 141.621 151.347 148.039C146.342 142.594 141.949 140.128 138.7 137.783C137.018 136.565 135.188 135.112 133.986 133.39C132.882 131.806 132.436 129.741 130.886 128.482C129.428 127.293 127.3 127.207 125.526 127.83C123.753 128.454 122.255 129.683 120.865 130.948C119.54 132.287 118.075 133.48 116.495 134.505C115.602 135.026 114.641 135.409 113.709 135.861C111.744 136.729 110.01 138.045 108.647 139.705C106.776 142.062 106.13 145.122 105.97 148.096Z" fill="#FFA8A7"/>
<path d="M151.295 200.074C149.642 200.754 149.659 206 150.031 208.82C150.403 211.64 149.247 219.768 150.729 222.079C152.21 224.389 155.23 224.939 155.568 223.434C155.568 223.434 156.186 227.839 156.809 229.612C157.433 231.385 156.094 233.873 153.16 233.398C150.225 232.924 144.374 229.532 143.584 225.505C142.795 221.478 144.425 217.737 144.837 214.351C145.249 210.965 144.019 209.38 143.75 206.755C143.481 204.129 144.322 201.366 146.29 200.737C147.927 200.321 149.606 200.098 151.295 200.074Z" fill="#37474F"/>
<path d="M119.703 124.238C116.58 124.598 116.071 129.197 115.419 131.96C114.767 134.723 110.78 141.919 111.352 144.607C111.924 147.295 114.264 148.651 115.408 147.604C115.408 147.604 114.407 151.929 114.355 153.805C114.304 155.681 112.176 157.534 109.602 156.053C107.028 154.571 104.031 149.132 104.454 145.053C104.877 140.975 107.005 138.309 108.589 135.289C110.174 132.269 109.59 130.353 110.271 127.802C110.952 125.251 112.731 122.968 114.784 123.077C116.464 123.269 118.115 123.659 119.703 124.238Z" fill="#37474F"/>
<path d="M166.836 106.741C161.82 108.977 157.404 115.161 156.186 121.247C154.967 127.333 155.185 128.906 154.001 133.419C152.817 137.932 151.141 147.015 151.141 147.015C151.141 147.015 147.96 143 144.528 140.592C141.096 138.184 136.486 135.209 136.486 135.209C136.486 135.209 134.736 134.792 131.91 138.767C129.405 142.313 129.908 145.059 129.908 145.059C129.908 145.059 139.666 157.803 142.355 161.613C145.043 165.422 150.557 172.481 157.301 172.046C163.49 171.657 165.973 167.979 169.954 160.148C173.935 152.318 175.988 148.091 175.988 148.091L180.564 164.736C180.564 164.736 175.668 167.195 172.797 170.953C169.925 174.711 156.975 193.57 156.975 193.57C156.975 193.57 156.317 197.14 159.749 200.474C163.181 203.809 165.269 203.906 165.269 203.906C165.269 203.906 184.963 187.999 191.238 183.12C197.513 178.241 201.454 174.282 202.323 169.684C203.193 165.085 203.147 158.209 202.964 152.403C202.781 146.598 200.636 121.453 200.636 121.453L166.836 106.741Z" fill="#455A64"/>
<path d="M170.033 146.466C168.962 150.111 167.674 153.688 166.178 157.18C164.674 160.646 162.861 164.044 160.327 166.824C159.076 168.233 157.592 169.417 155.939 170.324C155.065 170.79 154.143 171.159 153.188 171.423L153.508 171.531C154.398 171.318 155.265 171.015 156.094 170.627C157.823 169.76 159.389 168.599 160.721 167.195C162.051 165.798 163.214 164.25 164.188 162.585C165.171 160.925 166.049 159.206 166.819 157.437C168.305 153.903 169.551 150.272 170.548 146.569C171.572 142.891 172.436 139.173 173.202 135.438L171.641 140.941C171.134 142.809 170.598 144.651 170.033 146.466Z" fill="#37474F"/>
<path d="M149.465 145.093C149.047 148.085 148.481 154.897 151.038 159.468C150.368 157.225 150.403 151.111 151.095 147.015C151.095 147.004 150.466 146.203 149.465 145.093Z" fill="#37474F"/>
<path d="M138.528 136.576L136.062 134.923C134.962 135.098 133.919 135.53 133.018 136.186C132.118 136.841 131.385 137.7 130.88 138.693C129.886 140.573 129.371 142.669 129.382 144.796L131.492 147.084C131.504 144.577 132.154 142.115 133.38 139.928C133.885 138.98 134.622 138.175 135.522 137.589C136.422 137.003 137.456 136.654 138.528 136.576Z" fill="#37474F"/>
<path d="M180.335 140.586C182.394 149.915 185.483 165.148 185.071 166.286C184.871 166.704 184.242 167.104 183.287 167.716C179.807 169.884 176.735 172.644 174.209 175.873C170.731 180.14 160.979 193.811 157.941 198.072C158.062 198.289 158.193 198.507 158.336 198.73C161.133 194.789 171.212 180.655 174.752 176.313C177.232 173.143 180.248 170.433 183.664 168.305C184.717 167.63 185.415 167.161 185.701 166.589C186.416 165.102 181.925 144.539 181.016 140.432L180.335 140.586Z" fill="#37474F"/>
<path d="M158.634 191.139C158.634 191.139 159.069 195.715 161.86 198.163C163.704 199.689 165.819 200.854 168.095 201.595L165.023 204.232C162.686 203.603 160.574 202.326 158.931 200.549C157.425 198.772 156.435 196.615 156.071 194.314L158.634 191.139Z" fill="#37474F"/>
<path d="M197.593 147.627C198.227 151.984 198.544 156.381 198.542 160.783C198.539 162.991 198.396 165.195 198.113 167.384C197.867 169.604 197.303 171.777 196.437 173.836C195.936 174.843 195.309 175.783 194.572 176.634C194.229 177.068 193.863 177.486 193.497 177.898C193.131 178.31 192.759 178.721 192.382 179.122C190.872 180.729 189.327 182.296 187.72 183.801C184.536 186.828 181.258 189.753 177.887 192.575L182.646 187.999C184.233 186.474 185.8 184.939 187.348 183.395C188.887 181.839 190.437 180.289 191.924 178.67C192.296 178.269 192.662 177.863 193.017 177.452C193.371 177.04 193.732 176.628 194.063 176.199C194.757 175.382 195.347 174.483 195.819 173.522C196.67 171.531 197.235 169.43 197.495 167.281C197.784 165.117 197.957 162.938 198.016 160.755C198.09 158.57 198.067 156.373 197.976 154.183C197.884 151.992 197.753 149.818 197.593 147.627Z" fill="#37474F"/>
<path d="M147.629 152.152C144.505 148.8 136.669 141.284 132.825 137.6C132.682 137.772 132.533 137.949 132.385 138.172C136.234 141.85 144.019 149.321 147.119 152.65C149.213 154.898 150.98 156.007 152.382 155.967C152.526 155.962 152.67 155.945 152.811 155.916C153.275 155.787 153.696 155.536 154.031 155.189C154.365 154.842 154.599 154.411 154.71 153.942C155.454 151.734 158.102 141.696 160.27 129.953C160.47 128.843 160.67 127.825 160.842 126.87C161.268 126.904 161.696 126.915 162.123 126.904C164.647 126.857 167.062 125.865 168.89 124.124C171.47 121.693 172.991 117.723 172.894 113.765H172.19C172.31 117.529 170.869 121.293 168.432 123.592C167.448 124.508 166.282 125.207 165.009 125.643C163.737 126.078 162.387 126.241 161.048 126.12C162.924 117.575 165 114.92 171.235 109.08L170.76 108.571C163.656 115.218 161.774 117.969 159.601 129.77C157.427 141.57 154.807 151.477 154.069 153.668C153.988 154.017 153.818 154.34 153.575 154.604C153.333 154.869 153.026 155.066 152.685 155.178C151.838 155.372 150.288 155.012 147.629 152.152Z" fill="#37474F"/>
<path d="M175.988 148.091L181.451 135.684C181.451 135.684 189.459 135.632 193.143 131.228C189.585 138.464 182.778 138.092 182.778 138.092L178.528 148.256L180.564 164.736L175.988 148.091Z" fill="#37474F"/>
<path d="M206.384 77.6432C208.872 78.3353 211.092 78.976 213.34 79.7939C220.45 82.3679 234.023 81.3784 234.023 81.3784C234.023 81.3784 251.435 72.7698 253.054 72.0719C254.672 71.3741 257.189 69.1776 259.443 67.3701C261.697 65.5626 263.447 64.0411 264.494 63.7436C265.54 63.4462 266.782 63.4233 269.642 63.6292C271.163 63.7379 273.239 63.858 275.07 64.1326C276.461 64.3761 277.836 64.7027 279.188 65.1107C280.035 65.3452 279.652 66.9068 277.141 66.7352C275.144 66.5979 272.524 66.7352 272.524 66.7352C272.524 66.7352 274.172 67.7362 273.411 69.0975C272.65 70.4589 273.806 70.1271 273.182 71.1167C272.559 72.1063 273.548 73.0615 272.61 73.8223C271.672 74.583 272.645 75.2637 271.638 76.0302C270.631 76.7967 269.562 76.5393 268.297 76.1045C267.033 75.6698 266.513 75.1264 265.512 76.0302C264.511 76.9339 263.413 78.3182 260.936 78.587C258.459 78.8559 256.137 81.1095 251.269 84.8104C245.824 88.9517 242.746 91.2511 239.697 93.2245C237.741 94.4886 236.757 94.5687 233.405 94.6373L203.873 95.2093L206.384 77.6432Z" fill="#FFA8A7"/>
<path d="M259.826 74.6287C260.339 73.9887 260.78 73.2943 261.142 72.5581C261.497 71.7804 262.004 71.082 262.635 70.5046C264.042 69.4006 265.804 69.2004 267.211 68.5369C267.546 68.4052 267.851 68.2056 268.106 67.9507C268.361 67.6958 268.56 67.391 268.692 67.0554C268.733 66.927 268.733 66.7892 268.692 66.6607C268.635 66.5635 268.624 66.5292 268.435 66.4777C268.058 66.4061 267.674 66.3773 267.291 66.3919L264.825 66.4834C264.409 66.4892 263.992 66.4663 263.578 66.4148C263.368 66.3902 263.161 66.3422 262.961 66.2718C262.778 66.2031 262.532 66.0716 262.537 65.8485C262.572 66.0601 262.806 66.1288 262.989 66.1688C263.187 66.208 263.388 66.2271 263.59 66.226C263.996 66.2233 264.401 66.1946 264.803 66.1402C265.621 66.0487 266.427 65.9286 267.262 65.8485C267.698 65.7803 268.142 65.7803 268.578 65.8485C268.727 65.8738 268.868 65.9341 268.989 66.0246C269.111 66.1151 269.209 66.2332 269.276 66.369C269.384 66.6276 269.408 66.9139 269.344 67.187C269.2 67.6278 268.961 68.032 268.645 68.3717C268.329 68.7114 267.943 68.9785 267.514 69.1547C265.929 69.8697 264.265 70.0355 262.972 70.9107C262.35 71.4051 261.831 72.0173 261.445 72.7125C260.994 73.4214 260.45 74.066 259.826 74.6287Z" fill="#F28F8F"/>
<path d="M269.413 69.2578L269.602 69.0805L270.362 68.3827C270.21 68.365 270.055 68.3971 269.922 68.4742C269.227 68.6904 268.624 69.131 268.206 69.7269C268.119 69.8963 268.084 70.0877 268.105 70.277C268.127 70.4663 268.203 70.645 268.326 70.7908C268.429 70.9221 268.55 71.0377 268.686 71.134C268.77 71.1845 268.856 71.2303 268.944 71.2713C268.73 71.4553 268.569 71.6919 268.475 71.9577C268.371 72.3341 268.385 72.7334 268.515 73.1017C268.585 73.2965 268.688 73.4783 268.818 73.6393C268.859 73.6897 268.903 73.7375 268.95 73.7823C268.898 73.8508 268.856 73.9258 268.824 74.0054C268.741 74.1776 268.697 74.3663 268.697 74.5574C268.697 74.7486 268.741 74.9372 268.824 75.1094C268.896 75.2655 268.988 75.4116 269.098 75.5441C269.138 75.5841 269.516 75.75 269.504 75.6528C269.476 75.524 269.428 75.4004 269.361 75.2867C269.267 75.0409 269.258 74.7709 269.335 74.5192C269.411 74.2675 269.57 74.0485 269.785 73.8967C269.814 73.8815 269.838 73.8575 269.853 73.8281C269.853 73.7595 269.819 73.6908 269.762 73.6451C269.555 73.495 269.39 73.2939 269.284 73.0614C269.178 72.8288 269.133 72.5727 269.155 72.318C269.217 72.0678 269.35 71.8411 269.539 71.6659C269.619 71.5801 269.773 71.4314 269.75 71.2999C269.727 71.1683 269.539 71.1111 269.43 71.0425C269.263 70.9635 269.115 70.8505 268.995 70.7107C268.912 70.5704 268.868 70.4104 268.868 70.2474C268.868 70.0844 268.912 69.9243 268.995 69.7841C269.106 69.588 269.247 69.4105 269.413 69.2578Z" fill="#F28F8F"/>
<path d="M214.192 87.3958C212.803 84.1652 210.999 81.1291 208.826 78.3639L206.384 77.6718C207.356 84.0381 196.242 81.161 192.01 75.2408C190.231 75.5497 188.16 74.6688 186.004 74.5658C183.847 74.4629 182.452 74.6516 180.604 75.8185C177.258 77.9406 176.966 82.0419 176.84 85.6283C176.772 87.7962 176.743 89.9355 176.56 92.0976C176.354 94.5801 176.091 97.9091 174.541 99.7395C172.825 101.776 167.442 105.683 164.771 106.775C166.418 119.582 190.151 129.243 201.516 123.969C202.711 120.611 203.453 117.108 203.724 113.553C205.187 110.907 206.392 108.125 207.322 105.248C210.222 104.413 213.923 103.149 215.507 98.9159C216.6 96.0959 216.6 92.9957 214.192 87.3958Z" fill="#BA68C8"/>
<path d="M216.771 64.2413C216.525 64.9448 216.199 65.6427 215.976 66.3405C215.753 67.0384 215.679 67.8792 215.473 68.6285C215.105 70.1265 214.394 71.5186 213.397 72.6954C211.855 74.306 209.739 75.2416 207.511 75.298C205.288 75.3381 203.094 74.7853 201.156 73.6964C199.709 72.9185 198.484 72.2035 196.797 72.2321C194.991 72.2802 193.191 72.0131 191.477 71.4428C190.53 71.1621 189.653 70.6846 188.903 70.0414C188.535 69.7222 188.241 69.3254 188.043 68.8794C187.845 68.4335 187.748 67.9494 187.759 67.4616C187.483 67.7998 187.288 68.1968 187.189 68.6222C187.09 69.0476 187.089 69.49 187.187 69.9155C185.776 69.2678 184.673 68.0965 184.11 66.6494C183.569 65.2207 183.489 63.6586 183.881 62.1821C184.202 60.8951 184.997 59.5623 186.318 59.2763C185.222 58.8864 184.024 58.9006 182.938 59.3164C182.011 59.6367 180.518 60.7235 180.581 61.6902C180.422 60.7551 180.537 59.7939 180.912 58.9229C181.288 58.0519 181.908 57.3084 182.697 56.7824C183.916 55.993 185.414 55.77 186.77 55.2494C188.549 54.563 189.258 53.4934 189.659 51.7488C190.265 49.1119 191.632 46.4464 194.566 46.1718C194.778 43.8838 196.854 41.9047 198.931 41.1668C203.57 39.5137 209.564 39.977 214.054 41.9276C219.374 44.2156 221.176 47.7048 222.383 48.8659C223.721 50.1487 225.494 50.8782 227.348 50.908C226.226 51.2924 225.031 51.416 223.855 51.2693C222.678 51.1226 221.551 50.7095 220.558 50.0614C221.364 50.5105 221.975 51.2419 222.274 52.1149C222.674 53.2153 222.72 54.4131 222.406 55.5411C222.092 56.669 221.434 57.6709 220.524 58.4069C220.692 57.559 220.69 56.686 220.516 55.8393C220.342 54.9925 220 54.189 219.511 53.4762C219.967 54.5542 220.06 55.7512 219.775 56.8864C219.49 58.0216 218.843 59.0332 217.932 59.7682C217.632 61.2804 217.244 62.7739 216.771 64.2413Z" fill="#37474F"/>
<path d="M217.933 56.7138C217.933 55.7357 217.818 54.7805 217.727 53.8081C216.686 48.58 214.054 48.3455 212.07 49.4552C211.463 49.8197 210.772 50.0189 210.064 50.0329C209.356 50.047 208.658 49.8754 208.037 49.5352C206.641 48.7058 205.389 48.6887 203.827 49.0719C201.539 49.6439 199.852 51.4 199.371 54.1742C199.371 54.1742 198.925 57.2229 198.799 57.8693C198.76 58.2336 198.646 58.586 198.466 58.905C198.286 59.224 198.042 59.5029 197.75 59.7246C197.459 59.9462 197.125 60.106 196.769 60.1942C196.413 60.2824 196.043 60.2971 195.682 60.2374C194.578 57.7892 191.375 57.2458 189.659 58.8817C187.943 60.5176 188.555 63.698 190.631 65.637C193.154 67.9822 194.727 66.5465 194.727 66.5465L194.092 72.4095C194.095 72.4686 194.095 72.5278 194.092 72.5868C193.914 74.1827 193.857 75.2867 192.01 75.2123C192.627 78.1352 195.173 84.2842 204.102 84.2442C210.228 84.2156 206.39 77.6433 206.39 77.6433C206.39 77.6433 205.789 77.4774 205.984 75.9273L206.258 73.5249C208.655 74.2285 210.445 74.1713 211.892 73.7194C214.306 72.9586 216.611 70.9738 217.572 62.5139C217.818 60.5904 217.938 58.653 217.933 56.7138Z" fill="#FFA8A7"/>
<path d="M216.479 56.4108L214.312 54.9121C214.401 54.7658 214.52 54.6394 214.661 54.5405C214.801 54.4416 214.96 54.3724 215.128 54.3371C215.296 54.3018 215.47 54.3011 215.638 54.335C215.807 54.369 215.966 54.4369 216.108 54.5346C216.399 54.7394 216.6 55.0487 216.67 55.3981C216.739 55.7476 216.671 56.1103 216.479 56.4108Z" fill="#263238"/>
<path d="M204.902 54.4659L202.837 56.1076C202.725 55.9779 202.64 55.8269 202.587 55.6635C202.535 55.5002 202.516 55.328 202.531 55.1571C202.547 54.9862 202.596 54.8202 202.678 54.669C202.759 54.5178 202.87 54.3845 203.003 54.2772C203.284 54.0603 203.637 53.959 203.99 53.9941C204.343 54.0292 204.67 54.198 204.902 54.4659Z" fill="#263238"/>
<path d="M209.375 57.1201L209.907 64.4303L213.871 62.9316L209.375 57.1201Z" fill="#F28F8F"/>
<path d="M206.252 73.5361C199.423 71.5341 198.078 69.4921 197.272 67.2441C197.272 67.2441 197.112 70.3501 199.485 72.129C201.968 73.988 206.063 75.1892 206.063 75.1892L206.252 73.5361Z" fill="#F28F8F"/>
<path d="M206.784 59.019C206.792 59.2589 206.728 59.4957 206.601 59.6995C206.475 59.9032 206.29 60.0648 206.071 60.1636C205.853 60.2624 205.609 60.2941 205.373 60.2547C205.136 60.2152 204.916 60.1064 204.741 59.9419C204.566 59.7775 204.444 59.5649 204.39 59.331C204.336 59.0971 204.353 58.8524 204.438 58.628C204.524 58.4036 204.673 58.2096 204.869 58.0704C205.065 57.9313 205.297 57.8533 205.537 57.8464C205.696 57.841 205.855 57.8672 206.003 57.9233C206.152 57.9794 206.288 58.0644 206.404 58.1734C206.52 58.2824 206.613 58.4132 206.679 58.5583C206.744 58.7034 206.78 58.86 206.784 59.019Z" fill="#263238"/>
<path d="M215.621 59.2875C215.629 59.5272 215.566 59.7638 215.439 59.9674C215.312 60.171 215.128 60.3325 214.91 60.4314C214.691 60.5304 214.449 60.5624 214.212 60.5234C213.975 60.4843 213.756 60.3761 213.581 60.2122C213.406 60.0483 213.283 59.8362 213.229 59.6028C213.174 59.3693 213.19 59.1248 213.274 58.9004C213.359 58.6759 213.508 58.4815 213.702 58.3417C213.897 58.2019 214.129 58.123 214.369 58.1149C214.528 58.1096 214.687 58.1357 214.836 58.1917C214.985 58.2478 215.122 58.3327 215.238 58.4416C215.354 58.5505 215.448 58.6813 215.514 58.8264C215.58 58.9716 215.616 59.1283 215.621 59.2875Z" fill="#263238"/>
<path d="M208.655 67.193C208.386 67.8908 207.957 67.4218 207.299 67.193C206.641 66.9642 206.012 67.0042 206.281 66.3064C206.33 66.1368 206.414 65.9792 206.527 65.8436C206.64 65.708 206.78 65.5974 206.938 65.5188C207.096 65.4401 207.269 65.3952 207.445 65.3867C207.622 65.3783 207.798 65.4065 207.963 65.4697C208.127 65.5329 208.277 65.6296 208.403 65.7537C208.529 65.8778 208.627 66.0267 208.692 66.1908C208.757 66.3549 208.787 66.5308 208.781 66.7072C208.775 66.8837 208.732 67.0569 208.655 67.2158V67.193Z" fill="#B16668"/>
<path d="M191.758 109.824L191.186 91.337C191.157 84.7762 189.727 75.3839 183.681 74.6289C174.529 75.8301 176.468 88.0823 177 96.2677C177.532 104.453 177.572 108.177 177.944 111.586C178.356 115.384 178.516 116.597 182.886 119.594C187.376 122.688 201.15 131.503 202.637 133.15C204.125 134.798 206.035 137.097 208.037 139.391C208.781 140.243 209.845 141.107 211.046 140.838C211.362 140.732 211.691 140.671 212.024 140.655C212.483 140.774 212.911 140.989 213.282 141.284C213.632 141.472 214.021 141.576 214.418 141.589C214.814 141.602 215.209 141.523 215.57 141.358C216.245 141.05 216.857 139.974 217.601 140.014C217.81 140.039 218.017 140.081 218.219 140.14C218.945 140.3 219.443 140.649 220.181 140.586C220.998 140.481 221.78 140.192 222.469 139.74C223.551 138.96 224.592 138.124 225.586 137.234C226.101 136.76 225.311 135.776 224.316 136.01C223.353 136.24 222.43 136.612 221.576 137.114C220.529 136.921 219.509 136.602 218.539 136.165C217.441 135.511 216.548 134.562 215.965 133.425C215.788 133.024 217.109 133.579 218.064 134.105C219.067 134.602 220.186 134.816 221.302 134.723C222.629 134.466 222.577 133.814 222.394 133.442C222.211 133.07 220.169 132.378 219.014 131.223C217.71 129.924 216.005 128.363 213.797 127.791C211.589 127.219 209.513 126.841 208.077 125.503C206.641 124.164 191.758 109.824 191.758 109.824Z" fill="#FFA8A7"/>
<path opacity="0.2" d="M141.668 227.576C141.774 227.519 141.855 227.424 141.893 227.31C141.932 227.196 141.926 227.072 141.877 226.962C141.827 226.853 141.738 226.766 141.627 226.72C141.516 226.673 141.392 226.67 141.279 226.712L132.642 229.486C132.521 229.525 132.421 229.61 132.363 229.723C132.305 229.835 132.295 229.966 132.333 230.087C132.372 230.207 132.457 230.308 132.57 230.366C132.682 230.424 132.813 230.434 132.934 230.396L141.571 227.616L141.668 227.576ZM141.668 223.08L132.819 221.101C132.701 221.086 132.582 221.116 132.484 221.185C132.387 221.253 132.319 221.355 132.292 221.471C132.266 221.587 132.284 221.709 132.342 221.813C132.4 221.917 132.495 221.995 132.608 222.033L141.462 224.012C141.524 224.027 141.587 224.029 141.649 224.018C141.711 224.008 141.77 223.985 141.824 223.952C141.877 223.918 141.923 223.874 141.959 223.823C141.995 223.771 142.021 223.713 142.034 223.652C142.062 223.527 142.038 223.397 141.97 223.29C141.901 223.183 141.793 223.107 141.668 223.08ZM142.732 229.012L137.664 236.562C137.594 236.668 137.569 236.796 137.593 236.921C137.618 237.045 137.691 237.155 137.796 237.225C137.872 237.274 137.96 237.301 138.05 237.301C138.141 237.301 138.229 237.274 138.305 237.225C138.365 237.19 138.416 237.141 138.454 237.082L143.516 229.555C143.586 229.45 143.612 229.322 143.588 229.198C143.564 229.074 143.492 228.965 143.387 228.894C143.282 228.824 143.154 228.798 143.03 228.822C142.906 228.846 142.797 228.918 142.726 229.023L142.732 229.012Z" fill="black"/>
<path d="M192.982 40.4349C193.055 40.5891 193.065 40.766 193.01 40.9275C192.954 41.0891 192.837 41.2223 192.684 41.2986L189.962 42.6371C189.885 42.6737 189.801 42.6927 189.716 42.6927C189.631 42.6927 189.547 42.6737 189.47 42.6371C189.388 42.6113 189.312 42.5691 189.247 42.5131C189.182 42.457 189.13 42.3883 189.092 42.3111L188 40.1603C187.966 40.0818 187.948 39.9971 187.948 39.9115C187.948 39.8259 187.966 39.7412 188 39.6627C188.026 39.5821 188.069 39.5076 188.125 39.4437C188.181 39.3799 188.249 39.3279 188.326 39.2909L191.043 37.9581C191.119 37.9188 191.202 37.8955 191.288 37.8895C191.374 37.8836 191.46 37.8953 191.54 37.9238C191.621 37.9508 191.695 37.9935 191.759 38.0495C191.823 38.1055 191.875 38.1736 191.912 38.2499L192.982 40.4349ZM190.694 35.7902C190.732 35.8669 190.755 35.9505 190.76 36.0361C190.764 36.1217 190.752 36.2074 190.722 36.2879C190.697 36.369 190.654 36.4439 190.598 36.5078C190.542 36.5718 190.473 36.6235 190.396 36.6597L187.679 37.9982C187.52 38.064 187.341 38.064 187.182 37.9982C187.1 37.9733 187.025 37.9314 186.961 37.8752C186.897 37.819 186.845 37.7498 186.81 37.6721L182.234 28.3657C182.197 28.2897 182.175 28.2071 182.17 28.1226C182.165 28.0381 182.177 27.9535 182.205 27.8738C182.231 27.7919 182.273 27.7162 182.329 27.6513C182.385 27.5864 182.454 27.5336 182.531 27.4963L185.254 26.1635C185.331 26.1269 185.415 26.1079 185.5 26.1079C185.585 26.1079 185.669 26.1269 185.746 26.1635C185.827 26.1889 185.902 26.2303 185.967 26.2853C186.032 26.3404 186.085 26.4079 186.124 26.4838L190.694 35.7902Z" fill="#BA68C8"/>
<g opacity="0.5">
<path d="M192.982 40.4349C193.055 40.5891 193.065 40.766 193.01 40.9275C192.954 41.0891 192.837 41.2223 192.684 41.2986L189.962 42.6371C189.885 42.6737 189.801 42.6927 189.716 42.6927C189.631 42.6927 189.547 42.6737 189.47 42.6371C189.388 42.6113 189.312 42.5691 189.247 42.5131C189.182 42.457 189.13 42.3883 189.092 42.3111L188 40.1603C187.966 40.0818 187.948 39.9971 187.948 39.9115C187.948 39.8259 187.966 39.7412 188 39.6627C188.026 39.5821 188.069 39.5076 188.125 39.4437C188.181 39.3799 188.249 39.3279 188.326 39.2909L191.043 37.9581C191.119 37.9188 191.202 37.8955 191.288 37.8895C191.374 37.8836 191.46 37.8953 191.54 37.9238C191.621 37.9508 191.695 37.9935 191.759 38.0495C191.823 38.1055 191.875 38.1736 191.912 38.2499L192.982 40.4349ZM190.694 35.7902C190.732 35.8669 190.755 35.9505 190.76 36.0361C190.764 36.1217 190.752 36.2074 190.722 36.2879C190.697 36.369 190.654 36.4439 190.598 36.5078C190.542 36.5718 190.473 36.6235 190.396 36.6597L187.679 37.9982C187.52 38.064 187.341 38.064 187.182 37.9982C187.1 37.9733 187.025 37.9314 186.961 37.8752C186.897 37.819 186.845 37.7498 186.81 37.6721L182.234 28.3657C182.197 28.2897 182.175 28.2071 182.17 28.1226C182.165 28.0381 182.177 27.9535 182.205 27.8738C182.231 27.7919 182.273 27.7162 182.329 27.6513C182.385 27.5864 182.454 27.5336 182.531 27.4963L185.254 26.1635C185.331 26.1269 185.415 26.1079 185.5 26.1079C185.585 26.1079 185.669 26.1269 185.746 26.1635C185.827 26.1889 185.902 26.2303 185.967 26.2853C186.032 26.3404 186.085 26.4079 186.124 26.4838L190.694 35.7902Z" fill="white"/>
</g>
<path d="M187.617 46.584C187.677 46.6448 187.723 46.7173 187.754 46.7971C187.784 46.8768 187.798 46.962 187.794 47.0473C187.794 47.1332 187.776 47.2181 187.741 47.2968C187.707 47.3755 187.657 47.4463 187.594 47.5049L185.397 49.587C185.337 49.647 185.264 49.6937 185.184 49.7242C185.105 49.7547 185.019 49.7684 184.934 49.7643C184.848 49.7639 184.763 49.746 184.684 49.7116C184.606 49.6771 184.535 49.6269 184.476 49.5641L182.806 47.8023C182.747 47.7408 182.701 47.6681 182.671 47.5885C182.64 47.509 182.626 47.4242 182.629 47.339C182.644 47.1707 182.724 47.0148 182.852 46.9043L185.054 44.8222C185.115 44.7623 185.187 44.7155 185.267 44.685C185.347 44.6545 185.432 44.6408 185.517 44.6449C185.602 44.6464 185.686 44.6648 185.764 44.6992C185.841 44.7336 185.911 44.7832 185.969 44.8451L187.617 46.584ZM184.059 42.8317C184.176 42.9574 184.239 43.1234 184.236 43.295C184.235 43.3807 184.216 43.4652 184.182 43.5437C184.147 43.6222 184.098 43.6932 184.036 43.7526L181.839 45.8347C181.717 45.9552 181.551 46.0227 181.379 46.0227C181.207 46.0227 181.042 45.9552 180.919 45.8347L173.786 38.29C173.723 38.231 173.675 38.1588 173.644 38.0786C173.614 37.9983 173.601 37.9123 173.608 37.8267C173.609 37.7416 173.627 37.6576 173.661 37.5798C173.696 37.5021 173.746 37.4323 173.809 37.3748L175.988 35.287C176.05 35.2289 176.123 35.1837 176.202 35.1543C176.282 35.1248 176.366 35.1116 176.451 35.1154C176.537 35.114 176.622 35.1306 176.701 35.1641C176.78 35.1976 176.85 35.2472 176.909 35.3099L184.059 42.8317Z" fill="#BA68C8"/>
<g opacity="0.2">
<path d="M187.617 46.584C187.677 46.6448 187.723 46.7173 187.754 46.7971C187.784 46.8768 187.798 46.962 187.794 47.0473C187.794 47.1332 187.776 47.2181 187.741 47.2968C187.707 47.3755 187.657 47.4463 187.594 47.5049L185.397 49.587C185.337 49.647 185.264 49.6937 185.184 49.7242C185.105 49.7547 185.019 49.7684 184.934 49.7643C184.848 49.7639 184.763 49.746 184.684 49.7116C184.606 49.6771 184.535 49.6269 184.476 49.5641L182.806 47.8023C182.747 47.7408 182.701 47.6681 182.671 47.5885C182.64 47.509 182.626 47.4242 182.629 47.339C182.644 47.1707 182.724 47.0148 182.852 46.9043L185.054 44.8222C185.115 44.7623 185.187 44.7155 185.267 44.685C185.347 44.6545 185.432 44.6408 185.517 44.6449C185.602 44.6464 185.686 44.6648 185.764 44.6992C185.841 44.7336 185.911 44.7832 185.969 44.8451L187.617 46.584ZM184.059 42.8317C184.176 42.9574 184.239 43.1234 184.236 43.295C184.235 43.3807 184.216 43.4652 184.182 43.5437C184.147 43.6222 184.098 43.6932 184.036 43.7526L181.839 45.8347C181.717 45.9552 181.551 46.0227 181.379 46.0227C181.207 46.0227 181.042 45.9552 180.919 45.8347L173.786 38.29C173.723 38.231 173.675 38.1588 173.644 38.0786C173.614 37.9983 173.601 37.9123 173.608 37.8267C173.609 37.7416 173.627 37.6576 173.661 37.5798C173.696 37.5021 173.746 37.4323 173.809 37.3748L175.988 35.287C176.05 35.2289 176.123 35.1837 176.202 35.1543C176.282 35.1248 176.366 35.1116 176.451 35.1154C176.537 35.114 176.622 35.1306 176.701 35.1641C176.78 35.1976 176.85 35.2472 176.909 35.3099L184.059 42.8317Z" fill="white"/>
</g>
<path d="M281.556 74.034C281.939 84.6847 286.132 95.8501 295.216 100.609C298.297 98.725 301.238 96.6222 304.019 94.3172C308.326 90.6564 309.498 83.678 309.498 83.678C309.498 83.678 300.409 79.9028 300.575 62.165L281.556 74.034Z" fill="#EBEBEB"/>
<path d="M304.019 94.3173C307.411 90.748 308.623 86.1262 308.32 81.3672C308.32 81.3672 310.373 82.4712 310.745 83.5522C310.745 83.5522 310.648 89.0892 304.019 94.3173Z" fill="#F5F5F5"/>
<path d="M268.257 55.1349C261.456 58.9902 251.2 56.2217 251.2 56.2217L270.139 47.4129C270.139 47.4129 277.186 49.9354 286.83 44.3184L268.257 55.1349Z" fill="#F0F0F0"/>
<path d="M268.257 55.1351C274.704 51.1311 276.305 43.3519 275.945 40.7779L291.807 31.8833C291.176 36.3692 289.468 40.6358 286.83 44.3186L268.257 55.1351Z" fill="#E0E0E0"/>
<path d="M272.21 57.1486C280.613 54.6661 289.896 64.2642 294.449 73.2103L312.919 61.2326C312.919 61.2326 301.868 44.1241 291.229 46.5608L272.21 57.1486Z" fill="#F5F5F5"/>
<defs>
<filter id="filter0_d_754_4735" x="0.592285" y="113.206" width="374.816" height="237.067" filterUnits="userSpaceOnUse" color-interpolation-filters="sRGB">
<feFlood flood-opacity="0" result="BackgroundImageFix"/>
<feColorMatrix in="SourceAlpha" type="matrix" values="0 0 0 0 0 0 0 0 0 0 0 0 0 0 0 0 0 0 127 0" result="hardAlpha"/>
<feOffset dy="24"/>
<feGaussianBlur stdDeviation="24"/>
<feComposite in2="hardAlpha" operator="out"/>
<feColorMatrix type="matrix" values="0 0 0 0 0 0 0 0 0 0 0 0 0 0 0 0 0 0 0.08 0"/>
<feBlend mode="normal" in2="BackgroundImageFix" result="effect1_dropShadow_754_4735"/>
<feBlend mode="normal" in="SourceGraphic" in2="effect1_dropShadow_754_4735" result="shape"/>
</filter>
</defs>
</svg>
