<svg width="564" height="564" viewBox="0 0 564 564" fill="none" xmlns="http://www.w3.org/2000/svg">
<path d="M431.667 89.1154C431.667 89.1154 379.904 46.838 312.573 65.5854C245.243 84.3327 217.054 142.289 178.443 182.209C158.218 203.089 128.348 210.782 104.322 226.856C27.505 278.247 38.8978 393.8 98.1178 437.385C149.397 475.117 213.467 479.065 296.86 451.237C380.253 423.41 439.913 406.681 491.621 326.966C543.328 247.25 495.433 146.497 431.667 89.1154Z" fill="#F6B9D5"/>
<path opacity="0.7" d="M431.667 89.1154C431.667 89.1154 379.904 46.838 312.573 65.5854C245.243 84.3327 217.054 142.289 178.443 182.209C158.218 203.089 128.348 210.782 104.322 226.856C27.505 278.247 38.8978 393.8 98.1178 437.385C149.397 475.117 213.467 479.065 296.86 451.237C380.253 423.41 439.913 406.681 491.621 326.966C543.328 247.25 495.433 146.497 431.667 89.1154Z" fill="white"/>
<path d="M441.56 519.752H112.184L145.122 472.376H408.622L441.56 519.752Z" fill="#263238" stroke="#263238" stroke-linecap="round" stroke-linejoin="round"/>
<path d="M452.998 456.11C452.998 456.11 419.677 405.294 424.64 393.63C429.603 381.967 447.2 401.966 447.2 401.966C447.2 401.966 421.369 333.655 438.864 318.652C456.359 303.65 462.191 380.309 462.191 380.309C462.191 380.309 477.983 336.147 490.515 352.808C503.047 369.469 471.339 404.459 471.339 404.459C471.339 404.459 492.997 405.294 487.131 419.462C481.265 433.629 465.473 448.62 465.473 448.62L452.998 456.11Z" fill="#F6B9D5"/>
<path d="M443.816 444.447C443.816 444.447 423.828 416.123 433.822 410.291C443.816 404.459 448.813 421.954 448.813 421.954C448.813 421.954 449.648 345.318 465.485 351.15C481.322 356.982 475.479 403.624 475.479 403.624C475.479 403.624 495.467 390.303 494.655 409.456C493.843 428.61 467.154 445.304 467.154 445.304" stroke="#263238" stroke-linecap="round" stroke-linejoin="round"/>
<path d="M462.157 446.116L444.662 426.952" stroke="#263238" stroke-linecap="round" stroke-linejoin="round"/>
<path d="M462.992 455.275L462.157 407.798" stroke="#263238" stroke-linecap="round" stroke-linejoin="round"/>
<path d="M463.827 439.45L479.652 418.627" stroke="#263238" stroke-linecap="round" stroke-linejoin="round"/>
<path d="M477.983 441.119H433.833L438.243 480.272H473.572L477.983 441.119Z" fill="#263238" stroke="#263238" stroke-linecap="round" stroke-linejoin="round"/>
<path d="M98.8059 456.11C98.8059 456.11 65.4847 405.294 70.4479 393.63C75.4111 381.967 93.0079 401.966 93.0079 401.966C93.0079 401.966 67.1429 333.632 84.6382 318.652C102.133 303.672 107.965 380.309 107.965 380.309C107.965 380.309 123.757 336.147 136.289 352.808C148.821 369.469 117.113 404.459 117.113 404.459C117.113 404.459 138.771 405.294 132.905 419.462C127.04 433.629 111.248 448.62 111.248 448.62L98.8059 456.11Z" fill="#F6B9D5"/>
<path d="M92.0492 445.078C92.0492 445.078 71.3392 425.62 70.7075 416.878C70.0758 408.136 83.8938 418.762 89.5338 422.518C95.1738 426.275 75.1067 398.041 75.7271 377.331C76.3475 356.621 87.65 364.787 91.4175 373.575C95.1851 382.362 97.0575 390.495 98.9526 392.401C100.848 394.307 103.972 377.962 112.128 382.35C125.167 389.378 103.972 413.1 108.36 417.499C112.748 421.898 122.799 398.673 127.818 411.227C132.838 423.782 111.496 446.364 111.496 446.364" stroke="#263238" stroke-linecap="round" stroke-linejoin="round"/>
<path d="M105.224 443.815L89.5337 396.755" stroke="#263238" stroke-linecap="round" stroke-linejoin="round"/>
<path d="M97.0688 419.969L103.341 405.542" stroke="#263238" stroke-linecap="round" stroke-linejoin="round"/>
<path d="M84.5142 429.388L102.088 433.776L110.876 427.504" stroke="#263238" stroke-linecap="round" stroke-linejoin="round"/>
<path d="M123.791 441.119H79.6411L84.0516 480.272H119.381L123.791 441.119Z" fill="#263238" stroke="#263238" stroke-linecap="round" stroke-linejoin="round"/>
<path d="M250.556 333.632C250.556 333.632 234.008 335.132 227.996 324.608C221.984 314.084 232.508 301.292 221.228 296.78C209.948 292.268 196.412 307.316 173.852 294.524C151.292 281.733 163.316 265.196 169.34 252.416C175.363 239.636 178.364 233.612 164.072 225.344C149.78 217.076 133.988 193.004 143.768 169.7C153.548 146.395 178.364 156.908 191.144 144.884C203.924 132.859 192.644 118.556 191.9 99.0079C191.155 79.4597 217.46 64.4122 243.032 68.1797C268.604 71.9472 273.86 99.0079 273.86 116.3C273.86 133.592 300.932 138.116 313.724 118.556C326.515 98.9967 337.028 94.4959 355.832 102.764C374.636 111.032 358.844 138.86 367.868 143.372C376.892 147.884 384.404 126.08 411.476 138.86C438.548 151.64 423.512 185.48 409.976 193.76C390.281 205.818 413.507 229.202 417.24 243.516C422.711 264.44 405.87 281.18 385.16 280.244C352.076 278.732 343.796 273.476 337.028 283.244C330.26 293.013 351.32 295.28 348.308 311.072C345.297 326.864 339.284 332.876 325.748 332.876C312.212 332.876 303.944 320.852 289.652 326.864C275.361 332.876 257.324 337.388 250.556 333.632Z" fill="#263238" stroke="#263238" stroke-linecap="round" stroke-linejoin="round"/>
<path d="M224.42 441.356C221.995 450.354 221.136 459.703 221.882 468.992C223.292 483.374 230.624 490.988 262.49 495.782C294.356 500.576 316.352 496.628 334.118 488.168C351.884 479.708 347.857 449.353 343.244 442.394C338.63 435.434 320.864 434.024 292.1 436.562C263.336 439.1 245.57 434.588 235.136 436.28C224.702 437.972 224.42 441.356 224.42 441.356Z" fill="#696969" stroke="#263238" stroke-linecap="round" stroke-linejoin="round"/>
<path opacity="0.3" d="M325.94 445.868C325.94 445.868 310.712 449.816 299.996 452.636C289.28 455.456 288.152 456.584 297.74 457.712C307.328 458.84 325.376 457.712 325.376 457.712C325.376 457.712 299.996 469.556 286.46 472.376C272.924 475.196 248.108 466.172 245.288 463.916C242.468 461.66 257.132 461.66 261.08 459.968C265.028 458.276 262.772 456.02 248.672 453.764C234.572 451.508 237.392 464.48 249.8 473.504C262.208 482.528 269.54 485.348 285.614 482.528C301.688 479.708 323.684 472.94 331.016 459.404C338.348 445.868 325.94 445.868 325.94 445.868Z" fill="black"/>
<path d="M217.235 355.572L215.362 393.247C215.362 393.247 211.978 402 218.069 407.617C224.161 413.235 232.011 411.577 236.117 404.29C240.223 397.003 239.659 380.139 240.697 373.473C241.735 366.806 233.625 359.937 226.958 357.444C220.292 354.951 217.235 355.572 217.235 355.572Z" fill="white" stroke="#263238" stroke-linecap="round" stroke-linejoin="round"/>
<path d="M349.143 355.572L351.016 393.247C351.016 393.247 354.343 402 348.309 407.617C342.274 413.235 334.355 411.577 330.193 404.29C326.031 397.003 326.651 380.139 325.613 373.473C324.575 366.806 332.697 359.937 339.352 357.444C346.007 354.951 349.143 355.572 349.143 355.572Z" fill="white" stroke="#263238" stroke-linecap="round" stroke-linejoin="round"/>
<path d="M268.209 299.431C268.209 299.431 268.92 315.11 265.118 321.754C261.317 328.398 249.202 327.992 241.374 327.992C233.545 327.992 221.893 334.399 218.092 340.817C215.224 346.08 212.765 351.556 210.737 357.196L236.862 371.206C236.862 371.206 234.008 376.676 236.862 384.742C239.716 392.807 243.979 395.909 242.795 399.947C241.611 403.985 226.168 432.715 224.747 437.227C224.029 439.317 223.474 441.459 223.089 443.634C223.089 443.634 256.094 450.053 284.824 449.105C313.554 448.158 343.243 442.45 343.243 442.45C343.243 442.45 334.456 427.019 329.707 418.232C324.959 409.445 320.683 400.421 321.631 397.33C322.579 394.239 328.049 385.937 327.812 371.442C327.812 371.442 348.94 365.983 356.779 357.196C356.779 357.196 347.519 334.162 338.021 330.361C328.523 326.559 317.604 330.361 309.821 328.229C302.038 326.097 297.943 322.284 296.759 319.442C295.574 316.599 294.379 303.289 294.852 300.209L268.209 299.431Z" fill="#F6B9D5" stroke="#263238" stroke-linecap="round" stroke-linejoin="round"/>
<path opacity="0.3" d="M244.16 391.16C244.16 391.16 236.264 382.7 245.288 381.572C254.312 380.444 267.284 389.468 281.384 392.852C295.484 396.236 312.404 381.008 319.736 383.264C327.068 385.52 322.556 396.8 314.66 401.876C306.764 406.952 284.768 406.388 272.36 405.824C259.952 405.26 253.748 401.876 244.16 391.16Z" fill="black"/>
<path d="M254.312 396.394C254.312 396.394 258.61 399.834 270.104 399.834C281.598 399.834 290.408 394.679 298.462 396.112" stroke="#263238" stroke-linecap="round" stroke-linejoin="round"/>
<path d="M249.439 397.251C249.439 397.251 254.301 401.267 264.329 401.549" stroke="#263238" stroke-linecap="round" stroke-linejoin="round"/>
<path d="M236.862 371.149C236.862 371.149 237.685 366.897 243.133 362.881" stroke="#263238" stroke-linecap="round" stroke-linejoin="round"/>
<path d="M327.813 371.386C327.813 371.386 325.906 363.174 320.751 361.448" stroke="#263238" stroke-linecap="round" stroke-linejoin="round"/>
<path d="M283.403 357.139C301.981 356.406 307.813 338.527 309.64 328.139C301.891 325.995 297.887 322.217 296.702 319.385C295.518 316.554 294.322 303.232 294.796 300.153L268.209 299.431C268.209 299.431 268.92 315.11 265.118 321.754C263.178 325.138 259.05 326.695 254.436 327.394C256.196 334.85 263.336 357.94 283.403 357.139Z" fill="white"/>
<path opacity="0.3" d="M295.259 311.14C294.786 307.498 294.631 303.822 294.796 300.153L268.209 299.431C268.349 303.47 268.209 307.514 267.792 311.534C272.462 314.591 281.926 318.246 295.259 311.14Z" fill="black"/>
<path d="M283.403 357.139C301.981 356.406 307.813 338.527 309.64 328.139C301.891 325.995 297.887 322.217 296.702 319.385C295.518 316.554 294.322 303.232 294.796 300.153L268.209 299.431C268.209 299.431 268.92 315.11 265.118 321.754C263.178 325.138 259.05 326.695 254.436 327.394C256.196 334.85 263.336 357.94 283.403 357.139Z" stroke="#263238" stroke-linecap="round" stroke-linejoin="round"/>
<path d="M256.929 267.08C256.929 267.08 253.545 261.564 250.218 264.925C246.89 268.287 250.218 274.987 252.372 278.101C254.527 281.214 258.599 283.605 259.558 282.409C260.516 281.214 256.929 267.08 256.929 267.08Z" fill="white" stroke="#263238" stroke-linecap="round" stroke-linejoin="round"/>
<path d="M308.907 266.584C308.907 266.584 313.701 260.357 316.341 266.347C318.98 272.336 311.829 281.439 308.445 283.12C305.061 284.801 306.764 279.285 307.001 277.367C307.238 275.45 308.907 266.584 308.907 266.584Z" fill="white" stroke="#263238" stroke-linecap="round" stroke-linejoin="round"/>
<path d="M254.312 245.986C254.312 245.986 255.993 268.749 257.188 280.244C258.384 291.738 262.67 302.048 275.846 305.432C289.021 308.816 299.534 304.236 303.403 296.566C307.272 288.895 309.392 274.288 309.392 262.309V243.133C309.392 243.133 275.372 233.533 254.312 245.986Z" fill="white" stroke="#263238" stroke-linecap="round" stroke-linejoin="round"/>
<path d="M279.681 278.563C280.899 279.371 282.297 279.867 283.753 280.007C285.278 279.848 286.749 279.355 288.062 278.563" stroke="#263238" stroke-linecap="round" stroke-linejoin="round"/>
<path d="M276.567 285.997C276.567 285.997 282.557 289.832 291.231 285.511" stroke="#263238" stroke-linecap="round" stroke-linejoin="round"/>
<path d="M266.991 266.584C266.991 266.584 272.022 265.873 274.887 267.791" stroke="#263238" stroke-width="2" stroke-linecap="round" stroke-linejoin="round"/>
<path d="M290.464 267.542C290.464 267.542 295.258 265.151 299.804 267.306" stroke="#263238" stroke-width="2" stroke-linecap="round" stroke-linejoin="round"/>
<path d="M255.733 264.407C257.376 261.636 258.661 258.668 259.557 255.574C261.014 251.524 261.467 247.182 260.877 242.918C258.6 243.739 256.402 244.766 254.312 245.986C254.312 245.986 254.944 254.909 255.733 264.407Z" fill="#263238" stroke="#263238" stroke-linecap="round" stroke-linejoin="round"/>
<path d="M309.381 262.5C309.381 262.421 309.381 262.354 309.381 262.275V243.099C309.381 243.099 307.035 242.444 303.211 241.7C303.459 245.422 304.576 256.646 309.381 262.5Z" fill="#263238" stroke="#263238" stroke-linecap="round" stroke-linejoin="round"/>
<path d="M265.073 258.203C265.073 258.203 269.145 252.698 277.763 254.367" stroke="#263238" stroke-linecap="round" stroke-linejoin="round"/>
<path d="M289.979 255.089C291.946 254.37 294.069 254.19 296.128 254.569C298.187 254.948 300.107 255.872 301.688 257.244" stroke="#263238" stroke-linecap="round" stroke-linejoin="round"/>
<path d="M285.614 482.528C285.614 482.528 274.616 482.528 254.876 463.07C235.136 443.612 222.728 427.256 207.5 420.488C192.272 413.72 177.608 428.666 178.454 444.74C179.3 460.814 191.144 483.374 226.394 496.346C261.644 509.318 291.818 503.96 294.92 503.96C298.022 503.96 313.25 511.574 322.274 512.42C327.242 512.952 332.253 512.952 337.22 512.42C337.22 512.42 339.758 512.702 341.168 512.702C342.578 512.702 344.27 511.01 344.27 511.01C344.27 511.01 347.124 511.754 348.252 509.78C349.38 507.806 348.5 507.062 348.5 507.062C348.5 507.062 353.328 507.479 355.02 504.377C356.712 501.275 354.298 501.399 354.298 501.399C354.298 501.399 357.603 500.756 357.524 498.094C357.586 497.103 357.392 496.112 356.96 495.218C356.96 495.218 358.934 492.116 358.088 489.578C357.242 487.04 354.14 486.194 351.038 487.604C347.936 489.014 332.99 488.45 320.864 487.604C308.738 486.758 285.614 482.528 285.614 482.528Z" fill="white" stroke="#263238" stroke-linecap="round" stroke-linejoin="round"/>
<path d="M280.708 481.4C275.677 479.584 266.901 474.959 254.876 463.104C235.136 443.612 222.728 427.256 207.5 420.488C192.272 413.72 177.608 428.666 178.454 444.74C179.3 460.814 191.144 483.374 226.394 496.346C239.541 501.148 253.322 503.995 267.296 504.795C280.11 499.448 281.305 488.168 280.708 481.4Z" fill="#696969"/>
<path opacity="0.3" d="M275.913 498.703C270.352 496.594 263.855 494.338 256.568 492.116C230.624 484.22 211.448 474.632 198.476 459.968C185.504 445.304 190.016 426.692 190.016 426.692L187.027 423.985C184.157 426.599 181.9 429.815 180.418 433.403C178.936 436.991 178.265 440.862 178.454 444.74C179.3 460.814 191.144 483.374 226.394 496.346C239.541 501.148 253.322 503.995 267.295 504.795C270.611 503.478 273.566 501.39 275.913 498.703V498.703Z" fill="black"/>
<path d="M280.708 481.4C275.677 479.584 266.901 474.959 254.876 463.104C235.136 443.612 222.728 427.256 207.5 420.488C192.272 413.72 177.608 428.666 178.454 444.74C179.3 460.814 191.144 483.374 226.394 496.346C239.541 501.148 253.322 503.995 267.296 504.795C280.11 499.448 281.305 488.168 280.708 481.4Z" stroke="#263238" stroke-linecap="round" stroke-linejoin="round"/>
<path d="M356.96 495.218C356.094 494.829 355.153 494.639 354.204 494.662C353.255 494.686 352.323 494.922 351.478 495.353" fill="white"/>
<path d="M356.96 495.218C356.094 494.829 355.153 494.639 354.204 494.662C353.255 494.686 352.323 494.922 351.478 495.353" stroke="#263238" stroke-linecap="round" stroke-linejoin="round"/>
<path d="M354.298 501.399C352.841 500.871 351.244 500.871 349.786 501.399Z" fill="white"/>
<path d="M354.298 501.399C352.841 500.871 351.244 500.871 349.786 501.399" stroke="#263238" stroke-linecap="round" stroke-linejoin="round"/>
<path d="M348.5 507.062C347.459 506.278 346.169 505.898 344.868 505.99Z" fill="white"/>
<path d="M348.5 507.062C347.459 506.278 346.169 505.898 344.868 505.99" stroke="#263238" stroke-linecap="round" stroke-linejoin="round"/>
<path d="M343.977 510.728C343.977 510.728 342.77 508.551 340.999 508.551Z" fill="white"/>
<path d="M343.977 510.728C343.977 510.728 342.77 508.551 340.999 508.551" stroke="#263238" stroke-linecap="round" stroke-linejoin="round"/>
<path d="M273.105 482.528C273.105 482.528 284.103 482.528 303.843 463.07C323.583 443.612 335.991 427.256 351.219 420.488C366.447 413.72 381.111 428.666 380.265 444.74C379.419 460.814 367.575 483.374 332.325 496.346C297.075 509.318 266.901 503.96 263.799 503.96C260.697 503.96 245.469 511.574 236.445 512.42C231.477 512.952 226.466 512.952 221.499 512.42C221.499 512.42 218.961 512.702 217.551 512.702C216.141 512.702 214.449 511.01 214.449 511.01C214.449 511.01 211.595 511.754 210.467 509.78C209.339 507.806 210.219 507.062 210.219 507.062C210.219 507.062 205.38 507.479 203.688 504.377C201.996 501.275 204.409 501.399 204.409 501.399C204.409 501.399 201.104 500.756 201.183 498.094C201.118 497.101 201.317 496.109 201.759 495.218C201.759 495.218 199.785 492.116 200.631 489.578C201.477 487.04 204.579 486.194 207.681 487.604C210.783 489.014 225.729 488.45 237.855 487.604C249.981 486.758 273.105 482.528 273.105 482.528Z" fill="white" stroke="#263238" stroke-linecap="round" stroke-linejoin="round"/>
<path d="M278 481.4C283.02 479.584 291.795 474.959 303.831 463.104C323.571 443.646 335.979 427.29 351.207 420.522C366.435 413.754 381.099 428.7 380.253 444.774C379.407 460.848 367.563 483.408 332.313 496.38C319.163 501.183 305.378 504.03 291.401 504.829C278.598 499.448 277.414 488.168 278 481.4Z" fill="#696969"/>
<path opacity="0.3" d="M380.265 444.74C380.851 433.539 373.903 422.902 364.473 419.755L360.344 422.744C360.344 422.744 374.444 431.204 371.06 447.56C367.676 463.916 340.04 480.836 318.044 489.86C307.093 494.153 295.853 497.669 284.407 500.384C286.463 502.257 288.835 503.75 291.412 504.795C305.39 503.996 319.174 501.149 332.325 496.346C367.575 483.374 379.419 460.814 380.265 444.74Z" fill="black"/>
<path d="M278 481.4C283.02 479.584 291.795 474.959 303.831 463.104C323.571 443.646 335.979 427.29 351.207 420.522C366.435 413.754 381.099 428.7 380.253 444.774C379.407 460.848 367.563 483.408 332.313 496.38C319.163 501.183 305.378 504.03 291.401 504.829C278.598 499.448 277.414 488.168 278 481.4Z" stroke="#263238" stroke-linecap="round" stroke-linejoin="round"/>
<path d="M201.759 495.218C202.624 494.829 203.566 494.639 204.515 494.662C205.464 494.686 206.396 494.922 207.241 495.353" fill="white"/>
<path d="M201.759 495.218C202.624 494.829 203.566 494.639 204.515 494.662C205.464 494.686 206.396 494.922 207.241 495.353" stroke="#263238" stroke-linecap="round" stroke-linejoin="round"/>
<path d="M204.41 501.399C205.867 500.871 207.464 500.871 208.922 501.399Z" fill="white"/>
<path d="M204.41 501.399C205.867 500.871 207.464 500.871 208.922 501.399" stroke="#263238" stroke-linecap="round" stroke-linejoin="round"/>
<path d="M210.219 507.062C211.261 506.278 212.551 505.898 213.851 505.99Z" fill="white"/>
<path d="M210.219 507.062C211.261 506.278 212.551 505.898 213.851 505.99" stroke="#263238" stroke-linecap="round" stroke-linejoin="round"/>
<path d="M214.742 510.728C214.742 510.728 215.96 508.472 217.72 508.472Z" fill="white"/>
<path d="M214.742 510.728C214.742 510.728 215.96 508.472 217.72 508.472" stroke="#263238" stroke-linecap="round" stroke-linejoin="round"/>
<path d="M222.017 395.751C222.017 395.751 217.855 394.916 210.365 398.661C202.875 402.406 195.995 409.073 192.035 411.363C188.076 413.652 185.38 415.119 181.883 411.577C178.386 408.035 170.851 398.244 163.768 398.458C156.684 398.673 154.191 408.452 155.443 410.528C156.695 412.603 158.568 413.032 160.023 411.363C161.478 409.693 163.35 406.365 165.223 407.618C167.095 408.87 166.057 414.701 163.147 415.739C160.237 416.777 152.318 421.774 154.191 424.695C156.063 427.617 166.689 431.565 174.596 432.185C182.504 432.806 192.295 427.403 198.747 426.354C205.199 425.305 222.694 424.098 230.805 417.409C233.14 415.508 234.93 413.022 235.993 410.205C237.055 407.387 237.351 404.338 236.851 401.368" fill="white"/>
<path d="M222.017 395.751C222.017 395.751 217.855 394.916 210.365 398.661C202.875 402.406 195.995 409.073 192.035 411.363C188.076 413.652 185.38 415.119 181.883 411.577C178.386 408.035 170.851 398.244 163.768 398.458C156.684 398.673 154.191 408.452 155.443 410.528C156.695 412.603 158.568 413.032 160.023 411.363C161.478 409.693 163.35 406.365 165.223 407.618C167.095 408.87 166.057 414.701 163.147 415.739C160.237 416.777 152.318 421.774 154.191 424.695C156.063 427.617 166.689 431.565 174.596 432.185C182.504 432.806 192.295 427.403 198.747 426.354C205.199 425.305 222.694 424.098 230.805 417.409C233.14 415.508 234.93 413.022 235.993 410.205C237.055 407.387 237.351 404.338 236.851 401.368" stroke="#263238" stroke-linecap="round" stroke-linejoin="round"/>
<path d="M155.184 420.319C155.184 420.319 154.36 411.159 151.653 410.528C148.946 409.896 148.528 416.168 148.946 422.191C149.363 428.215 152.691 429.895 154.766 428.226C156.842 426.557 155.184 420.319 155.184 420.319Z" fill="white" stroke="#263238" stroke-linecap="round" stroke-linejoin="round"/>
<path d="M161.692 422.902C161.692 422.902 162.482 413.731 159.932 412.637C157.383 411.543 155.871 417.623 155.206 423.635C154.54 429.647 157.541 431.881 159.887 430.617C162.233 429.354 161.692 422.902 161.692 422.902Z" fill="white" stroke="#263238" stroke-linecap="round" stroke-linejoin="round"/>
<path d="M167.31 425C167.31 425 168.111 415.841 165.55 414.746C162.989 413.652 161.489 419.732 160.835 425.744C160.181 431.757 163.159 433.99 165.505 432.716C167.851 431.441 167.31 425 167.31 425Z" fill="white" stroke="#263238" stroke-linecap="round" stroke-linejoin="round"/>
<path d="M182.041 431.768C178.261 433.511 174.133 434.368 169.972 434.272C169.731 432.545 169.591 430.804 169.554 429.061C169.554 426.805 174.337 417.408 181.421 418.029" fill="white"/>
<path d="M182.041 431.768C178.261 433.511 174.133 434.368 169.972 434.272C169.731 432.545 169.591 430.804 169.554 429.061C169.554 426.805 174.337 417.408 181.421 418.029" stroke="#263238" stroke-linecap="round" stroke-linejoin="round"/>
<path d="M173.277 428.576C173.277 428.576 175.928 421.402 173.739 419.732C171.551 418.063 168.855 422.507 166.971 427.177C165.088 431.847 167.468 434.577 169.949 434.272C172.431 433.968 173.277 428.576 173.277 428.576Z" fill="white" stroke="#263238" stroke-linecap="round" stroke-linejoin="round"/>
<path d="M344.349 395.751C344.349 395.751 348.511 394.916 356.013 398.661C363.514 402.406 370.372 409.073 374.331 411.363C378.291 413.652 380.998 415.119 384.54 411.577C388.082 408.035 395.572 398.244 402.644 398.458C409.717 398.673 412.221 408.452 410.98 410.528C409.739 412.603 407.855 413.032 406.4 411.363C404.945 409.693 403.016 406.365 401.189 407.618C399.362 408.87 400.354 414.701 403.276 415.739C406.197 416.777 414.105 421.774 412.221 424.695C410.337 427.617 399.734 431.565 391.827 432.185C383.919 432.806 374.128 427.403 367.665 426.354C361.201 425.305 343.729 424.098 335.607 417.409C333.272 415.508 331.482 413.022 330.422 410.204C329.362 407.386 329.069 404.337 329.572 401.368" fill="white"/>
<path d="M344.349 395.751C344.349 395.751 348.511 394.916 356.013 398.661C363.514 402.406 370.372 409.073 374.331 411.363C378.291 413.652 380.998 415.119 384.54 411.577C388.082 408.035 395.572 398.244 402.644 398.458C409.717 398.673 412.221 408.452 410.98 410.528C409.739 412.603 407.855 413.032 406.4 411.363C404.945 409.693 403.016 406.365 401.189 407.618C399.362 408.87 400.354 414.701 403.276 415.739C406.197 416.777 414.105 421.774 412.221 424.695C410.337 427.617 399.734 431.565 391.827 432.185C383.919 432.806 374.128 427.403 367.665 426.354C361.201 425.305 343.729 424.098 335.607 417.409C333.272 415.508 331.482 413.022 330.422 410.204C329.362 407.386 329.069 404.337 329.572 401.368" stroke="#263238" stroke-linecap="round" stroke-linejoin="round"/>
<path d="M411.183 420.319C411.183 420.319 412.018 411.159 414.725 410.528C417.432 409.896 417.849 416.168 417.432 422.191C417.015 428.215 413.687 429.895 411.6 428.226C409.514 426.557 411.183 420.319 411.183 420.319Z" fill="white" stroke="#263238" stroke-linecap="round" stroke-linejoin="round"/>
<path d="M404.686 422.902C404.686 422.902 403.885 413.731 406.434 412.637C408.983 411.543 410.506 417.623 411.16 423.635C411.815 429.647 408.848 431.881 406.49 430.64C404.133 429.399 404.686 422.902 404.686 422.902Z" fill="white" stroke="#263238" stroke-linecap="round" stroke-linejoin="round"/>
<path d="M399.057 425C399.057 425 398.267 415.841 400.817 414.746C403.366 413.652 404.889 419.732 405.543 425.744C406.197 431.757 403.208 433.99 400.873 432.716C398.538 431.441 399.057 425 399.057 425Z" fill="white" stroke="#263238" stroke-linecap="round" stroke-linejoin="round"/>
<path d="M384.326 431.768C388.12 433.517 392.264 434.373 396.44 434.272C396.681 432.545 396.821 430.804 396.858 429.061C396.858 426.805 392.064 417.408 384.98 418.029" fill="white"/>
<path d="M384.326 431.768C388.12 433.517 392.264 434.373 396.44 434.272C396.681 432.545 396.821 430.804 396.858 429.061C396.858 426.805 392.064 417.408 384.98 418.029" stroke="#263238" stroke-linecap="round" stroke-linejoin="round"/>
<path d="M393.056 428.576C393.056 428.576 390.405 421.402 392.594 419.732C394.782 418.063 397.467 422.507 399.362 427.177C401.257 431.847 398.865 434.577 396.384 434.272C393.902 433.968 393.056 428.576 393.056 428.576Z" fill="white" stroke="#263238" stroke-linecap="round" stroke-linejoin="round"/>
<path d="M303.944 232.112C301.293 228.265 297.176 232.01 296.116 233.161C294.988 232.033 290.938 228.265 288.299 232.112C285.422 236.297 296.026 245.016 296.116 244.971C296.206 244.926 306.787 236.297 303.944 232.112Z" stroke="#F6B9D5" stroke-linecap="round" stroke-linejoin="round"/>
<path d="M277.605 235.564C274.294 231.106 269.833 227.632 264.701 225.513C256.444 222.287 261.825 215.835 265.412 217.617C267.726 218.754 270.125 219.712 272.586 220.482C272.586 220.482 263.257 212.947 262.907 206.495C262.558 200.043 272.586 208.289 272.586 208.289C272.586 208.289 260.392 191.504 264.34 188.571C268.288 185.638 271.864 191.087 274.379 195.745C276.165 199.227 277.721 202.822 279.038 206.506C279.038 206.506 278.327 194.674 282.275 198.261C286.223 201.848 283.708 219.783 283.708 219.783C283.708 219.783 289.088 205.119 291.604 213.015C294.119 220.911 278.688 234.481 277.605 235.564Z" stroke="#F6B9D5" stroke-linecap="round" stroke-linejoin="round"/>
<path d="M277.605 235.564C277.605 235.564 283.347 218.339 271.514 196.084" stroke="#F6B9D5" stroke-linecap="round" stroke-linejoin="round"/>
<path d="M257.922 121.218C253.809 121.187 249.766 122.275 246.224 124.365C240.584 127.749 239.231 121.737 241.893 120.417C243.595 119.555 245.232 118.567 246.788 117.462C246.788 117.462 238.17 119.605 234.2 116.932C230.229 114.259 239.58 112.014 239.58 112.014C239.58 112.014 224.183 111.698 224.251 108.088C224.318 104.479 229.09 104.704 232.97 105.359C235.823 105.858 238.642 106.54 241.408 107.4C241.408 107.4 234.098 102.539 237.967 101.76C241.836 100.982 251.323 110.514 251.323 110.514C251.323 110.514 245.04 100.779 250.815 102.809C256.59 104.84 257.764 120.102 257.922 121.218Z" stroke="#F6B9D5" stroke-linecap="round" stroke-linejoin="round"/>
<path d="M257.922 121.218C257.922 121.218 250.319 110.141 231.899 107.208" stroke="#F6B9D5" stroke-linecap="round" stroke-linejoin="round"/>
<path d="M329.166 192.485C328.847 192.492 328.529 192.533 328.219 192.609C328.696 192.154 329.057 191.592 329.271 190.968C329.485 190.345 329.547 189.679 329.45 189.027C329.353 188.374 329.102 187.755 328.716 187.22C328.33 186.686 327.821 186.252 327.233 185.954C326.644 185.657 325.993 185.506 325.334 185.513C324.675 185.52 324.027 185.685 323.445 185.994C322.862 186.304 322.363 186.749 321.989 187.291C321.614 187.834 321.376 188.459 321.293 189.113C321.028 188.555 320.642 188.065 320.163 187.676C319.684 187.288 319.123 187.013 318.523 186.871C317.923 186.728 317.299 186.722 316.696 186.854C316.093 186.985 315.528 187.25 315.042 187.629C314.555 188.008 314.16 188.492 313.886 189.044C313.611 189.596 313.464 190.203 313.456 190.82C313.447 191.437 313.577 192.047 313.837 192.607C314.096 193.167 314.477 193.661 314.953 194.053C314.421 194.32 313.953 194.699 313.581 195.164C313.21 195.629 312.943 196.169 312.8 196.747C312.658 197.325 312.642 197.927 312.754 198.511C312.866 199.096 313.104 199.649 313.451 200.133C313.798 200.617 314.245 201.02 314.763 201.314C315.28 201.608 315.855 201.786 316.449 201.837C317.042 201.887 317.639 201.808 318.199 201.606C318.758 201.403 319.267 201.082 319.691 200.663C319.784 201.697 320.265 202.657 321.038 203.35C321.81 204.044 322.816 204.419 323.854 204.4C324.891 204.382 325.884 203.971 326.631 203.25C327.378 202.53 327.824 201.553 327.88 200.517C328.295 200.655 328.729 200.731 329.166 200.742C330.261 200.742 331.311 200.307 332.085 199.533C332.86 198.759 333.295 197.709 333.295 196.614C333.295 195.519 332.86 194.469 332.085 193.695C331.311 192.92 330.261 192.485 329.166 192.485V192.485Z" stroke="#F6B9D5" stroke-linecap="round" stroke-linejoin="round"/>
<path d="M322.139 198.588C323.715 198.588 324.992 197.31 324.992 195.734C324.992 194.158 323.715 192.88 322.139 192.88C320.562 192.88 319.285 194.158 319.285 195.734C319.285 197.31 320.562 198.588 322.139 198.588Z" stroke="#F6B9D5" stroke-linecap="round" stroke-linejoin="round"/>
<path d="M246.619 224.96C246.296 224.966 245.975 225.008 245.66 225.085C246.14 224.631 246.504 224.068 246.721 223.444C246.938 222.82 247.001 222.153 246.906 221.5C246.811 220.846 246.56 220.225 246.174 219.689C245.789 219.152 245.279 218.717 244.69 218.419C244.101 218.121 243.448 217.969 242.787 217.976C242.127 217.983 241.478 218.149 240.895 218.46C240.312 218.77 239.813 219.217 239.438 219.761C239.064 220.306 238.827 220.932 238.746 221.588C238.341 220.746 237.663 220.067 236.821 219.661C235.98 219.256 235.026 219.149 234.115 219.357C233.205 219.566 232.392 220.078 231.811 220.809C231.23 221.54 230.915 222.447 230.918 223.381C230.918 223.983 231.052 224.577 231.31 225.121C231.567 225.666 231.942 226.146 232.406 226.528C231.874 226.795 231.406 227.174 231.034 227.639C230.663 228.104 230.396 228.644 230.254 229.222C230.111 229.8 230.095 230.402 230.207 230.986C230.32 231.571 230.557 232.124 230.904 232.608C231.251 233.092 231.698 233.495 232.216 233.789C232.733 234.083 233.309 234.262 233.902 234.312C234.495 234.362 235.092 234.284 235.652 234.081C236.211 233.878 236.721 233.557 237.144 233.138C237.254 234.158 237.741 235.1 238.51 235.779C239.279 236.458 240.275 236.824 241.3 236.805C242.326 236.787 243.307 236.385 244.052 235.68C244.796 234.974 245.249 234.015 245.322 232.992C245.739 233.137 246.177 233.213 246.619 233.217C247.714 233.217 248.764 232.782 249.539 232.008C250.313 231.234 250.748 230.184 250.748 229.089C250.748 227.994 250.313 226.944 249.539 226.17C248.764 225.395 247.714 224.96 246.619 224.96V224.96Z" stroke="#F6B9D5" stroke-linecap="round" stroke-linejoin="round"/>
<path d="M239.58 231.063C241.157 231.063 242.434 229.785 242.434 228.209C242.434 226.633 241.157 225.355 239.58 225.355C238.004 225.355 236.727 226.633 236.727 228.209C236.727 229.785 238.004 231.063 239.58 231.063Z" stroke="#F6B9D5" stroke-linecap="round" stroke-linejoin="round"/>
<path d="M244.363 173.659C244.161 173.662 243.961 173.689 243.765 173.738C244.019 173.501 244.221 173.215 244.359 172.897C244.497 172.578 244.567 172.235 244.566 171.888C244.597 171.218 244.363 170.562 243.916 170.062C243.468 169.562 242.842 169.258 242.172 169.215C241.502 169.172 240.842 169.394 240.334 169.833C239.826 170.271 239.511 170.892 239.456 171.561C239.291 171.214 239.051 170.909 238.752 170.669C238.454 170.428 238.105 170.257 237.731 170.169C237.358 170.081 236.97 170.078 236.595 170.16C236.22 170.242 235.869 170.408 235.567 170.644C235.264 170.881 235.019 171.182 234.849 171.526C234.679 171.87 234.588 172.247 234.584 172.631C234.579 173.015 234.661 173.394 234.823 173.742C234.985 174.09 235.223 174.397 235.52 174.64C235.096 174.846 234.738 175.167 234.487 175.566C234.236 175.964 234.101 176.425 234.098 176.896C234.083 177.415 234.225 177.926 234.506 178.363C234.787 178.8 235.193 179.141 235.671 179.342C236.15 179.544 236.678 179.596 237.186 179.491C237.695 179.387 238.16 179.131 238.52 178.758C238.591 179.392 238.897 179.977 239.377 180.398C239.857 180.819 240.477 181.045 241.116 181.032C241.754 181.019 242.365 180.769 242.828 180.329C243.291 179.89 243.573 179.293 243.619 178.656C243.875 178.751 244.146 178.801 244.419 178.803C245.102 178.803 245.756 178.532 246.238 178.049C246.72 177.567 246.991 176.913 246.991 176.231C246.991 175.549 246.72 174.895 246.238 174.412C245.756 173.93 245.102 173.659 244.419 173.659H244.363Z" stroke="#F6B9D5" stroke-linecap="round" stroke-linejoin="round"/>
<path d="M239.986 177.46C240.971 177.46 241.769 176.662 241.769 175.678C241.769 174.694 240.971 173.896 239.986 173.896C239.002 173.896 238.204 174.694 238.204 175.678C238.204 176.662 239.002 177.46 239.986 177.46Z" stroke="#F6B9D5" stroke-linecap="round" stroke-linejoin="round"/>
<path d="M221.115 252.416C220.917 252.419 220.72 252.446 220.529 252.495C220.779 252.256 220.978 251.969 221.114 251.651C221.249 251.333 221.319 250.991 221.318 250.645C221.315 249.996 221.066 249.373 220.621 248.901C220.176 248.429 219.569 248.143 218.922 248.102C218.274 248.06 217.635 248.266 217.134 248.677C216.632 249.089 216.305 249.675 216.22 250.318C216.053 249.974 215.812 249.672 215.514 249.434C215.215 249.195 214.867 249.026 214.496 248.94C214.124 248.853 213.737 248.851 213.364 248.933C212.991 249.015 212.641 249.18 212.34 249.415C212.039 249.65 211.794 249.949 211.624 250.291C211.453 250.632 211.361 251.008 211.355 251.39C211.348 251.772 211.427 252.15 211.586 252.497C211.744 252.845 211.979 253.152 212.272 253.397C211.942 253.564 211.653 253.8 211.423 254.089C211.193 254.378 211.028 254.713 210.94 255.071C210.852 255.43 210.843 255.803 210.912 256.166C210.982 256.528 211.129 256.872 211.344 257.172C211.559 257.472 211.836 257.723 212.156 257.906C212.477 258.089 212.833 258.201 213.201 258.233C213.569 258.266 213.939 258.218 214.287 258.094C214.635 257.97 214.952 257.773 215.216 257.515C215.287 258.149 215.592 258.734 216.073 259.155C216.553 259.576 217.173 259.802 217.811 259.789C218.45 259.777 219.06 259.526 219.523 259.086C219.986 258.647 220.268 258.05 220.314 257.413C220.571 257.507 220.842 257.557 221.115 257.56C221.797 257.56 222.451 257.289 222.934 256.806C223.416 256.324 223.687 255.67 223.687 254.988C223.687 254.306 223.416 253.652 222.934 253.169C222.451 252.687 221.797 252.416 221.115 252.416V252.416Z" stroke="#F6B9D5" stroke-linecap="round" stroke-linejoin="round"/>
<path d="M216.738 256.217C217.723 256.217 218.521 255.419 218.521 254.435C218.521 253.451 217.723 252.653 216.738 252.653C215.754 252.653 214.956 253.451 214.956 254.435C214.956 255.419 215.754 256.217 216.738 256.217Z" stroke="#F6B9D5" stroke-linecap="round" stroke-linejoin="round"/>
<path d="M271.04 130.919C270.842 130.922 270.646 130.949 270.454 130.998C270.749 130.715 270.973 130.366 271.105 129.979C271.238 129.592 271.276 129.179 271.216 128.774C271.156 128.369 271 127.985 270.761 127.653C270.522 127.321 270.207 127.051 269.842 126.866C269.478 126.68 269.074 126.585 268.665 126.588C268.256 126.591 267.853 126.692 267.491 126.882C267.129 127.073 266.818 127.347 266.584 127.682C266.349 128.018 266.199 128.404 266.145 128.81C265.894 128.283 265.471 127.857 264.945 127.603C264.42 127.349 263.823 127.283 263.255 127.415C262.686 127.546 262.18 127.868 261.819 128.327C261.458 128.786 261.265 129.354 261.272 129.938C261.271 130.311 261.354 130.68 261.514 131.018C261.674 131.355 261.907 131.653 262.197 131.889C261.676 132.143 261.257 132.566 261.008 133.09C260.759 133.613 260.695 134.205 260.826 134.769C260.956 135.333 261.275 135.837 261.729 136.197C262.183 136.557 262.745 136.752 263.325 136.751C263.658 136.751 263.988 136.686 264.296 136.558C264.604 136.43 264.883 136.243 265.118 136.006C265.188 136.641 265.493 137.226 265.972 137.648C266.451 138.07 267.071 138.297 267.709 138.286C268.347 138.274 268.958 138.025 269.422 137.587C269.886 137.148 270.169 136.553 270.217 135.916C270.475 136.005 270.745 136.054 271.018 136.063C271.7 136.063 272.354 135.792 272.836 135.31C273.319 134.827 273.59 134.173 273.59 133.491C273.59 132.809 273.319 132.155 272.836 131.672C272.354 131.19 271.7 130.919 271.018 130.919H271.04Z" stroke="#F6B9D5" stroke-linecap="round" stroke-linejoin="round"/>
<path d="M266.664 134.72C267.648 134.72 268.446 133.923 268.446 132.938C268.446 131.954 267.648 131.156 266.664 131.156C265.679 131.156 264.881 131.954 264.881 132.938C264.881 133.923 265.679 134.72 266.664 134.72Z" stroke="#F6B9D5" stroke-linecap="round" stroke-linejoin="round"/>
<path d="M326.143 147.151C325.942 147.154 325.741 147.181 325.545 147.23C325.799 146.994 326.001 146.707 326.139 146.389C326.277 146.07 326.348 145.727 326.346 145.38C326.377 144.71 326.144 144.054 325.696 143.554C325.248 143.054 324.622 142.75 323.952 142.707C323.282 142.664 322.622 142.886 322.114 143.325C321.607 143.763 321.291 144.384 321.236 145.053C321.072 144.707 320.831 144.402 320.532 144.161C320.234 143.92 319.885 143.749 319.512 143.661C319.138 143.573 318.75 143.57 318.375 143.652C318 143.735 317.649 143.9 317.347 144.136C317.045 144.373 316.799 144.674 316.629 145.018C316.459 145.362 316.368 145.739 316.364 146.123C316.359 146.507 316.441 146.886 316.603 147.234C316.765 147.582 317.003 147.889 317.3 148.132C316.876 148.339 316.518 148.659 316.267 149.058C316.016 149.456 315.881 149.917 315.878 150.388C315.879 150.894 316.029 151.387 316.309 151.808C316.589 152.229 316.986 152.558 317.452 152.754C317.918 152.95 318.431 153.005 318.927 152.911C319.424 152.817 319.882 152.579 320.244 152.227C320.315 152.862 320.621 153.447 321.101 153.867C321.581 154.288 322.201 154.514 322.839 154.502C323.478 154.489 324.088 154.238 324.551 153.799C325.014 153.359 325.297 152.762 325.342 152.125C325.599 152.221 325.87 152.27 326.143 152.272C326.825 152.272 327.479 152.001 327.962 151.519C328.444 151.037 328.715 150.382 328.715 149.7C328.715 149.018 328.444 148.364 327.962 147.882C327.479 147.399 326.825 147.128 326.143 147.128V147.151Z" stroke="#F6B9D5" stroke-linecap="round" stroke-linejoin="round"/>
<path d="M321.767 150.952C322.751 150.952 323.549 150.154 323.549 149.17C323.549 148.186 322.751 147.388 321.767 147.388C320.782 147.388 319.984 148.186 319.984 149.17C319.984 150.154 320.782 150.952 321.767 150.952Z" stroke="#F6B9D5" stroke-linecap="round" stroke-linejoin="round"/>
<path d="M292.664 180.224C294.1 176.323 295.862 172.549 297.932 168.944C300.56 164.804 309.956 164.06 309.956 164.06C309.956 164.06 305.072 171.956 302.816 175.712C300.56 179.468 292.664 180.224 292.664 180.224Z" stroke="#F6B9D5" stroke-linecap="round" stroke-linejoin="round"/>
<path d="M292.664 180.224C292.664 180.224 299.804 170.072 308.084 165.188" stroke="#F6B9D5" stroke-linecap="round" stroke-linejoin="round"/>
<path d="M184.229 216.816C188.284 215.898 192.408 215.321 196.559 215.09C201.454 215.09 207.218 222.513 207.218 222.513C207.218 222.513 197.923 222.716 193.547 222.874C189.17 223.032 184.229 216.816 184.229 216.816Z" stroke="#F6B9D5" stroke-linecap="round" stroke-linejoin="round"/>
<path d="M184.229 216.816C184.229 216.816 196.637 217.279 205.244 221.543" stroke="#F6B9D5" stroke-linecap="round" stroke-linejoin="round"/>
<path d="M351.579 208.232C351.579 208.232 349.752 199.738 345.77 200.235C341.788 200.731 345.003 210.725 345.003 210.725C345.003 210.725 339.769 212.214 340.017 214.459C340.266 216.703 343.988 214.831 347.214 214.335C347.214 214.335 345.917 220.166 349.402 221.103C352.888 222.039 352.222 213.41 352.222 213.41C352.222 213.41 360.006 215 362.194 211.515C364.732 207.51 354.817 207.725 351.579 208.232Z" stroke="#F6B9D5" stroke-linecap="round" stroke-linejoin="round"/>
<path d="M351.58 205.615C351.58 205.615 344.315 216.658 344.744 217.82C345.172 218.982 353.035 208.232 354.343 206.924C355.652 205.615 353.328 203.72 351.58 205.615Z" fill="#263238" stroke="#F6B9D5" stroke-linecap="round" stroke-linejoin="round"/>
<path d="M354.343 206.924C354.343 206.924 359.137 202.558 361.461 204.307C363.785 206.055 361.032 206.337 360.739 205.762" stroke="#F6B9D5" stroke-linecap="round" stroke-linejoin="round"/>
<path d="M352.019 204.735C352.019 204.735 353.328 198.34 351.873 197.031C350.417 195.723 349.831 197.471 350.857 198.486" stroke="#F6B9D5" stroke-linecap="round" stroke-linejoin="round"/>
<path d="M282.512 154.912C278.632 149.272 272.631 154.765 271.018 156.446C269.394 154.765 263.393 149.249 259.512 154.912C255.282 161.059 270.871 173.873 271.018 173.817C271.164 173.76 286.72 161.048 282.512 154.912Z" stroke="#F6B9D5" stroke-linecap="round" stroke-linejoin="round"/>
<path d="M228.673 132.916C224.657 130.524 222.525 135.634 221.995 137.123C220.517 136.548 215.227 134.867 214.449 139.447C213.591 144.444 226.857 147.941 226.935 147.862C227.014 147.783 233.027 135.51 228.673 132.916Z" stroke="#F6B9D5" stroke-linecap="round" stroke-linejoin="round"/>
<path d="M191.234 179.434C186.576 179.085 186.936 184.612 187.14 186.202C185.56 186.349 180.078 187.172 181.421 191.639C182.876 196.501 196.321 193.704 196.344 193.602C196.367 193.5 196.288 179.818 191.234 179.434Z" stroke="#F6B9D5" stroke-linecap="round" stroke-linejoin="round"/>
<path d="M339.104 252.506C342.804 249.652 338.844 245.738 337.649 244.746C338.777 243.618 342.262 239.309 338.28 236.85C333.949 234.199 325.805 245.253 325.872 245.343C325.94 245.434 335.088 255.597 339.104 252.506Z" stroke="#F6B9D5" stroke-linecap="round" stroke-linejoin="round"/>
<path d="M317.537 176.592C320.064 174.246 322.89 172.244 325.94 170.636" stroke="#F6B9D5" stroke-linecap="round" stroke-linejoin="round"/>
<path d="M296.612 221.96C296.612 221.96 299.252 199.502 311.615 183.146" stroke="#F6B9D5" stroke-linecap="round" stroke-linejoin="round"/>
<path d="M263.269 231.492C264.335 233.142 265.299 234.856 266.156 236.624" stroke="#F6B9D5" stroke-linecap="round" stroke-linejoin="round"/>
<path d="M221.273 204.837C222.896 206.134 224.722 207.155 226.676 207.86C235.599 211.244 248.052 214.628 257.741 224.577" stroke="#F6B9D5" stroke-linecap="round" stroke-linejoin="round"/>
<path d="M217.088 194.324C216.649 196.69 217.048 199.135 218.216 201.239" stroke="#F6B9D5" stroke-linecap="round" stroke-linejoin="round"/>
<path d="M321.327 135.736C324.162 133.159 326.492 130.075 328.196 126.644" stroke="#F6B9D5" stroke-linecap="round" stroke-linejoin="round"/>
<path d="M287.904 168.696C289.741 164.08 292.3 159.785 295.484 155.972C301.902 148.335 308.817 144.692 314.965 140.575" stroke="#F6B9D5" stroke-linecap="round" stroke-linejoin="round"/>
<path d="M284.204 186.992C284.204 184.343 284.449 181.7 284.937 179.096" stroke="#F6B9D5" stroke-linecap="round" stroke-linejoin="round"/>
<path d="M319.375 232.766C324.067 230.397 330.655 228.615 339.476 229.292C361.472 230.984 371.624 237.752 381.212 224.78" stroke="#F6B9D5" stroke-linecap="round" stroke-linejoin="round"/>
<path d="M309.584 241.136C310.597 239.571 311.827 238.158 313.239 236.94" stroke="#F6B9D5" stroke-linecap="round" stroke-linejoin="round"/>
<path d="M356.351 181.747H353.339C351.523 181.747 348.207 179.637 349.718 177.821C351.23 176.005 356.351 180.235 356.351 180.235L351.839 166.056L361.495 161.544L365.42 174.821C365.42 174.821 359.385 172.407 358.776 175.114C358.167 177.821 362.702 177.528 365.42 176.321" stroke="#F6B9D5" stroke-linecap="round" stroke-linejoin="round"/>
<path d="M352.73 169.068L362.081 164.545" stroke="#F6B9D5" stroke-linecap="round" stroke-linejoin="round"/>
<path d="M377.095 177.235H375.11C373.903 177.235 371.726 175.836 372.707 174.64C373.688 173.445 377.095 176.231 377.095 176.231L374.106 166.857L380.49 163.868L383.085 172.644C383.085 172.644 379.092 171.053 378.697 172.847C378.302 174.64 381.291 174.437 383.085 173.636" stroke="#F6B9D5" stroke-linecap="round" stroke-linejoin="round"/>
<path d="M374.704 168.854L380.885 165.865" stroke="#F6B9D5" stroke-linecap="round" stroke-linejoin="round"/>
<path d="M201.691 167.083H199.705C198.498 167.083 196.321 165.684 197.303 164.488C198.284 163.293 201.691 166.079 201.691 166.079L198.702 156.705L205.086 153.716L207.68 162.492C207.68 162.492 203.687 160.901 203.293 162.695C202.898 164.488 205.887 164.285 207.68 163.484" stroke="#F6B9D5" stroke-linecap="round" stroke-linejoin="round"/>
<path d="M199.299 158.702L205.481 155.713" stroke="#F6B9D5" stroke-linecap="round" stroke-linejoin="round"/>
<path d="M390.8 198.791C390.8 198.791 398.967 196.332 397.67 191.504C396.542 187.421 392.729 191.504 392.729 191.504C392.729 191.504 395.098 187.669 391.601 185.864C388.104 184.059 387.089 189 387.089 189C387.089 189 386.39 184.42 383.209 186.529C380.028 188.639 386.739 199.941 386.739 199.941L390.8 198.791Z" stroke="#F6B9D5" stroke-linecap="round" stroke-linejoin="round"/>
<path d="M380.332 216.218C383.526 211.289 385.686 205.763 386.683 199.975L390.157 189.237" stroke="#F6B9D5" stroke-linecap="round" stroke-linejoin="round"/>
<path d="M384.562 207.747C384.901 205.525 384.398 203.256 383.152 201.385C381.907 199.293 380.365 197.393 378.573 195.745C378.573 195.745 377.512 199.626 378.212 202.096C378.911 204.566 384.562 207.747 384.562 207.747Z" stroke="#F6B9D5" stroke-linecap="round" stroke-linejoin="round"/>
<path d="M383.513 210.567C384.885 209.389 386.646 208.762 388.454 208.808H395.154C395.154 208.808 386.683 215.508 383.513 210.567Z" stroke="#F6B9D5" stroke-linecap="round" stroke-linejoin="round"/>
<path d="M385.6 191.053L386.66 199.4L392.582 195.001" stroke="#F6B9D5" stroke-linecap="round" stroke-linejoin="round"/>
<path d="M200.698 235.191C200.698 235.191 195.351 228.559 191.37 231.57C187.986 234.131 193.231 236.15 193.231 236.15C193.231 236.15 188.775 235.406 188.471 239.342C188.166 243.279 193.062 242.264 193.062 242.264C193.062 242.264 189.08 244.644 192.238 246.776C195.397 248.908 203.338 238.451 203.338 238.451L200.698 235.191Z" stroke="#F6B9D5" stroke-linecap="round" stroke-linejoin="round"/>
<path d="M220.765 238.293C215.001 237.186 209.071 237.263 203.338 238.519L192.058 239.354" stroke="#F6B9D5" stroke-linecap="round" stroke-linejoin="round"/>
<path d="M211.324 237.56C209.14 238.084 207.229 239.403 205.966 241.26C204.497 243.203 203.319 245.35 202.469 247.633C202.469 247.633 206.462 247.159 208.481 245.569C210.501 243.978 211.324 237.56 211.324 237.56Z" stroke="#F6B9D5" stroke-linecap="round" stroke-linejoin="round"/>
<path d="M214.336 237.481C212.725 236.655 211.479 235.26 210.839 233.567C209.655 230.623 208.324 227.352 208.324 227.352C208.324 227.352 217.72 232.676 214.336 237.481Z" stroke="#F6B9D5" stroke-linecap="round" stroke-linejoin="round"/>
<path d="M195.476 242.884L202.808 238.756L196.502 234.932" stroke="#F6B9D5" stroke-linecap="round" stroke-linejoin="round"/>
<path d="M255.259 206.833C254.922 206.063 254.546 205.31 254.131 204.577C252.112 200.866 249.146 197.606 244.487 198.272C236.591 199.4 251.255 211.808 253.895 212.18C257.143 212.643 256.308 209.338 255.259 206.833Z" fill="#F6B9D5"/>
<path d="M249.247 160.213C248.841 159.254 248.412 158.42 248.119 157.957C246.089 154.235 243.133 150.986 238.475 151.652C230.579 152.78 245.243 165.188 247.882 165.56C251.131 166.022 250.296 162.706 249.247 160.213Z" fill="#F6B9D5"/>
<path d="M328.613 211.413C327.609 211.706 326.73 212.045 326.244 212.237C322.319 213.816 318.743 216.388 318.867 221.091C319.082 229.066 333.091 215.925 333.768 213.342C334.592 210.217 331.208 210.68 328.613 211.413Z" fill="#F6B9D5"/>
<path d="M338.766 169.305C337.962 169.538 337.172 169.813 336.397 170.128C332.471 171.708 328.896 174.268 329.02 178.972C329.234 186.947 343.244 173.806 343.921 171.234C344.744 168.098 341.36 168.549 338.766 169.305Z" fill="#F6B9D5"/>
<path d="M396.575 166.688C395.774 166.917 394.987 167.192 394.218 167.511C390.292 169.091 386.716 171.651 386.841 176.355C387.055 184.33 401.065 171.189 401.741 168.617C402.565 165.447 399.181 165.898 396.575 166.688Z" fill="#F6B9D5"/>
<path d="M238.058 205.04C237.901 204.655 237.724 204.278 237.528 203.912C236.546 202.107 235.102 200.528 232.824 200.833C228.966 201.385 236.129 207.443 237.415 207.601C238.983 207.871 238.577 206.258 238.058 205.04Z" fill="#F6B9D5"/>
<path d="M210.523 175.78C210.14 175.453 209.756 175.182 209.553 175.035C207.85 173.851 205.853 173.084 203.969 174.392C200.766 176.648 209.88 178.814 211.11 178.408C212.576 177.9 211.527 176.648 210.523 175.78Z" fill="#F6B9D5"/>
<path d="M251.221 189.62C251.065 189.235 250.888 188.858 250.691 188.492C249.698 186.676 248.255 185.108 245.987 185.413C242.13 185.966 249.292 192.012 250.578 192.181C252.135 192.463 251.729 190.839 251.221 189.62Z" fill="#F6B9D5"/>
<path d="M184.816 164.218C184.662 163.832 184.485 163.455 184.286 163.09C183.304 161.274 181.861 159.706 179.582 160.01C175.724 160.563 182.887 166.62 184.173 166.778C185.741 167.049 185.335 165.436 184.816 164.218Z" fill="#F6B9D5"/>
<path d="M202.762 203.732C202.398 203.511 202.021 203.311 201.634 203.134C199.784 202.231 197.686 201.78 195.994 203.359C193.174 206.055 202.525 206.822 203.676 206.224C205.165 205.502 203.89 204.42 202.762 203.732Z" fill="#F6B9D5"/>
<path d="M247.837 145.256C247.681 144.871 247.504 144.494 247.307 144.128C246.315 142.323 244.871 140.744 242.604 141.048C238.746 141.601 245.909 147.659 247.194 147.816C248.751 148.087 248.345 146.474 247.837 145.256Z" fill="#F6B9D5"/>
<path d="M290.261 191.098C289.957 191.493 289.697 191.876 289.562 192.091C288.434 193.828 287.746 195.869 289.133 197.731C291.48 200.844 293.329 191.651 292.867 190.432C292.303 188.921 291.085 190.06 290.261 191.098Z" fill="#F6B9D5"/>
<path d="M308.31 214.786C308.005 215.181 307.746 215.564 307.61 215.779C306.482 217.516 305.794 219.557 307.182 221.419C309.528 224.532 311.378 215.339 310.915 214.12C310.351 212.609 309.133 213.748 308.31 214.786Z" fill="#F6B9D5"/>
<path d="M333.441 153.152C333.059 153.256 332.682 153.38 332.313 153.524C330.384 154.257 328.613 155.476 328.625 157.766C328.625 161.657 335.618 155.397 335.979 154.145C336.374 152.565 334.727 152.746 333.441 153.152Z" fill="#F6B9D5"/>
<path d="M289.878 138.973C289.517 139.323 289.201 139.661 289.032 139.853C287.667 141.398 286.663 143.304 287.757 145.324C289.596 148.708 292.822 139.954 292.562 138.691C292.235 137.134 290.848 138.071 289.878 138.973Z" fill="#F6B9D5"/>
<path d="M212.102 218.576C212.395 218.856 212.704 219.12 213.027 219.366C214.663 220.64 216.625 221.509 218.577 220.302C221.882 218.26 212.937 215.575 211.651 215.925C210.128 216.32 211.143 217.64 212.102 218.576Z" fill="#F6B9D5"/>
<path d="M353.034 153.569C352.538 153.569 352.076 153.569 351.816 153.569C349.752 153.693 347.699 154.325 347.022 156.513C345.894 160.236 354.411 156.344 355.121 155.261C355.99 153.942 354.365 153.626 353.034 153.569Z" fill="#F6B9D5"/>
</svg>
