<svg width="500" height="500" viewBox="0 0 500 500" fill="none" xmlns="http://www.w3.org/2000/svg">
<path d="M396.15 53.7485C396.15 53.7485 345.657 12.5094 279.98 30.7963C214.303 49.0833 186.807 105.617 149.144 144.556C129.416 164.923 100.28 172.427 76.8434 188.106C1.91317 238.235 13.0262 350.95 70.7917 393.465C120.811 430.27 183.308 434.121 264.653 406.977C345.998 379.833 404.193 363.515 454.63 285.757C505.068 207.999 458.349 109.721 396.15 53.7485Z" fill="#F6B9D5"/>
<path opacity="0.7" d="M396.15 53.7485C396.15 53.7485 345.657 12.5094 279.98 30.7963C214.303 49.0833 186.807 105.617 149.144 144.556C129.416 164.923 100.28 172.427 76.8434 188.106C1.91317 238.235 13.0262 350.95 70.7917 393.465C120.811 430.27 183.308 434.121 264.653 406.977C345.998 379.833 404.193 363.515 454.63 285.757C505.068 207.999 458.349 109.721 396.15 53.7485Z" fill="white"/>
<path d="M405.799 473.809H84.5127L116.641 427.596H373.671L405.799 473.809Z" fill="#263238" stroke="#263238" stroke-linecap="round" stroke-linejoin="round"/>
<path d="M416.956 411.73C416.956 411.73 384.454 362.162 389.295 350.785C394.136 339.408 411.301 358.916 411.301 358.916C411.301 358.916 386.104 292.282 403.17 277.648C420.235 263.014 425.924 337.79 425.924 337.79C425.924 337.79 441.328 294.713 453.552 310.965C465.777 327.216 434.847 361.347 434.847 361.347C434.847 361.347 455.973 362.162 450.251 375.981C444.53 389.801 429.126 404.424 429.126 404.424L416.956 411.73Z" fill="#F6B9D5"/>
<path d="M408 400.353C408 400.353 388.502 372.724 398.251 367.036C408 361.347 412.874 378.413 412.874 378.413C412.874 378.413 413.688 303.659 429.136 309.347C444.585 315.036 438.885 360.533 438.885 360.533C438.885 360.533 458.382 347.539 457.59 366.222C456.798 384.905 430.765 401.189 430.765 401.189" stroke="#263238" stroke-linecap="round" stroke-linejoin="round"/>
<path d="M425.891 401.981L408.825 383.287" stroke="#263238" stroke-linecap="round" stroke-linejoin="round"/>
<path d="M426.705 410.916L425.891 364.604" stroke="#263238" stroke-linecap="round" stroke-linejoin="round"/>
<path d="M427.52 395.479L442.957 375.167" stroke="#263238" stroke-linecap="round" stroke-linejoin="round"/>
<path d="M441.328 397.107H398.262L402.564 435.298H437.026L441.328 397.107Z" fill="#263238" stroke="#263238" stroke-linecap="round" stroke-linejoin="round"/>
<path d="M71.4632 411.73C71.4632 411.73 38.9605 362.162 43.8018 350.785C48.6431 339.408 65.8077 358.916 65.8077 358.916C65.8077 358.916 40.5779 292.26 57.6435 277.648C74.7091 263.036 80.3976 337.79 80.3976 337.79C80.3976 337.79 95.8018 294.713 108.026 310.965C120.25 327.216 89.3211 361.347 89.3211 361.347C89.3211 361.347 110.447 362.162 104.725 375.981C99.0037 389.801 83.5995 404.424 83.5995 404.424L71.4632 411.73Z" fill="#F6B9D5"/>
<path d="M64.8722 400.969C64.8722 400.969 44.6708 381.989 44.0546 373.462C43.4385 364.934 56.9171 375.299 62.4186 378.963C67.92 382.627 48.3458 355.087 48.9509 334.885C49.5561 314.684 60.5811 322.65 64.2561 331.221C67.931 339.793 69.7575 347.726 71.606 349.585C73.4545 351.445 76.5024 335.501 84.4575 339.782C97.1769 346.636 76.5024 369.776 80.7825 374.067C85.0627 378.358 94.8663 355.703 99.7626 367.949C104.659 380.196 83.8413 402.223 83.8413 402.223" stroke="#263238" stroke-linecap="round" stroke-linejoin="round"/>
<path d="M77.7236 399.737L62.4185 353.832" stroke="#263238" stroke-linecap="round" stroke-linejoin="round"/>
<path d="M69.7686 376.477L75.8862 362.404" stroke="#263238" stroke-linecap="round" stroke-linejoin="round"/>
<path d="M57.5225 385.664L74.6651 389.944L83.2364 383.827" stroke="#263238" stroke-linecap="round" stroke-linejoin="round"/>
<path d="M95.8347 397.107H52.769L57.0712 435.298H91.5325L95.8347 397.107Z" fill="#263238" stroke="#263238" stroke-linecap="round" stroke-linejoin="round"/>
<path d="M219.486 292.26C219.486 292.26 203.344 293.723 197.48 283.457C191.615 273.192 201.881 260.714 190.878 256.313C179.875 251.912 166.672 266.59 144.666 254.113C122.66 241.635 134.389 225.505 140.264 213.039C146.14 200.572 149.067 194.697 135.126 186.631C121.185 178.566 105.781 155.086 115.321 132.354C124.86 109.622 149.067 119.876 161.533 108.147C174 96.4181 162.997 82.4663 162.27 63.3982C161.544 44.33 187.203 29.6521 212.147 33.327C237.091 37.002 242.218 63.3982 242.218 80.2657C242.218 97.1333 268.625 101.545 281.102 82.4663C293.58 63.3872 303.835 58.997 322.176 67.0621C340.518 75.1273 325.114 102.272 333.917 106.673C342.719 111.074 350.047 89.8053 376.454 102.272C402.861 114.738 388.194 147.747 374.991 155.823C355.78 167.585 378.435 190.394 382.077 204.357C387.413 224.768 370.986 241.096 350.784 240.183C318.512 238.708 310.436 233.581 303.835 243.11C297.233 252.638 317.775 254.85 314.837 270.254C311.9 285.658 306.035 291.523 292.832 291.523C279.628 291.523 271.563 279.794 257.622 285.658C243.681 291.523 226.088 295.924 219.486 292.26Z" fill="#263238" stroke="#263238" stroke-linecap="round" stroke-linejoin="round"/>
<path d="M193.992 397.338C191.626 406.115 190.789 415.234 191.516 424.296C192.892 438.324 200.044 445.751 231.127 450.428C262.21 455.104 283.666 451.253 300.996 443.001C318.326 434.748 314.397 405.139 309.897 398.351C305.397 391.562 288.067 390.186 260.01 392.662C231.952 395.138 214.623 390.736 204.445 392.387C194.267 394.037 193.992 397.338 193.992 397.338Z" fill="#696969" stroke="#263238" stroke-linecap="round" stroke-linejoin="round"/>
<path opacity="0.3" d="M293.018 401.739C293.018 401.739 278.164 405.59 267.711 408.341C257.259 411.092 256.158 412.192 265.511 413.292C274.863 414.393 292.468 413.292 292.468 413.292C292.468 413.292 267.711 424.846 254.508 427.596C241.304 430.347 217.098 421.545 214.347 419.344C211.596 417.144 225.9 417.144 229.751 415.493C233.602 413.843 231.402 411.642 217.648 409.441C203.894 407.241 206.645 419.894 218.748 428.697C230.851 437.499 238.003 440.25 253.683 437.499C269.362 434.748 290.818 428.147 297.97 414.943C305.121 401.739 293.018 401.739 293.018 401.739Z" fill="black"/>
<path d="M186.983 313.661L185.156 350.411C185.156 350.411 181.855 358.949 187.797 364.428C193.738 369.908 201.396 368.29 205.402 361.182C209.407 354.074 208.856 337.625 209.869 331.122C210.881 324.62 202.97 317.919 196.467 315.487C189.964 313.055 186.983 313.661 186.983 313.661Z" fill="white" stroke="#263238" stroke-linecap="round" stroke-linejoin="round"/>
<path d="M315.652 313.661L317.478 350.411C317.478 350.411 320.724 358.949 314.837 364.428C308.951 369.908 301.227 368.29 297.167 361.182C293.106 354.074 293.712 337.625 292.699 331.122C291.687 324.62 299.609 317.919 306.101 315.487C312.593 313.055 315.652 313.661 315.652 313.661Z" fill="white" stroke="#263238" stroke-linecap="round" stroke-linejoin="round"/>
<path d="M236.706 258.899C236.706 258.899 237.399 274.193 233.691 280.674C229.983 287.155 218.166 286.758 210.53 286.758C202.894 286.758 191.527 293.008 187.819 299.269C185.022 304.402 182.624 309.744 180.646 315.245L206.128 328.911C206.128 328.911 203.345 334.247 206.128 342.114C208.912 349.982 213.071 353.007 211.916 356.946C210.761 360.885 195.698 388.91 194.311 393.311C193.61 395.349 193.07 397.439 192.694 399.561C192.694 399.561 224.888 405.822 252.913 404.897C280.938 403.973 309.897 398.406 309.897 398.406C309.897 398.406 301.326 383.354 296.694 374.782C292.062 366.211 287.891 357.409 288.816 354.394C289.74 351.379 295.076 343.281 294.845 329.142C294.845 329.142 315.454 323.816 323.101 315.245C323.101 315.245 314.068 292.777 304.803 289.069C295.539 285.361 284.888 289.069 277.296 286.99C269.704 284.91 265.709 281.191 264.554 278.418C263.399 275.645 262.233 262.662 262.695 259.658L236.706 258.899Z" fill="#F6B9D5" stroke="#263238" stroke-linecap="round" stroke-linejoin="round"/>
<path opacity="0.3" d="M213.247 348.375C213.247 348.375 205.545 340.123 214.347 339.022C223.15 337.922 235.803 346.725 249.557 350.025C263.31 353.326 279.815 338.472 286.967 340.673C294.119 342.874 289.718 353.877 282.016 358.828C274.313 363.779 252.858 363.229 240.754 362.679C228.651 362.129 222.599 358.828 213.247 348.375Z" fill="black"/>
<path d="M223.15 353.48C223.15 353.48 227.342 356.836 238.554 356.836C249.766 356.836 258.359 351.808 266.216 353.205" stroke="#263238" stroke-linecap="round" stroke-linejoin="round"/>
<path d="M218.396 354.317C218.396 354.317 223.138 358.234 232.92 358.509" stroke="#263238" stroke-linecap="round" stroke-linejoin="round"/>
<path d="M206.128 328.856C206.128 328.856 206.931 324.708 212.246 320.791" stroke="#263238" stroke-linecap="round" stroke-linejoin="round"/>
<path d="M294.845 329.087C294.845 329.087 292.985 321.077 287.957 319.393" stroke="#263238" stroke-linecap="round" stroke-linejoin="round"/>
<path d="M251.526 315.19C269.648 314.475 275.337 297.035 277.119 286.901C269.56 284.811 265.654 281.125 264.499 278.363C263.343 275.601 262.177 262.607 262.639 259.603L236.705 258.899C236.705 258.899 237.398 274.193 233.69 280.674C231.798 283.975 227.771 285.493 223.271 286.175C224.987 293.448 231.952 315.971 251.526 315.19Z" fill="white"/>
<path opacity="0.3" d="M263.09 270.32C262.628 266.768 262.478 263.182 262.639 259.603L236.705 258.899C236.841 262.839 236.705 266.784 236.298 270.705C240.853 273.687 250.085 277.252 263.09 270.32Z" fill="black"/>
<path d="M251.526 315.19C269.648 314.475 275.337 297.035 277.119 286.901C269.56 284.811 265.654 281.125 264.499 278.363C263.343 275.601 262.177 262.607 262.639 259.603L236.705 258.899C236.705 258.899 237.398 274.193 233.69 280.674C231.798 283.975 227.771 285.493 223.271 286.175C224.987 293.448 231.952 315.971 251.526 315.19Z" stroke="#263238" stroke-linecap="round" stroke-linejoin="round"/>
<path d="M225.702 227.342C225.702 227.342 222.402 221.962 219.156 225.241C215.91 228.52 219.156 235.055 221.257 238.092C223.359 241.129 227.331 243.462 228.266 242.295C229.201 241.129 225.702 227.342 225.702 227.342Z" fill="white" stroke="#263238" stroke-linecap="round" stroke-linejoin="round"/>
<path d="M276.404 226.858C276.404 226.858 281.08 220.785 283.655 226.627C286.229 232.47 279.254 241.349 275.953 242.989C272.652 244.628 274.313 239.248 274.544 237.377C274.775 235.507 276.404 226.858 276.404 226.858Z" fill="white" stroke="#263238" stroke-linecap="round" stroke-linejoin="round"/>
<path d="M223.15 206.767C223.15 206.767 224.789 228.971 225.956 240.183C227.122 251.395 231.303 261.452 244.155 264.753C257.006 268.053 267.261 263.586 271.035 256.104C274.809 248.622 276.877 234.373 276.877 222.688V203.983C276.877 203.983 243.692 194.62 223.15 206.767Z" fill="white" stroke="#263238" stroke-linecap="round" stroke-linejoin="round"/>
<path d="M247.895 238.543C249.083 239.332 250.447 239.816 251.867 239.952C253.355 239.797 254.79 239.316 256.07 238.543" stroke="#263238" stroke-linecap="round" stroke-linejoin="round"/>
<path d="M244.859 245.794C244.859 245.794 250.701 249.535 259.163 245.321" stroke="#263238" stroke-linecap="round" stroke-linejoin="round"/>
<path d="M235.517 226.858C235.517 226.858 240.424 226.165 243.219 228.036" stroke="#263238" stroke-width="2" stroke-linecap="round" stroke-linejoin="round"/>
<path d="M258.414 227.793C258.414 227.793 263.09 225.461 267.525 227.562" stroke="#263238" stroke-width="2" stroke-linecap="round" stroke-linejoin="round"/>
<path d="M224.536 224.735C226.139 222.032 227.392 219.137 228.266 216.119C229.687 212.169 230.129 207.933 229.554 203.774C227.332 204.575 225.189 205.576 223.15 206.767C223.15 206.767 223.766 215.47 224.536 224.735Z" fill="#263238" stroke="#263238" stroke-linecap="round" stroke-linejoin="round"/>
<path d="M276.866 222.875C276.866 222.798 276.866 222.732 276.866 222.655V203.95C276.866 203.95 274.578 203.312 270.848 202.586C271.09 206.217 272.179 217.165 276.866 222.875Z" fill="#263238" stroke="#263238" stroke-linecap="round" stroke-linejoin="round"/>
<path d="M233.646 218.683C233.646 218.683 237.619 213.314 246.025 214.942" stroke="#263238" stroke-linecap="round" stroke-linejoin="round"/>
<path d="M257.941 215.646C259.859 214.944 261.93 214.769 263.939 215.139C265.947 215.508 267.82 216.409 269.362 217.748" stroke="#263238" stroke-linecap="round" stroke-linejoin="round"/>
<path d="M253.683 437.499C253.683 437.499 242.955 437.499 223.7 418.519C204.445 399.539 192.341 383.585 177.487 376.983C162.633 370.381 148.329 384.96 149.155 400.639C149.98 416.318 161.533 438.324 195.917 450.978C230.302 463.631 259.734 458.405 262.76 458.405C265.786 458.405 280.64 465.832 289.443 466.657C294.288 467.176 299.176 467.176 304.021 466.657C304.021 466.657 306.497 466.932 307.872 466.932C309.248 466.932 310.898 465.282 310.898 465.282C310.898 465.282 313.682 466.008 314.782 464.082C315.883 462.157 315.024 461.431 315.024 461.431C315.024 461.431 319.734 461.838 321.384 458.812C323.035 455.786 320.68 455.907 320.68 455.907C320.68 455.907 323.904 455.28 323.827 452.683C323.887 451.716 323.698 450.75 323.277 449.877C323.277 449.877 325.202 446.852 324.377 444.376C323.552 441.9 320.526 441.075 317.5 442.45C314.474 443.826 299.895 443.276 288.067 442.45C276.239 441.625 253.683 437.499 253.683 437.499Z" fill="white" stroke="#263238" stroke-linecap="round" stroke-linejoin="round"/>
<path d="M248.897 436.399C243.989 434.627 235.429 430.116 223.7 418.552C204.445 399.539 192.341 383.585 177.487 376.983C162.633 370.381 148.329 384.96 149.155 400.639C149.98 416.318 161.533 438.324 195.917 450.978C208.741 455.662 222.184 458.439 235.814 459.219C248.313 454.003 249.48 443.001 248.897 436.399Z" fill="#696969"/>
<path opacity="0.3" d="M244.221 453.277C238.796 451.22 232.458 449.019 225.351 446.852C200.044 439.15 181.339 429.797 168.685 415.493C156.032 401.189 160.433 383.035 160.433 383.035L157.517 380.394C154.718 382.944 152.516 386.081 151.07 389.581C149.625 393.081 148.971 396.857 149.155 400.639C149.98 416.318 161.533 438.324 195.918 450.978C208.742 455.662 222.184 458.439 235.814 459.219C239.049 457.935 241.931 455.898 244.221 453.277V453.277Z" fill="black"/>
<path d="M248.897 436.399C243.989 434.627 235.429 430.116 223.7 418.552C204.445 399.539 192.341 383.585 177.487 376.983C162.633 370.381 148.329 384.96 149.155 400.639C149.98 416.318 161.533 438.324 195.917 450.978C208.741 455.662 222.184 458.439 235.814 459.219C248.313 454.003 249.48 443.001 248.897 436.399Z" stroke="#263238" stroke-linecap="round" stroke-linejoin="round"/>
<path d="M323.277 449.877C322.433 449.498 321.514 449.312 320.588 449.335C319.663 449.358 318.754 449.589 317.93 450.009" fill="white"/>
<path d="M323.277 449.877C322.433 449.498 321.514 449.312 320.588 449.335C319.663 449.358 318.754 449.589 317.93 450.009" stroke="#263238" stroke-linecap="round" stroke-linejoin="round"/>
<path d="M320.68 455.907C319.259 455.392 317.701 455.392 316.279 455.907Z" fill="white"/>
<path d="M320.68 455.907C319.259 455.392 317.701 455.392 316.279 455.907" stroke="#263238" stroke-linecap="round" stroke-linejoin="round"/>
<path d="M315.024 461.43C314.008 460.666 312.75 460.295 311.481 460.385Z" fill="white"/>
<path d="M315.024 461.43C314.008 460.666 312.75 460.295 311.481 460.385" stroke="#263238" stroke-linecap="round" stroke-linejoin="round"/>
<path d="M310.613 465.006C310.613 465.006 309.435 462.883 307.708 462.883Z" fill="white"/>
<path d="M310.613 465.006C310.613 465.006 309.435 462.883 307.708 462.883" stroke="#263238" stroke-linecap="round" stroke-linejoin="round"/>
<path d="M241.481 437.499C241.481 437.499 252.209 437.499 271.464 418.519C290.719 399.539 302.822 383.585 317.676 376.983C332.53 370.381 346.834 384.96 346.009 400.639C345.184 416.318 333.631 438.324 299.246 450.978C264.862 463.631 235.429 458.405 232.403 458.405C229.377 458.405 214.523 465.832 205.721 466.657C200.875 467.176 195.988 467.176 191.142 466.657C191.142 466.657 188.666 466.932 187.291 466.932C185.916 466.932 184.265 465.282 184.265 465.282C184.265 465.282 181.482 466.008 180.381 464.082C179.281 462.157 180.139 461.431 180.139 461.431C180.139 461.431 175.419 461.838 173.768 458.812C172.118 455.786 174.473 455.907 174.473 455.907C174.473 455.907 171.249 455.28 171.326 452.683C171.262 451.715 171.456 450.747 171.887 449.877C171.887 449.877 169.961 446.852 170.787 444.376C171.612 441.9 174.638 441.075 177.664 442.45C180.689 443.826 195.268 443.276 207.096 442.45C218.925 441.625 241.481 437.499 241.481 437.499Z" fill="white" stroke="#263238" stroke-linecap="round" stroke-linejoin="round"/>
<path d="M246.256 436.399C251.152 434.627 259.713 430.116 271.453 418.552C290.708 399.572 302.811 383.617 317.665 377.016C332.519 370.414 346.823 384.993 345.998 400.672C345.173 416.351 333.62 438.357 299.235 451.011C286.408 455.696 272.962 458.473 259.327 459.252C246.839 454.003 245.684 443 246.256 436.399Z" fill="#696969"/>
<path opacity="0.3" d="M346.009 400.639C346.581 389.713 339.803 379.337 330.604 376.268L326.577 379.183C326.577 379.183 340.331 387.436 337.03 403.39C333.729 419.344 306.772 435.849 285.316 444.651C274.634 448.838 263.67 452.269 252.505 454.917C254.511 456.744 256.824 458.2 259.338 459.219C272.972 458.44 286.418 455.663 299.246 450.978C333.63 438.324 345.183 416.318 346.009 400.639Z" fill="black"/>
<path d="M246.256 436.399C251.152 434.627 259.713 430.116 271.453 418.552C290.708 399.572 302.811 383.617 317.665 377.016C332.519 370.414 346.823 384.993 345.998 400.672C345.173 416.351 333.62 438.357 299.235 451.011C286.408 455.696 272.962 458.473 259.327 459.252C246.839 454.003 245.684 443 246.256 436.399Z" stroke="#263238" stroke-linecap="round" stroke-linejoin="round"/>
<path d="M171.887 449.877C172.732 449.498 173.65 449.312 174.576 449.335C175.501 449.358 176.41 449.589 177.235 450.009" fill="white"/>
<path d="M171.887 449.877C172.732 449.498 173.65 449.312 174.576 449.335C175.501 449.358 176.41 449.589 177.235 450.009" stroke="#263238" stroke-linecap="round" stroke-linejoin="round"/>
<path d="M174.473 455.907C175.894 455.392 177.452 455.392 178.874 455.907Z" fill="white"/>
<path d="M174.473 455.907C175.894 455.392 177.452 455.392 178.874 455.907" stroke="#263238" stroke-linecap="round" stroke-linejoin="round"/>
<path d="M180.14 461.43C181.156 460.666 182.414 460.295 183.683 460.385Z" fill="white"/>
<path d="M180.14 461.43C181.156 460.666 182.414 460.295 183.683 460.385" stroke="#263238" stroke-linecap="round" stroke-linejoin="round"/>
<path d="M184.551 465.007C184.551 465.007 185.74 462.806 187.456 462.806Z" fill="white"/>
<path d="M184.551 465.007C184.551 465.007 185.74 462.806 187.456 462.806" stroke="#263238" stroke-linecap="round" stroke-linejoin="round"/>
<path d="M191.648 352.853C191.648 352.853 187.588 352.039 180.282 355.692C172.976 359.345 166.264 365.848 162.402 368.081C158.54 370.315 155.91 371.745 152.499 368.29C149.089 364.836 141.739 355.285 134.829 355.494C127.919 355.703 125.487 365.243 126.708 367.267C127.93 369.292 129.756 369.71 131.176 368.081C132.595 366.453 134.422 363.207 136.248 364.428C138.075 365.65 137.062 371.338 134.223 372.351C131.385 373.363 123.661 378.237 125.487 381.087C127.314 383.937 137.678 387.788 145.392 388.393C153.105 388.998 162.655 383.728 168.949 382.704C175.243 381.681 192.308 380.504 200.219 373.979C202.498 372.125 204.244 369.7 205.28 366.952C206.316 364.203 206.605 361.229 206.117 358.333" fill="white"/>
<path d="M191.648 352.853C191.648 352.853 187.588 352.039 180.282 355.692C172.976 359.345 166.264 365.848 162.402 368.081C158.54 370.315 155.91 371.745 152.499 368.29C149.089 364.836 141.739 355.285 134.829 355.494C127.919 355.703 125.487 365.243 126.708 367.267C127.93 369.292 129.756 369.71 131.176 368.081C132.595 366.453 134.422 363.207 136.248 364.428C138.075 365.65 137.062 371.338 134.223 372.351C131.385 373.363 123.661 378.237 125.487 381.087C127.314 383.937 137.678 387.788 145.392 388.393C153.105 388.998 162.655 383.728 168.949 382.704C175.243 381.681 192.308 380.504 200.219 373.979C202.498 372.125 204.244 369.7 205.28 366.952C206.316 364.203 206.605 361.229 206.117 358.333" stroke="#263238" stroke-linecap="round" stroke-linejoin="round"/>
<path d="M126.456 376.818C126.456 376.818 125.652 367.883 123.012 367.267C120.371 366.651 119.964 372.769 120.371 378.644C120.778 384.52 124.024 386.159 126.049 384.531C128.073 382.902 126.456 376.818 126.456 376.818Z" fill="white" stroke="#263238" stroke-linecap="round" stroke-linejoin="round"/>
<path d="M132.805 379.337C132.805 379.337 133.575 370.392 131.088 369.325C128.602 368.257 127.127 374.188 126.478 380.053C125.829 385.917 128.756 388.096 131.044 386.863C133.333 385.631 132.805 379.337 132.805 379.337Z" fill="white" stroke="#263238" stroke-linecap="round" stroke-linejoin="round"/>
<path d="M138.284 381.384C138.284 381.384 139.065 372.45 136.568 371.382C134.07 370.315 132.607 376.246 131.968 382.11C131.33 387.975 134.235 390.153 136.524 388.91C138.812 387.667 138.284 381.384 138.284 381.384Z" fill="white" stroke="#263238" stroke-linecap="round" stroke-linejoin="round"/>
<path d="M152.654 387.986C148.967 389.686 144.94 390.522 140.881 390.428C140.646 388.743 140.51 387.046 140.474 385.345C140.474 383.144 145.139 373.979 152.049 374.584" fill="white"/>
<path d="M152.654 387.986C148.967 389.686 144.94 390.522 140.881 390.428C140.646 388.743 140.51 387.046 140.474 385.345C140.474 383.144 145.139 373.979 152.049 374.584" stroke="#263238" stroke-linecap="round" stroke-linejoin="round"/>
<path d="M144.105 384.872C144.105 384.872 146.691 377.874 144.556 376.246C142.421 374.617 139.792 378.952 137.954 383.508C136.117 388.063 138.438 390.725 140.859 390.428C143.28 390.131 144.105 384.872 144.105 384.872Z" fill="white" stroke="#263238" stroke-linecap="round" stroke-linejoin="round"/>
<path d="M310.975 352.853C310.975 352.853 315.035 352.039 322.352 355.692C329.669 359.345 336.359 365.848 340.221 368.081C344.083 370.315 346.724 371.745 350.179 368.29C353.634 364.836 360.94 355.285 367.839 355.494C374.738 355.703 377.18 365.243 375.97 367.267C374.76 369.292 372.922 369.71 371.503 368.081C370.083 366.453 368.202 363.207 366.419 364.428C364.637 365.65 365.605 371.338 368.455 372.351C371.305 373.363 379.018 378.237 377.18 381.087C375.343 383.937 365 387.788 357.287 388.393C349.574 388.998 340.023 383.728 333.718 382.704C327.414 381.681 310.37 380.504 302.448 373.979C300.17 372.125 298.425 369.7 297.39 366.951C296.356 364.203 296.07 361.228 296.561 358.333" fill="white"/>
<path d="M310.975 352.853C310.975 352.853 315.035 352.039 322.352 355.692C329.669 359.345 336.359 365.848 340.221 368.081C344.083 370.315 346.724 371.745 350.179 368.29C353.634 364.836 360.94 355.285 367.839 355.494C374.738 355.703 377.18 365.243 375.97 367.267C374.76 369.292 372.922 369.71 371.503 368.081C370.083 366.453 368.202 363.207 366.419 364.428C364.637 365.65 365.605 371.338 368.455 372.351C371.305 373.363 379.018 378.237 377.18 381.087C375.343 383.937 365 387.788 357.287 388.393C349.574 388.998 340.023 383.728 333.718 382.704C327.414 381.681 310.37 380.504 302.448 373.979C300.17 372.125 298.425 369.7 297.39 366.951C296.356 364.203 296.07 361.228 296.561 358.333" stroke="#263238" stroke-linecap="round" stroke-linejoin="round"/>
<path d="M376.168 376.818C376.168 376.818 376.982 367.883 379.623 367.267C382.264 366.651 382.671 372.769 382.264 378.644C381.856 384.52 378.611 386.159 376.575 384.531C374.54 382.902 376.168 376.818 376.168 376.818Z" fill="white" stroke="#263238" stroke-linecap="round" stroke-linejoin="round"/>
<path d="M369.83 379.337C369.83 379.337 369.049 370.392 371.536 369.325C374.022 368.257 375.508 374.188 376.146 380.053C376.784 385.917 373.89 388.096 371.591 386.885C369.291 385.675 369.83 379.337 369.83 379.337Z" fill="white" stroke="#263238" stroke-linecap="round" stroke-linejoin="round"/>
<path d="M364.34 381.384C364.34 381.384 363.57 372.45 366.057 371.382C368.543 370.315 370.029 376.246 370.667 382.11C371.305 387.975 368.389 390.153 366.112 388.91C363.834 387.667 364.34 381.384 364.34 381.384Z" fill="white" stroke="#263238" stroke-linecap="round" stroke-linejoin="round"/>
<path d="M349.97 387.986C353.671 389.692 357.713 390.527 361.787 390.428C362.022 388.743 362.158 387.046 362.194 385.345C362.194 383.144 357.518 373.979 350.608 374.584" fill="white"/>
<path d="M349.97 387.986C353.671 389.692 357.713 390.527 361.787 390.428C362.022 388.743 362.158 387.046 362.194 385.345C362.194 383.144 357.518 373.979 350.608 374.584" stroke="#263238" stroke-linecap="round" stroke-linejoin="round"/>
<path d="M358.486 384.872C358.486 384.872 355.901 377.874 358.035 376.246C360.17 374.617 362.789 378.952 364.637 383.508C366.486 388.063 364.153 390.725 361.732 390.428C359.312 390.131 358.486 384.872 358.486 384.872Z" fill="white" stroke="#263238" stroke-linecap="round" stroke-linejoin="round"/>
<path d="M271.563 193.233C268.977 189.481 264.961 193.134 263.927 194.256C262.827 193.156 258.877 189.481 256.302 193.233C253.496 197.315 263.839 205.82 263.927 205.776C264.015 205.732 274.336 197.315 271.563 193.233Z" stroke="#F6B9D5" stroke-linecap="round" stroke-linejoin="round"/>
<path d="M245.871 196.6C242.641 192.252 238.29 188.864 233.284 186.796C225.229 183.65 230.478 177.356 233.977 179.094C236.235 180.203 238.574 181.138 240.975 181.889C240.975 181.889 231.875 174.539 231.534 168.245C231.193 161.952 240.975 169.995 240.975 169.995C240.975 169.995 229.08 153.622 232.931 150.762C236.782 147.901 240.27 153.215 242.724 157.76C244.466 161.156 245.984 164.662 247.268 168.256C247.268 168.256 246.575 156.714 250.426 160.213C254.277 163.712 251.823 181.207 251.823 181.207C251.823 181.207 257.072 166.903 259.526 174.605C261.979 182.307 246.927 195.544 245.871 196.6Z" stroke="#F6B9D5" stroke-linecap="round" stroke-linejoin="round"/>
<path d="M245.871 196.6C245.871 196.6 251.471 179.798 239.929 158.09" stroke="#F6B9D5" stroke-linecap="round" stroke-linejoin="round"/>
<path d="M226.671 85.0629C222.659 85.0324 218.715 86.0936 215.261 88.1327C209.759 91.4336 208.439 85.569 211.036 84.2817C212.696 83.44 214.292 82.4764 215.811 81.3989C215.811 81.3989 207.405 83.4895 203.531 80.8818C199.658 78.2741 208.78 76.0845 208.78 76.0845C208.78 76.0845 193.761 75.7764 193.827 72.2555C193.893 68.7345 198.547 68.9546 202.332 69.5927C205.115 70.08 207.864 70.7452 210.562 71.5843C210.562 71.5843 203.432 66.842 207.206 66.0828C210.98 65.3236 220.234 74.6211 220.234 74.6211C220.234 74.6211 214.105 65.1255 219.739 67.1061C225.372 69.0866 226.517 83.9736 226.671 85.0629Z" stroke="#F6B9D5" stroke-linecap="round" stroke-linejoin="round"/>
<path d="M226.67 85.0629C226.67 85.0629 219.254 74.258 201.287 71.3972" stroke="#F6B9D5" stroke-linecap="round" stroke-linejoin="round"/>
<path d="M296.166 154.58C295.854 154.586 295.544 154.627 295.241 154.701C295.707 154.257 296.059 153.708 296.268 153.1C296.477 152.491 296.537 151.842 296.442 151.206C296.348 150.57 296.103 149.965 295.726 149.444C295.35 148.923 294.854 148.499 294.28 148.209C293.706 147.919 293.07 147.772 292.427 147.778C291.784 147.785 291.152 147.946 290.584 148.248C290.017 148.55 289.53 148.984 289.164 149.513C288.799 150.043 288.566 150.652 288.485 151.29C288.228 150.746 287.851 150.267 287.384 149.889C286.916 149.51 286.369 149.242 285.784 149.103C285.199 148.964 284.59 148.958 284.002 149.086C283.414 149.214 282.862 149.473 282.388 149.843C281.913 150.213 281.528 150.684 281.26 151.223C280.993 151.762 280.849 152.354 280.841 152.955C280.833 153.557 280.96 154.153 281.213 154.698C281.465 155.244 281.838 155.726 282.302 156.109C281.783 156.369 281.326 156.739 280.963 157.192C280.601 157.646 280.341 158.173 280.202 158.736C280.062 159.3 280.047 159.887 280.157 160.458C280.266 161.028 280.498 161.567 280.836 162.039C281.175 162.511 281.611 162.904 282.116 163.191C282.621 163.478 283.182 163.652 283.76 163.701C284.339 163.751 284.921 163.674 285.467 163.476C286.013 163.279 286.51 162.965 286.923 162.557C287.014 163.565 287.483 164.502 288.237 165.178C288.99 165.854 289.971 166.22 290.984 166.202C291.996 166.184 292.964 165.783 293.692 165.08C294.421 164.377 294.857 163.425 294.911 162.414C295.316 162.549 295.739 162.623 296.166 162.634C297.234 162.634 298.258 162.21 299.013 161.454C299.768 160.699 300.193 159.675 300.193 158.607C300.193 157.539 299.768 156.514 299.013 155.759C298.258 155.004 297.234 154.58 296.166 154.58V154.58Z" stroke="#F6B9D5" stroke-linecap="round" stroke-linejoin="round"/>
<path d="M289.31 160.532C290.848 160.532 292.094 159.286 292.094 157.748C292.094 156.211 290.848 154.965 289.31 154.965C287.773 154.965 286.526 156.211 286.526 157.748C286.526 159.286 287.773 160.532 289.31 160.532Z" stroke="#F6B9D5" stroke-linecap="round" stroke-linejoin="round"/>
<path d="M215.646 186.257C215.33 186.263 215.017 186.303 214.71 186.378C215.178 185.936 215.533 185.387 215.745 184.778C215.956 184.17 216.018 183.519 215.925 182.881C215.833 182.244 215.588 181.638 215.211 181.115C214.835 180.592 214.339 180.167 213.764 179.876C213.189 179.585 212.552 179.437 211.908 179.444C211.264 179.451 210.63 179.613 210.062 179.916C209.493 180.219 209.006 180.655 208.641 181.186C208.276 181.717 208.044 182.328 207.965 182.967C207.571 182.146 206.909 181.484 206.088 181.088C205.267 180.693 204.337 180.588 203.449 180.792C202.561 180.995 201.768 181.495 201.201 182.208C200.635 182.921 200.327 183.806 200.329 184.717C200.33 185.304 200.461 185.884 200.712 186.414C200.963 186.945 201.328 187.414 201.782 187.787C201.263 188.047 200.806 188.416 200.443 188.87C200.081 189.323 199.821 189.85 199.682 190.414C199.542 190.978 199.527 191.565 199.637 192.135C199.746 192.705 199.978 193.245 200.316 193.717C200.655 194.189 201.091 194.582 201.596 194.869C202.101 195.156 202.662 195.33 203.24 195.379C203.819 195.428 204.401 195.351 204.947 195.154C205.493 194.956 205.99 194.642 206.403 194.234C206.51 195.229 206.985 196.148 207.735 196.81C208.486 197.472 209.457 197.829 210.457 197.811C211.457 197.793 212.415 197.402 213.141 196.713C213.867 196.025 214.309 195.089 214.38 194.091C214.787 194.233 215.215 194.307 215.646 194.311C216.714 194.311 217.738 193.887 218.493 193.132C219.248 192.377 219.673 191.352 219.673 190.284C219.673 189.216 219.248 188.192 218.493 187.437C217.738 186.681 216.714 186.257 215.646 186.257V186.257Z" stroke="#F6B9D5" stroke-linecap="round" stroke-linejoin="round"/>
<path d="M208.78 192.21C210.317 192.21 211.564 190.964 211.564 189.426C211.564 187.889 210.317 186.642 208.78 186.642C207.242 186.642 205.996 187.889 205.996 189.426C205.996 190.964 207.242 192.21 208.78 192.21Z" stroke="#F6B9D5" stroke-linecap="round" stroke-linejoin="round"/>
<path d="M213.445 136.216C213.249 136.219 213.053 136.245 212.862 136.293C213.11 136.062 213.307 135.783 213.442 135.472C213.576 135.162 213.645 134.827 213.643 134.488C213.674 133.834 213.446 133.195 213.009 132.707C212.572 132.219 211.961 131.923 211.308 131.881C210.655 131.839 210.011 132.055 209.516 132.483C209.02 132.911 208.713 133.517 208.659 134.169C208.498 133.831 208.264 133.534 207.972 133.299C207.681 133.064 207.341 132.897 206.977 132.811C206.612 132.725 206.234 132.723 205.868 132.803C205.502 132.883 205.16 133.045 204.865 133.275C204.57 133.506 204.331 133.8 204.165 134.135C203.999 134.47 203.911 134.839 203.906 135.213C203.902 135.587 203.982 135.958 204.14 136.297C204.298 136.636 204.53 136.936 204.819 137.173C204.406 137.374 204.057 137.687 203.812 138.075C203.567 138.464 203.436 138.914 203.433 139.374C203.418 139.88 203.556 140.378 203.83 140.804C204.104 141.23 204.5 141.563 204.967 141.76C205.434 141.956 205.949 142.007 206.445 141.905C206.941 141.803 207.394 141.553 207.746 141.189C207.815 141.808 208.113 142.379 208.582 142.789C209.05 143.2 209.655 143.42 210.278 143.408C210.9 143.395 211.496 143.151 211.948 142.722C212.399 142.293 212.675 141.711 212.719 141.09C212.969 141.183 213.234 141.231 213.5 141.233C214.166 141.233 214.804 140.969 215.274 140.498C215.745 140.028 216.009 139.39 216.009 138.724C216.009 138.059 215.745 137.421 215.274 136.95C214.804 136.48 214.166 136.216 213.5 136.216H213.445Z" stroke="#F6B9D5" stroke-linecap="round" stroke-linejoin="round"/>
<path d="M209.176 139.924C210.136 139.924 210.914 139.145 210.914 138.185C210.914 137.225 210.136 136.447 209.176 136.447C208.216 136.447 207.438 137.225 207.438 138.185C207.438 139.145 208.216 139.924 209.176 139.924Z" stroke="#F6B9D5" stroke-linecap="round" stroke-linejoin="round"/>
<path d="M190.768 213.038C190.575 213.042 190.383 213.067 190.196 213.115C190.44 212.883 190.634 212.602 190.766 212.292C190.899 211.982 190.966 211.648 190.966 211.311C190.963 210.678 190.72 210.07 190.286 209.61C189.852 209.149 189.259 208.87 188.628 208.83C187.997 208.789 187.373 208.99 186.884 209.391C186.395 209.793 186.076 210.365 185.992 210.992C185.83 210.656 185.595 210.362 185.304 210.129C185.013 209.897 184.674 209.732 184.311 209.648C183.948 209.563 183.571 209.561 183.207 209.641C182.843 209.721 182.502 209.882 182.208 210.111C181.914 210.34 181.676 210.632 181.509 210.965C181.343 211.298 181.253 211.665 181.247 212.037C181.241 212.41 181.318 212.779 181.472 213.118C181.627 213.457 181.856 213.756 182.141 213.996C181.82 214.158 181.538 214.388 181.313 214.67C181.089 214.952 180.929 215.279 180.843 215.629C180.757 215.978 180.747 216.342 180.815 216.696C180.883 217.05 181.027 217.384 181.236 217.677C181.446 217.97 181.716 218.215 182.029 218.393C182.342 218.572 182.689 218.681 183.048 218.713C183.407 218.744 183.768 218.698 184.107 218.577C184.446 218.456 184.755 218.263 185.013 218.012C185.083 218.631 185.381 219.201 185.849 219.612C186.317 220.022 186.922 220.243 187.545 220.23C188.168 220.218 188.763 219.973 189.215 219.545C189.667 219.116 189.942 218.534 189.986 217.913C190.237 218.004 190.501 218.053 190.768 218.056C191.433 218.056 192.071 217.791 192.542 217.321C193.012 216.85 193.276 216.212 193.276 215.547C193.276 214.882 193.012 214.244 192.542 213.773C192.071 213.303 191.433 213.038 190.768 213.038V213.038Z" stroke="#F6B9D5" stroke-linecap="round" stroke-linejoin="round"/>
<path d="M186.499 216.746C187.459 216.746 188.237 215.968 188.237 215.008C188.237 214.048 187.459 213.27 186.499 213.27C185.539 213.27 184.76 214.048 184.76 215.008C184.76 215.968 185.539 216.746 186.499 216.746Z" stroke="#F6B9D5" stroke-linecap="round" stroke-linejoin="round"/>
<path d="M239.467 94.5254C239.274 94.5287 239.082 94.5545 238.895 94.6024C239.183 94.3265 239.401 93.9855 239.53 93.608C239.66 93.2305 239.697 92.8276 239.638 92.4328C239.58 92.0381 239.428 91.6632 239.195 91.3393C238.961 91.0155 238.654 90.7522 238.298 90.5715C237.943 90.3908 237.549 90.298 237.15 90.3008C236.751 90.3037 236.358 90.4021 236.005 90.5877C235.652 90.7734 235.348 91.041 235.12 91.3681C234.891 91.6953 234.745 92.0724 234.692 92.4679C234.447 91.9537 234.035 91.5385 233.522 91.2909C233.009 91.0434 232.427 90.9785 231.873 91.1069C231.318 91.2352 230.824 91.5493 230.472 91.9969C230.12 92.4445 229.932 92.9989 229.938 93.5682C229.938 93.9325 230.019 94.2924 230.175 94.6217C230.331 94.9509 230.558 95.2413 230.841 95.4717C230.333 95.7195 229.924 96.1323 229.681 96.6425C229.438 97.1528 229.375 97.7303 229.503 98.2808C229.631 98.8313 229.941 99.3222 230.384 99.6733C230.827 100.024 231.376 100.215 231.941 100.214C232.266 100.214 232.588 100.15 232.888 100.026C233.189 99.901 233.461 99.7182 233.69 99.4878C233.759 100.107 234.056 100.678 234.523 101.089C234.991 101.5 235.595 101.722 236.217 101.711C236.84 101.7 237.436 101.457 237.888 101.029C238.341 100.602 238.617 100.021 238.664 99.3997C238.916 99.4864 239.179 99.5346 239.445 99.5428C240.11 99.5428 240.748 99.2785 241.219 98.808C241.689 98.3375 241.954 97.6994 241.954 97.0341C241.954 96.3688 241.689 95.7307 241.219 95.2602C240.748 94.7897 240.11 94.5254 239.445 94.5254H239.467Z" stroke="#F6B9D5" stroke-linecap="round" stroke-linejoin="round"/>
<path d="M235.197 98.2335C236.158 98.2335 236.936 97.4552 236.936 96.4951C236.936 95.5349 236.158 94.7566 235.197 94.7566C234.237 94.7566 233.459 95.5349 233.459 96.4951C233.459 97.4552 234.237 98.2335 235.197 98.2335Z" stroke="#F6B9D5" stroke-linecap="round" stroke-linejoin="round"/>
<path d="M293.216 110.359C293.02 110.362 292.824 110.388 292.633 110.436C292.881 110.205 293.078 109.926 293.212 109.615C293.347 109.305 293.416 108.97 293.414 108.631C293.444 107.977 293.217 107.338 292.78 106.85C292.343 106.362 291.732 106.065 291.079 106.024C290.426 105.982 289.782 106.198 289.287 106.626C288.791 107.054 288.484 107.66 288.43 108.312C288.269 107.974 288.035 107.677 287.743 107.442C287.452 107.207 287.112 107.04 286.748 106.954C286.383 106.868 286.004 106.866 285.639 106.946C285.273 107.026 284.931 107.187 284.636 107.418C284.341 107.649 284.102 107.942 283.936 108.278C283.77 108.613 283.682 108.982 283.677 109.356C283.673 109.73 283.753 110.101 283.911 110.44C284.069 110.779 284.301 111.078 284.59 111.316C284.177 111.517 283.828 111.83 283.583 112.218C283.338 112.607 283.207 113.057 283.204 113.516C283.204 114.009 283.351 114.491 283.624 114.901C283.897 115.312 284.284 115.633 284.739 115.824C285.193 116.015 285.693 116.069 286.178 115.977C286.662 115.886 287.109 115.654 287.462 115.31C287.531 115.929 287.829 116.5 288.298 116.91C288.766 117.321 289.371 117.541 289.994 117.529C290.616 117.516 291.212 117.272 291.664 116.843C292.115 116.414 292.39 115.832 292.435 115.211C292.685 115.304 292.95 115.352 293.216 115.354C293.882 115.354 294.52 115.09 294.99 114.619C295.461 114.149 295.725 113.511 295.725 112.845C295.725 112.18 295.461 111.542 294.99 111.071C294.52 110.601 293.882 110.337 293.216 110.337V110.359Z" stroke="#F6B9D5" stroke-linecap="round" stroke-linejoin="round"/>
<path d="M288.947 114.067C289.908 114.067 290.686 113.288 290.686 112.328C290.686 111.368 289.908 110.59 288.947 110.59C287.987 110.59 287.209 111.368 287.209 112.328C287.209 113.288 287.987 114.067 288.947 114.067Z" stroke="#F6B9D5" stroke-linecap="round" stroke-linejoin="round"/>
<path d="M260.56 142.619C261.96 138.814 263.679 135.133 265.698 131.616C268.262 127.578 277.428 126.852 277.428 126.852C277.428 126.852 272.663 134.554 270.463 138.218C268.262 141.882 260.56 142.619 260.56 142.619Z" stroke="#F6B9D5" stroke-linecap="round" stroke-linejoin="round"/>
<path d="M260.56 142.619C260.56 142.619 267.525 132.717 275.601 127.952" stroke="#F6B9D5" stroke-linecap="round" stroke-linejoin="round"/>
<path d="M154.788 178.313C158.743 177.417 162.766 176.854 166.814 176.63C171.59 176.63 177.212 183.869 177.212 183.869C177.212 183.869 168.146 184.068 163.877 184.222C159.607 184.376 154.788 178.313 154.788 178.313Z" stroke="#F6B9D5" stroke-linecap="round" stroke-linejoin="round"/>
<path d="M154.788 178.313C154.788 178.313 166.891 178.764 175.287 182.923" stroke="#F6B9D5" stroke-linecap="round" stroke-linejoin="round"/>
<path d="M318.028 169.94C318.028 169.94 316.246 161.655 312.362 162.139C308.477 162.623 311.613 172.371 311.613 172.371C311.613 172.371 306.508 173.824 306.75 176.013C306.992 178.203 310.623 176.377 313.77 175.892C313.77 175.892 312.505 181.581 315.904 182.494C319.304 183.407 318.655 174.99 318.655 174.99C318.655 174.99 326.247 176.542 328.382 173.142C330.858 169.236 321.186 169.445 318.028 169.94Z" stroke="#F6B9D5" stroke-linecap="round" stroke-linejoin="round"/>
<path d="M318.028 167.387C318.028 167.387 310.942 178.159 311.361 179.292C311.779 180.426 319.448 169.94 320.724 168.663C322 167.387 319.734 165.538 318.028 167.387Z" fill="#263238" stroke="#F6B9D5" stroke-linecap="round" stroke-linejoin="round"/>
<path d="M320.724 168.664C320.724 168.664 325.4 164.405 327.667 166.111C329.933 167.816 327.248 168.091 326.962 167.53" stroke="#F6B9D5" stroke-linecap="round" stroke-linejoin="round"/>
<path d="M318.457 166.529C318.457 166.529 319.734 160.29 318.314 159.014C316.895 157.737 316.323 159.443 317.324 160.433" stroke="#F6B9D5" stroke-linecap="round" stroke-linejoin="round"/>
<path d="M250.657 117.929C246.872 112.427 241.018 117.786 239.445 119.425C237.861 117.786 232.007 112.405 228.222 117.929C224.096 123.925 239.302 136.425 239.445 136.37C239.588 136.315 254.761 123.914 250.657 117.929Z" stroke="#F6B9D5" stroke-linecap="round" stroke-linejoin="round"/>
<path d="M198.14 96.4729C194.223 94.1402 192.143 99.1246 191.626 100.577C190.185 100.016 185.024 98.3764 184.265 102.844C183.429 107.718 196.368 111.129 196.445 111.052C196.522 110.975 202.387 99.0036 198.14 96.4729Z" stroke="#F6B9D5" stroke-linecap="round" stroke-linejoin="round"/>
<path d="M161.621 141.849C157.077 141.508 157.429 146.9 157.627 148.451C156.086 148.594 150.739 149.397 152.048 153.754C153.468 158.497 166.583 155.768 166.605 155.669C166.627 155.57 166.55 142.223 161.621 141.849Z" stroke="#F6B9D5" stroke-linecap="round" stroke-linejoin="round"/>
<path d="M305.859 213.127C309.468 210.343 305.606 206.525 304.44 205.556C305.54 204.456 308.94 200.253 305.056 197.854C300.831 195.269 292.887 206.052 292.953 206.14C293.019 206.228 301.942 216.141 305.859 213.127Z" stroke="#F6B9D5" stroke-linecap="round" stroke-linejoin="round"/>
<path d="M284.821 139.077C287.287 136.788 290.043 134.835 293.019 133.267" stroke="#F6B9D5" stroke-linecap="round" stroke-linejoin="round"/>
<path d="M264.411 183.33C264.411 183.33 266.986 161.424 279.045 145.469" stroke="#F6B9D5" stroke-linecap="round" stroke-linejoin="round"/>
<path d="M231.886 192.628C232.926 194.238 233.867 195.91 234.703 197.634" stroke="#F6B9D5" stroke-linecap="round" stroke-linejoin="round"/>
<path d="M190.922 166.628C192.505 167.893 194.286 168.889 196.192 169.577C204.896 172.878 217.043 176.179 226.494 185.883" stroke="#F6B9D5" stroke-linecap="round" stroke-linejoin="round"/>
<path d="M186.84 156.373C186.412 158.681 186.801 161.066 187.94 163.118" stroke="#F6B9D5" stroke-linecap="round" stroke-linejoin="round"/>
<path d="M288.518 99.2237C291.284 96.7102 293.556 93.7026 295.219 90.3553" stroke="#F6B9D5" stroke-linecap="round" stroke-linejoin="round"/>
<path d="M255.917 131.374C257.709 126.872 260.205 122.683 263.311 118.963C269.571 111.514 276.316 107.96 282.313 103.944" stroke="#F6B9D5" stroke-linecap="round" stroke-linejoin="round"/>
<path d="M252.308 149.221C252.307 146.637 252.546 144.059 253.023 141.519" stroke="#F6B9D5" stroke-linecap="round" stroke-linejoin="round"/>
<path d="M286.615 193.871C291.192 191.561 297.618 189.822 306.222 190.482C327.678 192.133 337.581 198.735 346.933 186.081" stroke="#F6B9D5" stroke-linecap="round" stroke-linejoin="round"/>
<path d="M277.064 202.035C278.052 200.509 279.253 199.13 280.629 197.942" stroke="#F6B9D5" stroke-linecap="round" stroke-linejoin="round"/>
<path d="M322.682 144.105H319.744C317.973 144.105 314.738 142.047 316.212 140.276C317.687 138.504 322.682 142.63 322.682 142.63L318.281 128.8L327.7 124.398L331.529 137.349C331.529 137.349 325.642 134.994 325.048 137.635C324.454 140.276 328.877 139.99 331.529 138.812" stroke="#F6B9D5" stroke-linecap="round" stroke-linejoin="round"/>
<path d="M319.151 131.738L328.272 127.325" stroke="#F6B9D5" stroke-linecap="round" stroke-linejoin="round"/>
<path d="M342.917 139.704H340.98C339.803 139.704 337.679 138.339 338.637 137.173C339.594 136.007 342.917 138.724 342.917 138.724L340.001 129.581L346.229 126.665L348.759 135.225C348.759 135.225 344.864 133.674 344.479 135.424C344.094 137.173 347.01 136.975 348.759 136.194" stroke="#F6B9D5" stroke-linecap="round" stroke-linejoin="round"/>
<path d="M340.584 131.528L346.614 128.613" stroke="#F6B9D5" stroke-linecap="round" stroke-linejoin="round"/>
<path d="M171.821 129.801H169.885C168.707 129.801 166.584 128.437 167.541 127.27C168.498 126.104 171.821 128.822 171.821 128.822L168.905 119.678L175.133 116.762L177.664 125.323C177.664 125.323 173.769 123.771 173.383 125.521C172.998 127.27 175.914 127.072 177.664 126.291" stroke="#F6B9D5" stroke-linecap="round" stroke-linejoin="round"/>
<path d="M169.488 121.626L175.518 118.71" stroke="#F6B9D5" stroke-linecap="round" stroke-linejoin="round"/>
<path d="M356.286 160.73C356.286 160.73 364.252 158.332 362.986 153.622C361.886 149.639 358.167 153.622 358.167 153.622C358.167 153.622 360.478 149.881 357.067 148.121C353.656 146.36 352.666 151.18 352.666 151.18C352.666 151.18 351.983 146.713 348.881 148.77C345.778 150.828 352.325 161.853 352.325 161.853L356.286 160.73Z" stroke="#F6B9D5" stroke-linecap="round" stroke-linejoin="round"/>
<path d="M346.075 177.73C349.19 172.922 351.297 167.532 352.269 161.886L355.658 151.411" stroke="#F6B9D5" stroke-linecap="round" stroke-linejoin="round"/>
<path d="M350.201 169.467C350.531 167.299 350.041 165.086 348.826 163.261C347.611 161.22 346.106 159.367 344.358 157.76C344.358 157.76 343.324 161.545 344.006 163.954C344.688 166.364 350.201 169.467 350.201 169.467Z" stroke="#F6B9D5" stroke-linecap="round" stroke-linejoin="round"/>
<path d="M349.178 172.217C350.516 171.068 352.233 170.456 353.997 170.501H360.533C360.533 170.501 352.27 177.037 349.178 172.217Z" stroke="#F6B9D5" stroke-linecap="round" stroke-linejoin="round"/>
<path d="M351.213 153.182L352.247 161.324L358.024 157.033" stroke="#F6B9D5" stroke-linecap="round" stroke-linejoin="round"/>
<path d="M170.853 196.237C170.853 196.237 165.637 189.767 161.753 192.705C158.452 195.203 163.569 197.172 163.569 197.172C163.569 197.172 159.222 196.446 158.925 200.286C158.628 204.126 163.404 203.136 163.404 203.136C163.404 203.136 159.52 205.457 162.6 207.537C165.681 209.616 173.427 199.417 173.427 199.417L170.853 196.237Z" stroke="#F6B9D5" stroke-linecap="round" stroke-linejoin="round"/>
<path d="M190.427 199.263C184.804 198.183 179.02 198.258 173.427 199.483L162.424 200.297" stroke="#F6B9D5" stroke-linecap="round" stroke-linejoin="round"/>
<path d="M181.217 198.547C179.087 199.058 177.223 200.345 175.991 202.156C174.558 204.052 173.409 206.146 172.58 208.373C172.58 208.373 176.475 207.911 178.445 206.36C180.414 204.808 181.217 198.547 181.217 198.547Z" stroke="#F6B9D5" stroke-linecap="round" stroke-linejoin="round"/>
<path d="M184.155 198.471C182.584 197.665 181.368 196.304 180.744 194.652C179.589 191.781 178.291 188.59 178.291 188.59C178.291 188.59 187.456 193.783 184.155 198.471Z" stroke="#F6B9D5" stroke-linecap="round" stroke-linejoin="round"/>
<path d="M165.758 203.741L172.91 199.714L166.76 195.984" stroke="#F6B9D5" stroke-linecap="round" stroke-linejoin="round"/>
<path d="M224.074 168.575C223.745 167.824 223.378 167.089 222.974 166.375C221.004 162.755 218.11 159.575 213.566 160.224C205.864 161.324 220.168 173.428 222.742 173.791C225.911 174.242 225.097 171.018 224.074 168.575Z" fill="#F6B9D5"/>
<path d="M218.209 123.1C217.813 122.165 217.395 121.351 217.109 120.9C215.128 117.269 212.245 114.1 207.701 114.749C199.999 115.849 214.303 127.952 216.878 128.316C220.047 128.767 219.232 125.532 218.209 123.1Z" fill="#F6B9D5"/>
<path d="M295.626 173.043C294.647 173.329 293.789 173.659 293.316 173.846C289.487 175.386 285.999 177.895 286.12 182.483C286.329 190.262 299.994 177.444 300.655 174.924C301.458 171.876 298.157 172.327 295.626 173.043Z" fill="#F6B9D5"/>
<path d="M305.529 131.969C304.745 132.196 303.974 132.464 303.218 132.772C299.389 134.312 295.901 136.81 296.022 141.398C296.231 149.177 309.897 136.359 310.557 133.85C311.36 130.791 308.059 131.231 305.529 131.969Z" fill="#F6B9D5"/>
<path d="M361.92 129.416C361.138 129.64 360.371 129.908 359.62 130.219C355.791 131.76 352.303 134.257 352.424 138.845C352.633 146.625 366.299 133.806 366.959 131.297C367.762 128.206 364.461 128.646 361.92 129.416Z" fill="#F6B9D5"/>
<path d="M207.294 166.826C207.142 166.45 206.969 166.083 206.777 165.726C205.82 163.965 204.412 162.425 202.189 162.722C198.426 163.261 205.413 169.17 206.667 169.324C208.197 169.588 207.801 168.014 207.294 166.826Z" fill="#F6B9D5"/>
<path d="M180.436 138.284C180.062 137.965 179.688 137.701 179.49 137.558C177.829 136.403 175.881 135.655 174.044 136.931C170.919 139.132 179.809 141.244 181.008 140.848C182.439 140.353 181.416 139.132 180.436 138.284Z" fill="#F6B9D5"/>
<path d="M220.135 151.785C219.983 151.409 219.81 151.042 219.618 150.685C218.649 148.913 217.241 147.384 215.029 147.681C211.266 148.22 218.253 154.117 219.508 154.282C221.026 154.558 220.63 152.973 220.135 151.785Z" fill="#F6B9D5"/>
<path d="M155.36 127.006C155.21 126.63 155.037 126.262 154.843 125.906C153.886 124.134 152.478 122.605 150.255 122.902C146.492 123.441 153.479 129.35 154.733 129.504C156.263 129.768 155.867 128.195 155.36 127.006Z" fill="#F6B9D5"/>
<path d="M172.866 165.55C172.511 165.334 172.143 165.139 171.766 164.966C169.961 164.086 167.914 163.646 166.264 165.187C163.513 167.816 172.635 168.564 173.757 167.981C175.209 167.277 173.966 166.221 172.866 165.55Z" fill="#F6B9D5"/>
<path d="M216.834 108.51C216.681 108.135 216.508 107.767 216.317 107.41C215.349 105.65 213.94 104.109 211.729 104.406C207.966 104.945 214.953 110.854 216.207 111.008C217.725 111.272 217.329 109.699 216.834 108.51Z" fill="#F6B9D5"/>
<path d="M258.216 153.226C257.919 153.611 257.666 153.986 257.534 154.195C256.434 155.889 255.762 157.881 257.116 159.696C259.404 162.733 261.209 153.765 260.758 152.577C260.208 151.103 259.019 152.214 258.216 153.226Z" fill="#F6B9D5"/>
<path d="M275.821 176.333C275.523 176.718 275.27 177.092 275.138 177.301C274.038 178.995 273.367 180.987 274.72 182.802C277.009 185.839 278.813 176.872 278.362 175.683C277.812 174.209 276.624 175.32 275.821 176.333Z" fill="#F6B9D5"/>
<path d="M300.336 116.212C299.963 116.314 299.595 116.435 299.235 116.575C297.354 117.291 295.626 118.479 295.637 120.713C295.637 124.509 302.459 118.402 302.811 117.181C303.196 115.64 301.59 115.816 300.336 116.212Z" fill="#F6B9D5"/>
<path d="M257.842 102.382C257.49 102.723 257.181 103.053 257.016 103.24C255.685 104.747 254.706 106.607 255.773 108.576C257.567 111.877 260.713 103.339 260.46 102.107C260.141 100.588 258.788 101.501 257.842 102.382Z" fill="#F6B9D5"/>
<path d="M181.976 180.03C182.262 180.303 182.563 180.56 182.878 180.8C184.474 182.043 186.388 182.89 188.292 181.713C191.516 179.722 182.79 177.103 181.536 177.444C180.051 177.829 181.041 179.116 181.976 180.03Z" fill="#F6B9D5"/>
<path d="M319.448 116.619C318.964 116.619 318.512 116.619 318.259 116.619C316.246 116.74 314.243 117.357 313.583 119.491C312.483 123.122 320.79 119.326 321.483 118.27C322.33 116.982 320.746 116.674 319.448 116.619Z" fill="#F6B9D5"/>
</svg>
