<svg width="564" height="564" viewBox="0 0 564 564" fill="none" xmlns="http://www.w3.org/2000/svg">
<path d="M453.724 131.78C453.724 131.78 426.652 70.8682 366.868 61.8442C307.084 52.8202 265.348 96.8122 221.356 119.372C198.311 131.194 171.994 126.603 147.539 132.322C69.3351 150.584 39.8831 265.166 72.4597 330.308C100.66 386.708 150.292 416.036 225.868 422.804C301.444 429.572 354.46 437.468 422.14 382.196C489.82 326.924 485.308 211.868 453.724 131.78Z" fill="#F6B9D5"/>
<path opacity="0.7" d="M453.724 131.78C453.724 131.78 426.652 70.8682 366.868 61.8442C307.084 52.8202 265.348 96.8122 221.356 119.372C198.311 131.194 171.994 126.603 147.539 132.322C69.3351 150.584 39.8831 265.166 72.4597 330.308C100.66 386.708 150.292 416.036 225.868 422.804C301.444 429.572 354.46 437.468 422.14 382.196C489.82 326.924 485.308 211.868 453.724 131.78Z" fill="white"/>
<path d="M485.68 215.072H445.828C445.679 215.072 445.535 215.012 445.429 214.907C445.324 214.801 445.264 214.657 445.264 214.508V204.728C445.264 204.578 445.324 204.435 445.429 204.329C445.535 204.223 445.679 204.164 445.828 204.164C445.978 204.164 446.121 204.223 446.227 204.329C446.333 204.435 446.392 204.578 446.392 204.728V213.944H485.68C485.83 213.944 485.973 214.003 486.079 214.109C486.185 214.215 486.244 214.358 486.244 214.508C486.244 214.657 486.185 214.801 486.079 214.907C485.973 215.012 485.83 215.072 485.68 215.072Z" fill="#263238"/>
<path d="M465.376 228.608H440.56C440.411 228.608 440.267 228.548 440.161 228.443C440.056 228.337 439.996 228.193 439.996 228.044C439.996 227.894 440.056 227.751 440.161 227.645C440.267 227.539 440.411 227.48 440.56 227.48H464.812V216.764C464.812 216.614 464.872 216.471 464.977 216.365C465.083 216.259 465.227 216.2 465.376 216.2C465.526 216.2 465.669 216.259 465.775 216.365C465.881 216.471 465.94 216.614 465.94 216.764V228.044C465.94 228.193 465.881 228.337 465.775 228.443C465.669 228.548 465.526 228.608 465.376 228.608Z" fill="#263238"/>
<path d="M478.912 241.388H446.572C446.423 241.388 446.279 241.329 446.174 241.223C446.068 241.117 446.008 240.974 446.008 240.824V231.8C446.008 231.65 446.068 231.507 446.174 231.401C446.279 231.295 446.423 231.236 446.572 231.236C446.722 231.236 446.865 231.295 446.971 231.401C447.077 231.507 447.136 231.65 447.136 231.8V240.26H478.912C479.062 240.26 479.205 240.319 479.311 240.425C479.417 240.531 479.476 240.674 479.476 240.824C479.476 240.974 479.417 241.117 479.311 241.223C479.205 241.329 479.062 241.388 478.912 241.388Z" fill="#263238"/>
<path d="M493.948 229.352H475.9C475.751 229.352 475.607 229.293 475.502 229.187C475.396 229.081 475.336 228.938 475.336 228.788C475.339 228.64 475.4 228.498 475.505 228.393C475.61 228.287 475.752 228.227 475.9 228.224H493.948C494.098 228.224 494.241 228.284 494.347 228.389C494.453 228.495 494.512 228.639 494.512 228.788C494.512 228.938 494.453 229.081 494.347 229.187C494.241 229.293 494.098 229.352 493.948 229.352Z" fill="#263238"/>
<path d="M465.377 258.68C465.227 258.68 465.083 258.621 464.978 258.515C464.872 258.409 464.812 258.266 464.812 258.116V245.336C464.812 245.186 464.872 245.043 464.978 244.937C465.083 244.831 465.227 244.772 465.377 244.772C465.526 244.772 465.67 244.831 465.775 244.937C465.881 245.043 465.941 245.186 465.941 245.336V258.116C465.941 258.266 465.881 258.409 465.775 258.515C465.67 258.621 465.526 258.68 465.377 258.68Z" fill="#263238"/>
<path d="M490.192 213.56C490.043 213.56 489.899 213.501 489.794 213.395C489.688 213.289 489.628 213.146 489.628 212.996V203.228C489.628 203.078 489.688 202.935 489.794 202.829C489.899 202.723 490.043 202.664 490.192 202.664C490.342 202.664 490.485 202.723 490.591 202.829C490.697 202.935 490.756 203.078 490.756 203.228V212.996C490.756 213.146 490.697 213.289 490.591 213.395C490.485 213.501 490.342 213.56 490.192 213.56Z" fill="#263238"/>
<path d="M466.877 200.78C466.727 200.78 466.583 200.721 466.478 200.615C466.372 200.509 466.312 200.366 466.312 200.216V189.692C466.312 189.542 466.372 189.399 466.478 189.293C466.583 189.187 466.727 189.128 466.877 189.128C467.026 189.128 467.17 189.187 467.275 189.293C467.381 189.399 467.441 189.542 467.441 189.692V200.216C467.441 200.366 467.381 200.509 467.275 200.615C467.17 200.721 467.026 200.78 466.877 200.78Z" fill="#263238"/>
<path d="M503.728 202.28H480.413C480.263 202.28 480.12 202.221 480.014 202.115C479.908 202.009 479.849 201.866 479.849 201.716C479.852 201.568 479.912 201.426 480.017 201.321C480.122 201.215 480.264 201.155 480.413 201.152H503.728C503.878 201.152 504.021 201.212 504.127 201.317C504.233 201.423 504.292 201.567 504.292 201.716C504.292 201.866 504.233 202.009 504.127 202.115C504.021 202.221 503.878 202.28 503.728 202.28Z" fill="#263238"/>
<path d="M449.584 108.284H417.245C417.095 108.284 416.952 108.225 416.846 108.119C416.74 108.013 416.681 107.87 416.681 107.72C416.681 107.57 416.74 107.427 416.846 107.321C416.952 107.215 417.095 107.156 417.245 107.156H449.584C449.734 107.156 449.877 107.215 449.983 107.321C450.089 107.427 450.148 107.57 450.148 107.72C450.148 107.87 450.089 108.013 449.983 108.119C449.877 108.225 449.734 108.284 449.584 108.284Z" fill="#263238"/>
<path d="M429.28 121.82H415.744C415.595 121.82 415.451 121.761 415.345 121.655C415.24 121.549 415.18 121.406 415.18 121.256C415.18 121.106 415.24 120.963 415.345 120.857C415.451 120.751 415.595 120.692 415.744 120.692H428.716V109.976C428.716 109.826 428.776 109.683 428.881 109.577C428.987 109.471 429.131 109.412 429.28 109.412C429.43 109.412 429.573 109.471 429.679 109.577C429.785 109.683 429.844 109.826 429.844 109.976V121.256C429.844 121.406 429.785 121.549 429.679 121.655C429.573 121.761 429.43 121.82 429.28 121.82Z" fill="#263238"/>
<path d="M442.816 134.6H415.744C415.595 134.6 415.451 134.541 415.345 134.435C415.24 134.329 415.18 134.186 415.18 134.036C415.18 133.887 415.24 133.743 415.345 133.637C415.451 133.532 415.595 133.472 415.744 133.472H442.816C442.966 133.472 443.109 133.532 443.215 133.637C443.321 133.743 443.38 133.887 443.38 134.036C443.38 134.186 443.321 134.329 443.215 134.435C443.109 134.541 442.966 134.6 442.816 134.6Z" fill="#263238"/>
<path d="M457.852 122.576H439.804C439.656 122.573 439.514 122.513 439.409 122.407C439.303 122.302 439.243 122.16 439.24 122.012C439.24 121.862 439.3 121.719 439.405 121.613C439.511 121.507 439.655 121.448 439.804 121.448H457.852C458.002 121.448 458.145 121.507 458.251 121.613C458.357 121.719 458.416 121.862 458.416 122.012C458.416 122.161 458.357 122.305 458.251 122.411C458.145 122.516 458.002 122.576 457.852 122.576Z" fill="#263238"/>
<path d="M429.28 151.904C429.131 151.904 428.987 151.844 428.882 151.739C428.776 151.633 428.716 151.489 428.716 151.34V138.548C428.716 138.399 428.776 138.255 428.882 138.149C428.987 138.044 429.131 137.984 429.28 137.984C429.43 137.984 429.573 138.044 429.679 138.149C429.785 138.255 429.844 138.399 429.844 138.548V151.34C429.844 151.489 429.785 151.633 429.679 151.739C429.573 151.844 429.43 151.904 429.28 151.904V151.904Z" fill="#263238"/>
<path d="M454.096 106.784C453.947 106.784 453.803 106.724 453.697 106.619C453.592 106.513 453.532 106.369 453.532 106.22V96.44C453.532 96.2904 453.592 96.1469 453.697 96.0412C453.803 95.9354 453.947 95.876 454.096 95.876C454.246 95.876 454.389 95.9354 454.495 96.0412C454.601 96.1469 454.66 96.2904 454.66 96.44V106.22C454.66 106.369 454.601 106.513 454.495 106.619C454.389 106.724 454.246 106.784 454.096 106.784Z" fill="#263238"/>
<path d="M430.78 93.9922C430.631 93.9922 430.487 93.9328 430.382 93.827C430.276 93.7212 430.216 93.5778 430.216 93.4282V82.904C430.216 82.7544 430.276 82.6109 430.382 82.5052C430.487 82.3994 430.631 82.34 430.78 82.34C430.93 82.34 431.073 82.3994 431.179 82.5052C431.285 82.6109 431.344 82.7544 431.344 82.904V93.4282C431.344 93.5778 431.285 93.7212 431.179 93.827C431.073 93.9328 430.93 93.9922 430.78 93.9922Z" fill="#263238"/>
<path d="M467.632 95.5037H444.316C444.168 95.5008 444.026 95.4405 443.921 95.3353C443.816 95.2302 443.755 95.0884 443.752 94.9397C443.752 94.7902 443.812 94.6467 443.918 94.5409C444.023 94.4352 444.167 94.3757 444.316 94.3757H467.632C467.782 94.3757 467.925 94.4352 468.031 94.5409C468.137 94.6467 468.196 94.7902 468.196 94.9397C468.196 95.0893 468.137 95.2328 468.031 95.3385C467.925 95.4443 467.782 95.5037 467.632 95.5037Z" fill="#263238"/>
<path d="M150.292 313.58H110.428C110.279 313.58 110.135 313.521 110.029 313.415C109.924 313.309 109.864 313.166 109.864 313.016V303.236C109.867 303.088 109.927 302.946 110.033 302.841C110.138 302.735 110.28 302.675 110.428 302.672C110.578 302.672 110.721 302.732 110.827 302.837C110.933 302.943 110.992 303.087 110.992 303.236V312.452H150.292C150.441 312.452 150.585 312.511 150.691 312.617C150.796 312.723 150.856 312.866 150.856 313.016C150.856 313.166 150.796 313.309 150.691 313.415C150.585 313.521 150.441 313.58 150.292 313.58V313.58Z" fill="#263238"/>
<path d="M129.988 327.116H105.172C105.022 327.116 104.879 327.057 104.773 326.951C104.667 326.845 104.608 326.702 104.608 326.552C104.608 326.402 104.667 326.259 104.773 326.153C104.879 326.047 105.022 325.988 105.172 325.988H129.424V315.272C129.424 315.122 129.483 314.979 129.589 314.873C129.695 314.767 129.838 314.708 129.988 314.708C130.137 314.708 130.281 314.767 130.387 314.873C130.492 314.979 130.552 315.122 130.552 315.272V326.552C130.552 326.702 130.492 326.845 130.387 326.951C130.281 327.057 130.137 327.116 129.988 327.116Z" fill="#263238"/>
<path d="M143.524 339.896H111.184C111.035 339.896 110.891 339.837 110.785 339.731C110.68 339.625 110.62 339.482 110.62 339.332V330.308C110.62 330.159 110.68 330.015 110.785 329.909C110.891 329.804 111.035 329.744 111.184 329.744C111.334 329.744 111.477 329.804 111.583 329.909C111.689 330.015 111.748 330.159 111.748 330.308V338.768H143.524C143.673 338.771 143.814 338.831 143.919 338.937C144.025 339.042 144.085 339.184 144.088 339.332C144.088 339.406 144.073 339.48 144.045 339.548C144.017 339.616 143.975 339.679 143.923 339.731C143.87 339.783 143.808 339.825 143.74 339.853C143.671 339.882 143.598 339.896 143.524 339.896Z" fill="#263238"/>
<path d="M158.56 327.872H140.512C140.363 327.872 140.219 327.812 140.113 327.707C140.008 327.601 139.948 327.457 139.948 327.308C139.948 327.158 140.008 327.015 140.113 326.909C140.219 326.803 140.363 326.744 140.512 326.744H158.56C158.71 326.744 158.853 326.803 158.959 326.909C159.065 327.015 159.124 327.158 159.124 327.308C159.124 327.457 159.065 327.601 158.959 327.707C158.853 327.812 158.71 327.872 158.56 327.872Z" fill="#263238"/>
<path d="M129.988 357.2C129.838 357.2 129.695 357.14 129.589 357.035C129.483 356.929 129.424 356.785 129.424 356.636V343.844C129.424 343.695 129.483 343.551 129.589 343.445C129.695 343.34 129.838 343.28 129.988 343.28C130.137 343.283 130.278 343.343 130.383 343.449C130.489 343.554 130.549 343.695 130.552 343.844V356.636C130.549 356.784 130.489 356.926 130.383 357.031C130.278 357.136 130.137 357.197 129.988 357.2V357.2Z" fill="#263238"/>
<path d="M154.804 312.08C154.655 312.08 154.511 312.02 154.405 311.915C154.3 311.809 154.24 311.665 154.24 311.516V301.736C154.24 301.586 154.3 301.443 154.405 301.337C154.511 301.231 154.655 301.172 154.804 301.172C154.954 301.172 155.097 301.231 155.203 301.337C155.309 301.443 155.368 301.586 155.368 301.736V311.516C155.365 311.664 155.305 311.806 155.2 311.911C155.095 312.017 154.953 312.077 154.804 312.08Z" fill="#263238"/>
<path d="M131.488 299.288C131.339 299.288 131.195 299.229 131.09 299.123C130.984 299.017 130.924 298.874 130.924 298.724V288.2C130.924 288.05 130.984 287.907 131.09 287.801C131.195 287.695 131.339 287.636 131.488 287.636C131.638 287.636 131.781 287.695 131.887 287.801C131.993 287.907 132.052 288.05 132.052 288.2V298.724C132.052 298.874 131.993 299.017 131.887 299.123C131.781 299.229 131.638 299.288 131.488 299.288Z" fill="#263238"/>
<path d="M160.816 300.8H145.024C144.875 300.8 144.731 300.74 144.626 300.635C144.52 300.529 144.46 300.385 144.46 300.236C144.46 300.086 144.52 299.943 144.626 299.837C144.731 299.731 144.875 299.672 145.024 299.672H160.816C160.966 299.672 161.109 299.731 161.215 299.837C161.321 299.943 161.38 300.086 161.38 300.236C161.38 300.385 161.321 300.529 161.215 300.635C161.109 300.74 160.966 300.8 160.816 300.8Z" fill="#263238"/>
<path d="M109.684 215.072H69.8203C69.6717 215.069 69.5299 215.008 69.4247 214.903C69.3196 214.798 69.2592 214.656 69.2563 214.508V204.728C69.2563 204.578 69.3158 204.435 69.4215 204.329C69.5273 204.223 69.6708 204.164 69.8203 204.164C69.9699 204.164 70.1134 204.223 70.2192 204.329C70.3249 204.435 70.3843 204.578 70.3843 204.728V213.944H109.684C109.833 213.944 109.977 214.003 110.083 214.109C110.188 214.215 110.248 214.358 110.248 214.508C110.245 214.656 110.185 214.798 110.079 214.903C109.974 215.008 109.833 215.069 109.684 215.072V215.072Z" fill="#263238"/>
<path d="M89.38 228.608H64.564C64.4144 228.608 64.271 228.548 64.1652 228.443C64.0594 228.337 64 228.193 64 228.044C64 227.894 64.0594 227.751 64.1652 227.645C64.271 227.539 64.4144 227.48 64.564 227.48H88.816V216.764C88.816 216.614 88.8754 216.471 88.9812 216.365C89.087 216.259 89.2304 216.2 89.38 216.2C89.5296 216.2 89.673 216.259 89.7788 216.365C89.8846 216.471 89.944 216.614 89.944 216.764V228.044C89.9411 228.192 89.8808 228.334 89.7756 228.439C89.6705 228.544 89.5287 228.605 89.38 228.608Z" fill="#263238"/>
<path d="M102.916 241.388H70.5762C70.4266 241.388 70.2832 241.329 70.1774 241.223C70.0716 241.117 70.0122 240.974 70.0122 240.824V231.8C70.0122 231.65 70.0716 231.507 70.1774 231.401C70.2832 231.295 70.4266 231.236 70.5762 231.236C70.7258 231.236 70.8692 231.295 70.975 231.401C71.0808 231.507 71.1402 231.65 71.1402 231.8V240.26H102.916C103.066 240.26 103.209 240.319 103.315 240.425C103.421 240.531 103.48 240.674 103.48 240.824C103.48 240.974 103.421 241.117 103.315 241.223C103.209 241.329 103.066 241.388 102.916 241.388Z" fill="#263238"/>
<path d="M117.952 229.352H99.9043C99.7547 229.352 99.6113 229.293 99.5055 229.187C99.3998 229.081 99.3403 228.938 99.3403 228.788C99.3403 228.639 99.3998 228.495 99.5055 228.389C99.6113 228.284 99.7547 228.224 99.9043 228.224H117.952C118.102 228.224 118.245 228.284 118.351 228.389C118.457 228.495 118.516 228.639 118.516 228.788C118.516 228.938 118.457 229.081 118.351 229.187C118.245 229.293 118.102 229.352 117.952 229.352Z" fill="#263238"/>
<path d="M89.3799 258.68C89.2303 258.68 89.0869 258.621 88.9811 258.515C88.8753 258.409 88.8159 258.266 88.8159 258.116V245.336C88.8159 245.186 88.8753 245.043 88.9811 244.937C89.0869 244.831 89.2303 244.772 89.3799 244.772C89.5295 244.772 89.673 244.831 89.7787 244.937C89.8845 245.043 89.9439 245.186 89.9439 245.336V258.116C89.9439 258.266 89.8845 258.409 89.7787 258.515C89.673 258.621 89.5295 258.68 89.3799 258.68Z" fill="#263238"/>
<path d="M114.196 213.56C114.046 213.56 113.903 213.501 113.797 213.395C113.691 213.289 113.632 213.146 113.632 212.996V203.228C113.632 203.078 113.691 202.935 113.797 202.829C113.903 202.723 114.046 202.664 114.196 202.664C114.345 202.664 114.489 202.723 114.595 202.829C114.7 202.935 114.76 203.078 114.76 203.228V212.996C114.76 213.146 114.7 213.289 114.595 213.395C114.489 213.501 114.345 213.56 114.196 213.56Z" fill="#263238"/>
<path d="M90.8804 200.78C90.7308 200.78 90.5874 200.721 90.4816 200.615C90.3758 200.509 90.3164 200.366 90.3164 200.216V189.692C90.3164 189.542 90.3758 189.399 90.4816 189.293C90.5874 189.187 90.7308 189.128 90.8804 189.128C91.03 189.128 91.1734 189.187 91.2792 189.293C91.385 189.399 91.4444 189.542 91.4444 189.692V200.216C91.4444 200.366 91.385 200.509 91.2792 200.615C91.1734 200.721 91.03 200.78 90.8804 200.78Z" fill="#263238"/>
<path d="M127.732 202.28H104.416C104.266 202.28 104.123 202.221 104.017 202.115C103.911 202.009 103.852 201.866 103.852 201.716C103.852 201.567 103.911 201.423 104.017 201.317C104.123 201.212 104.266 201.152 104.416 201.152H127.732C127.88 201.155 128.022 201.215 128.127 201.321C128.233 201.426 128.293 201.568 128.296 201.716C128.296 201.866 128.236 202.009 128.131 202.115C128.025 202.221 127.881 202.28 127.732 202.28Z" fill="#263238"/>
<path d="M159.316 144.38H119.453C119.303 144.38 119.16 144.321 119.054 144.215C118.948 144.109 118.889 143.966 118.889 143.816V134.036C118.892 133.888 118.952 133.746 119.057 133.641C119.162 133.535 119.304 133.475 119.453 133.472C119.602 133.472 119.746 133.532 119.851 133.637C119.957 133.743 120.017 133.887 120.017 134.036V143.252H159.316C159.466 143.252 159.609 143.311 159.715 143.417C159.821 143.523 159.88 143.666 159.88 143.816C159.88 143.966 159.821 144.109 159.715 144.215C159.609 144.321 159.466 144.38 159.316 144.38V144.38Z" fill="#263238"/>
<path d="M139.012 157.916H114.196C114.046 157.916 113.903 157.857 113.797 157.751C113.691 157.645 113.632 157.502 113.632 157.352C113.632 157.202 113.691 157.059 113.797 156.953C113.903 156.847 114.046 156.788 114.196 156.788H138.448V146.072C138.448 145.922 138.507 145.779 138.613 145.673C138.719 145.567 138.862 145.508 139.012 145.508C139.086 145.508 139.159 145.523 139.228 145.551C139.296 145.579 139.358 145.621 139.411 145.673C139.463 145.726 139.505 145.788 139.533 145.856C139.561 145.925 139.576 145.998 139.576 146.072V157.352C139.576 157.426 139.561 157.499 139.533 157.568C139.505 157.636 139.463 157.698 139.411 157.751C139.358 157.803 139.296 157.845 139.228 157.873C139.159 157.901 139.086 157.916 139.012 157.916V157.916Z" fill="#263238"/>
<path d="M152.548 170.696H120.208C120.058 170.696 119.915 170.637 119.809 170.531C119.703 170.425 119.644 170.282 119.644 170.132V161.108C119.644 160.959 119.703 160.815 119.809 160.709C119.915 160.604 120.058 160.544 120.208 160.544C120.358 160.544 120.501 160.604 120.607 160.709C120.713 160.815 120.772 160.959 120.772 161.108V169.568H152.548C152.696 169.571 152.838 169.631 152.943 169.737C153.049 169.842 153.109 169.984 153.112 170.132C153.112 170.206 153.097 170.28 153.069 170.348C153.041 170.416 152.999 170.479 152.947 170.531C152.894 170.583 152.832 170.625 152.764 170.653C152.695 170.682 152.622 170.696 152.548 170.696Z" fill="#263238"/>
<path d="M160.06 158.672H149.536C149.387 158.672 149.243 158.612 149.137 158.507C149.032 158.401 148.972 158.257 148.972 158.108C148.972 157.958 149.032 157.815 149.137 157.709C149.243 157.603 149.387 157.544 149.536 157.544H160.06C160.21 157.544 160.353 157.603 160.459 157.709C160.565 157.815 160.624 157.958 160.624 158.108C160.624 158.257 160.565 158.401 160.459 158.507C160.353 158.612 160.21 158.672 160.06 158.672Z" fill="#263238"/>
<path d="M139.012 188C138.863 188 138.719 187.94 138.613 187.835C138.508 187.729 138.448 187.585 138.448 187.436V174.644C138.448 174.495 138.508 174.351 138.613 174.245C138.719 174.14 138.863 174.08 139.012 174.08C139.161 174.083 139.303 174.143 139.408 174.249C139.513 174.354 139.573 174.496 139.576 174.644V187.436C139.573 187.584 139.513 187.726 139.408 187.831C139.303 187.936 139.161 187.997 139.012 188V188Z" fill="#263238"/>
<path d="M140.512 130.088C140.363 130.088 140.219 130.029 140.113 129.923C140.008 129.817 139.948 129.674 139.948 129.524V119C139.948 118.85 140.008 118.707 140.113 118.601C140.219 118.495 140.363 118.436 140.512 118.436C140.662 118.436 140.805 118.495 140.911 118.601C141.017 118.707 141.076 118.85 141.076 119V129.524C141.076 129.674 141.017 129.817 140.911 129.923C140.805 130.029 140.662 130.088 140.512 130.088Z" fill="#263238"/>
<path d="M158.56 131.6H154.048C153.899 131.6 153.755 131.54 153.65 131.435C153.544 131.329 153.484 131.185 153.484 131.036C153.484 130.886 153.544 130.743 153.65 130.637C153.755 130.531 153.899 130.472 154.048 130.472H158.56C158.71 130.472 158.853 130.531 158.959 130.637C159.065 130.743 159.124 130.886 159.124 131.036C159.124 131.185 159.065 131.329 158.959 131.435C158.853 131.54 158.71 131.6 158.56 131.6Z" fill="#263238"/>
<path d="M475.156 344.408H435.293C435.143 344.408 434.999 344.349 434.894 344.243C434.788 344.137 434.729 343.994 434.729 343.844V334.076C434.729 333.926 434.788 333.783 434.894 333.677C434.999 333.571 435.143 333.512 435.293 333.512C435.442 333.512 435.586 333.571 435.691 333.677C435.797 333.783 435.857 333.926 435.857 334.076V343.28H475.156C475.305 343.283 475.447 343.343 475.552 343.449C475.657 343.554 475.717 343.695 475.72 343.844C475.72 343.994 475.661 344.137 475.555 344.243C475.449 344.349 475.306 344.408 475.156 344.408Z" fill="#263238"/>
<path d="M454.852 357.944H430.036C429.887 357.944 429.743 357.885 429.637 357.779C429.532 357.673 429.472 357.53 429.472 357.38C429.472 357.231 429.532 357.087 429.637 356.981C429.743 356.876 429.887 356.816 430.036 356.816H454.288V346.1C454.288 345.951 454.348 345.807 454.453 345.701C454.559 345.596 454.703 345.536 454.852 345.536C455.001 345.539 455.143 345.599 455.248 345.705C455.353 345.81 455.413 345.952 455.416 346.1V357.38C455.416 357.53 455.357 357.673 455.251 357.779C455.145 357.885 455.002 357.944 454.852 357.944Z" fill="#263238"/>
<path d="M468.388 370.736H436.048C435.899 370.736 435.755 370.676 435.65 370.571C435.544 370.465 435.484 370.321 435.484 370.172V361.148C435.484 360.998 435.544 360.855 435.65 360.749C435.755 360.643 435.899 360.584 436.048 360.584C436.198 360.584 436.341 360.643 436.447 360.749C436.553 360.855 436.612 360.998 436.612 361.148V369.608H468.388C468.538 369.608 468.681 369.667 468.787 369.773C468.893 369.879 468.952 370.022 468.952 370.172C468.949 370.32 468.889 370.462 468.784 370.567C468.679 370.672 468.537 370.733 468.388 370.736Z" fill="#263238"/>
<path d="M483.425 358.7H465.377C465.227 358.7 465.083 358.641 464.978 358.535C464.872 358.429 464.812 358.286 464.812 358.136C464.812 357.986 464.872 357.843 464.978 357.737C465.083 357.631 465.227 357.572 465.377 357.572H483.425C483.574 357.572 483.718 357.631 483.823 357.737C483.929 357.843 483.989 357.986 483.989 358.136C483.989 358.286 483.929 358.429 483.823 358.535C483.718 358.641 483.574 358.7 483.425 358.7Z" fill="#263238"/>
<path d="M454.852 388.028C454.703 388.028 454.559 387.969 454.453 387.863C454.347 387.757 454.288 387.614 454.288 387.464V374.684C454.288 374.534 454.347 374.391 454.453 374.285C454.559 374.179 454.703 374.12 454.852 374.12C455.002 374.12 455.145 374.179 455.251 374.285C455.357 374.391 455.416 374.534 455.416 374.684V387.464C455.416 387.614 455.357 387.757 455.251 387.863C455.145 387.969 455.002 388.028 454.852 388.028Z" fill="#263238"/>
<path d="M479.668 342.908C479.518 342.908 479.375 342.849 479.269 342.743C479.163 342.637 479.104 342.494 479.104 342.344V332.564C479.104 332.415 479.163 332.271 479.269 332.165C479.375 332.06 479.518 332 479.668 332C479.817 332.003 479.958 332.063 480.064 332.169C480.169 332.274 480.229 332.416 480.232 332.564V342.344C480.232 342.494 480.173 342.637 480.067 342.743C479.961 342.849 479.818 342.908 479.668 342.908Z" fill="#263238"/>
<path d="M456.352 330.128C456.203 330.128 456.059 330.068 455.953 329.963C455.848 329.857 455.788 329.713 455.788 329.564V319.028C455.788 318.879 455.848 318.735 455.953 318.629C456.059 318.524 456.203 318.464 456.352 318.464C456.502 318.464 456.645 318.524 456.751 318.629C456.857 318.735 456.916 318.879 456.916 319.028V329.564C456.916 329.713 456.857 329.857 456.751 329.963C456.645 330.068 456.502 330.128 456.352 330.128Z" fill="#263238"/>
<path d="M493.204 331.628H469.888C469.739 331.628 469.595 331.569 469.489 331.463C469.384 331.357 469.324 331.214 469.324 331.064C469.324 330.914 469.384 330.771 469.489 330.665C469.595 330.559 469.739 330.5 469.888 330.5H493.204C493.354 330.5 493.497 330.559 493.603 330.665C493.709 330.771 493.768 330.914 493.768 331.064C493.768 331.214 493.709 331.357 493.603 331.463C493.497 331.569 493.354 331.628 493.204 331.628Z" fill="#263238"/>
<path d="M410.104 93.056H162.7V411.524H410.104V93.056Z" fill="#263238"/>
<path d="M179.484 247.479C179.484 247.479 174.205 249.904 173.765 252.984C173.325 256.063 166.275 283.598 168.261 285.572C170.246 287.546 184.109 287.771 184.989 287.331C185.869 286.892 193.359 260.034 194.904 254.529C196.449 249.025 190.719 241.952 179.484 247.479Z" fill="#F6B9D5"/>
<path d="M181.774 288.076C177.138 288.076 169.366 287.523 167.855 285.978C166.343 284.432 168.171 275.33 171.916 258.906C172.581 255.996 173.044 253.694 173.201 252.961C173.675 249.645 178.943 247.175 179.248 247.028C184.763 244.321 189.772 244.298 192.964 246.96C194.082 247.879 194.912 249.101 195.352 250.48C195.792 251.859 195.825 253.335 195.446 254.732L195.231 255.488C186.309 287.365 185.666 287.681 185.248 287.895C184.102 288.095 182.935 288.156 181.774 288.076ZM187.031 246.058C184.484 246.143 181.989 246.802 179.733 247.987C178.345 248.618 174.657 250.784 174.329 253.052C174.217 253.841 173.72 256.041 173.032 259.086C171.498 265.854 167.392 283.688 168.667 285.166C170.314 286.813 183.015 287.162 184.673 286.835C185.158 285.967 187.053 280.484 194.16 255.116L194.374 254.36C194.692 253.173 194.661 251.919 194.285 250.748C193.909 249.578 193.204 248.541 192.253 247.761C190.772 246.587 188.919 245.982 187.031 246.058V246.058Z" fill="#263238"/>
<path d="M190.99 335.576C190.99 335.576 182.812 357.29 180.274 371.108C177.736 384.926 177.736 417.356 177.736 417.356H271.642C271.642 417.356 272.488 373.928 269.95 357.29C268.667 348.221 266.687 339.265 264.028 330.5L190.99 335.576Z" fill="#F6B9D5"/>
<path d="M271.642 417.92H177.736C177.586 417.92 177.443 417.861 177.337 417.755C177.231 417.649 177.172 417.506 177.172 417.356C177.172 417.029 177.172 384.712 179.721 371.006C182.27 357.301 190.381 335.599 190.46 335.373C190.499 335.271 190.566 335.183 190.654 335.119C190.743 335.055 190.847 335.018 190.956 335.012L263.994 329.936C264.117 329.928 264.24 329.961 264.342 330.03C264.444 330.1 264.52 330.202 264.558 330.319C267.22 339.115 269.207 348.102 270.503 357.2C273.029 373.702 272.217 416.927 272.206 417.367C272.2 417.514 272.139 417.653 272.034 417.756C271.929 417.858 271.789 417.917 271.642 417.92V417.92ZM178.3 416.792H271.089C271.168 411.682 271.743 372.8 269.397 357.38C268.112 348.491 266.182 339.707 263.622 331.098L191.43 336.117C190.381 338.926 183.195 358.542 180.86 371.209C178.525 383.877 178.322 412.415 178.3 416.792Z" fill="#263238"/>
<path d="M255.568 181.604C255.568 181.604 257.621 180.138 257.035 173.381C256.448 166.624 245.574 155.761 236.178 153.404C226.782 151.046 207.391 157.814 201.21 170.155C195.028 182.495 195.638 250.626 195.638 250.626L247.041 247.693C247.041 247.693 246.747 220.08 246.747 211.857C246.747 203.634 255.568 181.604 255.568 181.604Z" fill="#263238"/>
<path d="M195.671 251.19C195.601 251.193 195.53 251.181 195.464 251.156C195.399 251.13 195.338 251.092 195.287 251.044C195.23 250.993 195.185 250.93 195.154 250.86C195.123 250.79 195.107 250.714 195.107 250.638C195.107 247.851 194.588 182.213 200.747 169.895C207.064 157.171 226.838 150.482 236.392 152.84C245.709 155.164 257.045 166.071 257.677 173.313C258.207 179.404 256.639 181.423 256.121 181.92C255.399 183.736 247.401 204.13 247.401 211.834C247.401 219.967 247.683 247.389 247.694 247.66C247.695 247.807 247.639 247.948 247.538 248.055C247.437 248.162 247.3 248.226 247.153 248.235L195.761 251.168L195.671 251.19ZM231.88 153.494C222.01 153.494 207.064 159.766 201.717 170.414C195.987 181.886 196.156 243.317 196.19 250.051L246.544 247.163C246.544 243.26 246.262 219.358 246.262 211.857C246.262 203.623 254.744 182.303 255.105 181.401C255.146 181.302 255.212 181.217 255.297 181.153C255.297 181.153 257.079 179.596 256.538 173.426C255.996 167.256 245.608 156.326 236.11 153.957C234.724 153.63 233.303 153.474 231.88 153.494V153.494Z" fill="white"/>
<path d="M197.363 235.094C197.29 235.095 197.216 235.082 197.148 235.055C197.08 235.028 197.017 234.987 196.965 234.936C196.912 234.884 196.871 234.823 196.842 234.755C196.814 234.687 196.799 234.615 196.799 234.541C196.799 233.571 196.506 210.673 198.66 202.382C200.916 193.696 211.192 185.845 221.976 178.694C232.76 171.542 237.215 166.523 237.26 166.477C237.308 166.421 237.366 166.375 237.432 166.341C237.498 166.308 237.57 166.288 237.643 166.283C237.717 166.278 237.791 166.287 237.861 166.311C237.931 166.335 237.995 166.372 238.05 166.421C238.162 166.521 238.231 166.66 238.241 166.81C238.252 166.96 238.203 167.107 238.106 167.222C237.926 167.425 233.594 172.287 222.608 179.63C212.005 186.691 201.909 194.373 199.754 202.698C197.634 210.842 197.916 234.282 197.927 234.564C197.927 234.713 197.868 234.857 197.762 234.962C197.656 235.068 197.513 235.128 197.363 235.128V235.094Z" fill="white"/>
<path d="M198.593 207.39H198.491C198.344 207.363 198.214 207.279 198.127 207.157C198.041 207.035 198.006 206.884 198.029 206.736C198.108 206.273 198.175 205.608 198.243 204.897C198.796 199.438 199.935 188.079 210.865 179.607C215.224 176.268 219.319 172.599 223.116 168.632C223.166 168.578 223.227 168.535 223.295 168.506C223.363 168.476 223.436 168.461 223.51 168.461C223.584 168.461 223.658 168.476 223.725 168.506C223.793 168.535 223.855 168.578 223.905 168.632C223.958 168.684 224 168.747 224.029 168.816C224.057 168.884 224.072 168.958 224.072 169.032C224.072 169.107 224.057 169.181 224.029 169.249C224 169.318 223.958 169.38 223.905 169.433C220.066 173.459 215.917 177.178 211.497 180.555C200.95 188.722 199.845 199.731 199.315 205.066C199.236 205.845 199.168 206.499 199.089 206.973C199.061 207.086 198.998 207.187 198.909 207.262C198.82 207.337 198.709 207.382 198.593 207.39Z" fill="white"/>
<path d="M226.24 166.444C226.108 166.441 225.98 166.394 225.879 166.308C225.764 166.214 225.692 166.078 225.677 165.93C225.662 165.782 225.706 165.634 225.8 165.519C226.455 164.753 227.065 163.951 227.627 163.116C227.712 162.992 227.842 162.905 227.99 162.876C228.138 162.846 228.291 162.876 228.417 162.958C228.541 163.041 228.627 163.169 228.656 163.315C228.686 163.461 228.657 163.612 228.575 163.736C228.575 163.736 227.966 164.661 226.68 166.229C226.626 166.295 226.559 166.348 226.483 166.385C226.407 166.422 226.324 166.442 226.24 166.444V166.444Z" fill="white"/>
<path d="M253.312 239.132C253.312 239.132 262.054 241.106 264.028 241.952C266.002 242.798 267.976 247.31 267.694 249.566C267.412 251.822 262.054 289.046 261.49 295.25C260.926 301.454 265.72 319.502 266.566 322.886C267.412 326.27 267.976 329.654 262.9 332.192C257.824 334.73 235.828 336.422 231.034 336.986C226.24 337.55 195.502 338.96 190.99 338.396C186.478 337.832 181.966 295.385 181.966 282.977C181.966 270.569 180.127 257.293 185.203 253.345C190.279 249.397 216.088 241.952 224.266 239.696C232.444 237.44 253.312 239.132 253.312 239.132Z" fill="#F6B9D5"/>
<path d="M194.972 339.084C193.077 339.084 191.656 339.084 190.923 338.96C185.655 338.294 181.357 293.716 181.357 282.977C181.357 280.327 181.278 277.608 181.188 274.991C180.872 264.839 180.601 256.176 184.82 252.905C190.46 248.517 220.69 240.102 224.12 239.155C232.298 236.899 252.5 238.5 253.357 238.568H253.436C253.797 238.647 262.257 240.565 264.254 241.422C266.51 242.392 268.563 247.141 268.258 249.622C268.179 250.198 267.785 253.006 267.209 257.067C265.551 268.81 262.472 290.682 262.054 295.284C261.547 300.924 265.529 316.501 266.826 321.623L267.108 322.751C268.044 326.484 268.45 330.049 263.148 332.7C258.896 334.82 243.442 336.332 235.129 337.133C233.369 337.313 231.959 337.448 231.102 337.55C227.052 338.024 204.808 339.084 194.972 339.084ZM237.994 239.087C232.85 239.087 227.616 239.358 224.458 240.215C221.074 241.162 191.013 249.521 185.553 253.751C181.797 256.672 182.068 265.527 182.361 274.912C182.451 277.54 182.53 280.259 182.53 282.932C182.53 297.325 187.392 337.324 191.103 337.787C195.615 338.351 226.206 336.941 231.012 336.377C231.88 336.275 233.268 336.14 235.073 335.971C242.709 335.226 258.625 333.715 262.697 331.639C267.209 329.383 266.939 326.496 266.081 322.976L265.799 321.848C264.479 316.671 260.464 300.924 260.983 295.137C261.411 290.49 264.491 268.607 266.149 256.853C266.724 252.837 267.119 250.006 267.187 249.431C267.435 247.457 265.585 243.136 263.859 242.403C262.133 241.67 253.921 239.764 253.278 239.628C252.635 239.493 245.416 239.087 237.994 239.087V239.087Z" fill="#263238"/>
<path d="M261.772 333.884C261.772 333.884 263.464 350.804 264.592 364.904C265.72 379.004 261.49 401.564 263.182 401.282C264.874 401 274.18 403.809 274.744 396.77C275.308 389.731 274.18 347.138 271.642 342.626C269.502 338.42 267.618 334.088 266.002 329.654C266.002 329.654 262.336 328.244 261.772 333.884Z" fill="#F6B9D5"/>
<path d="M268.19 402.128C267.112 402.111 266.035 402.039 264.964 401.914C264.405 401.828 263.838 401.79 263.272 401.801C263.159 401.82 263.044 401.812 262.934 401.779C262.824 401.746 262.724 401.687 262.641 401.609C261.975 400.989 262.099 398.823 262.9 390.577C263.644 382.997 264.648 372.631 264.028 364.915C262.9 350.984 261.231 334.076 261.208 333.906V333.794C261.434 331.538 262.144 330.094 263.317 329.372C263.75 329.121 264.232 328.966 264.731 328.917C265.229 328.869 265.732 328.928 266.205 329.09C266.28 329.12 266.348 329.166 266.405 329.224C266.461 329.282 266.505 329.352 266.532 329.428C268.151 333.832 270.034 338.134 272.172 342.31C274.834 347.048 275.849 390.431 275.342 396.77C275.318 397.51 275.143 398.237 274.827 398.907C274.51 399.576 274.06 400.173 273.503 400.662C271.952 401.743 270.077 402.26 268.19 402.128V402.128ZM263.498 400.662C263.904 400.662 264.423 400.662 265.077 400.786C267.22 401.023 270.807 401.406 272.747 399.793C273.19 399.402 273.545 398.924 273.792 398.387C274.039 397.851 274.171 397.27 274.18 396.68C274.778 389.269 273.526 347.048 271.146 342.874C269.028 338.729 267.167 334.457 265.573 330.083C265.004 329.957 264.408 330.049 263.904 330.342C263.069 330.861 262.528 332.079 262.336 333.85C262.449 334.978 264.073 351.289 265.156 364.825C265.776 372.642 264.761 383.065 264.028 390.679C263.599 395.055 263.159 399.567 263.396 400.662H263.498Z" fill="#263238"/>
<path d="M266.566 322.886C266.566 322.886 254.158 329.654 251.338 332.192C248.518 334.73 248.518 334.73 253.03 334.73C257.542 334.73 265.72 335.294 268.54 330.782C271.36 326.27 269.95 319.502 266.566 322.886Z" fill="#F6B9D5"/>
<path d="M256.098 335.317H253.03C250.063 335.317 249.161 335.317 248.89 334.595C248.62 333.873 249.262 333.331 250.966 331.797C253.718 329.316 265.122 323.055 266.228 322.446C267.818 320.901 268.946 321.499 269.363 321.826C271.01 323.134 271.168 327.669 269.014 331.098C266.611 334.933 260.712 335.317 256.098 335.317ZM250.142 334.098C250.684 334.166 251.789 334.166 253.03 334.166H254.44C258.952 334.222 265.72 334.29 268.1 330.477C269.973 327.477 269.803 323.552 268.698 322.672C268.19 322.266 267.491 322.784 266.995 323.27C266.962 323.312 266.919 323.347 266.871 323.371C266.747 323.439 254.463 330.139 251.744 332.598C251.056 333.196 250.447 333.749 250.142 334.098Z" fill="#263238"/>
<path d="M258.67 327.962C258.67 327.962 247.672 322.604 243.724 323.45C239.776 324.296 243.724 410.87 243.724 410.87H260.362C260.362 410.87 249.364 345.446 249.364 340.652C249.364 335.858 258.67 327.962 258.67 327.962Z" fill="#F6B9D5"/>
<path d="M260.362 411.434H243.724C243.578 411.434 243.438 411.378 243.333 411.277C243.228 411.176 243.166 411.038 243.16 410.892C243.16 410.678 242.168 388.998 241.682 367.487C240.679 323.495 242.653 323.1 243.611 322.897C247.706 322.04 258.456 327.229 258.918 327.409C259.004 327.449 259.079 327.509 259.135 327.586C259.191 327.662 259.226 327.752 259.237 327.846C259.248 327.94 259.235 328.035 259.199 328.123C259.163 328.21 259.105 328.287 259.031 328.345C258.941 328.424 249.928 336.129 249.928 340.607C249.928 345.299 260.813 410.08 260.915 410.735C260.931 410.814 260.928 410.897 260.907 410.975C260.885 411.053 260.845 411.126 260.791 411.186C260.746 411.26 260.683 411.321 260.608 411.364C260.533 411.408 260.449 411.432 260.362 411.434V411.434ZM244.266 410.306H259.697C258.478 403.053 248.8 345.232 248.8 340.652C248.8 336.377 255.489 330.037 257.655 328.109C255.106 326.924 246.973 323.315 243.837 324.003C241.423 326.236 242.799 377.887 244.288 410.306H244.266Z" fill="#263238"/>
<path d="M222.856 214.451C222.856 214.451 223.511 231.845 223.071 233.83C222.631 235.816 207.888 241.952 207.888 241.952L232.117 278.725L242.032 236.47C242.032 236.47 236.528 235.342 236.313 233.605C236.099 231.868 237.633 224.581 237.633 224.581L222.856 214.451Z" fill="white"/>
<path d="M232.117 279.311C232.024 279.312 231.931 279.29 231.849 279.247C231.766 279.204 231.695 279.14 231.643 279.063L207.425 242.29C207.376 242.223 207.344 242.145 207.332 242.062C207.32 241.979 207.329 241.895 207.357 241.817C207.378 241.736 207.417 241.661 207.472 241.598C207.527 241.536 207.596 241.487 207.673 241.456C214.554 238.579 222.19 234.8 222.54 233.706C222.879 232.138 222.484 219.29 222.303 214.474C222.3 214.37 222.325 214.267 222.377 214.177C222.428 214.087 222.504 214.012 222.595 213.962C222.686 213.912 222.789 213.888 222.893 213.892C222.997 213.897 223.097 213.931 223.183 213.989L237.937 224.141C238.03 224.202 238.102 224.289 238.144 224.392C238.187 224.495 238.197 224.608 238.174 224.716C237.746 226.713 236.685 232.195 236.854 233.56C236.956 234.372 239.663 235.443 242.133 235.94C242.208 235.956 242.278 235.986 242.34 236.03C242.403 236.073 242.456 236.128 242.497 236.192C242.538 236.256 242.565 236.328 242.579 236.402C242.592 236.477 242.59 236.554 242.573 236.628L232.658 278.905C232.634 279.012 232.578 279.11 232.498 279.184C232.417 279.259 232.316 279.307 232.207 279.323L232.117 279.311ZM208.733 242.234L231.88 277.349L241.366 236.899C239.596 236.504 235.986 235.466 235.726 233.684C235.467 231.901 236.64 226.442 236.979 224.829L223.443 215.557C223.589 219.64 224.007 232.183 223.612 233.954C223.194 235.94 212.828 240.508 208.733 242.234V242.234Z" fill="#263238"/>
<path d="M220.927 241.805C220.819 241.803 220.714 241.772 220.622 241.715C220.56 241.674 220.506 241.621 220.464 241.559C220.422 241.497 220.392 241.427 220.378 241.353C220.363 241.28 220.363 241.204 220.378 241.131C220.393 241.057 220.422 240.987 220.464 240.926C222.134 238.421 222.517 233.83 222.517 233.785C222.534 233.638 222.607 233.502 222.72 233.406C222.833 233.31 222.978 233.26 223.127 233.266C223.201 233.272 223.273 233.292 223.339 233.326C223.406 233.36 223.464 233.406 223.513 233.463C223.561 233.52 223.597 233.585 223.62 233.656C223.643 233.727 223.652 233.801 223.645 233.876C223.645 234.079 223.239 238.805 221.389 241.557C221.337 241.632 221.268 241.693 221.187 241.736C221.107 241.779 221.018 241.803 220.927 241.805V241.805Z" fill="#263238"/>
<path d="M229.816 251.585H229.669L215.908 248.032C215.834 248.013 215.764 247.98 215.703 247.935C215.641 247.89 215.589 247.832 215.55 247.767C215.511 247.702 215.485 247.629 215.474 247.553C215.462 247.478 215.466 247.401 215.485 247.327C215.503 247.253 215.536 247.183 215.582 247.122C215.627 247.06 215.684 247.009 215.75 246.969C215.815 246.93 215.888 246.904 215.963 246.893C216.039 246.882 216.116 246.885 216.19 246.904L229.951 250.457C230.025 250.466 230.097 250.489 230.162 250.526C230.227 250.562 230.284 250.611 230.33 250.67C230.376 250.729 230.41 250.796 230.431 250.868C230.451 250.94 230.456 251.015 230.448 251.089C230.439 251.163 230.415 251.234 230.379 251.299C230.342 251.364 230.293 251.422 230.235 251.468C230.176 251.514 230.109 251.548 230.037 251.568C229.965 251.588 229.89 251.594 229.816 251.585V251.585Z" fill="#263238"/>
<path d="M236.764 160.995C236.764 160.995 243.42 168.384 241.57 170.978C239.72 173.573 217.882 182.066 217.882 185.755C217.882 189.444 219.01 193.888 216.754 194.632C214.498 195.377 211.576 194.26 210.471 193.504C209.365 192.749 206.399 197.193 206.771 202.743C207.143 208.292 213.426 210.876 216.009 210.876H219.709C220.611 214.37 221.976 217.727 223.77 220.858C226.364 224.919 244.48 230.097 246.33 228.619C248.18 227.141 255.207 213.831 256.685 207.548C258.163 201.265 254.429 191.282 254.835 188.372C255.241 185.462 256.685 183.939 256.313 180.239C255.94 176.539 244.852 170.629 244.852 170.629C244.852 170.629 238.242 159.518 236.764 160.995Z" fill="white"/>
<path d="M245.066 229.465C244.196 229.444 243.328 229.353 242.472 229.194C237.148 228.314 225.552 224.682 223.352 221.174C221.582 218.131 220.227 214.865 219.325 211.462H216.088C213.46 211.462 206.692 208.89 206.286 202.799C205.97 198.14 207.978 194.001 209.557 193.087C209.747 192.954 209.973 192.882 210.205 192.882C210.438 192.882 210.664 192.954 210.854 193.087C211.892 193.775 214.655 194.79 216.652 194.136C217.881 193.719 217.712 191.305 217.52 188.756C217.453 187.774 217.374 186.759 217.374 185.789C217.374 183.409 223.239 180.284 232.184 175.784C236.257 173.731 240.475 171.599 241.141 170.685C242.269 169.061 238.828 164.131 236.369 161.402C236.269 161.297 236.214 161.157 236.214 161.012C236.214 160.867 236.269 160.728 236.369 160.623C236.484 160.511 236.623 160.427 236.776 160.378C236.929 160.329 237.091 160.316 237.249 160.341C239.347 160.589 243.837 167.786 245.303 170.211C246.973 171.114 256.583 176.438 256.921 180.194C257.096 182.033 256.837 183.887 256.166 185.608C255.827 186.528 255.585 187.481 255.444 188.451C255.492 190.307 255.757 192.15 256.233 193.944C257.125 198.276 258.23 203.668 257.282 207.728C255.782 214.068 248.698 227.536 246.736 229.16C246.23 229.448 245.641 229.555 245.066 229.465V229.465ZM210.211 193.989C210.003 194.099 209.819 194.248 209.67 194.429C207.925 196.827 207.122 199.781 207.414 202.731C207.741 207.999 213.832 210.368 216.088 210.368H219.788C219.914 210.365 220.037 210.407 220.136 210.485C220.234 210.563 220.303 210.673 220.329 210.797C221.224 214.231 222.57 217.531 224.334 220.61C226.116 223.419 236.392 227.029 242.438 228.078C245.506 228.619 246.048 228.236 246.048 228.236C247.694 226.916 254.699 213.853 256.2 207.469C257.102 203.656 256.019 198.445 255.151 194.17C254.633 192.261 254.363 190.293 254.35 188.316C254.498 187.273 254.755 186.248 255.117 185.259C255.743 183.688 255.983 181.99 255.816 180.307C255.545 177.521 247.672 172.738 244.66 171.136C244.57 171.087 244.493 171.018 244.435 170.933C243.16 168.79 241.829 166.793 240.656 165.192C242.043 167.448 243.081 169.895 242.054 171.339C241.276 172.467 237.982 174.125 232.692 176.787C227.052 179.63 218.502 183.928 218.502 185.811C218.502 186.748 218.581 187.729 218.648 188.688C218.863 191.7 219.077 194.531 217.013 195.219C214.486 195.997 211.283 194.711 210.211 193.989V193.989Z" fill="#263238"/>
<path d="M247.526 197.396C247.428 197.397 247.332 197.372 247.247 197.324C247.162 197.277 247.091 197.208 247.041 197.125C243.126 190.594 246.939 186.601 247.435 186.116C248.326 184.988 250.582 183.183 252.94 184.525C253.071 184.601 253.167 184.725 253.207 184.871C253.247 185.016 253.228 185.172 253.154 185.304C253.118 185.368 253.069 185.425 253.011 185.47C252.952 185.516 252.885 185.549 252.814 185.568C252.742 185.587 252.668 185.591 252.594 185.581C252.521 185.57 252.451 185.545 252.387 185.507C250.255 184.3 248.326 186.815 248.304 186.838L248.225 186.928C248.067 187.064 244.356 190.448 248.011 196.55C248.086 196.677 248.108 196.829 248.072 196.973C248.036 197.116 247.945 197.24 247.819 197.317C247.731 197.371 247.629 197.398 247.526 197.396V197.396Z" fill="#263238"/>
<path d="M227.898 190.763C227.804 190.764 227.711 190.741 227.628 190.696C227.498 190.622 227.402 190.501 227.36 190.358C227.318 190.215 227.333 190.061 227.402 189.929C229.793 185.541 237.295 186.996 237.622 187.052C237.767 187.085 237.894 187.172 237.976 187.296C238.058 187.42 238.089 187.571 238.062 187.718C238.047 187.79 238.018 187.859 237.976 187.921C237.935 187.982 237.882 188.035 237.82 188.076C237.758 188.116 237.689 188.145 237.616 188.159C237.543 188.173 237.469 188.172 237.396 188.158C237.328 188.158 230.38 186.815 228.372 190.47C228.324 190.555 228.256 190.627 228.173 190.678C228.09 190.729 227.996 190.759 227.898 190.763V190.763Z" fill="#263238"/>
<path d="M237.137 196.674C237.014 196.676 236.895 196.637 236.797 196.564C236.699 196.49 236.628 196.386 236.595 196.268L235.851 193.674C235.831 193.599 235.826 193.522 235.835 193.446C235.845 193.37 235.87 193.297 235.908 193.23C235.947 193.164 235.997 193.105 236.058 193.058C236.119 193.012 236.188 192.977 236.262 192.957C236.337 192.937 236.414 192.932 236.49 192.942C236.566 192.952 236.639 192.977 236.706 193.015C236.772 193.053 236.831 193.104 236.878 193.165C236.924 193.226 236.959 193.295 236.979 193.369L237.712 195.952C237.754 196.096 237.737 196.25 237.665 196.381C237.593 196.512 237.472 196.61 237.328 196.651L237.137 196.674Z" fill="#263238"/>
<path d="M232.85 197.452C232.105 197.452 231.609 197.452 231.541 197.452C231.468 197.447 231.396 197.426 231.33 197.393C231.264 197.359 231.206 197.312 231.159 197.255C231.112 197.198 231.076 197.133 231.055 197.062C231.033 196.991 231.026 196.917 231.034 196.843C231.048 196.696 231.12 196.559 231.234 196.464C231.348 196.369 231.495 196.323 231.643 196.336C231.643 196.336 235.929 196.663 238.332 195.298C238.463 195.223 238.617 195.203 238.763 195.241C238.908 195.279 239.033 195.372 239.11 195.501C239.181 195.633 239.198 195.788 239.158 195.933C239.118 196.078 239.025 196.202 238.896 196.279C237.002 197.143 234.93 197.545 232.85 197.452Z" fill="#263238"/>
<path d="M252.996 194.474C252.873 194.475 252.752 194.436 252.653 194.363C252.553 194.29 252.48 194.186 252.443 194.068L251.71 191.474C251.67 191.324 251.69 191.165 251.768 191.031C251.845 190.896 251.972 190.798 252.122 190.758C252.271 190.717 252.431 190.738 252.565 190.815C252.7 190.892 252.798 191.02 252.838 191.169L253.583 193.753C253.621 193.898 253.601 194.052 253.527 194.182C253.454 194.313 253.332 194.41 253.188 194.452L252.996 194.474Z" fill="#263238"/>
<path d="M248.71 195.253C247.966 195.253 247.458 195.253 247.402 195.253C247.252 195.241 247.113 195.17 247.016 195.056C246.919 194.941 246.871 194.793 246.883 194.644C246.895 194.494 246.966 194.355 247.08 194.258C247.194 194.161 247.342 194.113 247.492 194.125C247.492 194.125 251.789 194.452 254.192 193.087C254.321 193.014 254.473 192.995 254.616 193.034C254.759 193.073 254.88 193.167 254.954 193.296C255.027 193.424 255.046 193.577 255.007 193.72C254.968 193.862 254.873 193.984 254.745 194.057C252.857 194.929 250.788 195.339 248.71 195.253Z" fill="#263238"/>
<path d="M213.404 205.766C213.319 205.765 213.236 205.745 213.16 205.708C213.084 205.671 213.017 205.617 212.964 205.551C212.445 204.908 212.321 204.333 212.603 203.848C213.076 203.047 214.644 202.991 215.987 203.092C215.005 201.806 213.133 199.708 211.148 199.708C210.685 199.708 210.098 199.787 209.895 200.137C209.692 200.487 210.008 201.682 210.245 202.111C210.309 202.24 210.321 202.389 210.278 202.527C210.236 202.665 210.142 202.781 210.016 202.852C209.89 202.923 209.742 202.943 209.602 202.908C209.463 202.873 209.341 202.785 209.264 202.664C209.162 202.472 208.226 200.78 208.925 199.573C209.173 199.216 209.515 198.934 209.913 198.758C210.312 198.583 210.75 198.522 211.181 198.58C214.701 198.58 217.566 203.284 217.679 203.487C217.737 203.578 217.768 203.684 217.768 203.792C217.768 203.9 217.737 204.005 217.679 204.096C217.616 204.185 217.531 204.254 217.431 204.296C217.331 204.338 217.221 204.351 217.115 204.333C215.592 204.085 213.922 204.108 213.731 204.333C213.797 204.484 213.884 204.624 213.99 204.751C214.059 204.833 214.103 204.934 214.116 205.041C214.13 205.148 214.112 205.257 214.066 205.354C214.02 205.451 213.947 205.533 213.855 205.59C213.764 205.647 213.658 205.677 213.55 205.676L213.404 205.766Z" fill="#263238"/>
<path d="M258.76 279.853C258.76 279.853 267.119 263.113 270.232 260C273.345 256.887 281.016 261.534 281.681 263.305C282.347 265.076 274.417 281.139 271.112 286.418C267.807 291.697 265.618 289.328 263.408 286.858C261.632 284.681 260.076 282.335 258.76 279.853Z" fill="#F6B9D5"/>
<path d="M267.265 290.185C265.585 290.185 264.254 288.708 262.956 287.275C261.156 285.049 259.58 282.649 258.253 280.112C258.214 280.031 258.193 279.943 258.193 279.853C258.193 279.763 258.214 279.674 258.253 279.593C258.591 278.905 266.69 262.741 269.803 259.628C270.931 258.5 272.668 258.173 274.834 258.635C278.094 259.346 281.602 261.737 282.189 263.147C283.001 265.335 274.372 282.323 271.563 286.767C270.198 288.956 268.878 290.073 267.513 290.151L267.265 290.185ZM259.369 279.842C260.615 282.208 262.093 284.445 263.78 286.519C264.908 287.817 266.149 289.136 267.389 289.057C268.359 288.967 269.442 287.997 270.582 286.158C274.36 280.112 281.501 265.11 281.106 263.519C280.779 262.662 277.62 260.395 274.575 259.741C273.903 259.524 273.189 259.473 272.494 259.593C271.798 259.713 271.142 260 270.582 260.429C267.829 263.204 260.463 277.71 259.392 279.842H259.369Z" fill="#263238"/>
<path opacity="0.3" d="M258.76 279.853C258.76 279.853 267.119 263.113 270.232 260C273.345 256.887 281.016 261.534 281.681 263.305C282.347 265.076 274.417 281.139 271.112 286.418C267.807 291.697 265.618 289.328 263.408 286.858C261.632 284.681 260.076 282.335 258.76 279.853Z" fill="black"/>
<path d="M262.945 213.346C262.945 213.346 270.65 208.507 272.624 208.507C274.598 208.507 279.019 225.246 278.794 226.78C278.568 228.314 269.77 244.614 269.77 244.614C269.77 244.614 281.219 263.553 281.659 265.313C282.099 267.073 273.289 281.612 272.184 281.612C271.078 281.612 264.919 248.145 264.288 244.84C263.385 240.865 262.942 236.8 262.968 232.725C263.182 228.98 263.848 219.516 263.848 219.516C263.848 219.516 261.4 213.571 262.945 213.346Z" fill="white"/>
<path d="M272.183 282.176C271.405 282.176 270.785 282.176 264.287 248.179C263.994 246.577 263.769 245.438 263.678 244.952C262.731 240.936 262.281 236.818 262.336 232.691C262.539 229.206 263.126 220.757 263.205 219.606C262.686 218.309 261.31 214.598 262.077 213.323C262.22 213.08 262.449 212.898 262.72 212.816C263.848 212.116 270.616 207.943 272.623 207.943C272.824 207.956 273.019 208.014 273.194 208.111C273.369 208.209 273.521 208.344 273.639 208.507C275.895 211.101 279.583 225.246 279.346 226.859C279.109 228.472 272.183 241.32 270.413 244.603C272.172 247.513 281.771 263.452 282.2 265.178C282.685 267.118 275.917 278.082 273.763 280.857C272.894 281.962 272.544 282.176 272.183 282.176ZM263.013 213.865C262.731 214.339 263.34 216.877 264.31 219.268C264.333 219.353 264.333 219.442 264.31 219.527C264.31 219.527 263.656 228.991 263.43 232.725C263.392 236.753 263.835 240.77 264.75 244.693C264.84 245.178 265.066 246.329 265.37 247.93C269.081 267.479 271.405 278.51 272.285 280.789C274.361 278.725 281.23 266.802 281.038 265.414C280.847 264.027 273.797 252.454 269.217 244.874C269.167 244.79 269.141 244.694 269.141 244.597C269.141 244.5 269.167 244.404 269.217 244.321C272.601 238.049 278.027 227.717 278.173 226.668C278.387 225.134 274.203 209.748 272.533 209.026C271.259 209.026 266.126 211.958 263.193 213.797C263.15 213.839 263.101 213.873 263.047 213.899L263.013 213.865Z" fill="#263238"/>
<path d="M271.529 230.435C269.975 230.55 268.412 230.385 266.916 229.95C265.607 229.431 265.133 226.431 265.021 225.528C265.006 225.404 265.033 225.279 265.099 225.172C265.164 225.065 265.264 224.984 265.382 224.942L275.534 220.971C275.603 220.944 275.677 220.931 275.752 220.933C275.827 220.934 275.9 220.951 275.969 220.981C276.037 221.012 276.098 221.056 276.149 221.11C276.201 221.164 276.241 221.228 276.267 221.298C276.294 221.366 276.308 221.439 276.306 221.513C276.305 221.586 276.29 221.658 276.26 221.725C276.231 221.793 276.188 221.853 276.135 221.904C276.082 221.955 276.019 221.994 275.951 222.02L266.239 225.822C266.464 227.232 266.95 228.732 267.367 228.901C268.732 229.275 270.151 229.412 271.563 229.307C272.691 229.307 272.759 228.179 272.759 227.886C272.752 227.81 272.762 227.734 272.788 227.662C272.813 227.59 272.855 227.525 272.909 227.472C272.962 227.418 273.027 227.377 273.099 227.351C273.171 227.325 273.247 227.315 273.323 227.322C273.472 227.322 273.616 227.381 273.722 227.487C273.827 227.593 273.887 227.736 273.887 227.886C273.91 228.21 273.866 228.536 273.758 228.843C273.651 229.15 273.481 229.432 273.26 229.671C273.039 229.91 272.772 230.101 272.474 230.232C272.176 230.364 271.855 230.433 271.529 230.435V230.435Z" fill="#263238"/>
<path d="M270.424 228.89C270.31 228.891 270.199 228.858 270.106 228.793C270.013 228.728 269.943 228.636 269.905 228.529C269.877 228.46 269.864 228.386 269.865 228.312C269.866 228.238 269.881 228.165 269.911 228.097C269.94 228.029 269.983 227.967 270.036 227.915C270.089 227.864 270.152 227.823 270.221 227.796L275.285 225.822C275.354 225.793 275.428 225.778 275.503 225.778C275.577 225.778 275.651 225.793 275.719 225.823C275.788 225.853 275.85 225.896 275.901 225.95C275.953 226.004 275.993 226.068 276.019 226.137C276.046 226.207 276.059 226.281 276.057 226.356C276.055 226.431 276.039 226.504 276.008 226.572C275.978 226.641 275.934 226.702 275.88 226.753C275.825 226.804 275.761 226.844 275.692 226.871L270.627 228.845C270.564 228.876 270.494 228.891 270.424 228.89V228.89Z" fill="#263238"/>
<path d="M265.043 222.708C264.937 222.711 264.832 222.683 264.742 222.627C264.652 222.571 264.58 222.489 264.536 222.392C264.503 222.325 264.485 222.252 264.481 222.178C264.477 222.103 264.488 222.028 264.513 221.958C264.538 221.888 264.577 221.823 264.627 221.768C264.678 221.713 264.739 221.668 264.806 221.637L275.692 216.583C275.759 216.551 275.832 216.532 275.907 216.528C275.981 216.525 276.056 216.535 276.126 216.561C276.196 216.586 276.261 216.625 276.316 216.675C276.371 216.725 276.416 216.786 276.447 216.854C276.506 216.992 276.509 217.147 276.457 217.288C276.404 217.429 276.3 217.544 276.165 217.61L265.28 222.663C265.205 222.695 265.125 222.711 265.043 222.708Z" fill="#263238"/>
<path d="M263.159 218.095C263.053 218.098 262.948 218.069 262.858 218.013C262.768 217.957 262.696 217.876 262.652 217.779C262.619 217.712 262.601 217.639 262.597 217.564C262.593 217.489 262.604 217.415 262.629 217.344C262.654 217.274 262.693 217.21 262.744 217.154C262.794 217.099 262.855 217.055 262.923 217.023L274.146 211.744C274.213 211.712 274.287 211.693 274.361 211.689C274.436 211.685 274.51 211.696 274.581 211.722C274.651 211.747 274.716 211.786 274.771 211.836C274.826 211.886 274.87 211.947 274.902 212.015C274.934 212.081 274.953 212.154 274.956 212.227C274.96 212.301 274.949 212.375 274.924 212.444C274.898 212.514 274.86 212.577 274.809 212.631C274.759 212.686 274.699 212.729 274.631 212.759L263.351 218.05C263.29 218.075 263.225 218.091 263.159 218.095V218.095Z" fill="#263238"/>
<path d="M237.689 219.392L248.699 232.759C250.23 234.622 252.359 235.897 254.724 236.365C257.09 236.834 259.545 236.469 261.671 235.331C263.908 234.135 265.632 232.165 266.521 229.79C267.41 227.414 267.402 224.796 266.498 222.426L260.757 207.334C260.201 205.591 259.266 203.994 258.021 202.655C256.775 201.316 255.249 200.269 253.551 199.589C251.853 198.909 250.026 198.612 248.201 198.721C246.375 198.829 244.596 199.34 242.991 200.216L241.682 200.927C240.1 201.776 238.72 202.959 237.639 204.394C236.558 205.829 235.802 207.481 235.422 209.237C235.042 210.993 235.048 212.81 235.44 214.564C235.831 216.317 236.599 217.964 237.689 219.392V219.392Z" fill="white"/>
<path d="M256.764 237.09C255.138 237.092 253.533 236.734 252.062 236.042C250.592 235.349 249.293 234.34 248.258 233.086L237.249 219.719C236.128 218.226 235.34 216.51 234.942 214.686C234.543 212.862 234.541 210.973 234.937 209.148C235.333 207.324 236.117 205.606 237.236 204.111C238.355 202.616 239.783 201.38 241.423 200.487L242.731 199.776C244.407 198.864 246.262 198.332 248.166 198.217C250.07 198.102 251.976 198.408 253.749 199.112C255.522 199.816 257.118 200.901 258.424 202.291C259.731 203.68 260.716 205.34 261.309 207.153L267.04 222.212C267.985 224.711 267.99 227.468 267.054 229.97C266.118 232.473 264.305 234.55 261.952 235.816C260.356 236.665 258.572 237.104 256.764 237.09V237.09ZM238.129 219.042L249.127 232.409C250.619 234.208 252.701 235.419 255.002 235.829C257.303 236.238 259.675 235.818 261.696 234.644C263.717 233.47 265.256 231.617 266.04 229.416C266.824 227.214 266.803 224.805 265.979 222.618L260.238 207.537C259.7 205.876 258.802 204.353 257.609 203.079C256.416 201.804 254.956 200.808 253.334 200.162C251.712 199.516 249.967 199.235 248.224 199.34C246.481 199.445 244.783 199.933 243.25 200.769L241.953 201.491C240.455 202.304 239.15 203.431 238.127 204.795C237.104 206.158 236.387 207.726 236.024 209.391C235.661 211.057 235.661 212.781 236.024 214.446C236.388 216.112 237.106 217.679 238.129 219.042V219.042Z" fill="#263238"/>
<path d="M265.043 222.144C267.593 225.788 266.171 231.168 261.93 234.135C257.689 237.102 252.15 236.594 249.601 233.007C247.052 229.42 248.473 223.983 252.714 221.016C256.956 218.05 262.505 218.512 265.043 222.144Z" fill="white"/>
<path d="M256.008 236.639C255.696 236.656 255.384 236.656 255.072 236.639C253.898 236.569 252.755 236.234 251.729 235.661C250.702 235.087 249.819 234.289 249.144 233.326C248.47 232.362 248.021 231.259 247.833 230.099C247.644 228.938 247.721 227.75 248.056 226.622C248.766 224.163 250.298 222.022 252.396 220.554C254.493 219.087 257.03 218.382 259.584 218.557C260.754 218.64 261.892 218.981 262.915 219.554C263.939 220.127 264.823 220.919 265.506 221.874C268.224 225.754 266.769 231.484 262.257 234.643C260.428 235.932 258.246 236.629 256.008 236.639ZM258.648 219.595C256.623 219.611 254.653 220.254 253.008 221.434C251.108 222.723 249.729 224.646 249.116 226.859C248.82 227.828 248.748 228.851 248.907 229.851C249.065 230.851 249.449 231.802 250.029 232.631C250.61 233.461 251.372 234.147 252.257 234.638C253.143 235.13 254.128 235.413 255.14 235.466C257.431 235.651 259.714 235.016 261.58 233.672C265.574 230.875 266.916 225.844 264.547 222.471C263.957 221.651 263.193 220.972 262.31 220.482C261.426 219.993 260.445 219.705 259.437 219.64C259.175 219.61 258.911 219.595 258.648 219.595V219.595Z" fill="#263238"/>
<path d="M243.16 333.32C243.16 333.32 239.415 315.712 237.43 307.376C235.444 299.04 234.125 294.821 232.591 293.062C231.057 291.302 224.221 294.821 223.115 300.766C222.01 306.71 239.381 331.594 243.16 333.32Z" fill="#F6B9D5"/>
<path d="M243.16 333.918C243.079 333.94 242.993 333.94 242.912 333.918C238.828 332 221.48 306.688 222.608 300.721C223.033 298.784 223.951 296.989 225.273 295.511C226.595 294.033 228.276 292.921 230.154 292.283C230.623 292.082 231.138 292.016 231.642 292.092C232.146 292.167 232.619 292.382 233.008 292.712C234.553 294.472 235.85 298.284 237.982 307.263C239.945 315.543 243.622 333.083 243.713 333.264C243.734 333.365 243.727 333.471 243.691 333.569C243.655 333.667 243.592 333.753 243.51 333.816C243.41 333.892 243.285 333.928 243.16 333.918V333.918ZM231.361 293.174C231.037 293.18 230.715 293.226 230.402 293.31C228.719 293.881 227.212 294.877 226.027 296.201C224.841 297.525 224.017 299.132 223.634 300.867C222.698 305.932 237.057 327.364 242.269 332.045C241.333 327.68 238.479 314.381 236.843 307.5C234.79 298.826 233.459 295.013 232.128 293.434C232.02 293.337 231.893 293.264 231.755 293.219C231.617 293.175 231.471 293.159 231.327 293.174H231.361Z" fill="#263238"/>
<path opacity="0.3" d="M243.16 333.32C243.16 333.32 239.415 315.712 237.43 307.376C235.444 299.04 234.125 294.821 232.591 293.062C231.057 291.302 224.221 294.821 223.115 300.766C222.01 306.71 239.381 331.594 243.16 333.32Z" fill="black"/>
<path d="M183.455 251.89C185.869 252.544 233.651 293.716 235.196 291.516C236.742 289.317 255.669 241.095 256.549 239.109C257.429 237.124 247.085 235.59 243.78 235.376C240.475 235.161 240.915 235.816 240.915 235.816L231.237 275.228L207.887 236.03C206.243 235.235 204.362 235.078 202.608 235.59C199.743 236.47 176.179 249.239 176.179 249.239" fill="#F6B9D5"/>
<path d="M235.027 292.171C232.85 292.171 222.54 284.049 200.601 266.114C192.558 259.549 184.245 252.758 183.297 252.431C183.155 252.384 183.036 252.284 182.967 252.151C182.897 252.019 182.882 251.864 182.925 251.72C182.964 251.58 183.058 251.461 183.184 251.389C183.311 251.318 183.461 251.299 183.602 251.337C184.549 251.596 189.467 255.567 201.311 265.245C213.629 275.307 232.117 290.422 234.835 291.02C236.369 288.256 246.51 262.764 252.026 248.889C254.214 243.407 255.794 239.437 256.042 238.884C255.884 237.857 248.574 236.256 243.747 235.928C242.995 235.845 242.237 235.864 241.491 235.985L231.812 275.363C231.785 275.471 231.726 275.567 231.644 275.642C231.562 275.716 231.459 275.764 231.35 275.781C231.239 275.799 231.126 275.784 231.025 275.735C230.924 275.687 230.84 275.608 230.786 275.51L207.527 236.459C206.041 235.802 204.373 235.686 202.811 236.131C200.025 236.989 176.721 249.611 176.484 249.735C176.352 249.804 176.198 249.819 176.055 249.777C175.912 249.735 175.791 249.639 175.717 249.51C175.682 249.444 175.66 249.372 175.653 249.297C175.645 249.223 175.653 249.148 175.675 249.077C175.697 249.005 175.733 248.939 175.781 248.882C175.829 248.824 175.888 248.777 175.954 248.743C176.913 248.224 199.642 235.94 202.473 235.049C204.373 234.487 206.414 234.66 208.192 235.534C208.284 235.581 208.359 235.656 208.406 235.748L231.045 273.75L240.374 235.804C240.361 235.656 240.392 235.507 240.464 235.376C240.701 234.981 241.265 234.631 243.848 234.812C245.642 234.925 255.692 236.075 257.012 238.252C257.123 238.417 257.189 238.607 257.203 238.806C257.217 239.004 257.178 239.202 257.091 239.38C256.854 239.899 255.286 243.892 253.098 249.34C245.202 269.125 236.753 290.343 235.681 291.877C235.617 291.963 235.535 292.035 235.442 292.09C235.349 292.144 235.247 292.179 235.14 292.193L235.027 292.171Z" fill="#263238"/>
<path d="M281.433 262.459L267.784 287.771C267.784 287.771 259.888 282.932 258.76 279.875C258.76 279.875 263.385 301.454 266.904 308.718C270.424 315.983 272.623 321.273 276.154 323.033C279.685 324.792 288.257 326.338 291.123 323.687C293.988 321.036 304.557 303.654 304.771 299.029C304.986 294.404 281.433 262.459 281.433 262.459Z" fill="#F6B9D5"/>
<path d="M285.843 325.638C282.409 325.616 279.015 324.89 275.872 323.506C272.567 321.86 270.435 317.415 267.491 311.268L266.363 308.944C262.855 301.691 258.365 280.857 258.174 279.966C258.142 279.827 258.166 279.681 258.24 279.559C258.313 279.437 258.431 279.349 258.568 279.311C258.706 279.268 258.855 279.281 258.984 279.346C259.112 279.412 259.21 279.525 259.256 279.661C260.046 281.917 265.099 285.425 267.536 286.982L280.903 262.166C280.949 262.082 281.015 262.011 281.096 261.959C281.177 261.908 281.27 261.878 281.365 261.872C281.459 261.864 281.553 261.88 281.638 261.92C281.723 261.959 281.797 262.021 281.85 262.098C284.275 265.381 305.538 294.325 305.301 299.006C305.064 303.687 294.292 321.465 291.472 324.059C290.288 325.21 288.178 325.638 285.843 325.638ZM259.899 282.447C261.264 288.482 264.693 302.853 267.401 308.448L268.529 310.783C271.382 316.727 273.435 321.025 276.425 322.502C279.809 324.183 288.156 325.661 290.761 323.258C293.367 320.856 304.027 303.462 304.241 298.984C304.388 295.791 290.942 276.3 281.534 263.508L268.303 288.042C268.226 288.176 268.101 288.277 267.953 288.324C267.803 288.358 267.646 288.334 267.513 288.256C264.78 286.595 262.232 284.648 259.911 282.447H259.899Z" fill="#263238"/>
<path d="M246.217 250.017L243.837 283.417C243.806 283.884 243.88 284.352 244.055 284.787C244.229 285.221 244.499 285.61 244.845 285.926C245.191 286.241 245.603 286.474 246.052 286.609C246.5 286.743 246.973 286.774 247.435 286.7L261.163 284.444C261.856 284.33 262.49 283.985 262.961 283.465C263.432 282.944 263.713 282.279 263.758 281.579L265.777 249.51C265.807 249.012 265.731 248.514 265.552 248.049C265.374 247.584 265.098 247.163 264.744 246.813C264.389 246.464 263.963 246.194 263.495 246.023C263.027 245.852 262.528 245.783 262.032 245.821L249.409 246.814C248.582 246.879 247.806 247.237 247.221 247.825C246.635 248.412 246.279 249.19 246.217 250.017V250.017Z" fill="#263238"/>
<path d="M246.927 287.298C246.424 287.299 245.926 287.196 245.465 286.996C245.003 286.795 244.588 286.502 244.246 286.133C243.904 285.764 243.641 285.328 243.476 284.853C243.31 284.378 243.245 283.874 243.284 283.372L245.653 249.983C245.715 249.016 246.126 248.105 246.808 247.417C247.49 246.728 248.397 246.31 249.364 246.238L261.986 245.246C262.563 245.201 263.143 245.281 263.686 245.479C264.23 245.678 264.724 245.991 265.136 246.398C265.548 246.804 265.867 247.294 266.073 247.835C266.279 248.376 266.366 248.955 266.329 249.532L264.321 281.601C264.266 282.429 263.933 283.213 263.376 283.827C262.819 284.442 262.071 284.85 261.253 284.985L247.536 287.241C247.335 287.277 247.132 287.296 246.927 287.298V287.298ZM262.336 246.362H262.11L249.488 247.355C248.792 247.405 248.137 247.706 247.646 248.202C247.154 248.698 246.859 249.354 246.815 250.051V250.051L244.434 283.44C244.405 283.823 244.463 284.208 244.605 284.565C244.746 284.922 244.967 285.242 245.251 285.501C245.535 285.76 245.874 285.95 246.243 286.058C246.611 286.166 247 286.189 247.379 286.124L261.106 283.868C261.673 283.775 262.192 283.492 262.577 283.066C262.962 282.64 263.191 282.096 263.227 281.522L265.246 249.442C265.268 249.026 265.202 248.61 265.052 248.221C264.902 247.833 264.673 247.48 264.377 247.186C263.83 246.656 263.098 246.36 262.336 246.362V246.362Z" fill="#263238"/>
<path d="M223.747 291.956C223.747 291.956 229.692 288.877 232.117 284.917C234.542 280.958 240.475 266.869 241.141 265.538C241.806 264.207 262.494 261.354 264.479 262.459C266.464 263.564 263.599 265.538 263.599 265.538C263.599 265.538 248.845 267.794 247.751 268.404C246.657 269.013 244.446 273.028 244.446 273.028C244.446 273.028 253.47 270.603 256.549 270.378C259.629 270.152 266.025 269.498 266.239 270.603C266.453 271.709 264.705 272.859 262.28 273.683C259.854 274.506 255.23 274.811 251 276.108C248.625 276.82 246.393 277.938 244.401 279.413C244.401 279.413 254.745 276.988 258.929 276.762C263.114 276.536 267.299 276.108 266.419 277.642C265.539 279.176 260.035 279.187 256.504 280.507C252.974 281.827 245.721 284.252 245.721 284.252C245.721 284.252 262.641 280.733 261.355 282.267C260.069 283.801 255.624 284.692 252.545 285.357C249.465 286.023 246.16 287.331 245.055 288.877C243.95 290.422 241.31 295.047 238.671 297.021C236.031 298.995 231.846 299.221 231.192 299.221C230.538 299.221 225.687 302.311 225.687 302.311L223.747 291.956Z" fill="white"/>
<path d="M225.732 302.864C225.657 302.876 225.581 302.876 225.507 302.864C225.423 302.824 225.349 302.765 225.291 302.693C225.232 302.621 225.19 302.537 225.168 302.447L223.194 292.103C223.171 291.983 223.187 291.859 223.239 291.75C223.292 291.64 223.379 291.55 223.487 291.494C223.544 291.494 229.319 288.437 231.632 284.658C233.414 281.737 237.193 273.119 239.223 268.494C239.968 266.791 240.464 265.674 240.633 265.313C240.802 264.952 241.096 264.783 242.201 264.444C246.239 263.192 262.697 260.846 264.761 261.997C265.03 262.121 265.261 262.315 265.43 262.559C265.599 262.803 265.699 263.088 265.72 263.384C265.787 264.659 264.208 265.82 263.904 266.035C263.828 266.081 263.744 266.112 263.656 266.125C258.016 266.971 248.834 268.46 248.01 268.922C247.041 269.873 246.227 270.969 245.596 272.171C249.178 271.176 252.817 270.4 256.493 269.847L257.767 269.757C263.915 269.272 266.521 269.272 266.791 270.524C267.062 271.776 265.663 273.107 262.471 274.247C260.95 274.713 259.391 275.049 257.812 275.251C255.584 275.576 253.379 276.051 251.214 276.672C249.967 277.075 248.753 277.573 247.582 278.161C251.328 277.286 255.126 276.646 258.952 276.243L260.384 276.153C264.332 275.927 266.419 275.848 266.994 276.796C267.101 276.965 267.157 277.16 267.157 277.36C267.157 277.559 267.101 277.755 266.994 277.924C266.351 279.052 264.265 279.424 261.636 279.898C259.994 280.135 258.375 280.512 256.797 281.026C255.929 281.353 254.823 281.748 253.661 282.154C261.433 280.823 261.806 281.455 261.986 281.759C262.063 281.897 262.094 282.056 262.074 282.212C262.053 282.369 261.983 282.514 261.873 282.628C260.486 284.241 256.425 285.109 253.165 285.809L252.748 285.899C249.364 286.621 246.499 287.941 245.608 289.193C245.382 289.52 245.077 289.971 244.728 290.524C243.352 292.644 241.265 295.848 239.088 297.461C236.087 299.717 231.316 299.785 231.271 299.785C229.466 300.658 227.724 301.657 226.059 302.774C225.962 302.837 225.848 302.868 225.732 302.864ZM224.379 292.25L226.127 301.375C228.248 300.044 230.639 298.657 231.237 298.657C231.237 298.657 235.67 298.589 238.377 296.558C240.385 295.058 242.404 291.956 243.735 289.903C244.096 289.339 244.412 288.866 244.649 288.538C245.935 286.734 249.533 285.425 252.477 284.793L252.883 284.703C255.263 284.196 258.681 283.462 260.328 282.447C255.47 282.956 250.645 283.747 245.878 284.816C245.738 284.847 245.591 284.821 245.469 284.746C245.347 284.67 245.259 284.549 245.224 284.41C245.185 284.272 245.201 284.125 245.268 283.999C245.335 283.873 245.449 283.777 245.585 283.733C245.664 283.733 252.883 281.297 256.357 279.988C257.998 279.465 259.681 279.088 261.388 278.86C263.362 278.51 265.584 278.104 265.968 277.439C265.63 277.01 262.516 277.191 260.452 277.315L259.008 277.394C254.925 277.608 244.671 279.999 244.57 280.022C244.447 280.053 244.317 280.041 244.202 279.987C244.087 279.934 243.994 279.843 243.938 279.729C243.883 279.614 243.867 279.484 243.894 279.36C243.92 279.235 243.988 279.123 244.085 279.041C246.13 277.532 248.419 276.388 250.853 275.657C253.073 275.017 255.334 274.53 257.621 274.202C259.129 274.001 260.619 273.681 262.076 273.243C264.58 272.329 265.675 271.415 265.686 270.885C264.862 270.389 259.978 270.772 257.869 270.885L256.583 270.987C253.594 271.201 244.671 273.592 244.581 273.615C244.472 273.643 244.358 273.639 244.252 273.603C244.146 273.567 244.052 273.5 243.983 273.412C243.923 273.32 243.89 273.212 243.89 273.102C243.89 272.991 243.923 272.884 243.983 272.792C244.367 272.115 246.318 268.663 247.491 267.964C248.664 267.264 260.644 265.46 263.419 265.042C263.96 264.636 264.671 263.914 264.648 263.452C264.648 263.395 264.648 263.215 264.242 262.989C262.573 262.064 243.126 264.568 241.682 265.911C241.569 266.159 241.028 267.388 240.351 268.956C238.309 273.615 234.508 282.278 232.681 285.256C230.447 288.719 225.743 291.505 224.379 292.261V292.25Z" fill="#263238"/>
<path d="M184.233 255.195C184.233 255.195 178.593 258.049 178.39 262.459C178.187 266.869 177.95 311.775 176.134 321.025C174.318 330.274 173.72 335.114 176.134 337.945C178.548 340.776 194.859 360.629 203.657 362.163C212.456 363.697 243.16 333.32 243.16 333.32C243.16 333.32 233.008 317.246 230.165 309.756C227.323 302.266 224.435 291.043 224.435 291.043C224.435 291.043 217.171 293.682 215.197 294.573C213.223 295.464 208.147 284.421 207.707 280.259C207.267 276.097 207.267 273.209 207.267 273.209" fill="#F6B9D5"/>
<path d="M204.357 362.817C204.109 362.835 203.86 362.835 203.612 362.817C197.972 361.825 188.486 353.556 176.168 338.892L175.751 338.396C173.213 335.396 173.766 330.782 175.627 320.98C176.969 313.941 177.409 286.181 177.646 271.257C177.713 266.745 177.77 263.519 177.826 262.482C178.052 257.8 183.737 254.879 183.985 254.755C184.051 254.72 184.123 254.699 184.197 254.693C184.271 254.687 184.345 254.695 184.416 254.718C184.486 254.742 184.551 254.779 184.607 254.828C184.663 254.876 184.709 254.936 184.741 255.003C184.805 255.137 184.815 255.29 184.769 255.431C184.722 255.571 184.624 255.689 184.493 255.759C184.436 255.759 179.146 258.522 178.954 262.527C178.898 263.553 178.841 266.791 178.774 271.269C178.537 286.215 178.097 314.042 176.743 321.171C174.984 330.41 174.397 335.035 176.619 337.663L177.025 338.148C189.005 352.406 198.457 360.764 203.804 361.689C204.017 361.726 204.232 361.745 204.447 361.746C213.133 361.746 239.201 336.456 242.404 333.32C240.814 330.771 232.252 316.941 229.601 310.038C227.142 303.597 224.65 294.302 224.018 291.866C222.258 292.509 217.002 294.449 215.389 295.16C215.186 295.245 214.964 295.278 214.745 295.254C214.526 295.231 214.317 295.151 214.137 295.024C211.565 293.547 207.493 284.015 207.109 280.36C206.669 276.198 206.669 273.288 206.669 273.254C206.669 273.104 206.729 272.961 206.834 272.855C206.94 272.749 207.084 272.69 207.233 272.69C207.383 272.69 207.526 272.749 207.632 272.855C207.738 272.961 207.797 273.104 207.797 273.254C207.797 273.254 207.797 276.142 208.237 280.236C208.609 283.835 212.603 292.802 214.701 294.02C214.847 294.099 214.926 294.111 214.926 294.099C216.912 293.22 223.95 290.715 224.21 290.558C224.282 290.524 224.361 290.507 224.441 290.507C224.521 290.507 224.6 290.524 224.672 290.558C224.81 290.637 224.911 290.766 224.954 290.918C224.954 291.031 227.842 302.198 230.662 309.576C233.482 316.953 243.498 332.869 243.6 333.038C243.668 333.146 243.697 333.274 243.683 333.401C243.669 333.529 243.612 333.647 243.521 333.737C242.292 334.978 214.137 362.817 204.357 362.817Z" fill="#263238"/>
<path d="M183.759 331.459C183.67 331.471 183.579 331.471 183.489 331.459C183.331 331.389 183.198 331.275 183.104 331.131C183.009 330.987 182.959 330.819 182.959 330.647C182.744 328.842 185.136 322.627 189.072 319.942C189.197 319.859 189.349 319.827 189.497 319.855C189.644 319.882 189.775 319.966 189.862 320.089C189.905 320.15 189.935 320.219 189.951 320.292C189.966 320.365 189.967 320.441 189.954 320.514C189.94 320.587 189.912 320.657 189.871 320.72C189.83 320.783 189.777 320.836 189.715 320.878C186.331 323.134 184.346 328.131 184.075 329.97C186.004 327.939 191.125 321.205 193.776 317.652C199.224 308.921 213.73 294.821 213.877 294.686C213.987 294.595 214.127 294.55 214.269 294.558C214.411 294.566 214.545 294.628 214.643 294.731C214.742 294.834 214.798 294.97 214.8 295.112C214.802 295.254 214.751 295.392 214.655 295.498C214.509 295.634 200.115 309.643 194.701 318.284C194.34 318.78 186.252 329.62 184.47 331.188C184.272 331.358 184.021 331.454 183.759 331.459V331.459Z" fill="#263238"/>
<path d="M187.64 310.354C187.531 310.355 187.424 310.325 187.332 310.267C187.24 310.209 187.167 310.126 187.121 310.027C187.06 309.891 187.055 309.736 187.108 309.596C187.161 309.457 187.267 309.344 187.403 309.282C192.589 307.071 198.074 305.646 203.68 305.052C203.754 305.046 203.829 305.055 203.9 305.078C203.97 305.1 204.036 305.137 204.093 305.185C204.149 305.233 204.196 305.292 204.23 305.359C204.263 305.425 204.284 305.497 204.289 305.571C204.295 305.644 204.287 305.717 204.265 305.786C204.243 305.856 204.207 305.92 204.16 305.976C204.113 306.031 204.055 306.077 203.99 306.11C203.925 306.143 203.854 306.163 203.782 306.169C198.309 306.757 192.953 308.152 187.888 310.309C187.81 310.342 187.725 310.357 187.64 310.354V310.354Z" fill="#263238"/>
<g opacity="0.5">
<path d="M411.988 269.588V248.9L219.833 405.456L224.774 411.524H237.757L411.988 269.588Z" fill="white"/>
<path d="M284.354 93.056H258.974L160.816 173.031V193.707L284.354 93.056Z" fill="white"/>
<path d="M160.816 121.042V161.119L244.356 93.056H195.175L160.816 121.042Z" fill="white"/>
<path d="M411.988 375.575V288.708L261.23 411.524H367.86L411.988 375.575Z" fill="white"/>
</g>
<path d="M411.864 90.8H163.072C162.474 90.8 161.9 91.0377 161.477 91.4608C161.054 91.8838 160.816 92.4577 160.816 93.056V397.616C160.816 398.214 161.054 398.788 161.477 399.211C161.9 399.634 162.474 399.872 163.072 399.872H411.864C412.462 399.872 413.036 399.634 413.459 399.211C413.882 398.788 414.12 398.214 414.12 397.616V93.056C414.12 92.4577 413.882 91.8838 413.459 91.4608C413.036 91.0377 412.462 90.8 411.864 90.8ZM409.608 328.075H295.048V95.312H409.608V328.075ZM286.396 95.312V328.075H165.328V95.312H286.396ZM165.328 332.587H286.396V395.36H165.328V332.587ZM295.048 395.36V332.587H409.608V395.36H295.048Z" fill="white"/>
<path d="M437.548 410.611H142.994V442.161H437.548V410.611Z" fill="#263238"/>
<path d="M437.548 399.827H142.994V431.377H437.548V399.827Z" fill="#F6B9D5"/>
<path d="M437.548 431.941H143.005C142.855 431.941 142.712 431.882 142.606 431.776C142.5 431.67 142.441 431.527 142.441 431.377V399.872C142.441 399.722 142.5 399.579 142.606 399.473C142.712 399.367 142.855 399.308 143.005 399.308H437.548C437.698 399.308 437.841 399.367 437.947 399.473C438.053 399.579 438.112 399.722 438.112 399.872V431.456C438.093 431.592 438.025 431.715 437.922 431.805C437.818 431.894 437.685 431.942 437.548 431.941V431.941ZM143.569 430.813H436.984V400.357H143.569V430.813Z" fill="#263238"/>
<path d="M159.226 405.895H143.118C142.968 405.895 142.825 405.836 142.719 405.73C142.613 405.624 142.554 405.481 142.554 405.331C142.554 405.182 142.613 405.038 142.719 404.933C142.825 404.827 142.968 404.767 143.118 404.767H159.226C159.375 404.767 159.519 404.827 159.624 404.933C159.73 405.038 159.79 405.182 159.79 405.331C159.79 405.481 159.73 405.624 159.624 405.73C159.519 405.836 159.375 405.895 159.226 405.895Z" fill="#263238"/>
<path d="M165.215 410.024H147.618C147.469 410.024 147.325 409.965 147.219 409.859C147.114 409.753 147.054 409.61 147.054 409.46C147.054 409.31 147.114 409.167 147.219 409.061C147.325 408.955 147.469 408.896 147.618 408.896H165.215C165.365 408.896 165.508 408.955 165.614 409.061C165.72 409.167 165.779 409.31 165.779 409.46C165.779 409.61 165.72 409.753 165.614 409.859C165.508 409.965 165.365 410.024 165.215 410.024Z" fill="#263238"/>
<path d="M168.216 424.248H149.536C149.387 424.248 149.243 424.189 149.137 424.083C149.032 423.977 148.972 423.834 148.972 423.684C148.972 423.534 149.032 423.391 149.137 423.285C149.243 423.179 149.387 423.12 149.536 423.12H168.261C168.411 423.12 168.554 423.179 168.66 423.285C168.766 423.391 168.825 423.534 168.825 423.684C168.825 423.834 168.766 423.977 168.66 424.083C168.554 424.189 168.411 424.248 168.261 424.248H168.216Z" fill="#263238"/>
<path d="M171.961 421.304H147.991C147.841 421.304 147.698 421.245 147.592 421.139C147.486 421.033 147.427 420.89 147.427 420.74C147.427 420.59 147.486 420.447 147.592 420.341C147.698 420.235 147.841 420.176 147.991 420.176H171.961C172.109 420.179 172.251 420.239 172.356 420.344C172.462 420.45 172.522 420.591 172.525 420.74C172.525 420.89 172.465 421.033 172.36 421.139C172.254 421.245 172.11 421.304 171.961 421.304Z" fill="#263238"/>
<path d="M157.725 427.249H149.829C149.68 427.249 149.536 427.189 149.43 427.083C149.325 426.978 149.265 426.834 149.265 426.685C149.265 426.535 149.325 426.392 149.43 426.286C149.536 426.18 149.68 426.121 149.829 426.121H157.725C157.875 426.121 158.018 426.18 158.124 426.286C158.23 426.392 158.289 426.535 158.289 426.685C158.289 426.834 158.23 426.978 158.124 427.083C158.018 427.189 157.875 427.249 157.725 427.249Z" fill="#263238"/>
<path d="M168.96 416.014H155.853C155.704 416.011 155.563 415.95 155.457 415.845C155.352 415.74 155.292 415.598 155.289 415.45C155.289 415.3 155.348 415.157 155.454 415.051C155.56 414.945 155.703 414.886 155.853 414.886H168.96C169.11 414.886 169.253 414.945 169.359 415.051C169.465 415.157 169.524 415.3 169.524 415.45C169.524 415.599 169.465 415.743 169.359 415.848C169.253 415.954 169.11 416.014 168.96 416.014Z" fill="#263238"/>
<path d="M157.725 412.641H151.792C151.642 412.641 151.499 412.582 151.393 412.476C151.287 412.37 151.228 412.227 151.228 412.077C151.228 411.927 151.287 411.784 151.393 411.678C151.499 411.572 151.642 411.513 151.792 411.513H157.782C157.931 411.513 158.075 411.572 158.181 411.678C158.286 411.784 158.346 411.927 158.346 412.077C158.346 412.156 158.33 412.234 158.298 412.307C158.266 412.379 158.22 412.444 158.161 412.497C158.103 412.55 158.034 412.591 157.959 412.615C157.883 412.64 157.804 412.649 157.725 412.641Z" fill="#263238"/>
<path d="M171.961 404.768H166.321C166.171 404.768 166.028 404.708 165.922 404.602C165.816 404.497 165.757 404.353 165.757 404.204C165.757 404.054 165.816 403.91 165.922 403.805C166.028 403.699 166.171 403.64 166.321 403.64H171.961C172.11 403.642 172.251 403.703 172.356 403.808C172.462 403.913 172.522 404.055 172.525 404.204C172.525 404.353 172.465 404.497 172.36 404.602C172.254 404.708 172.11 404.768 171.961 404.768Z" fill="#263238"/>
<path d="M437.559 399.827H172.852V431.377H437.559V399.827Z" fill="#F6B9D5"/>
<path d="M437.548 431.941H172.852C172.702 431.941 172.559 431.882 172.453 431.776C172.347 431.67 172.288 431.527 172.288 431.377V399.872C172.288 399.722 172.347 399.579 172.453 399.473C172.559 399.367 172.702 399.308 172.852 399.308H437.548C437.698 399.308 437.841 399.367 437.947 399.473C438.053 399.579 438.112 399.722 438.112 399.872V431.456C438.093 431.592 438.025 431.715 437.921 431.805C437.818 431.894 437.685 431.942 437.548 431.941V431.941ZM173.416 430.813H436.984V400.357H173.416V430.813Z" fill="#263238"/>
<path d="M188.351 409.765H173.687C173.537 409.765 173.394 409.705 173.288 409.599C173.182 409.494 173.123 409.35 173.123 409.201C173.125 409.052 173.186 408.91 173.291 408.805C173.396 408.7 173.538 408.639 173.687 408.637H188.351C188.499 408.639 188.641 408.7 188.746 408.805C188.851 408.91 188.912 409.052 188.915 409.201C188.915 409.35 188.855 409.494 188.749 409.599C188.644 409.705 188.5 409.765 188.351 409.765Z" fill="#263238"/>
<path d="M183.85 414.265H172.818C172.668 414.265 172.525 414.206 172.419 414.1C172.313 413.994 172.254 413.851 172.254 413.701C172.254 413.552 172.313 413.408 172.419 413.302C172.525 413.197 172.668 413.137 172.818 413.137H183.85C183.999 413.137 184.143 413.197 184.249 413.302C184.354 413.408 184.414 413.552 184.414 413.701C184.414 413.851 184.354 413.994 184.249 414.1C184.143 414.206 183.999 414.265 183.85 414.265Z" fill="#263238"/>
<path d="M436.871 417.536H408.671C408.522 417.536 408.378 417.477 408.273 417.371C408.167 417.265 408.107 417.122 408.107 416.972C408.107 416.823 408.167 416.679 408.273 416.574C408.378 416.468 408.522 416.408 408.671 416.408H436.871C437.021 416.408 437.164 416.468 437.27 416.574C437.376 416.679 437.435 416.823 437.435 416.972C437.435 417.122 437.376 417.265 437.27 417.371C437.164 417.477 437.021 417.536 436.871 417.536Z" fill="#263238"/>
<path d="M414.796 420.808H407.442C407.292 420.808 407.149 420.748 407.043 420.642C406.937 420.537 406.878 420.393 406.878 420.244C406.878 420.094 406.937 419.951 407.043 419.845C407.149 419.739 407.292 419.68 407.442 419.68H414.796C414.946 419.68 415.09 419.739 415.195 419.845C415.301 419.951 415.36 420.094 415.36 420.244C415.36 420.393 415.301 420.537 415.195 420.642C415.09 420.748 414.946 420.808 414.796 420.808Z" fill="#263238"/>
<path d="M248.8 427.756H204.244C204.095 427.756 203.951 427.697 203.845 427.591C203.74 427.485 203.68 427.342 203.68 427.192C203.68 427.043 203.74 426.899 203.845 426.793C203.951 426.688 204.095 426.628 204.244 426.628H248.8C248.95 426.628 249.093 426.688 249.199 426.793C249.305 426.899 249.364 427.043 249.364 427.192C249.361 427.341 249.301 427.483 249.196 427.588C249.091 427.693 248.949 427.753 248.8 427.756V427.756Z" fill="#263238"/>
<path d="M210.832 422.849H199.382C199.234 422.846 199.092 422.786 198.987 422.681C198.882 422.576 198.821 422.434 198.818 422.285C198.818 422.136 198.878 421.992 198.984 421.887C199.089 421.781 199.233 421.721 199.382 421.721H210.832C210.981 421.721 211.125 421.781 211.23 421.887C211.336 421.992 211.396 422.136 211.396 422.285C211.393 422.434 211.332 422.576 211.227 422.681C211.122 422.786 210.98 422.846 210.832 422.849Z" fill="#263238"/>
<path d="M372.113 357.493C371.974 357.494 371.84 357.442 371.737 357.347C371.635 357.253 371.571 357.124 371.56 356.985C371.56 356.805 369.372 338.012 356.817 323.969C344.037 309.632 340.314 289.52 340.269 289.328C340.256 289.255 340.258 289.179 340.274 289.107C340.291 289.034 340.321 288.965 340.364 288.905C340.407 288.844 340.462 288.792 340.525 288.752C340.588 288.713 340.658 288.686 340.732 288.674C340.878 288.65 341.028 288.684 341.149 288.768C341.271 288.852 341.356 288.98 341.386 289.125C341.386 289.328 345.097 309.147 357.663 323.224C370.455 337.55 372.654 356.692 372.677 356.884C372.693 357.032 372.649 357.18 372.556 357.296C372.463 357.413 372.328 357.487 372.18 357.504L372.113 357.493Z" fill="#263238"/>
<path d="M376.738 359.546C376.611 359.547 376.487 359.506 376.387 359.428C376.286 359.35 376.215 359.241 376.185 359.117C376.106 358.779 374.143 350.601 376.692 333.252C379.242 315.904 394.65 300.258 394.797 300.1C394.904 299.996 395.048 299.938 395.197 299.938C395.347 299.938 395.49 299.996 395.598 300.1C395.651 300.153 395.692 300.215 395.721 300.284C395.75 300.353 395.764 300.426 395.764 300.501C395.764 300.575 395.75 300.649 395.721 300.718C395.692 300.786 395.651 300.849 395.598 300.901C395.451 301.059 380.313 316.366 377.809 333.41C375.305 350.454 377.256 358.768 377.279 358.847C377.299 358.918 377.305 358.992 377.295 359.066C377.285 359.139 377.26 359.209 377.222 359.273C377.184 359.336 377.134 359.391 377.074 359.434C377.013 359.477 376.945 359.508 376.873 359.523L376.738 359.546Z" fill="#263238"/>
<path d="M376.738 366.731C376.61 366.73 376.486 366.686 376.386 366.606C376.286 366.527 376.215 366.416 376.185 366.291C376.185 366.088 371.019 344.995 367.973 323.664C364.928 302.334 366.417 290.794 366.428 290.682C366.45 290.535 366.529 290.403 366.646 290.312C366.764 290.222 366.912 290.18 367.06 290.197C367.208 290.216 367.342 290.294 367.433 290.412C367.524 290.531 367.564 290.68 367.545 290.828C367.545 290.941 366.056 302.311 369.09 323.54C372.124 344.769 377.234 365.852 377.279 366.066C377.298 366.137 377.302 366.211 377.292 366.284C377.281 366.357 377.256 366.427 377.218 366.49C377.181 366.553 377.131 366.607 377.071 366.651C377.012 366.694 376.945 366.726 376.873 366.743L376.738 366.731Z" fill="#263238"/>
<path d="M341.849 293.84C341.849 293.84 335.701 295.374 335.182 284.094C334.663 272.814 342.424 265.11 342.424 265.11C342.424 265.11 342.424 271.269 345.503 275.882C348.583 280.496 348.064 294.867 341.849 293.84Z" fill="#F6B9D5"/>
<path d="M366.992 295.893C366.992 295.893 360.833 297.427 360.325 286.136C359.818 274.845 367.499 267.163 367.499 267.163C367.499 267.163 367.499 273.322 370.579 277.935C373.658 282.549 373.139 296.908 366.992 295.893Z" fill="#F6B9D5"/>
<path d="M392.383 306.248C392.383 306.248 386.382 304.161 392.135 294.438C397.888 284.715 408.548 282.492 408.548 282.492C408.548 282.492 405.164 287.647 405.22 293.197C405.276 298.747 396.963 310.433 392.383 306.248Z" fill="#F6B9D5"/>
<path d="M374.166 354.369C374.166 354.369 378.272 335.903 386.991 327.172C392.165 321.993 399.163 319.049 406.483 318.972C406.483 318.972 396.23 323.078 393.15 331.278C390.071 339.479 390.071 357.448 390.071 357.448H355.193C355.193 357.448 356.219 350.77 347.5 343.077C338.781 335.384 324.376 330.252 324.376 330.252C324.376 330.252 340.281 324.612 351.561 329.225C362.841 333.839 371.064 353.342 371.064 353.342L374.166 354.369Z" fill="#F6B9D5"/>
<path d="M389.575 399.511H354.663L350.58 360.009H393.658L389.575 399.511Z" fill="white"/>
<path d="M389.563 400.064H354.663C354.525 400.065 354.393 400.014 354.291 399.922C354.188 399.831 354.124 399.704 354.11 399.567L350.015 360.087C350.006 360.009 350.014 359.929 350.037 359.853C350.06 359.778 350.099 359.708 350.151 359.648C350.205 359.591 350.27 359.546 350.341 359.515C350.413 359.484 350.49 359.468 350.568 359.467H393.658C393.736 359.466 393.814 359.481 393.886 359.512C393.958 359.544 394.022 359.59 394.075 359.648C394.131 359.705 394.173 359.775 394.198 359.851C394.223 359.927 394.231 360.008 394.222 360.087L390.127 399.567C390.113 399.706 390.047 399.834 389.942 399.926C389.838 400.018 389.702 400.067 389.563 400.064V400.064ZM355.17 398.936H389.01L392.992 360.584H351.2L355.17 398.936Z" fill="#263238"/>
<path d="M351.38 367.758H392.857L393.658 360.009H350.58L351.38 367.758Z" fill="#263238"/>
<path d="M392.857 368.288H351.38C351.24 368.289 351.104 368.237 351 368.143C350.896 368.049 350.83 367.92 350.816 367.78L350.015 360.031C350.006 359.952 350.014 359.873 350.037 359.797C350.06 359.721 350.099 359.651 350.151 359.591C350.205 359.535 350.27 359.49 350.341 359.459C350.413 359.428 350.49 359.411 350.568 359.411H393.658C393.736 359.409 393.814 359.425 393.886 359.456C393.958 359.487 394.022 359.533 394.075 359.591C394.131 359.649 394.173 359.719 394.198 359.795C394.223 359.871 394.231 359.951 394.222 360.031L393.421 367.78C393.407 367.92 393.341 368.049 393.237 368.143C393.133 368.237 392.997 368.289 392.857 368.288ZM351.888 367.16H392.349L393.037 360.539H351.2L351.888 367.16Z" fill="#263238"/>
<path d="M397.775 352.316H346.474V361.554H397.775V352.316Z" fill="white"/>
<path d="M397.764 362.107H346.474C346.324 362.107 346.181 362.047 346.075 361.941C345.969 361.836 345.91 361.692 345.91 361.543V352.316C345.91 352.166 345.969 352.022 346.075 351.917C346.181 351.811 346.324 351.752 346.474 351.752H397.764C397.913 351.752 398.057 351.811 398.163 351.917C398.268 352.022 398.328 352.166 398.328 352.316V361.52C398.331 361.596 398.319 361.672 398.292 361.743C398.265 361.814 398.224 361.879 398.171 361.933C398.118 361.988 398.055 362.032 397.985 362.062C397.915 362.091 397.84 362.107 397.764 362.107V362.107ZM347.004 360.979H397.166V352.88H347.038L347.004 360.979Z" fill="#263238"/>
</svg>
