<svg class="svg" width="1552" height="6770" viewBox="0 0 1552 6770" fill="none" xmlns="http://www.w3.org/2000/svg">
<g filter="url(#filter0_f_1666_2410)">
<path class="svg-path" fill-rule="evenodd" clip-rule="evenodd" d="M1447.3 370C1447.3 546.747 1305.2 690 1129.95 690C954.706 690 812.612 546.747 812.612 370C812.612 193.253 954.706 50 1129.95 50C1305.2 50 1447.3 193.253 1447.3 370ZM1449.3 370C1449.3 528.076 1336.33 659.547 1187.36 686.812C1189.9 686.628 1192.51 686.449 1195.2 686.278C1221.89 684.577 1255.07 683.696 1280.83 687.008C1326.24 692.848 1380.17 715.791 1422.68 737.22C1443.95 747.942 1462.39 758.299 1475.51 765.976C1482.07 769.815 1487.3 772.984 1490.9 775.194C1492.69 776.299 1494.08 777.164 1495.02 777.753C1495.29 777.925 1495.53 778.073 1495.72 778.197L1496.08 778.426L1496.36 778.599L1496.42 778.642L1496.44 778.654L1496.45 778.657C1496.45 778.657 1496.45 778.658 1495.91 779.5C1495.37 780.342 1495.37 780.342 1495.37 780.341L1495.36 780.339L1495.35 780.328L1495.28 780.285L1495.01 780.115C1494.77 779.964 1494.42 779.74 1493.95 779.447C1493.02 778.861 1491.64 777.999 1489.85 776.897C1486.27 774.694 1481.05 771.533 1474.5 767.702C1461.41 760.041 1443.01 749.704 1421.78 739.006C1379.31 717.593 1325.63 694.786 1280.57 688.992C1255.02 685.706 1222 686.575 1195.32 688.274C1182 689.123 1170.27 690.177 1161.87 691.02C1157.68 691.441 1154.31 691.81 1152 692.072C1150.84 692.204 1149.95 692.309 1149.34 692.381C1149.04 692.417 1148.81 692.445 1148.66 692.464L1148.48 692.485L1148.44 692.49L1148.43 692.492L1148.43 692.492C1148.43 692.492 1148.42 692.492 1148.3 691.507L1148.3 691.51L1148.42 692.492L1148.42 692.493L1148.3 691.517C1148.42 692.493 1148.42 692.493 1148.41 692.494L1148.38 692.497L1148.28 692.509L1147.89 692.555C1147.53 692.596 1147.01 692.657 1146.31 692.736C1145.64 692.813 1144.82 692.906 1143.84 693.016C1142.78 693.135 1141.54 693.274 1140.12 693.431C1134.69 694.033 1126.67 694.9 1116.33 695.962C1095.65 698.087 1065.71 700.992 1028.64 704.113C954.501 710.357 851.853 717.467 737.81 720.937C509.771 727.874 236.018 720.26 53.6042 661.952L54.2131 660.047C236.267 718.24 509.709 725.875 737.75 718.938C851.747 715.47 954.359 708.362 1028.47 702.12C1065.53 699 1095.46 696.096 1116.12 693.973C1123.8 693.183 1130.21 692.502 1135.22 691.957C1133.47 691.986 1131.71 692 1129.95 692C953.586 692 810.612 547.836 810.612 370C810.612 192.164 953.586 48 1129.95 48C1306.32 48 1449.3 192.164 1449.3 370ZM855.583 1243.33C901.563 1227.1 954.924 1223.58 1020.22 1245.59C1052.66 1256.53 1078.52 1258.8 1099.68 1254.69C1120.83 1250.58 1137.38 1240.08 1151.19 1225.27C1165.01 1210.45 1176.08 1191.32 1186.22 1169.99C1193.03 1155.69 1199.39 1140.45 1205.89 1124.88L1205.9 1124.87L1205.9 1124.85C1209.1 1117.2 1212.33 1109.47 1215.65 1101.74C1235.83 1054.85 1259.64 1007.91 1301.95 978.627C1344.31 949.303 1405.02 937.806 1498.67 961.309L1498.19 963.249C1404.88 939.834 1344.83 951.381 1303.09 980.272C1261.3 1009.2 1237.66 1055.65 1217.49 1102.53C1214.18 1110.22 1210.96 1117.93 1207.77 1125.58C1201.25 1141.18 1194.85 1156.5 1188.03 1170.85C1177.85 1192.25 1166.68 1211.59 1152.65 1226.63C1138.61 1241.7 1121.69 1252.45 1100.06 1256.66C1078.46 1260.85 1052.23 1258.49 1019.58 1247.49C954.705 1225.62 901.803 1229.13 856.249 1245.22C810.657 1261.32 772.37 1290.03 736.748 1318.68C732.247 1322.29 727.787 1325.91 723.36 1329.51C692.806 1354.31 663.797 1377.85 633.387 1391.47C598.466 1407.1 561.656 1409.67 518.472 1386.28C432.978 1339.98 317.1 1337.6 222.448 1346.86C175.147 1351.48 133.199 1359.01 103.077 1365.38C88.0158 1368.57 75.913 1371.46 67.5772 1373.56C63.4093 1374.61 60.1833 1375.46 58.0004 1376.05C56.909 1376.34 56.0783 1376.57 55.521 1376.73C55.2423 1376.8 55.0322 1376.86 54.8917 1376.9L54.7339 1376.95L54.6947 1376.96L54.6851 1376.96C54.683 1376.96 54.6822 1376.96 54.4081 1376C54.134 1375.04 54.1353 1375.04 54.1378 1375.04L54.1483 1375.03L54.1892 1375.02L54.3504 1374.98C54.4487 1374.95 54.5802 1374.91 54.7444 1374.87L54.9867 1374.8C55.5487 1374.64 56.3841 1374.41 57.4806 1374.12C59.6734 1373.53 62.9099 1372.68 67.0888 1371.62C75.4465 1369.52 87.5744 1366.62 102.663 1363.43C132.838 1357.04 174.861 1349.5 222.253 1344.87C316.986 1335.6 433.378 1337.92 519.424 1384.52C562.009 1407.58 598.16 1405.04 632.57 1389.64C662.718 1376.14 691.498 1352.79 722.081 1327.97L722.083 1327.97L722.086 1327.97L722.087 1327.96C726.515 1324.37 730.982 1320.75 735.495 1317.12C771.126 1288.46 809.642 1259.56 855.583 1243.33ZM543.532 1815.49C607.327 1841.43 661.864 1844.77 710.098 1835.86C758.311 1826.97 800.166 1805.85 838.607 1782.98C850.833 1775.71 862.7 1768.27 874.314 1760.99C899.276 1745.34 923.068 1730.43 946.727 1719.49C981.331 1703.49 1015.44 1696.12 1052.11 1707.52C1088.86 1718.94 1135.37 1754.59 1184.54 1801.84C1233.68 1849.06 1285.34 1907.71 1332.39 1964.95C1379.43 2022.18 1421.86 2077.98 1452.53 2119.47C1467.86 2140.21 1480.25 2157.38 1488.81 2169.36C1493.09 2175.35 1496.41 2180.05 1498.66 2183.24C1499.13 2183.92 1499.56 2184.52 1499.94 2185.06C1500.46 2185.8 1500.88 2186.41 1501.22 2186.89L1501.58 2187.4L1501.87 2187.82L1502.03 2188.05L1502.07 2188.11L1502.08 2188.13C1502.09 2188.13 1502.09 2188.13 1502.91 2187.56L1503.3 2187.29C1503.49 2187.16 1503.6 2187.08 1503.65 2187.04C1503.73 2186.99 1503.73 2186.99 1503.73 2186.99L1503.72 2186.97L1503.67 2186.91L1503.51 2186.67L1503.47 2186.62C1503.33 2186.41 1503.12 2186.12 1502.86 2185.74C1502.65 2185.44 1502.4 2185.09 1502.12 2184.7L1501.45 2183.73C1501.1 2183.24 1500.72 2182.69 1500.29 2182.09C1498.04 2178.89 1494.72 2174.19 1490.44 2168.2C1481.87 2156.21 1469.47 2139.03 1454.13 2118.28C1423.46 2076.77 1381.01 2020.94 1333.93 1963.68C1286.86 1906.41 1235.14 1847.69 1185.93 1800.4C1136.76 1753.15 1089.95 1717.18 1052.71 1705.61C1015.38 1694.01 980.737 1701.57 945.887 1717.68C922.112 1728.67 898.14 1743.7 873.115 1759.38L873.1 1759.39L873.07 1759.41C861.496 1766.66 849.695 1774.06 837.585 1781.26C799.214 1804.09 757.6 1825.06 709.735 1833.9C661.89 1842.73 607.74 1839.44 544.285 1813.64C512.369 1800.66 486.338 1796.7 464.513 1799.57C442.669 1802.44 425.129 1812.14 410.189 1826.32C395.266 1840.48 382.934 1859.1 371.471 1879.84C363.783 1893.74 356.46 1908.65 349.005 1923.82L349 1923.83L348.987 1923.86C345.34 1931.28 341.66 1938.77 337.891 1946.24C314.893 1991.79 288.468 2036.71 244.985 2063.03C201.56 2089.32 140.914 2097.18 49.2108 2068.11L48.6064 2070.01C140.654 2099.19 201.945 2091.43 246.02 2064.74C290.037 2038.1 316.675 1992.7 339.676 1947.14C343.474 1939.61 347.17 1932.09 350.828 1924.65L350.828 1924.64L350.829 1924.64C358.27 1909.5 365.556 1894.67 373.221 1880.81C384.649 1860.14 396.863 1841.72 411.566 1827.77C426.251 1813.84 443.414 1804.36 464.773 1801.55C486.151 1798.74 511.824 1802.59 543.532 1815.49ZM774.33 3092.71C863.67 3005 970.968 2899.66 1132.32 2928.63C1216.94 2943.83 1276.11 2933.99 1318.71 2910.91C1361.31 2887.83 1387.48 2851.42 1405.96 2813.21C1415.21 2794.1 1422.52 2774.55 1429.01 2756.01C1430.97 2750.4 1432.86 2744.89 1434.7 2739.5L1434.7 2739.49L1434.71 2739.47C1438.95 2727.06 1442.96 2715.34 1447.09 2704.84C1453.02 2689.78 1459.25 2677.09 1466.92 2668.35C1474.62 2659.57 1483.82 2654.73 1495.57 2655.5L1495.43 2657.5C1484.43 2656.77 1475.81 2661.25 1468.42 2669.67C1461 2678.14 1454.86 2690.55 1448.95 2705.57C1444.84 2716.02 1440.86 2727.67 1436.63 2740.05L1436.62 2740.06C1434.77 2745.47 1432.88 2751.02 1430.9 2756.67C1424.4 2775.24 1417.06 2794.87 1407.77 2814.08C1389.18 2852.51 1362.76 2889.31 1319.66 2912.67C1276.55 2936.03 1216.9 2945.85 1131.96 2930.6C971.664 2901.82 865.088 3006.43 775.614 3094.26C770.777 3099 765.991 3103.7 761.249 3108.33C738.157 3130.85 716.104 3151.65 694.45 3167.92C672.799 3184.18 651.479 3195.98 629.839 3200.41C608.162 3204.86 586.231 3201.91 563.424 3188.83C540.647 3175.76 517.029 3152.6 491.885 3116.67C441.807 3045.12 389.547 3017.24 339.409 3015.42C289.212 3013.6 240.88 3037.89 198.674 3071.25C156.481 3104.59 120.527 3146.9 95.1116 3180.89C82.407 3197.89 72.3424 3212.79 65.4549 3223.45C62.0113 3228.78 59.3622 3233.05 57.5749 3235.98C56.6813 3237.44 56.0031 3238.58 55.5487 3239.34L55.2957 3239.77L55.0361 3240.21L54.9077 3240.43L54.8759 3240.48L54.8681 3240.5C54.8663 3240.5 54.8656 3240.5 54.0003 3240C53.1349 3239.5 53.136 3239.5 53.1379 3239.49L53.1465 3239.48L53.1796 3239.42L53.3108 3239.2C53.4268 3239 53.5998 3238.71 53.829 3238.32C54.2872 3237.55 54.9694 3236.41 55.8672 3234.94C57.6629 3231.99 60.3212 3227.71 63.7752 3222.37C70.6826 3211.68 80.7732 3196.73 93.5098 3179.7C118.977 3145.63 155.05 3103.17 197.433 3069.68C239.803 3036.19 288.598 3011.58 339.482 3013.42C390.426 3015.27 443.203 3043.63 493.523 3115.52C518.578 3151.32 541.995 3174.23 564.419 3187.09C586.813 3199.94 608.248 3202.8 629.437 3198.45C650.663 3194.1 671.706 3182.5 693.249 3166.32C714.789 3150.14 736.76 3129.42 759.852 3106.9C764.619 3102.25 769.433 3097.52 774.301 3092.74L774.33 3092.71ZM667.233 3655.46C785.14 3783.72 925.317 3785.59 1045.22 3779.45C1054.75 3778.97 1064.14 3778.43 1073.39 3777.9C1122.37 3775.1 1167.1 3772.54 1204.6 3778.97C1226.86 3782.79 1246.51 3789.76 1262.93 3801.69C1279.35 3813.61 1292.61 3830.52 1302.04 3854.31C1340.09 3950.24 1388.69 4007.02 1427.83 4039.82C1447.4 4056.22 1464.59 4066.62 1476.91 4072.93C1483.07 4076.08 1488.01 4078.21 1491.41 4079.55C1493.12 4080.22 1494.43 4080.7 1495.33 4081.01C1495.78 4081.16 1496.12 4081.27 1496.36 4081.35L1496.5 4081.39L1496.62 4081.43L1496.69 4081.45L1496.71 4081.46L1496.71 4081.46C1496.72 4081.46 1496.72 4081.46 1497 4080.5L1497.28 4079.54L1497.28 4079.54L1497.27 4079.54L1497.21 4079.52L1497.1 4079.49L1496.96 4079.44C1496.74 4079.37 1496.42 4079.26 1495.98 4079.12C1495.11 4078.82 1493.82 4078.35 1492.15 4077.69C1488.8 4076.37 1483.92 4074.27 1477.82 4071.15C1465.63 4064.91 1448.56 4054.58 1429.12 4038.29C1390.23 4005.7 1341.82 3949.2 1303.9 3853.57C1294.34 3829.47 1280.86 3812.24 1264.11 3800.07C1247.36 3787.91 1227.4 3780.85 1204.94 3777C1167.19 3770.53 1122.19 3773.1 1073.21 3775.91C1063.98 3776.44 1054.61 3776.97 1045.12 3777.46C925.299 3783.58 785.959 3781.65 668.705 3654.11C639.215 3622.03 610.429 3604.39 582.223 3597.42C554.012 3590.44 526.488 3594.17 499.575 3604.63C450.841 3623.59 403.93 3664.73 358.294 3704.75L358.292 3704.75C353.604 3708.86 348.929 3712.96 344.268 3717.03C319.212 3738.86 294.517 3759.64 270.04 3775.54C245.56 3791.44 221.376 3802.4 197.347 3804.68C149.471 3809.22 101.59 3779.32 52.8924 3683.05L51.1077 3683.95C99.9107 3780.43 148.381 3811.34 197.536 3806.67C222.024 3804.35 246.526 3793.19 271.13 3777.22C295.738 3761.23 320.526 3740.37 345.582 3718.53C350.237 3714.48 354.901 3710.39 359.575 3706.29C405.281 3666.21 451.917 3625.31 500.3 3606.5C526.924 3596.15 554.021 3592.51 581.743 3599.36C609.472 3606.21 637.933 3623.59 667.233 3655.46ZM1360.33 4851.91C1384.14 4818.43 1424.96 4793.89 1496.91 4787.5L1497.09 4789.49C1425.54 4795.85 1385.34 4820.19 1361.96 4853.07C1338.52 4886.01 1331.84 4927.69 1327.7 4969.03C1327.02 4975.85 1326.4 4982.66 1325.8 4989.42C1324.56 5003.11 1323.35 5016.6 1321.62 5029.48C1319.04 5048.73 1315.29 5066.75 1308.56 5082.31C1301.82 5097.88 1292.09 5111.01 1277.53 5120.46C1262.98 5129.9 1243.7 5135.61 1217.94 5136.49C1166.48 5138.25 1130.19 5125 1101.8 5104.1C1073.44 5083.22 1053.02 5054.74 1033.21 5026.19L1031.52 5023.75L1029.97 5021.51C1011.26 4994.49 992.758 4967.76 968.222 4947.4C942.32 4925.91 909.669 4911.49 862.907 4911.49C816.219 4911.49 784.697 4929.48 760.334 4956.16C737.908 4980.72 721.558 5012.63 705.077 5044.8C703.611 5047.67 702.144 5050.53 700.672 5053.39C682.681 5088.34 663.887 5122.83 636.321 5147.28C608.696 5171.78 572.322 5186.14 519.311 5180.99C397.85 5169.19 282.118 5193.15 196.727 5220.08C154.036 5233.55 118.942 5247.75 94.5236 5258.58C82.3145 5264 72.7752 5268.58 66.2903 5271.79C63.0478 5273.4 60.5692 5274.68 58.9024 5275.54C58.0689 5275.98 57.4385 5276.31 57.0169 5276.53L56.5422 5276.79L56.4238 5276.85L56.3946 5276.87L56.3876 5276.87C56.3861 5276.87 56.3855 5276.87 55.9081 5275.99C55.4307 5275.11 55.4318 5275.11 55.4337 5275.11L55.4418 5275.11L55.4728 5275.09L55.595 5275.03L56.0775 5274.77C56.5043 5274.54 57.1401 5274.21 57.9789 5273.77C59.6567 5272.9 62.1468 5271.62 65.401 5270C71.9094 5266.77 81.475 5262.19 93.7125 5256.76C118.187 5245.9 153.352 5231.67 196.125 5218.18C281.663 5191.2 397.681 5167.16 519.504 5179C571.993 5184.1 607.807 5169.89 634.994 5145.78C662.241 5121.62 680.885 5087.46 698.894 5052.47C699.567 5051.16 700.24 5049.85 700.913 5048.54C701.658 5047.09 702.403 5045.64 703.148 5044.18L703.244 5043.99L703.281 5043.92L703.318 5043.85C719.769 5011.74 736.24 4979.58 758.857 4954.81C783.555 4927.76 815.596 4909.49 862.907 4909.49C910.146 4909.49 943.245 4924.08 969.499 4945.87C994.254 4966.41 1012.9 4993.34 1031.57 5020.31C1032.66 5021.89 1033.76 5023.47 1034.85 5025.05C1054.67 5053.62 1074.93 5081.83 1102.98 5102.49C1131 5123.11 1166.84 5136.24 1217.87 5134.49C1243.37 5133.62 1262.27 5127.98 1276.44 5118.78C1290.6 5109.59 1300.11 5096.8 1306.72 5081.51C1313.35 5066.2 1317.06 5048.4 1319.64 5029.22C1321.36 5016.38 1322.57 5002.97 1323.8 4989.3C1324.41 4982.53 1325.02 4975.69 1325.71 4968.83C1329.85 4927.49 1336.56 4885.33 1360.33 4851.91ZM1277.32 6180.91C1303.87 6122.08 1363.9 6112.08 1405.98 6131.9C1426.9 6141.76 1439.51 6161.35 1445.83 6181.19C1448.99 6191.1 1450.57 6201.03 1450.83 6209.78C1451.09 6218.55 1450.04 6226.05 1447.98 6231.12C1447.92 6231.27 1447.87 6231.42 1447.81 6231.56C1447.75 6231.71 1447.69 6231.87 1447.63 6232.02L1447.5 6232.36L1447.33 6232.83C1447.23 6233.1 1447.13 6233.38 1447.03 6233.66C1446.7 6234.6 1446.36 6235.59 1446.01 6236.63C1444.42 6241.32 1442.5 6246.99 1439.02 6253.26C1434.08 6262.16 1426.04 6272.13 1411.49 6281.54C1385.58 6298.29 1339.01 6313.29 1252.57 6317.11C1252.64 6315.79 1252.71 6314.46 1252.78 6313.13C1255.19 6268.78 1261.57 6215.82 1277.32 6180.91ZM1412.58 6283.21C1386.22 6300.26 1339.19 6315.31 1252.47 6319.12C1251.54 6338.87 1251.36 6356.55 1251.44 6369.66C1251.48 6376.87 1251.6 6382.7 1251.7 6386.72C1251.76 6388.73 1251.81 6390.29 1251.85 6391.35L1251.87 6392.05L1251.89 6392.55L1251.9 6392.86L1251.91 6392.93L1251.91 6392.95L1251.91 6392.96C1251.91 6392.96 1251.91 6392.96 1250.91 6393L1251.91 6392.96L1251.91 6392.99L1251.91 6393.03C1250.2 6447.05 1246.97 6490.89 1236.13 6532.13C1225.28 6573.39 1206.82 6612 1174.71 6655.59C1151.03 6687.75 1123.89 6706.58 1094.08 6715.32C1064.3 6724.05 1031.94 6722.67 997.87 6714.56C929.771 6698.35 854.526 6655.17 778.704 6611.49L776.973 6610.49C701.642 6567.09 625.776 6523.38 555.529 6504.94C520.155 6495.65 486.269 6492.79 454.639 6499.57C423.027 6506.35 393.602 6522.78 367.152 6552.17C356.985 6563.47 345.008 6579.06 335.562 6591.85C330.842 6598.24 326.758 6603.92 323.855 6608C322.403 6610.05 321.246 6611.69 320.453 6612.82C320.056 6613.39 319.751 6613.82 319.544 6614.12L319.31 6614.46L319.25 6614.54L319.235 6614.56L319.231 6614.57L319.172 6614.53L296.991 6652.42L303.363 6650.76C303.897 6650.62 304.443 6650.94 304.583 6651.47C304.723 6652 304.403 6652.55 303.869 6652.69L295.162 6654.97C294.627 6655.11 294.081 6654.79 293.941 6654.25L291.664 6645.55C291.524 6645.01 291.844 6644.47 292.378 6644.33C292.913 6644.19 293.459 6644.51 293.599 6645.04L295.265 6651.41L318.046 6612.5L318.183 6612.58L318.815 6611.67C319.611 6610.54 320.77 6608.89 322.224 6606.84C325.133 6602.75 329.224 6597.06 333.953 6590.66C343.406 6577.86 355.43 6562.21 365.665 6550.83C392.381 6521.14 422.172 6504.49 454.22 6497.62C486.25 6490.75 520.469 6493.66 556.037 6503C626.544 6521.51 702.602 6565.33 777.811 6608.67L779.702 6609.75C855.605 6653.49 930.577 6696.49 998.333 6712.62C1032.19 6720.67 1064.17 6722 1093.52 6713.4C1122.85 6704.8 1149.65 6686.25 1173.1 6654.41C1205.08 6610.99 1223.42 6572.61 1234.2 6531.62C1244.98 6490.62 1248.2 6446.98 1249.91 6393.01L1249.91 6392.94L1249.89 6392.63C1249.88 6392.36 1249.87 6391.95 1249.85 6391.42C1249.81 6390.36 1249.76 6388.79 1249.71 6386.77C1249.6 6382.74 1249.48 6376.9 1249.44 6369.67C1249.36 6356.58 1249.53 6338.92 1250.47 6319.2C1240.48 6319.62 1229.97 6319.89 1218.91 6320V6320H1218.47L1218.42 6320L333.909 6320V6319.98L333.883 6319.98L333.754 6319.98L333.246 6319.98C332.798 6319.99 332.134 6320 331.267 6320C329.533 6320 326.985 6320 323.73 6319.95C317.218 6319.85 307.871 6319.59 296.519 6318.93C273.819 6317.61 243.091 6314.68 210.996 6308.26C178.908 6301.85 145.407 6291.93 117.188 6276.61C88.969 6261.29 65.9483 6240.52 54.9769 6212.36L56.8404 6211.64C67.5799 6239.2 90.1647 6259.67 118.142 6274.86C146.118 6290.04 179.404 6299.91 211.388 6306.3C243.365 6312.7 273.995 6315.62 296.636 6316.94C307.954 6317.6 317.272 6317.85 323.759 6317.95C327.002 6318 329.537 6318 331.26 6318C332.122 6318 332.78 6317.99 333.223 6317.98L333.723 6317.98L333.849 6317.98L333.88 6317.98H333.887C333.889 6317.98 333.89 6317.98 333.909 6318.98V6318L1218.4 6318L1218.45 6318C1229.72 6317.9 1240.41 6317.62 1250.56 6317.2L1250.61 6316.2L1250.67 6315.09L1250.75 6313.52L1250.78 6313.02C1253.2 6268.66 1259.58 6215.37 1275.5 6180.09C1302.58 6120.07 1363.92 6109.88 1406.83 6130.1C1428.42 6140.27 1441.31 6160.42 1447.74 6180.58C1450.95 6190.67 1452.56 6200.79 1452.83 6209.72C1453.1 6218.64 1452.03 6226.45 1449.84 6231.88C1449.24 6233.35 1448.65 6235.1 1447.98 6237.05C1446.37 6241.8 1444.34 6247.8 1440.77 6254.24C1435.67 6263.41 1427.4 6273.62 1412.58 6283.21ZM1229.91 640.8C1373.49 586.85 1445.12 421.982 1389.89 272.557C1334.67 123.133 1173.51 45.7356 1029.93 99.6861C886.345 153.637 814.717 318.505 869.94 467.929C925.163 617.354 1086.33 694.751 1229.91 640.8Z" fill="#E277AD" fill-opacity="0.2"/>
</g>
<defs>
<filter id="filter0_f_1666_2410" x="0.606445" y="0" width="1551.12" height="6769.28" filterUnits="userSpaceOnUse" color-interpolation-filters="sRGB">
<feFlood flood-opacity="0" result="BackgroundImageFix"/>
<feBlend mode="normal" in="SourceGraphic" in2="BackgroundImageFix" result="shape"/>
<feGaussianBlur stdDeviation="24" result="effect1_foregroundBlur_1666_2410"/>
</filter>
</defs>
</svg>
