<svg class="svg" width="1552" height="6770" viewBox="0 0 1552 6770" fill="none" xmlns="http://www.w3.org/2000/svg">
<g filter="url(#filter0_f_1666_2410)">
<path class="svg-path" fill-rule="evenodd" clip-rule="evenodd" d="M1129.95 690C1305.2 690 1447.3 546.747 1447.3 370C1447.3 193.253 1305.2 50 1129.95 50C954.706 50 812.612 193.253 812.612 370C812.612 546.747 954.706 690 1129.95 690ZM1187.36 686.812C1336.33 659.547 1449.3 528.076 1449.3 370C1449.3 192.164 1306.32 48 1129.95 48C953.586 48 810.612 192.164 810.612 370C810.612 547.836 953.586 692 1129.95 692C1131.71 692 1133.47 691.986 1135.22 691.957C1130.21 692.502 1123.8 693.183 1116.12 693.973C1095.46 696.096 1065.53 699 1028.47 702.12C954.359 708.362 851.747 715.47 737.75 718.938C509.709 725.875 236.267 718.24 54.2131 660.047L53.6042 661.952C236.018 720.26 509.771 727.874 737.81 720.937C851.853 717.467 954.501 710.357 1028.64 704.113C1065.71 700.992 1095.65 698.087 1116.33 695.962C1126.67 694.9 1134.69 694.033 1140.12 693.431C1142.84 693.13 1144.92 692.896 1146.31 692.736C1147.01 692.657 1147.53 692.596 1147.89 692.555L1148.28 692.509L1148.38 692.497L1148.41 692.494C1148.42 692.493 1148.42 692.493 1148.3 691.51L1148.42 692.493L1148.42 692.492L1148.3 691.507C1148.42 692.492 1148.43 692.492 1148.43 692.492L1148.43 692.492L1148.44 692.49L1148.48 692.485L1148.66 692.464C1148.81 692.445 1149.04 692.417 1149.34 692.381C1149.77 692.33 1150.35 692.262 1151.06 692.18C1151.35 692.146 1151.66 692.111 1152 692.072C1154.31 691.81 1157.68 691.441 1161.87 691.02C1170.27 690.177 1182 689.123 1195.32 688.274C1222 686.575 1255.02 685.706 1280.57 688.992C1325.63 694.786 1379.31 717.593 1421.78 739.006C1443.01 749.704 1461.41 760.041 1474.5 767.702C1481.05 771.533 1486.27 774.694 1489.85 776.897C1491.64 777.999 1493.02 778.861 1493.95 779.447C1494.42 779.74 1494.77 779.964 1495.01 780.115L1495.28 780.285L1495.35 780.328L1495.36 780.339L1495.37 780.341C1495.37 780.342 1495.37 780.342 1495.91 779.5C1496.45 778.658 1496.45 778.657 1496.45 778.657L1496.44 778.654L1496.42 778.642L1496.36 778.599L1496.08 778.426L1495.72 778.197C1495.53 778.073 1495.29 777.925 1495.02 777.753C1494.08 777.164 1492.69 776.299 1490.9 775.194C1487.3 772.984 1482.07 769.815 1475.51 765.976C1462.39 758.299 1443.95 747.942 1422.68 737.22C1380.18 715.791 1326.24 692.848 1280.83 687.008C1255.07 683.696 1221.89 684.577 1195.2 686.278C1192.51 686.449 1189.9 686.628 1187.36 686.812ZM1020.22 1245.59C954.924 1223.58 901.563 1227.1 855.583 1243.33C809.642 1259.56 771.126 1288.46 735.495 1317.12C730.982 1320.75 726.516 1324.37 722.087 1327.96L722.086 1327.97L722.083 1327.97L722.081 1327.97C691.498 1352.79 662.718 1376.14 632.57 1389.64C598.16 1405.04 562.009 1407.58 519.424 1384.52C433.378 1337.92 316.986 1335.6 222.253 1344.87C174.861 1349.5 132.838 1357.04 102.663 1363.43C87.5745 1366.62 75.4466 1369.52 67.0888 1371.62C62.91 1372.68 59.6734 1373.53 57.4806 1374.12C56.3842 1374.41 55.5488 1374.64 54.9868 1374.8L54.7445 1374.87C54.5802 1374.91 54.4488 1374.95 54.3504 1374.98L54.1892 1375.02L54.1484 1375.03L54.1379 1375.04C54.1354 1375.04 54.1341 1375.04 54.4082 1376C54.6823 1376.96 54.6831 1376.96 54.6851 1376.96L54.6948 1376.96L54.7339 1376.95L54.8918 1376.9L55.0998 1376.84C55.2162 1376.81 55.3567 1376.77 55.521 1376.73C56.0783 1376.57 56.9091 1376.34 58.0005 1376.05C60.1834 1375.46 63.4093 1374.61 67.5772 1373.56C75.9131 1371.46 88.0159 1368.57 103.077 1365.38C133.199 1359.01 175.147 1351.48 222.448 1346.86C317.1 1337.6 432.978 1339.98 518.472 1386.28C561.656 1409.67 598.466 1407.1 633.387 1391.47C663.797 1377.85 692.806 1354.31 723.36 1329.51C727.788 1325.91 732.247 1322.29 736.749 1318.68C772.37 1290.03 810.657 1261.32 856.249 1245.22C901.803 1229.13 954.705 1225.62 1019.58 1247.49C1052.23 1258.49 1078.46 1260.85 1100.06 1256.66C1121.69 1252.45 1138.61 1241.7 1152.65 1226.63C1166.68 1211.59 1177.85 1192.25 1188.03 1170.85C1194.85 1156.5 1201.25 1141.18 1207.77 1125.58C1210.96 1117.93 1214.18 1110.22 1217.49 1102.53C1237.66 1055.65 1261.3 1009.2 1303.09 980.272C1344.83 951.381 1404.88 939.834 1498.19 963.249L1498.67 961.309C1405.02 937.806 1344.31 949.303 1301.95 978.627C1259.64 1007.91 1235.83 1054.85 1215.65 1101.74C1212.33 1109.47 1209.1 1117.2 1205.9 1124.85L1205.9 1124.87L1205.89 1124.88C1199.39 1140.45 1193.03 1155.69 1186.22 1169.99C1176.08 1191.32 1165.01 1210.45 1151.19 1225.27C1137.38 1240.08 1120.83 1250.58 1099.68 1254.69C1078.52 1258.8 1052.66 1256.53 1020.22 1245.59ZM710.098 1835.86C661.864 1844.77 607.327 1841.43 543.532 1815.49C511.824 1802.59 486.151 1798.74 464.773 1801.55C443.414 1804.36 426.251 1813.84 411.566 1827.77C396.863 1841.72 384.649 1860.14 373.221 1880.81C365.556 1894.67 358.27 1909.5 350.829 1924.64L350.828 1924.64L350.828 1924.65C347.17 1932.09 343.474 1939.61 339.676 1947.14C316.675 1992.7 290.037 2038.1 246.02 2064.74C201.945 2091.43 140.654 2099.19 48.6064 2070.01L49.2108 2068.11C140.914 2097.18 201.56 2089.32 244.985 2063.03C288.468 2036.71 314.893 1991.79 337.891 1946.24C341.66 1938.77 345.34 1931.28 348.987 1923.86L349 1923.83L349.005 1923.82C356.46 1908.65 363.783 1893.74 371.471 1879.84C382.934 1859.1 395.266 1840.48 410.189 1826.32C425.129 1812.14 442.669 1802.44 464.513 1799.57C486.338 1796.7 512.369 1800.66 544.285 1813.64C607.74 1839.44 661.89 1842.73 709.735 1833.9C757.6 1825.06 799.214 1804.09 837.585 1781.26C849.695 1774.06 861.496 1766.66 873.07 1759.41L873.1 1759.39L873.115 1759.38C898.14 1743.7 922.112 1728.67 945.887 1717.68C980.737 1701.57 1015.38 1694.01 1052.71 1705.61C1089.95 1717.18 1136.76 1753.15 1185.93 1800.4C1235.14 1847.69 1286.86 1906.41 1333.93 1963.68C1381.01 2020.94 1423.46 2076.77 1454.13 2118.28C1469.47 2139.03 1481.87 2156.21 1490.44 2168.2C1494.72 2174.19 1498.04 2178.89 1500.29 2182.09C1501.42 2183.69 1502.28 2184.91 1502.86 2185.74C1503.12 2186.12 1503.33 2186.41 1503.47 2186.62L1503.51 2186.67L1503.67 2186.91L1503.72 2186.97L1503.73 2186.99C1503.73 2186.99 1503.73 2186.99 1503.72 2186.99C1503.71 2187 1503.69 2187.02 1503.65 2187.04L1503.61 2187.07L1503.53 2187.13L1503.37 2187.24L1502.91 2187.56L1502.4 2187.91C1502.19 2188.06 1502.12 2188.11 1502.1 2188.12C1502.09 2188.13 1502.08 2188.13 1502.08 2188.13L1502.07 2188.11L1502.03 2188.05L1501.87 2187.82L1501.58 2187.4L1501.22 2186.89L1500.53 2185.91L1499.94 2185.06C1499.69 2184.71 1499.43 2184.33 1499.14 2183.92L1498.66 2183.24C1496.41 2180.05 1493.09 2175.35 1488.81 2169.36C1480.25 2157.38 1467.86 2140.21 1452.53 2119.47C1421.86 2077.98 1379.43 2022.18 1332.39 1964.95C1285.34 1907.71 1233.68 1849.06 1184.54 1801.84C1135.37 1754.59 1088.86 1718.94 1052.11 1707.52C1015.44 1696.12 981.331 1703.49 946.727 1719.49C923.068 1730.43 899.276 1745.34 874.314 1760.99C862.7 1768.27 850.833 1775.71 838.607 1782.98C800.166 1805.85 758.311 1826.97 710.098 1835.86ZM1132.32 2928.63C970.968 2899.66 863.67 3005 774.33 3092.71L774.301 3092.74C769.433 3097.52 764.619 3102.25 759.852 3106.9C736.76 3129.42 714.789 3150.14 693.249 3166.32C671.706 3182.5 650.663 3194.1 629.437 3198.45C608.248 3202.8 586.813 3199.94 564.419 3187.09C541.995 3174.23 518.578 3151.32 493.523 3115.52C443.203 3043.63 390.426 3015.27 339.482 3013.42C288.598 3011.58 239.803 3036.19 197.434 3069.68C155.05 3103.17 118.977 3145.63 93.5098 3179.7C80.7733 3196.73 70.6827 3211.68 63.7753 3222.37C60.3213 3227.71 57.663 3231.99 55.8673 3234.94C54.9695 3236.41 54.2873 3237.55 53.829 3238.32C53.5999 3238.71 53.4268 3239 53.3108 3239.2L53.1797 3239.42L53.1465 3239.48L53.138 3239.49C53.1361 3239.5 53.135 3239.5 54.0003 3240C54.8657 3240.5 54.8664 3240.5 54.8681 3240.5L54.8759 3240.48L54.9078 3240.43L55.0362 3240.21L55.2957 3239.77L55.5488 3239.34C56.0031 3238.58 56.6814 3237.44 57.575 3235.98C59.3623 3233.05 62.0114 3228.78 65.455 3223.45C72.3424 3212.79 82.407 3197.89 95.1117 3180.89C120.527 3146.9 156.481 3104.59 198.674 3071.25C240.88 3037.89 289.212 3013.6 339.409 3015.42C389.547 3017.24 441.807 3045.12 491.885 3116.67C517.029 3152.6 540.647 3175.76 563.424 3188.83C586.231 3201.91 608.162 3204.86 629.839 3200.41C651.479 3195.98 672.799 3184.18 694.45 3167.92C716.104 3151.65 738.157 3130.85 761.249 3108.33C765.991 3103.7 770.777 3099 775.614 3094.26C865.089 3006.43 971.665 2901.82 1131.96 2930.6C1216.9 2945.85 1276.55 2936.03 1319.66 2912.67C1362.76 2889.31 1389.18 2852.51 1407.77 2814.08C1417.06 2794.87 1424.4 2775.24 1430.9 2756.67C1432.88 2751.02 1434.77 2745.47 1436.62 2740.06L1436.63 2740.05C1440.86 2727.67 1444.84 2716.02 1448.95 2705.57C1454.86 2690.55 1461 2678.14 1468.42 2669.67C1475.81 2661.25 1484.43 2656.77 1495.43 2657.5L1495.57 2655.5C1483.82 2654.73 1474.62 2659.57 1466.92 2668.35C1459.25 2677.09 1453.02 2689.78 1447.09 2704.84C1442.96 2715.34 1438.95 2727.06 1434.71 2739.47L1434.7 2739.49L1434.7 2739.5L1434.68 2739.55L1434.66 2739.62C1432.83 2744.97 1430.96 2750.44 1429.01 2756.01C1422.52 2774.55 1415.21 2794.1 1405.96 2813.21C1387.48 2851.42 1361.31 2887.83 1318.71 2910.91C1276.11 2933.99 1216.94 2943.83 1132.32 2928.63ZM1045.22 3779.45C925.317 3785.59 785.14 3783.72 667.233 3655.46C637.933 3623.59 609.472 3606.21 581.743 3599.36C554.021 3592.51 526.924 3596.15 500.3 3606.5C451.917 3625.31 405.281 3666.21 359.575 3706.29C354.901 3710.39 350.237 3714.48 345.582 3718.53C320.526 3740.37 295.738 3761.23 271.13 3777.22C246.526 3793.19 222.024 3804.35 197.536 3806.67C148.381 3811.34 99.9107 3780.43 51.1077 3683.95L52.8924 3683.05C101.59 3779.32 149.471 3809.22 197.347 3804.68C221.376 3802.4 245.56 3791.44 270.04 3775.54C294.517 3759.64 319.212 3738.86 344.268 3717.03C348.929 3712.96 353.604 3708.86 358.292 3704.75L358.294 3704.75C403.93 3664.73 450.841 3623.59 499.575 3604.63C526.488 3594.17 554.012 3590.44 582.223 3597.42C610.429 3604.39 639.215 3622.03 668.705 3654.11C785.959 3781.65 925.299 3783.58 1045.12 3777.46C1054.61 3776.97 1063.98 3776.44 1073.21 3775.91C1122.19 3773.1 1167.19 3770.53 1204.94 3777C1227.4 3780.85 1247.36 3787.91 1264.11 3800.07C1280.86 3812.24 1294.34 3829.47 1303.9 3853.57C1341.82 3949.2 1390.23 4005.7 1429.12 4038.29C1448.56 4054.58 1465.63 4064.91 1477.82 4071.15C1483.92 4074.27 1488.8 4076.37 1492.15 4077.69C1493.82 4078.35 1495.11 4078.82 1495.98 4079.12C1496.42 4079.26 1496.74 4079.37 1496.96 4079.44L1497.1 4079.49L1497.21 4079.52L1497.27 4079.54L1497.28 4079.54L1497.28 4079.54L1497 4080.5C1496.85 4081.01 1496.78 4081.25 1496.75 4081.36C1496.72 4081.46 1496.71 4081.46 1496.71 4081.46L1496.71 4081.46L1496.69 4081.45L1496.62 4081.43C1496.56 4081.41 1496.47 4081.38 1496.36 4081.35C1496.12 4081.27 1495.78 4081.16 1495.33 4081.01C1494.43 4080.7 1493.12 4080.22 1491.41 4079.55C1488.01 4078.21 1483.07 4076.08 1476.91 4072.93C1464.59 4066.62 1447.4 4056.22 1427.83 4039.82C1388.69 4007.02 1340.09 3950.24 1302.04 3854.31C1292.61 3830.52 1279.35 3813.61 1262.93 3801.69C1246.51 3789.76 1226.86 3782.79 1204.6 3778.97C1167.1 3772.54 1122.37 3775.1 1073.39 3777.9C1064.14 3778.43 1054.75 3778.97 1045.22 3779.45ZM1496.91 4787.5C1424.96 4793.89 1384.14 4818.43 1360.33 4851.91C1336.56 4885.33 1329.85 4927.49 1325.71 4968.83C1325.02 4975.69 1324.41 4982.53 1323.8 4989.3C1322.57 5002.97 1321.36 5016.38 1319.64 5029.22C1317.06 5048.4 1313.35 5066.2 1306.72 5081.51C1300.11 5096.8 1290.6 5109.59 1276.44 5118.78C1262.27 5127.98 1243.37 5133.62 1217.87 5134.49C1166.84 5136.24 1131 5123.11 1102.98 5102.49C1074.93 5081.83 1054.67 5053.62 1034.85 5025.05C1033.76 5023.47 1032.66 5021.89 1031.57 5020.31C1012.9 4993.34 994.254 4966.41 969.499 4945.87C943.245 4924.08 910.146 4909.49 862.907 4909.49C815.596 4909.49 783.555 4927.76 758.857 4954.81C736.24 4979.58 719.769 5011.74 703.318 5043.85C701.845 5046.73 700.371 5049.6 698.894 5052.47C680.885 5087.46 662.241 5121.62 634.994 5145.78C607.808 5169.89 571.993 5184.1 519.505 5179C397.681 5167.16 281.663 5191.2 196.125 5218.18C153.352 5231.67 118.187 5245.9 93.7125 5256.76C81.475 5262.19 71.9095 5266.77 65.401 5270C62.1468 5271.62 59.6567 5272.9 57.9789 5273.77C57.1401 5274.21 56.5043 5274.54 56.0776 5274.77L55.5951 5275.03L55.4729 5275.09L55.4418 5275.11L55.4338 5275.11C55.4318 5275.11 55.4308 5275.11 55.9082 5275.99C56.3856 5276.87 56.3861 5276.87 56.3876 5276.87L56.3947 5276.87L56.4238 5276.85L56.5423 5276.79L57.017 5276.53C57.4386 5276.31 58.0689 5275.98 58.9025 5275.54C60.5692 5274.68 63.0479 5273.4 66.2904 5271.79C72.7752 5268.58 82.3146 5264 94.5237 5258.58C118.942 5247.75 154.037 5233.55 196.727 5220.08C282.118 5193.15 397.85 5169.19 519.311 5180.99C572.322 5186.14 608.696 5171.78 636.321 5147.28C663.887 5122.83 682.681 5088.34 700.672 5053.39C702.144 5050.53 703.611 5047.67 705.077 5044.8C721.558 5012.63 737.908 4980.72 760.334 4956.16C784.697 4929.48 816.219 4911.49 862.908 4911.49C909.669 4911.49 942.32 4925.91 968.222 4947.4C992.758 4967.76 1011.26 4994.49 1029.97 5021.51L1030.4 5022.13C1031.34 5023.49 1032.27 5024.84 1033.21 5026.19C1053.02 5054.74 1073.44 5083.22 1101.8 5104.1C1130.19 5125 1166.48 5138.25 1217.94 5136.49C1243.7 5135.61 1262.98 5129.9 1277.53 5120.46C1292.09 5111.01 1301.82 5097.88 1308.56 5082.31C1315.29 5066.75 1319.04 5048.73 1321.62 5029.48C1323.35 5016.6 1324.56 5003.11 1325.8 4989.42C1326.4 4982.66 1327.02 4975.85 1327.7 4969.03C1331.84 4927.69 1338.52 4886.01 1361.96 4853.07C1385.34 4820.19 1425.54 4795.85 1497.09 4789.49L1496.91 4787.5ZM1405.98 6131.9C1363.9 6112.08 1303.87 6122.08 1277.32 6180.91C1261.57 6215.82 1255.19 6268.78 1252.78 6313.13C1252.71 6314.46 1252.64 6315.79 1252.57 6317.11C1339.01 6313.29 1385.58 6298.29 1411.49 6281.54C1426.04 6272.13 1434.08 6262.16 1439.02 6253.26C1442.5 6246.99 1444.42 6241.32 1446.01 6236.63C1446.7 6234.6 1447.32 6232.76 1447.98 6231.12C1450.04 6226.05 1451.09 6218.55 1450.83 6209.78C1450.57 6201.03 1448.99 6191.1 1445.83 6181.19C1439.51 6161.35 1426.9 6141.76 1405.98 6131.9ZM1252.47 6319.12C1339.19 6315.31 1386.22 6300.26 1412.58 6283.21C1427.41 6273.62 1435.67 6263.41 1440.77 6254.24C1444.34 6247.8 1446.37 6241.8 1447.98 6237.05C1448.65 6235.1 1449.24 6233.35 1449.84 6231.88C1452.03 6226.45 1453.1 6218.64 1452.83 6209.72C1452.56 6200.79 1450.95 6190.67 1447.74 6180.58C1441.31 6160.42 1428.42 6140.27 1406.83 6130.1C1363.92 6109.88 1302.58 6120.07 1275.5 6180.09C1259.58 6215.37 1253.2 6268.66 1250.78 6313.02C1250.71 6314.42 1250.63 6315.81 1250.56 6317.2C1240.41 6317.62 1229.72 6317.9 1218.45 6318L1218.4 6318L333.909 6318V6318.98L333.896 6318.31C333.889 6317.98 333.888 6317.98 333.887 6317.98H333.88L333.849 6317.98L333.723 6317.98L333.223 6317.98C332.78 6317.99 332.122 6318 331.26 6318C329.537 6318 327.002 6318 323.759 6317.95C317.272 6317.85 307.954 6317.6 296.636 6316.94C273.995 6315.62 243.365 6312.7 211.388 6306.3C179.404 6299.91 146.118 6290.04 118.142 6274.86C90.1647 6259.67 67.5799 6239.2 56.8404 6211.64L54.9769 6212.36C65.9483 6240.52 88.969 6261.29 117.188 6276.61C145.407 6291.93 178.908 6301.85 210.996 6308.26C243.091 6314.68 273.819 6317.61 296.519 6318.93C307.871 6319.59 317.218 6319.85 323.73 6319.95C326.985 6320 329.533 6320 331.267 6320C331.741 6320 332.154 6319.99 332.505 6319.99L333.246 6319.98L333.754 6319.98L333.883 6319.98L333.909 6319.98V6320L1218.42 6320L1218.47 6320H1218.91V6320C1229.97 6319.89 1240.48 6319.62 1250.47 6319.2C1249.53 6338.92 1249.36 6356.58 1249.44 6369.67C1249.48 6376.9 1249.6 6382.74 1249.71 6386.77C1249.74 6387.97 1249.77 6389 1249.8 6389.87C1249.81 6390.47 1249.83 6390.99 1249.85 6391.42C1249.87 6391.95 1249.88 6392.36 1249.89 6392.63L1249.91 6392.94L1249.91 6393.01C1248.2 6446.98 1244.98 6490.62 1234.2 6531.62C1223.42 6572.61 1205.08 6610.99 1173.1 6654.41C1149.65 6686.25 1122.85 6704.8 1093.52 6713.4C1064.17 6722 1032.19 6720.67 998.333 6712.62C930.577 6696.49 855.605 6653.49 779.702 6609.75L777.811 6608.67C702.602 6565.33 626.544 6521.51 556.037 6503C520.469 6493.66 486.25 6490.75 454.22 6497.62C422.172 6504.49 392.381 6521.14 365.665 6550.83C355.43 6562.21 343.406 6577.86 333.953 6590.66C329.224 6597.06 325.133 6602.75 322.224 6606.84C320.77 6608.89 319.611 6610.54 318.815 6611.67L318.183 6612.58L318.046 6612.5L295.265 6651.41L293.599 6645.04C293.459 6644.51 292.913 6644.19 292.378 6644.33C291.844 6644.47 291.524 6645.01 291.664 6645.55L293.941 6654.25C294.081 6654.79 294.627 6655.11 295.162 6654.97L303.869 6652.69C304.403 6652.55 304.723 6652 304.583 6651.47C304.443 6650.94 303.897 6650.62 303.363 6650.76L296.991 6652.42L319.172 6614.53L319.231 6614.57L319.235 6614.56L319.25 6614.54L319.31 6614.46L319.544 6614.12C319.751 6613.82 320.056 6613.39 320.453 6612.82C321.246 6611.69 322.403 6610.05 323.855 6608C326.758 6603.92 330.842 6598.24 335.562 6591.85C345.008 6579.06 356.985 6563.47 367.152 6552.17C393.602 6522.78 423.027 6506.35 454.639 6499.57C486.269 6492.79 520.155 6495.65 555.529 6504.94C625.776 6523.38 701.642 6567.09 776.973 6610.49L778.704 6611.49C854.526 6655.17 929.771 6698.35 997.87 6714.56C1031.94 6722.67 1064.3 6724.05 1094.08 6715.32C1123.89 6706.58 1151.03 6687.75 1174.71 6655.59C1206.82 6612 1225.28 6573.39 1236.13 6532.13C1246.97 6490.89 1250.2 6447.05 1251.91 6393.03L1251.91 6392.99L1251.91 6392.96L1250.91 6393C1251.91 6392.96 1251.91 6392.96 1251.91 6392.96L1251.91 6392.95L1251.91 6392.93L1251.9 6392.86L1251.89 6392.55L1251.87 6392.05L1251.85 6391.35L1251.8 6390.09C1251.77 6389.18 1251.74 6388.05 1251.7 6386.72C1251.6 6382.7 1251.48 6376.87 1251.44 6369.66C1251.36 6356.55 1251.54 6338.87 1252.47 6319.12Z" fill="#E277AD" fill-opacity="0.2"/>
</g>
<defs>
<filter id="filter0_f_1666_2410" x="0.606445" y="0" width="1551.12" height="6769.28" filterUnits="userSpaceOnUse" color-interpolation-filters="sRGB">
<feFlood flood-opacity="0" result="BackgroundImageFix"/>
<feBlend mode="normal" in="SourceGraphic" in2="BackgroundImageFix" result="shape"/>
<feGaussianBlur stdDeviation="24" result="effect1_foregroundBlur_1666_2410"/>
</filter>
</defs>
</svg>
