<svg width="25" height="24" viewBox="0 0 25 24" fill="none" xmlns="http://www.w3.org/2000/svg">
<g clip-path="url(#clip0_1439_2207)">
<path d="M24.0448 9.9099L20.02 5.9999C19.9233 5.90617 19.8083 5.83178 19.6816 5.78101C19.5548 5.73024 19.4189 5.7041 19.2816 5.7041C19.1443 5.7041 19.0084 5.73024 18.8816 5.78101C18.7549 5.83178 18.6399 5.90617 18.5432 5.9999C18.3495 6.18726 18.2408 6.44071 18.2408 6.7049C18.2408 6.96909 18.3495 7.22254 18.5432 7.4099L22.2456 10.9999H1.04C0.764175 10.9999 0.499647 11.1053 0.304609 11.2928C0.109571 11.4803 0 11.7347 0 11.9999C0 12.2651 0.109571 12.5195 0.304609 12.707C0.499647 12.8945 0.764175 12.9999 1.04 12.9999H22.308L18.5432 16.6099C18.4457 16.7029 18.3684 16.8135 18.3156 16.9353C18.2628 17.0572 18.2356 17.1879 18.2356 17.3199C18.2356 17.4519 18.2628 17.5826 18.3156 17.7045C18.3684 17.8263 18.4457 17.9369 18.5432 18.0299C18.6399 18.1236 18.7549 18.198 18.8816 18.2488C19.0084 18.2996 19.1443 18.3257 19.2816 18.3257C19.4189 18.3257 19.5548 18.2996 19.6816 18.2488C19.8083 18.198 19.9233 18.1236 20.02 18.0299L24.0448 14.1499C24.6291 13.5874 24.9573 12.8249 24.9573 12.0299C24.9573 11.2349 24.6291 10.4724 24.0448 9.9099Z" fill="#FFFAFD" fill-opacity="0.9"/>
</g>
<defs>
<clipPath id="clip0_1439_2207">
<rect width="24.96" height="24" fill="white"/>
</clipPath>
</defs>
</svg>
