<svg width="31" height="49" viewBox="0 0 31 49" fill="none" xmlns="http://www.w3.org/2000/svg">
<path d="M3.90631 28.6331C3.22585 28.6331 2.54285 28.5396 1.87528 28.3507C1.32538 28.1952 1.00585 27.6233 1.16143 27.0734C1.31692 26.5236 1.88911 26.2037 2.43872 26.3595C3.73201 26.7252 5.10676 26.596 6.30937 25.9946C8.39552 24.9517 10.8864 24.9517 12.9724 25.9946C14.4791 26.7479 16.2779 26.7479 17.7845 25.9946C19.8705 24.9517 22.3615 24.9517 24.4475 25.9946C25.6502 26.5961 27.0249 26.7256 28.3183 26.3595C28.868 26.2031 29.4401 26.5235 29.5956 27.0734C29.7512 27.6233 29.4316 28.1952 28.8817 28.3507C27.0907 28.8577 25.1871 28.6782 23.522 27.8456C22.0154 27.0922 20.2165 27.0922 18.7099 27.8456C16.624 28.8886 14.133 28.8886 12.047 27.8456C10.5403 27.0924 8.74149 27.0924 7.23486 27.8456C6.19047 28.368 5.05192 28.6331 3.90631 28.6331Z" fill="#733C92"/>
<path d="M18.2473 42.7589H12.5098C11.9384 42.7589 11.4751 42.2956 11.4751 41.7242C11.4751 41.1527 11.9384 40.6895 12.5098 40.6895H18.2473C18.8188 40.6895 19.282 41.1527 19.282 41.7242C19.282 42.2956 18.8188 42.7589 18.2473 42.7589Z" fill="#733C92"/>
<path d="M26.2595 22.1545C24.292 20.1508 21.8932 18.7554 19.2821 18.0586V11.0112H22.5505C25.4938 11.0112 27.8884 8.61657 27.8884 5.6733C27.8884 2.73004 25.4938 0.335449 22.5505 0.335449H6.77233H1.03489C0.463453 0.335449 0.000188025 0.798715 0.000188025 1.37015V7.10768C0.000188025 7.67912 0.463453 8.14239 1.03489 8.14239H5.73762V9.5478L0.303262 14.9822C-0.100837 15.3863 -0.100837 16.0414 0.303262 16.4455C0.505312 16.6475 0.770102 16.7486 1.03489 16.7486C1.29968 16.7486 1.56447 16.6476 1.76652 16.4455L7.20088 11.0112H11.4751V18.0586C8.86394 18.7554 6.46512 20.1508 4.49767 22.1545C1.5973 25.1083 0 29.0017 0 33.1177V47.4615C0 48.033 0.463265 48.4962 1.0347 48.4962H29.7223C30.2937 48.4962 30.757 48.033 30.757 47.4615V33.1177C30.7571 29.0017 29.1599 25.1083 26.2595 22.1545ZM25.819 5.6733C25.819 7.47547 24.3527 8.94174 22.5505 8.94174H18.2474H12.5099H7.80703V2.40486H22.5505C24.3527 2.40486 25.819 3.87113 25.819 5.6733ZM2.0696 6.07298V2.40486H5.73762V6.07298H2.0696ZM13.5446 11.0112H17.2127V17.659C16.6082 17.5859 15.9962 17.5479 15.3786 17.5479C14.7611 17.5479 14.149 17.5858 13.5446 17.659V11.0112ZM28.6877 46.4268H2.0696V33.1177C2.0696 25.6736 8.04003 19.6174 15.3786 19.6174C22.7172 19.6174 28.6877 25.6737 28.6877 33.1177V46.4268Z" fill="#733C92"/>
<path d="M18.2473 37.0211H12.5098C11.9384 37.0211 11.4751 36.5578 11.4751 35.9864C11.4751 35.4149 11.9384 34.9517 12.5098 34.9517H18.2473C18.8188 34.9517 19.282 35.4149 19.282 35.9864C19.282 36.5578 18.8188 37.0211 18.2473 37.0211Z" fill="#733C92"/>
</svg>
