<svg width="48" height="49" viewBox="0 0 48 49" fill="none" xmlns="http://www.w3.org/2000/svg">
<path d="M32.397 40.1797H15.6035V42.2422H32.397V40.1797Z" fill="#733C92"/>
<path d="M21.085 36.385C20.5154 36.385 20.0537 35.9232 20.0537 35.3537V7.28027C20.0537 6.71074 20.5154 6.24902 21.085 6.24902C21.6545 6.24902 22.1162 6.71074 22.1162 7.28027V35.3537C22.1162 35.9232 21.6545 36.385 21.085 36.385Z" fill="#733C92"/>
<path d="M26.791 36.5222C26.2215 36.5222 25.7598 36.0604 25.7598 35.4909V7.41748C25.7598 6.84795 26.2215 6.38623 26.791 6.38623C27.3605 6.38623 27.8223 6.84795 27.8223 7.41748V35.4909C27.8223 36.0604 27.3606 36.5222 26.791 36.5222Z" fill="#733C92"/>
<path d="M15.6009 29.7959H1.03125V31.8584H15.6009V29.7959Z" fill="#733C92"/>
<path d="M15.6009 23.7988H1.03125V25.8613H15.6009V23.7988Z" fill="#733C92"/>
<path d="M15.6009 17.8018H1.03125V19.8643H15.6009V17.8018Z" fill="#733C92"/>
<path d="M15.6009 11.8047H1.03125V13.8672H15.6009V11.8047Z" fill="#733C92"/>
<path d="M46.9684 29.7959H32.3994V31.8584H46.9684V29.7959Z" fill="#733C92"/>
<path d="M46.9684 23.7988H32.3994V25.8613H46.9684V23.7988Z" fill="#733C92"/>
<path d="M46.9684 17.8018H32.3994V19.8643H46.9684V17.8018Z" fill="#733C92"/>
<path d="M46.9684 11.8047H32.3994V13.8672H46.9684V11.8047Z" fill="#733C92"/>
<path d="M46.9688 5.3087H42.3428V1.3667C42.3428 0.797168 41.8811 0.335449 41.3116 0.335449H6.75534C6.18581 0.335449 5.72409 0.797168 5.72409 1.3667V5.3087H1.03125C0.461719 5.3087 0 5.77042 0 6.33995V47.2472C0 47.8167 0.461719 48.2785 1.03125 48.2785H15.6009H32.3991H46.9688C47.5383 48.2785 48 47.8167 48 47.2472V6.33995C48 5.77042 47.5383 5.3087 46.9688 5.3087ZM7.78659 2.39795H40.2804V5.3087H32.3991C31.8295 5.3087 31.3678 5.77042 31.3678 6.33995V46.216H16.6322V6.33995C16.6322 5.77042 16.1705 5.3087 15.6009 5.3087H7.78659V2.39795ZM2.0625 7.3712H14.5697V46.216H9.34734V38.5831C9.34734 38.0136 8.88562 37.5519 8.31609 37.5519C7.74656 37.5519 7.28484 38.0136 7.28484 38.5831V46.216H2.0625V7.3712ZM45.9375 46.216H40.7152V38.5831C40.7152 38.0136 40.2534 37.5519 39.6839 37.5519C39.1144 37.5519 38.6527 38.0136 38.6527 38.5831V46.216H33.4303V7.3712H45.9375V46.216Z" fill="#733C92"/>
</svg>
