<svg width="48" height="49" viewBox="0 0 48 49" fill="none" xmlns="http://www.w3.org/2000/svg">
<path d="M6.74951 8.11633C6.17998 8.11633 5.71826 7.65461 5.71826 7.08508V1.3667C5.71826 0.797168 6.17998 0.335449 6.74951 0.335449C7.31904 0.335449 7.78076 0.797168 7.78076 1.3667V7.08508C7.78076 7.65461 7.31904 8.11633 6.74951 8.11633Z" fill="#733C92"/>
<path d="M12.4678 8.11633C11.8982 8.11633 11.4365 7.65461 11.4365 7.08508V1.3667C11.4365 0.797168 11.8982 0.335449 12.4678 0.335449C13.0373 0.335449 13.499 0.797168 13.499 1.3667V7.08508C13.499 7.65461 13.0373 8.11633 12.4678 8.11633Z" fill="#733C92"/>
<path d="M35.4366 19.9336C34.8671 19.9336 34.4054 19.4719 34.4054 18.9024V4.22589C34.4054 3.21798 33.5854 2.39795 32.5775 2.39795C31.5695 2.39795 30.7495 3.21798 30.7495 4.22589V18.9024C30.7495 19.4719 30.2878 19.9336 29.7183 19.9336C29.1487 19.9336 28.687 19.4719 28.687 18.9024V4.22589C28.687 2.0807 30.4323 0.335449 32.5775 0.335449C34.7226 0.335449 36.4679 2.0807 36.4679 4.22589V18.9024C36.4679 19.4719 36.0062 19.9336 35.4366 19.9336Z" fill="#733C92"/>
<path d="M9.6087 48.3355C7.46351 48.3355 5.71826 46.5902 5.71826 44.445V24.3355C5.71826 23.7659 6.17998 23.3042 6.74951 23.3042C7.31904 23.3042 7.78076 23.7659 7.78076 24.3355V44.445C7.78076 45.4529 8.6008 46.273 9.6087 46.273C10.6166 46.273 11.4366 45.4529 11.4366 44.445V24.3355C11.4366 23.7659 11.8984 23.3042 12.4679 23.3042C13.0374 23.3042 13.4991 23.7659 13.4991 24.3355V44.445C13.4991 46.5902 11.7539 48.3355 9.6087 48.3355Z" fill="#733C92"/>
<path d="M47.7078 29.9389C47.7012 29.8817 47.6896 29.825 47.6735 29.7693C46.2102 22.8208 39.9979 17.5859 32.5778 17.5859C25.1577 17.5859 18.9453 22.8208 17.4821 29.7695C17.466 29.8251 17.4544 29.8816 17.4478 29.9387C17.2565 30.9013 17.1553 31.8956 17.1553 32.913V47.3043C17.1553 47.8739 17.617 48.3356 18.1865 48.3356H46.9689C47.5385 48.3356 48.0002 47.8739 48.0002 47.3043V32.913C48.0002 31.8957 47.8989 30.9015 47.7078 29.9389ZM32.5777 19.6484C37.788 19.6484 42.3105 22.6254 44.5122 26.9558C43.3291 26.154 42.0611 25.4713 40.7161 24.916C38.1256 23.8466 35.3874 23.3043 32.5777 23.3043C29.768 23.3043 27.0299 23.8466 24.4394 24.916C23.0943 25.4713 21.8265 26.154 20.6433 26.9558C22.845 22.6254 27.3675 19.6484 32.5777 19.6484ZM45.9377 46.2731H19.2178V32.913C19.2178 32.1143 19.2893 31.3318 19.4263 30.5714C22.9248 27.2607 27.6984 25.3668 32.5777 25.3668C37.457 25.3668 42.2306 27.2607 45.7293 30.5715C45.8662 31.3319 45.9378 32.1143 45.9378 32.9131V46.2731H45.9377Z" fill="#733C92"/>
<path d="M18.9729 0.699762C18.777 0.468668 18.4894 0.335449 18.1864 0.335449H1.03125C0.728247 0.335449 0.440622 0.468668 0.244684 0.699762C0.0487463 0.93095 -0.0356288 1.23639 0.0138713 1.53536L2.85919 18.702V24.3355C2.85919 24.905 3.3209 25.3667 3.89044 25.3667H15.3272C15.8967 25.3667 16.3584 24.905 16.3584 24.3355V18.702L19.2038 1.53536C19.2533 1.23639 19.1689 0.93095 18.9729 0.699762ZM4.92169 23.3042V19.6483H14.2959V23.3042H4.92169ZM14.4528 17.5858H4.76484L2.24747 2.39795H16.9701L14.4528 17.5858Z" fill="#733C92"/>
</svg>
