<svg width="24" height="24" viewBox="0 0 24 24" fill="none" xmlns="http://www.w3.org/2000/svg">
<g clip-path="url(#clip0_4576_2332)">
<path d="M15.2172 10.5938H14.8154C14.8159 10.748 14.8162 10.8998 14.8162 10.9778C14.8162 11.0688 14.8167 11.2162 14.8174 11.3631C14.969 11.3624 15.1223 11.3618 15.2172 11.3618C15.4515 11.3618 15.6495 11.1859 15.6495 10.9778C15.6495 10.7697 15.4515 10.5938 15.2172 10.5938Z" fill="#504E51"/>
<path d="M18.3652 12.1319H18.9869L18.6775 11.312L18.3652 12.1319Z" fill="#504E51"/>
<path d="M23.2178 10.0432C22.9994 9.71156 22.7932 9.3983 22.7207 9.12741C22.6426 8.835 22.6642 8.44744 22.687 8.03719C22.7235 7.38239 22.7648 6.64027 22.3934 5.99836C22.0169 5.34755 21.3481 5.01155 20.7581 4.71506C20.3957 4.53295 20.0534 4.36097 19.8464 4.15392C19.6393 3.94687 19.4673 3.60455 19.2852 3.24216C18.9887 2.65209 18.6527 1.98333 18.0019 1.60669C17.3599 1.23525 16.6177 1.27645 15.963 1.31302C15.5527 1.33584 15.1651 1.35745 14.8728 1.27927C14.6018 1.20684 14.2885 1.00059 13.9568 0.782203C13.4 0.415594 12.7687 0 12 0C11.2313 0 10.6001 0.415594 10.0432 0.78225C9.71156 1.00064 9.3983 1.20689 9.12741 1.27931C8.83495 1.35741 8.44744 1.33594 8.03719 1.31302C7.38244 1.27669 6.64027 1.2352 5.99836 1.60664C5.3475 1.98314 5.0115 2.65191 4.71506 3.24197C4.53295 3.60436 4.36097 3.94669 4.15392 4.15369C3.94687 4.36069 3.60455 4.53272 3.24211 4.71483C2.65205 5.01127 1.98328 5.34731 1.60669 5.99817C1.23525 6.64008 1.27659 7.38225 1.31302 8.03705C1.33584 8.44739 1.35741 8.83491 1.27927 9.12736C1.20684 9.39825 1.00059 9.71156 0.782203 10.0432C0.415594 10.6001 0 11.2313 0 12C0 12.7687 0.415594 13.3999 0.78225 13.9568C1.00059 14.2884 1.20684 14.6017 1.27927 14.8726C1.35741 15.165 1.33584 15.5526 1.31297 15.9628C1.2765 16.6176 1.23516 17.3597 1.60659 18.0016C1.98314 18.6525 2.65186 18.9885 3.24188 19.2849C3.60431 19.467 3.94664 19.639 4.15364 19.8461C4.36069 20.0531 4.53267 20.3955 4.71478 20.7578C5.01127 21.3479 5.34731 22.0167 5.99812 22.3933C6.64008 22.7647 7.38225 22.7234 8.03705 22.687C8.4473 22.6642 8.83491 22.6425 9.12722 22.7207C9.39816 22.7932 9.71147 22.9994 10.0432 23.2178C10.6 23.5844 11.2313 24 12 24C12.7687 24 13.3999 23.5844 13.9568 23.2178C14.2884 22.9994 14.6017 22.7931 14.8726 22.7207C15.165 22.6425 15.5525 22.664 15.9628 22.687C16.6175 22.7233 17.3597 22.7648 18.0016 22.3934C18.6525 22.0169 18.9885 21.3481 19.2849 20.758C19.467 20.3956 19.639 20.0533 19.8461 19.8463C20.0531 19.6393 20.3955 19.4673 20.7579 19.2852C21.348 18.9887 22.0167 18.6527 22.3933 18.0018C22.7647 17.3599 22.7234 16.6177 22.687 15.963C22.6642 15.5526 22.6426 15.1651 22.7207 14.8726C22.7932 14.6017 22.9994 14.2884 23.2178 13.9568C23.5844 13.3999 24 12.7687 24 12C24 11.2313 23.5844 10.6001 23.2178 10.0432ZM5.78062 11.2969C6.03952 11.2969 6.24938 11.5068 6.24938 11.7656C6.24938 12.0245 6.03952 12.2344 5.78062 12.2344H4.96875V12.9375H5.88258C6.14147 12.9375 6.35133 13.1474 6.35133 13.4062C6.35133 13.6651 6.14147 13.875 5.88258 13.875H4.5C4.24111 13.875 4.03125 13.6651 4.03125 13.4062V10.125C4.03125 9.86616 4.24111 9.65625 4.5 9.65625H5.88258C6.14147 9.65625 6.35133 9.86616 6.35133 10.125C6.35133 10.3838 6.14147 10.5938 5.88258 10.5938H4.96875V11.2969H5.78062ZM9.99108 13.7896C9.90905 13.8473 9.81497 13.875 9.72178 13.875C9.57436 13.875 9.42923 13.8057 9.33797 13.676L8.48494 12.4634L7.63055 13.6762C7.53923 13.8058 7.3942 13.875 7.24692 13.875C7.15364 13.875 7.05942 13.8472 6.97739 13.7895C6.76575 13.6403 6.71503 13.3479 6.86414 13.1363L7.91198 11.6489L7.0297 10.3947C6.88073 10.1829 6.93164 9.89058 7.14337 9.74161C7.35516 9.59264 7.64756 9.6435 7.79648 9.85528L8.48555 10.8348L9.17573 9.85505C9.32484 9.64336 9.61725 9.59269 9.82894 9.7418C10.0406 9.89091 10.0913 10.1833 9.94219 10.395L9.05855 11.6493L10.1048 13.1365C10.2537 13.3483 10.2028 13.6407 9.99108 13.7896ZM12.906 10.5938H12.4651V13.4062C12.4651 13.6651 12.2552 13.875 11.9963 13.875C11.7375 13.875 11.5276 13.6651 11.5276 13.4062V10.5938H11.094C10.8351 10.5938 10.6252 10.3838 10.6252 10.125C10.6252 9.86616 10.8351 9.65625 11.094 9.65625H12.906C13.1649 9.65625 13.3748 9.86616 13.3748 10.125C13.3748 10.3838 13.1649 10.5938 12.906 10.5938ZM16.4697 13.0966C16.6407 13.2909 16.6218 13.5871 16.4275 13.7581C16.3384 13.8365 16.2279 13.875 16.118 13.875C15.9879 13.875 15.8586 13.8212 15.7659 13.7159L14.8125 12.6327V13.4062C14.8125 13.6651 14.6026 13.875 14.3438 13.875C14.0849 13.875 13.875 13.6651 13.875 13.4062V10.125C13.875 9.86616 14.0849 9.65625 14.3438 9.65625C14.3439 9.65625 14.3441 9.6563 14.3443 9.6563C14.3445 9.6563 14.3446 9.65625 14.3448 9.65625H15.2167C15.972 9.65625 16.5865 10.2491 16.5865 10.9778C16.5865 11.5443 16.215 12.0285 15.6947 12.2161L16.4697 13.0966ZM20.1343 13.8448C19.8921 13.9363 19.6216 13.814 19.5302 13.5718L19.3406 13.0693H18.0081L17.8162 13.5731C17.7449 13.7601 17.5669 13.8751 17.378 13.8751C17.3226 13.8751 17.2662 13.8652 17.2113 13.8442C16.9694 13.7521 16.8479 13.4813 16.9401 13.2394L18.1722 10.0043C18.1735 10.0008 18.1749 9.99731 18.1763 9.99375C18.2601 9.78895 18.4572 9.65644 18.6785 9.6562H18.6791C18.9001 9.6562 19.0972 9.7882 19.1813 9.99272C19.1831 9.99698 19.1848 10.0013 19.1864 10.0055L20.4073 13.2407C20.4987 13.483 20.3765 13.7534 20.1343 13.8448Z" fill="#504E51"/>
</g>
<defs>
<clipPath id="clip0_4576_2332">
<rect width="24" height="24" fill="white"/>
</clipPath>
</defs>
</svg>
