<svg width="96" height="96" viewBox="0 0 96 96" fill="none" xmlns="http://www.w3.org/2000/svg">
<path d="M91.5 27H4.5L9 34.5L4.5 42H91.5L87 34.5L91.5 27Z" fill="#E6737A"/>
<path d="M61.3755 39.9915L61.335 42H68.8365L68.8515 41.2755L72.078 36.6435C72.975 35.3565 72.975 33.645 72.078 32.3565L68.85 27.7245L68.8365 27H61.335L61.374 29.01C61.389 29.751 61.623 30.471 62.046 31.08L64.4295 34.5L62.0475 37.9215C61.623 38.5305 61.389 39.2505 61.3755 39.9915Z" fill="#D96C73"/>
<path d="M34.6243 39.99C34.6093 39.249 34.3753 38.529 33.9523 37.92L31.5703 34.5L33.9523 31.0785C34.3768 30.471 34.6093 29.751 34.6243 29.01L34.6648 27H27.1633L27.1483 27.7245L23.9218 32.3565C23.0248 33.6435 23.0248 35.355 23.9218 36.6435L27.1483 41.274L27.1633 42H34.6648L34.6243 39.99Z" fill="#D96C73"/>
<path d="M69 34.4999L65.124 40.0649L64.989 46.8449L58.5795 49.0649L54.4905 54.477L48 52.5L41.5095 54.477L37.4205 49.0634L31.0095 46.8449L30.876 40.0649L27 34.4999L30.876 28.9349L31.011 22.1549L37.4205 19.9349L41.5095 14.5229L48 16.4999L54.4905 14.5229L58.5795 19.9364L64.9905 22.1549L65.124 28.9349L69 34.4999Z" fill="#FF8088"/>
<path d="M48 46.5C54.6274 46.5 60 41.1274 60 34.5C60 27.8726 54.6274 22.5 48 22.5C41.3726 22.5 36 27.8726 36 34.5C36 41.1274 41.3726 46.5 48 46.5Z" fill="#83ADE6"/>
<path d="M46.5 40.5C46.1025 40.5 45.7215 40.3425 45.4395 40.0605L40.9395 35.5605L43.0605 33.4395L46.3995 36.7785L52.848 29.04L55.152 30.96L47.652 39.96C47.382 40.284 46.989 40.479 46.5675 40.4985C46.545 40.5 46.5225 40.5 46.5 40.5Z" fill="#5A6D80"/>
<path d="M45.5956 65.8905C44.5531 65.811 43.5031 65.679 42.4741 65.4975L42.9961 62.5425C43.9276 62.7075 44.8801 62.8275 45.8236 62.8995L45.5956 65.8905Z" fill="#FFEAAB"/>
<path d="M48.7408 65.9745L48.6733 62.9745C49.6198 62.9535 50.5753 62.883 51.5128 62.769L51.8788 65.7465C50.8438 65.8755 49.7878 65.9505 48.7408 65.9745Z" fill="#FFEAAB"/>
<path d="M39.4049 64.7941C38.4029 64.5106 37.3979 64.1716 36.4229 63.7861L37.5224 60.9946C38.4059 61.3441 39.3134 61.6501 40.2209 61.9066L39.4049 64.7941Z" fill="#FFEAAB"/>
<path d="M54.9808 65.2077L54.3193 62.2826C55.2403 62.0741 56.1628 61.8146 57.0598 61.5146L58.0153 64.3586C57.0208 64.6901 56.0008 64.9767 54.9808 65.2077Z" fill="#FFEAAB"/>
<path d="M33.555 62.4837C32.6235 62.0022 31.7085 61.4712 30.834 60.9012L32.4705 58.3872C33.2625 58.9017 34.0905 59.3847 34.932 59.8197L33.555 62.4837Z" fill="#FFEAAB"/>
<path d="M60.945 63.2069L59.7104 60.4724C60.5699 60.0839 61.4219 59.6459 62.2439 59.1719L63.7439 61.7684C62.8379 62.2934 61.896 62.7764 60.945 63.2069Z" fill="#FFEAAB"/>
<path d="M28.2856 59.0533C27.4711 58.3978 26.6791 57.6943 25.9336 56.9623L28.0366 54.8218C28.7116 55.4848 29.4286 56.1223 30.1651 56.7148L28.2856 59.0533Z" fill="#FFEAAB"/>
<path d="M66.3883 60.0597L64.6348 57.6252C65.4028 57.0717 66.1513 56.4747 66.8608 55.8477L68.8468 58.0962C68.0638 58.7892 67.2358 59.4492 66.3883 60.0597Z" fill="#FFEAAB"/>
<path d="M23.8007 54.6477C23.1302 53.8437 22.4927 52.9977 21.9077 52.1322L24.3917 50.4507C24.9212 51.2337 25.4987 51.9987 26.1047 52.7262L23.8007 54.6477Z" fill="#FFEAAB"/>
<path d="M71.1014 55.8988L68.9009 53.8588C69.5474 53.1613 70.1639 52.4278 70.7339 51.6763L73.1234 53.4883C72.4949 54.3193 71.8139 55.1293 71.1014 55.8988Z" fill="#FFEAAB"/>
<path d="M20.274 49.4413C19.7775 48.5248 19.3215 47.5693 18.9165 46.6003L21.6855 45.4438C22.0515 46.3198 22.464 47.1838 22.9125 48.0133L20.274 49.4413Z" fill="#FFEAAB"/>
<path d="M74.8979 50.8858L72.3389 49.3213C72.8309 48.5158 73.2884 47.6743 73.6994 46.8193L76.4024 48.1183C75.9494 49.0648 75.4424 49.9963 74.8979 50.8858Z" fill="#FFEAAB"/>
<path d="M20.3252 21.2968C20.7632 20.3503 21.2567 19.4128 21.7907 18.5098L24.3737 20.0368C23.8907 20.8543 23.4437 21.7018 23.0492 22.5568L20.3252 21.2968Z" fill="#FFEAAB"/>
<path d="M73.812 20.6354L76.431 19.1729C76.941 20.0864 77.412 21.0359 77.8275 21.9929L75.0765 23.1884C74.7 22.3214 74.274 21.4634 73.812 20.6354Z" fill="#FFEAAB"/>
<path d="M23.5259 15.8834C24.1454 15.0419 24.8144 14.2199 25.5149 13.4429L27.7409 15.4529C27.1064 16.1564 26.5019 16.8989 25.9409 17.6609L23.5259 15.8834Z" fill="#FFEAAB"/>
<path d="M70.5527 15.9706L72.8297 14.0176C73.5122 14.8126 74.1602 15.6496 74.7572 16.5046L72.2972 18.2236C71.7572 17.4481 71.1707 16.6906 70.5527 15.9706Z" fill="#FFEAAB"/>
<path d="M27.7363 11.2138C28.5103 10.5103 29.3293 9.83832 30.1678 9.21582L31.9543 11.6263C31.1938 12.1903 30.4543 12.7978 29.7523 13.4353L27.7363 11.2138Z" fill="#FFEAAB"/>
<path d="M66.4365 12.0403L68.2815 9.6748C69.1035 10.3153 69.9045 11.0068 70.6635 11.7313L68.592 13.9003C67.905 13.2463 67.179 12.6208 66.4365 12.0403Z" fill="#FFEAAB"/>
<path d="M32.7886 7.46822C33.6886 6.93122 34.6231 6.43322 35.5666 5.99072L36.8416 8.70572C35.9866 9.10772 35.1406 9.55622 34.3261 10.0437L32.7886 7.46822Z" fill="#FFEAAB"/>
<path d="M61.626 9.0058L62.9625 6.3208C63.897 6.7858 64.8195 7.3063 65.706 7.8658L64.1055 10.4023C63.3045 9.8968 62.469 9.4273 61.626 9.0058Z" fill="#FFEAAB"/>
<path d="M38.4824 4.79826C39.4649 4.45176 40.4819 4.15176 41.5019 3.90576L42.2069 6.82176C41.2844 7.04526 40.3664 7.31676 39.4784 7.62876L38.4824 4.79826Z" fill="#FFEAAB"/>
<path d="M56.3071 6.99276L57.0796 4.09326C58.0876 4.36176 59.0956 4.68726 60.0781 5.05776L59.0161 7.86426C58.1281 7.52976 57.2176 7.23576 56.3071 6.99276Z" fill="#FFEAAB"/>
<path d="M44.5933 3.31939C45.6268 3.17689 46.6828 3.08539 47.7298 3.04639L47.8393 6.04489C46.8913 6.07939 45.9373 6.16189 45.0028 6.29089L44.5933 3.31939Z" fill="#FFEAAB"/>
<path d="M50.688 6.08091L50.8755 3.08691C51.924 3.15291 52.9755 3.26991 54.0015 3.43641L53.523 6.39741C52.593 6.24741 51.639 6.14091 50.688 6.08091Z" fill="#FFEAAB"/>
<path d="M16.1175 63L15.0525 58.7385C14.757 57.5535 13.569 56.7795 12.315 57.057C11.106 57.324 10.383 58.587 10.587 59.8095L11.6175 66L13.8105 69.672C14.7855 71.304 16.59 72.255 18.4875 72.135L20.6175 72L16.1175 63Z" fill="#F2D0A3"/>
<path d="M34.7429 73.9501C34.7414 73.9471 29.3069 66.2701 29.3069 66.2701C28.7804 65.5261 27.9254 65.0836 27.0134 65.0836C24.9239 65.0836 23.5664 67.2811 24.5009 69.1501L26.3129 73.2211L15.6899 69.8551C15.2159 69.6781 14.7944 69.3826 14.4659 68.9986L7.60193 60.9901C6.66893 59.9026 5.07143 59.6821 3.87893 60.4771C2.55593 61.3591 2.21843 63.1561 3.12893 64.4581L11.7584 76.7866C11.8964 76.9846 12.0584 77.1646 12.2399 77.3236C14.2199 79.0561 16.2014 80.7901 18.1814 82.5226C20.3054 84.3811 24.1589 86.5771 23.9309 89.7481C23.8529 90.8341 23.7329 91.9171 23.6159 93.0001H37.1159C36.7934 86.6506 38.7299 79.5616 34.7429 73.9501Z" fill="#FFDBAC"/>
<path d="M79.5 63L80.565 58.7385C80.8605 57.5535 82.0485 56.7795 83.3025 57.057C84.5115 57.324 85.2345 58.587 85.0305 59.8095L84 66L82.902 67.839C81.255 70.5975 78.2055 72.2025 75 72L79.5 63Z" fill="#F2D0A3"/>
<path d="M60.8746 73.9501C60.8761 73.9471 66.3106 66.2701 66.3106 66.2701C66.8371 65.5261 67.6921 65.0836 68.6041 65.0836C70.6936 65.0836 72.0511 67.2811 71.1166 69.1501L69.3046 73.2211L79.9276 69.8536C80.4016 69.6766 80.8231 69.3811 81.1516 68.9971L88.0156 60.9886C88.9486 59.9011 90.5461 59.6806 91.7386 60.4756C93.0616 61.3576 93.3991 63.1546 92.4886 64.4566L83.8591 76.7851C83.7211 76.9831 83.5591 77.1631 83.3776 77.3221C81.3976 79.0546 79.4161 80.7886 77.4361 82.5211C75.3121 84.3796 71.4586 86.5756 71.6866 89.7466C71.7631 90.8341 71.8831 91.9171 72.0001 93.0001H58.5001C58.8241 86.6506 56.8876 79.5616 60.8746 73.9501Z" fill="#FFDBAC"/>
</svg>
