<svg width="36" height="36" viewBox="0 0 36 36" fill="none" xmlns="http://www.w3.org/2000/svg">
<g clip-path="url(#clip0_754_7794)">
<path d="M34.0197 1.98029C32.6999 0.660178 31.1098 0 29.2506 0H6.75045C4.89124 0 3.30113 0.660178 1.98078 1.98029C0.660667 3.30065 0.000488281 4.89067 0.000488281 6.74996V29.2499C0.000488281 31.109 0.660667 32.6992 1.98078 34.0195C3.30113 35.3399 4.89124 36.0001 6.75045 36.0001H29.2504C31.1096 36.0001 32.6997 35.3399 34.0195 34.0195C35.3398 32.6992 36 31.1091 36 29.2499V6.74996C35.9999 4.89067 35.3397 3.3004 34.0197 1.98029ZM29.4841 27.3261C29.156 28.0447 28.4177 28.67 27.2695 29.2015C26.121 29.7331 25.1012 29.9988 24.2104 29.9988C23.9603 29.9988 23.6946 29.9795 23.4134 29.9404C23.1322 29.9011 22.8943 29.8623 22.699 29.8232C22.5038 29.7841 22.2456 29.7139 21.9256 29.6122C21.605 29.5109 21.3744 29.4325 21.2342 29.3779C21.0932 29.3234 20.8356 29.2257 20.4608 29.0852C20.0858 28.9442 19.8512 28.8582 19.758 28.8276C17.1955 27.8895 14.6912 26.1984 12.246 23.7532C9.80088 21.3075 8.10939 18.8038 7.17182 16.2417C7.14079 16.1479 7.05484 15.9134 6.91405 15.5386C6.77351 15.1638 6.67558 14.9058 6.62091 14.7654C6.56656 14.6247 6.48833 14.3942 6.3867 14.0741C6.28515 13.7537 6.21505 13.4961 6.17589 13.3006C6.13665 13.1056 6.0979 12.8674 6.05875 12.5861C6.01967 12.3047 6.00021 12.0388 6.00021 11.789C6.00021 10.8983 6.26594 9.87879 6.79732 8.73033C7.32862 7.58204 7.9535 6.84379 8.67237 6.51559C9.50051 6.17171 10.2896 5.99981 11.0396 5.99981C11.2113 5.99981 11.3365 6.01557 11.4144 6.04676C11.4926 6.07837 11.6216 6.21866 11.8014 6.46871C11.9811 6.71876 12.1764 7.03506 12.3872 7.41794C12.5982 7.80089 12.8053 8.17203 13.0083 8.53126C13.2114 8.89057 13.4068 9.24586 13.5944 9.59771C13.7819 9.94897 13.899 10.1719 13.9458 10.2654C13.9927 10.3439 14.0943 10.4921 14.2505 10.711C14.4066 10.9296 14.5241 11.1247 14.6021 11.2968C14.6801 11.4686 14.7192 11.6328 14.7192 11.789C14.7192 12.0237 14.5589 12.3087 14.2387 12.6444C13.9182 12.9804 13.5667 13.2891 13.1838 13.5704C12.8009 13.8518 12.4495 14.1526 12.1292 14.4729C11.8091 14.793 11.6488 15.0547 11.6488 15.2579C11.6488 15.3673 11.6761 15.4961 11.7308 15.6446C11.7855 15.7933 11.8363 15.9144 11.8832 16.008C11.9301 16.1016 12.0045 16.2345 12.1058 16.4066C12.2074 16.5787 12.274 16.6879 12.305 16.7349C13.1642 18.2817 14.1527 19.6138 15.2696 20.7312C16.3871 21.8487 17.7189 22.8367 19.266 23.6961C19.3126 23.7276 19.4221 23.7938 19.5947 23.8955C19.7664 23.9967 19.8995 24.0709 19.9931 24.1178C20.0869 24.1646 20.2077 24.2155 20.3563 24.2698C20.505 24.3243 20.6339 24.3518 20.7437 24.3518C20.993 24.3518 21.3368 24.0942 21.7748 23.5787C22.2122 23.0627 22.6578 22.5511 23.1109 22.0432C23.5637 21.5358 23.9306 21.2818 24.2124 21.2818C24.3686 21.2818 24.5323 21.3207 24.7049 21.3987C24.8769 21.4768 25.0718 21.5943 25.2904 21.7504C25.5095 21.9072 25.6578 22.0084 25.736 22.0559L26.9776 22.7349C27.8058 23.1726 28.4972 23.5591 29.052 23.8951C29.6069 24.2311 29.9078 24.4615 29.9547 24.5863C29.9858 24.6643 30.001 24.7897 30.001 24.9616C30.0004 25.7109 29.8285 26.5001 29.4841 27.3261Z" fill="#504E51"/>
</g>
<defs>
<clipPath id="clip0_754_7794">
<rect width="36" height="36" fill="white"/>
</clipPath>
</defs>
</svg>
