<svg width="24" height="24" viewBox="0 0 24 24" fill="none" xmlns="http://www.w3.org/2000/svg">
<g clip-path="url(#clip0_4576_2440)">
<path d="M10 18.0001C9.667 18.0001 9.354 17.8341 9.168 17.5551L7.465 15.0001H5.5C4.948 15.0001 4.5 14.5521 4.5 14.0001C4.5 13.4481 4.948 13.0001 5.5 13.0001H8C8.334 13.0001 8.646 13.1671 8.832 13.4451L9.876 15.0111L12.105 10.5521C12.269 10.2261 12.596 10.0141 12.961 10.0001C13.349 9.99108 13.669 10.1721 13.857 10.4841L16.566 15.0001H18.5C19.052 15.0001 19.5 15.4481 19.5 16.0001C19.5 16.5521 19.052 17.0001 18.5 17.0001H16C15.649 17.0001 15.323 16.8161 15.143 16.5151L13.08 13.0771L10.895 17.4481C10.735 17.7671 10.418 17.9771 10.062 17.9991C10.042 18.0001 10.021 18.0001 10 18.0001Z" fill="#504E51"/>
<path d="M21 1H3C1.346 1 0 2.346 0 4V20C0 21.654 1.346 23 3 23H21C22.654 23 24 21.654 24 20V4C24 2.346 22.654 1 21 1ZM21 21H3C2.449 21 2 20.552 2 20V6H22V20C22 20.552 21.551 21 21 21Z" fill="#504E51"/>
</g>
<defs>
<clipPath id="clip0_4576_2440">
<rect width="24" height="24" fill="white"/>
</clipPath>
</defs>
</svg>
