<svg width="48" height="46" viewBox="0 0 48 46" fill="none" xmlns="http://www.w3.org/2000/svg">
<path d="M31.7859 23.6934H16.2139C15.6443 23.6934 15.1826 24.1551 15.1826 24.7246V44.1897H17.2451V25.7559H30.7547V31.4794H27.8929C27.3234 31.4794 26.8617 31.9411 26.8617 32.5106C26.8617 33.0802 27.3234 33.5419 27.8929 33.5419H30.7547V44.1897H32.8172V24.7246C32.8172 24.1551 32.3554 23.6934 31.7859 23.6934Z" fill="#733C92"/>
<path d="M46.9687 43.1584H44.107V19.7582L46.302 21.6184C46.4958 21.7825 46.7326 21.8629 46.9682 21.8629C47.2608 21.8629 47.5515 21.739 47.7554 21.4984C48.1237 21.0638 48.07 20.4131 47.6354 20.0449L24.6667 0.579855C24.282 0.253981 23.718 0.253981 23.3332 0.579855L0.364522 20.0449C-0.0700089 20.4131 -0.123634 21.0639 0.244522 21.4984C0.612771 21.9328 1.26349 21.9865 1.69793 21.6184L3.89298 19.7582V43.1584H1.03127C0.46174 43.1584 2.2246e-05 43.6201 2.2246e-05 44.1897C2.2246e-05 44.7592 0.46174 45.2209 1.03127 45.2209H46.9687C47.5382 45.2209 47.9999 44.7592 47.9999 44.1897C47.9999 43.6201 47.5382 43.1584 46.9687 43.1584ZM5.95557 18.0103L24 2.71838L42.0445 18.0103V43.1584H5.95557V18.0103Z" fill="#733C92"/>
</svg>
