<svg width="100" height="98" viewBox="0 0 100 98" fill="none" xmlns="http://www.w3.org/2000/svg">
<path d="M81.2747 61.8042L84.1881 82.1998C84.2704 82.7756 83.7767 83.2694 83.2009 83.1871L64.8396 80.564C63.6827 80.3988 62.528 80.8771 61.8269 81.8118L50.6982 96.651C50.3492 97.1163 49.6511 97.1163 49.3021 96.651L38.1734 81.8118C37.4725 80.8771 36.3176 80.3988 35.1609 80.564L16.7995 83.1871C16.2237 83.2694 15.7299 82.7756 15.8124 82.1998L18.7258 61.8042L18.7266 36.2026L15.8122 15.8004C15.7299 15.2246 16.2237 14.7309 16.7995 14.8133L35.1609 17.4364C36.3176 17.6016 37.4723 17.1233 38.1734 16.1886L49.3021 1.3494C49.6511 0.883888 50.3492 0.883888 50.6982 1.3494L61.8269 16.1884C62.5278 17.1233 63.6827 17.6016 64.8394 17.4364L83.2009 14.8133C83.7767 14.7309 84.2704 15.2246 84.1881 15.8004L81.2737 36.2026L81.2747 61.8042Z" fill="#FEDF30"/>
<path d="M74.8739 61.8041V62.2525L74.9382 62.7027L76.5086 73.6965C76.6594 74.7525 75.7543 75.6579 74.6983 75.5068L61.9933 73.6919C60.8367 73.5265 59.682 74.005 58.9808 74.9397L51.2803 85.2076C50.6404 86.061 49.3603 86.061 48.7204 85.2076L41.0199 74.9397C40.3188 74.005 39.1641 73.5265 38.0074 73.6919L25.3022 75.5068C24.2462 75.6579 23.3413 74.7525 23.4921 73.6965L25.0625 62.7027L25.1268 62.2525V61.8041V36.2025V35.7476L25.0625 35.2972L23.4921 24.3035C23.3411 23.2475 24.2462 22.3424 25.3022 22.4932L38.0072 24.3084C39.1639 24.4735 40.3188 23.9952 41.0197 23.0604L48.7204 12.7926C49.3603 11.9392 50.6404 11.9392 51.2803 12.7926L58.9808 23.0604C59.6818 23.9952 60.8367 24.4735 61.9933 24.3084L74.6983 22.4932C75.7543 22.3424 76.6594 23.2475 76.5086 24.3035L74.9382 35.2972L74.8739 35.7476V36.2025V61.8041Z" fill="#FE950D"/>
<path d="M57.3756 16.824C58.0766 17.7587 59.2315 18.237 60.3881 18.0718L64.83 17.4373C63.6765 17.5988 62.5258 17.1207 61.8266 16.1883L50.6979 1.34928C50.3489 0.88377 49.6508 0.88377 49.3018 1.34928L47.5361 3.70369L57.3756 16.824Z" fill="#FEC526"/>
<path d="M60.3977 79.9316C59.2411 79.7664 58.0862 80.2447 57.3852 81.1794L47.7476 94.5778L49.3021 96.651C49.6511 97.1163 50.3492 97.1163 50.6983 96.651L61.8269 81.8116C62.5143 80.8952 63.6376 80.4191 64.7712 80.5563L60.3977 79.9316Z" fill="#FEC526"/>
<path d="M81.2744 61.8039L81.2734 36.2023L84.1878 15.8001C84.2701 15.2243 83.7764 14.7306 83.2006 14.8131L78.7548 15.4482C79.3283 15.3694 79.8187 15.8615 79.7368 16.4358L76.8315 36.2023L76.8325 61.8039L79.7459 81.5674C79.8263 82.13 79.3565 82.6127 78.7977 82.5577L83.2006 83.1868C83.7764 83.2691 84.2701 82.7754 84.1878 82.1996L81.2744 61.8039Z" fill="#FEC526"/>
<path d="M54.5332 23.6907C55.2343 24.6254 56.389 25.1037 57.5459 24.9385L61.85 24.3235C60.7421 24.4315 59.6528 23.9565 58.9806 23.06L51.2804 12.7923C50.6402 11.9389 49.3604 11.9389 48.7202 12.7923L47.54 14.366L54.5332 23.6907Z" fill="#FA6F0C"/>
<path d="M57.5512 73.0682C56.3946 72.903 55.2397 73.3813 54.5387 74.3162L47.5454 83.6409L48.72 85.2076C49.3601 86.061 50.6402 86.061 51.2801 85.2076L58.9806 74.9395C59.6308 74.0726 60.6711 73.5994 61.7412 73.667L57.5512 73.0682Z" fill="#FA6F0C"/>
<path d="M76.5083 73.6966L74.9379 62.7028L74.8736 62.2526V61.8042V36.2026V35.7475L74.9379 35.2973L76.5083 24.3036C76.6591 23.2475 75.754 22.3425 74.698 22.4932L70.332 23.1171C71.3523 23.0228 72.2076 23.9055 72.0608 24.9341L70.496 35.2973L70.4317 35.7475V36.2026V61.8042V62.2526L70.496 62.7028L72.0664 73.0729C72.2084 74.0675 71.4139 74.9275 70.439 74.8985L74.698 75.5069C75.754 75.6578 76.6591 74.7526 76.5083 73.6966Z" fill="#FA6F0C"/>
<path d="M94.7941 61.8042H5.20573C2.56892 61.8042 1.06364 58.7934 2.6458 56.6838L7.68589 49.9634C8.11238 49.3945 8.11238 48.6122 7.68589 48.0434L2.6458 41.3228C1.06364 39.2131 2.56892 36.2026 5.20573 36.2026H94.7941C97.4309 36.2026 98.9362 39.2131 97.354 41.3228L92.3141 48.0434C91.8874 48.6122 91.8874 49.3945 92.3141 49.9634L97.354 56.6838C98.9362 58.7934 97.4309 61.8042 94.7941 61.8042Z" fill="#8AC9FE"/>
<path d="M92.3139 49.9634C91.8872 49.3945 91.8872 48.6122 92.3139 48.0434L97.354 41.3228C98.9362 39.2131 97.4309 36.2026 94.7939 36.2026H90.3512C92.9883 36.2026 94.4935 39.2131 92.9114 41.3228L87.8713 48.0434C87.4446 48.6122 87.4446 49.3945 87.8713 49.9634L92.9114 56.6838C94.4935 58.7934 92.9883 61.8042 90.3512 61.8042H94.7939C97.4309 61.8042 98.9362 58.7934 97.354 56.6838L92.3139 49.9634Z" fill="#60B7FF"/>
<path d="M29.1673 61.8042H5.20592C2.56892 61.8042 1.06363 58.7934 2.64579 56.6838L7.68588 49.9634C8.11257 49.3945 8.11257 48.6122 7.68588 48.0434L2.64579 41.3228C1.06363 39.2131 2.56892 36.2026 5.20592 36.2026H94.7941C97.4311 36.2026 98.9364 39.2131 97.3542 41.3228L92.3141 48.0434C91.8874 48.6122 91.8874 49.3945 92.3141 49.9634L97.3542 56.6838C98.9364 58.7934 97.4311 61.8042 94.7941 61.8042H35.9278" stroke="black" stroke-width="2" stroke-miterlimit="10" stroke-linecap="round" stroke-linejoin="round"/>
<path d="M22.9994 42.6549H17.6553V55.3389H22.9994" stroke="black" stroke-width="2" stroke-miterlimit="10" stroke-linecap="round" stroke-linejoin="round"/>
<path d="M22.6054 48.9966H17.6553" stroke="black" stroke-width="2" stroke-miterlimit="10" stroke-linecap="round" stroke-linejoin="round"/>
<path d="M72.2393 55.4038L77.0456 42.7832C77.1439 42.5431 77.4837 42.5429 77.5824 42.7826L82.3451 55.4038" stroke="black" stroke-width="2" stroke-miterlimit="10" stroke-linecap="round" stroke-linejoin="round"/>
<path d="M73.7383 52.2603H80.8705" stroke="black" stroke-width="2" stroke-miterlimit="10" stroke-linecap="round" stroke-linejoin="round"/>
<path d="M30.0454 42.603L39.0499 55.4038" stroke="black" stroke-width="2" stroke-miterlimit="10" stroke-linecap="round" stroke-linejoin="round"/>
<path d="M38.4162 42.603L29.3989 55.4038" stroke="black" stroke-width="2" stroke-miterlimit="10" stroke-linecap="round" stroke-linejoin="round"/>
<path d="M45.4502 42.603H52.519" stroke="black" stroke-width="2" stroke-miterlimit="10" stroke-linecap="round" stroke-linejoin="round"/>
<path d="M48.9702 43.0112V55.4033" stroke="black" stroke-width="2" stroke-miterlimit="10" stroke-linecap="round" stroke-linejoin="round"/>
<path d="M60.4624 49.2942L65.8392 55.4038" stroke="black" stroke-width="2" stroke-miterlimit="10" stroke-linecap="round" stroke-linejoin="round"/>
<path d="M58.9189 42.603V55.4038" stroke="black" stroke-width="2" stroke-miterlimit="10" stroke-linecap="round" stroke-linejoin="round"/>
<path d="M65.8391 45.9295C65.8391 47.7669 64.2281 49.2565 62.3242 49.2565C61.38 49.2565 58.9466 49.271 58.9466 49.271C58.9466 49.271 58.9314 46.8557 58.9314 45.9295C58.9314 45.1689 58.9229 42.6028 58.9229 42.6028H62.3242C64.2281 42.6028 65.8391 44.0922 65.8391 45.9295Z" stroke="black" stroke-width="2" stroke-miterlimit="10" stroke-linecap="round" stroke-linejoin="round"/>
<path d="M19.225 15.1594L16.7995 14.8129C16.2237 14.7304 15.7299 15.2241 15.8122 15.8L18.7266 36.2021" stroke="black" stroke-width="2" stroke-miterlimit="10" stroke-linecap="round" stroke-linejoin="round"/>
<path d="M81.2734 36.2026L84.1877 15.8004C84.27 15.2246 83.7763 14.7309 83.2005 14.8134L64.839 17.4365C63.6824 17.6016 62.5277 17.1234 61.8265 16.1885L50.6979 1.34947C50.3488 0.883954 49.651 0.883954 49.3017 1.34947L38.1731 16.1887C37.4719 17.1234 36.3172 17.6016 35.1606 17.4365L25.9854 16.1257" stroke="black" stroke-width="2" stroke-miterlimit="10" stroke-linecap="round" stroke-linejoin="round"/>
<path d="M18.7256 61.8042L15.8122 82.1998C15.7299 82.7756 16.2235 83.2694 16.7993 83.1871L35.1607 80.564C36.3176 80.3988 37.4723 80.8771 38.1734 81.8118L49.3019 96.651C49.6511 97.1163 50.349 97.1163 50.698 96.651L61.8269 81.8118C62.5279 80.8771 63.6827 80.3988 64.8394 80.564L83.2007 83.1871C83.7765 83.2694 84.2702 82.7756 84.1879 82.1998L81.2745 61.8042" stroke="black" stroke-width="2" stroke-miterlimit="10" stroke-linecap="round" stroke-linejoin="round"/>
<path d="M74.8734 36.2026V35.7477L74.9377 35.2973L76.5081 24.3037C76.6589 23.2477 75.754 22.3425 74.698 22.4934L61.9928 24.3085C60.8361 24.4737 59.6814 23.9954 58.9803 23.0605L51.2798 12.7928C50.6399 11.9394 49.3598 11.9394 48.7199 12.7928L41.0194 23.0605C40.3182 23.9954 39.1635 24.4737 38.0069 24.3085L25.3019 22.4934C24.2459 22.3425 23.3407 23.2477 23.4916 24.3037L25.062 35.2973L25.1263 35.7477V36.2026" stroke="black" stroke-width="2" stroke-miterlimit="10" stroke-linecap="round" stroke-linejoin="round"/>
<path d="M25.1268 61.8041V62.2525L25.0625 62.7027L23.4921 73.6965C23.3412 74.7525 24.2462 75.6579 25.3022 75.5068L38.0074 73.6919C39.164 73.5265 40.3187 74.005 41.0199 74.9397L48.7202 85.2076C49.3603 86.061 50.6402 86.061 51.2803 85.2076L58.9808 74.9397C59.6819 74.005 60.8366 73.5265 61.9933 73.6919L74.6983 75.5068C75.7543 75.6579 76.6594 74.7525 76.5086 73.6965L74.9382 62.7027L74.8739 62.2525V61.8041" stroke="black" stroke-width="2" stroke-miterlimit="10" stroke-linecap="round" stroke-linejoin="round"/>
</svg>
