<svg width="24" height="24" viewBox="0 0 24 24" fill="none" xmlns="http://www.w3.org/2000/svg">
<g clip-path="url(#clip0_3580_1182)">
<path d="M5.15625 5.29688C6.51539 5.29688 7.61719 4.19508 7.61719 2.83594C7.61719 1.4768 6.51539 0.375 5.15625 0.375C3.79711 0.375 2.69531 1.4768 2.69531 2.83594C2.69531 4.19508 3.79711 5.29688 5.15625 5.29688Z" fill="#FFFAFD"/>
<path d="M2.79012 22.9452C2.80273 23.3242 3.11365 23.625 3.49287 23.625H6.81781C7.19796 23.625 7.50926 23.3228 7.5206 22.9429L7.70346 16.8281H2.58691L2.79012 22.9452Z" fill="#FFFAFD"/>
<path d="M13.305 7.921C13.8247 7.50902 13.907 6.75142 13.4877 6.23753C13.0971 5.7587 12.4049 5.65891 11.8949 6.00784L10.125 7.21881L7.31016 6.00006H1.875C0.839484 6.00006 0 6.83955 0 7.87506V13.9833C0 14.7519 0.623156 15.3751 1.39181 15.3751H7.74525L7.92188 9.51569L10.4062 10.2188L13.305 7.921Z" fill="#FFFAFD"/>
<path d="M23.2969 3.42188H10.125C9.73669 3.42188 9.42188 3.73669 9.42188 4.125V5.38191L9.97148 5.61984L11.1008 4.84716C12.2079 4.08961 13.7195 4.29694 14.5774 5.34853C15.4932 6.47123 15.314 8.12292 14.1786 9.02297L10.7158 11.7678L9.42188 11.4016V22.9219C9.42188 23.3102 9.73669 23.625 10.125 23.625H23.2969C23.6852 23.625 24 23.3102 24 22.9219V4.125C24 3.73669 23.6852 3.42188 23.2969 3.42188ZM14.6348 18.9348C14.9093 19.2094 14.9093 19.6546 14.6348 19.9292C14.3603 20.2037 13.915 20.2038 13.6404 19.9292L13.4356 19.7244L13.2308 19.9291C12.9563 20.2037 12.5111 20.2038 12.2365 19.9291C11.9619 19.6545 11.9619 19.2094 12.2365 18.9348L12.4412 18.73L12.2353 18.5241C11.9607 18.2495 11.9607 17.8043 12.2353 17.5297C12.5099 17.2552 12.9551 17.2552 13.2297 17.5297L13.4356 17.7357L13.6451 17.5263C13.9197 17.2517 14.3649 17.2517 14.6395 17.5263C14.9141 17.8009 14.9141 18.246 14.6395 18.5206L14.43 18.7301L14.6348 18.9348ZM15.3524 11.5549L13.9895 12.8524C13.7179 13.1108 13.2914 13.1109 13.0198 12.8524L12.2346 12.1049C11.9534 11.8371 11.9424 11.392 12.2102 11.1108C12.478 10.8295 12.9231 10.8187 13.2043 11.0864L13.5046 11.3724L14.3828 10.5365C14.664 10.2688 15.1091 10.2797 15.3768 10.5609C15.6446 10.8421 15.6337 11.2872 15.3524 11.5549ZM20.7024 21.5391H16.9524C16.5641 21.5391 16.2493 21.2243 16.2493 20.8359C16.2493 20.4476 16.5641 20.1328 16.9524 20.1328H20.7024C21.0908 20.1328 21.4056 20.4476 21.4056 20.8359C21.4056 21.2243 21.0908 21.5391 20.7024 21.5391ZM20.7024 18.7266H16.9524C16.5641 18.7266 16.2493 18.4117 16.2493 18.0234C16.2493 17.6351 16.5641 17.3203 16.9524 17.3203H20.7024C21.0908 17.3203 21.4056 17.6351 21.4056 18.0234C21.4056 18.4117 21.0908 18.7266 20.7024 18.7266ZM20.7024 14.5078H16.9524C16.5641 14.5078 16.2493 14.193 16.2493 13.8047C16.2493 13.4164 16.5641 13.1016 16.9524 13.1016H20.7024C21.0908 13.1016 21.4056 13.4164 21.4056 13.8047C21.4056 14.193 21.0908 14.5078 20.7024 14.5078ZM20.7024 11.6953H16.9524C16.5641 11.6953 16.2493 11.3805 16.2493 10.9922C16.2493 10.6039 16.5641 10.2891 16.9524 10.2891H20.7024C21.0908 10.2891 21.4056 10.6039 21.4056 10.9922C21.4056 11.3805 21.0908 11.6953 20.7024 11.6953ZM20.7024 7.85156H16.9524C16.5641 7.85156 16.2493 7.53675 16.2493 7.14844C16.2493 6.76012 16.5641 6.44531 16.9524 6.44531H20.7024C21.0908 6.44531 21.4056 6.76012 21.4056 7.14844C21.4056 7.53675 21.0908 7.85156 20.7024 7.85156Z" fill="#FFFAFD"/>
</g>
<defs>
<clipPath id="clip0_3580_1182">
<rect width="24" height="24" fill="white"/>
</clipPath>
</defs>
</svg>
