<svg width="24" height="24" viewBox="0 0 24 24" fill="none" xmlns="http://www.w3.org/2000/svg">
<g clip-path="url(#clip0_4576_2363)">
<path d="M7.75159 14.1559C7.73771 14.1556 7.72384 14.1558 7.70996 14.1563H7.7326C7.73898 14.1563 7.74521 14.1559 7.75159 14.1559Z" fill="#504E51"/>
<path d="M8.71682 14.0859C8.39943 14.1273 8.08195 14.1548 7.75138 14.1559C7.83581 14.1581 7.92056 14.1757 8.00156 14.2098C8.26452 14.3183 8.4449 14.5751 8.4449 14.8594V19.7812H9.13865C9.52729 19.7812 9.84177 20.0957 9.84177 20.4844C9.84177 20.873 9.52729 21.1875 9.13865 21.1875H6.32615C5.93751 21.1875 5.62303 20.873 5.62303 20.4844C5.62303 20.0957 5.93751 19.7812 6.32615 19.7812H7.02928V16.5568L6.82326 16.7628C6.54862 17.0374 6.10364 17.0374 5.829 16.7628C5.55436 16.4881 5.55436 16.0432 5.829 15.7685L7.23525 14.3623C7.36457 14.2334 7.53506 14.1621 7.70981 14.1562H2.50121C1.81205 15.1546 1.40429 16.3641 1.40429 17.6719C1.40429 18.8671 1.74179 20.0203 2.40277 21.0328L0.265274 22.7484C0.0262587 22.9312 -0.0581161 23.2547 0.0403212 23.5359C0.138665 23.8172 0.405852 24 0.701211 24H7.73245C10.6293 24 13.0481 22.0594 13.7934 19.4016C11.3324 18.614 9.39177 16.6031 8.71682 14.0859Z" fill="#504E51"/>
<path d="M12.5137 2.19375C12.417 2.14542 10.7759 5.67943e-10 7.7325 5.67943e-10C4.25026 -4.68743e-05 1.37912 2.90151 1.40453 6.38366C1.41442 7.74134 1.78768 8.8159 2.40278 9.78279C-0.301952 11.9537 0.375906 11.4096 0.265282 11.4984C0.0262195 11.6812 -0.0581084 12.0047 0.0403289 12.2859C0.138672 12.5672 0.405859 12.75 0.701218 12.75H7.73245C11.362 12.75 14.0606 9.7107 14.0606 6.32816C14.0605 4.7466 13.4754 3.39627 12.5137 2.19375ZM9.84178 7.73436C9.84178 8.29878 9.62203 8.82889 9.22312 9.22644C8.82694 9.62403 8.29683 9.84373 7.73241 9.84373C7.16799 9.84373 6.63788 9.62398 6.24033 9.22508C5.84279 8.82889 5.62304 8.29878 5.62304 7.73436C5.62304 7.34572 5.93752 7.03124 6.32616 7.03124C6.7148 7.03124 7.02928 7.34572 7.02928 7.73436C7.02928 7.92252 7.10208 8.09895 7.2346 8.23081C7.50103 8.49861 7.96519 8.49725 8.22886 8.23217C8.36273 8.09895 8.43553 7.92252 8.43553 7.73436C8.43553 7.5462 8.36273 7.36977 8.23022 7.23791C8.097 7.10403 7.92056 7.03124 7.73241 7.03124C7.34377 7.03124 7.02928 6.71675 7.02928 6.32811C7.02928 5.93947 7.34377 5.62499 7.73241 5.62499C7.92056 5.62499 8.097 5.55219 8.22886 5.41968C8.36273 5.28646 8.43553 5.11002 8.43553 4.92187C8.43553 4.73371 8.36273 4.55727 8.23022 4.42541C7.96378 4.15762 7.49963 4.15898 7.23596 4.42405C7.10208 4.55727 7.02928 4.73371 7.02928 4.92187C7.02928 5.31051 6.7148 5.62499 6.32616 5.62499C5.93752 5.62499 5.62304 5.31051 5.62304 4.92187C5.62304 4.35744 5.84279 3.82734 6.24169 3.42979C7.03407 2.63465 8.42934 2.63329 9.22448 3.43115C9.62203 3.82734 9.84178 4.35744 9.84178 4.92187C9.84178 5.44851 9.64369 5.94083 9.2939 6.32793C9.64336 6.71417 9.84178 7.20702 9.84178 7.73436Z" fill="#504E51"/>
<path d="M23.7229 17.1093L22.0635 15.8577L21.5573 15.4781C22.2068 14.5034 22.5979 13.2992 22.5979 12.0469C22.5979 8.55932 19.6572 5.71875 16.1698 5.71875C15.8376 5.71875 15.8006 5.7232 15.4385 5.77495C15.4525 5.98594 15.476 6.19683 15.476 6.42187C15.476 7.26558 15.3261 8.08125 15.0869 8.84057C15.8885 8.36249 16.9994 8.47495 17.6604 9.14999C18.0542 9.5437 18.2791 10.0781 18.2791 10.6406C18.2791 11.3436 17.9479 11.928 17.4635 12.2859L16.3103 13.1578C15.9728 13.4109 15.7338 13.7624 15.6072 14.1562H17.576C17.9698 14.1562 18.2791 14.4656 18.2791 14.8594C18.2791 15.2531 17.9698 15.5625 17.576 15.5625H14.7635C14.3697 15.5625 14.0604 15.2531 14.0604 14.8594C14.0604 13.7624 14.5807 12.7078 15.4666 12.0469L16.6198 11.1609C16.7838 11.0438 16.8729 10.8447 16.8729 10.6406C16.8729 10.4578 16.8026 10.275 16.6619 10.1484C16.3947 9.88119 15.9307 9.88119 15.6776 10.1484C15.5369 10.275 15.4666 10.4578 15.4666 10.6406C15.4666 11.0343 15.1573 11.3437 14.7635 11.3437C14.4401 11.3437 14.1588 11.1328 14.0885 10.8234C13.1323 12.2156 11.726 13.2703 10.0947 13.7906C10.6432 15.7453 12.1338 17.3203 14.0322 17.9953V17.9812C14.6904 18.2008 15.355 18.375 16.1698 18.375H23.301C23.6104 18.375 23.8775 18.1781 23.9619 17.8969C24.0604 17.6015 23.962 17.2921 23.7229 17.1093Z" fill="#504E51"/>
</g>
<defs>
<clipPath id="clip0_4576_2363">
<rect width="24" height="24" fill="white"/>
</clipPath>
</defs>
</svg>
