<svg width="24" height="24" viewBox="0 0 24 24" fill="none" xmlns="http://www.w3.org/2000/svg">
<g clip-path="url(#clip0_3806_1126)">
<path d="M23.3816 17.7085L20.3988 14.7251C19.603 13.9292 18.2125 13.9279 17.4154 14.7251L16.918 15.2225L22.8844 21.1886L23.3816 20.6914C24.2075 19.8654 24.2047 18.5302 23.3816 17.7085Z" fill="#504E51"/>
<path d="M15.896 16.1892C15.2684 16.6754 14.373 16.656 13.7994 16.0812L7.90179 10.1795C7.32696 9.60466 7.3076 8.7086 7.79384 8.08249L1.84114 2.13013C-0.71968 5.11512 -0.619555 9.61291 2.20677 12.4392L11.5397 21.7762C14.2519 24.4883 18.6945 24.8481 21.849 22.1417L15.896 16.1892Z" fill="#504E51"/>
<path d="M9.25806 3.58084L6.27527 0.597392C5.47943 -0.198451 4.08898 -0.19981 3.29182 0.597392L2.79443 1.09478L8.76086 7.06088L9.25806 6.56363C10.0839 5.73779 10.0812 4.4026 9.25806 3.58084Z" fill="#504E51"/>
</g>
<defs>
<clipPath id="clip0_3806_1126">
<rect width="24" height="24" fill="white"/>
</clipPath>
</defs>
</svg>
