<svg width="48" height="49" viewBox="0 0 48 49" fill="none" xmlns="http://www.w3.org/2000/svg">
<path d="M47.5138 14.7872L24.545 0.491192C24.2113 0.283535 23.7888 0.283535 23.4551 0.491192L0.486283 14.7872C0.183844 14.9754 0 15.3065 0 15.6627V22.4056C0 22.7802 0.203063 23.1252 0.53044 23.3071C0.85791 23.4889 1.25804 23.4792 1.57613 23.2812L2.85911 22.4826V47.3044C2.85911 47.8739 3.32083 48.3357 3.89036 48.3357H44.1096C44.6792 48.3357 45.1409 47.8739 45.1409 47.3044V22.4826L46.4239 23.2812C46.5904 23.3848 46.7795 23.4369 46.9687 23.4369C47.1411 23.4369 47.3136 23.3938 47.4696 23.3071C47.7969 23.1252 48 22.7802 48 22.4056V15.6627C48.0002 15.3065 47.8163 14.9754 47.5138 14.7872ZM43.0785 46.2732H4.92171V21.1989L24.0001 9.32454L43.0785 21.1989V46.2732ZM45.9377 20.5491L24.545 7.23428C24.3782 7.1305 24.1891 7.07856 24.0001 7.07856C23.8111 7.07856 23.622 7.1305 23.4552 7.23428L2.06251 20.5491V16.2355L24.0001 2.58145L45.9377 16.2355V20.5491Z" fill="#733C92"/>
<path d="M32.9041 23.2622L24.3265 20.403C24.1148 20.3324 23.886 20.3324 23.6743 20.403L15.0967 23.2622C14.6756 23.4026 14.3916 23.7967 14.3916 24.2406V29.4952C14.3916 32.3304 15.2995 35.1801 16.9479 37.5192C18.637 39.9161 20.963 41.6607 23.6745 42.5645C23.7803 42.5998 23.8905 42.6174 24.0006 42.6174C24.1108 42.6174 24.221 42.5998 24.3267 42.5645C27.0382 41.6607 29.3642 39.916 31.0532 37.5191C32.7016 35.18 33.6094 32.3302 33.6094 29.495V24.2406C33.6092 23.7967 33.3252 23.4026 32.9041 23.2622ZM16.454 29.4952V24.9839L22.9691 22.8121V40.0485C19.0721 38.1343 16.454 33.9888 16.454 29.4952ZM31.5467 29.495C31.5467 33.9889 28.9286 38.1345 25.0316 40.0486V22.8121L31.5467 24.9838V29.495Z" fill="#733C92"/>
</svg>
