<svg width="24" height="25" viewBox="0 0 24 25" fill="none" xmlns="http://www.w3.org/2000/svg">
<g clip-path="url(#clip0_3806_1118)">
<path d="M12 0.850342C7.20726 0.850342 3.30811 4.7495 3.30811 9.54218C3.30811 15.4901 11.0865 24.2219 11.4177 24.5907C11.7287 24.9372 12.2718 24.9365 12.5823 24.5907C12.9135 24.2219 20.6919 15.4901 20.6919 9.54218C20.6918 4.7495 16.7927 0.850342 12 0.850342ZM12 13.9153C9.58865 13.9153 7.62693 11.9535 7.62693 9.54218C7.62693 7.13084 9.5887 5.16912 12 5.16912C14.4113 5.16912 16.373 7.13089 16.373 9.54223C16.373 11.9536 14.4113 13.9153 12 13.9153Z" fill="#504E51"/>
</g>
<defs>
<clipPath id="clip0_3806_1118">
<rect width="24" height="24" fill="white" transform="translate(0 0.850342)"/>
</clipPath>
</defs>
</svg>
