<svg width="24" height="24" viewBox="0 0 24 24" fill="none" xmlns="http://www.w3.org/2000/svg">
<g clip-path="url(#clip0_4576_2435)">
<path d="M23.0586 20.2947L21.2228 18.437C20.9667 18.1781 20.5493 18.1756 20.2902 18.4315C20.0311 18.6877 20.0286 19.1052 20.2845 19.3642L20.9889 20.0771H3.91481V2.98344L4.62468 3.69331C4.88213 3.95089 5.29974 3.95089 5.55732 3.69331C5.8149 3.43572 5.8149 3.01825 5.55732 2.76067L3.73263 0.935849C3.47615 0.679367 3.06061 0.678128 2.80275 0.933097L0.945043 2.76879C0.685809 3.02499 0.68347 3.44247 0.939401 3.7017C1.06847 3.83214 1.2384 3.8975 1.40861 3.8975C1.57607 3.8975 1.74352 3.83421 1.87204 3.7072L2.5958 2.99197V20.0771H1.40875C1.04439 20.0771 0.749241 20.3723 0.749241 20.7366C0.749241 21.1007 1.04439 21.3962 1.40875 21.3962H2.5958V22.583C2.5958 22.9472 2.89095 23.2425 3.25531 23.2425C3.61953 23.2425 3.91481 22.9472 3.91481 22.583V21.3962H21.0192L20.2983 22.1168C20.0409 22.3744 20.0409 22.7919 20.2983 23.0496C20.4272 23.1784 20.5959 23.2426 20.7648 23.2426C20.9334 23.2426 21.1021 23.1784 21.2309 23.0496L23.0558 21.2248C23.3124 20.9681 23.3136 20.553 23.0586 20.2947Z" fill="#504E51"/>
<path d="M6.82554 8.99761H20.0154C20.2955 8.99761 20.545 8.82066 20.6377 8.55634C20.7303 8.29215 20.6461 7.9981 20.4275 7.82308L13.8324 2.54717C13.5915 2.35439 13.2494 2.35439 13.0086 2.54717L6.41357 7.82308C6.19479 7.9981 6.11058 8.29215 6.20319 8.55634C6.29593 8.82066 6.54539 8.99761 6.82554 8.99761Z" fill="#504E51"/>
<path d="M12.7617 12.9546H14.0806V16.9115H12.7617V12.9546Z" fill="#504E51"/>
<path d="M18.037 16.9115C18.4011 16.9115 18.6963 16.6162 18.6963 16.252V10.3164H8.14453V16.252C8.14453 16.6162 8.43982 16.9115 8.80404 16.9115H11.4419V12.2949C11.4419 11.9307 11.7372 11.6354 12.1014 11.6354H14.7395C15.1037 11.6354 15.399 11.9307 15.399 12.2949V16.9115H18.037Z" fill="#504E51"/>
</g>
<defs>
<clipPath id="clip0_4576_2435">
<rect width="24" height="24" fill="white"/>
</clipPath>
</defs>
</svg>
