<svg width="24" height="24" viewBox="0 0 24 24" fill="none" xmlns="http://www.w3.org/2000/svg">
<g clip-path="url(#clip0_3806_1140)">
<path d="M13.875 1.875C13.875 0.839484 13.0355 0 12 0C10.9645 0 10.125 0.839484 10.125 1.875V5.71875H13.875V1.875Z" fill="#504E51"/>
<path d="M6.37514 16.2656C5.45845 16.2656 4.67643 16.8534 4.38623 17.6719H8.364C8.07384 16.8534 7.29182 16.2656 6.37514 16.2656Z" fill="#504E51"/>
<path d="M6.375 14.8594C6.76333 14.8594 7.07812 14.5446 7.07812 14.1562C7.07812 13.7679 6.76333 13.4531 6.375 13.4531C5.98667 13.4531 5.67188 13.7679 5.67188 14.1562C5.67188 14.5446 5.98667 14.8594 6.375 14.8594Z" fill="#504E51"/>
<path d="M0 21.8906C0 23.0537 0.946266 24 2.10938 24H21.8906C23.0537 24 24 23.0537 24 21.8906V9.9375H0V21.8906ZM12.9375 12.0469H20.4375C20.8258 12.0469 21.1406 12.3617 21.1406 12.75C21.1406 13.1383 20.8258 13.4531 20.4375 13.4531H12.9375C12.5492 13.4531 12.2344 13.1383 12.2344 12.75C12.2344 12.3617 12.5492 12.0469 12.9375 12.0469ZM12.9375 14.8594H20.4375C20.8258 14.8594 21.1406 15.1742 21.1406 15.5625C21.1406 15.9508 20.8258 16.2656 20.4375 16.2656H12.9375C12.5492 16.2656 12.2344 15.9508 12.2344 15.5625C12.2344 15.1742 12.5492 14.8594 12.9375 14.8594ZM12.9375 17.6719H20.4375C20.8258 17.6719 21.1406 17.9867 21.1406 18.375C21.1406 18.7633 20.8258 19.0781 20.4375 19.0781H12.9375C12.5492 19.0781 12.2344 18.7633 12.2344 18.375C12.2344 17.9867 12.5492 17.6719 12.9375 17.6719ZM12.9375 20.4844H20.4375C20.8258 20.4844 21.1406 20.7992 21.1406 21.1875C21.1406 21.5758 20.8258 21.8906 20.4375 21.8906H12.9375C12.5492 21.8906 12.2344 21.5758 12.2344 21.1875C12.2344 20.7992 12.5492 20.4844 12.9375 20.4844ZM4.62272 15.3292C4.39734 14.9935 4.26562 14.59 4.26562 14.1562C4.26562 12.9931 5.21189 12.0469 6.375 12.0469C7.53811 12.0469 8.48438 12.9931 8.48438 14.1562C8.48438 14.59 8.35266 14.9935 8.12728 15.3292C9.18005 15.9372 9.89062 17.0743 9.89062 18.375C9.89062 18.7633 9.57581 19.0781 9.1875 19.0781H3.5625C3.17419 19.0781 2.85938 18.7633 2.85938 18.375C2.85938 17.0743 3.56995 15.9372 4.62272 15.3292ZM3.5625 20.4844H9.1875C9.57581 20.4844 9.89062 20.7992 9.89062 21.1875C9.89062 21.5758 9.57581 21.8906 9.1875 21.8906H3.5625C3.17419 21.8906 2.85938 21.5758 2.85938 21.1875C2.85938 20.7992 3.17419 20.4844 3.5625 20.4844Z" fill="#504E51"/>
<path d="M21.8906 3.60938H15.2812V5.71875H15.9844C16.3727 5.71875 16.6875 6.03356 16.6875 6.42188C16.6875 6.81019 16.3727 7.125 15.9844 7.125H8.01562C7.62731 7.125 7.3125 6.81019 7.3125 6.42188C7.3125 6.03356 7.62731 5.71875 8.01562 5.71875H8.71875V3.60938H2.10938C0.944391 3.60938 0 4.55377 0 5.71875V8.53125H24V5.71875C24 4.55377 23.0556 3.60938 21.8906 3.60938Z" fill="#504E51"/>
</g>
<defs>
<clipPath id="clip0_3806_1140">
<rect width="24" height="24" fill="white"/>
</clipPath>
</defs>
</svg>
