<svg width="24" height="24" viewBox="0 0 24 24" fill="none" xmlns="http://www.w3.org/2000/svg">
<g clip-path="url(#clip0_3580_1191)">
<path d="M18.6724 1.56177H6.03961C5.65195 1.56177 5.33789 1.87677 5.33789 2.26489V12.074C6.62208 10.0757 6.08677 10.9085 7.84148 8.17864C8.24086 7.55755 8.91961 7.18677 9.65789 7.18677C10.9805 7.18677 12.5735 8.39464 12.5735 10.3096C12.5656 11.1589 12.4274 12.0012 12.1577 12.815H12.9893C14.9091 12.815 16.3993 14.4987 16.1674 16.4066L16.002 17.7707H19.5752C19.8743 17.7707 20.1677 17.8546 20.4223 18.0125L22.9277 19.5683C23.3956 19.8583 23.9998 19.5206 23.9998 18.9707V6.89849C23.9998 3.95567 21.6096 1.56177 18.6724 1.56177ZM20.3998 11.4055H14.5409C14.1532 11.4055 13.8391 11.091 13.8391 10.7024C13.8391 10.3143 14.1532 9.99927 14.5409 9.99927H20.3998C20.7874 9.99927 21.1015 10.3143 21.1015 10.7024C21.1015 11.091 20.7874 11.4055 20.3998 11.4055ZM20.3998 8.59302H14.5409C14.1532 8.59302 13.8391 8.27849 13.8391 7.88989C13.8391 7.50177 14.1532 7.18677 14.5409 7.18677H20.3998C20.7874 7.18677 21.1015 7.50177 21.1015 7.88989C21.1015 8.27849 20.7874 8.59302 20.3998 8.59302ZM20.3998 5.78052H8.84742C8.4593 5.78052 8.14523 5.46599 8.14523 5.07739C8.14523 4.68927 8.4593 4.37427 8.84742 4.37427H20.3998C20.7874 4.37427 21.1015 4.68927 21.1015 5.07739C21.1015 5.46599 20.7874 5.78052 20.3998 5.78052Z" fill="#FFFAFD"/>
<path d="M12.9894 14.2213H11.1083C10.5895 14.2213 10.255 13.6753 10.4807 13.2149C10.9155 12.3214 11.1578 11.3283 11.1674 10.2965V10.2787C11.1674 9.30087 10.3547 8.63811 9.71475 8.5954C9.4424 8.57478 9.17568 8.70415 9.02475 8.939C6.05475 13.5596 6.24482 13.3019 6.00928 13.5365C6.01832 13.6472 6.01537 13.1628 6.01537 21.4696C6.55467 21.6723 7.00204 22.1268 8.03709 22.1268H12.6304C13.4446 22.1268 14.1318 21.5174 14.2297 20.707L14.7716 16.2374C14.9019 15.1659 14.0671 14.2213 12.9894 14.2213Z" fill="#FFFAFD"/>
<path d="M3.91908 13.0049H0.690281C0.308766 13.0049 0 13.3138 0 13.6935V21.7494C0 22.1262 0.305156 22.438 0.690281 22.438H0.698063C2.6985 22.4158 1.97667 22.424 3.92686 22.4014C4.30448 22.3972 4.60936 22.0902 4.60936 21.7129V13.6935C4.60936 13.3138 4.30017 13.0049 3.91908 13.0049Z" fill="#FFFAFD"/>
</g>
<defs>
<clipPath id="clip0_3580_1191">
<rect width="24" height="24" fill="white"/>
</clipPath>
</defs>
</svg>
