<svg width="24" height="24" viewBox="0 0 24 24" fill="none" xmlns="http://www.w3.org/2000/svg">
<g clip-path="url(#clip0_4566_2319)">
<path d="M18.7969 3.79688C19.1852 3.79688 19.5 3.48206 19.5 3.09375V0.75C19.5 0.361687 19.1852 0.046875 18.7969 0.046875C18.4086 0.046875 18.0938 0.361687 18.0938 0.75V3.09375C18.0938 3.48206 18.4086 3.79688 18.7969 3.79688Z" fill="#504E51"/>
<path d="M21.1404 23.0156H2.85917C1.78653 23.0156 0.818418 22.5623 0.134277 21.8379C0.445246 23.0525 1.54896 23.9531 2.85917 23.9531H21.1404C22.4506 23.9531 23.5543 23.0525 23.8653 21.8379C23.1812 22.5623 22.2131 23.0156 21.1404 23.0156Z" fill="#504E51"/>
<path d="M16.4531 17.3906C16.4531 17.1322 16.2428 16.9219 15.9844 16.9219H15.0469V17.8594H15.9844C16.2428 17.8594 16.4531 17.6491 16.4531 17.3906Z" fill="#504E51"/>
<path d="M5.20312 3.79688C5.59144 3.79688 5.90625 3.48206 5.90625 3.09375V0.75C5.90625 0.361687 5.59144 0.046875 5.20312 0.046875C4.81481 0.046875 4.5 0.361687 4.5 0.75V3.09375C4.5 3.48206 4.81481 3.79688 5.20312 3.79688Z" fill="#504E51"/>
<path d="M12 3.79688C12.3883 3.79688 12.7031 3.48206 12.7031 3.09375V0.75C12.7031 0.361687 12.3883 0.046875 12 0.046875C11.6117 0.046875 11.2969 0.361687 11.2969 0.75V3.09375C11.2969 3.48206 11.6117 3.79688 12 3.79688Z" fill="#504E51"/>
<path d="M16.4531 19.2656C16.4531 19.0072 16.2428 18.7969 15.9844 18.7969H15.0469V19.7344H15.9844C16.2428 19.7344 16.4531 19.5241 16.4531 19.2656Z" fill="#504E51"/>
<path d="M14.3672 8.71875C14.8202 8.71875 15.1875 8.35148 15.1875 7.89844C15.1875 7.44539 14.8202 7.07812 14.3672 7.07812C13.9141 7.07812 13.5469 7.44539 13.5469 7.89844C13.5469 8.35148 13.9141 8.71875 14.3672 8.71875Z" fill="#504E51"/>
<path d="M21.1406 1.92188H20.4375V3.09375C20.4375 3.99839 19.7015 4.73438 18.7969 4.73438C17.8922 4.73438 17.1562 3.99839 17.1562 3.09375V1.92188H13.6406V3.09375C13.6406 3.99839 12.9046 4.73438 12 4.73438C11.0954 4.73438 10.3594 3.99839 10.3594 3.09375V1.92188H6.84375V3.09375C6.84375 3.99839 6.10777 4.73438 5.20312 4.73438C4.29848 4.73438 3.5625 3.99839 3.5625 3.09375V1.92188H2.85938C1.30856 1.92188 0.046875 3.18356 0.046875 4.73438V13.6406H23.9531V4.73438C23.9531 3.18356 22.6914 1.92188 21.1406 1.92188ZM11.1562 11.2969C11.415 11.2969 11.6249 11.5068 11.6249 11.7656C11.6249 12.0245 11.415 12.2344 11.1562 12.2344H8.34366C8.15813 12.2344 7.99003 12.1249 7.91494 11.9553C7.83989 11.7856 7.872 11.5876 7.99678 11.4503L10.5326 8.66105C10.7921 8.37553 10.8539 7.99444 10.6978 7.64161C10.5417 7.28878 10.2181 7.07812 9.83236 7.07812C9.42441 7.07812 9.06361 7.33814 8.93466 7.72519L8.78836 8.16389C8.70652 8.40942 8.44134 8.54236 8.19544 8.46028C7.94986 8.37844 7.81716 8.11294 7.89905 7.86736L8.0453 7.4287C8.30198 6.65827 9.0202 6.14062 9.83236 6.14062C10.589 6.14062 11.2491 6.57042 11.5552 7.26234C11.8612 7.95427 11.7353 8.73183 11.2263 9.29166L9.40331 11.2969H11.1562ZM16.1251 10.4766C16.1251 11.4458 15.3366 12.2344 14.3673 12.2344C13.398 12.2344 12.6095 11.4458 12.6095 10.4766C12.6095 9.96764 12.8271 9.50878 13.1738 9.1875C12.8271 8.86622 12.6095 8.40736 12.6095 7.89844C12.6095 6.92916 13.398 6.14062 14.3673 6.14062C15.3366 6.14062 16.1251 6.92916 16.1251 7.89844C16.1251 8.40736 15.9075 8.86622 15.5607 9.1875C15.9075 9.50878 16.1251 9.96764 16.1251 10.4766Z" fill="#504E51"/>
<path d="M0.046875 19.2656C0.046875 20.8164 1.30856 22.0781 2.85938 22.0781H21.1406C22.6914 22.0781 23.9531 20.8164 23.9531 19.2656V14.5781H0.046875V19.2656ZM14.1094 16.4531C14.1094 16.1943 14.3193 15.9844 14.5781 15.9844H15.9844C16.7598 15.9844 17.3906 16.6152 17.3906 17.3906C17.3906 17.7505 17.2548 18.0791 17.0317 18.3281C17.2548 18.5771 17.3906 18.9058 17.3906 19.2656C17.3906 20.041 16.7598 20.6719 15.9844 20.6719H14.5781C14.3193 20.6719 14.1094 20.462 14.1094 20.2031V16.4531ZM10.3594 16.4531C10.3594 16.1943 10.5693 15.9844 10.8281 15.9844H12.7031C12.962 15.9844 13.1719 16.1943 13.1719 16.4531C13.1719 16.712 12.962 16.9219 12.7031 16.9219H11.2969V17.8594H12.7031C12.962 17.8594 13.1719 18.0693 13.1719 18.3281C13.1719 18.587 12.962 18.7969 12.7031 18.7969H11.2969V19.7344H12.7031C12.962 19.7344 13.1719 19.9443 13.1719 20.2031C13.1719 20.462 12.962 20.6719 12.7031 20.6719H10.8281C10.5693 20.6719 10.3594 20.462 10.3594 20.2031V16.4531ZM6.60938 16.4531C6.60938 16.1943 6.81928 15.9844 7.07812 15.9844H8.95312C9.21197 15.9844 9.42188 16.1943 9.42188 16.4531C9.42188 16.712 9.21197 16.9219 8.95312 16.9219H7.54688V17.8594H8.95312C9.21197 17.8594 9.42188 18.0693 9.42188 18.3281C9.42188 18.587 9.21197 18.7969 8.95312 18.7969H7.54688V20.2031C7.54688 20.462 7.33697 20.6719 7.07812 20.6719C6.81928 20.6719 6.60938 20.462 6.60938 20.2031V16.4531Z" fill="#504E51"/>
<path d="M14.3672 11.2969C14.8202 11.2969 15.1875 10.9296 15.1875 10.4766C15.1875 10.0235 14.8202 9.65625 14.3672 9.65625C13.9141 9.65625 13.5469 10.0235 13.5469 10.4766C13.5469 10.9296 13.9141 11.2969 14.3672 11.2969Z" fill="#504E51"/>
</g>
<defs>
<clipPath id="clip0_4566_2319">
<rect width="24" height="24" fill="white"/>
</clipPath>
</defs>
</svg>
