<svg width="194" height="194" viewBox="0 0 194 194" fill="none" xmlns="http://www.w3.org/2000/svg">
<g filter="url(#filter0_bd_754_5671)">
<circle cx="97" cy="73" r="49" fill="#FFFAFD" fill-opacity="0.8" shape-rendering="crispEdges"/>
</g>
<path d="M112.583 75.9357C118.435 78.097 118.946 82.4117 118.964 82.5875C118.989 82.8353 119.104 83.0652 119.288 83.2327C119.473 83.4003 119.712 83.4935 119.961 83.4943C120.21 83.4952 120.451 83.4036 120.636 83.2373C120.821 83.0711 120.939 82.842 120.965 82.5944C120.984 82.4118 121.494 78.097 127.346 75.9357C127.538 75.8651 127.704 75.7373 127.821 75.5697C127.938 75.402 128 75.2026 128 74.9982C128 74.7938 127.938 74.5943 127.821 74.4267C127.704 74.259 127.538 74.1313 127.346 74.0606C121.494 71.8994 120.984 67.5846 120.966 67.4089C120.941 67.1612 120.825 66.9315 120.641 66.7641C120.457 66.5967 120.217 66.5035 119.969 66.5027C119.72 66.5018 119.479 66.5933 119.294 66.7595C119.109 66.9256 118.992 67.1546 118.965 67.4021C118.946 67.5847 118.435 71.8994 112.583 74.0606C112.392 74.1313 112.226 74.259 112.109 74.4267C111.992 74.5943 111.93 74.7938 111.93 74.9982C111.93 75.2026 111.992 75.402 112.109 75.5697C112.226 75.7373 112.392 75.8651 112.583 75.9357Z" fill="#C4A2FC"/>
<path d="M92.7195 85.7214L83.3378 90.6134C83.1756 90.6977 83.0397 90.8249 82.9448 90.9811C82.85 91.1373 82.7998 91.3165 82.7998 91.4992C82.7998 91.682 82.85 91.8612 82.9448 92.0174C83.0397 92.1736 83.1756 92.3008 83.3378 92.385L91.655 96.722L102.736 90.9441L92.7195 85.7214Z" fill="#C4A2FC"/>
<path d="M114.917 84.5925L105.366 79.6125C105.223 79.5375 105.063 79.4983 104.9 79.4983C104.738 79.4983 104.578 79.5375 104.434 79.6125L94.8843 84.5924L104.901 89.8151L114.917 84.5925Z" fill="#C4A2FC"/>
<path d="M93.8198 97.8506L104.435 103.386C104.578 103.461 104.738 103.5 104.901 103.5C105.063 103.5 105.223 103.461 105.367 103.386L115.981 97.8505L104.901 92.0728L93.8198 97.8506Z" fill="#C4A2FC"/>
<path d="M126.463 90.6133L117.082 85.7214L107.065 90.944L118.146 96.7217L126.463 92.3849C126.625 92.3007 126.761 92.1735 126.856 92.0173C126.951 91.8611 127.001 91.6819 127.001 91.4991C127.001 91.3164 126.951 91.1372 126.856 90.981C126.761 90.8248 126.625 90.6976 126.463 90.6133Z" fill="#C4A2FC"/>
<path d="M84.9193 86.577C84.9413 86.827 85.0559 87.0597 85.2407 87.2295C85.4255 87.3993 85.6671 87.4938 85.9181 87.4946C86.169 87.4953 86.4112 87.4022 86.5969 87.2335C86.7827 87.0648 86.8987 86.8327 86.9222 86.5829C87.1173 85.4176 87.619 84.3252 88.3758 83.4178C89.1326 82.5104 90.1172 81.8207 91.2285 81.4195C91.4096 81.3431 91.5641 81.215 91.6728 81.0512C91.7815 80.8874 91.8395 80.6952 91.8395 80.4987C91.8396 80.3021 91.7817 80.1099 91.6731 79.9461C91.5645 79.7823 91.41 79.6541 91.229 79.5776C90.1185 79.1767 89.1346 78.4878 88.3779 77.5815C87.6212 76.6753 87.119 75.5842 86.9226 74.42C86.9007 74.17 86.7861 73.9373 86.6013 73.7675C86.4165 73.5977 86.1748 73.5032 85.9239 73.5024C85.6729 73.5017 85.4308 73.5948 85.245 73.7635C85.0592 73.9322 84.9432 74.1643 84.9198 74.4142C84.7244 75.5795 84.2227 76.672 83.4659 77.5795C82.7092 78.487 81.7247 79.1769 80.6134 79.5785C80.4324 79.6549 80.278 79.783 80.1694 79.9468C80.0608 80.1106 80.0029 80.3027 80.0029 80.4992C80.003 80.6957 80.061 80.8878 80.1697 81.0515C80.2783 81.2152 80.4329 81.3432 80.6139 81.4195C81.7243 81.8204 82.7081 82.5093 83.4646 83.4156C84.2211 84.3218 84.7232 85.4129 84.9193 86.577Z" fill="#C4A2FC"/>
<path d="M105.001 75.5C103.814 75.5 102.654 75.8519 101.668 76.5112C100.681 77.1705 99.9118 78.1075 99.4577 79.2039C99.0036 80.3003 98.8848 81.5067 99.1163 82.6705C99.3478 83.8344 99.9192 84.9035 100.758 85.7426C101.597 86.5818 102.667 87.1532 103.83 87.3847C104.994 87.6162 106.201 87.4974 107.297 87.0433C108.393 86.5892 109.331 85.8201 109.99 84.8334C110.649 83.8467 111.001 82.6867 111.001 81.5C110.999 79.9092 110.367 78.3841 109.242 77.2593C108.117 76.1344 106.592 75.5017 105.001 75.5ZM105.001 85.5C104.21 85.5 103.436 85.2654 102.779 84.8259C102.121 84.3864 101.608 83.7616 101.305 83.0307C101.003 82.2998 100.923 81.4956 101.078 80.7196C101.232 79.9437 101.613 79.231 102.173 78.6716C102.732 78.1122 103.445 77.7312 104.221 77.5769C104.997 77.4225 105.801 77.5017 106.532 77.8045C107.263 78.1072 107.887 78.6199 108.327 79.2777C108.766 79.9355 109.001 80.7089 109.001 81.5C109 82.5605 108.578 83.5773 107.828 84.3273C107.078 85.0772 106.062 85.4989 105.001 85.5Z" fill="#151A6A"/>
<path d="M113 73.9735V67.5C112.999 66.7046 112.683 65.9421 112.12 65.3796C111.558 64.8172 110.795 64.5009 110 64.5H94C91.9676 64.5027 89.9464 64.8012 88 65.386V56.5C87.9981 55.8816 87.8048 55.279 87.4467 54.7748C87.0886 54.2707 86.5833 53.8897 86 53.6843V52.5C86 49.8478 84.9464 47.3043 83.0711 45.4289C81.1957 43.5536 78.6522 42.5 76 42.5C73.3478 42.5 70.8043 43.5536 68.9289 45.4289C67.0536 47.3043 66 49.8478 66 52.5V79.5C66.0009 80.2954 66.3172 81.0579 66.8796 81.6204C67.4421 82.1828 68.2046 82.4991 69 82.5H70V84.5C70 84.6313 70.0258 84.7614 70.0761 84.8827C70.1263 85.0041 70.2 85.1143 70.2928 85.2072C70.3857 85.3 70.4959 85.3737 70.6173 85.424C70.7386 85.4742 70.8687 85.5 71 85.5H73C73.0011 86.5605 73.4229 87.5773 74.1728 88.3272C74.9227 89.0771 75.9395 89.4989 77 89.5V91.5C77 91.6313 77.0258 91.7614 77.0761 91.8827C77.1263 92.0041 77.2 92.1143 77.2928 92.2072C77.3857 92.3 77.4959 92.3737 77.6173 92.424C77.7386 92.4742 77.8687 92.5 78 92.5H92C92.1313 92.5 92.2614 92.4742 92.3827 92.424C92.5041 92.3737 92.6143 92.3 92.7072 92.2072C92.8 92.1143 92.8737 92.0041 92.9239 91.8827C92.9742 91.7614 93 91.6313 93 91.5V89.5H97.4735C99.5517 91.4635 102.314 92.5393 105.172 92.4988C108.031 92.4583 110.761 91.3046 112.783 89.283C114.805 87.2613 115.958 84.531 115.999 81.6723C116.039 78.8135 114.964 76.0517 113 73.9735ZM95 66.5H110C110.265 66.5003 110.519 66.6057 110.707 66.7932C110.894 66.9807 111 67.2349 111 67.5V72.2924C109.171 71.0929 107.025 70.469 104.838 70.5012C102.651 70.5333 100.524 71.2201 98.7316 72.4728C97.722 72.4066 96.7752 71.9596 96.0825 71.2221C95.3899 70.4846 95.003 69.5117 95 68.5V66.5ZM87 84.5H83C83 83.9696 83.2107 83.4609 83.5858 83.0858C83.9609 82.7107 84.4696 82.5 85 82.5C85.5304 82.5 86.0391 82.7107 86.4142 83.0858C86.7893 83.4609 87 83.9696 87 84.5ZM84 80.642V63.5H86V80.642C85.3468 80.4526 84.6532 80.4526 84 80.642ZM85 55.5C85.2651 55.5003 85.5193 55.6058 85.7067 55.7933C85.8942 55.9807 85.9997 56.2349 86 56.5V61.5H84V56.5C84.0003 56.2349 84.1058 55.9807 84.2933 55.7933C84.4807 55.6058 84.7349 55.5003 85 55.5ZM73.1047 83.5H72V79.5H73.8798C73.4923 80.805 73.2327 82.1447 73.1047 83.5ZM71 77.5C70.8687 77.5 70.7386 77.5258 70.6173 77.576C70.4959 77.6263 70.3857 77.7 70.2928 77.7928C70.2 77.8857 70.1263 77.9959 70.0761 78.1173C70.0258 78.2386 70 78.3687 70 78.5V80.5H69C68.7349 80.4997 68.4807 80.3943 68.2932 80.2068C68.1057 80.0193 68.0003 79.7651 68 79.5V52.5C68 50.3783 68.8429 48.3434 70.3431 46.8431C71.8434 45.3429 73.8783 44.5 76 44.5C78.1217 44.5 80.1566 45.3429 81.6569 46.8431C83.1571 48.3434 84 50.3783 84 52.5V53.6843C83.4167 53.8897 82.9114 54.2707 82.5533 54.7748C82.1952 55.279 82.0019 55.8816 82 56.5V68.2763C78.6946 70.5754 76.1209 73.7775 74.5863 77.5H71ZM77.142 87.5H77C76.4698 87.4994 75.9614 87.2885 75.5865 86.9135C75.2115 86.5386 75.0006 86.0302 75 85.5C74.9979 82.6798 75.6252 79.8948 76.8362 77.3478C78.0472 74.8009 79.8113 72.5564 82 70.7779V81.8878C81.3598 82.6078 81.0043 83.5366 81 84.5C80.1156 84.5026 79.2571 84.7986 78.5589 85.3415C77.8608 85.8843 77.3624 86.6435 77.142 87.5ZM91 90.5H79V88.5C79.0006 87.9698 79.2115 87.4614 79.5865 87.0865C79.9614 86.7115 80.4698 86.5006 81 86.5H89C89.5302 86.5006 90.0386 86.7115 90.4135 87.0865C90.7885 87.4614 90.9994 87.9698 91 88.5V90.5ZM92.858 87.5C92.6376 86.6435 92.1392 85.8843 91.4411 85.3415C90.7429 84.7986 89.8844 84.5026 89 84.5C88.9957 83.5366 88.6402 82.6078 88 81.8878V67.4857C89.6165 66.9476 91.2985 66.6309 93 66.5441V68.5C93.002 69.7176 93.3742 70.9058 94.0671 71.907C94.76 72.9081 95.7409 73.675 96.8797 74.1058C95.2336 75.899 94.2328 78.19 94.0359 80.6162C93.8389 83.0423 94.4571 85.4649 95.7924 87.5H92.858ZM105 90.5C103.22 90.5 101.48 89.9722 99.9999 88.9832C98.5198 87.9943 97.3663 86.5887 96.6851 84.9441C96.0039 83.2996 95.8257 81.49 96.1729 79.7442C96.5202 77.9984 97.3774 76.3947 98.636 75.136C99.8947 73.8774 101.498 73.0202 103.244 72.6729C104.99 72.3257 106.8 72.5039 108.444 73.1851C110.089 73.8663 111.494 75.0198 112.483 76.4999C113.472 77.9799 114 79.72 114 81.5C113.997 83.8862 113.048 86.1738 111.361 87.8611C109.674 89.5483 107.386 90.4974 105 90.5Z" fill="#151A6A"/>
<defs>
<filter id="filter0_bd_754_5671" x="0" y="-12" width="194" height="206" filterUnits="userSpaceOnUse" color-interpolation-filters="sRGB">
<feFlood flood-opacity="0" result="BackgroundImageFix"/>
<feGaussianBlur in="BackgroundImageFix" stdDeviation="18"/>
<feComposite in2="SourceAlpha" operator="in" result="effect1_backgroundBlur_754_5671"/>
<feColorMatrix in="SourceAlpha" type="matrix" values="0 0 0 0 0 0 0 0 0 0 0 0 0 0 0 0 0 0 127 0" result="hardAlpha"/>
<feOffset dy="24"/>
<feGaussianBlur stdDeviation="24"/>
<feComposite in2="hardAlpha" operator="out"/>
<feColorMatrix type="matrix" values="0 0 0 0 0 0 0 0 0 0 0 0 0 0 0 0 0 0 0.08 0"/>
<feBlend mode="normal" in2="effect1_backgroundBlur_754_5671" result="effect2_dropShadow_754_5671"/>
<feBlend mode="normal" in="SourceGraphic" in2="effect2_dropShadow_754_5671" result="shape"/>
</filter>
</defs>
</svg>
