<svg width="154" height="154" viewBox="0 0 154 154" fill="none" xmlns="http://www.w3.org/2000/svg">
<g filter="url(#filter0_bd_754_5708)">
<circle cx="77" cy="53" r="29" fill="#FFFAFD" fill-opacity="0.45" shape-rendering="crispEdges"/>
</g>
<g clip-path="url(#clip0_754_5708)">
<path d="M87.6381 59.0613L88.4445 53.4101L88.7487 53.1056C88.9695 52.8839 89.0935 52.5839 89.0935 52.271C89.0935 51.9582 88.9695 51.6581 88.7487 51.4365L87.003 49.6896C86.7786 49.4747 86.4799 49.3548 86.1692 49.3547C85.8585 49.3547 85.5598 49.4746 85.3353 49.6893L73.9879 61.0463C73.7665 61.2676 73.6421 61.5678 73.6421 61.8808C73.642 62.1938 73.7663 62.494 73.9876 62.7154L75.7335 64.4631C75.9548 64.6839 76.2547 64.8078 76.5673 64.8078C76.8799 64.8077 77.1797 64.6837 77.401 64.4628L77.7052 64.1583L83.3517 63.3512L89.2633 69.2677C89.8321 69.8361 90.6035 70.1552 91.4077 70.1549C92.2119 70.1546 92.983 69.8348 93.5514 69.2659C94.1198 68.697 94.4389 67.9256 94.4386 67.1215C94.4383 66.3173 94.1185 65.5462 93.5496 64.9778L87.6381 59.0613ZM86.5121 58.9951L83.2856 62.2243L79.0298 62.8326L87.1199 54.7357L86.5121 58.9951Z" fill="#C4A2FC"/>
<path d="M77.801 54.2939C77.9204 54.3833 78.0704 54.4217 78.2181 54.4005C78.3658 54.3793 78.499 54.3004 78.5885 54.181C78.6779 54.0616 78.7163 53.9116 78.6951 53.7639C78.6739 53.6162 78.595 53.483 78.4756 53.3935C77.2385 52.4686 76.141 51.3704 75.2167 50.1328C72.0909 45.9329 71.8316 41.1571 71.9551 38.6841C71.9588 38.6104 71.948 38.5366 71.9232 38.4671C71.8984 38.3975 71.8602 38.3335 71.8106 38.2788C71.7611 38.224 71.7013 38.1795 71.6346 38.1479C71.5679 38.1163 71.4956 38.0981 71.4218 38.0944C71.2734 38.0887 71.1286 38.1414 71.0184 38.2412C70.9083 38.3409 70.8416 38.4798 70.8326 38.6281C70.7014 41.2519 70.9794 46.3227 74.3154 50.8049C75.304 52.129 76.4779 53.304 77.801 54.2939Z" fill="#C4A2FC"/>
<path d="M82.8596 49.7937C82.979 49.8827 83.1288 49.9207 83.2762 49.8993C83.4236 49.878 83.5565 49.7991 83.6458 49.6799C83.7351 49.5607 83.7735 49.411 83.7525 49.2636C83.7316 49.1161 83.6531 48.983 83.5342 48.8934C82.2971 47.9683 81.1996 46.8702 80.2753 45.6326C78.6268 43.3901 77.5671 40.7699 77.1931 38.0119C77.1824 37.9389 77.1574 37.8687 77.1196 37.8053C77.0818 37.742 77.0318 37.6867 76.9726 37.6426C76.9134 37.5986 76.8461 37.5666 76.7746 37.5486C76.703 37.5305 76.6286 37.5267 76.5556 37.5374C76.4826 37.5482 76.4124 37.5731 76.349 37.611C76.2857 37.6488 76.2304 37.6988 76.1863 37.758C76.1423 37.8172 76.1103 37.8845 76.0923 37.956C76.0742 38.0276 76.0704 38.102 76.0811 38.175C76.4815 41.1177 77.6136 43.9129 79.374 46.3047C80.3626 47.6288 81.5365 48.8039 82.8596 49.7937Z" fill="#C4A2FC"/>
<path d="M72.1809 59.3563C72.3002 59.4458 72.4503 59.4841 72.598 59.463C72.7456 59.4418 72.8788 59.3628 72.9683 59.2434C73.0578 59.1241 73.0961 58.974 73.0749 58.8263C73.0538 58.6787 72.9748 58.5454 72.8554 58.456C71.6183 57.531 70.5208 56.4328 69.5965 55.1952C66.4708 50.9954 66.2114 46.2196 66.3349 43.7466C66.3393 43.6724 66.329 43.5982 66.3046 43.5281C66.2801 43.4579 66.242 43.3934 66.1925 43.3381C66.1429 43.2828 66.0829 43.2378 66.0159 43.2059C65.9489 43.1739 65.8762 43.1555 65.802 43.1518C65.7278 43.1481 65.6537 43.1592 65.5838 43.1843C65.5139 43.2094 65.4497 43.2481 65.3949 43.2982C65.3401 43.3483 65.2957 43.4088 65.2644 43.4761C65.2331 43.5435 65.2155 43.6163 65.2125 43.6905C65.0813 46.3144 65.3593 51.3851 68.6953 55.8673C69.6839 57.1914 70.8577 58.3665 72.1809 59.3563Z" fill="#C4A2FC"/>
<path d="M91.6275 47.6561C91.7766 47.656 91.9196 47.5967 92.025 47.4912C92.1304 47.3858 92.1896 47.2427 92.1895 47.0936V45.9686C92.1897 45.8946 92.1754 45.8214 92.1472 45.753C92.1191 45.6846 92.0777 45.6224 92.0255 45.57C91.9733 45.5177 91.9113 45.4761 91.843 45.4477C91.7747 45.4194 91.7014 45.4048 91.6275 45.4048C91.5535 45.4048 91.4803 45.4194 91.412 45.4477C91.3437 45.4761 91.2816 45.5177 91.2294 45.57C91.1772 45.6224 91.1358 45.6846 91.1077 45.753C91.0796 45.8214 91.0652 45.8946 91.0654 45.9686V47.0936C91.0654 47.2427 91.1246 47.3858 91.23 47.4912C91.3354 47.5967 91.4783 47.656 91.6275 47.6561Z" fill="#C4A2FC"/>
<path d="M91.6275 48.781C91.4783 48.7811 91.3354 48.8404 91.23 48.9459C91.1246 49.0513 91.0654 49.1944 91.0654 49.3435V50.4685C91.0652 50.5425 91.0796 50.6157 91.1077 50.6841C91.1358 50.7525 91.1772 50.8147 91.2294 50.8671C91.2816 50.9195 91.3437 50.961 91.412 50.9894C91.4803 51.0177 91.5535 51.0323 91.6275 51.0323C91.7014 51.0323 91.7747 51.0177 91.843 50.9894C91.9113 50.961 91.9733 50.9195 92.0255 50.8671C92.0777 50.8147 92.1191 50.7525 92.1472 50.6841C92.1754 50.6157 92.1897 50.5425 92.1895 50.4685V49.3435C92.1896 49.1944 92.1304 49.0513 92.025 48.9459C91.9196 48.8404 91.7766 48.7811 91.6275 48.781Z" fill="#C4A2FC"/>
<path d="M92.7515 48.781H93.8755C94.0247 48.781 94.1678 48.7217 94.2733 48.6163C94.3788 48.5108 94.438 48.3677 94.438 48.2185C94.438 48.0693 94.3788 47.9262 94.2733 47.8208C94.1678 47.7153 94.0247 47.656 93.8755 47.656H92.7515C92.6023 47.656 92.4592 47.7153 92.3537 47.8208C92.2482 47.9262 92.189 48.0693 92.189 48.2185C92.189 48.3677 92.2482 48.5108 92.3537 48.6163C92.4592 48.7217 92.6023 48.781 92.7515 48.781Z" fill="#C4A2FC"/>
<path d="M89.3794 48.781H90.5035C90.6527 48.781 90.7957 48.7217 90.9012 48.6163C91.0067 48.5108 91.066 48.3677 91.066 48.2185C91.066 48.0693 91.0067 47.9262 90.9012 47.8208C90.7957 47.7153 90.6527 47.656 90.5035 47.656H89.3794C89.2302 47.656 89.0871 47.7153 88.9816 47.8208C88.8762 47.9262 88.8169 48.0693 88.8169 48.2185C88.8169 48.3677 88.8762 48.5108 88.9816 48.6163C89.0871 48.7217 89.2302 48.781 89.3794 48.781Z" fill="#C4A2FC"/>
<path d="M72.5181 64.5312C72.369 64.5313 72.226 64.5906 72.1206 64.6961C72.0152 64.8016 71.956 64.9446 71.9561 65.0938V66.2188C71.9558 66.2927 71.9702 66.366 71.9983 66.4344C72.0265 66.5028 72.0678 66.5649 72.12 66.6173C72.1723 66.6697 72.2343 66.7113 72.3026 66.7396C72.3709 66.768 72.4441 66.7826 72.5181 66.7826C72.5921 66.7826 72.6653 66.768 72.7336 66.7396C72.8019 66.7113 72.8639 66.6697 72.9161 66.6173C72.9684 66.5649 73.0097 66.5028 73.0379 66.4344C73.066 66.366 73.0804 66.2927 73.0801 66.2188V65.0938C73.0802 64.9446 73.021 64.8016 72.9156 64.6961C72.8102 64.5906 72.6672 64.5313 72.5181 64.5312Z" fill="#C4A2FC"/>
<path d="M72.5181 67.9062C72.369 67.9063 72.226 67.9656 72.1206 68.0711C72.0152 68.1766 71.956 68.3196 71.9561 68.4688V69.5938C71.9558 69.6677 71.9702 69.741 71.9983 69.8094C72.0265 69.8778 72.0678 69.9399 72.12 69.9923C72.1723 70.0447 72.2343 70.0863 72.3026 70.1146C72.3709 70.143 72.4441 70.1576 72.5181 70.1576C72.5921 70.1576 72.6653 70.143 72.7336 70.1146C72.8019 70.0863 72.8639 70.0447 72.9161 69.9923C72.9684 69.9399 73.0097 69.8778 73.0379 69.8094C73.066 69.741 73.0804 69.6677 73.0801 69.5938V68.4688C73.0802 68.3196 73.021 68.1766 72.9156 68.0711C72.8102 67.9656 72.6672 67.9063 72.5181 67.9062Z" fill="#C4A2FC"/>
<path d="M74.7662 66.7812H73.6421C73.4929 66.7812 73.3498 66.8405 73.2443 66.946C73.1389 67.0515 73.0796 67.1946 73.0796 67.3438C73.0796 67.4929 73.1389 67.636 73.2443 67.7415C73.3498 67.847 73.4929 67.9062 73.6421 67.9062H74.7662C74.9153 67.9062 75.0584 67.847 75.1639 67.7415C75.2694 67.636 75.3287 67.4929 75.3287 67.3438C75.3287 67.1946 75.2694 67.0515 75.1639 66.946C75.0584 66.8405 74.9153 66.7812 74.7662 66.7812Z" fill="#C4A2FC"/>
<path d="M71.3941 66.7812H70.27C70.1208 66.7812 69.9778 66.8405 69.8723 66.946C69.7668 67.0515 69.7075 67.1946 69.7075 67.3438C69.7075 67.4929 69.7668 67.636 69.8723 67.7415C69.9778 67.847 70.1208 67.9062 70.27 67.9062H71.3941C71.5433 67.9062 71.6863 67.847 71.7918 67.7415C71.8973 67.636 71.9566 67.4929 71.9566 67.3438C71.9566 67.1946 71.8973 67.0515 71.7918 66.946C71.6863 66.8405 71.5433 66.7812 71.3941 66.7812Z" fill="#C4A2FC"/>
<path d="M81.5 35.8438H61.25C60.8026 35.8442 60.3737 36.0222 60.0573 36.3385C59.7409 36.6549 59.563 37.0838 59.5625 37.5312V62.2812C59.563 62.7287 59.7409 63.1576 60.0573 63.474C60.3737 63.7903 60.8026 63.9683 61.25 63.9688H81.5C81.9474 63.9683 82.3763 63.7903 82.6927 63.474C83.0091 63.1576 83.187 62.7287 83.1875 62.2812V37.5312C83.187 37.0838 83.0091 36.6549 82.6927 36.3385C82.3763 36.0222 81.9474 35.8442 81.5 35.8438ZM82.0625 62.2812C82.0623 62.4304 82.003 62.5733 81.8975 62.6788C81.7921 62.7842 81.6491 62.8436 81.5 62.8438H61.25C61.1009 62.8436 60.9579 62.7842 60.8525 62.6788C60.747 62.5733 60.6877 62.4304 60.6875 62.2812V37.5312C60.6877 37.3821 60.747 37.2392 60.8525 37.1337C60.9579 37.0283 61.1009 36.9689 61.25 36.9688H81.5C81.6491 36.9689 81.7921 37.0283 81.8975 37.1337C82.003 37.2392 82.0623 37.3821 82.0625 37.5312V62.2812Z" fill="#151A6A"/>
<path d="M79.8125 38.0938H62.9375C62.6392 38.094 62.3532 38.2127 62.1423 38.4236C61.9314 38.6345 61.8128 38.9205 61.8125 39.2188V60.5938C61.8128 60.892 61.9314 61.178 62.1423 61.3889C62.3532 61.5998 62.6392 61.7185 62.9375 61.7188H79.8125C80.1108 61.7185 80.3968 61.5998 80.6077 61.3889C80.8186 61.178 80.9372 60.892 80.9375 60.5938V39.2188C80.9372 38.9205 80.8186 38.6345 80.6077 38.4236C80.3968 38.2127 80.1108 38.094 79.8125 38.0938ZM71.9375 51.0312V60.5938H70.8125V51.0312C70.8125 50.8821 70.7532 50.739 70.6477 50.6335C70.5423 50.528 70.3992 50.4688 70.25 50.4688H62.9375V49.3438H70.25C70.3992 49.3438 70.5423 49.2845 70.6477 49.179C70.7532 49.0735 70.8125 48.9304 70.8125 48.7812V39.2188H71.9375V48.7812C71.9375 48.9304 71.9968 49.0735 72.1023 49.179C72.2077 49.2845 72.3508 49.3438 72.5 49.3438H79.8129L79.8129 50.4688H72.5C72.3508 50.4688 72.2077 50.528 72.1023 50.6335C71.9968 50.739 71.9375 50.8821 71.9375 51.0312ZM79.8128 48.2188H73.0625V39.2188H79.8125L79.8128 48.2188ZM69.6875 39.2188V48.2188H62.9375V39.2188H69.6875ZM62.9375 51.5938H69.6875V60.5938H62.9375V51.5938ZM73.0625 60.5938V51.5938H79.813L79.8133 60.5938H73.0625Z" fill="#151A6A"/>
</g>
<defs>
<filter id="filter0_bd_754_5708" x="0" y="-12" width="154" height="166" filterUnits="userSpaceOnUse" color-interpolation-filters="sRGB">
<feFlood flood-opacity="0" result="BackgroundImageFix"/>
<feGaussianBlur in="BackgroundImageFix" stdDeviation="18"/>
<feComposite in2="SourceAlpha" operator="in" result="effect1_backgroundBlur_754_5708"/>
<feColorMatrix in="SourceAlpha" type="matrix" values="0 0 0 0 0 0 0 0 0 0 0 0 0 0 0 0 0 0 127 0" result="hardAlpha"/>
<feOffset dy="24"/>
<feGaussianBlur stdDeviation="24"/>
<feComposite in2="hardAlpha" operator="out"/>
<feColorMatrix type="matrix" values="0 0 0 0 0 0 0 0 0 0 0 0 0 0 0 0 0 0 0.08 0"/>
<feBlend mode="normal" in2="effect1_backgroundBlur_754_5708" result="effect2_dropShadow_754_5708"/>
<feBlend mode="normal" in="SourceGraphic" in2="effect2_dropShadow_754_5708" result="shape"/>
</filter>
<clipPath id="clip0_754_5708">
<rect width="36" height="36" fill="white" transform="translate(59 35)"/>
</clipPath>
</defs>
</svg>
