<svg width="48" height="48" viewBox="0 0 48 48" fill="none" xmlns="http://www.w3.org/2000/svg">
<path d="M47.7446 26.594L25.0678 0.687486C24.872 0.463795 24.5891 0.335449 24.2918 0.335449C23.9959 0.335449 23.7141 0.462576 23.5183 0.68458L0.257075 27.0587C-0.327747 27.7126 0.15123 28.7802 1.03006 28.7721C1.31572 28.7721 1.60007 28.654 1.80388 28.4229L5.9161 23.7605V46.911C5.9161 47.4805 6.37783 47.9423 6.94737 47.9423H41.5917C42.1613 47.9423 42.623 47.4805 42.623 46.911V23.8743L46.1928 27.9525C46.568 28.3811 47.2195 28.4243 47.648 28.0492C48.0765 27.674 48.1198 27.0226 47.7446 26.594ZM40.5604 45.8797H7.97864V21.4219L24.2889 2.92908L40.5605 21.518V45.8797H40.5604Z" fill="#733C92"/>
<path d="M23.9261 42.3639C23.5609 42.3639 23.2226 42.1706 23.0374 41.8558L15.7491 29.4777C11.7786 22.8892 16.1346 14.2779 23.9945 14.2441C31.8472 14.2557 36.2439 22.9552 32.2017 29.5056C32.2018 29.5056 24.8111 41.8619 24.8111 41.8619C24.6248 42.1734 24.2887 42.3639 23.9261 42.3639ZM17.5265 28.4312L23.933 39.3119L30.4318 28.4467C31.2393 27.0966 31.6662 25.5514 31.6662 23.9783C31.6662 19.7481 28.2247 16.3066 23.9945 16.3066C17.72 16.3462 14.3677 23.2055 17.5265 28.4312Z" fill="#733C92"/>
<path d="M23.9259 28.2563C21.6637 28.2563 19.8232 26.4159 19.8232 24.1537C20.0486 18.7109 27.804 18.7126 28.0286 24.1537C28.0286 26.4159 26.1881 28.2563 23.9259 28.2563ZM23.9259 22.1137C22.801 22.1137 21.8858 23.0289 21.8858 24.1538C21.9978 26.8603 25.8544 26.8595 25.966 24.1538C25.966 23.0288 25.0508 22.1137 23.9259 22.1137Z" fill="#733C92"/>
<path d="M12.1143 5.88225C12.0602 4.51489 10.1061 4.51414 10.0518 5.88225V15.9532L12.1143 13.6147V5.88225Z" fill="#733C92"/>
</svg>
