<svg width="24" height="24" viewBox="0 0 24 24" fill="none" xmlns="http://www.w3.org/2000/svg">
<path d="M21.8132 9.64404H18.6164C18.6164 9.66799 18.6116 9.68724 18.6116 9.70639C18.5924 10.004 18.458 10.2776 18.2324 10.4744C18.0308 10.652 17.7668 10.7528 17.4932 10.7528C17.3972 10.7528 17.3012 10.7385 17.2148 10.7144V19.268H22.6676V10.4985C22.6676 10.028 22.2836 9.64404 21.8132 9.64404ZM17.9972 12.9896H19.5428V14.5352H17.9972V12.9896ZM17.9972 14.8568H19.5428V16.4024H17.9972V14.8568ZM21.41 17.54H17.9972V17.1128H21.41V17.54ZM21.41 16.4024H19.8644V14.8568H21.41V16.4024ZM21.41 14.5352H19.8644V12.9896H21.41V14.5352ZM21.41 12.2792H17.9972V11.852H21.41V12.2792Z" fill="#504E51"/>
<path d="M6.50554 10.7528C6.23674 10.7528 5.97274 10.652 5.77114 10.4744C5.52154 10.2584 5.39194 9.95119 5.38714 9.64404H2.18554C1.71514 9.64404 1.33594 10.028 1.33594 10.4984V19.268H6.78394V10.7144C6.69754 10.7385 6.60154 10.7528 6.50554 10.7528ZM2.59354 12.9896H4.13914V14.5352H2.59354V12.9896ZM2.59354 14.8568H4.13914V16.4024H2.59354V14.8568ZM6.00634 17.54H2.59354V17.1128H6.00634V17.54ZM6.00634 16.4024H4.46074V14.8568H6.00634V16.4024ZM6.00634 14.5352H4.46074V12.9896H6.00634V14.5352ZM6.00634 12.2792H2.59354V11.852H6.00634V12.2792Z" fill="#504E51"/>
<path d="M6.98744 10.052L11.9996 4.31677L17.0133 10.052C17.246 10.3189 17.6508 10.3448 17.9162 10.1126C18.1825 9.87987 18.2096 9.47576 17.9767 9.2095L12.4812 2.92304C12.2387 2.64512 11.7608 2.64512 11.5175 2.92304L6.02331 9.2095C5.7908 9.47576 5.81787 9.88011 6.08413 10.1126C6.3512 10.3456 6.75498 10.3176 6.98744 10.052Z" fill="#504E51"/>
<path d="M16.6525 10.3689L12.0013 5.04565L7.35007 10.3689L7.26367 10.4553V19.2681H9.15007V13.1577H14.8525V19.2681H16.7341V10.4553C16.7053 10.4264 16.6813 10.3977 16.6525 10.3689ZM12.0013 6.63445C12.6637 6.63445 13.2013 7.17205 13.2013 7.83445C13.2013 8.49685 12.6637 9.03445 12.0013 9.03445C11.3389 9.03445 10.8013 8.49685 10.8013 7.83445C10.8013 7.17205 11.3389 6.63445 12.0013 6.63445ZM9.15482 12.6777C9.20762 11.1512 10.4604 9.92725 12.0013 9.92725C13.5373 9.92725 14.7901 11.1512 14.8429 12.6777H9.15482ZM14.8525 12.7785C14.8525 12.7449 14.8525 12.7113 14.8477 12.6777H14.8525V12.7785Z" fill="#504E51"/>
<path d="M10.8468 16.4958C11.1413 16.4958 11.38 16.257 11.38 15.9625C11.38 15.668 11.1413 15.4292 10.8468 15.4292C10.5522 15.4292 10.3135 15.668 10.3135 15.9625C10.3135 16.257 10.5522 16.4958 10.8468 16.4958Z" fill="#504E51"/>
<path d="M22.6671 19.7495H1.33381C0.864421 19.7495 0.480469 20.1335 0.480469 20.6028V21.2855H23.5205V20.6028C23.5205 20.1335 23.1365 19.7495 22.6671 19.7495Z" fill="#504E51"/>
</svg>
