<svg width="24" height="24" viewBox="0 0 24 24" fill="none" xmlns="http://www.w3.org/2000/svg">
<g clip-path="url(#clip0_4576_2413)">
<path d="M6.42857 9.42847H3.42857C3.19188 9.42847 3 9.62034 3 9.85704V16.7142C3 16.9509 3.19188 17.1428 3.42857 17.1428H6.42857C6.66527 17.1428 6.85714 16.9509 6.85714 16.7142V9.85704C6.85714 9.62034 6.66527 9.42847 6.42857 9.42847Z" fill="#504E51"/>
<path d="M7.71436 9.85725V11.5715H11.1429V9.42868C11.1429 9.19199 11.3348 9.00011 11.5715 9.00011C11.8082 9.00011 12.0001 9.19199 12.0001 9.42868V11.5715H12.8573L12.8572 9.00011C12.8654 7.40642 11.6243 6.08534 10.0332 5.99401C8.44211 5.90269 7.05805 7.07309 6.88379 8.65725C7.38284 8.84615 7.71334 9.32366 7.71436 9.85725Z" fill="#504E51"/>
<path d="M5.28841 21.9146C5.32748 22.1484 5.54434 22.3097 5.77955 22.2797C6.00881 22.243 6.16711 22.0303 6.13655 21.8001L5.61412 18H4.75098L5.28841 21.9146Z" fill="#504E51"/>
<path d="M5.57143 5.36661V3.85718H3V5.36789C3.83104 5.06876 4.74038 5.06876 5.57143 5.36789V5.36661Z" fill="#504E51"/>
<path d="M18.8574 3.85718H19.7146V5.57146H18.8574V3.85718Z" fill="#504E51"/>
<path d="M11.1427 5.36657V2.23242C10.3144 2.54658 9.39965 2.54658 8.57129 2.23242V5.36785C9.40228 5.06843 10.3117 5.06843 11.1427 5.36785V5.36657ZM9.42843 3.85714C9.42843 3.62044 9.62031 3.42856 9.857 3.42856C10.0937 3.42856 10.2856 3.62044 10.2856 3.85714C10.2856 4.09383 10.0937 4.28571 9.857 4.28571C9.62031 4.28571 9.42843 4.09383 9.42843 3.85714Z" fill="#504E51"/>
<path d="M14.1426 0H15.4283V1.28571H14.1426V0Z" fill="#504E51"/>
<path d="M17.6097 9.38796C17.3448 10.1852 16.933 10.9259 16.3955 11.5715H21.9858C21.6697 10.5333 21.2527 9.52849 20.7408 8.57153H17.8809L17.6097 9.38796Z" fill="#504E51"/>
<path d="M14.3796 5.63354C14.5246 5.70738 14.699 5.69155 14.8283 5.59282L16.114 4.62854C16.2211 4.5469 16.2844 4.42032 16.2855 4.28568V2.14282H15.4283V3.85711C15.4283 3.992 15.3648 4.11903 15.2569 4.19997L14.314 4.90711C14.2064 4.98831 14.143 5.11516 14.1426 5.24997C14.1409 5.41287 14.2331 5.56219 14.3796 5.63354Z" fill="#504E51"/>
<path d="M18 6.85704V7.71418H20.5714V6.85704C20.5714 6.62034 20.3796 6.42847 20.1429 6.42847H18.4286C18.1919 6.42847 18 6.62034 18 6.85704Z" fill="#504E51"/>
<path d="M5.57143 2.57136C5.57143 1.86128 4.99579 1.28564 4.28571 1.28564C3.57563 1.28564 3 1.86128 3 2.57136V2.99993H5.57143V2.57136Z" fill="#504E51"/>
<path d="M7.71382 16.7143C7.71157 17.4036 7.16616 17.9684 6.47739 17.9949L6.98525 21.6831C7.03193 22.021 6.94219 22.3635 6.73585 22.6351C6.5295 22.9066 6.22354 23.0849 5.88553 23.1304C5.82867 23.1378 5.77144 23.142 5.7141 23.1429C5.07317 23.1393 4.53149 22.6669 4.44082 22.0324L3.88625 18H3.4281C2.71802 18 2.14239 17.4244 2.14239 16.7143V15H0.959961L2.69953 22.9873C2.82757 23.5766 3.34794 23.9977 3.95096 24H20.0481C20.6507 23.9989 21.1713 23.5786 21.2995 22.9899L23.0391 15H7.71382V16.7143ZM17.0138 21.6823L17.661 16.968C17.7149 16.5056 18.0146 16.1084 18.4445 15.9297C18.8745 15.751 19.3674 15.8187 19.7332 16.1067C20.0991 16.3946 20.2807 16.8578 20.208 17.3177L19.5612 22.032C19.4589 22.73 18.8132 23.2152 18.1143 23.1193C17.4153 23.0233 16.9243 22.3821 17.0138 21.6823ZM13.1622 17.0807C13.1964 16.3713 13.7992 15.824 14.5086 15.8582C15.218 15.8924 15.7653 16.4952 15.7311 17.2046L15.504 21.9189C15.471 22.6039 14.9062 23.1425 14.2204 23.1429H14.1591C13.8182 23.1269 13.4977 22.976 13.2681 22.7235C13.0385 22.471 12.9187 22.1376 12.9351 21.7967L13.1622 17.0807ZM9.49068 15.8571C10.1986 15.8265 10.7992 16.3718 10.8368 17.0794L11.064 21.7937C11.0812 22.1348 10.962 22.4688 10.7327 22.7219C10.5034 22.975 10.1828 23.1264 9.84168 23.1429H9.77868C9.09217 23.1437 8.52614 22.605 8.49296 21.9193L8.26582 17.205C8.24894 16.8637 8.36863 16.5297 8.59845 16.2768C8.82827 16.0239 9.14931 15.8729 9.49068 15.8571Z" fill="#504E51"/>
<path d="M9.77894 22.2858H9.80251C10.0381 22.2733 10.2194 22.0727 10.2079 21.8371L9.9808 17.1228C9.97449 17.0084 9.92263 16.9013 9.8368 16.8254C9.76033 16.7552 9.6607 16.7157 9.55694 16.7144H9.53551C9.42135 16.7189 9.31373 16.7689 9.23656 16.8531C9.15939 16.9374 9.11905 17.0489 9.12451 17.1631L9.35166 21.8774C9.3624 22.1057 9.55039 22.2854 9.77894 22.2858Z" fill="#504E51"/>
<path d="M23.571 12.4285H7.71387V14.1428H23.571C23.8077 14.1428 23.9996 13.9509 23.9996 13.7142V12.857C23.9996 12.6203 23.8077 12.4285 23.571 12.4285Z" fill="#504E51"/>
<path d="M2.14328 9.85709C2.14328 9.14701 2.71891 8.57138 3.42899 8.57138H6.03342C6.0943 8.02762 6.27145 7.50333 6.55285 7.03409C6.50742 6.98138 6.46028 6.92866 6.40842 6.87681C5.55028 6.01788 4.25904 5.76089 3.13743 6.22579C2.01581 6.69069 1.28501 7.78581 1.28613 8.99995L1.28613 11.5714H2.14328V9.85709Z" fill="#504E51"/>
<path d="M17.4861 1.45715L18.6433 3H19.9598L21.4718 1.41815C21.5519 1.3344 21.6624 1.28663 21.7783 1.28572H21.783C21.8966 1.28574 22.0056 1.33091 22.086 1.41129L22.7674 2.09272C22.9359 2.25392 23.2015 2.25392 23.37 2.09272L23.8757 1.58572C24.0407 1.41876 24.0407 1.1501 23.8757 0.983145L23.0186 0.126002C22.9382 0.0450141 22.8288 -0.000373859 22.7147 2.31983e-06L16.2861 1.2616e-09V1.28572H17.1433C17.2782 1.28572 17.4052 1.34923 17.4861 1.45715Z" fill="#504E51"/>
<path d="M14.199 22.2858H14.2208C14.4497 22.2861 14.6384 22.1064 14.6494 21.8778L14.8766 17.1635C14.8821 17.0498 14.8422 16.9384 14.7656 16.8542C14.6889 16.7699 14.5819 16.7196 14.4681 16.7144H14.4463C14.2165 16.7119 14.0265 16.8928 14.0177 17.1224L13.7906 21.8367C13.785 21.9504 13.8249 22.0617 13.9015 22.146C13.9782 22.2303 14.0852 22.2806 14.199 22.2858Z" fill="#504E51"/>
<path d="M2.14286 12.4285H0.428571C0.191878 12.4285 0 12.6203 0 12.857V13.7142C0 13.9509 0.191878 14.1428 0.428571 14.1428H2.14286V12.4285Z" fill="#504E51"/>
<path d="M18.2291 22.2819C18.3418 22.2974 18.456 22.2675 18.5466 22.1988C18.6371 22.1301 18.6967 22.0282 18.7121 21.9155L19.3593 17.2012C19.3748 17.0885 19.3448 16.9743 19.276 16.8837C19.2072 16.7931 19.1052 16.7335 18.9924 16.7182C18.9725 16.7156 18.9525 16.7144 18.9324 16.7144C18.8396 16.7139 18.7492 16.744 18.6753 16.8001C18.5839 16.8687 18.5237 16.971 18.5081 17.0842L17.8614 21.7985C17.8459 21.9112 17.8758 22.0253 17.9446 22.1159C18.0133 22.2065 18.1152 22.2661 18.2278 22.2815L18.2291 22.2819Z" fill="#504E51"/>
</g>
<defs>
<clipPath id="clip0_4576_2413">
<rect width="24" height="24" fill="white"/>
</clipPath>
</defs>
</svg>
