<svg width="24" height="24" viewBox="0 0 24 24" fill="none" xmlns="http://www.w3.org/2000/svg">
<g clip-path="url(#clip0_3580_1175)">
<path d="M5.24994 6.6286C5.24994 5.15002 6.45294 3.94702 7.9317 3.94702C9.41028 3.94702 10.6135 5.15002 10.6135 6.6286V8.78979C11.3583 8.56201 11.902 7.86823 11.902 7.04956V1.81934C11.902 0.816101 11.0857 0 10.0825 0H5.78094C4.77771 0 3.96143 0.816101 3.96143 1.81934V7.04956C3.96143 7.86823 4.50488 8.56201 5.24994 8.78979V6.6286Z" fill="#FFFAFD"/>
<path d="M18.9985 0H14.6968C13.6935 0 12.8774 0.816101 12.8774 1.81934V7.04956C12.8774 8.0528 13.6935 8.8689 14.6968 8.8689H18.9985C20.0017 8.8689 20.818 8.0528 20.818 7.04956V1.81934C20.818 0.816101 20.0017 0 18.9985 0Z" fill="#FFFAFD"/>
<path d="M15.6662 11.3037C14.9541 11.3037 14.3771 11.8809 14.3771 12.5928V11.9362C14.3771 11.2242 13.8 10.6471 13.0879 10.6471C12.3759 10.6471 11.7988 11.2241 11.7988 11.9362V11.3839C11.7988 10.7068 11.2768 10.1522 10.6134 10.0992C10.5791 10.0967 10.5447 10.0948 10.5097 10.0948C9.99008 10.0948 9.54257 10.4026 9.33859 10.8456C9.26315 11.0095 9.22067 11.1917 9.22067 11.3839V6.62866C9.22067 5.91675 8.64353 5.3396 7.93161 5.3396C7.2197 5.3396 6.64255 5.91675 6.64255 6.62866V17.6956L6.5867 17.6884L5.79257 14.2892C5.63052 13.596 4.9371 13.1652 4.24387 13.3272C3.51584 13.3272 3.0557 13.9073 3.22122 14.6163L4.14206 18.5573C4.62363 21.6407 7.11624 24.0001 7.11624 24.0001H14.948C16.2567 22.0097 16.9541 19.6799 16.9545 17.2977L16.9552 12.5928C16.9552 11.8809 16.3781 11.3037 15.6662 11.3037Z" fill="#FFFAFD"/>
</g>
<defs>
<clipPath id="clip0_3580_1175">
<rect width="24" height="24" fill="white"/>
</clipPath>
</defs>
</svg>
