<svg width="16" height="17" viewBox="0 0 16 17" fill="none" xmlns="http://www.w3.org/2000/svg">
<g clip-path="url(#clip0_691_2204)">
<path d="M15.6676 12.63L10.0155 1.69333C9.10744 0.0840867 6.89378 0.0819486 5.98447 1.69333L0.332715 12.63C-0.595597 14.2744 0.528309 16.3567 2.34778 16.3567H13.652C15.47 16.3567 16.5959 14.2761 15.6676 12.63ZM8 14.383C7.48318 14.383 7.0625 13.9402 7.0625 13.3962C7.0625 12.8522 7.48318 12.4094 8 12.4094C8.51681 12.4094 8.9375 12.8522 8.9375 13.3962C8.9375 13.9402 8.51681 14.383 8 14.383ZM8.9375 10.4357C8.9375 10.9797 8.51681 11.4225 8 11.4225C7.48318 11.4225 7.0625 10.9797 7.0625 10.4357V5.50146C7.0625 4.95744 7.48318 4.51461 8 4.51461C8.51681 4.51461 8.9375 4.95744 8.9375 5.50146V10.4357Z" fill="#733C92"/>
</g>
<defs>
<clipPath id="clip0_691_2204">
<rect width="16" height="16.8421" fill="white"/>
</clipPath>
</defs>
</svg>
