<svg width="36" height="36" viewBox="0 0 36 36" fill="none" xmlns="http://www.w3.org/2000/svg">
<g clip-path="url(#clip0_754_7775)">
<path d="M28.6172 0H7.38281C3.31193 0 0 3.31193 0 7.38281V28.6172C0 32.6881 3.31193 36 7.38281 36H28.6172C32.6881 36 36 32.6881 36 28.6172V7.38281C36 3.31193 32.6881 0 28.6172 0ZM26.3464 10.2656L17.997 18.6149L9.64779 10.2656H26.3464ZM7.22489 23.7679C7.14642 23.6204 7.10156 23.4522 7.10156 23.2734V11.3203C7.10156 11.1416 7.14642 10.9733 7.22489 10.8258L13.696 17.2969L7.22489 23.7679ZM9.64779 24.3281L15.1875 18.7884L17.9971 21.598L20.8096 18.7855L26.3522 24.3281H9.64779ZM28.8984 23.2734C28.8984 23.4522 28.8536 23.6204 28.7751 23.7679L22.3011 17.294L28.7731 10.8219C28.853 10.9703 28.8984 11.14 28.8984 11.3203V23.2734Z" fill="#504E51"/>
</g>
<defs>
<clipPath id="clip0_754_7775">
<rect width="36" height="36" fill="white"/>
</clipPath>
</defs>
</svg>
