<svg width="174" height="174" viewBox="0 0 174 174" fill="none" xmlns="http://www.w3.org/2000/svg">
<g filter="url(#filter0_bd_754_5683)">
<circle cx="87" cy="63" r="39" fill="#FFFAFD" fill-opacity="0.6" shape-rendering="crispEdges"/>
</g>
<path d="M91.9854 68.539C92.5362 68.539 92.9826 68.0926 92.9826 67.5418C92.9826 66.9911 92.5362 66.5447 91.9854 66.5447C91.4347 66.5447 90.9883 66.9911 90.9883 67.5418C90.9883 68.0926 91.4347 68.539 91.9854 68.539Z" fill="#C4A2FC"/>
<path d="M103.425 67.2493C103.243 67.2755 103.066 67.3271 102.898 67.4025C102.287 67.6547 101.62 67.7456 100.964 67.6667C100.497 68.2605 100.098 68.6793 100.201 69.2539C100.206 69.4195 100.212 69.6194 100.212 69.8687C100.274 70.8446 99.8116 71.0699 100.501 71.9C100.819 71.7349 101.169 71.6408 101.527 71.6241C101.885 71.6074 102.243 71.6685 102.575 71.8033C102.584 71.7922 102.593 71.7792 102.603 71.7663C102.701 71.66 102.773 71.5337 102.816 71.3962C102.566 70.9577 102.409 70.4721 102.356 69.97C102.354 69.6063 102.425 69.246 102.564 68.91C102.703 68.574 102.908 68.2692 103.166 68.0134C103.636 67.4162 103.6 67.4505 103.425 67.2493Z" fill="#C4A2FC"/>
<path d="M94.2487 75.3141C94.2097 74.8227 94.2097 74.8227 93.8118 74.5241C93.4177 74.2293 93.3573 74.2482 92.9646 74.3702C92.5421 74.5142 92.0989 74.5883 91.6526 74.5896C91.2945 74.5898 90.9372 74.5564 90.5853 74.4896C90.2333 74.3686 89.9288 74.567 89.5297 74.9097C89.7344 75.6358 89.6852 76.4101 89.3901 77.1045C89.6789 77.3398 89.7538 77.4486 90.1412 77.2123C90.6005 76.9458 91.1216 76.8042 91.6526 76.8014C92.112 76.8042 92.5686 76.8748 93.0074 77.0111C93.3065 76.8464 93.5915 76.6575 93.8598 76.4463C94.335 76.1119 94.335 76.1119 94.3019 75.8529C94.2753 75.6426 94.261 75.4667 94.2487 75.3141Z" fill="#C4A2FC"/>
<path d="M106.314 77.3194C107.255 73.7427 107.255 69.9833 106.314 66.4066C106.666 66.2048 106.965 65.9234 107.188 65.585C107.412 65.2465 107.552 64.8605 107.599 64.4578C107.628 64.1149 107.581 63.7699 107.463 63.4468C107.345 63.1237 107.157 62.8303 106.914 62.5869C106.671 62.3435 106.377 62.156 106.055 62.0374C105.732 61.9188 105.387 61.8719 105.044 61.9C104.62 61.9541 104.215 62.1087 103.863 62.3509C103.511 62.5931 103.223 62.916 103.021 63.2925C98.1604 62.2114 93.1219 62.2112 88.2615 63.2919C88.0596 62.9156 87.7708 62.5929 87.4191 62.3508C87.0673 62.1087 86.6628 61.9542 86.2392 61.9C85.8963 61.8719 85.5513 61.9188 85.2284 62.0374C84.9054 62.156 84.6121 62.3435 84.3689 62.5869C84.1256 62.8303 83.9383 63.1237 83.82 63.4468C83.7016 63.7699 83.655 64.1149 83.6834 64.4578C83.7267 64.8604 83.8655 65.2469 84.0882 65.5852C84.3108 65.9234 84.6109 66.2037 84.9636 66.4027C84.0204 69.9818 84.0202 73.7441 84.9629 77.3232C84.6111 77.5232 84.3117 77.8038 84.0892 78.1418C83.8668 78.4799 83.7277 78.8659 83.6834 79.2682C83.655 79.6111 83.7016 79.9561 83.82 80.2791C83.9384 80.6022 84.1257 80.8956 84.3689 81.139C84.6121 81.3824 84.9054 81.5699 85.2284 81.6885C85.5514 81.8072 85.8963 81.8541 86.2392 81.826C86.6626 81.7722 87.0669 81.6179 87.4185 81.376C87.77 81.1341 88.0586 80.8116 88.2601 80.4354C93.1213 81.5158 98.1603 81.5155 103.021 80.4348C103.223 80.8109 103.512 81.1335 103.864 81.3754C104.216 81.6174 104.62 81.7719 105.044 81.8259C105.387 81.854 105.731 81.8071 106.054 81.6884C106.377 81.5698 106.671 81.3823 106.914 81.1389C107.157 80.8955 107.344 80.6021 107.463 80.2791C107.581 79.956 107.628 79.6111 107.599 79.2682C107.556 78.8645 107.417 78.477 107.193 78.138C106.969 77.799 106.668 77.5183 106.314 77.3194ZM91.9852 65.2154C92.4454 65.2154 92.8952 65.3519 93.2779 65.6075C93.6605 65.8632 93.9587 66.2266 94.1348 66.6517C94.3109 67.0769 94.3569 67.5447 94.2672 67.996C94.1774 68.4473 93.9558 68.8619 93.6304 69.1873C93.305 69.5127 92.8904 69.7342 92.4391 69.824C91.9878 69.9138 91.52 69.8677 91.0948 69.6916C90.6697 69.5155 90.3063 69.2173 90.0506 68.8347C89.795 68.4521 89.6585 68.0022 89.6585 67.542C89.6593 66.9252 89.9047 66.3338 90.3408 65.8977C90.777 65.4615 91.3684 65.2161 91.9852 65.2154ZM94.6255 77.5336C93.8816 78.132 93.1458 78.5339 92.4669 78.2469C92.186 78.1538 91.8891 78.1188 91.5943 78.144C91.2994 78.1693 91.0128 78.2543 90.7518 78.3938C90.441 78.6021 90.0697 78.7009 89.6965 78.6748C89.3233 78.6487 88.9694 78.4991 88.6906 78.2496C87.4922 77.2517 88.3055 76.7572 88.3388 75.8516C88.2587 74.9411 87.8499 74.469 88.89 73.719C90.0865 72.7855 90.4643 73.2363 91.6529 73.2601C92.8603 73.2192 93.3311 72.4887 94.6099 73.4606C95.641 74.2196 95.508 74.7382 95.6213 75.6854C95.7551 76.7377 95.2065 77.1246 94.6255 77.5336ZM104.198 68.8514C103.939 69.0509 103.764 69.3415 103.711 69.6646C103.657 69.9877 103.728 70.3191 103.909 70.5919C104.099 70.899 104.179 71.2618 104.135 71.6203C104.091 71.9788 103.926 72.3116 103.667 72.5635V72.5641C103.171 73.2243 102.74 73.3658 102.122 73.0607C101.971 72.9748 101.799 72.9317 101.624 72.9361C101.431 72.9374 101.242 72.9937 101.08 73.0984C100.947 73.1903 100.796 73.2527 100.637 73.2815C100.478 73.3103 100.315 73.3047 100.158 73.2653C100.001 73.2258 99.8547 73.1533 99.7283 73.0527C99.6019 72.952 99.4985 72.8255 99.425 72.6816C98.3635 71.397 98.9993 70.6335 98.8719 69.2942C98.8433 68.3743 98.9219 68.1601 99.6334 67.2116C100.155 66.517 100.356 66.3028 101.166 66.3476C102.353 66.5959 103.395 65.1459 104.547 66.5131C105.291 67.505 104.607 68.3477 104.198 68.8514Z" fill="#C4A2FC"/>
<path d="M104.283 57.2382C104.371 57.2383 104.457 57.2211 104.538 57.1877C104.619 57.1543 104.692 57.1054 104.754 57.0436C104.815 56.9819 104.864 56.9086 104.898 56.8279C104.931 56.7472 104.948 56.6608 104.948 56.5734V55.9087C104.948 55.7324 104.878 55.5633 104.753 55.4386C104.629 55.3139 104.46 55.2439 104.283 55.2439C104.107 55.2439 103.938 55.3139 103.813 55.4386C103.689 55.5633 103.619 55.7324 103.619 55.9087V56.5734C103.619 56.6608 103.636 56.7472 103.669 56.8279C103.703 56.9086 103.752 56.9819 103.813 57.0436C103.875 57.1054 103.948 57.1543 104.029 57.1877C104.11 57.2211 104.196 57.2383 104.283 57.2382Z" fill="#C4A2FC"/>
<path d="M104.283 58.5676C104.196 58.5676 104.11 58.5847 104.029 58.6181C103.948 58.6515 103.875 58.7005 103.813 58.7622C103.752 58.824 103.703 58.8973 103.669 58.9779C103.636 59.0586 103.619 59.1451 103.619 59.2324V59.8972C103.619 60.0735 103.689 60.2426 103.813 60.3672C103.938 60.4919 104.107 60.5619 104.283 60.5619C104.46 60.5619 104.629 60.4919 104.753 60.3672C104.878 60.2426 104.948 60.0735 104.948 59.8972V59.2324C104.948 59.1451 104.931 59.0586 104.898 58.9779C104.864 58.8973 104.815 58.824 104.754 58.7622C104.692 58.7005 104.619 58.6515 104.538 58.6181C104.457 58.5847 104.371 58.5676 104.283 58.5676Z" fill="#C4A2FC"/>
<path d="M105.613 58.5678H106.278C106.454 58.5678 106.623 58.4978 106.748 58.3731C106.873 58.2485 106.943 58.0794 106.943 57.9031C106.943 57.7267 106.873 57.5577 106.748 57.433C106.623 57.3083 106.454 57.2383 106.278 57.2383H105.613C105.437 57.2383 105.268 57.3083 105.143 57.433C105.018 57.5577 104.948 57.7267 104.948 57.9031C104.948 58.0794 105.018 58.2485 105.143 58.3731C105.268 58.4978 105.437 58.5678 105.613 58.5678Z" fill="#C4A2FC"/>
<path d="M102.289 58.5678H102.954C103.13 58.5678 103.299 58.4978 103.424 58.3731C103.548 58.2485 103.618 58.0794 103.618 57.9031C103.618 57.7267 103.548 57.5577 103.424 57.433C103.299 57.3083 103.13 57.2383 102.954 57.2383H102.289C102.112 57.2383 101.943 57.3083 101.819 57.433C101.694 57.5577 101.624 57.7267 101.624 57.9031C101.624 58.0794 101.694 58.2485 101.819 58.3731C101.943 58.4978 102.112 58.5678 102.289 58.5678Z" fill="#C4A2FC"/>
<path d="M79.6867 74.5219C79.7741 74.522 79.8605 74.5048 79.9412 74.4714C80.0219 74.438 80.0952 74.3891 80.1569 74.3273C80.2187 74.2656 80.2676 74.1923 80.301 74.1116C80.3344 74.0309 80.3516 73.9444 80.3515 73.8571V73.1924C80.3515 73.0161 80.2815 72.847 80.1568 72.7223C80.0321 72.5976 79.8631 72.5276 79.6867 72.5276C79.5104 72.5276 79.3414 72.5976 79.2167 72.7223C79.092 72.847 79.022 73.0161 79.022 73.1924V73.8571C79.0219 73.9444 79.0391 74.0309 79.0725 74.1116C79.1059 74.1923 79.1548 74.2656 79.2166 74.3273C79.2783 74.3891 79.3516 74.438 79.4323 74.4714C79.513 74.5048 79.5994 74.522 79.6867 74.5219Z" fill="#C4A2FC"/>
<path d="M79.6867 75.8516C79.5994 75.8515 79.513 75.8687 79.4323 75.9021C79.3516 75.9354 79.2783 75.9844 79.2166 76.0462C79.1548 76.1079 79.1059 76.1812 79.0725 76.2619C79.0391 76.3426 79.0219 76.429 79.022 76.5163V77.1811C79.022 77.3574 79.092 77.5265 79.2167 77.6512C79.3414 77.7758 79.5104 77.8459 79.6867 77.8459C79.8631 77.8459 80.0321 77.7758 80.1568 77.6512C80.2815 77.5265 80.3515 77.3574 80.3515 77.1811V76.5163C80.3516 76.429 80.3344 76.3426 80.301 76.2619C80.2676 76.1812 80.2187 76.1079 80.1569 76.0462C80.0952 75.9844 80.0219 75.9354 79.9412 75.9021C79.8605 75.8687 79.7741 75.8515 79.6867 75.8516Z" fill="#C4A2FC"/>
<path d="M81.6811 74.522H81.0163C80.84 74.522 80.6709 74.592 80.5463 74.7167C80.4216 74.8413 80.3516 75.0104 80.3516 75.1867C80.3516 75.3631 80.4216 75.5321 80.5463 75.6568C80.6709 75.7815 80.84 75.8515 81.0163 75.8515H81.6811C81.8574 75.8515 82.0265 75.7815 82.1512 75.6568C82.2758 75.5321 82.3459 75.3631 82.3459 75.1867C82.3459 75.0104 82.2758 74.8413 82.1512 74.7167C82.0265 74.592 81.8574 74.522 81.6811 74.522Z" fill="#C4A2FC"/>
<path d="M78.3574 74.522H77.6926C77.5163 74.522 77.3472 74.592 77.2225 74.7167C77.0979 74.8413 77.0278 75.0104 77.0278 75.1867C77.0278 75.3631 77.0979 75.5321 77.2225 75.6568C77.3472 75.7815 77.5163 75.8515 77.6926 75.8515H78.3574C78.5337 75.8515 78.7028 75.7815 78.8274 75.6568C78.9521 75.5321 79.0222 75.3631 79.0222 75.1867C79.0222 75.0104 78.9521 74.8413 78.8274 74.7167C78.7028 74.592 78.5337 74.522 78.3574 74.522Z" fill="#C4A2FC"/>
<path d="M98.9656 62.1737V60.5624C98.9632 59.9207 98.7268 59.3019 98.3008 58.8221V47.267C98.2998 46.3858 97.9493 45.5409 97.3261 44.9178C96.703 44.2947 95.8582 43.9441 94.977 43.9431H76.3633C75.4821 43.9441 74.6373 44.2947 74.0141 44.9178C73.391 45.5409 73.0405 46.3858 73.0395 47.267V58.8221C72.6134 59.3019 72.3771 59.9207 72.3747 60.5624V62.1737C71.7828 62.4324 71.279 62.8578 70.9248 63.398C70.5707 63.9382 70.3815 64.5699 70.3804 65.2158V69.2045C70.3809 69.7332 70.5912 70.2402 70.9651 70.614C71.339 70.9879 71.8459 71.1982 72.3747 71.1988H73.0395V73.1931C73.0394 73.2804 73.0566 73.3669 73.09 73.4476C73.1234 73.5282 73.1723 73.6016 73.2341 73.6633C73.2958 73.725 73.3691 73.774 73.4498 73.8074C73.5305 73.8408 73.6169 73.8579 73.7042 73.8579H76.3633C76.4665 73.8579 76.5683 73.8338 76.6606 73.7876C76.7529 73.7414 76.8331 73.6743 76.895 73.5917L78.6897 71.1988H92.6506L94.4453 73.5917C94.5072 73.6743 94.5874 73.7414 94.6797 73.7876C94.772 73.8338 94.8738 73.8579 94.977 73.8579H97.6361C97.7234 73.8579 97.8098 73.8408 97.8905 73.8074C97.9712 73.774 98.0445 73.725 98.1062 73.6633C98.168 73.6016 98.2169 73.5282 98.2503 73.4476C98.2837 73.3669 98.3009 73.2804 98.3008 73.1931V71.1988H98.9656C99.4943 71.1982 100.001 70.9879 100.375 70.614C100.749 70.2402 100.959 69.7332 100.96 69.2045V65.2158C100.959 64.5699 100.77 63.9382 100.415 63.398C100.061 62.8578 99.5575 62.4324 98.9656 62.1737ZM76.3633 45.2727H94.977C95.5057 45.2732 96.0126 45.4835 96.3865 45.8574C96.7604 46.2313 96.9707 46.7382 96.9713 47.267V57.9977C96.7546 57.938 96.5312 57.9063 96.3065 57.9033H95.6417V57.2386C95.6407 56.3573 95.2902 55.5125 94.6671 54.8894C94.0439 54.2663 93.1991 53.9157 92.3179 53.9147V51.9204C92.3173 51.3916 92.107 50.8847 91.7331 50.5108C91.3592 50.1369 90.8523 49.9266 90.3236 49.9261H88.3292C87.8005 49.9266 87.2936 50.1369 86.9197 50.5108C86.5458 50.8847 86.3355 51.3916 86.3349 51.9204V53.9147H85.0054V51.9204C85.0048 51.3916 84.7945 50.8847 84.4206 50.5108C84.0467 50.1369 83.5398 49.9266 83.0111 49.9261H81.0167C80.488 49.9266 79.9811 50.1369 79.6072 50.5108C79.2333 50.8847 79.023 51.3916 79.0224 51.9204V53.9147C78.1412 53.9157 77.2964 54.2663 76.6732 54.8894C76.0501 55.5125 75.6996 56.3573 75.6986 57.2386V57.9033H75.0338C74.8091 57.9063 74.5857 57.938 74.369 57.9977V47.267C74.3696 46.7382 74.5799 46.2313 74.9538 45.8574C75.3276 45.4835 75.8346 45.2732 76.3633 45.2727ZM83.6758 53.9147H80.352V51.9204C80.3521 51.7441 80.4222 51.5751 80.5468 51.4505C80.6714 51.3258 80.8405 51.2557 81.0167 51.2556H83.0111C83.1873 51.2557 83.3563 51.3258 83.481 51.4505C83.6056 51.5751 83.6757 51.7441 83.6758 51.9204V53.9147ZM92.3179 55.2443C92.8466 55.2448 93.3535 55.4551 93.7274 55.829C94.1013 56.2029 94.3116 56.7098 94.3122 57.2386V57.9033H77.0281V57.2386C77.0287 56.7098 77.239 56.2029 77.6129 55.829C77.9867 55.4551 78.4937 55.2448 79.0224 55.2443H92.3179ZM90.9883 53.9147H87.6645V51.9204C87.6646 51.7441 87.7347 51.5751 87.8593 51.4505C87.9839 51.3258 88.153 51.2557 88.3292 51.2556H90.3236C90.4998 51.2557 90.6688 51.3258 90.7935 51.4505C90.9181 51.5751 90.9882 51.7441 90.9883 51.9204V53.9147ZM73.7042 60.5624C73.7077 60.2109 73.8488 59.8747 74.0974 59.6261C74.346 59.3775 74.6822 59.2363 75.0338 59.2329H96.3065C96.658 59.2364 96.9942 59.3776 97.2427 59.6262C97.4913 59.8748 97.6325 60.2109 97.6361 60.5624V61.892H73.7042V60.5624ZM76.0309 72.5283H74.369V71.1988H77.0281L76.0309 72.5283ZM96.9713 72.5283H95.3093L94.3122 71.1988H96.9713V72.5283ZM99.6304 69.2045C99.6303 69.3808 99.5602 69.5498 99.4355 69.6744C99.3109 69.7991 99.1419 69.8691 98.9656 69.8693H72.3747C72.1984 69.8691 72.0294 69.7991 71.9048 69.6744C71.7801 69.5498 71.71 69.3808 71.7099 69.2045V65.2158C71.7105 64.6871 71.9208 64.1802 72.2947 63.8063C72.6686 63.4324 73.1755 63.2221 73.7042 63.2215H97.6361C98.1648 63.2221 98.6717 63.4324 99.0456 63.8063C99.4195 64.1802 99.6298 64.6871 99.6304 65.2158V69.2045Z" fill="#151A6A"/>
<path d="M99.6306 42.6137C99.7179 42.6138 99.8044 42.5966 99.885 42.5632C99.9657 42.5298 100.039 42.4808 100.101 42.4191C100.163 42.3574 100.211 42.2841 100.245 42.2034C100.278 42.1227 100.295 42.0362 100.295 41.9489V41.2842C100.295 41.1078 100.225 40.9388 100.101 40.8141C99.976 40.6894 99.8069 40.6194 99.6306 40.6194C99.4543 40.6194 99.2852 40.6894 99.1605 40.8141C99.0359 40.9388 98.9658 41.1078 98.9658 41.2842V41.9489C98.9658 42.0362 98.9829 42.1227 99.0163 42.2034C99.0497 42.2841 99.0987 42.3574 99.1604 42.4191C99.2222 42.4808 99.2955 42.5298 99.3761 42.5632C99.4568 42.5966 99.5433 42.6138 99.6306 42.6137Z" fill="#151A6A"/>
<path d="M99.6306 43.9431C99.5433 43.9431 99.4568 43.9602 99.3761 43.9936C99.2955 44.027 99.2222 44.076 99.1604 44.1377C99.0987 44.1995 99.0497 44.2728 99.0163 44.3534C98.9829 44.4341 98.9658 44.5206 98.9658 44.6079V45.2727C98.9658 45.449 99.0359 45.6181 99.1605 45.7427C99.2852 45.8674 99.4543 45.9374 99.6306 45.9374C99.8069 45.9374 99.976 45.8674 100.101 45.7427C100.225 45.6181 100.295 45.449 100.295 45.2727V44.6079C100.295 44.5206 100.278 44.4341 100.245 44.3534C100.211 44.2728 100.163 44.1995 100.101 44.1377C100.039 44.076 99.9657 44.027 99.885 43.9936C99.8044 43.9602 99.7179 43.9431 99.6306 43.9431Z" fill="#151A6A"/>
<path d="M101.625 42.6138H100.96C100.784 42.6138 100.615 42.6838 100.49 42.8085C100.365 42.9331 100.295 43.1022 100.295 43.2785C100.295 43.4549 100.365 43.6239 100.49 43.7486C100.615 43.8733 100.784 43.9433 100.96 43.9433H101.625C101.801 43.9433 101.97 43.8733 102.095 43.7486C102.22 43.6239 102.29 43.4549 102.29 43.2785C102.29 43.1022 102.22 42.9331 102.095 42.8085C101.97 42.6838 101.801 42.6138 101.625 42.6138Z" fill="#151A6A"/>
<path d="M97.636 43.9433H98.3007C98.477 43.9433 98.6461 43.8733 98.7708 43.7486C98.8955 43.6239 98.9655 43.4549 98.9655 43.2785C98.9655 43.1022 98.8955 42.9331 98.7708 42.8085C98.6461 42.6838 98.477 42.6138 98.3007 42.6138H97.636C97.4597 42.6138 97.2906 42.6838 97.1659 42.8085C97.0412 42.9331 96.9712 43.1022 96.9712 43.2785C96.9712 43.4549 97.0412 43.6239 97.1659 43.7486C97.2906 43.8733 97.4597 43.9433 97.636 43.9433Z" fill="#151A6A"/>
<path d="M69.051 51.2558C69.1383 51.2558 69.2248 51.2387 69.3055 51.2053C69.3861 51.1719 69.4594 51.1229 69.5212 51.0612C69.5829 50.9995 69.6319 50.9262 69.6653 50.8455C69.6987 50.7648 69.7158 50.6783 69.7158 50.591V49.9262C69.7158 49.7499 69.6457 49.5809 69.5211 49.4562C69.3964 49.3315 69.2273 49.2615 69.051 49.2615C68.8747 49.2615 68.7056 49.3315 68.5809 49.4562C68.4563 49.5809 68.3862 49.7499 68.3862 49.9262V50.591C68.3862 50.6783 68.4033 50.7648 68.4367 50.8455C68.4701 50.9262 68.5191 50.9995 68.5808 51.0612C68.6426 51.1229 68.7159 51.1719 68.7965 51.2053C68.8772 51.2387 68.9637 51.2558 69.051 51.2558Z" fill="#151A6A"/>
<path d="M69.051 52.5852C68.9637 52.5852 68.8772 52.6023 68.7965 52.6357C68.7159 52.6691 68.6426 52.7181 68.5808 52.7798C68.5191 52.8415 68.4701 52.9148 68.4367 52.9955C68.4033 53.0762 68.3862 53.1627 68.3862 53.25V53.9148C68.3862 54.0911 68.4563 54.2601 68.5809 54.3848C68.7056 54.5095 68.8747 54.5795 69.051 54.5795C69.2273 54.5795 69.3964 54.5095 69.5211 54.3848C69.6457 54.2601 69.7158 54.0911 69.7158 53.9148V53.25C69.7158 53.1627 69.6987 53.0762 69.6653 52.9955C69.6319 52.9148 69.5829 52.8415 69.5212 52.7798C69.4594 52.7181 69.3861 52.6691 69.3055 52.6357C69.2248 52.6023 69.1383 52.5852 69.051 52.5852Z" fill="#151A6A"/>
<path d="M71.0454 52.5852C71.2217 52.5852 71.3908 52.5151 71.5154 52.3905C71.6401 52.2658 71.7101 52.0967 71.7101 51.9204C71.7101 51.7441 71.6401 51.575 71.5154 51.4503C71.3908 51.3257 71.2217 51.2556 71.0454 51.2556H70.3806C70.2043 51.2556 70.0352 51.3257 69.9105 51.4503C69.7859 51.575 69.7158 51.7441 69.7158 51.9204C69.7158 52.0967 69.7859 52.2658 69.9105 52.3905C70.0352 52.5151 70.2043 52.5852 70.3806 52.5852H71.0454Z" fill="#151A6A"/>
<path d="M67.7211 51.2556H67.0564C66.8801 51.2556 66.711 51.3257 66.5863 51.4503C66.4616 51.575 66.3916 51.7441 66.3916 51.9204C66.3916 52.0967 66.4616 52.2658 66.5863 52.3905C66.711 52.5151 66.8801 52.5852 67.0564 52.5852H67.7211C67.8975 52.5852 68.0665 52.5151 68.1912 52.3905C68.3159 52.2658 68.3859 52.0967 68.3859 51.9204C68.3859 51.7441 68.3159 51.575 68.1912 51.4503C68.0665 51.3257 67.8975 51.2556 67.7211 51.2556Z" fill="#151A6A"/>
<defs>
<filter id="filter0_bd_754_5683" x="0" y="-12" width="174" height="186" filterUnits="userSpaceOnUse" color-interpolation-filters="sRGB">
<feFlood flood-opacity="0" result="BackgroundImageFix"/>
<feGaussianBlur in="BackgroundImageFix" stdDeviation="18"/>
<feComposite in2="SourceAlpha" operator="in" result="effect1_backgroundBlur_754_5683"/>
<feColorMatrix in="SourceAlpha" type="matrix" values="0 0 0 0 0 0 0 0 0 0 0 0 0 0 0 0 0 0 127 0" result="hardAlpha"/>
<feOffset dy="24"/>
<feGaussianBlur stdDeviation="24"/>
<feComposite in2="hardAlpha" operator="out"/>
<feColorMatrix type="matrix" values="0 0 0 0 0 0 0 0 0 0 0 0 0 0 0 0 0 0 0.08 0"/>
<feBlend mode="normal" in2="effect1_backgroundBlur_754_5683" result="effect2_dropShadow_754_5683"/>
<feBlend mode="normal" in="SourceGraphic" in2="effect2_dropShadow_754_5683" result="shape"/>
</filter>
</defs>
</svg>
